<svg xmlns="http://www.w3.org/2000/svg" width="40" height="29.883" viewBox="0 0 40 29.883">
  <g id="Grupo_1179558" data-name="Grupo 1179558" transform="translate(0 -64.75)">
    <path id="Trazado_1001247" data-name="Trazado 1001247" d="M28.281,71.2a11.7,11.7,0,0,0-5.511,1.376A11.718,11.718,0,0,0,3.714,67.91l.8.856A10.546,10.546,0,1,1,6.352,85.55l-.138-.082H2.72V81.973l-.082-.138a10.552,10.552,0,0,1,1.107-12.27L2.859,68.8A11.724,11.724,0,0,0,1.548,82.292V86.64H5.9a11.715,11.715,0,0,0,11.331.17,11.818,11.818,0,0,0,3.923,5.4,11.61,11.61,0,0,0,7.132,2.419,11.786,11.786,0,0,0,2.492-.266l-.248-1.145a10.614,10.614,0,0,1-2.244.239,10.448,10.448,0,0,1-6.418-2.177,10.632,10.632,0,0,1-3.609-5.093A11.715,11.715,0,0,0,23.111,73.72a10.549,10.549,0,0,1,14.251,14.56l-.082.138v3.495H33.786l-.138.082a10.519,10.519,0,0,1-2.053.934l.368,1.113a11.693,11.693,0,0,0,2.141-.957h4.348V88.737A11.721,11.721,0,0,0,28.281,71.2Z" fill="#3e5d56"/>
    <path id="Trazado_1001248" data-name="Trazado 1001248" d="M92.344,157.094H90v4.688h2.344v2.344h4.688v-2.344h2.344v-4.687H97.031V154.75H92.344Zm1.172-1.172h2.344v2.344H98.2v2.344H95.859v2.344H93.516v-2.344H91.172v-2.344h2.344Z" transform="translate(-82.969 -82.969)" fill="#3e5d56"/>
    <path id="Trazado_1001249" data-name="Trazado 1001249" d="M414.5,199.749h1.172v1.172H414.5Z" transform="translate(-382.117 -124.452)" fill="#3e5d56"/>
    <path id="Trazado_1001250" data-name="Trazado 1001250" d="M384.5,184.749h1.172v1.172H384.5Z" transform="translate(-354.461 -110.624)" fill="#3e5d56"/>
    <path id="Trazado_1001251" data-name="Trazado 1001251" d="M172.5,102.25h1.172v1.172H172.5Z" transform="translate(-159.023 -34.57)" fill="#3e5d56"/>
    <path id="Trazado_1001252" data-name="Trazado 1001252" d="M202.5,117.25h1.172v1.172H202.5Z" transform="translate(-186.68 -48.398)" fill="#3e5d56"/>
    <path id="Trazado_1001253" data-name="Trazado 1001253" d="M317,252.25h8.2v1.172H317Z" transform="translate(-292.234 -172.852)" fill="#3e5d56"/>
    <path id="Trazado_1001254" data-name="Trazado 1001254" d="M302,327.249h9.375v1.172H302Z" transform="translate(-278.406 -241.991)" fill="#3e5d56"/>
    <path id="Trazado_1001255" data-name="Trazado 1001255" d="M302,289.75h9.375v1.172H302Z" transform="translate(-278.406 -207.422)" fill="#3e5d56"/>
  </g>
</svg>
