<svg xmlns="http://www.w3.org/2000/svg" width="40" height="39.997" viewBox="0 0 40 39.997">
  <g id="Grupo_1179561" data-name="Grupo 1179561" transform="translate(0 -0.018)">
    <g id="Grupo_1179559" data-name="Grupo 1179559" transform="translate(0 0.018)">
      <path id="Trazado_1001256" data-name="Trazado 1001256" d="M368.72,247.908a1.673,1.673,0,0,0-.506.078V247.3a4.1,4.1,0,0,0-5.54-1.066,1.686,1.686,0,0,0-2.184,1.6v2.814a1.64,1.64,0,0,0-2.092,1.566v2.832a7.279,7.279,0,0,0,3.014,5.909v4.522h1.172v-5.145a6.157,6.157,0,0,1-3.014-5.286v-2.832a.46.46,0,1,1,.92,0v2.832h1.172v-7.212a.506.506,0,0,1,1.012,0v5.873h1.172v-7.45a.506.506,0,1,1,1.012,0v7.45h1.172V247.3a.506.506,0,0,1,1.012,0v6.407h1.172v-4.121a.506.506,0,0,1,1.012,0v6.428a8.279,8.279,0,0,1-1.31,4.467v5h1.172v-4.666a9.428,9.428,0,0,0,1.31-4.8v-6.428a1.68,1.68,0,0,0-1.678-1.678Z" transform="translate(-330.398 -225.48)" fill="#3e5d56"/>
      <path id="Trazado_1001257" data-name="Trazado 1001257" d="M10.368,250.584a1.626,1.626,0,0,0-.46.066v-2.814a1.686,1.686,0,0,0-2.184-1.6,1.68,1.68,0,0,0-3.271-.5A1.687,1.687,0,0,0,2.184,247.3v.686A1.686,1.686,0,0,0,0,249.588v6.428a9.429,9.429,0,0,0,1.31,4.8v4.666H2.483v-5a8.279,8.279,0,0,1-1.31-4.467v-6.428a.506.506,0,0,1,1.012,0v4.121H3.356V247.3a.506.506,0,0,1,1.012,0v6.407H5.54v-7.45a.506.506,0,0,1,1.012,0v7.45H7.725v-5.873a.506.506,0,0,1,1.012,0v7.212H9.909v-2.832a.46.46,0,0,1,.92,0v2.832a6.157,6.157,0,0,1-3.014,5.286v5.145H8.987v-4.522A7.278,7.278,0,0,0,12,255.048v-2.832a1.634,1.634,0,0,0-1.632-1.632Z" transform="translate(0 -225.482)" fill="#3e5d56"/>
      <path id="Trazado_1001258" data-name="Trazado 1001258" d="M88.668,123.586l-3.023-6.271a3.469,3.469,0,0,1,3.7,1.09l2.093,2.63h1.025v-8.089H91.293v6.022c-.007-.008-1.032-1.3-1.038-1.3a4.643,4.643,0,0,0-5.675-1.174l-.508.261,3.54,7.344a13.784,13.784,0,0,0,5.165,5.747V144.12h1.172V129.175A12.692,12.692,0,0,1,88.668,123.586Z" transform="translate(-77.504 -104.123)" fill="#3e5d56"/>
      <path id="Trazado_1001259" data-name="Trazado 1001259" d="M327.5,462.234h1.172v3.887H327.5Z" transform="translate(-301.917 -426.124)" fill="#3e5d56"/>
      <path id="Trazado_1001260" data-name="Trazado 1001260" d="M191.737,6.46a2.351,2.351,0,0,0-3.516-2.029V4.038a2.351,2.351,0,0,0-3.538-2.016A2.355,2.355,0,0,0,180.7.7a2.329,2.329,0,0,0-.686,1.657v.515A2.34,2.34,0,0,0,176.5,4.9v2.77h1.172V4.9a1.164,1.164,0,0,1,1.617-1.076,1.13,1.13,0,0,1,.726,1.065v9.426h1.172V2.359a1.164,1.164,0,0,1,1.617-1.076,1.131,1.131,0,0,1,.726,1.076V14.312h1.172V4.039a1.172,1.172,0,1,1,2.344,0V14.312h1.172V6.46a1.172,1.172,0,0,1,2.344,0V18.609a11.071,11.071,0,0,1-2.266,6.685v9.662h1.172V25.671a12.16,12.16,0,0,0,2.266-7.065Z" transform="translate(-162.714 -0.018)" fill="#3e5d56"/>
      <path id="Trazado_1001261" data-name="Trazado 1001261" d="M205.125,202.234a3.362,3.362,0,0,0-2.032.675c-3.921-2.808-9.922,3.839,0,8.367.362-.18,5.35-2.337,5.429-5.645A3.4,3.4,0,0,0,205.125,202.234Zm-2.032,7.75c-1.382-.679-4.257-2.48-4.257-4.353a2.224,2.224,0,0,1,3.834-1.536l.424.444.424-.444a2.224,2.224,0,0,1,3.834,1.536C207.35,207.5,204.474,209.305,203.092,209.984Z" transform="translate(-182.233 -186.436)" fill="#3e5d56"/>
    </g>
    <g id="Grupo_1179560" data-name="Grupo 1179560" transform="translate(19.102 19.409)">
      <path id="Trazado_1001262" data-name="Trazado 1001262" d="M244.5,248.234h1.172v1.172H244.5Z" transform="translate(-244.503 -248.234)" fill="#3e5d56"/>
      <path id="Trazado_1001263" data-name="Trazado 1001263" d="M274.5,248.234h1.172v1.172H274.5Z" transform="translate(-272.159 -248.234)" fill="#3e5d56"/>
    </g>
  </g>
</svg>
