<svg xmlns="http://www.w3.org/2000/svg" width="33.586" height="40" viewBox="0 0 33.586 40">
  <g id="Grupo_1179562" data-name="Grupo 1179562" transform="translate(-41.051 0)">
    <path id="Trazado_1001264" data-name="Trazado 1001264" d="M375.565,481.006h1.172v2.421h-1.172Z" transform="translate(-308.38 -443.427)" fill="#3e5d56"/>
    <path id="Trazado_1001265" data-name="Trazado 1001265" d="M72.025,2.612a8.941,8.941,0,0,0-12.629,0L57.844,4.164,56.291,2.612A8.93,8.93,0,0,0,43.662,15.241l.877.877.829-.829-.877-.877A7.758,7.758,0,0,1,55.462,3.441l2.3,2.3a3.514,3.514,0,0,0-3.114,4.991A4.736,4.736,0,0,0,51.4,15.209V21.32l-5.148-5.148L45.422,17l1.544,1.544a1.761,1.761,0,0,0-.256.91v4.2a1.758,1.758,0,0,0-2.344,1.657v3.951l2.964,4.688V40H48.5V33.614l-2.964-4.688V25.315a.586.586,0,1,1,1.172,0v2.931a2.346,2.346,0,0,1,2.344,2.338V31.72h1.172V30.584a3.515,3.515,0,0,0-2.344-3.31V19.462l1.172,1.172V25.86h1.172V21.805L51.4,22.977V25.86H52.57V24.149L57.2,28.776l-2.835,4.849V40h1.172V33.943l2.31-3.951,2.31,3.951V40h1.172V33.625L58.49,28.776l4.627-4.627V25.86h1.172V22.977l1.172-1.172V25.86h1.172V20.634L67.8,19.462v7.813a3.515,3.515,0,0,0-2.344,3.31V31.72h1.172V30.584a2.346,2.346,0,0,1,2.344-2.338V25.315a.586.586,0,0,1,1.172,0v3.612l-2.964,4.688v2.793h1.172V33.954l2.964-4.688V25.315a1.758,1.758,0,0,0-2.344-1.657v-4.2a1.761,1.761,0,0,0-.256-.91l3.3-3.3a8.94,8.94,0,0,0,0-12.629Zm-14.182,4.3A2.345,2.345,0,1,1,55.5,9.259,2.348,2.348,0,0,1,57.844,6.914Zm-2.477,4.84a3.511,3.511,0,0,0,4.954,0,3.537,3.537,0,0,1,2.8,3.456v1.139H61.994V14.507H60.822v1.541l-.767-.767a1.758,1.758,0,0,0-2.486,2.486l3.254,3.269h-5.86V14.507H53.791v1.841H52.57V15.209a3.552,3.552,0,0,1,2.8-3.456Zm-.4,10.454h5.86v2.578l-2.98,2.98-2.881-2.881Zm6.806-1.9L58.4,16.938a.586.586,0,0,1,.829-.829l2.768,2.761V17.52h1.123v1.441Zm-9.2-2.789h1.221v6.193L52.57,22.492Zm9.425,6.094V21.741l2.294-2.294V15.209a4.713,4.713,0,0,0-3.253-4.476,3.514,3.514,0,0,0-3.115-4.989l2.3-2.3A7.758,7.758,0,0,1,71.2,14.412Z" fill="#3e5d56"/>
    <path id="Trazado_1001266" data-name="Trazado 1001266" d="M105.958,40.041l-.515-1.053a6.507,6.507,0,0,0-1.094.676l.712.931A5.337,5.337,0,0,1,105.958,40.041Z" transform="translate(-58.354 -35.942)" fill="#3e5d56"/>
    <path id="Trazado_1001267" data-name="Trazado 1001267" d="M82.75,59.928l1.016.585a5.352,5.352,0,0,1,.614-.857l-.881-.773A6.514,6.514,0,0,0,82.75,59.928Z" transform="translate(-38.442 -54.282)" fill="#3e5d56"/>
  </g>
</svg>
