<svg xmlns="http://www.w3.org/2000/svg" width="90" height="90" viewBox="0 0 90 90">
  <g id="Grupo_1179571" data-name="Grupo 1179571" transform="translate(-211.34 -4080)">
    <rect id="Rectángulo_455174" data-name="Rectángulo 455174" width="90" height="90" rx="10" transform="translate(211.34 4080)" fill="#773b3d"/>
    <g id="Grupo_1179570" data-name="Grupo 1179570" transform="translate(222.331 4091.444)">
      <path id="Trazado_1001300" data-name="Trazado 1001300" d="M48.374,42.056a.75.75,0,0,0,.75-.75V14.788a5.958,5.958,0,0,0-5.951-5.951h-4.95V8.083a1.931,1.931,0,0,0-1.929-1.93H31.862a5.124,5.124,0,0,0-3.028-4.124,5.382,5.382,0,0,0-7.567,4.114H16.829A1.931,1.931,0,0,0,14.9,8.072v.765H9.96a5.958,5.958,0,0,0-5.951,5.951V60.494A5.957,5.957,0,0,0,9.96,66.444H43.173a5.939,5.939,0,0,0,3.117-.881.75.75,0,1,0-.787-1.277,4.435,4.435,0,0,1-2.33.659H9.96a4.456,4.456,0,0,1-4.451-4.451V14.788A4.456,4.456,0,0,1,9.96,10.337H14.9v1.922H10.813A3.718,3.718,0,0,0,7.1,15.974V59.318a3.713,3.713,0,0,0,3.714,3.7h31.5a3.719,3.719,0,0,0,1.181-.191.75.75,0,1,0-.476-1.423,2.222,2.222,0,0,1-.705.114h-31.5a2.212,2.212,0,0,1-2.214-2.2V15.974a2.217,2.217,0,0,1,2.214-2.215H14.9v.109A1.931,1.931,0,0,0,16.829,15.8H36.293a1.931,1.931,0,0,0,1.929-1.929v-.109h4.087a2.217,2.217,0,0,1,2.214,2.215v25.5a.75.75,0,0,0,1.5,0v-25.5a3.718,3.718,0,0,0-3.714-3.715H38.222V10.337h4.95a4.456,4.456,0,0,1,4.451,4.451V41.306a.75.75,0,0,0,.75.75ZM36.722,13.869a.43.43,0,0,1-.429.429H16.829a.43.43,0,0,1-.429-.429v-5.8a.43.43,0,0,1,.429-.429h5.135a.75.75,0,0,0,.75-.75,3.878,3.878,0,0,1,5.537-3.482A3.754,3.754,0,0,1,30.409,6.9a.75.75,0,0,0,.75.75h5.134a.43.43,0,0,1,.429.43v5.786Z" fill="#fff5c1"/>
      <path id="Trazado_1001301" data-name="Trazado 1001301" d="M26.561,4.321A2.669,2.669,0,1,0,29.23,6.99a2.672,2.672,0,0,0-2.669-2.669Zm0,3.838A1.169,1.169,0,1,1,27.73,6.99,1.17,1.17,0,0,1,26.561,8.159Z" fill="#fff5c1"/>
      <path id="Trazado_1001302" data-name="Trazado 1001302" d="M42.718,26.966A2.166,2.166,0,0,0,40.554,24.8H37.093L36.1,22.474a2.69,2.69,0,0,0-4.944-.009l-.877,2.04L28.321,19.4a2.69,2.69,0,0,0-5.014-.013l-3.214,8.237-.543-1.4A2.7,2.7,0,0,0,17.043,24.5H12.568a2.164,2.164,0,0,0,0,4.328h3.351l1.663,4.285a2.689,2.689,0,0,0,5.011,0L25.8,24.9l1.89,4.918a2.692,2.692,0,0,0,4.979.1l.958-2.23a2.682,2.682,0,0,0,2.381,1.442h4.547a2.166,2.166,0,0,0,2.164-2.164Zm-7.8-.06-.6-1.409a.75.75,0,0,0-1.379,0l-1.647,3.832a1.191,1.191,0,0,1-2.2-.043l-2.584-6.726a.75.75,0,0,0-1.4,0L21.2,32.576a1.188,1.188,0,0,1-2.215,0L17.132,27.81a.75.75,0,0,0-.7-.479H12.568a.664.664,0,0,1,0-1.328h4.475a1.2,1.2,0,0,1,1.108.76l1.241,3.2a.75.75,0,0,0,1.4,0L24.7,19.93a1.189,1.189,0,0,1,2.216.006l2.624,6.828a.75.75,0,0,0,1.389.027l1.6-3.735a1.189,1.189,0,0,1,2.185,0l1.183,2.784a.75.75,0,0,0,.69.457h3.958a.664.664,0,0,1,0,1.328H36.008a1.185,1.185,0,0,1-1.093-.724Z" fill="#fff5c1"/>
      <path id="Trazado_1001303" data-name="Trazado 1001303" d="M20.641,37.889a.75.75,0,0,0-.75-.75h-7.63a.75.75,0,0,0-.75.75v7.63a.75.75,0,0,0,.75.75h7.63a.75.75,0,0,0,.75-.75Zm-1.5,6.88h-6.13v-6.13h6.13Z" fill="#fff5c1"/>
      <path id="Trazado_1001304" data-name="Trazado 1001304" d="M40.414,39.77a.75.75,0,0,0-.75-.75H23.073a.75.75,0,0,0,0,1.5h16.59A.75.75,0,0,0,40.414,39.77Z" fill="#fff5c1"/>
      <path id="Trazado_1001305" data-name="Trazado 1001305" d="M31.947,42.888a.75.75,0,0,0,0,1.5h3.3a.75.75,0,0,0,0-1.5Z" fill="#fff5c1"/>
      <path id="Trazado_1001306" data-name="Trazado 1001306" d="M23.073,42.888a.75.75,0,0,0,0,1.5h5.9a.75.75,0,1,0,0-1.5Z" fill="#fff5c1"/>
      <path id="Trazado_1001307" data-name="Trazado 1001307" d="M19.891,48.2h-7.63a.75.75,0,0,0-.75.75v7.63a.75.75,0,0,0,.75.75h7.63a.75.75,0,0,0,.75-.75v-7.63A.75.75,0,0,0,19.891,48.2Zm-.75,7.63h-6.13V49.7h6.13Z" fill="#fff5c1"/>
      <path id="Trazado_1001308" data-name="Trazado 1001308" d="M35.248,55.765a.75.75,0,1,0,0-1.5h-3.3a.75.75,0,0,0,0,1.5Z" fill="#fff5c1"/>
      <path id="Trazado_1001309" data-name="Trazado 1001309" d="M28.975,55.765a.75.75,0,0,0,0-1.5h-5.9a.75.75,0,1,0,0,1.5Z" fill="#fff5c1"/>
      <path id="Trazado_1001310" data-name="Trazado 1001310" d="M14.857,43.073a.75.75,0,0,0,1.061,0L17.6,41.394a.75.75,0,0,0-1.061-1.061l-1.149,1.149-.07-.07a.75.75,0,1,0-1.061,1.061Z" fill="#fff5c1"/>
      <path id="Trazado_1001311" data-name="Trazado 1001311" d="M14.857,54.4a.75.75,0,0,0,1.061,0L17.6,52.721a.75.75,0,0,0-1.061-1.061l-1.149,1.149-.07-.07A.75.75,0,1,0,14.257,53.8Z" fill="#fff5c1"/>
      <path id="Trazado_1001312" data-name="Trazado 1001312" d="M56.066,42.757A7.92,7.92,0,0,0,51.5,44.2,7.931,7.931,0,0,0,39.064,49.77H23.074a.75.75,0,0,0,0,1.5H39.031c.491,8.658,11.625,14.82,12.11,15.083a.749.749,0,0,0,.717,0c.5-.27,12.134-6.7,12.134-15.671a7.934,7.934,0,0,0-7.925-7.925ZM51.5,64.829c-1.932-1.144-10.992-6.9-10.992-14.147a6.44,6.44,0,0,1,6.439-6.425,6.369,6.369,0,0,1,4.072,1.461.75.75,0,0,0,.96,0,6.305,6.305,0,0,1,4.087-1.461,6.432,6.432,0,0,1,6.425,6.425c0,7.25-9.061,13-10.992,14.147Z" fill="#fff5c1"/>
      <path id="Trazado_1001313" data-name="Trazado 1001313" d="M59.921,53.193h-3.97l-1.122-2.424a.75.75,0,0,0-1.347-.029l-1.875,3.632L49.84,49.744a.75.75,0,0,0-.7-.482.779.779,0,0,0-.7.485l-1.424,3.767H43.575a.75.75,0,0,0,0,1.5h3.958a.75.75,0,0,0,.7-.485l.909-2.405,1.662,4.35a.75.75,0,0,0,.659.481h.042a.751.751,0,0,0,.667-.406l1.94-3.76.679,1.467a.75.75,0,0,0,.681.435h4.45a.75.75,0,0,0,0-1.5Z" fill="#fff5c1"/>
    </g>
  </g>
</svg>
