<svg id="Grupo_1179557" data-name="Grupo 1179557" xmlns="http://www.w3.org/2000/svg" width="40" height="40" viewBox="0 0 40 40">
  <path id="Trazado_1001241" data-name="Trazado 1001241" d="M80.115,67.185H73.067V60.138H67.193v7.048H60.145v5.873h3.506V71.884H61.32V68.36h7.048V61.313h3.524V68.36H78.94v3.524H71.892v7.048H68.368V71.884H64.825v1.175h2.368v7.048h5.874V73.058h7.048Z" transform="translate(-55.446 -55.44)" fill="#3e5d56"/>
  <path id="Trazado_1001242" data-name="Trazado 1001242" d="M36.97,34.584,34.553,18.759H28.793A14.686,14.686,0,1,0,14.684,29.365a14.528,14.528,0,0,0,5.665-1.133l-.978,6.4a5.369,5.369,0,0,0-2.944,4.784V40H34.048V38.825h-16.4a4.2,4.2,0,0,1,4.149-3.6H34.636a4.2,4.2,0,0,1,4.149,3.6H35.223V40H40v-.587a5.37,5.37,0,0,0-3.03-4.829ZM14.684,28.19a13.5,13.5,0,1,1,12.882-9.431H21.8L20.56,26.848A13.357,13.357,0,0,1,14.684,28.19ZM28.175,27a1.172,1.172,0,1,1,1.173-1.172A1.174,1.174,0,0,1,28.175,27Zm-.587,1.1a2.356,2.356,0,0,0,1.175,0v5.954H27.587Zm2.349,5.954V27.371a2.347,2.347,0,1,0-3.524,0v6.678H21.792a5.358,5.358,0,0,0-1.164.129l2.177-14.244H33.544l2.173,14.224a5.368,5.368,0,0,0-1.081-.109Z" fill="#3e5d56"/>
  <path id="Trazado_1001243" data-name="Trazado 1001243" d="M0,0H1.222V1.175H0Z" transform="translate(23.61 22.353) rotate(-80.914)" fill="#3e5d56"/>
  <path id="Trazado_1001244" data-name="Trazado 1001244" d="M0,0H3.431V1.175H0Z" transform="translate(22.896 26.911) rotate(-81.376)" fill="#3e5d56"/>
  <path id="Trazado_1001245" data-name="Trazado 1001245" d="M82.942,62.016l-.7-.941c-.328.245-.648.509-.95.785l.792.867C82.355,62.477,82.644,62.238,82.942,62.016Z" transform="translate(-74.938 -56.304)" fill="#3e5d56"/>
  <path id="Trazado_1001246" data-name="Trazado 1001246" d="M61.893,83.11l-.874-.784c-.274.305-.535.627-.777.957l.948.694C61.409,83.678,61.645,83.387,61.893,83.11Z" transform="translate(-55.536 -75.894)" fill="#3e5d56"/>
</svg>
