<svg xmlns="http://www.w3.org/2000/svg" width="26.953" height="40" viewBox="0 0 26.953 40">
  <g id="Grupo_1178449" data-name="Grupo 1178449" transform="translate(-83.5)">
    <path id="Trazado_999082" data-name="Trazado 999082" d="M109.867,28.281a.586.586,0,0,0,.586-.586V5.273A5.279,5.279,0,0,0,105.18,0H91.117a5.279,5.279,0,0,0-5.273,5.273v7.394a11.109,11.109,0,0,0,0,13.65v8.409A5.279,5.279,0,0,0,91.117,40H105.18a5.279,5.279,0,0,0,5.273-5.273V30.039a.586.586,0,0,0-1.172,0v4.688a4.106,4.106,0,0,1-4.1,4.1H91.117a4.106,4.106,0,0,1-4.1-4.1V27.6a11.232,11.232,0,0,0,1.172.962v1.474a2.933,2.933,0,0,0,2.93,2.93H105.18a2.933,2.933,0,0,0,2.93-2.93V13.633a.586.586,0,0,0-1.172,0V30.039A1.76,1.76,0,0,1,105.18,31.8H91.117a1.76,1.76,0,0,1-1.758-1.758v-.745a11.133,11.133,0,1,0,0-19.6v-2.5h17.578v4.1a.586.586,0,0,0,1.172,0V5.273a2.933,2.933,0,0,0-2.93-2.93H91.117a2.933,2.933,0,0,0-2.93,2.93V10.42a11.222,11.222,0,0,0-1.172.962V5.273a4.106,4.106,0,0,1,4.1-4.1H105.18a4.106,4.106,0,0,1,4.1,4.1V27.7A.586.586,0,0,0,109.867,28.281ZM91.117,3.516H105.18a1.76,1.76,0,0,1,1.758,1.758v.742H89.359V5.273A1.76,1.76,0,0,1,91.117,3.516Zm5.859,10.608A5.912,5.912,0,0,1,100,17.148H98.69a4.721,4.721,0,0,0-1.713-1.713Zm7.617,5.369a10.008,10.008,0,0,1-.069,1.172H99.172a4.7,4.7,0,0,0,0-2.344h5.353A10.008,10.008,0,0,1,104.594,19.492Zm-7.617,4.057a4.721,4.721,0,0,0,1.713-1.713H100a5.913,5.913,0,0,1-3.025,3.025Zm1.172-4.057a3.516,3.516,0,1,1-3.516-3.516A3.52,3.52,0,0,1,98.148,19.492Zm-5.859,5.369a5.913,5.913,0,0,1-3.025-3.025h1.312a4.721,4.721,0,0,0,1.713,1.713Zm0-9.425a4.721,4.721,0,0,0-1.713,1.713H89.264a5.913,5.913,0,0,1,3.025-3.025Zm-2.2,2.885a4.7,4.7,0,0,0,0,2.344H84.741a9.943,9.943,0,0,1,0-2.344Zm-5.143,3.516H88a7.084,7.084,0,0,0,4.285,4.285v3.053A10,10,0,0,1,84.951,21.836Zm8.51,7.548V24.031a4.7,4.7,0,0,0,2.344,0v5.352a9.944,9.944,0,0,1-2.344,0Zm3.516-.21V26.121a7.084,7.084,0,0,0,4.285-4.285h3.053a10,10,0,0,1-7.338,7.338Zm7.338-12.025h-3.053a7.084,7.084,0,0,0-4.285-4.285V9.81A10,10,0,0,1,104.315,17.148ZM95.8,9.6v5.352a4.7,4.7,0,0,0-2.344,0V9.6a9.943,9.943,0,0,1,2.344,0Zm-3.516.21v3.053A7.084,7.084,0,0,0,88,17.148H84.951A10,10,0,0,1,92.289,9.81Z" fill="#3e5d56"/>
    <path id="Trazado_999083" data-name="Trazado 999083" d="M227.758,437a1.758,1.758,0,0,0,0,3.516h3.516a1.758,1.758,0,0,0,0-3.516Zm4.1,1.758a.587.587,0,0,1-.586.586h-3.516a.586.586,0,0,1,0-1.172h3.516A.587.587,0,0,1,231.859,438.758Z" transform="translate(-131.367 -402.859)" fill="#3e5d56"/>
  </g>
</svg>
