<svg xmlns="http://www.w3.org/2000/svg" width="128" height="128" viewBox="0 0 128 128">
  <g id="Grupo_1178709" data-name="Grupo 1178709" transform="translate(-383.746 -8399.517)">
    <circle id="Elipse_13609" data-name="Elipse 13609" cx="64" cy="64" r="64" transform="translate(383.746 8399.517)" fill="#565097"/>
    <path id="Trazado_999363" data-name="Trazado 999363" d="M77.039,10H69.627a.849.849,0,0,0-.849.849v6.014H57.338L59.073,13.7a.849.849,0,0,0-1.488-.816L55.9,15.945l-1.68-3.065a.849.849,0,1,0-1.488.816l1.736,3.166H33.018L34.753,13.7a.849.849,0,1,0-1.488-.816l-1.68,3.065L29.9,12.88a.849.849,0,0,0-1.488.816l1.736,3.166H19.109V10.849A.849.849,0,0,0,18.261,10H10.849a.849.849,0,0,0-.849.849V77.039a.849.849,0,0,0,.849.849h7.412a.849.849,0,0,0,.849-.849V71.026h7.973l-1.736,3.166a.849.849,0,1,0,1.488.815l1.68-3.065,1.68,3.065a.849.849,0,1,0,1.488-.815l-1.736-3.166H48.913l-1.736,3.166a.849.849,0,0,0,1.488.816l1.68-3.065,1.68,3.065a.849.849,0,0,0,1.488-.816l-1.736-3.166h17v6.014a.849.849,0,0,0,.849.849h7.412a.849.849,0,0,0,.849-.849V10.849A.849.849,0,0,0,77.039,10ZM62.868,47.522a.848.848,0,0,0-1.152.336l-1.68,3.065-1.68-3.065a.849.849,0,1,0-1.488.815L58.6,51.84H35.442l1.736-3.166a.849.849,0,1,0-1.488-.815l-1.68,3.065-1.68-3.065a.849.849,0,0,0-1.488.815l1.736,3.166H19.109V36.048H39.888l-1.736,3.166a.849.849,0,1,0,1.488.815l1.68-3.065L43,40.029a.849.849,0,0,0,1.488-.815l-1.736-3.166H68.779V51.84h-7.31L63.2,48.674a.848.848,0,0,0-.336-1.152ZM30.152,18.559l-1.735,3.165a.849.849,0,0,0,1.488.816l1.68-3.065,1.68,3.065a.849.849,0,0,0,1.488-.816l-1.735-3.165H54.471l-1.735,3.165a.849.849,0,0,0,1.488.816l1.68-3.065,1.68,3.065a.849.849,0,0,0,1.488-.816l-1.735-3.165H68.779V34.351H42.753l1.736-3.166A.849.849,0,1,0,43,30.369l-1.68,3.065-1.68-3.065a.849.849,0,0,0-1.488.815l1.736,3.166H19.109V18.559ZM17.412,76.191H11.7V11.7h5.715Zm34.367-6.862,1.736-3.166a.849.849,0,0,0-1.488-.816l-1.68,3.065-1.68-3.065a.849.849,0,0,0-1.488.816l1.736,3.166H29.948l1.736-3.166a.849.849,0,1,0-1.488-.815l-1.68,3.065-1.68-3.065a.849.849,0,1,0-1.488.815l1.736,3.166H19.109V53.537H32.576L30.841,56.7a.849.849,0,1,0,1.488.815l1.68-3.065,1.68,3.065a.849.849,0,0,0,1.488-.815l-1.735-3.166H58.6L56.868,56.7a.849.849,0,1,0,1.488.815l1.68-3.065,1.68,3.065A.849.849,0,1,0,63.2,56.7l-1.735-3.166h7.31V69.328h-17Zm24.412,6.862H70.476V11.7h5.715Z" transform="translate(403.802 8419.572)" fill="#fff5c1"/>
  </g>
</svg>
