<svg xmlns="http://www.w3.org/2000/svg" width="40" height="39.368" viewBox="0 0 40 39.368">
  <g id="Grupo_1178435" data-name="Grupo 1178435" transform="translate(-1 -1.979)">
    <path id="Trazado_998964" data-name="Trazado 998964" d="M51.968,34.447h-.994a3.871,3.871,0,1,0-5.754,0h-.994A3.23,3.23,0,0,0,41,37.672V46.7a.645.645,0,0,0,.645.645h1.935v3.226h1.29v-12.9h-1.29V46.06H42.29V37.672a1.938,1.938,0,0,1,1.935-1.935h7.742A1.938,1.938,0,0,1,53.9,37.672V46.06h-1.29V37.672h-1.29v12.9h1.29V47.35h1.935a.645.645,0,0,0,.645-.645V37.672a3.23,3.23,0,0,0-3.226-3.226Zm-3.871,0a2.581,2.581,0,1,1,2.581-2.581A2.581,2.581,0,0,1,48.1,34.447Z" transform="translate(-14.193 -9.228)" fill="#3e5d56"/>
    <path id="Trazado_998965" data-name="Trazado 998965" d="M55.084,19.361a.645.645,0,0,0,.561.327h1.441l-1.349,2.249,1.106.664,1.935-3.226a.645.645,0,0,0-.553-.977H56.785l1.349-2.249-1.106-.664-1.935,3.226a.645.645,0,0,0-.008.65Z" transform="translate(-19.161 -4.792)" fill="#3e5d56"/>
    <path id="Trazado_998966" data-name="Trazado 998966" d="M1.645,47.35H3.581v3.226h1.29V38.318H3.581V46.06H2.29V37.672a1.938,1.938,0,0,1,1.935-1.935h7.245a1.922,1.922,0,0,1,.719.139l2.764,1.106a.648.648,0,0,0,.582-.052l4.63-2.894.593.89L15.109,38.88l-2.9-1.161a.645.645,0,0,0-.885.6V50.576h1.29V39.27l2.341.937a.646.646,0,0,0,.61-.071l6.452-4.516a.645.645,0,0,0,.167-.886l-.436-.654,7.354-4.9L28.384,28.1l-7.354,4.9-.138-.208a.644.644,0,0,0-.879-.189l-4.884,3.052-2.46-.983a3.2,3.2,0,0,0-1.2-.231h-.5a3.871,3.871,0,1,0-5.754,0H4.226A3.23,3.23,0,0,0,1,37.672V46.7a.645.645,0,0,0,.645.645ZM8.1,29.285a2.581,2.581,0,1,1-2.581,2.581A2.581,2.581,0,0,1,8.1,29.285Z" transform="translate(0 -9.228)" fill="#3e5d56"/>
    <path id="Trazado_998967" data-name="Trazado 998967" d="M0,0H3.79V1.291H0Z" transform="translate(12.263 19.537) rotate(-26.95)" fill="#3e5d56"/>
    <path id="Trazado_998968" data-name="Trazado 998968" d="M0,0H3.148V1.29H0Z" transform="translate(10.12 17.607) rotate(-60.667)" fill="#3e5d56"/>
    <path id="Trazado_998969" data-name="Trazado 998969" d="M0,0H1.29V3.29H0Z" transform="translate(13.093 23.577) rotate(-83.742)" fill="#3e5d56"/>
    <path id="Trazado_998970" data-name="Trazado 998970" d="M11.148,7.11A2.745,2.745,0,0,0,9.134,5.074a2.893,2.893,0,0,0-.057-.393,3.568,3.568,0,0,0-4.311-2.6,3.739,3.739,0,0,0-2.3,1.524,3.348,3.348,0,0,0-.536,2.637,2.847,2.847,0,0,0,.112.379,2.745,2.745,0,0,0-.981,2.692A2.805,2.805,0,0,0,3.837,11.46c.082,0,.164,0,.247-.01l-.106-1.287A1.514,1.514,0,0,1,2.324,9.04a1.5,1.5,0,0,1,.837-1.614.645.645,0,0,0,.264-.894,1.984,1.984,0,0,1-.232-.563,2.069,2.069,0,0,1,.337-1.629,2.455,2.455,0,0,1,1.511-1A2.277,2.277,0,0,1,7.816,4.957a1.986,1.986,0,0,1,.024.609.646.646,0,0,0,.613.7A1.5,1.5,0,0,1,9.888,7.386,1.526,1.526,0,0,1,8.853,9.1l.44,1.213a2.82,2.82,0,0,0,1.855-3.2Z" transform="translate(-0.003 0)" fill="#3e5d56"/>
    <path id="Trazado_998971" data-name="Trazado 998971" d="M0,0H1.29V5.161H0Z" transform="translate(7.326 10.766) rotate(-12.355)" fill="#3e5d56"/>
    <path id="Trazado_998972" data-name="Trazado 998972" d="M0,0H1.29V5.161H0Z" transform="translate(4.664 10.69) rotate(-12.355)" fill="#3e5d56"/>
    <path id="Trazado_998973" data-name="Trazado 998973" d="M11,57h1.29v3.871H11Z" transform="translate(-3.548 -19.523)" fill="#3e5d56"/>
    <path id="Trazado_998974" data-name="Trazado 998974" d="M51,57h1.29v3.871H51Z" transform="translate(-17.742 -19.523)" fill="#3e5d56"/>
  </g>
</svg>
