<svg xmlns="http://www.w3.org/2000/svg" width="39.469" height="40.2" viewBox="0 0 39.469 40.2">
  <g id="Grupo_1178440" data-name="Grupo 1178440" transform="translate(-4.645 0.1)">
    <path id="Trazado_999038" data-name="Trazado 999038" d="M44.006,8.785a.586.586,0,0,0-.171-.4c-2.621-2.621-6.681-4.828-12.065-6.56a54.065,54.065,0,0,0-7.3-1.818.584.584,0,0,0-.184,0,54.066,54.066,0,0,0-7.3,1.818C11.605,3.557,7.546,5.764,4.925,8.385a.586.586,0,0,0-.171.4,38.875,38.875,0,0,0,2.2,12.5,32.912,32.912,0,0,0,5.73,10.33,29.082,29.082,0,0,0,11.472,8.337.586.586,0,0,0,.444,0,29.084,29.084,0,0,0,11.472-8.337,32.913,32.913,0,0,0,5.73-10.33A38.871,38.871,0,0,0,44.006,8.785ZM40.684,20.942a31.721,31.721,0,0,1-5.525,9.946A27.891,27.891,0,0,1,24.38,38.78,27.891,27.891,0,0,1,13.6,30.888a31.724,31.724,0,0,1-5.525-9.946,39.067,39.067,0,0,1-2.152-11.9c5.745-5.558,17.3-7.668,18.456-7.866,1.153.2,12.711,2.308,18.456,7.866A39.07,39.07,0,0,1,40.684,20.942Z" fill="#3e5d56" stroke="#3e5d56" stroke-width="0.2"/>
    <path id="Trazado_999039" data-name="Trazado 999039" d="M74.277,54.16c-.991.184-9.831,1.918-15.05,5.92a.586.586,0,0,0-.228.508,36.729,36.729,0,0,0,1.991,9.506c2.519,7.069,6.94,12.185,13.142,15.2a.586.586,0,0,0,.513,0c6.2-3.019,10.623-8.134,13.142-15.2a36.731,36.731,0,0,0,1.991-9.5.586.586,0,0,0-.228-.508,22.035,22.035,0,0,0-3.5-2.142.586.586,0,1,0-.525,1.048,21.5,21.5,0,0,1,3.062,1.836,35.537,35.537,0,0,1-1.9,8.878C84.3,76.371,80.169,81.22,74.388,84.116c-5.781-2.9-9.917-7.745-12.294-14.417a36.11,36.11,0,0,1-1.9-8.88,28.362,28.362,0,0,1,7.359-3.635,49.323,49.323,0,0,1,6.833-1.852,49.171,49.171,0,0,1,9.046,2.7.586.586,0,1,0,.449-1.082,50.359,50.359,0,0,0-9.387-2.791.588.588,0,0,0-.215,0Z" transform="translate(-50.008 -49.919)" fill="#3e5d56" stroke="#3e5d56" stroke-width="0.2"/>
    <path id="Trazado_999040" data-name="Trazado 999040" d="M168.327,148.1c-.734.032-1.509.059-2.3.081A1.462,1.462,0,0,0,164.6,149.6c-.021.779-.048,1.554-.08,2.3a.284.284,0,0,1-.223.268,11.676,11.676,0,0,1-4.545,0,.285.285,0,0,1-.223-.267c-.032-.75-.059-1.525-.08-2.3a1.462,1.462,0,0,0-1.422-1.422q-.568-.015-1.137-.035a.586.586,0,0,0-.041,1.171q.573.02,1.147.035a.29.29,0,0,1,.282.282c.021.784.049,1.565.081,2.322a1.45,1.45,0,0,0,1.166,1.367,12.841,12.841,0,0,0,5,0,1.45,1.45,0,0,0,1.166-1.367c.032-.756.059-1.537.081-2.322a.29.29,0,0,1,.283-.282c.8-.022,1.582-.049,2.322-.082a1.449,1.449,0,0,0,1.367-1.166,12.837,12.837,0,0,0,0-5,1.45,1.45,0,0,0-1.367-1.166c-.756-.033-1.538-.06-2.321-.081a.291.291,0,0,1-.283-.283c-.021-.784-.049-1.565-.081-2.322a1.45,1.45,0,0,0-1.166-1.367,12.843,12.843,0,0,0-5,0,1.45,1.45,0,0,0-1.166,1.367c-.032.756-.059,1.537-.081,2.322a.291.291,0,0,1-.282.282c-.785.021-1.566.048-2.322.081a1.45,1.45,0,0,0-1.367,1.166,12.824,12.824,0,0,0-.025,4.871.586.586,0,1,0,1.152-.216,11.66,11.66,0,0,1,.023-4.428.285.285,0,0,1,.268-.223c.75-.033,1.524-.06,2.3-.08a1.463,1.463,0,0,0,1.421-1.422c.021-.779.048-1.554.08-2.3a.285.285,0,0,1,.223-.268,11.676,11.676,0,0,1,4.545,0,.285.285,0,0,1,.223.267c.032.75.059,1.525.08,2.3a1.464,1.464,0,0,0,1.423,1.422c.778.02,1.553.047,2.3.08a.285.285,0,0,1,.268.223,11.669,11.669,0,0,1,0,4.544.284.284,0,0,1-.268.223Z" transform="translate(-137.646 -126.886)" fill="#3e5d56" stroke="#3e5d56" stroke-width="0.2"/>
  </g>
</svg>
