<svg xmlns="http://www.w3.org/2000/svg" width="96" height="96" viewBox="0 0 96 96">
  <g id="Grupo_1177478" data-name="Grupo 1177478" transform="translate(-383.746 -8400.001)">
    <path id="Trazado_997400" data-name="Trazado 997400" d="M48,0A48,48,0,1,1,0,48,48,48,0,0,1,48,0Z" transform="translate(383.746 8400.001)" fill="#ffbdb6"/>
    <g id="Grupo_1178118" data-name="Grupo 1178118" transform="translate(380.727 8419.906)">
      <path id="Trazado_998350" data-name="Trazado 998350" d="M31.019,416.213l-1.179.261a5.181,5.181,0,0,0-4.088,5.09v4.321a.823.823,0,1,0,1.646,0v-4.321a3.545,3.545,0,0,1,2.8-3.483l1.179-.261a.823.823,0,1,0-.355-1.607Z" transform="translate(0 -370.519)" fill="#773b3d"/>
      <path id="Trazado_998351" data-name="Trazado 998351" d="M164.753,210.881a6.085,6.085,0,0,1-.36-1.893,2.406,2.406,0,0,0-.77-1.925,3.313,3.313,0,0,0-3.785-.242,3.893,3.893,0,0,0-1.5,3.229,6.723,6.723,0,0,0,1.629,4.578,5.26,5.26,0,0,0,3.358,2.1c.057,0,.138.008.237.008a2.329,2.329,0,0,0,2.4-1.949,3.433,3.433,0,0,0-.573-2.537A9.947,9.947,0,0,1,164.753,210.881Zm-.4,3.544a.918.918,0,0,1-.274.522,1,1,0,0,1-.661.135c-1.068-.06-3.576-2.258-3.436-4.946.026-.488.079-1.5.741-1.927a1.592,1.592,0,0,1,.845-.226,1.5,1.5,0,0,1,.974.32c.154.134.175.215.209.783a7.7,7.7,0,0,0,.454,2.349,11.5,11.5,0,0,0,.728,1.584C164.3,213.712,164.444,214.01,164.351,214.425Z" transform="translate(-118.028 -183.697)" fill="#773b3d"/>
      <path id="Trazado_998352" data-name="Trazado 998352" d="M240.779,123.855a.823.823,0,0,0,1.35-.943,9.972,9.972,0,0,0-1.176-1.386l.445-.636a.823.823,0,0,0-1.348-.944l-.364.52c-.18-.127-.363-.25-.55-.364a9.844,9.844,0,0,0-1.156-.6l.238-.733a.823.823,0,0,0-1.566-.509l-.229.706a9.976,9.976,0,0,0-1.564-.27.823.823,0,1,0-.148,1.64,8.328,8.328,0,0,1,1.2.2l-.245.756a.823.823,0,1,0,1.566.509l.235-.723a8.194,8.194,0,0,1,.813.432c.157.1.31.2.461.3l-.52.742a.823.823,0,1,0,1.348.944l.423-.6a8.271,8.271,0,0,1,.785.959Z" transform="translate(-185.361 -104.776)" fill="#773b3d"/>
      <path id="Trazado_998353" data-name="Trazado 998353" d="M107.514,443.169a6.082,6.082,0,0,0-3.807.418,4.37,4.37,0,0,0-2.554,2.832,4.192,4.192,0,0,0,.982,3.867.823.823,0,1,0,1.294-1.018,2.565,2.565,0,0,1-.681-2.44c.343-1.337,2.34-2.526,4.4-2.055A4.179,4.179,0,0,1,109.793,447a2.034,2.034,0,0,1-.328,2.246l-.034.047a.823.823,0,1,0,1.329.971l.031-.042a3.667,3.667,0,0,0,.5-3.9A5.822,5.822,0,0,0,107.514,443.169Z" transform="translate(-67.004 -394.411)" fill="#773b3d"/>
      <path id="Trazado_998354" data-name="Trazado 998354" d="M372.407,372.149a.835.835,0,0,0,.119-.009.823.823,0,0,0,.605-.422,6.586,6.586,0,0,0-8.926-8.926.823.823,0,0,0-.19,1.306l7.81,7.81A.823.823,0,0,0,372.407,372.149Zm-5.069-8.5a4.94,4.94,0,0,1,4.77,6.217l-6.049-6.049A4.959,4.959,0,0,1,367.338,363.646Z" transform="translate(-300.927 -322.273)" fill="#773b3d"/>
      <path id="Trazado_998355" data-name="Trazado 998355" d="M337.648,389.533a.823.823,0,0,0-.605.422,6.586,6.586,0,0,0,8.926,8.926.823.823,0,0,0,.19-1.306l-7.81-7.81A.823.823,0,0,0,337.648,389.533Zm5.187,8.494a4.94,4.94,0,0,1-4.77-6.217l6.049,6.049A4.957,4.957,0,0,1,342.835,398.027Z" transform="translate(-276.424 -346.776)" fill="#773b3d"/>
      <path id="Trazado_998356" data-name="Trazado 998356" d="M127.869,38.792a.823.823,0,0,0-1.068,1.253,8.195,8.195,0,1,1-3.049-1.642.823.823,0,1,0,.456-1.582,9.887,9.887,0,0,0-12.3,6.992l-1.512-.334a2.454,2.454,0,0,1-1.937-2.411V36.512a16.326,16.326,0,0,0,5.777-7.717,4.537,4.537,0,0,0,4.639-4.528V23.033a3.271,3.271,0,0,0-.353-1.481V15.275a15.183,15.183,0,0,0-2.739-8.73.823.823,0,1,0-1.35.942,13.546,13.546,0,0,1,2.443,7.788V20a3.275,3.275,0,0,0-1.294-.265h-.4a11.365,11.365,0,0,0-4.1-8.452,16.956,16.956,0,0,0-7.013-3.71V1.672a13.641,13.641,0,0,1,7.919,3.147.823.823,0,0,0,1.057-1.262A15.276,15.276,0,0,0,87.973,15.275V21.5a3.272,3.272,0,0,0-.381,1.534v1.235A4.539,4.539,0,0,0,92.258,28.8a16.326,16.326,0,0,0,5.777,7.717v4.556A2.454,2.454,0,0,1,96.1,43.479L89.81,44.869a.823.823,0,1,0,.355,1.607l6.288-1.389a4.09,4.09,0,0,0,3.228-4.018V37.562a16.411,16.411,0,0,0,1.885.9,4.509,4.509,0,0,0,3.363,0,16.411,16.411,0,0,0,1.885-.9v3.507a4.087,4.087,0,0,0,2,3.535,9.453,9.453,0,0,0-1.379,3.045c-.283,1.062-.776,3.68.749,5.054.765.689,1.81.565,2.918.434a5.955,5.955,0,0,1,3.561.332,9.875,9.875,0,1,0,13.2-14.677ZM117.23,23.033v1.235a2.885,2.885,0,0,1-2.5,2.855,16.332,16.332,0,0,0,.451-3.809V21.386h.4A1.649,1.649,0,0,1,117.23,23.033ZM89.238,24.268V23.033a1.649,1.649,0,0,1,1.647-1.647h.426v1.927a16.334,16.334,0,0,0,.452,3.813A2.885,2.885,0,0,1,89.238,24.268Zm15.08,12.666a2.87,2.87,0,0,1-2.141,0,14.669,14.669,0,0,1-9.221-13.62V19.744a8.544,8.544,0,0,1,1.194-4.315.823.823,0,0,0-1.425-.824,10.169,10.169,0,0,0-1.415,5.134h-.426a3.275,3.275,0,0,0-1.266.254V15.275a13.646,13.646,0,0,1,12.806-13.6V7.579a16.952,16.952,0,0,0-7.164,3.906.823.823,0,0,0,1.116,1.21,15.293,15.293,0,0,1,6.872-3.617,15.088,15.088,0,0,1,6.739,3.438,9.765,9.765,0,0,1,3.551,7.228v3.569a14.669,14.669,0,0,1-9.221,13.62ZM110.911,51.5c-.662.078-1.412.167-1.622-.022-.7-.626-.575-2.227-.26-3.407a7.069,7.069,0,0,1,1.434-2.893l1.166.257c-.025.288-.039.58-.039.875a9.816,9.816,0,0,0,1.4,5.071,12.383,12.383,0,0,0-2.082.119Z" transform="translate(-55.054 0)" fill="#773b3d"/>
    </g>
  </g>
</svg>
