<svg xmlns="http://www.w3.org/2000/svg" width="96" height="96" viewBox="0 0 96 96">
  <g id="Grupo_1177479" data-name="Grupo 1177479" transform="translate(-383.746 -8400.001)">
    <path id="Trazado_997400" data-name="Trazado 997400" d="M48,0A48,48,0,1,1,0,48,48,48,0,0,1,48,0Z" transform="translate(383.746 8400.001)" fill="#ffbdb6"/>
    <g id="Grupo_1178119" data-name="Grupo 1178119" transform="translate(401.954 8418.208)">
      <path id="Trazado_998357" data-name="Trazado 998357" d="M31.723,31A3.912,3.912,0,0,0,28.2,33.175l-.1.2,1.662.831.1-.2a2.077,2.077,0,0,1,3.715,0l.1.2,1.662-.831-.1-.2A3.912,3.912,0,0,0,31.723,31Z" transform="translate(-1.931 -2.137)" fill="#773b3d"/>
      <path id="Trazado_998358" data-name="Trazado 998358" d="M52.6,29.255,40.253,26.511c-.035-.05-.08-.094-.118-.143a28.317,28.317,0,0,0,.8-6.671A6.847,6.847,0,0,0,34.1,12.858c-.1,0-.205.01-.307.015A12.1,12.1,0,0,0,27.326,11H26.241a12.025,12.025,0,0,0-7.489,2.628l-.834.668a3,3,0,0,0-.25,4.471l.593.593-.475.474a3.38,3.38,0,0,0-.858,1.5l-2.356-.524a2.727,2.727,0,0,0-3.372-1.27A2.572,2.572,0,0,0,9.26,17.216L6.994,16.65a2.569,2.569,0,0,0-3.1,1.812,2.763,2.763,0,0,0-.29-.032,2.605,2.605,0,0,0-2.6,2.6v3.544a2.6,2.6,0,0,0,1.91,2.509l.244.071.623,2.5-.9,10.774c-.014.172-.021.346-.021.518a6.286,6.286,0,0,0,6.279,6.279h3.937a1.859,1.859,0,0,0,1.858,1.858h4.644V59.3h26.5l.792-1.188a8.917,8.917,0,0,0,1.039-7.766L45.93,44.4a8.62,8.62,0,0,0-1.287-2.455A8.8,8.8,0,0,0,38.6,38.494l-4.347-.483-.535-2.139c.177-.111.348-.228.515-.354l15.5,4.173a2.842,2.842,0,0,0,.753.1h.11a2.913,2.913,0,0,0,2.789-2.1l1.373-4.8a2.9,2.9,0,0,0-2.158-3.63Zm-15.376.32V26.789a1.858,1.858,0,1,1,0,3.715h-.064A7.473,7.473,0,0,0,37.222,29.575ZM18.982,17.453a1.148,1.148,0,0,1,.1-1.707l.835-.669a10.171,10.171,0,0,1,6.329-2.22h1.085a10.258,10.258,0,0,1,3.749.709,6.836,6.836,0,0,0-1.814,1.3l-.126.126L30.45,16.3l.125-.125a4.982,4.982,0,0,1,8.5,3.523,26.57,26.57,0,0,1-.583,5.474,3.679,3.679,0,0,0-1.274-.24V23.074H35.365v1.39a2.689,2.689,0,0,1-1.5.467h-.439a2.7,2.7,0,0,1-1.5-4.949l1.17-.78-1.03-1.545-1.17.78a4.548,4.548,0,0,0-2.03,3.793,4.5,4.5,0,0,0,.182,1.206l-.7.7a2.681,2.681,0,0,1-1.91.79h-.439a2.7,2.7,0,0,1-1.5-4.949l1.17-.78-1.03-1.545-1.17.78a4.526,4.526,0,0,0-1.122,6.5,3.671,3.671,0,0,0-1.727.454l-1.657-2.21a1.556,1.556,0,0,1,.144-2.033l1.787-1.786ZM20.5,28.647a1.859,1.859,0,0,1,1.858-1.858v2.786a7.474,7.474,0,0,0,.064.929h-.064A1.859,1.859,0,0,1,20.5,28.647Zm-1.265-2a3.645,3.645,0,0,0-.508,2.772l-4.045-1.089a5.618,5.618,0,0,0,.245-1.628V22.787l2.011.447a3.388,3.388,0,0,0,.529,1.06Zm-5.413,3.376,6.6,1.777a3.674,3.674,0,0,0,1.936.559h.547a7.461,7.461,0,0,0,2.958,3.511l-.515,2.062H11.217V32.007l.635-.318A5.565,5.565,0,0,0,13.826,30.026Zm20.022,9.81.872.1-1.628,3.257-1.732-.866Zm-8.156-.044,2.532,2.532-1.732.866-1.7-3.4ZM5.644,19.156a.726.726,0,0,1,.725-.725.75.75,0,0,1,.176.021l2.264.566a.725.725,0,0,1,.55.7v1.327l-2.94-.489a.929.929,0,0,1-.776-.917ZM2.858,24.578V21.034a.754.754,0,0,1,.907-.727l.118.026a2.766,2.766,0,0,0,2.233,2.059l3.243.541v.686l-.272.272a5.373,5.373,0,0,0-1.453,2.63L3.409,25.3a.748.748,0,0,1-.552-.72ZM9.137,45.365a4.426,4.426,0,0,1-4.422-4.421c0-.124.006-.247.015-.368l.91-10.923.014-.153-.437-1.745,4.141,1.2V27.718A3.533,3.533,0,0,1,10.4,25.2l.816-.816V22.145a.929.929,0,0,1,1.858,0v4.56a3.7,3.7,0,0,1-2.054,3.323l-1.662.83V41.65h1.858V39.792h1.858v5.573Zm11.27.514-1.662.831.256.513h-4.07v-7.43h7.785l2.945,5.89,3.2-1.6V57.439h-7.43V47.932Zm20.33,7.661-.728.728V52.085Zm4.588,3.539-.241.36H40.008v-.544l2.13-2.13a3.583,3.583,0,0,1,2.514-1.041V51.866a5.425,5.425,0,0,0-2.393.567l-.539-1.076a14.847,14.847,0,0,0,3.866-2.108l.56,1.682a7.054,7.054,0,0,1-.822,6.148ZM43.158,43.062a6.77,6.77,0,0,1,1.011,1.927l.791,2.375a12.925,12.925,0,0,1-4.075,2.319l-.767-1.532.721-1.441-1.662-.831-1.026,2.054v9.507h-7.43V44.081l3.2,1.6,2.765-5.531,1.705.189a6.934,6.934,0,0,1,4.766,2.721ZM32.479,38.578l-2.687,2.687-2.687-2.687.476-1.909a7.444,7.444,0,0,0,4.421,0Zm-2.687-3.43a5.578,5.578,0,0,1-5.573-5.573V26.431a4.544,4.544,0,0,0,1.772.359h.439a4.527,4.527,0,0,0,3.224-1.336l.3-.3a4.529,4.529,0,0,0,3.468,1.635h.439a4.546,4.546,0,0,0,1.5-.266v3.053a5.58,5.58,0,0,1-5.574,5.573ZM52.97,32.372,51.6,37.178a1.045,1.045,0,0,1-1,.756h-.11a1.026,1.026,0,0,1-.271-.036L35.744,34a7.419,7.419,0,0,0,.931-1.641h.547a3.719,3.719,0,0,0,3.715-3.715c0-.028-.007-.055-.008-.083l11.266,2.5a1.051,1.051,0,0,1,.816,1.019,1.034,1.034,0,0,1-.041.286Z" transform="translate(0 -0.712)" fill="#773b3d"/>
      <path id="Trazado_998359" data-name="Trazado 998359" d="M59.526,12.191a4.95,4.95,0,0,0-.619-8.49L54.47,1.482A4.574,4.574,0,0,0,52.43,1h-.157a4.549,4.549,0,0,0-4.4,5.737l-.015,0A5.081,5.081,0,0,0,46.52,16.06l-1.219.915,1.115,1.486,2.23-1.672A4.666,4.666,0,0,0,50.5,13.074H48.644a2.787,2.787,0,0,1-.569,1.665,3.226,3.226,0,0,1,.234-6.2l.437-.11a4.551,4.551,0,0,0,1,.918l1.17.78,1.03-1.545-1.17-.78a2.7,2.7,0,0,1,1.5-4.949h.157a2.716,2.716,0,0,1,1.208.285l4.438,2.219a3.1,3.1,0,0,1,.333,5.349l-.9.6a5.131,5.131,0,0,0-.97-.095H55.145v1.858h1.393a3.251,3.251,0,0,1,0,6.5h-.423a2.829,2.829,0,0,1-2.53-4.093l.532-1.064-1.662-.831-.532,1.064a4.724,4.724,0,0,0-.494,2.1,4.624,4.624,0,0,0,.151,1.123,10.138,10.138,0,0,0-3.914,1.549l-.468.312,1.03,1.545.468-.312a8.269,8.269,0,0,1,3.757-1.329,4.662,4.662,0,0,0,3.661,1.8h.423a5.1,5.1,0,0,0,2.988-9.242Z" transform="translate(-3.063)" fill="#773b3d"/>
    </g>
  </g>
</svg>
