<svg xmlns="http://www.w3.org/2000/svg" width="96" height="96" viewBox="0 0 96 96">
  <g id="Grupo_1177864" data-name="Grupo 1177864" transform="translate(-383.746 -8400.001)">
    <path id="Trazado_997400" data-name="Trazado 997400" d="M48,0A48,48,0,1,1,0,48,48,48,0,0,1,48,0Z" transform="translate(383.746 8400.001)" fill="#ffbdb6"/>
    <g id="Grupo_1178120" data-name="Grupo 1178120" transform="translate(402.672 8410.948)">
      <path id="Trazado_998360" data-name="Trazado 998360" d="M251.236,223.611h-1.048v-2.3a.852.852,0,1,0-1.7,0v3.151a.852.852,0,0,0,.852.852h1.9a.852.852,0,1,0,0-1.7Z" transform="translate(-220.264 -187.444)" fill="#773b3d"/>
      <path id="Trazado_998361" data-name="Trazado 998361" d="M200.389,185.377a7.153,7.153,0,1,0,7.123,7.153A7.146,7.146,0,0,0,200.389,185.377Zm0,12.6a5.45,5.45,0,1,1,5.42-5.45A5.441,5.441,0,0,1,200.389,197.98Z" transform="translate(-171.316 -156.346)" fill="#773b3d"/>
      <path id="Trazado_998362" data-name="Trazado 998362" d="M48.4,276.032h7.871a1.259,1.259,0,0,0,1.257-1.257v-3.92a1.259,1.259,0,0,0-1.257-1.257H48.4a1.26,1.26,0,0,0-1.261,1.257v3.92A1.26,1.26,0,0,0,48.4,276.032Zm4.786-4.731h2.639v3.027H53.187Zm-4.343,0h2.639v3.027H48.844Z" transform="translate(-41.786 -231.001)" fill="#773b3d"/>
      <path id="Trazado_998363" data-name="Trazado 998363" d="M47.14,349.758a1.262,1.262,0,0,0,1.261,1.261h7.871a1.26,1.26,0,0,0,1.257-1.261v-3.917a1.26,1.26,0,0,0-1.257-1.261H48.4a1.262,1.262,0,0,0-1.261,1.261v3.917Zm6.046-3.474h2.639v3.031H53.187Zm-4.343,0h2.639v3.031H48.844Z" transform="translate(-41.786 -297.469)" fill="#773b3d"/>
      <path id="Trazado_998364" data-name="Trazado 998364" d="M374.613,276.032h7.871a1.259,1.259,0,0,0,1.257-1.257v-3.92a1.259,1.259,0,0,0-1.257-1.257h-7.871a1.26,1.26,0,0,0-1.261,1.257v3.92A1.26,1.26,0,0,0,374.613,276.032ZM379.4,271.3h2.639v3.027H379.4Zm-4.343,0h2.639v3.027h-2.639Z" transform="translate(-330.95 -231.001)" fill="#773b3d"/>
      <path id="Trazado_998365" data-name="Trazado 998365" d="M374.613,351.019h7.871a1.26,1.26,0,0,0,1.257-1.261v-3.917a1.26,1.26,0,0,0-1.257-1.261h-7.871a1.262,1.262,0,0,0-1.261,1.261v3.917A1.262,1.262,0,0,0,374.613,351.019Zm4.786-4.734h2.639v3.031H379.4Zm-4.343,0h2.639v3.031h-2.639Z" transform="translate(-330.95 -297.469)" fill="#773b3d"/>
      <path id="Trazado_998366" data-name="Trazado 998366" d="M57,29.44H40.577V26.892h1.044a1.244,1.244,0,0,0,1.241-1.245V22.1a1.244,1.244,0,0,0-1.241-1.244h-11.7V18.351h6.752a1.541,1.541,0,0,0,1.538-1.54V11.9a1.541,1.541,0,0,0-1.538-1.54H29.924v-.51a.852.852,0,1,0-1.7,0v11H16.527A1.246,1.246,0,0,0,15.282,22.1v3.547a1.246,1.246,0,0,0,1.245,1.245h1.044V29.44H1.142A1.144,1.144,0,0,0,0,30.585v2.99a1.144,1.144,0,0,0,1.142,1.145h.552V46.072a.852.852,0,0,0,1.7,0V34.719H17.571V63.4H3.4V50a.852.852,0,1,0-1.7,0V63.738A1.37,1.37,0,0,0,3.063,65.1H55.085a1.368,1.368,0,0,0,1.367-1.367V34.719H57a1.146,1.146,0,0,0,1.145-1.145v-2.99A1.146,1.146,0,0,0,57,29.44ZM29.924,12.065h6.586v4.582H29.924ZM17.571,33.016H1.7V31.144H17.571Zm38.874-1.872v1.872H40.577V31.144ZM34.962,63.4H23.183V61.329H34.962V63.4ZM24.79,59.625V49.717h3.431v9.908Zm5.135,0V49.717h3.431v9.908Zm5.135,0V49.467a1.455,1.455,0,0,0-1.454-1.454H24.543a1.457,1.457,0,0,0-1.457,1.454V59.628a1.623,1.623,0,0,0-1.607,1.59V63.4h-2.2V26.892H27a.852.852,0,0,0,0-1.7H16.986V22.56H41.159v2.628H30.792a.852.852,0,1,0,0,1.7h8.082V63.4H36.666V61.218A1.621,1.621,0,0,0,35.059,59.628ZM54.748,63.4H40.577V34.719H54.748V63.4Z" fill="#773b3d"/>
    </g>
  </g>
</svg>
