<svg xmlns="http://www.w3.org/2000/svg" width="96" height="96" viewBox="0 0 96 96">
  <g id="Grupo_1177865" data-name="Grupo 1177865" transform="translate(-383.746 -8400.001)">
    <path id="Trazado_997400" data-name="Trazado 997400" d="M48,0A48,48,0,1,1,0,48,48,48,0,0,1,48,0Z" transform="translate(383.746 8400.001)" fill="#ffbdb6"/>
    <g id="_017---Gender-Equality" data-name="017---Gender-Equality" transform="translate(401.743 8417.005)">
      <path id="Shape" d="M53,13H51.889a7,7,0,1,0-9.778,0H41a7.01,7.01,0,0,0-6.872,5.683,12.794,12.794,0,0,0-8.363.039L24.9,16.275A5.011,5.011,0,0,0,20.21,13h-.321a7,7,0,1,0-9.778,0H9.79A5.015,5.015,0,0,0,5.1,16.285L.232,29.982a3.734,3.734,0,0,0,3.829,5L3,38a3,3,0,0,0,2.83,4H7V57.5a3.511,3.511,0,0,0,3.849,3.485A3.612,3.612,0,0,0,14,57.36V42h2V57.5A3.509,3.509,0,0,0,19.518,61,3.587,3.587,0,0,0,23,57.36C23,40.781,22.943,42,23.1,42A12.919,12.919,0,0,0,39,40.359V57.5a3.5,3.5,0,0,0,7-.14V42h2V57.5a3.509,3.509,0,0,0,3.849,3.485A3.612,3.612,0,0,0,55,57.36V37.66a3.525,3.525,0,0,0,5-3.3V20a7.008,7.008,0,0,0-7-7ZM42,8a5,5,0,1,1,5,5A5,5,0,0,1,42,8ZM10,8a5,5,0,1,1,5,5A5,5,0,0,1,10,8ZM21,42V57.36A1.6,1.6,0,0,1,19.656,59,1.508,1.508,0,0,1,18,57.5V42a2,2,0,0,0-2-2H14a2,2,0,0,0-2,2V57.36A1.6,1.6,0,0,1,10.656,59,1.508,1.508,0,0,1,9,57.5V42a2,2,0,0,0-2-2c-1.252,0-1.626.089-1.989-.423a.99.99,0,0,1-.127-.914C6.87,33.032,9,26.923,10.945,21.326a1,1,0,1,0-1.89-.652c-3.3,9.569-2.411,7.015-4.107,11.8a1.717,1.717,0,0,1-2.836-1.8l4.867-13.7A2.968,2.968,0,0,1,9.79,15H20.21a2.967,2.967,0,0,1,2.808,1.954l.906,2.561a13.071,13.071,0,0,0-2.709,1.93l-.271-.775a1,1,0,1,0-1.888.66l.626,1.793a12.93,12.93,0,0,0,1.76,17.638A1.984,1.984,0,0,0,21,42Zm9,0A11,11,0,1,1,41,31,11,11,0,0,1,30,42Zm28-7.64a1.517,1.517,0,0,1-2.513,1.251A1.485,1.485,0,0,1,55,34.5V25a1,1,0,1,0-2,0V57.36a1.51,1.51,0,0,1-2.509,1.247A1.484,1.484,0,0,1,50,57.5V42a2,2,0,0,0-2-2H46a2,2,0,0,0-2,2V57.36a1.51,1.51,0,0,1-2.509,1.247A1.484,1.484,0,0,1,41,57.5V37.9a12.967,12.967,0,0,0-4.95-18.4A4.99,4.99,0,0,1,41,15H53a5.006,5.006,0,0,1,5,5Z" fill="#773b3d"/>
      <path id="Shape-2" data-name="Shape" d="M35,28H25a1,1,0,0,0,0,2H35a1,1,0,0,0,0-2Z" fill="#773b3d"/>
      <path id="Shape-3" data-name="Shape" d="M35,32H25a1,1,0,0,0,0,2H35a1,1,0,0,0,0-2Z" fill="#773b3d"/>
    </g>
  </g>
</svg>
