<svg xmlns="http://www.w3.org/2000/svg" width="116" height="116" viewBox="0 0 116 116">
  <g id="Grupo_1180791" data-name="Grupo 1180791" transform="translate(8595 8071)">
    <g id="Grupo_1180790" data-name="Grupo 1180790">
      <circle id="Elipse_13827" data-name="Elipse 13827" cx="58" cy="58" r="58" transform="translate(-8595 -8071)" fill="#565097"/>
      <g id="Grupo_1180780" data-name="Grupo 1180780" transform="translate(-8920.711 -11713)">
        <circle id="Elipse_13822" data-name="Elipse 13822" cx="45" cy="45" r="45" transform="translate(338.711 3655)" fill="#fff"/>
        <g id="Grupo_1180777" data-name="Grupo 1180777" transform="translate(305.831 3664.285)">
          <g id="Grupo_1178321" data-name="Grupo 1178321" transform="translate(50.114 1.046)">
            <path id="Trazado_998678" data-name="Trazado 998678" d="M160.032,461.381H125.781l-1.225-.155a.837.837,0,0,1-.825-.98l.285-1.876a5.974,5.974,0,0,1,2.293-3.953,80.689,80.689,0,0,0,16.229,1.127A79.184,79.184,0,0,0,158,454.39a6.144,6.144,0,0,1,2.5,3.957l.357,2.054A.837.837,0,0,1,160.032,461.381Z" transform="translate(-114.408 -392.044)" fill="#b3e59f"/>
            <path id="Trazado_998679" data-name="Trazado 998679" d="M97.546,41.481a9.644,9.644,0,0,0,8.993-5.517,1.377,1.377,0,0,1,.715-.725,8.542,8.542,0,0,0,5.394-7.692,8.461,8.461,0,0,0-4.884-7.467,1.326,1.326,0,0,1-.706-.955c-.72-4.094-4.691-7.228-9.486-7.231a10.648,10.648,0,0,0-2.95.411,1.341,1.341,0,0,1-1.5-.554,10.235,10.235,0,0,0-16.6-.014,1.342,1.342,0,0,1-1.5.552,10.653,10.653,0,0,0-2.949-.415c-4.8,0-8.771,3.124-9.5,7.216a1.326,1.326,0,0,1-.708.954,8.461,8.461,0,0,0-4.9,7.459,8.542,8.542,0,0,0,5.381,7.7,1.376,1.376,0,0,1,.714.726,9.644,9.644,0,0,0,8.984,5.532Z" transform="translate(-56.982 -7.5)" fill="#bde4ff"/>
            <path id="Trazado_998680" data-name="Trazado 998680" d="M92.367,10.765a10.765,10.765,0,0,0-5.233-1.335,10.1,10.1,0,0,0-8.447,4.24,1.377,1.377,0,0,1-1.522.552,11,11,0,0,0-3-.416c-4.882,0-8.926,3.125-9.667,7.221a1.33,1.33,0,0,1-.72.954,8.463,8.463,0,0,0-4.983,7.464,7.77,7.77,0,0,0,1.444,4.491A8.179,8.179,0,0,1,56.98,27.5a8.465,8.465,0,0,1,4.9-7.46,1.325,1.325,0,0,0,.709-.953c.727-4.093,4.7-7.22,9.5-7.217a10.688,10.688,0,0,1,2.948.416,1.342,1.342,0,0,0,1.5-.551,9.871,9.871,0,0,1,8.3-4.237,10.043,10.043,0,0,1,7.538,3.265Z" transform="translate(-56.98 -7.5)" fill="#99dbff"/>
            <path id="Trazado_998681" data-name="Trazado 998681" d="M318,67.674l1.385,2.806a.279.279,0,0,0,.21.153l3.1.45a.279.279,0,0,1,.155.476L320.6,73.743a.279.279,0,0,0-.08.247l.285,1.66.07,1.179a.279.279,0,0,1-.4.294l-2.6-1.354a.279.279,0,0,0-.26,0l-2.546,1.238a.279.279,0,0,1-.4-.294l.579-2.831a.279.279,0,0,0-.08-.247L312.9,71.667a.279.279,0,0,1,.155-.476l1.67-.387,1.175-.171a.279.279,0,0,0,.21-.153l1.385-2.806A.279.279,0,0,1,318,67.674Z" transform="translate(-277.127 -59.145)" fill="#ffe07d"/>
            <path id="Trazado_998682" data-name="Trazado 998682" d="M319.093,97.624l-2.769-1.455a.276.276,0,0,0-.26,0L313.3,97.624a.279.279,0,0,1-.406-.293l.529-3.085a.276.276,0,0,0-.08-.247L311.1,91.816a.28.28,0,0,1,.155-.477l1.921-.279a6.7,6.7,0,0,0,6.08,4.847l.244,1.424A.278.278,0,0,1,319.093,97.624Z" transform="translate(-275.572 -79.402)" fill="#ffd064"/>
            <path id="Trazado_998683" data-name="Trazado 998683" d="M169.695,186.266a1.4,1.4,0,0,0,1.391-1.4l-.009-18.173a16.883,16.883,0,0,0-15.442-16.813c-.379-.032-.762.086-1.147.08-9.205.159-16.087,7.606-16.091,16.813l-.367,17.954a1.337,1.337,0,0,0,1.317,1.4l1.334.136h29.015Z" transform="translate(-126.722 -130.015)" fill="#ff8086"/>
            <path id="Trazado_998684" data-name="Trazado 998684" d="M155.021,149.582a16.881,16.881,0,0,0-15.193,16.789l-.008,19.569h-1.4a1.4,1.4,0,0,1-1.391-1.4l.008-18.173A16.881,16.881,0,0,1,153.628,149.5c.378.007.753.025,1.124.057C154.841,149.564,154.932,149.573,155.021,149.582Z" transform="translate(-125.862 -129.689)" fill="#e5646e"/>
            <path id="Trazado_998685" data-name="Trazado 998685" d="M165.335,285.473h2.736a2.045,2.045,0,0,1,2.045,2.045,5.011,5.011,0,0,1-5.011,5.011H141.89a5.011,5.011,0,0,1-5.011-5.011,2.045,2.045,0,0,1,2.045-2.045h26.411Z" transform="translate(-125.732 -246.692)" fill="#f2bb88"/>
            <path id="Trazado_998686" data-name="Trazado 998686" d="M173.984,397.065a80.386,80.386,0,0,1-31.693.027,7.711,7.711,0,0,1,2.029-.559l6.842-2.306c2.313-.434,2.411-4.783,3-6.456l7.875.13.994,2.617.38,1.65a2.787,2.787,0,0,0,1.942,2.048l6.966,2.016A6.138,6.138,0,0,1,173.984,397.065Z" transform="translate(-130.389 -334.719)" fill="#f2d1a5"/>
            <path id="Trazado_998687" data-name="Trazado 998687" d="M129.059,454.972l-1.881.544a3.911,3.911,0,0,0-2.62,3.037l-.265,2.652h-1.466a.837.837,0,0,1-.825-.981l.357-2.054a6.136,6.136,0,0,1,2.462-3.93c.643.129,2.142-.14,2.788-.027C128.376,454.348,128.29,454.861,129.059,454.972Z" transform="translate(-112.92 -391.868)" fill="#95d6a4"/>
            <path id="Trazado_998688" data-name="Trazado 998688" d="M162.426,387.9l-6.37-.1h0l-2.132-.032c-.708,2.247-.682,5.872-3,6.455l-6.934,2.006a6.105,6.105,0,0,0-1.7.859q2.109.423,4.237.731l5.02-1.452a5.027,5.027,0,0,0,3.486-3.65l.092-.441a.7.7,0,0,1,.906-.519,6.965,6.965,0,0,0,2.124.447,11.782,11.782,0,0,0,4.875-1.691Z" transform="translate(-130.388 -334.718)" fill="#f2bb88"/>
            <path id="Trazado_998689" data-name="Trazado 998689" d="M180.483,203.435c2.122,3.476,7.789,6.427,14.159,6.447a1.437,1.437,0,0,1,1.42,1.433V214.3a22.2,22.2,0,0,1-2.714,10.8c-2.135,3.768-7.544,6.289-9.129,6.289s-6.931-2.521-9.01-6.289a22.67,22.67,0,0,1-2.628-10.8c0-1.376.048-3.44.079-4.652a1.436,1.436,0,0,1,.944-1.311c2.207-.81,5.058-2.171,6.393-4.878A.277.277,0,0,1,180.483,203.435Z" transform="translate(-156.453 -175.986)" fill="#f2d1a5"/>
            <path id="Trazado_998690" data-name="Trazado 998690" d="M132.38,80.674l1.221,2.474a.279.279,0,0,0,.21.153l2.731.4a.279.279,0,0,1,.155.476L134.72,86.1a.279.279,0,0,0-.08.247l.2,1.17.071,1.247a.279.279,0,0,1-.4.294l-2.26-1.128a.279.279,0,0,0-.26,0l-2.313,1.259a.279.279,0,0,1-.4-.294l.476-2.639a.279.279,0,0,0-.08-.247L127.8,84.225a.279.279,0,0,1,.155-.476l1.192-.258,1.3-.189a.279.279,0,0,0,.21-.153l1.221-2.474A.279.279,0,0,1,132.38,80.674Z" transform="translate(-117.846 -70.332)" fill="#ffe07d"/>
            <path id="Trazado_998691" data-name="Trazado 998691" d="M133.247,107.691l-2.443-1.285a.284.284,0,0,0-.26,0l-2.441,1.285a.279.279,0,0,1-.4-.294l.466-2.719a.279.279,0,0,0-.081-.247l-1.975-1.927a.279.279,0,0,1,.155-.476l1.427-.208a5.825,5.825,0,0,0,5.54,4.028h.156l.265,1.55A.279.279,0,0,1,133.247,107.691Z" transform="translate(-116.391 -88.661)" fill="#ffd064"/>
          </g>
          <g id="Grupo_1178322" data-name="Grupo 1178322" transform="translate(49.001)">
            <path id="Trazado_998692" data-name="Trazado 998692" d="M313.048,61.665l-3.257-.473-1.456-2.951a1.069,1.069,0,0,0-1.877,0L305,61.192l-3.257.473a1.069,1.069,0,0,0-.58,1.785l2.357,2.3-.556,3.244a1.069,1.069,0,0,0,1.518,1.1l2.913-1.531,2.913,1.531a1.071,1.071,0,0,0,1.518-1.1l-.556-3.244,2.357-2.3A1.069,1.069,0,0,0,313.048,61.665Zm-3.631,2.967a1.046,1.046,0,0,0-.3.926l.291,1.7-1.523-.8a1.047,1.047,0,0,0-.974,0l-1.523.8.291-1.7a1.046,1.046,0,0,0-.3-.926l-1.232-1.2,1.7-.247a1.046,1.046,0,0,0,.788-.572l.762-1.543.762,1.543a1.046,1.046,0,0,0,.788.572l1.7.247Z" transform="translate(-265.729 -49.636)"/>
            <path id="Trazado_998693" data-name="Trazado 998693" d="M101.3,12.692a.28.28,0,0,1-.147-.2,9.423,9.423,0,0,0-3.607-5.8,11.372,11.372,0,0,0-6.909-2.3h-.011a11.7,11.7,0,0,0-3.228.451.3.3,0,0,1-.332-.123A10.988,10.988,0,0,0,77.9,0h-.009a10.988,10.988,0,0,0-9.167,4.707.3.3,0,0,1-.331.122,11.7,11.7,0,0,0-3.239-.456h-.009a11.759,11.759,0,0,0-3.047.4,1.046,1.046,0,1,0,.542,2.021,9.666,9.666,0,0,1,2.5-.327h.007a9.608,9.608,0,0,1,2.66.374,2.379,2.379,0,0,0,2.66-.982,8.876,8.876,0,0,1,7.419-3.766H77.9a8.878,8.878,0,0,1,7.42,3.777,2.38,2.38,0,0,0,2.659.986,9.6,9.6,0,0,1,2.651-.37h.009c4.183,0,7.819,2.74,8.457,6.367a2.382,2.382,0,0,0,1.266,1.707,7.44,7.44,0,0,1,4.31,6.532A7.456,7.456,0,0,1,99.9,27.826,2.417,2.417,0,0,0,98.642,29.1a7.955,7.955,0,0,1-3.825,3.917,17.839,17.839,0,0,0-1.912-4.49A1.046,1.046,0,1,0,91.11,29.6a15.815,15.815,0,0,1,2.246,8.126v1.208a3.077,3.077,0,0,0-.97-.157H90.7V36.376a2.445,2.445,0,0,0-2.4-2.48c-6.7,0-11.983-3.271-13.555-6.348a1.046,1.046,0,0,0-1.9.087c-1.083,2.707-3.945,4.024-6,4.78a2.473,2.473,0,0,0-1.63,2.267c-.026,1-.067,2.738-.077,4.1H63.239a3.077,3.077,0,0,0-.97.157V37.729A15.42,15.42,0,0,1,88.176,26.022a1.046,1.046,0,1,0,1.409-1.548,17.912,17.912,0,0,0-11.753-4.663h-.036a17.948,17.948,0,0,0-16.97,13.127,7.94,7.94,0,0,1-3.72-3.872,2.418,2.418,0,0,0-1.257-1.275,7.456,7.456,0,0,1-4.755-6.742,7.44,7.44,0,0,1,4.32-6.525,2.383,2.383,0,0,0,1.268-1.706,7.141,7.141,0,0,1,2.076-3.843,1.046,1.046,0,1,0-1.466-1.493,9.222,9.222,0,0,0-2.671,4.97.28.28,0,0,1-.148.2A9.517,9.517,0,0,0,49,21.047a9.517,9.517,0,0,0,6.008,8.66.332.332,0,0,1,.171.177,10.125,10.125,0,0,0,5.2,5.16,18.139,18.139,0,0,0-.2,2.683c-.007,2.811,0,8.526-.005,11.379a1.046,1.046,0,0,0,1.046,1.047h0a1.046,1.046,0,0,0,1.046-1.046V46.468A6.029,6.029,0,0,0,66.2,47.929h.436a20.456,20.456,0,0,0,1.246,2.731,13.906,13.906,0,0,0,4.371,4.491l-.272,1.128-9.378-.029a.349.349,0,0,1-.348-.349V54a1.046,1.046,0,0,0-1.046-1.047h0A1.046,1.046,0,0,0,60.169,54v1.9A2.446,2.446,0,0,0,62.6,58.343l8.874.027a1.745,1.745,0,0,1-1.183,1.178L63.36,61.555l-.03.009a7.163,7.163,0,0,0-4.874,5.606L57.928,70.2a1.046,1.046,0,1,0,2.062.359l.528-3.035A5.075,5.075,0,0,1,62.3,64.469,78.747,78.747,0,0,0,73.714,65.9h.054a1.046,1.046,0,0,0,.053-2.091,76.651,76.651,0,0,1-7.888-.819l4.942-1.43a3.843,3.843,0,0,0,2.663-2.787l.6-2.5a9.325,9.325,0,0,0,3.673,1.214,9.425,9.425,0,0,0,3.667-1.2l.568,2.44a3.841,3.841,0,0,0,2.67,2.816l4.929,1.426a76.682,76.682,0,0,1-11,.927A1.046,1.046,0,0,0,78.654,66h.013a78.729,78.729,0,0,0,14.628-1.551,5.075,5.075,0,0,1,1.813,3.084l.528,3.035A1.046,1.046,0,0,0,97.7,70.2l-.528-3.035A7.163,7.163,0,0,0,92.3,61.564l-.03-.009L85.3,59.539a1.743,1.743,0,0,1-1.179-1.167l8.9-.029A2.446,2.446,0,0,0,95.457,55.9c0-3.468,0-14.933-.009-18.173a18,18,0,0,0-.193-2.608,10.134,10.134,0,0,0,5.311-5.2.333.333,0,0,1,.171-.177,9.517,9.517,0,0,0,6.022-8.651,9.517,9.517,0,0,0-5.46-8.4Zm-7.942,28.95v.688a3.971,3.971,0,0,1-3.525,3.484,24.344,24.344,0,0,0,.822-4.942h1.732A1,1,0,0,1,93.357,41.642Zm-31.09.689v-.689a1,1,0,0,1,.971-.769h1.935a25.019,25.019,0,0,0,.8,4.956A3.97,3.97,0,0,1,62.267,42.331Zm7.451,7.318a21.627,21.627,0,0,1-2.5-10.29c0-1.381.049-3.491.079-4.625a.391.391,0,0,1,.259-.356,12.9,12.9,0,0,0,6.34-4.327A14.658,14.658,0,0,0,78.791,33.8,21.449,21.449,0,0,0,88.3,35.989a.369.369,0,0,1,.309.387V39.36a21.151,21.151,0,0,1-2.578,10.28c-1.945,3.433-6.983,5.758-8.219,5.758S71.61,53.076,69.719,49.65Zm23.3,6.6-9.392.03-.255-1.1a14.212,14.212,0,0,0,4.483-4.513,20.417,20.417,0,0,0,1.287-2.742h.282a6.029,6.029,0,0,0,3.939-1.461l0,9.434a.35.35,0,0,1-.348.349Z" transform="translate(-49.001)"/>
            <path id="Trazado_998694" data-name="Trazado 998694" d="M206.322,280.356a1.046,1.046,0,0,0-.4-1.424,5.311,5.311,0,0,0-5.008,0,1.046,1.046,0,1,0,1.02,1.827,3.192,3.192,0,0,1,2.968,0,1.046,1.046,0,0,0,1.424-.4Z" transform="translate(-179.256 -239.478)"/>
            <path id="Trazado_998695" data-name="Trazado 998695" d="M273.022,280.356a1.046,1.046,0,0,0-.4-1.424,5.311,5.311,0,0,0-5.008,0,1.046,1.046,0,1,0,1.02,1.827,3.192,3.192,0,0,1,2.968,0,1.046,1.046,0,0,0,1.424-.4Z" transform="translate(-236.65 -239.478)"/>
            <path id="Trazado_998696" data-name="Trazado 998696" d="M3.434.114a2.112,2.112,0,0,1-1.912,0,1.046,1.046,0,0,0-.95,1.865,4.2,4.2,0,0,0,1.906.456,4.2,4.2,0,0,0,1.906-.456A1.046,1.046,0,0,0,3.434.114Z" transform="translate(31.341 50.287) rotate(180)"/>
            <path id="Trazado_998697" data-name="Trazado 998697" d="M127,74.281l-2.891-.42-1.293-2.62a1.069,1.069,0,0,0-1.877,0l-1.293,2.62-2.891.42a1.069,1.069,0,0,0-.58,1.785l2.092,2.039-.494,2.879a1.05,1.05,0,0,0,1.518,1.1l2.586-1.359,2.586,1.359a1.069,1.069,0,0,0,1.518-1.1l-.494-2.879,2.092-2.039A1.069,1.069,0,0,0,127,74.281Zm-3.367,2.709a1.046,1.046,0,0,0-.3.926l.228,1.332-1.2-.629a1.047,1.047,0,0,0-.974,0l-1.2.629.228-1.332a1.047,1.047,0,0,0-.3-.926l-.968-.943,1.337-.194a1.046,1.046,0,0,0,.788-.572l.6-1.212.6,1.212a1.046,1.046,0,0,0,.788.572l1.337.194Z" transform="translate(-106.547 -60.822)"/>
            <path id="Trazado_998698" data-name="Trazado 998698" d="M203.517,50a1.046,1.046,0,0,0-1.046,1.046v.907h-.907a1.046,1.046,0,0,0,0,2.093h.907v.907a1.046,1.046,0,0,0,2.093,0v-.907h.907a1.046,1.046,0,0,0,0-2.093h-.907v-.907A1.046,1.046,0,0,0,203.517,50Z" transform="translate(-179.38 -43.024)"/>
            <path id="Trazado_998699" data-name="Trazado 998699" d="M253.454,85.5a1.046,1.046,0,0,0-1.046,1.046v.593h-.593a1.046,1.046,0,1,0,0,2.093h.593v.593a1.046,1.046,0,1,0,2.093,0v-.593h.593a1.046,1.046,0,0,0,0-2.093H254.5v-.593A1.046,1.046,0,0,0,253.454,85.5Z" transform="translate(-222.619 -73.572)"/>
            <path id="Trazado_998700" data-name="Trazado 998700" d="M392.314,140a1.046,1.046,0,0,0-1.046,1.046v.453h-.453a1.046,1.046,0,0,0,0,2.093h.453v.453a1.046,1.046,0,1,0,2.093,0v-.453h.453a1.046,1.046,0,1,0,0-2.093h-.453v-.453A1.046,1.046,0,0,0,392.314,140Z" transform="translate(-342.227 -120.468)"/>
          </g>
        </g>
      </g>
    </g>
  </g>
</svg>
