<svg xmlns="http://www.w3.org/2000/svg" width="130" height="130" viewBox="0 0 130 130">
  <g id="Grupo_1177486" data-name="Grupo 1177486" transform="translate(-383.746 -8400)">
    <circle id="Elipse_13609" data-name="Elipse 13609" cx="65" cy="65" r="65" transform="translate(383.746 8400)" fill="#fff5c1"/>
    <g id="Grupo_1178328" data-name="Grupo 1178328" transform="translate(413.746 8430.156)">
      <path id="Trazado_998701" data-name="Trazado 998701" d="M422,497h2.051v2.051H422Z" transform="translate(-364.305 -429.051)" fill="#773b3d"/>
      <path id="Trazado_998702" data-name="Trazado 998702" d="M70,28.985V23.057l-16.406-4.1V8.027a3.081,3.081,0,0,0,2.051-2.9V3.076A3.08,3.08,0,0,0,52.568,0H17.432a3.08,3.08,0,0,0-3.076,3.076V5.127a3.081,3.081,0,0,0,2.051,2.9V18.956L9.975,20.563l.5,1.99,5.934-1.483v5.864H2.051V24.658l6.432-1.608-.5-1.99L0,23.057v5.928H2.051V67.949H0V70H55.645V67.949H53.594V65.9H63.848V55.645H53.594V53.594H63.848V43.34H53.594V41.289H63.848V31.035H53.594V28.985H65.9V67.949H61.8V70H70V67.949H67.949V28.985ZM16.406,39.239H8.2V33.086h8.2ZM51.543,8.2V39.238H18.457V8.2ZM16.406,3.076a1.027,1.027,0,0,1,1.025-1.025H52.568a1.027,1.027,0,0,1,1.025,1.025V5.127a1.027,1.027,0,0,1-1.025,1.025H17.432a1.026,1.026,0,0,1-1.025-1.025ZM4.1,67.949V28.985h12.3v2.051H6.152V41.289H16.406V43.34H6.152V53.594H16.406v2.051H6.152V65.9H16.406v2.051Zm12.3-22.558v6.152H8.2V45.391Zm0,12.3v6.152H8.2V57.7Zm19.619,6.152v-12.3h6.152v12.3ZM25.771,49.492V47.442H44.229v2.051Zm8.2,2.051v12.3H27.822v-12.3ZM46.279,65.9v2.051H23.721V65.9Zm2.051,2.051v-4.1h-4.1v-12.3h2.051V45.391H23.721v6.152h2.051v12.3h-4.1v4.1H18.457V41.289H51.543v26.66ZM61.8,57.7v6.152h-8.2V57.7Zm0-12.3v6.152h-8.2V45.391Zm0-12.3v6.152h-8.2V33.086Zm-8.2-12.017,14.355,3.589v2.276H53.594Z" fill="#773b3d"/>
      <path id="Trazado_998703" data-name="Trazado 998703" d="M200.1,125.806v4.1h8.2v-4.1h4.1v-8.2h-4.1v-4.1h-8.2v4.1H196v8.2Zm-2.051-6.152h4.1v-4.1h4.1v4.1h4.1v4.1h-4.1v4.1h-4.1v-4.1h-4.1Z" transform="translate(-169.203 -97.983)" fill="#773b3d"/>
      <path id="Trazado_998704" data-name="Trazado 998704" d="M347,105h2.051v2.051H347Z" transform="translate(-299.559 -90.645)" fill="#773b3d"/>
      <path id="Trazado_998705" data-name="Trazado 998705" d="M347,75h2.051v2.051H347Z" transform="translate(-299.559 -64.747)" fill="#773b3d"/>
    </g>
  </g>
</svg>
