<svg xmlns="http://www.w3.org/2000/svg" width="130" height="130" viewBox="0 0 130 130">
  <g id="Grupo_1177870" data-name="Grupo 1177870" transform="translate(-383.746 -8400)">
    <circle id="Elipse_13609" data-name="Elipse 13609" cx="65" cy="65" r="65" transform="translate(383.746 8400)" fill="#fff5c1"/>
    <g id="Grupo_1178333" data-name="Grupo 1178333" transform="translate(373.522 8430)">
      <g id="Grupo_1178332" data-name="Grupo 1178332" transform="translate(46.594)">
        <path id="Trazado_998716" data-name="Trazado 998716" d="M102.828,28.345a1.025,1.025,0,0,0,1.025-1.025V4.443A4.448,4.448,0,0,0,99.41,0H51.037a4.448,4.448,0,0,0-4.443,4.443V65.557A4.448,4.448,0,0,0,51.037,70H99.41a4.448,4.448,0,0,0,4.443-4.443V32.1a1.025,1.025,0,0,0-2.051,0V45.224a7.87,7.87,0,0,1-7.861,7.861H91.382q-.136,0-.269.008V38.418a4.449,4.449,0,0,0-4.247-4.439V30.753a11.642,11.642,0,1,0-23.285,0v3.226a4.449,4.449,0,0,0-4.247,4.439V57.063a4.448,4.448,0,0,0,4.443,4.443h3.277a1.025,1.025,0,0,0,0-2.051H63.778a2.4,2.4,0,0,1-2.393-2.393V38.418a2.4,2.4,0,0,1,2.393-2.393H86.67a2.4,2.4,0,0,1,2.393,2.393V53.74a4.445,4.445,0,0,0-2.123,3.788v1.912a2.439,2.439,0,0,1-.269.015H71.84a1.025,1.025,0,0,0,0,2.051H86.67l.141,0a7.875,7.875,0,0,1-7.733,6.445H51.037a2.4,2.4,0,0,1-2.393-2.393V4.443a2.4,2.4,0,0,1,2.393-2.393H99.41A2.4,2.4,0,0,1,101.8,4.443V27.319a1.025,1.025,0,0,0,1.025,1.025Zm-22.259,5.63H69.879V30.753a5.345,5.345,0,0,1,10.69,0Zm2.051,0V30.753a7.4,7.4,0,1,0-14.791,0v3.221h-2.2V30.753a9.592,9.592,0,0,1,19.183,0v3.221Zm6.37,26.113V57.529a2.4,2.4,0,0,1,2.393-2.393h2.559a9.88,9.88,0,0,0,7.006-2.907,16,16,0,0,1-3.85,6.162l-4.853,4.853a16,16,0,0,1-6.162,3.85A9.887,9.887,0,0,0,88.99,60.088Zm4.705,4.606,4.853-4.853a18.173,18.173,0,0,0,3.255-4.418V65.557a2.4,2.4,0,0,1-2.393,2.393H89.277A18.173,18.173,0,0,0,93.695,64.694Z" transform="translate(-46.594)" fill="#773b3d"/>
        <path id="Trazado_998717" data-name="Trazado 998717" d="M137.707,48.3A1.711,1.711,0,0,0,136,46.594H106.736a1.025,1.025,0,1,0,0,2.051h28.92v4.319H95.239V48.645h6.712a1.025,1.025,0,0,0,0-2.051H94.9A1.711,1.711,0,0,0,93.188,48.3v5A1.711,1.711,0,0,0,94.9,55.015H136a1.711,1.711,0,0,0,1.709-1.709v-5Z" transform="translate(-86.818 -40.224)" fill="#773b3d"/>
        <path id="Trazado_998718" data-name="Trazado 998718" d="M221.247,303.486l2.88.041h.025a1.708,1.708,0,0,0,1.708-1.709v-5.754a5.273,5.273,0,1,0-6.3,0v5.714A1.716,1.716,0,0,0,221.247,303.486Zm-1.75-11.88a3.222,3.222,0,1,1,4.943,2.947,1.364,1.364,0,0,0-.631,1.157v5.761l-2.2-.031V295.7a1.368,1.368,0,0,0-.636-1.155A3.232,3.232,0,0,1,219.5,291.606Z" transform="translate(-194.081 -247.383)" fill="#773b3d"/>
        <path id="Trazado_998719" data-name="Trazado 998719" d="M103.731,125.275a1.025,1.025,0,0,0-1.025-1.025H94.212a1.025,1.025,0,1,0,0,2.051h8.494A1.025,1.025,0,0,0,103.731,125.275Z" transform="translate(-86.817 -107.263)" fill="#773b3d"/>
        <path id="Trazado_998720" data-name="Trazado 998720" d="M94.213,155.312a1.025,1.025,0,1,0,0,2.051H98.46a1.025,1.025,0,1,0,0-2.051Z" transform="translate(-86.818 -134.078)" fill="#773b3d"/>
        <path id="Trazado_998721" data-name="Trazado 998721" d="M373.775,124.25a1.025,1.025,0,1,0,0,2.051h4.247a1.025,1.025,0,1,0,0-2.051Z" transform="translate(-328.158 -107.263)" fill="#773b3d"/>
      </g>
    </g>
  </g>
</svg>
