<svg xmlns="http://www.w3.org/2000/svg" width="130" height="130" viewBox="0 0 130 130">
  <g id="Grupo_1177871" data-name="Grupo 1177871" transform="translate(-383.746 -8400)">
    <circle id="Elipse_13609" data-name="Elipse 13609" cx="65" cy="65" r="65" transform="translate(383.746 8400)" fill="#fff5c1"/>
    <g id="Grupo_1178335" data-name="Grupo 1178335" transform="translate(413.746 8430.156)">
      <path id="Trazado_998735" data-name="Trazado 998735" d="M65.053,29.355H58.71V26.889a3.382,3.382,0,0,0,2.258-3.179H58.71a1.129,1.129,0,1,1-1.129-1.129H58.71V18.065a2.239,2.239,0,0,0,1.495-.579,3.386,3.386,0,0,0,5.279-2.808V10.161A3.391,3.391,0,0,0,62.1,6.774a3.352,3.352,0,0,0-1.129.208V6.774A2.26,2.26,0,0,0,58.71,4.516H56.452a2.26,2.26,0,0,0-2.258,2.258V9.032H53.065a3.391,3.391,0,0,0-3.387,3.387v6.774A10.173,10.173,0,0,1,39.516,29.355H38.387V27.92A7.079,7.079,0,0,0,42.9,21.312v-.989h1.129a3.391,3.391,0,0,0,3.387-3.387V12.419a7.911,7.911,0,0,0-6.88-7.83,5.637,5.637,0,0,0-11.078,0,7.911,7.911,0,0,0-6.88,7.83v4.516a3.391,3.391,0,0,0,3.387,3.387H27.1v.99a7.082,7.082,0,0,0,4.516,6.608v1.434H30.224a12.415,12.415,0,0,0-6.389,1.77l-7.852,4.711-.625-.625a2.248,2.248,0,0,0,.449-1.34V31.613a2.26,2.26,0,0,0-2.258-2.258H11.29V2.258A2.26,2.26,0,0,0,9.032,0H6.774A2.26,2.26,0,0,0,4.516,2.258v27.1H2.258A2.26,2.26,0,0,0,0,31.613v2.258a2.26,2.26,0,0,0,2.258,2.258H4.516v11.29a2.26,2.26,0,0,0,2.258,2.258H9.032a2.26,2.26,0,0,0,2.258-2.258V45.161h.693A10.146,10.146,0,0,0,15.4,44.57l12.321-4.4,1.554,3.883L19.839,70H50.16L40.724,44.051l1.9-4.74a3.9,3.9,0,0,0,.246-1.083,17.828,17.828,0,0,0,3.142-.673l-.847,1.694v.266a5.645,5.645,0,0,0,11.29,0V39.25l-3.818-7.637h9.895L58.709,39.25v.266a5.645,5.645,0,0,0,11.291,0V39.25ZM62.1,9.032a1.13,1.13,0,0,1,1.129,1.129v4.516a1.129,1.129,0,0,1-2.258,0V10.161A1.13,1.13,0,0,1,62.1,9.032ZM56.452,6.774H58.71v7.9s0,.007,0,.009v1.12H56.452Zm-15.928,31.7L38.752,42.9h-7.5l-1.771-4.426a1.714,1.714,0,0,1,1.59-2.348h7.868a1.712,1.712,0,0,1,1.589,2.346Zm3.509-20.411H42.9V15.806h1.129a1.129,1.129,0,0,1,0,2.258Zm-3.387-2.258v2.258H29.355V15.806ZM29.382,13.548a2.519,2.519,0,0,1,2.5-2.258,2.545,2.545,0,0,1,1.129.266l1.992,1,1.992-1a2.513,2.513,0,0,1,3.626,1.992H29.382ZM35,2.258a3.383,3.383,0,0,1,3.179,2.258H31.822A3.38,3.38,0,0,1,35,2.258ZM30.484,6.774h9.032a5.652,5.652,0,0,1,5.645,5.645v1.337a3.348,3.348,0,0,0-1.129-.208H42.876a4.767,4.767,0,0,0-6.895-4.011L35,10.028l-.981-.491a4.767,4.767,0,0,0-6.9,4.011H25.968a3.352,3.352,0,0,0-1.129.208V12.419a5.651,5.651,0,0,1,5.645-5.645Zm-4.516,11.29a1.129,1.129,0,0,1,0-2.258H27.1v2.258Zm3.387,3.248v-.99h11.29v.99A4.827,4.827,0,0,1,36.985,26l-.856.213v5.4h1.942l-.565,2.258H32.494l-.565-2.258h1.942v-5.4L33.015,26a4.826,4.826,0,0,1-3.66-4.689ZM6.774,2.258H9.032v27.1H6.774ZM2.258,31.613h11.29v2.258H2.258ZM6.774,47.419V36.129H9.032v11.29ZM27.1,37.841c0,.051.012.1.015.15l-12.47,4.453a7.889,7.889,0,0,1-2.658.46h-.693V36.129h1.791l2.55,2.55L25,33.06a10.14,10.14,0,0,1,4.617-1.407l.58,2.32a3.974,3.974,0,0,0-3.1,3.867Zm4.177,7.321h7.452l.279.767L28.9,51.705Zm8.513,2.92,1.637,4.5L36.6,49.9ZM42.68,67.742l-2.062-9.277-2.205.49,1.953,8.787H36.129V56.452H33.871v11.29H29.634l1.953-8.787-2.205-.49L27.32,67.742H23.064L27.7,54.987l6.607-3.775L42.6,55.819l4.334,11.923ZM50.806,42.9a3.381,3.381,0,0,1-3.178-2.258h6.356A3.381,3.381,0,0,1,50.806,42.9ZM53.5,38.387H48.117l2.689-5.379Zm-3.387-9.032-2.6,5.194a15.631,15.631,0,0,1-5.077,1.46,3.964,3.964,0,0,0-2.627-2.033l.6-2.407A12.426,12.426,0,0,0,51.935,19.194V12.419a1.13,1.13,0,0,1,1.129-1.129h1.129v4.516a2.26,2.26,0,0,0,2.258,2.258v2.451a3.378,3.378,0,0,0,0,6.373v2.466Zm14.246,3.654,2.689,5.379H61.666Zm0,9.895a3.381,3.381,0,0,1-3.178-2.258h6.356A3.381,3.381,0,0,1,64.355,42.9Z" fill="#773b3d"/>
    </g>
  </g>
</svg>
