<svg xmlns="http://www.w3.org/2000/svg" width="80" height="80" viewBox="0 0 80 80">
  <g id="Grupo_1178098" data-name="Grupo 1178098" transform="translate(-319.711 -1113)">
    <rect id="Rectángulo_455019" data-name="Rectángulo 455019" width="80" height="80" rx="10" transform="translate(319.711 1113)" fill="#99bfb7"/>
    <g id="Layer_26" transform="translate(325.422 1118.711)">
      <g id="Grupo_1178097" data-name="Grupo 1178097">
        <g id="Grupo_1178046" data-name="Grupo 1178046" transform="translate(24.154 8.663)">
          <path id="Trazado_998254" data-name="Trazado 998254" d="M110.152,35.592a19.127,19.127,0,0,0-5.993-3.215.9.9,0,0,0-1,.359,3.478,3.478,0,0,1-5.721,0,.894.894,0,0,0-1-.359,19.128,19.128,0,0,0-5.994,3.216.733.733,0,0,0-.174.968l1.758,2.813a.732.732,0,0,0,1.017.226,12.123,12.123,0,0,1,2.2-1.111.449.449,0,0,1,.607.421v4.866A1.023,1.023,0,0,0,96.887,44.8h6.833a1.023,1.023,0,0,0,1.023-1.023V38.911a.449.449,0,0,1,.607-.421,12.137,12.137,0,0,1,2.2,1.11.734.734,0,0,0,1.02-.228l1.755-2.808A.736.736,0,0,0,110.152,35.592Z" transform="translate(-90.168 -32.338)" fill="#fc8c48"/>
        </g>
        <g id="Grupo_1178047" data-name="Grupo 1178047" transform="translate(30.917 0.67)">
          <circle id="Elipse_13674" data-name="Elipse 13674" cx="3.372" cy="3.372" r="3.372" fill="#f9d0b4"/>
        </g>
        <g id="Grupo_1178048" data-name="Grupo 1178048" transform="translate(20.596 12.886)">
          <path id="Trazado_998255" data-name="Trazado 998255" d="M80.554,48.1A11.474,11.474,0,0,0,77.1,51.738a1.574,1.574,0,1,0,2.722,1.58,8.245,8.245,0,0,1,2.407-2.541L80.554,48.1Z" transform="translate(-76.885 -48.103)" fill="#f9d0b4"/>
        </g>
        <g id="Grupo_1178049" data-name="Grupo 1178049" transform="translate(42.642 12.887)">
          <path id="Trazado_998256" data-name="Trazado 998256" d="M164.308,51.74a11.477,11.477,0,0,0-3.456-3.635h0l-1.671,2.673a8.24,8.24,0,0,1,2.406,2.54,1.573,1.573,0,0,0,2.722-1.58Z" transform="translate(-159.18 -48.105)" fill="#f9d0b4"/>
        </g>
        <g id="Grupo_1178050" data-name="Grupo 1178050" transform="translate(24.154 47.454)">
          <path id="Trazado_998257" data-name="Trazado 998257" d="M110.152,186.352a19.127,19.127,0,0,1-5.993,3.215.9.9,0,0,1-1-.359,3.478,3.478,0,0,0-5.721,0,.894.894,0,0,1-1,.359,19.128,19.128,0,0,1-5.994-3.216.733.733,0,0,1-.174-.968l1.758-2.812a.732.732,0,0,1,1.017-.226,12.123,12.123,0,0,0,2.2,1.111.449.449,0,0,0,.607-.421v-4.866a1.023,1.023,0,0,1,1.023-1.023h6.833a1.023,1.023,0,0,1,1.023,1.023v4.866a.449.449,0,0,0,.607.421,12.136,12.136,0,0,0,2.2-1.11.734.734,0,0,1,1.02.228l1.755,2.808A.736.736,0,0,1,110.152,186.352Z" transform="translate(-90.168 -177.145)" fill="#87d147"/>
        </g>
        <g id="Grupo_1178051" data-name="Grupo 1178051" transform="translate(30.917 61.165)">
          <circle id="Elipse_13675" data-name="Elipse 13675" cx="3.372" cy="3.372" r="3.372" fill="#f9d0b4"/>
        </g>
        <g id="Grupo_1178052" data-name="Grupo 1178052" transform="translate(20.596 49.693)">
          <path id="Trazado_998258" data-name="Trazado 998258" d="M80.554,191.5a11.474,11.474,0,0,1-3.457-3.635,1.574,1.574,0,1,1,2.722-1.58,8.245,8.245,0,0,0,2.407,2.541L80.554,191.5Z" transform="translate(-76.885 -185.504)" fill="#f9d0b4"/>
        </g>
        <g id="Grupo_1178053" data-name="Grupo 1178053" transform="translate(42.642 49.693)">
          <path id="Trazado_998259" data-name="Trazado 998259" d="M164.308,187.867a11.477,11.477,0,0,1-3.456,3.635h0l-1.671-2.673a8.24,8.24,0,0,0,2.406-2.54,1.573,1.573,0,0,1,2.722,1.58Z" transform="translate(-159.18 -185.504)" fill="#f9d0b4"/>
        </g>
        <g id="Grupo_1178054" data-name="Grupo 1178054" transform="translate(8.663 24.154)">
          <path id="Trazado_998260" data-name="Trazado 998260" d="M35.592,90.452a19.127,19.127,0,0,0-3.215,5.993.9.9,0,0,0,.359,1,3.478,3.478,0,0,1,0,5.721.9.9,0,0,0-.359,1,19.128,19.128,0,0,0,3.216,5.994.733.733,0,0,0,.968.174l2.813-1.758a.732.732,0,0,0,.226-1.017,12.123,12.123,0,0,1-1.111-2.2.449.449,0,0,1,.421-.607h4.866a1.023,1.023,0,0,0,1.023-1.023V96.885a1.023,1.023,0,0,0-1.023-1.023H38.911a.449.449,0,0,1-.421-.607,12.136,12.136,0,0,1,1.11-2.2.734.734,0,0,0-.228-1.02l-2.808-1.755A.736.736,0,0,0,35.592,90.452Z" transform="translate(-32.338 -90.167)" fill="#f5c84c"/>
        </g>
        <g id="Grupo_1178055" data-name="Grupo 1178055" transform="translate(0.67 30.917)">
          <circle id="Elipse_13676" data-name="Elipse 13676" cx="3.372" cy="3.372" r="3.372" fill="#f9d0b4"/>
        </g>
        <g id="Grupo_1178056" data-name="Grupo 1178056" transform="translate(12.886 42.641)">
          <path id="Trazado_998261" data-name="Trazado 998261" d="M48.1,160.848a11.474,11.474,0,0,0,3.635,3.457,1.574,1.574,0,0,0,1.58-2.722,8.244,8.244,0,0,1-2.541-2.407L48.1,160.848Z" transform="translate(-48.103 -159.176)" fill="#f9d0b4"/>
        </g>
        <g id="Grupo_1178057" data-name="Grupo 1178057" transform="translate(12.887 20.596)">
          <path id="Trazado_998262" data-name="Trazado 998262" d="M51.74,77.1a11.477,11.477,0,0,0-3.635,3.456h0l2.673,1.671a8.243,8.243,0,0,1,2.54-2.406A1.573,1.573,0,0,0,51.74,77.1Z" transform="translate(-48.105 -76.884)" fill="#f9d0b4"/>
        </g>
        <g id="Grupo_1178058" data-name="Grupo 1178058" transform="translate(47.454 24.154)">
          <path id="Trazado_998263" data-name="Trazado 998263" d="M186.352,90.452a19.127,19.127,0,0,1,3.215,5.993.9.9,0,0,1-.359,1,3.478,3.478,0,0,0,0,5.721.9.9,0,0,1,.359,1,19.128,19.128,0,0,1-3.216,5.994.733.733,0,0,1-.968.174l-2.812-1.758a.732.732,0,0,1-.226-1.017,12.123,12.123,0,0,0,1.111-2.2.449.449,0,0,0-.421-.607h-4.866a1.023,1.023,0,0,1-1.023-1.023V96.885a1.023,1.023,0,0,1,1.023-1.023h4.866a.449.449,0,0,0,.421-.607,12.136,12.136,0,0,0-1.11-2.2.734.734,0,0,1,.228-1.02l2.808-1.755A.736.736,0,0,1,186.352,90.452Z" transform="translate(-177.145 -90.167)" fill="#fc657e"/>
        </g>
        <g id="Grupo_1178059" data-name="Grupo 1178059" transform="translate(61.165 30.917)">
          <circle id="Elipse_13677" data-name="Elipse 13677" cx="3.372" cy="3.372" r="3.372" fill="#f9d0b4"/>
        </g>
        <g id="Grupo_1178060" data-name="Grupo 1178060" transform="translate(25.036 25.036)">
          <circle id="Elipse_13678" data-name="Elipse 13678" cx="9.253" cy="9.253" r="9.253" fill="#70d6f9"/>
        </g>
        <g id="Grupo_1178061" data-name="Grupo 1178061" transform="translate(49.693 42.641)">
          <path id="Trazado_998264" data-name="Trazado 998264" d="M191.5,160.848a11.474,11.474,0,0,1-3.635,3.457,1.574,1.574,0,0,1-1.58-2.722,8.245,8.245,0,0,0,2.541-2.407l2.674,1.672Z" transform="translate(-185.504 -159.176)" fill="#f9d0b4"/>
        </g>
        <g id="Grupo_1178062" data-name="Grupo 1178062" transform="translate(49.693 20.596)">
          <path id="Trazado_998265" data-name="Trazado 998265" d="M187.867,77.1a11.477,11.477,0,0,1,3.635,3.456h0l-2.673,1.671a8.243,8.243,0,0,0-2.54-2.406,1.573,1.573,0,0,1,1.58-2.722Z" transform="translate(-185.504 -76.884)" fill="#f9d0b4"/>
        </g>
        <g id="Grupo_1178063" data-name="Grupo 1178063" transform="translate(29.387 29.387)">
          <path id="Trazado_998266" data-name="Trazado 998266" d="M119.116,113H116.6a.388.388,0,0,1-.388-.388v-2.52a.388.388,0,0,0-.388-.388h-2.435a.388.388,0,0,0-.388.388v2.52a.388.388,0,0,1-.388.388h-2.52a.388.388,0,0,0-.388.388v2.435a.388.388,0,0,0,.388.388h2.52a.388.388,0,0,1,.388.388v2.52a.388.388,0,0,0,.388.388h2.435a.388.388,0,0,0,.388-.388V116.6a.388.388,0,0,1,.388-.388h2.52a.388.388,0,0,0,.388-.388v-2.435A.388.388,0,0,0,119.116,113Z" transform="translate(-109.699 -109.699)" fill="#dae6f1"/>
        </g>
        <g id="Grupo_1178064" data-name="Grupo 1178064" transform="translate(23.484 7.993)">
          <path id="Trazado_998267" data-name="Trazado 998267" d="M101.893,43.639H95.054a1.7,1.7,0,0,1-1.693-1.693V37.4a11.4,11.4,0,0,0-1.778.928,1.4,1.4,0,0,1-1.947-.435l-1.758-2.813a1.4,1.4,0,0,1,.33-1.851,19.9,19.9,0,0,1,6.209-3.328,1.562,1.562,0,0,1,1.743.618,2.809,2.809,0,0,0,4.62,0,1.563,1.563,0,0,1,1.743-.618,19.9,19.9,0,0,1,6.208,3.327,1.4,1.4,0,0,1,.33,1.854L107.306,37.9a1.4,1.4,0,0,1-1.95.436,11.388,11.388,0,0,0-1.777-.927v4.541a1.7,1.7,0,0,1-1.675,1.693Zm-8.31-7.679A1.119,1.119,0,0,1,94.7,37.08v4.866a.354.354,0,0,0,.353.353h6.832a.354.354,0,0,0,.353-.353V37.08a1.118,1.118,0,0,1,1.516-1.047,12.8,12.8,0,0,1,2.325,1.172.063.063,0,0,0,.05.009.062.062,0,0,0,.04-.028l1.755-2.808a.067.067,0,0,0-.018-.088,18.539,18.539,0,0,0-5.778-3.1.228.228,0,0,0-.249.1,4.148,4.148,0,0,1-6.821,0,.227.227,0,0,0-.249-.1,18.547,18.547,0,0,0-5.779,3.1.064.064,0,0,0-.018.085l1.758,2.813a.057.057,0,0,0,.038.027.059.059,0,0,0,.048-.009,12.816,12.816,0,0,1,2.327-1.173A1.119,1.119,0,0,1,93.582,35.96Z" transform="translate(-87.664 -29.838)"/>
        </g>
        <g id="Grupo_1178065" data-name="Grupo 1178065" transform="translate(30.248)">
          <path id="Trazado_998268" data-name="Trazado 998268" d="M116.955,8.083A4.041,4.041,0,1,1,121,4.041,4.046,4.046,0,0,1,116.955,8.083Zm0-6.743a2.7,2.7,0,1,0,2.7,2.7A2.7,2.7,0,0,0,116.955,1.339Z" transform="translate(-112.914)"/>
        </g>
        <g id="Grupo_1178066" data-name="Grupo 1178066" transform="translate(19.927 12.294)">
          <path id="Trazado_998269" data-name="Trazado 998269" d="M76.625,53.154a2.242,2.242,0,0,1-1.936-3.368,12.024,12.024,0,0,1,3.539-3.769A.67.67,0,0,1,79,47.111a10.7,10.7,0,0,0-3.152,3.346.9.9,0,1,0,1.563.907,8.77,8.77,0,0,1,2.43-2.629.67.67,0,1,1,.794,1.079,7.443,7.443,0,0,0-2.066,2.223A2.245,2.245,0,0,1,76.625,53.154Z" transform="translate(-74.386 -45.894)"/>
        </g>
        <g id="Grupo_1178067" data-name="Grupo 1178067" transform="translate(42.108 12.337)">
          <path id="Trazado_998270" data-name="Trazado 998270" d="M161.493,53.27a2.245,2.245,0,0,1-1.944-1.117,7.456,7.456,0,0,0-2.086-2.238.67.67,0,0,1,.791-1.081,8.782,8.782,0,0,1,2.454,2.646.9.9,0,1,0,1.563-.907,10.679,10.679,0,0,0-3.095-3.306.67.67,0,0,1,.777-1.091,12,12,0,0,1,3.476,3.724,2.243,2.243,0,0,1-1.936,3.369Z" transform="translate(-157.189 -46.053)"/>
        </g>
        <g id="Grupo_1178068" data-name="Grupo 1178068" transform="translate(23.484 46.784)">
          <path id="Trazado_998271" data-name="Trazado 998271" d="M102.072,188.444a1.575,1.575,0,0,1-1.291-.686,2.808,2.808,0,0,0-4.62,0,1.562,1.562,0,0,1-1.743.617,19.9,19.9,0,0,1-6.209-3.328,1.4,1.4,0,0,1-.33-1.851l1.758-2.813a1.4,1.4,0,0,1,1.947-.435,11.408,11.408,0,0,0,1.778.928v-4.541a1.7,1.7,0,0,1,1.693-1.693h6.85a1.7,1.7,0,0,1,1.675,1.693v4.541a11.375,11.375,0,0,0,1.776-.927,1.4,1.4,0,0,1,1.95.436l1.755,2.808a1.4,1.4,0,0,1-.33,1.854,19.886,19.886,0,0,1-6.208,3.327A1.5,1.5,0,0,1,102.072,188.444Zm-3.6-3.237A4.154,4.154,0,0,1,101.88,187a.228.228,0,0,0,.249.1,18.549,18.549,0,0,0,5.778-3.1.067.067,0,0,0,.018-.089L106.17,181.1a.065.065,0,0,0-.09-.019,12.8,12.8,0,0,1-2.325,1.172,1.118,1.118,0,0,1-1.516-1.047v-4.866a.354.354,0,0,0-.353-.353H95.054a.354.354,0,0,0-.353.353V181.2a1.118,1.118,0,0,1-1.516,1.047,12.8,12.8,0,0,1-2.326-1.173.06.06,0,0,0-.048-.009.058.058,0,0,0-.038.027l-1.758,2.813a.064.064,0,0,0,.017.085,18.544,18.544,0,0,0,5.779,3.1.226.226,0,0,0,.249-.1,4.153,4.153,0,0,1,3.41-1.787Zm9.849-.687h0Z" transform="translate(-87.664 -174.643)"/>
        </g>
        <g id="Grupo_1178069" data-name="Grupo 1178069" transform="translate(30.248 60.496)">
          <path id="Trazado_998272" data-name="Trazado 998272" d="M116.955,233.911A4.041,4.041,0,1,1,121,229.869,4.046,4.046,0,0,1,116.955,233.911Zm0-6.743a2.7,2.7,0,1,0,2.7,2.7A2.7,2.7,0,0,0,116.955,227.167Z" transform="translate(-112.914 -225.828)"/>
        </g>
        <g id="Grupo_1178070" data-name="Grupo 1178070" transform="translate(19.927 49.024)">
          <path id="Trazado_998273" data-name="Trazado 998273" d="M78.529,190.208a.666.666,0,0,1-.389-.125,11.99,11.99,0,0,1-3.452-3.707,2.243,2.243,0,0,1,3.88-2.252,7.408,7.408,0,0,0,2.008,2.18.67.67,0,0,1-.8,1.073,8.735,8.735,0,0,1-2.364-2.58.9.9,0,1,0-1.563.907,10.663,10.663,0,0,0,3.073,3.29.669.669,0,0,1-.39,1.214Z" transform="translate(-74.385 -183.007)"/>
        </g>
        <g id="Grupo_1178071" data-name="Grupo 1178071" transform="translate(42.176 49.024)">
          <path id="Trazado_998274" data-name="Trazado 998274" d="M159.757,190.22a.67.67,0,0,1-.39-1.215,10.671,10.671,0,0,0,3.09-3.3.9.9,0,1,0-1.563-.907,8.737,8.737,0,0,1-2.381,2.593.67.67,0,0,1-.8-1.074,7.412,7.412,0,0,0,2.022-2.19,2.243,2.243,0,0,1,3.88,2.252,12,12,0,0,1-3.47,3.72.665.665,0,0,1-.388.125Z" transform="translate(-157.443 -183.006)"/>
        </g>
        <g id="Grupo_1178072" data-name="Grupo 1178072" transform="translate(7.993 23.484)">
          <path id="Trazado_998275" data-name="Trazado 998275" d="M34.342,109.275a1.4,1.4,0,0,1-1.109-.544,19.9,19.9,0,0,1-3.328-6.209,1.561,1.561,0,0,1,.618-1.743,2.809,2.809,0,0,0,0-4.62,1.561,1.561,0,0,1-.618-1.743,19.9,19.9,0,0,1,3.327-6.208,1.4,1.4,0,0,1,1.854-.33l2.808,1.755a1.4,1.4,0,0,1,.436,1.95A11.389,11.389,0,0,0,37.4,93.36h4.541a1.7,1.7,0,0,1,1.693,1.675v6.85a1.7,1.7,0,0,1-1.693,1.693H37.4a11.4,11.4,0,0,0,.928,1.778A1.4,1.4,0,0,1,37.9,107.3l-2.813,1.758a1.4,1.4,0,0,1-.742.214Zm-.054-20.243a18.539,18.539,0,0,0-3.1,5.778.228.228,0,0,0,.1.249,4.148,4.148,0,0,1,0,6.821.227.227,0,0,0-.1.249,18.547,18.547,0,0,0,3.1,5.779.064.064,0,0,0,.085.018l2.813-1.758a.057.057,0,0,0,.027-.038.061.061,0,0,0-.009-.048,12.816,12.816,0,0,1-1.173-2.327,1.118,1.118,0,0,1,1.047-1.515h4.866a.354.354,0,0,0,.353-.353V95.053a.354.354,0,0,0-.353-.353H37.079a1.118,1.118,0,0,1-1.047-1.516A12.8,12.8,0,0,1,37.2,90.859a.063.063,0,0,0,.009-.05.061.061,0,0,0-.028-.04l-2.808-1.755A.066.066,0,0,0,34.289,89.032Z" transform="translate(-29.837 -87.664)"/>
        </g>
        <g id="Grupo_1178073" data-name="Grupo 1178073" transform="translate(0 30.248)">
          <path id="Trazado_998276" data-name="Trazado 998276" d="M4.041,121a4.041,4.041,0,1,1,4.041-4.041A4.046,4.046,0,0,1,4.041,121Zm0-6.743a2.7,2.7,0,1,0,2.7,2.7A2.7,2.7,0,0,0,4.041,114.253Z" transform="translate(0 -112.914)"/>
        </g>
        <g id="Grupo_1178074" data-name="Grupo 1178074" transform="translate(12.335 42.152)">
          <path id="Trazado_998277" data-name="Trazado 998277" d="M51.018,163.851a2.228,2.228,0,0,1-1.122-.3,12.006,12.006,0,0,1-3.726-3.479.67.67,0,1,1,1.091-.777,10.677,10.677,0,0,0,3.307,3.1.9.9,0,0,0,1.235-.328.9.9,0,0,0-.328-1.235,8.757,8.757,0,0,1-2.612-2.407.67.67,0,0,1,1.077-.8,7.434,7.434,0,0,0,2.208,2.046,2.243,2.243,0,0,1-1.13,4.183Z" transform="translate(-46.045 -157.351)"/>
        </g>
        <g id="Grupo_1178075" data-name="Grupo 1178075" transform="translate(12.361 19.927)">
          <path id="Trazado_998278" data-name="Trazado 998278" d="M49.486,80.866a.67.67,0,0,1-.537-1.069,8.744,8.744,0,0,1,2.6-2.386.9.9,0,1,0-.907-1.563,10.659,10.659,0,0,0-3.283,3.063.67.67,0,0,1-1.089-.781,11.987,11.987,0,0,1,3.7-3.44,2.243,2.243,0,0,1,2.252,3.88A7.416,7.416,0,0,0,50.024,80.6.667.667,0,0,1,49.486,80.866Z" transform="translate(-46.142 -74.386)"/>
        </g>
        <g id="Grupo_1178076" data-name="Grupo 1178076" transform="translate(46.784 23.484)">
          <path id="Trazado_998279" data-name="Trazado 998279" d="M183.939,109.276a1.4,1.4,0,0,1-.742-.214l-2.813-1.758a1.4,1.4,0,0,1-.435-1.947,11.409,11.409,0,0,0,.928-1.778h-4.541a1.7,1.7,0,0,1-1.693-1.693v-6.85a1.7,1.7,0,0,1,1.693-1.675h4.541a11.377,11.377,0,0,0-.927-1.776,1.4,1.4,0,0,1,.436-1.95l2.808-1.755a1.4,1.4,0,0,1,1.854.33,19.886,19.886,0,0,1,3.327,6.208,1.561,1.561,0,0,1-.617,1.742,2.808,2.808,0,0,0,0,4.62,1.561,1.561,0,0,1,.617,1.743,19.9,19.9,0,0,1-3.328,6.209A1.4,1.4,0,0,1,183.939,109.276Zm-7.956-14.222v6.832a.354.354,0,0,0,.353.353H181.2a1.118,1.118,0,0,1,1.047,1.516,12.8,12.8,0,0,1-1.173,2.326.062.062,0,0,0-.009.048.058.058,0,0,0,.027.038l2.813,1.758a.064.064,0,0,0,.085-.017,18.544,18.544,0,0,0,3.1-5.779.228.228,0,0,0-.1-.249,4.148,4.148,0,0,1,0-6.821.228.228,0,0,0,.1-.249,18.548,18.548,0,0,0-3.1-5.778.067.067,0,0,0-.089-.018L181.1,90.77a.061.061,0,0,0-.028.04.062.062,0,0,0,.009.05,12.8,12.8,0,0,1,1.172,2.325A1.118,1.118,0,0,1,181.2,94.7h-4.866a.354.354,0,0,0-.354.354Z" transform="translate(-174.643 -87.665)"/>
        </g>
        <g id="Grupo_1178077" data-name="Grupo 1178077" transform="translate(60.496 30.248)">
          <path id="Trazado_998280" data-name="Trazado 998280" d="M229.869,121a4.041,4.041,0,1,1,4.041-4.041A4.046,4.046,0,0,1,229.869,121Zm0-6.743a2.7,2.7,0,1,0,2.7,2.7A2.7,2.7,0,0,0,229.869,114.253Z" transform="translate(-225.828 -112.914)"/>
        </g>
        <g id="Grupo_1178078" data-name="Grupo 1178078" transform="translate(24.366 24.366)">
          <path id="Trazado_998281" data-name="Trazado 998281" d="M100.88,110.8a9.923,9.923,0,1,1,9.923-9.923A9.934,9.934,0,0,1,100.88,110.8Zm0-18.507a8.584,8.584,0,1,0,8.584,8.584A8.594,8.594,0,0,0,100.88,92.3Z" transform="translate(-90.957 -90.957)"/>
        </g>
        <g id="Grupo_1178079" data-name="Grupo 1178079" transform="translate(49.025 42.07)">
          <path id="Trazado_998282" data-name="Trazado 998282" d="M185.253,163.627a2.243,2.243,0,0,1-1.13-4.182,7.48,7.48,0,0,0,2.264-2.122.67.67,0,0,1,1.084.786A8.806,8.806,0,0,1,184.8,160.6a.9.9,0,1,0,.907,1.563,10.7,10.7,0,0,0,3.346-3.152.67.67,0,1,1,1.095.771,12.024,12.024,0,0,1-3.769,3.539A2.229,2.229,0,0,1,185.253,163.627Z" transform="translate(-183.007 -157.046)"/>
        </g>
        <g id="Grupo_1178080" data-name="Grupo 1178080" transform="translate(49.024 19.927)">
          <path id="Trazado_998283" data-name="Trazado 998283" d="M186.864,80.879a.669.669,0,0,1-.538-.271,7.422,7.422,0,0,0-2.2-2.038,2.243,2.243,0,0,1,2.252-3.88,11.994,11.994,0,0,1,3.714,3.462.67.67,0,0,1-1.09.778,10.668,10.668,0,0,0-3.3-3.082.9.9,0,1,0-.907,1.563,8.751,8.751,0,0,1,2.606,2.4.67.67,0,0,1-.538,1.069Z" transform="translate(-183.006 -74.387)"/>
        </g>
        <g id="Grupo_1178083" data-name="Grupo 1178083" transform="translate(18.069 5.09)">
          <g id="Grupo_1178082" data-name="Grupo 1178082">
            <g id="Grupo_1178081" data-name="Grupo 1178081">
              <path id="Trazado_998284" data-name="Trazado 998284" d="M72.366,21.371a2.973,2.973,0,0,1-2.384-2.331c0-.054-.107-.054-.107,0a2.973,2.973,0,0,1-2.384,2.331c-.054,0-.054.08,0,.107a2.973,2.973,0,0,1,2.384,2.331c0,.054.107.054.107,0a2.973,2.973,0,0,1,2.384-2.331C72.419,21.451,72.419,21.371,72.366,21.371Z" transform="translate(-67.45 -19)" fill="#70d6f9"/>
            </g>
          </g>
        </g>
        <g id="Grupo_1178086" data-name="Grupo 1178086" transform="translate(13.515 53.577)">
          <g id="Grupo_1178085" data-name="Grupo 1178085">
            <g id="Grupo_1178084" data-name="Grupo 1178084">
              <path id="Trazado_998285" data-name="Trazado 998285" d="M55.366,202.371a2.973,2.973,0,0,1-2.384-2.331c0-.054-.107-.054-.107,0a2.973,2.973,0,0,1-2.384,2.331c-.054,0-.054.08,0,.107a2.973,2.973,0,0,1,2.384,2.331c0,.054.107.054.107,0a2.973,2.973,0,0,1,2.384-2.331C55.419,202.451,55.419,202.371,55.366,202.371Z" transform="translate(-50.45 -200)" fill="#fc657e"/>
            </g>
          </g>
        </g>
        <g id="Grupo_1178089" data-name="Grupo 1178089" transform="translate(53.443 51.434)">
          <g id="Grupo_1178088" data-name="Grupo 1178088">
            <g id="Grupo_1178087" data-name="Grupo 1178087">
              <path id="Trazado_998286" data-name="Trazado 998286" d="M203.3,193.473h-.616v-.616a.863.863,0,0,0-.857-.857.846.846,0,0,0-.857.857v.616h-.616a.863.863,0,0,0-.857.857.846.846,0,0,0,.857.857h.616v.616a.863.863,0,0,0,.857.857.846.846,0,0,0,.857-.857v-.616h.616a.863.863,0,0,0,.857-.857A.846.846,0,0,0,203.3,193.473Z" transform="translate(-199.5 -192)" fill="#70d6f9"/>
            </g>
          </g>
        </g>
        <g id="Grupo_1178092" data-name="Grupo 1178092" transform="translate(15.109 12.055)">
          <g id="Grupo_1178091" data-name="Grupo 1178091">
            <g id="Grupo_1178090" data-name="Grupo 1178090">
              <circle id="Elipse_13679" data-name="Elipse 13679" cx="0.911" cy="0.911" r="0.911" fill="#87d147"/>
            </g>
          </g>
        </g>
        <g id="Grupo_1178095" data-name="Grupo 1178095" transform="translate(57.166 17.948)">
          <g id="Grupo_1178094" data-name="Grupo 1178094">
            <g id="Grupo_1178093" data-name="Grupo 1178093">
              <circle id="Elipse_13680" data-name="Elipse 13680" cx="0.911" cy="0.911" r="0.911" fill="#fc657e"/>
            </g>
          </g>
        </g>
        <g id="Grupo_1178096" data-name="Grupo 1178096" transform="translate(28.717 28.717)">
          <path id="Trazado_998287" data-name="Trazado 998287" d="M113.988,118.344h-2.435a1.059,1.059,0,0,1-1.058-1.058v-2.238h-2.238a1.059,1.059,0,0,1-1.058-1.058v-2.435a1.059,1.059,0,0,1,1.058-1.058h2.238v-2.238a1.059,1.059,0,0,1,1.058-1.058h2.435a1.059,1.059,0,0,1,1.058,1.058V110.5h2.238a1.059,1.059,0,0,1,1.058,1.058v2.435a1.059,1.059,0,0,1-1.058,1.058h-2.238v2.238A1.059,1.059,0,0,1,113.988,118.344ZM111.834,117h1.873v-2.238a1.059,1.059,0,0,1,1.058-1.058H117v-1.873h-2.238a1.059,1.059,0,0,1-1.058-1.058v-2.238h-1.873v2.238a1.059,1.059,0,0,1-1.058,1.058h-2.238v1.873h2.238a1.059,1.059,0,0,1,1.058,1.058Zm5.451-5.17h0Z" transform="translate(-107.198 -107.199)"/>
        </g>
      </g>
    </g>
  </g>
</svg>
