<svg xmlns="http://www.w3.org/2000/svg" width="128" height="128" viewBox="0 0 128 128">
  <g id="Grupo_1177484" data-name="Grupo 1177484" transform="translate(-381.746 -8402)">
    <path id="Trazado_997402" data-name="Trazado 997402" d="M64,0A64,64,0,1,1,0,64,64,64,0,0,1,64,0Z" transform="translate(381.746 8402)" fill="#565097"/>
    <g id="Grupo_1178362" data-name="Grupo 1178362" transform="translate(374.674 8399.891)">
      <path id="Trazado_998889" data-name="Trazado 998889" d="M81.063,107.219a1.371,1.371,0,0,1-1.2-.7c-5.594-9.987-11.093-32.18-2.03-49.217a31.726,31.726,0,0,0,.048-30.2,1.372,1.372,0,0,1,2.327-1.455,34.026,34.026,0,0,1,.048,32.944c-8.867,16.67-2.481,38.586,2,46.587a1.373,1.373,0,0,1-1.2,2.043Z" transform="translate(-34.281)" fill="#fff5c1"/>
      <path id="Trazado_998890" data-name="Trazado 998890" d="M349.111,384.789a1.372,1.372,0,0,1-1.2-2.043,56.512,56.512,0,0,0,5.592-16.985,1.372,1.372,0,1,1,2.7.465,59.37,59.37,0,0,1-5.9,17.861A1.372,1.372,0,0,1,349.111,384.789Z" transform="translate(-258.81 -277.57)" fill="#fff5c1"/>
      <path id="Trazado_998891" data-name="Trazado 998891" d="M345.13,67.485A1.373,1.373,0,0,1,343.8,66.46a36.447,36.447,0,0,0-3.047-7.866A34.028,34.028,0,0,1,340.8,25.65a1.372,1.372,0,0,1,2.328,1.453,31.853,31.853,0,0,0,.047,30.2,39.178,39.178,0,0,1,3.278,8.46,1.374,1.374,0,0,1-1.328,1.721Z" transform="translate(-249.65 -0.004)" fill="#fff5c1"/>
      <path id="Trazado_998892" data-name="Trazado 998892" d="M387.356,111.409a1.373,1.373,0,0,1-1.326-1.024,36.445,36.445,0,0,0-3.043-7.856,34.533,34.533,0,0,1-3.623-22.642,1.372,1.372,0,0,1,2.7.5,31.4,31.4,0,0,0,3.346,20.858,39.147,39.147,0,0,1,3.275,8.448,1.374,1.374,0,0,1-1.328,1.721Z" transform="translate(-284.195 -43.939)" fill="#fff5c1"/>
      <path id="Trazado_998893" data-name="Trazado 998893" d="M32.481,125.5a1.372,1.372,0,0,1-1.37-1.322c-.317-8.691,1.284-16.408,4.758-22.938A31.394,31.394,0,0,0,39.215,80.38a1.372,1.372,0,0,1,2.7-.5,34.532,34.532,0,0,1-3.623,22.642c-3.243,6.1-4.737,13.348-4.438,21.549a1.371,1.371,0,0,1-1.321,1.421h-.051Z" transform="translate(0 -43.937)" fill="#fff5c1"/>
      <circle id="Elipse_13695" data-name="Elipse 13695" cx="2.767" cy="2.767" r="2.767" transform="translate(64.941 49.768) rotate(-22.514)" fill="#fff5c1"/>
      <path id="Trazado_998894" data-name="Trazado 998894" d="M230.014,417.467a1.372,1.372,0,0,1-1.372-1.372V405.977a1.372,1.372,0,0,1,2.744,0v10.118A1.372,1.372,0,0,1,230.014,417.467Z" transform="translate(-161.472 -310.248)" fill="#fff5c1"/>
      <path id="Trazado_998895" data-name="Trazado 998895" d="M181.371,262.272a13.322,13.322,0,1,1,13.322-13.322A13.337,13.337,0,0,1,181.371,262.272Zm0-23.9a10.577,10.577,0,1,0,10.577,10.577A10.589,10.589,0,0,0,181.371,238.372Z" transform="translate(-111.95 -172.144)" fill="#fff5c1"/>
      <path id="Trazado_998896" data-name="Trazado 998896" d="M150.086,237.981A20.316,20.316,0,1,1,170.4,217.664a20.339,20.339,0,0,1-20.316,20.317Zm0-37.888a17.572,17.572,0,1,0,17.572,17.572A17.591,17.591,0,0,0,150.086,200.092Z" transform="translate(-80.665 -140.858)" fill="#fff5c1"/>
      <path id="Trazado_998897" data-name="Trazado 998897" d="M350.028,283.72H333.564a1.372,1.372,0,0,1-1.307-1.791,17.529,17.529,0,0,0,0-10.713,1.372,1.372,0,0,1,1.307-1.79h16.464a7.147,7.147,0,1,1,0,14.294Zm-14.673-2.745h14.673a4.4,4.4,0,1,0,0-8.8H335.355a20.24,20.24,0,0,1,0,8.8Z" transform="translate(-246.103 -199.767)" fill="#fff5c1"/>
    </g>
  </g>
</svg>
