<svg xmlns="http://www.w3.org/2000/svg" width="84" height="84" viewBox="0 0 84 84">
  <g id="Grupo_1180412" data-name="Grupo 1180412" transform="translate(-186 -2540.876)">
    <rect id="Rectángulo_455240" data-name="Rectángulo 455240" width="84" height="84" rx="10" transform="translate(186 2540.876)" fill="#99bfb7"/>
    <g id="copyright" transform="translate(196.496 2551)">
      <path id="Trazado_1004244" data-name="Trazado 1004244" d="M47,10V59a2.006,2.006,0,0,1-2,2H5a2.006,2.006,0,0,1-2-2V5A2.006,2.006,0,0,1,5,3H40v7Z" fill="#ffdaaa"/>
      <path id="Trazado_1004245" data-name="Trazado 1004245" d="M47,10V59a2.006,2.006,0,0,1-2,2H43a2.006,2.006,0,0,0,2-2V10Z" fill="#ffc477"/>
      <path id="Trazado_1004246" data-name="Trazado 1004246" d="M61,26v9.71a19.979,19.979,0,0,1-8.383,16.272L47,56l-5.62-4.02A19.978,19.978,0,0,1,33,35.71V26l14-6Z" fill="#57a4ff"/>
      <path id="Trazado_1004247" data-name="Trazado 1004247" d="M61,26v9.71a19.979,19.979,0,0,1-8.383,16.272L47,56l-1-.72,4.62-3.3A19.978,19.978,0,0,0,59,35.71V26L46,20.43,47,20Z" fill="#2488ff"/>
      <path id="Trazado_1004248" data-name="Trazado 1004248" d="M57,29v6.31A16,16,0,0,1,51,47.8L47,51l-4-3.2a16,16,0,0,1-6-12.49V29l10-4Z" fill="#00e7f0"/>
      <path id="Trazado_1004249" data-name="Trazado 1004249" d="M57,29v6.31A16,16,0,0,1,51,47.8L47,51l-1-.8,3-2.4a16,16,0,0,0,6-12.49V29l-9-3.6,1-.4Z" fill="#00b6bd"/>
      <path id="Trazado_1004250" data-name="Trazado 1004250" d="M47,8v2H40V3h2Z" fill="#898890"/>
      <path id="Trazado_1004251" data-name="Trazado 1004251" d="M7,45H29V57H7Z" fill="#ffeb99"/>
      <path id="Trazado_1004252" data-name="Trazado 1004252" d="M7,27H29V41H7Z" fill="#ffeb99"/>
      <path id="Trazado_1004253" data-name="Trazado 1004253" d="M61.394,25.081,48,19.341V8a1,1,0,0,0-.293-.707l-5-5A1,1,0,0,0,42,2H5A3,3,0,0,0,2,5V59a3,3,0,0,0,3,3H45a3,3,0,0,0,3-3V56.514L53.206,52.8A21.038,21.038,0,0,0,62,35.708V26a1,1,0,0,0-.606-.919ZM46,8.414V9H41V4h.586ZM45,60H5a1,1,0,0,1-1-1V5A1,1,0,0,1,5,4H39v6a1,1,0,0,0,1,1h6v8.341l-13.394,5.74A1,1,0,0,0,32,26v9.708A21.038,21.038,0,0,0,40.794,52.8L46,56.514V59A1,1,0,0,1,45,60ZM60,35.708a19.04,19.04,0,0,1-7.956,15.461L47,54.771l-5.044-3.6A19.04,19.04,0,0,1,34,35.708V26.659l13-5.571,13,5.571Z"/>
      <path id="Trazado_1004254" data-name="Trazado 1004254" d="M47,23.923,36.629,28.071A1,1,0,0,0,36,29v6.31a17,17,0,0,0,6.38,13.275L47,52l4.62-3.415A17,17,0,0,0,58,35.31V29a1,1,0,0,0-.629-.929Zm9,5.754V35.31a14.922,14.922,0,0,1-5.63,11.712L47,49.72l-3.37-2.7A14.922,14.922,0,0,1,38,35.31V29.677l9-3.6Z"/>
      <path id="Trazado_1004255" data-name="Trazado 1004255" d="M6,14H18v2H6Z"/>
      <path id="Trazado_1004256" data-name="Trazado 1004256" d="M20,14H40v2H20Z"/>
      <path id="Trazado_1004257" data-name="Trazado 1004257" d="M6,10H24v2H6Z"/>
      <path id="Trazado_1004258" data-name="Trazado 1004258" d="M26,10H37v2H26Z"/>
      <path id="Trazado_1004259" data-name="Trazado 1004259" d="M6,22H18v2H6Z"/>
      <path id="Trazado_1004260" data-name="Trazado 1004260" d="M20,22H31v2H20Z"/>
      <path id="Trazado_1004261" data-name="Trazado 1004261" d="M6,18H24v2H6Z"/>
      <path id="Trazado_1004262" data-name="Trazado 1004262" d="M26,18H40v2H26Z"/>
      <path id="Trazado_1004263" data-name="Trazado 1004263" d="M6,6H16V8H6Z"/>
      <path id="Trazado_1004264" data-name="Trazado 1004264" d="M18,6H37V8H18Z"/>
      <path id="Trazado_1004265" data-name="Trazado 1004265" d="M29,44H7a1,1,0,0,0-1,1V57a1,1,0,0,0,1,1H29a1,1,0,0,0,1-1V45A1,1,0,0,0,29,44ZM28,56H8V46H28Z"/>
      <path id="Trazado_1004266" data-name="Trazado 1004266" d="M29,26H7a1,1,0,0,0-1,1V41a1,1,0,0,0,1,1H29a1,1,0,0,0,1-1V27A1,1,0,0,0,29,26ZM28,40H8V28H28Z"/>
      <path id="Trazado_1004267" data-name="Trazado 1004267" d="M42.707,37.293l-1.414,1.414,3,3A1,1,0,0,0,45,42h.033a1,1,0,0,0,.72-.341l7-8-1.506-1.316-6.3,7.2Z"/>
      <path id="Trazado_1004268" data-name="Trazado 1004268" d="M24,30h2v2H24Z"/>
      <path id="Trazado_1004269" data-name="Trazado 1004269" d="M24,48h2v2H24Z"/>
    </g>
  </g>
</svg>
