<svg xmlns="http://www.w3.org/2000/svg" width="100" height="100" viewBox="0 0 100 100">
  <g id="Grupo_1180718" data-name="Grupo 1180718" transform="translate(-1010.496 -4501)">
    <circle id="Elipse_13671" data-name="Elipse 13671" cx="50" cy="50" r="50" transform="translate(1010.496 4501)" fill="#bbded6"/>
    <g id="Grupo_1180717" data-name="Grupo 1180717" transform="translate(1033.745 4524.249)">
      <g id="Grupo_1180715" data-name="Grupo 1180715" transform="translate(0.863 0.863)">
        <g id="Grupo_1180676" data-name="Grupo 1180676">
          <path id="Trazado_1004996" data-name="Trazado 1004996" d="M39.066,8.863V16.63H35.32a5.181,5.181,0,0,0-4.883-3.452H27.7a5.894,5.894,0,0,1-4.167-1.726,5.893,5.893,0,0,1-4.167,1.726H16.629a5.178,5.178,0,0,0-5.178,5.178v3.452A3.451,3.451,0,0,1,8,25.259V8.863A.863.863,0,0,1,8.863,8H38.2a.863.863,0,0,1,.863.863Z" transform="translate(-8 -8)" fill="#ccd1d9"/>
        </g>
        <g id="Grupo_1180677" data-name="Grupo 1180677" transform="translate(2.441 3.452)">
          <path id="Trazado_1004997" data-name="Trazado 1004997" d="M48.9,72.792v3.452H33.367a1.725,1.725,0,0,1-1.726-1.726v-20a1.727,1.727,0,0,0-.506-1.221l-.5-.5a3.441,3.441,0,0,0,1.011-2.441V46.9a5.178,5.178,0,0,1,5.178-5.178h2.737A5.893,5.893,0,0,0,43.722,40a5.894,5.894,0,0,0,4.167,1.726h2.737a5.181,5.181,0,0,1,4.883,3.452H49.763a.861.861,0,0,0-.815.582h0a3.638,3.638,0,0,0-1.982-.582,3.657,3.657,0,0,0-2.589,1.072l-.654.654-.654-.654a3.661,3.661,0,1,0-5.178,5.178l5.831,5.831L48.9,52.081V72.792Z" transform="translate(-30.63 -40)" fill="#e6e9ed"/>
        </g>
        <g id="Grupo_1180678" data-name="Grupo 1180678" transform="translate(17.259 39.696)">
          <path id="Trazado_1004998" data-name="Trazado 1004998" d="M171.452,377.726v1.726H168v-1.726a1.726,1.726,0,1,1,3.452,0Z" transform="translate(-168 -376)" fill="#ff826e"/>
        </g>
        <g id="Grupo_1180679" data-name="Grupo 1180679" transform="translate(10.355 39.696)">
          <path id="Trazado_1004999" data-name="Trazado 1004999" d="M107.452,377.726v1.726H104v-1.726a1.726,1.726,0,1,1,3.452,0Z" transform="translate(-104 -376)" fill="#ff826e"/>
        </g>
        <g id="Grupo_1180680" data-name="Grupo 1180680" transform="translate(3.452 39.696)">
          <path id="Trazado_1005000" data-name="Trazado 1005000" d="M43.452,377.726v1.726H40v-1.726a1.726,1.726,0,1,1,3.452,0Z" transform="translate(-40 -376)" fill="#ff826e"/>
        </g>
        <g id="Grupo_1180681" data-name="Grupo 1180681" transform="translate(0 34.518)">
          <path id="Trazado_1005001" data-name="Trazado 1005001" d="M10.947,328.5a1.727,1.727,0,0,1-1.221,2.947H8V328H9.726A1.725,1.725,0,0,1,10.947,328.5Z" transform="translate(-8 -328)" fill="#ff826e"/>
        </g>
        <g id="Grupo_1180682" data-name="Grupo 1180682" transform="translate(0 27.614)">
          <path id="Trazado_1005002" data-name="Trazado 1005002" d="M10.947,264.5a1.727,1.727,0,0,1-1.221,2.947H8V264H9.726A1.725,1.725,0,0,1,10.947,264.5Z" transform="translate(-8 -264)" fill="#ff826e"/>
        </g>
        <g id="Grupo_1180683" data-name="Grupo 1180683" transform="translate(0 20.711)">
          <path id="Trazado_1005003" data-name="Trazado 1005003" d="M10.947,200.5a1.727,1.727,0,0,1-1.221,2.947H8V200H9.726A1.725,1.725,0,0,1,10.947,200.5Z" transform="translate(-8 -200)" fill="#ff826e"/>
        </g>
        <g id="Grupo_1180684" data-name="Grupo 1180684" transform="translate(12.081 39.696)">
          <path id="Trazado_1005004" data-name="Trazado 1005004" d="M120,376h6.9a1.725,1.725,0,0,0-1.726,1.726v1.726h-3.452v-1.726A1.724,1.724,0,0,0,120,376Z" transform="translate(-120 -376)" fill="#fc6e51"/>
        </g>
        <g id="Grupo_1180685" data-name="Grupo 1180685" transform="translate(5.178 39.696)">
          <path id="Trazado_1005005" data-name="Trazado 1005005" d="M56,376h6.9a1.725,1.725,0,0,0-1.726,1.726v1.726H57.726v-1.726A1.724,1.724,0,0,0,56,376Z" transform="translate(-56 -376)" fill="#fc6e51"/>
        </g>
        <g id="Grupo_1180686" data-name="Grupo 1180686" transform="translate(0 36.244)">
          <path id="Trazado_1005006" data-name="Trazado 1005006" d="M11.452,345.726a1.726,1.726,0,0,1,0,3.452V350.9H8.863A.863.863,0,0,1,8,350.041v-4.315H9.726A1.725,1.725,0,0,0,11.452,344Z" transform="translate(-8 -344)" fill="#fc6e51"/>
        </g>
        <g id="Grupo_1180687" data-name="Grupo 1180687" transform="translate(0 29.34)">
          <path id="Trazado_1005007" data-name="Trazado 1005007" d="M11.452,280v6.9a1.724,1.724,0,0,0-1.726-1.726H8v-3.452H9.726A1.725,1.725,0,0,0,11.452,280Z" transform="translate(-8 -280)" fill="#fc6e51"/>
        </g>
        <g id="Grupo_1180688" data-name="Grupo 1180688" transform="translate(0 22.437)">
          <path id="Trazado_1005008" data-name="Trazado 1005008" d="M11.452,216v6.9a1.724,1.724,0,0,0-1.726-1.726H8v-3.452H9.726A1.725,1.725,0,0,0,11.452,216Z" transform="translate(-8 -216)" fill="#fc6e51"/>
        </g>
        <g id="Grupo_1180689" data-name="Grupo 1180689" transform="translate(0 16.248)">
          <path id="Trazado_1005009" data-name="Trazado 1005009" d="M11.452,160.356v4.463a1.724,1.724,0,0,0-1.726-1.726H8v-3.452a3.441,3.441,0,0,0,2.441-1.011l.5.5A1.727,1.727,0,0,1,11.452,160.356Z" transform="translate(-8 -158.63)" fill="#fc6e51"/>
        </g>
        <g id="Grupo_1180690" data-name="Grupo 1180690" transform="translate(8.63 8.63)">
          <path id="Trazado_1005010" data-name="Trazado 1005010" d="M100.128,88.583h0a.832.832,0,0,0-.047.28V94.9L94.9,100.081,89.072,94.25a3.661,3.661,0,0,1,5.178-5.178l.654.654.654-.654A3.657,3.657,0,0,1,98.146,88,3.638,3.638,0,0,1,100.128,88.583Z" transform="translate(-88 -88)" fill="#ff826e"/>
        </g>
        <g id="Grupo_1180691" data-name="Grupo 1180691" transform="translate(20.711 8.63)">
          <path id="Trazado_1005011" data-name="Trazado 1005011" d="M231.066,88.863v16.4a3.451,3.451,0,0,1-3.452-3.452V98.355a5.178,5.178,0,0,0-5.178-5.178H219.7a5.894,5.894,0,0,1-4.167-1.726,5.894,5.894,0,0,1-4.167,1.726H208.63a5.178,5.178,0,0,0-5.178,5.178v3.452A3.451,3.451,0,0,1,200,105.259v-16.4a.832.832,0,0,1,.047-.28.861.861,0,0,1,.815-.582H230.2A.863.863,0,0,1,231.066,88.863Z" transform="translate(-200 -88)" fill="#ccd1d9"/>
        </g>
        <g id="Grupo_1180692" data-name="Grupo 1180692" transform="translate(48.325 24.878)">
          <path id="Trazado_1005012" data-name="Trazado 1005012" d="M459.452,239.641v3.452h-1.726A1.724,1.724,0,0,0,456,244.818v-4.463a1.727,1.727,0,0,1,.506-1.221l.5-.5A3.441,3.441,0,0,0,459.452,239.641Z" transform="translate(-456 -238.63)" fill="#fc6e51"/>
        </g>
        <g id="Grupo_1180693" data-name="Grupo 1180693" transform="translate(48.325 31.066)">
          <path id="Trazado_1005013" data-name="Trazado 1005013" d="M459.452,297.726v3.452h-1.726A1.724,1.724,0,0,0,456,302.9V296a1.725,1.725,0,0,0,1.726,1.726Z" transform="translate(-456 -296)" fill="#fc6e51"/>
        </g>
        <g id="Grupo_1180694" data-name="Grupo 1180694" transform="translate(48.325 37.97)">
          <path id="Trazado_1005014" data-name="Trazado 1005014" d="M459.452,361.726v3.452h-1.726A1.724,1.724,0,0,0,456,366.9V360a1.725,1.725,0,0,0,1.726,1.726Z" transform="translate(-456 -360)" fill="#fc6e51"/>
        </g>
        <g id="Grupo_1180695" data-name="Grupo 1180695" transform="translate(46.599 44.873)">
          <path id="Trazado_1005015" data-name="Trazado 1005015" d="M445.178,425.726v4.315a.863.863,0,0,1-.863.863h-2.589v-1.726a1.726,1.726,0,1,1,0-3.452V424a1.725,1.725,0,0,0,1.726,1.726Z" transform="translate(-440 -424)" fill="#fc6e51"/>
        </g>
        <g id="Grupo_1180696" data-name="Grupo 1180696" transform="translate(39.696 48.325)">
          <path id="Trazado_1005016" data-name="Trazado 1005016" d="M376,456h6.9a1.725,1.725,0,0,0-1.726,1.726v1.726h-3.452v-1.726A1.724,1.724,0,0,0,376,456Z" transform="translate(-376 -456)" fill="#fc6e51"/>
        </g>
        <g id="Grupo_1180697" data-name="Grupo 1180697" transform="translate(32.792 48.325)">
          <path id="Trazado_1005017" data-name="Trazado 1005017" d="M312,456h6.9a1.725,1.725,0,0,0-1.726,1.726v1.726h-3.452v-1.726A1.724,1.724,0,0,0,312,456Z" transform="translate(-312 -456)" fill="#fc6e51"/>
        </g>
        <g id="Grupo_1180698" data-name="Grupo 1180698" transform="translate(25.889 48.325)">
          <path id="Trazado_1005018" data-name="Trazado 1005018" d="M248,456h6.9a1.725,1.725,0,0,0-1.726,1.726v1.726h-3.452v-1.726A1.724,1.724,0,0,0,248,456Z" transform="translate(-248 -456)" fill="#fc6e51"/>
        </g>
        <g id="Grupo_1180699" data-name="Grupo 1180699" transform="translate(20.711 44.873)">
          <path id="Trazado_1005019" data-name="Trazado 1005019" d="M203.452,425.726a1.726,1.726,0,0,1,0,3.452V430.9h-2.589a.863.863,0,0,1-.863-.863v-4.315h1.726A1.725,1.725,0,0,0,203.452,424Z" transform="translate(-200 -424)" fill="#fc6e51"/>
        </g>
        <g id="Grupo_1180700" data-name="Grupo 1180700" transform="translate(20.711 37.97)">
          <path id="Trazado_1005020" data-name="Trazado 1005020" d="M203.452,360v6.9a1.724,1.724,0,0,0-1.726-1.726H200v-3.452h1.726A1.725,1.725,0,0,0,203.452,360Z" transform="translate(-200 -360)" fill="#fc6e51"/>
        </g>
        <g id="Grupo_1180701" data-name="Grupo 1180701" transform="translate(20.711 24.878)">
          <path id="Trazado_1005021" data-name="Trazado 1005021" d="M203.452,240.356v4.463a1.724,1.724,0,0,0-1.726-1.726H200v-3.452a3.441,3.441,0,0,0,2.441-1.011l.5.5A1.727,1.727,0,0,1,203.452,240.356Z" transform="translate(-200 -238.63)" fill="#fc6e51"/>
        </g>
        <g id="Grupo_1180702" data-name="Grupo 1180702" transform="translate(20.711 31.066)">
          <path id="Trazado_1005022" data-name="Trazado 1005022" d="M203.452,296v6.9a1.724,1.724,0,0,0-1.726-1.726H200v-3.452h1.726A1.725,1.725,0,0,0,203.452,296Z" transform="translate(-200 -296)" fill="#fc6e51"/>
        </g>
        <g id="Grupo_1180703" data-name="Grupo 1180703" transform="translate(23.152 12.081)">
          <path id="Trazado_1005023" data-name="Trazado 1005023" d="M248.814,132.8l-.5.5a1.727,1.727,0,0,0-.506,1.221v20a1.725,1.725,0,0,1-1.726,1.726H225.367a1.725,1.725,0,0,1-1.726-1.726v-20a1.727,1.727,0,0,0-.506-1.221l-.5-.5a3.441,3.441,0,0,0,1.011-2.441V126.9a5.178,5.178,0,0,1,5.178-5.178h2.737A5.894,5.894,0,0,0,235.722,120a5.894,5.894,0,0,0,4.167,1.726h2.737A5.178,5.178,0,0,1,247.8,126.9v3.452A3.441,3.441,0,0,0,248.814,132.8Z" transform="translate(-222.63 -120)" fill="#e6e9ed"/>
        </g>
        <g id="Grupo_1180704" data-name="Grupo 1180704" transform="translate(48.325 29.34)">
          <path id="Trazado_1005024" data-name="Trazado 1005024" d="M459.452,280v3.452h-1.726a1.726,1.726,0,1,1,0-3.452Z" transform="translate(-456 -280)" fill="#ff826e"/>
        </g>
        <g id="Grupo_1180705" data-name="Grupo 1180705" transform="translate(48.325 36.244)">
          <path id="Trazado_1005025" data-name="Trazado 1005025" d="M459.452,344v3.452h-1.726a1.726,1.726,0,1,1,0-3.452Z" transform="translate(-456 -344)" fill="#ff826e"/>
        </g>
        <g id="Grupo_1180706" data-name="Grupo 1180706" transform="translate(48.325 43.148)">
          <path id="Trazado_1005026" data-name="Trazado 1005026" d="M459.452,408v3.452h-1.726a1.726,1.726,0,1,1,0-3.452Z" transform="translate(-456 -408)" fill="#ff826e"/>
        </g>
        <g id="Grupo_1180707" data-name="Grupo 1180707" transform="translate(44.873 48.325)">
          <path id="Trazado_1005027" data-name="Trazado 1005027" d="M427.452,457.726v1.726H424v-1.726a1.726,1.726,0,1,1,3.452,0Z" transform="translate(-424 -456)" fill="#ff826e"/>
        </g>
        <g id="Grupo_1180708" data-name="Grupo 1180708" transform="translate(37.97 48.325)">
          <path id="Trazado_1005028" data-name="Trazado 1005028" d="M363.452,457.726v1.726H360v-1.726a1.726,1.726,0,1,1,3.452,0Z" transform="translate(-360 -456)" fill="#ff826e"/>
        </g>
        <g id="Grupo_1180709" data-name="Grupo 1180709" transform="translate(31.066 48.325)">
          <path id="Trazado_1005029" data-name="Trazado 1005029" d="M299.452,457.726v1.726H296v-1.726a1.726,1.726,0,1,1,3.452,0Z" transform="translate(-296 -456)" fill="#ff826e"/>
        </g>
        <g id="Grupo_1180710" data-name="Grupo 1180710" transform="translate(24.163 48.325)">
          <path id="Trazado_1005030" data-name="Trazado 1005030" d="M235.452,457.726v1.726H232v-1.726a1.726,1.726,0,1,1,3.452,0Z" transform="translate(-232 -456)" fill="#ff826e"/>
        </g>
        <g id="Grupo_1180711" data-name="Grupo 1180711" transform="translate(20.711 43.148)">
          <path id="Trazado_1005031" data-name="Trazado 1005031" d="M202.947,408.5a1.727,1.727,0,0,1-1.221,2.947H200V408h1.726A1.725,1.725,0,0,1,202.947,408.5Z" transform="translate(-200 -408)" fill="#ff826e"/>
        </g>
        <g id="Grupo_1180712" data-name="Grupo 1180712" transform="translate(20.711 36.244)">
          <path id="Trazado_1005032" data-name="Trazado 1005032" d="M202.947,344.5a1.727,1.727,0,0,1-1.221,2.947H200V344h1.726A1.725,1.725,0,0,1,202.947,344.5Z" transform="translate(-200 -344)" fill="#ff826e"/>
        </g>
        <g id="Grupo_1180713" data-name="Grupo 1180713" transform="translate(20.711 29.34)">
          <path id="Trazado_1005033" data-name="Trazado 1005033" d="M202.947,280.5a1.727,1.727,0,0,1-1.221,2.947H200V280h1.726A1.725,1.725,0,0,1,202.947,280.5Z" transform="translate(-200 -280)" fill="#ff826e"/>
        </g>
        <g id="Grupo_1180714" data-name="Grupo 1180714" transform="translate(29.34 17.259)">
          <path id="Trazado_1005034" data-name="Trazado 1005034" d="M293.807,171.661a3.663,3.663,0,0,1-1.072,2.589l-5.831,5.831-5.831-5.831a3.661,3.661,0,0,1,5.178-5.178l.654.654.654-.654a3.661,3.661,0,0,1,6.25,2.589Z" transform="translate(-280 -168)" fill="#ff826e"/>
        </g>
      </g>
      <g id="Grupo_1180716" data-name="Grupo 1180716">
        <path id="Trazado_1005035" data-name="Trazado 1005035" d="M287.533,164.524a4.524,4.524,0,0,0-7.723-3.2l-.043.043-.043-.043a4.524,4.524,0,1,0-6.4,6.4l6.084,6.084H272v1.726h15.533v-1.726h-7.409l6.084-6.084a4.5,4.5,0,0,0,1.325-3.2Zm-2.546,1.979-5.221,5.221-5.221-5.221a2.8,2.8,0,1,1,3.957-3.957l1.264,1.264,1.264-1.264a2.8,2.8,0,1,1,3.957,3.957Z" transform="translate(-242.66 -142.741)"/>
        <path id="Trazado_1005036" data-name="Trazado 1005036" d="M272,320h15.533v1.726H272Z" transform="translate(-242.66 -285.482)"/>
        <path id="Trazado_1005037" data-name="Trazado 1005037" d="M272,352h5.178v1.726H272Z" transform="translate(-242.66 -314.03)"/>
        <path id="Trazado_1005038" data-name="Trazado 1005038" d="M336,352h1.726v1.726H336Z" transform="translate(-299.756 -314.03)"/>
        <path id="Trazado_1005039" data-name="Trazado 1005039" d="M368,352h1.726v1.726H368Z" transform="translate(-328.304 -314.03)"/>
        <path id="Trazado_1005040" data-name="Trazado 1005040" d="M51.777,8.63H32.792v-6.9A1.728,1.728,0,0,0,31.066,0H1.726A1.728,1.728,0,0,0,0,1.726V43.148a1.728,1.728,0,0,0,1.726,1.726H20.711v6.9A1.728,1.728,0,0,0,22.437,53.5h29.34A1.728,1.728,0,0,0,53.5,51.777V10.355A1.728,1.728,0,0,0,51.777,8.63Zm0,17.111A2.593,2.593,0,0,1,50.051,23.3V19.848a6.047,6.047,0,0,0-6.041-6.041H41.274a5,5,0,0,1-3.556-1.473l-.61-.61-.61.61a5,5,0,0,1-3.556,1.473H30.2a6.047,6.047,0,0,0-6.041,6.041V23.3a2.593,2.593,0,0,1-1.726,2.44V10.355h29.34ZM23.3,46.6h-.863V44.873H23.3a.863.863,0,1,1,0,1.726Zm-6.041-3.452H15.533v-.863a2.577,2.577,0,0,0-.148-.863h2.023a2.577,2.577,0,0,0-.148.863ZM2.589,37.97H1.726V36.244h.863a.863.863,0,1,1,0,1.726Zm0-3.452H1.726V32.792h.863a2.576,2.576,0,0,0,.863-.148v2.023A2.576,2.576,0,0,0,2.589,34.518ZM3.238,18.27a.855.855,0,0,1,.214.567v2.022a2.576,2.576,0,0,0-.863-.148H1.726V18.9A4.292,4.292,0,0,0,3.238,18.27Zm-.649,4.167a.863.863,0,0,1,0,1.726H1.726V22.437Zm0,3.452a2.576,2.576,0,0,0,.863-.148v2.023a2.576,2.576,0,0,0-.863-.148H1.726V25.889Zm0,3.452a.863.863,0,1,1,0,1.726H1.726V29.34ZM5.178,42.285a.863.863,0,0,1,1.726,0v.863H5.178Zm3.3-.863H10.5a2.577,2.577,0,0,0-.148.863v.863H8.63v-.863A2.577,2.577,0,0,0,8.481,41.422Zm3.6.863a.863.863,0,0,1,1.726,0v.863H12.081ZM6.041,39.7a.864.864,0,0,1-.863-.863v-20a2.571,2.571,0,0,0-.717-1.788,4.289,4.289,0,0,0,.717-2.379V11.218A4.32,4.32,0,0,1,9.492,6.9h2.737A6.7,6.7,0,0,0,16.4,5.467,6.7,6.7,0,0,0,20.563,6.9H23.3A4.324,4.324,0,0,1,26.752,8.63H22.437a1.715,1.715,0,0,0-1.045.356,4.516,4.516,0,0,0-4.952.97L16.4,10l-.043-.043a4.524,4.524,0,1,0-6.4,6.4l6.084,6.084H8.63v1.726H20.711v1.726H8.63v1.726H20.711V29.34H18.985v1.726h1.726v5.178h-1.93a.2.2,0,0,1-.182-.113l-1.136-2.273a1.93,1.93,0,0,0-3.656.863V36.04a.2.2,0,0,1-.386.091l-1.136-2.273a1.93,1.93,0,0,0-3.655.863V37.97h1.726V34.722a.2.2,0,0,1,.386-.091L11.878,36.9a1.93,1.93,0,0,0,3.656-.863V34.722a.2.2,0,0,1,.386-.091L17.055,36.9a1.919,1.919,0,0,0,1.726,1.067h1.929V39.7H6.041Zm43-14.017a2.57,2.57,0,0,0-.717,1.788v20a.864.864,0,0,1-.863.863H26.751a.864.864,0,0,1-.863-.863v-20a2.571,2.571,0,0,0-.717-1.788,4.289,4.289,0,0,0,.717-2.379V19.848A4.32,4.32,0,0,1,30.2,15.533H32.94A6.7,6.7,0,0,0,37.107,14.1a6.7,6.7,0,0,0,4.167,1.437H44.01a4.32,4.32,0,0,1,4.315,4.315V23.3A4.289,4.289,0,0,0,49.043,25.679ZM24.163,36.392a2.576,2.576,0,0,0-.863-.148h-.863V34.518H23.3a2.576,2.576,0,0,0,.863-.148Zm-.863-3.6h-.863V31.066H23.3a.863.863,0,1,1,0,1.726Zm-.863,5.178H23.3a.863.863,0,1,1,0,1.726h-.863ZM23.949,26.9a.855.855,0,0,1,.214.567v2.022a2.576,2.576,0,0,0-.863-.148h-.863V27.528A4.292,4.292,0,0,0,23.949,26.9ZM20.711,16.039,16.4,20.353l-5.221-5.221a2.8,2.8,0,1,1,3.957-3.957L16.4,12.439l1.264-1.264a2.794,2.794,0,0,1,3.051-.605Zm0,2.441v3.957H16.753ZM23.3,43.148h-.863V41.422H23.3a2.576,2.576,0,0,0,.863-.148V43.3A2.576,2.576,0,0,0,23.3,43.148Zm2.589,7.767a.863.863,0,0,1,1.726,0v.863H25.889Zm3.3-.863h2.023a2.577,2.577,0,0,0-.148.863v.863H29.34v-.863A2.577,2.577,0,0,0,29.192,50.051Zm3.6.863a.863.863,0,0,1,1.726,0v.863H32.792Zm3.3-.863h2.023a2.577,2.577,0,0,0-.148.863v.863H36.244v-.863A2.577,2.577,0,0,0,36.1,50.051Zm3.6.863a.863.863,0,0,1,1.726,0v.863H39.7Zm3.3-.863h2.023a2.577,2.577,0,0,0-.148.863v.863H43.148v-.863A2.577,2.577,0,0,0,43,50.051Zm3.6.863a.863.863,0,0,1,1.726,0v.863H46.6Zm4.315-7.767a2.576,2.576,0,0,0-.863.148V41.273a2.576,2.576,0,0,0,.863.148h.864v1.726Zm.864,1.726V46.6h-.864a.863.863,0,0,1,0-1.726ZM50.914,39.7a.863.863,0,0,1,0-1.726h.864V39.7Zm0-3.452a2.576,2.576,0,0,0-.863.148V34.37a2.576,2.576,0,0,0,.863.148h.864v1.726Zm0-3.452a.863.863,0,0,1,0-1.726h.863v1.726Zm0-3.452a2.576,2.576,0,0,0-.863.148V27.466a.856.856,0,0,1,.214-.567,4.289,4.289,0,0,0,1.513.628V29.34ZM31.066,1.726v6.9H28.758A6.053,6.053,0,0,0,23.3,5.178H20.563A5,5,0,0,1,17.006,3.7l-.61-.61-.61.61a5,5,0,0,1-3.556,1.473H9.492a6.047,6.047,0,0,0-6.041,6.041V14.67a2.593,2.593,0,0,1-1.726,2.44V1.726ZM1.726,39.7h.863a2.573,2.573,0,0,0,.954-.183,2.587,2.587,0,0,0,.57,1.046,2.578,2.578,0,0,0-.661,1.726v.863H1.726Zm17.259,3.452v-.863a.863.863,0,0,1,1.726,0v.863Zm3.452,5.178H23.3a2.573,2.573,0,0,0,.954-.183,2.587,2.587,0,0,0,.57,1.046,2.578,2.578,0,0,0-.661,1.726v.863H22.437Zm29.34,3.452H50.051v-.863a2.578,2.578,0,0,0-.661-1.726,2.587,2.587,0,0,0,.57-1.046,2.575,2.575,0,0,0,.954.183h.864v3.452Z"/>
        <path id="Trazado_1005041" data-name="Trazado 1005041" d="M281.968,387.339l-1.136-2.273a1.93,1.93,0,0,0-3.656.863v1.318a.2.2,0,0,1-.386.091l-1.136-2.273a1.93,1.93,0,0,0-3.656.863v3.248h1.726V385.93a.2.2,0,0,1,.386-.091l1.136,2.273a1.93,1.93,0,0,0,3.656-.863V385.93a.2.2,0,0,1,.386-.091l1.136,2.273a1.919,1.919,0,0,0,1.726,1.067h1.93v-1.726h-1.93A.2.2,0,0,1,281.968,387.339Z" transform="translate(-242.658 -342.578)"/>
        <path id="Trazado_1005042" data-name="Trazado 1005042" d="M400,416h1.726v1.726H400Z" transform="translate(-356.852 -371.127)"/>
        <path id="Trazado_1005043" data-name="Trazado 1005043" d="M80,272h5.178v1.726H80Z" transform="translate(-71.37 -242.66)"/>
        <path id="Trazado_1005044" data-name="Trazado 1005044" d="M144,272h1.726v1.726H144Z" transform="translate(-128.467 -242.66)"/>
      </g>
    </g>
  </g>
</svg>
