<svg xmlns="http://www.w3.org/2000/svg" width="40" height="40" viewBox="0 0 40 40">
  <g id="Copyright" transform="translate(-2 -2)">
    <path id="Trazado_1005247" data-name="Trazado 1005247" d="M40,8.667H36V4a2,2,0,0,0-2-2H14a2,2,0,0,0-2,2v7.333H4a2,2,0,0,0-2,2V40a2,2,0,0,0,2,2H24a2,2,0,0,0,2-2v-.667H40a2,2,0,0,0,2-2V10.667A2,2,0,0,0,40,8.667ZM35.333,10h1.333v1.843L36.6,11.7a.695.695,0,0,0-1.193,0l-.067.141Zm-6-6.667h1.333V4.467L30.555,4.3a.693.693,0,0,0-1.109,0l-.112.168ZM13.333,4A.667.667,0,0,1,14,3.333H28V6.667a.667.667,0,0,0,1.221.37L30,5.867l.779,1.168A.667.667,0,0,0,32,6.667V3.333h2A.667.667,0,0,1,34.667,4V8.667H20a2,2,0,0,0-2,2v.667H13.333Zm6,8.667h1.333v1.843l-.07-.141a.695.695,0,0,0-1.193,0l-.07.141Zm4.667,28H4A.667.667,0,0,1,3.333,40V13.333A.667.667,0,0,1,4,12.667H18v4.667a.667.667,0,0,0,1.263.3L20,16.157l.737,1.474a.667.667,0,0,0,1.263-.3V12.667h2a.667.667,0,0,1,.667.667v6.533L23.6,19.394a.667.667,0,0,0-.541,0l-6,2.667a.667.667,0,0,0-.4.606v3.959A8.671,8.671,0,0,0,21.125,34.2l1.885,1.047a.667.667,0,0,0,.647,0l1.01-.559V40A.667.667,0,0,1,24,40.667Zm.9-7.63-1.562.867-1.561-.867A7.338,7.338,0,0,1,18,26.626V23.1l5.333-2.371L28.667,23.1v3.526A7.338,7.338,0,0,1,24.9,33.037Zm15.771,4.3A.667.667,0,0,1,40,38H26V33.927a8.67,8.67,0,0,0,4-7.3V22.667a.667.667,0,0,0-.4-.609l-3.6-1.6V13.333a2,2,0,0,0-2-2H19.333v-.667A.667.667,0,0,1,20,10H34v4.667a.667.667,0,0,0,1.267.3L36,13.491l.733,1.474a.667.667,0,0,0,1.267-.3V10h2a.667.667,0,0,1,.667.667Z" transform="translate(0)" fill="#3e5d56"/>
    <path id="Trazado_1005248" data-name="Trazado 1005248" d="M40,24H50.667v1.333H40Z" transform="translate(-12.667 -7.333)" fill="#3e5d56"/>
    <path id="Trazado_1005249" data-name="Trazado 1005249" d="M42,28h9.333v1.333H42Z" transform="translate(-13.333 -8.667)" fill="#3e5d56"/>
    <path id="Trazado_1005250" data-name="Trazado 1005250" d="M52,32h2.667v1.333H52Z" transform="translate(-16.667 -10)" fill="#3e5d56"/>
    <path id="Trazado_1005251" data-name="Trazado 1005251" d="M46,32h2.667v1.333H46Z" transform="translate(-14.667 -10)" fill="#3e5d56"/>
    <path id="Trazado_1005252" data-name="Trazado 1005252" d="M46,36h6.667v1.333H46Z" transform="translate(-14.667 -11.333)" fill="#3e5d56"/>
    <path id="Trazado_1005253" data-name="Trazado 1005253" d="M46,40h2.667v1.333H46Z" transform="translate(-14.667 -12.667)" fill="#3e5d56"/>
    <path id="Trazado_1005254" data-name="Trazado 1005254" d="M52,40h2.667v1.333H52Z" transform="translate(-16.667 -12.667)" fill="#3e5d56"/>
    <path id="Trazado_1005255" data-name="Trazado 1005255" d="M46,44h6.667v1.333H46Z" transform="translate(-14.667 -14)" fill="#3e5d56"/>
    <path id="Trazado_1005256" data-name="Trazado 1005256" d="M44,48h2.667v1.333H44Z" transform="translate(-14 -15.333)" fill="#3e5d56"/>
    <path id="Trazado_1005257" data-name="Trazado 1005257" d="M50,48h1.333v1.333H50Z" transform="translate(-16 -15.333)" fill="#3e5d56"/>
    <path id="Trazado_1005258" data-name="Trazado 1005258" d="M54,48h1.333v1.333H54Z" transform="translate(-17.333 -15.333)" fill="#3e5d56"/>
    <path id="Trazado_1005259" data-name="Trazado 1005259" d="M8,30h4v1.333H8Z" transform="translate(-2 -9.333)" fill="#3e5d56"/>
    <path id="Trazado_1005260" data-name="Trazado 1005260" d="M16,30h4v1.333H16Z" transform="translate(-4.667 -9.333)" fill="#3e5d56"/>
    <path id="Trazado_1005261" data-name="Trazado 1005261" d="M8,46h4v1.333H8Z" transform="translate(-2 -14.667)" fill="#3e5d56"/>
    <path id="Trazado_1005262" data-name="Trazado 1005262" d="M16,46h5.333v1.333H16Z" transform="translate(-4.667 -14.667)" fill="#3e5d56"/>
    <path id="Trazado_1005263" data-name="Trazado 1005263" d="M8,50h5.333v1.333H8Z" transform="translate(-2 -16)" fill="#3e5d56"/>
    <path id="Trazado_1005264" data-name="Trazado 1005264" d="M18,50h6.667v1.333H18Z" transform="translate(-5.333 -16)" fill="#3e5d56"/>
    <path id="Trazado_1005265" data-name="Trazado 1005265" d="M8,34H9.333v1.333H8Z" transform="translate(-2 -10.667)" fill="#3e5d56"/>
    <path id="Trazado_1005266" data-name="Trazado 1005266" d="M12,34h6.667v1.333H12Z" transform="translate(-3.333 -10.667)" fill="#3e5d56"/>
    <path id="Trazado_1005267" data-name="Trazado 1005267" d="M8,38h9.333v1.333H8Z" transform="translate(-2 -12)" fill="#3e5d56"/>
    <path id="Trazado_1005268" data-name="Trazado 1005268" d="M8,42h9.333v1.333H8Z" transform="translate(-2 -13.333)" fill="#3e5d56"/>
    <path id="Trazado_1005269" data-name="Trazado 1005269" d="M23,7h5.333V8.333H23Z" transform="translate(-7 -1.667)" fill="#3e5d56"/>
    <path id="Trazado_1005270" data-name="Trazado 1005270" d="M33,7h2.667V8.333H33Z" transform="translate(-10.333 -1.667)" fill="#3e5d56"/>
    <path id="Trazado_1005271" data-name="Trazado 1005271" d="M8,22h2.667v1.333H8Z" transform="translate(-2 -6.667)" fill="#3e5d56"/>
    <path id="Trazado_1005272" data-name="Trazado 1005272" d="M14,22h5.333v1.333H14Z" transform="translate(-4 -6.667)" fill="#3e5d56"/>
    <path id="Trazado_1005273" data-name="Trazado 1005273" d="M8,26h9.333v1.333H8Z" transform="translate(-2 -8)" fill="#3e5d56"/>
    <path id="Trazado_1005274" data-name="Trazado 1005274" d="M32.333,36.333a2,2,0,0,1,1.5.677l1-.882a3.333,3.333,0,1,0,0,4.409l-1-.882a2,2,0,1,1-1.5-3.323Z" transform="translate(-9 -11)" fill="#3e5d56"/>
  </g>
</svg>
