<svg xmlns="http://www.w3.org/2000/svg" width="40" height="40" viewBox="0 0 40 40">
  <g id="Grupo_1180409" data-name="Grupo 1180409" transform="translate(-1 -1)">
    <path id="Trazado_1004223" data-name="Trazado 1004223" d="M39.258,39.323V35.452a.647.647,0,0,0-.645-.645H35.387V32.226H34.1v2.581H28.29V32.226A3.227,3.227,0,0,0,25.065,29H21.194a3.227,3.227,0,0,0-3.226,3.226v2.581H12.161V32.226h-1.29v2.581H7.645A.647.647,0,0,0,7,35.452v3.871a.647.647,0,0,0,.645.645H38.613A.647.647,0,0,0,39.258,39.323Zm-20-7.1a1.941,1.941,0,0,1,1.935-1.935h1.29v3.226h1.29V30.29h1.29A1.941,1.941,0,0,1,27,32.226v2.581H19.258Zm-4.516,6.452H8.29V36.1h6.452Zm15.484,0H16.032V36.1H30.226Zm7.742,0H31.516V36.1h6.452Z" transform="translate(-2.129 -9.935)" fill="#773b3d"/>
    <path id="Trazado_1004224" data-name="Trazado 1004224" d="M30.226,18a3.226,3.226,0,1,0,3.226,3.226A3.227,3.227,0,0,0,30.226,18Zm0,5.161a1.935,1.935,0,1,1,1.935-1.935A1.941,1.941,0,0,1,30.226,23.161Z" transform="translate(-9.226 -6.032)" fill="#773b3d"/>
    <path id="Trazado_1004225" data-name="Trazado 1004225" d="M42.134,14.942l4.516,5.806a.645.645,0,0,0,.51.252.727.727,0,0,0,.206-.032.654.654,0,0,0,.439-.613V15.194h2.581a.645.645,0,0,0,.523-.265.654.654,0,0,0,.1-.574L47.979,4.684a1.939,1.939,0,1,0-1.71-.039L42.05,14.29a.626.626,0,0,0,.084.652ZM47.159,2.29a.645.645,0,1,1-.645.645A.647.647,0,0,1,47.159,2.29Zm-.1,3.774L49.508,13.9H47.159a.647.647,0,0,0-.645.645v3.929l-3.129-4.019,3.671-8.387Z" transform="translate(-14.546 0)" fill="#773b3d"/>
    <path id="Trazado_1004226" data-name="Trazado 1004226" d="M8.12,14.929a.645.645,0,0,0,.523.265h2.581v5.161a.645.645,0,0,0,.439.613.6.6,0,0,0,.206.032.645.645,0,0,0,.51-.252l4.516-5.806a.644.644,0,0,0,.084-.652L12.759,4.645a1.932,1.932,0,1,0-1.71.039L8.023,14.355a.634.634,0,0,0,.1.574ZM11.868,2.29a.645.645,0,1,1-.645.645A.647.647,0,0,1,11.868,2.29Zm.1,3.774,3.671,8.387-3.129,4.019V14.542a.647.647,0,0,0-.645-.645H9.52l2.452-7.839Z" transform="translate(-2.481)" fill="#773b3d"/>
    <path id="Trazado_1004227" data-name="Trazado 1004227" d="M4,51.581A2.581,2.581,0,1,0,6.581,49,2.58,2.58,0,0,0,4,51.581Zm3.871,0a1.29,1.29,0,1,1-1.29-1.29A1.294,1.294,0,0,1,7.871,51.581Z" transform="translate(-1.065 -17.032)" fill="#773b3d"/>
    <path id="Trazado_1004228" data-name="Trazado 1004228" d="M28,51.581A2.581,2.581,0,1,0,30.581,49,2.58,2.58,0,0,0,28,51.581Zm3.871,0a1.29,1.29,0,1,1-1.29-1.29A1.294,1.294,0,0,1,31.871,51.581Z" transform="translate(-9.581 -17.032)" fill="#773b3d"/>
    <path id="Trazado_1004229" data-name="Trazado 1004229" d="M54.581,54.161A2.581,2.581,0,1,0,52,51.581,2.58,2.58,0,0,0,54.581,54.161Zm0-3.871a1.29,1.29,0,1,1-1.29,1.29A1.294,1.294,0,0,1,54.581,50.29Z" transform="translate(-18.097 -17.032)" fill="#773b3d"/>
    <path id="Trazado_1004230" data-name="Trazado 1004230" d="M37.774,58H35.194a3.222,3.222,0,0,0-2.581,1.31A3.2,3.2,0,0,0,30.032,58H27.452a3.222,3.222,0,0,0-2.581,1.31A3.2,3.2,0,0,0,22.29,58H19.71a3.222,3.222,0,0,0-2.581,1.31A3.2,3.2,0,0,0,14.548,58H11.968a3.222,3.222,0,0,0-2.581,1.31A3.2,3.2,0,0,0,6.806,58H4.226A3.227,3.227,0,0,0,1,61.226H2.29A1.941,1.941,0,0,1,4.226,59.29H6.806a1.941,1.941,0,0,1,1.935,1.935h1.29a1.941,1.941,0,0,1,1.935-1.935h2.581a1.941,1.941,0,0,1,1.935,1.935h1.29A1.941,1.941,0,0,1,19.71,59.29H22.29a1.941,1.941,0,0,1,1.935,1.935h1.29a1.941,1.941,0,0,1,1.935-1.935h2.581a1.941,1.941,0,0,1,1.935,1.935h1.29a1.941,1.941,0,0,1,1.935-1.935h2.581a1.941,1.941,0,0,1,1.935,1.935H41A3.227,3.227,0,0,0,37.774,58Z" transform="translate(0 -20.226)" fill="#773b3d"/>
    <path id="Trazado_1004231" data-name="Trazado 1004231" d="M40,51.581A2.581,2.581,0,1,0,42.581,49,2.58,2.58,0,0,0,40,51.581Zm3.871,0a1.29,1.29,0,1,1-1.29-1.29A1.294,1.294,0,0,1,43.871,51.581Z" transform="translate(-13.839 -17.032)" fill="#773b3d"/>
    <path id="Trazado_1004232" data-name="Trazado 1004232" d="M16,51.581A2.581,2.581,0,1,0,18.581,49,2.58,2.58,0,0,0,16,51.581Zm3.871,0a1.29,1.29,0,1,1-1.29-1.29A1.294,1.294,0,0,1,19.871,51.581Z" transform="translate(-5.323 -17.032)" fill="#773b3d"/>
  </g>
</svg>
