<svg xmlns="http://www.w3.org/2000/svg" width="28.389" height="40" viewBox="0 0 28.389 40">
  <g id="Grupo_1180407" data-name="Grupo 1180407" transform="translate(-10 -1.005)">
    <path id="Trazado_1004217" data-name="Trazado 1004217" d="M29.357,7.162l1.29.645a.645.645,0,0,0,.577,0l1.29-.645a.645.645,0,0,0,.357-.581V4.645A.645.645,0,0,0,32.226,4H29.645A.645.645,0,0,0,29,4.645V6.581A.645.645,0,0,0,29.357,7.162ZM30.29,5.29h1.29v.892l-.645.323-.645-.323Z" transform="translate(-6.741 -1.063)" fill="#773b3d"/>
    <path id="Trazado_1004218" data-name="Trazado 1004218" d="M45.162,43.645A.645.645,0,0,0,44.516,43H40.645a.645.645,0,0,0-.645.645v2.581a.645.645,0,0,0,.287.537l1.936,1.29a.645.645,0,0,0,.716,0l1.936-1.29a.645.645,0,0,0,.287-.537Zm-1.29,2.236-1.29.861-1.29-.86V44.29h2.581Z" transform="translate(-10.644 -14.899)" fill="#773b3d"/>
    <rect id="Rectángulo_455844" data-name="Rectángulo 455844" width="1.29" height="6.452" transform="translate(13.871 34.553)" fill="#773b3d"/>
    <rect id="Rectángulo_455845" data-name="Rectángulo 455845" width="1.29" height="6.452" transform="translate(33.228 34.553)" fill="#773b3d"/>
    <rect id="Rectángulo_455846" data-name="Rectángulo 455846" width="3.871" height="1.29" transform="translate(28.066 34.553)" fill="#773b3d"/>
    <rect id="Rectángulo_455847" data-name="Rectángulo 455847" width="3.871" height="1.29" transform="translate(16.452 34.553)" fill="#773b3d"/>
    <path id="Trazado_1004219" data-name="Trazado 1004219" d="M36.99,25.233a.645.645,0,0,0-.217-.918l-4.516-2.581a.645.645,0,0,0-.857.2l-.656.983-1.694-.314-.985-.657V20.492a7.149,7.149,0,0,0,2.443-2.715h.719A2.618,2.618,0,0,0,33.873,15.2a2.551,2.551,0,0,0-1.08-2.069,15.484,15.484,0,0,0,.4-2.687,5.084,5.084,0,0,0,.516-.62l1.484-1.484a2.107,2.107,0,0,0-.141-3.109,18.67,18.67,0,0,0-7.872-3.865L26.886,1.3a12.478,12.478,0,0,0-5.383,0l-.3.065a18.676,18.676,0,0,0-7.872,3.866A2.107,2.107,0,0,0,13.2,8.338L14.68,9.822a5.041,5.041,0,0,0,.5.608c-.007.114-.022.226-.022.339a5.162,5.162,0,0,0,.154,1.252l.273,1.09A2.574,2.574,0,0,0,17.1,17.777h.783a7.149,7.149,0,0,0,2.443,2.715v1.456l-.985.657-1.694.314-.656-.983a.645.645,0,0,0-.857-.2l-4.516,2.581a.645.645,0,0,0-.217.918l.516.77A8.372,8.372,0,0,0,10,31.327V41h1.29V31.327a7.084,7.084,0,0,1,1.375-4.194l.024.036a.645.645,0,0,0,.857.2l4.516-2.581a.651.651,0,0,0,.308-.412.641.641,0,0,0,0-.28l.181-.034,2.485,4.968a.645.645,0,0,0,.51.353.6.6,0,0,0,.067.006.645.645,0,0,0,.5-.242l.27-.339.439.658a18.6,18.6,0,0,0-1.213,6.623V41H22.9V36.091A17.307,17.307,0,0,1,24,30.033l.394,0a17.3,17.3,0,0,1,1.093,6.055V41h1.29V36.091a18.6,18.6,0,0,0-1.212-6.622L26,28.812l.27.337a.645.645,0,0,0,.5.242.6.6,0,0,0,.065,0,.645.645,0,0,0,.51-.353l2.485-4.968.181.034a.641.641,0,0,0,0,.28.651.651,0,0,0,.308.412l4.516,2.581a.645.645,0,0,0,.857-.2l.024-.036A7.084,7.084,0,0,1,37.1,31.327V41h1.29V31.327A8.372,8.372,0,0,0,36.478,26Zm-23.562.719-.572-.859,3.393-1.94.572.859ZM18.778,10.68a3.693,3.693,0,0,1-2.442-.919l.387-.1a30.955,30.955,0,0,1,14.942,0l.387.1a3.693,3.693,0,0,1-2.438.919,8.5,8.5,0,0,1-1.656-.164L26.88,10.3a13.664,13.664,0,0,0-5.364,0l-1.079.215a8.5,8.5,0,0,1-1.659.164Zm12.449,5.807H31.02a7.075,7.075,0,0,0,.272-1.936c0-.214-.012-.428-.022-.641a1.29,1.29,0,1,1-.043,2.576Zm0-3.871h-.088q-.065-.423-.16-.839a4.893,4.893,0,0,0,.819-.314c-.055.4-.136.8-.226,1.19a2.639,2.639,0,0,0-.345-.037ZM13.871,6.849a.816.816,0,0,1,.294-.628,17.37,17.37,0,0,1,7.323-3.6l.3-.065a11.111,11.111,0,0,1,4.822,0l.3.065a17.365,17.365,0,0,1,7.323,3.6.817.817,0,0,1,.055,1.205L33.03,8.675l-1.052-.263a32.25,32.25,0,0,0-15.566,0l-1.052.263L14.111,7.426a.813.813,0,0,1-.239-.577Zm2.7,4.864c-.024-.094-.037-.19-.054-.286a4.947,4.947,0,0,0,.9.35q-.095.419-.16.839H17.1a2.619,2.619,0,0,0-.3.03Zm.529,4.775a1.29,1.29,0,1,1,0-2.581h.023c-.011.215-.023.43-.023.645a7.075,7.075,0,0,0,.275,1.936Zm1.29-1.936a11.3,11.3,0,0,1,.306-2.586c.028,0,.056.005.084.005a9.772,9.772,0,0,0,1.909-.189l1.079-.216a12.462,12.462,0,0,1,4.858,0l1.079.216a9.772,9.772,0,0,0,1.912.189c.028,0,.055,0,.084-.005a11.3,11.3,0,0,1,.3,2.586,5.807,5.807,0,1,1-11.614,0Zm5.807,7.1a7.05,7.05,0,0,0,2.581-.493v.927a10.921,10.921,0,0,1-2.581,2.636,10.921,10.921,0,0,1-2.581-2.636v-.927A7.05,7.05,0,0,0,24.195,21.648Zm-4.33,2.157.939-.627a12.185,12.185,0,0,0,2.46,2.47l-1.521,1.907Zm4.63,4.94h-.6l-.661-.992.961-1.2.961,1.2Zm2.155-1.19-1.524-1.907a12.185,12.185,0,0,0,2.46-2.472l.939.626Zm8.311-1.6-3.393-1.94.572-.859,3.393,1.94Z" fill="#773b3d"/>
  </g>
</svg>
