<svg xmlns="http://www.w3.org/2000/svg" width="100" height="100" viewBox="0 0 100 100">
  <g id="Grupo_1179907" data-name="Grupo 1179907" transform="translate(-1010.273 -3855)">
    <circle id="Elipse_13671" data-name="Elipse 13671" cx="50" cy="50" r="50" transform="translate(1010.273 3855)" fill="#bbded6"/>
    <g id="Grupo_1179906" data-name="Grupo 1179906" transform="translate(1028.273 3873)">
      <g id="Grupo_1179905" data-name="Grupo 1179905" transform="translate(0.941 0.942)">
        <g id="Grupo_1179900" data-name="Grupo 1179900" transform="translate(0 19.915)">
          <g id="Grupo_1179898" data-name="Grupo 1179898" transform="translate(0 0)">
            <path id="Trazado_1002804" data-name="Trazado 1002804" d="M8.5,208.619h11.42V166.144H11.266A3.766,3.766,0,0,0,7.5,169.91v37.7A1,1,0,0,0,8.5,208.619Z" transform="translate(-7.5 -166.144)" fill="#f7f6f7"/>
          </g>
          <path id="Trazado_1002805" data-name="Trazado 1002805" d="M76.475,166.144h3.766v42.475H76.475Z" transform="translate(-67.816 -166.144)" fill="#edebed"/>
          <g id="Grupo_1179899" data-name="Grupo 1179899" transform="translate(5.649 5.649)">
            <path id="Trazado_1002806" data-name="Trazado 1002806" d="M59.276,211.144H53.5a1,1,0,0,0-1,1.009l.021,4.636a1,1,0,0,0,1,1h5.75Z" transform="translate(-52.5 -211.144)" fill="#bed8fb"/>
            <path id="Trazado_1002807" data-name="Trazado 1002807" d="M59.276,309.074H53.5a1,1,0,0,0-1,1.009l.021,4.636a1,1,0,0,0,1,1h5.75Z" transform="translate(-52.5 -296.78)" fill="#bed8fb"/>
            <path id="Trazado_1002808" data-name="Trazado 1002808" d="M76.475,211.144h3.766v6.645H76.475Z" transform="translate(-73.465 -211.144)" fill="#9dc6fb"/>
            <path id="Trazado_1002809" data-name="Trazado 1002809" d="M76.475,309.074h3.766v6.645H76.475Z" transform="translate(-73.465 -296.78)" fill="#9dc6fb"/>
            <path id="Trazado_1002810" data-name="Trazado 1002810" d="M59.276,406.57H53.5a1,1,0,0,0-1,1.009l.021,4.636a1,1,0,0,0,1,1h5.75Z" transform="translate(-52.5 -382.037)" fill="#bed8fb"/>
            <path id="Trazado_1002811" data-name="Trazado 1002811" d="M76.475,406.57h3.766v6.645H76.475Z" transform="translate(-73.465 -382.037)" fill="#9dc6fb"/>
          </g>
        </g>
        <path id="Trazado_1002812" data-name="Trazado 1002812" d="M143.6,147.281h-9.415L124.83,145.4l-9.355,1.883H106V99.766A3.766,3.766,0,0,1,109.766,96h30.069a3.766,3.766,0,0,1,3.766,3.766Z" transform="translate(-93.635 -84.89)" fill="#f7f6f7"/>
        <path id="Trazado_1002813" data-name="Trazado 1002813" d="M349.291,96h-3.766a3.766,3.766,0,0,1,3.766,3.766v47.515h3.766V99.766A3.766,3.766,0,0,0,349.291,96Z" transform="translate(-303.091 -84.89)" fill="#edebed"/>
        <g id="Grupo_1179901" data-name="Grupo 1179901" transform="translate(20.085)">
          <circle id="Elipse_13780" data-name="Elipse 13780" cx="11.11" cy="11.11" r="11.11" transform="translate(0 0)" fill="#dd636e"/>
          <path id="Trazado_1002814" data-name="Trazado 1002814" d="M242.883,7.5A11.138,11.138,0,0,0,241,7.66a11.11,11.11,0,0,1,0,21.9A11.11,11.11,0,1,0,242.883,7.5Z" transform="translate(-231.773 -7.5)" fill="#da4a54"/>
          <path id="Trazado_1002815" data-name="Trazado 1002815" d="M211.434,42.961H207.1a.377.377,0,0,1-.377-.377V38.253a.753.753,0,0,0-.753-.753h-2.26a.753.753,0,0,0-.753.753v4.331a.377.377,0,0,1-.377.377h-4.331a.753.753,0,0,0-.753.753v2.26a.753.753,0,0,0,.753.753h4.331a.377.377,0,0,1,.377.377v4.331a.753.753,0,0,0,.753.753h2.26a.753.753,0,0,0,.753-.753V47.1a.377.377,0,0,1,.377-.377h4.331a.753.753,0,0,0,.753-.753v-2.26A.753.753,0,0,0,211.434,42.961Z" transform="translate(-193.734 -33.734)" fill="#fff"/>
        </g>
        <path id="Trazado_1002816" data-name="Trazado 1002816" d="M181.475,357.426h18.711v18.463H181.475Z" transform="translate(-159.635 -313.498)" fill="#655e67"/>
        <path id="Trazado_1002817" data-name="Trazado 1002817" d="M300.525,357.426h3.766v18.463h-3.766Z" transform="translate(-263.74 -313.498)" fill="#544f56"/>
        <path id="Trazado_1002818" data-name="Trazado 1002818" d="M160.384,236.145H152.04a1,1,0,0,1-1-1.009l.021-4.636a1,1,0,0,1,1-1h8.323a1,1,0,0,1,1,1v4.636A1,1,0,0,1,160.384,236.145Z" transform="translate(-133.017 -201.631)" fill="#bed8fb"/>
        <path id="Trazado_1002819" data-name="Trazado 1002819" d="M199.266,229.5H195.5a1,1,0,0,1,1,1v4.636a1,1,0,0,1-1,1h3.766a1,1,0,0,0,1-1V230.5A1,1,0,0,0,199.266,229.5Z" transform="translate(-171.9 -201.631)" fill="#9dc6fb"/>
        <path id="Trazado_1002820" data-name="Trazado 1002820" d="M279.5,229.5h8.313a1,1,0,0,1,1,1.009l-.021,4.636a1,1,0,0,1-1,1H279.5a1,1,0,0,1-1-1V230.5A1,1,0,0,1,279.5,229.5Z" transform="translate(-244.48 -201.631)" fill="#bed8fb"/>
        <path id="Trazado_1002821" data-name="Trazado 1002821" d="M326.344,229.5h-3.766a1,1,0,0,1,1,1.009l-.021,4.636a1,1,0,0,1-1,1h3.766a1,1,0,0,0,1-1l.021-4.636A1,1,0,0,0,326.344,229.5Z" transform="translate(-283.007 -201.631)" fill="#9dc6fb"/>
        <g id="Grupo_1179904" data-name="Grupo 1179904" transform="translate(49.966 19.915)">
          <g id="Grupo_1179902" data-name="Grupo 1179902" transform="translate(0 0)">
            <path id="Trazado_1002822" data-name="Trazado 1002822" d="M416.945,208.619h-11.42V166.144h8.659a3.766,3.766,0,0,1,3.766,3.766v37.7A1,1,0,0,1,416.945,208.619Z" transform="translate(-405.525 -166.144)" fill="#f7f6f7"/>
          </g>
          <path id="Trazado_1002823" data-name="Trazado 1002823" d="M448.266,166.144H444.5a3.766,3.766,0,0,1,3.766,3.766v37.7a1,1,0,0,1-1,1h3.766a1,1,0,0,0,1-1v-37.7A3.766,3.766,0,0,0,448.266,166.144Z" transform="translate(-439.607 -166.144)" fill="#edebed"/>
          <g id="Grupo_1179903" data-name="Grupo 1179903" transform="translate(0 5.649)">
            <path id="Trazado_1002824" data-name="Trazado 1002824" d="M405.525,211.144H411.3a1,1,0,0,1,1,1.009l-.021,4.636a1,1,0,0,1-1,1h-5.75" transform="translate(-405.525 -211.144)" fill="#bed8fb"/>
            <path id="Trazado_1002825" data-name="Trazado 1002825" d="M405.525,309.074H411.3a1,1,0,0,1,1,1.009l-.021,4.636a1,1,0,0,1-1,1h-5.75Z" transform="translate(-405.525 -296.78)" fill="#bed8fb"/>
            <path id="Trazado_1002826" data-name="Trazado 1002826" d="M405.525,406.57H411.3a1,1,0,0,1,1,1.009l-.021,4.636a1,1,0,0,1-1,1h-5.75Z" transform="translate(-405.525 -382.037)" fill="#bed8fb"/>
          </g>
        </g>
        <path id="Trazado_1002827" data-name="Trazado 1002827" d="M188.2,327.426h-20.97a.753.753,0,0,0-.753.753v2.26a.753.753,0,0,0,.753.753H188.2a.753.753,0,0,0,.753-.753v-2.26A.753.753,0,0,0,188.2,327.426Z" transform="translate(-146.518 -287.264)" fill="#8b808e"/>
        <path id="Trazado_1002828" data-name="Trazado 1002828" d="M313.291,327.426h-3.766a.753.753,0,0,1,.753.753v2.26a.753.753,0,0,1-.753.753h3.766a.753.753,0,0,0,.753-.753v-2.26A.753.753,0,0,0,313.291,327.426Z" transform="translate(-271.611 -287.264)" fill="#766d78"/>
      </g>
      <path id="Trazado_1002829" data-name="Trazado 1002829" d="M59.566,19.915H55.3a.942.942,0,0,0,0,1.883h4.265a2.828,2.828,0,0,1,2.825,2.825v37.7a.063.063,0,0,1-.063.063H51.848V58.624h4.809A1.95,1.95,0,0,0,58.6,56.687l.021-4.636A1.959,1.959,0,0,0,56.679,50.1H51.848V46.385h4.809A1.95,1.95,0,0,0,58.6,44.448l.021-4.636a1.959,1.959,0,0,0-1.946-1.955H51.848V34.092h4.809A1.95,1.95,0,0,0,58.6,32.155l.021-4.636a1.96,1.96,0,0,0-1.946-1.955H51.848V15.817A4.713,4.713,0,0,0,47.14,11.11H44.151a12.051,12.051,0,0,0-24.029,0H17.073a4.713,4.713,0,0,0-4.708,4.708v4.1H4.707A4.713,4.713,0,0,0,0,24.623v37.7a1.948,1.948,0,0,0,1.946,1.946H62.328a1.948,1.948,0,0,0,1.946-1.946v-37.7a4.713,4.713,0,0,0-4.708-4.708Zm-7.718,7.532h4.831a.063.063,0,0,1,.063.063l-.021,4.636a.063.063,0,0,1-.063.063h-4.81Zm0,12.294h4.831a.06.06,0,0,1,.044.018.06.06,0,0,1,.018.045L56.72,44.44a.063.063,0,0,1-.063.063h-4.81Zm0,12.239h4.831a.06.06,0,0,1,.044.018.06.06,0,0,1,.018.045l-.021,4.636a.063.063,0,0,1-.063.063h-4.81ZM12.365,56.741H7.616a.062.062,0,0,1-.063-.062l-.021-4.636A.06.06,0,0,1,7.55,52a.06.06,0,0,1,.044-.018h4.77Zm0-12.24H7.616a.062.062,0,0,1-.063-.062L7.532,39.8a.06.06,0,0,1,.019-.045.059.059,0,0,1,.044-.019h4.77Zm0-12.294H7.616a.062.062,0,0,1-.063-.062L7.532,27.51a.06.06,0,0,1,.019-.045.059.059,0,0,1,.044-.019h4.77Zm0-6.645H7.595a1.958,1.958,0,0,0-1.946,1.955l.021,4.636a1.95,1.95,0,0,0,1.946,1.936h4.749v3.766H7.595a1.958,1.958,0,0,0-1.946,1.955l.021,4.636a1.95,1.95,0,0,0,1.946,1.936h4.749V50.1H7.595a1.957,1.957,0,0,0-1.946,1.955l.021,4.636a1.95,1.95,0,0,0,1.946,1.936h4.749V62.39H1.946a.063.063,0,0,1-.063-.063v-37.7A2.828,2.828,0,0,1,4.707,21.8h7.658ZM32.137,1.883A10.168,10.168,0,1,1,21.968,12.051,10.18,10.18,0,0,1,32.137,1.883ZM40.55,62.39H33.078V45.811H40.55ZM21.84,43.928V42.045H42.434v1.883ZM49.965,62.39H42.433V45.811a1.729,1.729,0,0,0,1.883-1.695v-2.26a1.7,1.7,0,0,0-1.695-1.695H21.652a1.7,1.7,0,0,0-1.695,1.695v2.26a1.719,1.719,0,0,0,1.883,1.695v6.667a.942.942,0,1,0,1.883,0V45.811H31.2V62.39H23.723V56.871a.942.942,0,1,0-1.883,0V62.39H14.248V15.817a2.828,2.828,0,0,1,2.825-2.825h3.049a12.051,12.051,0,0,0,24.029,0h2.989a2.828,2.828,0,0,1,2.825,2.825ZM29.312,14.876v3.766a1.7,1.7,0,0,0,1.695,1.695h2.26a1.7,1.7,0,0,0,1.695-1.695V14.876h3.766a1.7,1.7,0,0,0,1.695-1.695v-2.26a1.7,1.7,0,0,0-1.695-1.695H34.961V5.461a1.7,1.7,0,0,0-1.695-1.695h-2.26a1.7,1.7,0,0,0-1.695,1.695V9.227H25.546a1.7,1.7,0,0,0-1.695,1.695v2.26a1.7,1.7,0,0,0,1.695,1.695ZM25.734,11.11h4.143A1.32,1.32,0,0,0,31.2,9.792V5.649h1.883V9.792A1.32,1.32,0,0,0,34.4,11.11h4.143v1.883H34.4a1.32,1.32,0,0,0-1.318,1.318v4.143H31.2V14.311a1.32,1.32,0,0,0-1.318-1.318H25.734Zm2.636,44.9a.942.942,0,0,0,.942-.942V53.137a.942.942,0,0,0-1.883,0v1.927A.942.942,0,0,0,28.371,56.006Zm-.063-28.137H19.985a1.95,1.95,0,0,0-1.946,1.937l-.021,4.636A1.96,1.96,0,0,0,19.965,36.4h8.343a1.948,1.948,0,0,0,1.946-1.946V29.814a1.948,1.948,0,0,0-1.946-1.946Zm.063,6.582a.063.063,0,0,1-.063.063H19.964a.073.073,0,0,1-.063-.063l.021-4.636a.063.063,0,0,1,.063-.062h8.323a.063.063,0,0,1,.063.063ZM35.9,56.006a.942.942,0,0,0,.942-.942V53.137a.942.942,0,1,0-1.883,0v1.927A.942.942,0,0,0,35.9,56.006Zm8.376-28.137H35.965a1.948,1.948,0,0,0-1.946,1.946V34.45A1.948,1.948,0,0,0,35.965,36.4h8.292A1.95,1.95,0,0,0,46.2,34.459l.021-4.636A1.959,1.959,0,0,0,44.279,27.869Zm.042,6.582a.063.063,0,0,1-.063.063H35.965a.063.063,0,0,1-.063-.063V29.814a.063.063,0,0,1,.063-.063h8.313a.063.063,0,0,1,.063.063Z"/>
    </g>
  </g>
</svg>
