<svg xmlns="http://www.w3.org/2000/svg" width="84" height="84" viewBox="0 0 84 84">
  <g id="Grupo_1180024" data-name="Grupo 1180024" transform="translate(-186 -5160)">
    <rect id="Rectángulo_455199" data-name="Rectángulo 455199" width="84" height="84" rx="10" transform="translate(186 5160)" fill="#99bfb7"/>
    <g id="Grupo_1180023" data-name="Grupo 1180023" transform="translate(196.273 5170)">
      <path id="Trazado_1003061" data-name="Trazado 1003061" d="M58,7H6a4,4,0,0,0-4,4V45a4,4,0,0,0,4,4H58a4,4,0,0,0,4-4V11A4,4,0,0,0,58,7Z" fill="#999a9e"/>
      <path id="Trazado_1003062" data-name="Trazado 1003062" d="M58,7H8V40a4,4,0,0,0,4,4H62V11A4,4,0,0,0,58,7Z" fill="#b3b4b8"/>
      <path id="Trazado_1003063" data-name="Trazado 1003063" d="M6,11H58V45H6Z" fill="#6ac4e8"/>
      <path id="Trazado_1003064" data-name="Trazado 1003064" d="M8,11H58V44H8Z" fill="#b3ddeb"/>
      <path id="Trazado_1003065" data-name="Trazado 1003065" d="M6,11H40V31H6Z" fill="#f1f1f1"/>
      <path id="Trazado_1003066" data-name="Trazado 1003066" d="M18,49h4v4H18Z" fill="#5a5b5d"/>
      <path id="Trazado_1003067" data-name="Trazado 1003067" d="M42,49h4v4H42Z" fill="#5a5b5d"/>
      <path id="Trazado_1003068" data-name="Trazado 1003068" d="M16,28h-.071a1,1,0,0,1-.913-.819L13.638,19.6l-.709,1.774A1,1,0,0,1,12,22H6V20h5.323l1.748-4.372a1,1,0,0,1,1.913.193l1.3,7.16,2.765-8.3A.989.989,0,0,1,20.078,14a1,1,0,0,1,.908.832L21.847,20H26a1,1,0,0,1,.949.684l1.136,3.41,2.986-7.466a1,1,0,0,1,1.9.129L33.781,20H40v2H33a1,1,0,0,1-.97-.757l-.25-1-2.851,7.129a.977.977,0,0,1-.958.628,1,1,0,0,1-.92-.684L25.279,22H21a1,1,0,0,1-.986-.835l-.339-2.029-2.726,8.18A1,1,0,0,1,16,28Z" fill="#2d76a7"/>
      <path id="Trazado_1003069" data-name="Trazado 1003069" d="M39,11V30H6v2H21V45h2V32H39V45h2V11Z" fill="#999a9e"/>
      <g id="Grupo_1180022" data-name="Grupo 1180022">
        <circle id="Elipse_13791" data-name="Elipse 13791" cx="2" cy="2" r="2" transform="translate(12 35)" fill="#f1f1f1"/>
        <path id="Trazado_1003070" data-name="Trazado 1003070" d="M10,45V43a4,4,0,1,1,8,0v2" fill="#f1f1f1"/>
        <path id="Trazado_1003071" data-name="Trazado 1003071" d="M37,42H33a1,1,0,0,1-1-1V35a1,1,0,0,1,1-1h4a1,1,0,0,1,1,1v6A1,1,0,0,1,37,42Zm-3-2h2V36H34Z" fill="#f1f1f1"/>
        <path id="Trazado_1003072" data-name="Trazado 1003072" d="M29,42H25a1,1,0,0,1-1-1V35a1,1,0,0,1,1-1h4a1,1,0,0,1,1,1v6A1,1,0,0,1,29,42Zm-3-2h2V36H26Z" fill="#f1f1f1"/>
        <path id="Trazado_1003073" data-name="Trazado 1003073" d="M48,24H44a1,1,0,0,1-1-1V15a1,1,0,0,1,1-1h4a1,1,0,0,1,1,1v8A1,1,0,0,1,48,24Zm-3-2h2V16H45Z" fill="#f1f1f1"/>
      </g>
      <path id="Trazado_1003074" data-name="Trazado 1003074" d="M51,14h3v2H51Z" fill="#de422c"/>
      <path id="Trazado_1003075" data-name="Trazado 1003075" d="M51,18h4v2H51Z" fill="#3f986c"/>
      <path id="Trazado_1003076" data-name="Trazado 1003076" d="M43,26H53v2H43Z" fill="#77787c"/>
      <path id="Trazado_1003077" data-name="Trazado 1003077" d="M43,30H55v2H43Z" fill="#77787c"/>
      <circle id="Elipse_13792" data-name="Elipse 13792" cx="3" cy="3" r="3" transform="translate(46 35)" fill="#f9d647"/>
      <path id="Trazado_1003078" data-name="Trazado 1003078" d="M10,53H54a4,4,0,0,1,4,4H6a4,4,0,0,1,4-4Z" fill="#999a9e"/>
      <path id="Trazado_1003079" data-name="Trazado 1003079" d="M12,55H57.445A3.982,3.982,0,0,0,54,53H10A2,2,0,0,0,12,55Z" fill="#b3b4b8"/>
      <path id="Trazado_1003080" data-name="Trazado 1003080" d="M6,50H17v2H10a5.006,5.006,0,0,0-5,5,1,1,0,0,0,1,1H58a1,1,0,0,0,1-1,5.006,5.006,0,0,0-5-5H47V50H58a5.006,5.006,0,0,0,5-5V11a5.006,5.006,0,0,0-5-5H6a5.006,5.006,0,0,0-5,5V45a5.006,5.006,0,0,0,5,5Zm13,0h2v2H19Zm4,2V50H41v2Zm33.829,4H7.171A3.006,3.006,0,0,1,10,54H54A3.006,3.006,0,0,1,56.829,56ZM45,52H43V50h2ZM3,11A3,3,0,0,1,6,8H58a3,3,0,0,1,3,3V45a3,3,0,0,1-3,3H6a3,3,0,0,1-3-3Z"/>
      <path id="Trazado_1003081" data-name="Trazado 1003081" d="M6,46H58a1,1,0,0,0,1-1V11a1,1,0,0,0-1-1H6a1,1,0,0,0-1,1V45A1,1,0,0,0,6,46ZM7,32H21V44H19V43a4.983,4.983,0,0,0-2.52-4.315,3,3,0,1,0-4.96,0A4.983,4.983,0,0,0,9,43v1H7Zm32,0V44H23V32Zm0-2H7V22h5a1,1,0,0,0,.929-.628l.709-1.774,1.378,7.581a1,1,0,0,0,.913.819L16,28a1,1,0,0,0,.949-.684l2.726-8.18.339,2.029A1,1,0,0,0,21,22h4.279l1.772,5.316a1,1,0,0,0,.92.684.977.977,0,0,0,.958-.628l2.851-7.129.25,1A1,1,0,0,0,33,22h6ZM13,37a1,1,0,1,1,1,1A1,1,0,0,1,13,37Zm1,3a3,3,0,0,1,3,3v1H11V43a3,3,0,0,1,3-3Zm43,4H41V12H57ZM39,12v8H33.781l-.811-3.243a1,1,0,0,0-1.9-.129l-2.986,7.466-1.136-3.41A1,1,0,0,0,26,20H21.847l-.861-5.165A1,1,0,0,0,20.078,14a.989.989,0,0,0-1.027.681l-2.765,8.3-1.3-7.16a1,1,0,0,0-1.913-.193L11.323,20H7V12Z"/>
      <path id="Trazado_1003082" data-name="Trazado 1003082" d="M33,42h4a1,1,0,0,0,1-1V35a1,1,0,0,0-1-1H33a1,1,0,0,0-1,1v6A1,1,0,0,0,33,42Zm1-6h2v4H34Z"/>
      <path id="Trazado_1003083" data-name="Trazado 1003083" d="M25,42h4a1,1,0,0,0,1-1V35a1,1,0,0,0-1-1H25a1,1,0,0,0-1,1v6A1,1,0,0,0,25,42Zm1-6h2v4H26Z"/>
      <path id="Trazado_1003084" data-name="Trazado 1003084" d="M44,24h4a1,1,0,0,0,1-1V15a1,1,0,0,0-1-1H44a1,1,0,0,0-1,1v8A1,1,0,0,0,44,24Zm1-8h2v6H45Z"/>
      <path id="Trazado_1003085" data-name="Trazado 1003085" d="M51,14h3v2H51Z"/>
      <path id="Trazado_1003086" data-name="Trazado 1003086" d="M51,18h4v2H51Z"/>
      <path id="Trazado_1003087" data-name="Trazado 1003087" d="M43,26H53v2H43Z"/>
      <path id="Trazado_1003088" data-name="Trazado 1003088" d="M43,30H55v2H43Z"/>
      <path id="Trazado_1003089" data-name="Trazado 1003089" d="M49,34a4,4,0,1,0,4,4A4,4,0,0,0,49,34Zm0,6a2,2,0,1,1,2-2A2,2,0,0,1,49,40Z"/>
    </g>
  </g>
</svg>
