<svg xmlns="http://www.w3.org/2000/svg" width="84" height="84" viewBox="0 0 84 84">
  <g id="Grupo_1180387" data-name="Grupo 1180387" transform="translate(-185.5 -11051.001)">
    <rect id="Rectángulo_455228" data-name="Rectángulo 455228" width="84" height="84" rx="10" transform="translate(185.5 11051.001)" fill="#99bfb7"/>
    <g id="Layer_46" transform="translate(166.543 11057.938)">
      <g id="Grupo_1180386" data-name="Grupo 1180386" transform="translate(33.901 -0.001)">
        <g id="Grupo_1180310" data-name="Grupo 1180310" transform="translate(18.517 8.42)">
          <g id="Grupo_1180309" data-name="Grupo 1180309">
            <path id="Trazado_1004107" data-name="Trazado 1004107" d="M114.726,31.643a3.867,3.867,0,0,0-5.255.264l-.428.428a.4.4,0,0,1-.571,0l-.428-.428a3.867,3.867,0,0,0-5.255-.264,3.782,3.782,0,0,0-.184,5.52l5.249,5.249a1.278,1.278,0,0,0,1.807,0l5.249-5.249a3.782,3.782,0,0,0-.184-5.52Z" transform="translate(-101.498 -30.736)" fill="#f98fa6"/>
          </g>
        </g>
        <g id="Grupo_1180312" data-name="Grupo 1180312" transform="translate(4.856 46.967)">
          <g id="Grupo_1180311" data-name="Grupo 1180311">
            <path id="Trazado_1004108" data-name="Trazado 1004108" d="M92.932,183.305a4.018,4.018,0,0,0-3.031-3.673l-5.512-1.387a24.455,24.455,0,0,1-5.189-1.981,3.517,3.517,0,0,1-1.962-3.154v-1.657a10.1,10.1,0,0,1-9.38,0v1.657a3.52,3.52,0,0,1-1.965,3.156,23.929,23.929,0,0,1-5.186,1.979L55.2,179.633a4.017,4.017,0,0,0-3.031,3.673l-.535,9.224a1.323,1.323,0,0,0,1.321,1.4h39.2a1.323,1.323,0,0,0,1.321-1.4Z" transform="translate(-51.629 -171.454)" fill="#6cadef"/>
          </g>
        </g>
        <g id="Grupo_1180314" data-name="Grupo 1180314" transform="translate(15.596 25.188)">
          <g id="Grupo_1180313" data-name="Grupo 1180313">
            <path id="Trazado_1004109" data-name="Trazado 1004109" d="M109.743,92.527a1.865,1.865,0,0,0-2.507-.167A10.225,10.225,0,0,1,94.8,92.353a1.864,1.864,0,0,0-2.5.17l0,0a5.264,5.264,0,0,0-1.454,3.633V104.7a10.18,10.18,0,1,0,20.361,0V96.159A5.264,5.264,0,0,0,109.743,92.527Z" transform="translate(-90.836 -91.95)" fill="#f9d0b4"/>
          </g>
        </g>
        <g id="Grupo_1180316" data-name="Grupo 1180316" transform="translate(35.932 30.183)">
          <g id="Grupo_1180315" data-name="Grupo 1180315">
            <path id="Trazado_1004110" data-name="Trazado 1004110" d="M165.749,110.182a4.244,4.244,0,0,0-.653.052v7.707c0,.23-.01.457-.026.683a4.248,4.248,0,1,0,.679-8.442Z" transform="translate(-165.07 -110.182)" fill="#f9d0b4"/>
          </g>
        </g>
        <g id="Grupo_1180318" data-name="Grupo 1180318" transform="translate(10.693 30.183)">
          <g id="Grupo_1180317" data-name="Grupo 1180317">
            <path id="Trazado_1004111" data-name="Trazado 1004111" d="M77.839,117.941v-7.707a4.252,4.252,0,1,0,.025,8.39h0c-.015-.226-.025-.453-.025-.682Z" transform="translate(-72.935 -110.182)" fill="#f9d0b4"/>
          </g>
        </g>
        <g id="Grupo_1180320" data-name="Grupo 1180320" transform="translate(12.803 23.851)">
          <g id="Grupo_1180319" data-name="Grupo 1180319">
            <path id="Trazado_1004112" data-name="Trazado 1004112" d="M106.374,87.762a.87.87,0,0,0-.855-.695H81.667a.871.871,0,0,0-.86.717,11.358,11.358,0,0,0-.167,1.941v4.256a4.222,4.222,0,0,1,2.139-.582,4.28,4.28,0,0,1,.653.052v-.768a5.437,5.437,0,0,1,1.454-3.7l0,0a1.864,1.864,0,0,1,2.5-.17,10.225,10.225,0,0,0,12.43.014,1.922,1.922,0,0,1,2.549.193,5.263,5.263,0,0,1,1.422,3.6v.837a4.2,4.2,0,0,1,2.815.544V90.5A13.89,13.89,0,0,0,106.374,87.762Z" transform="translate(-80.64 -87.067)" fill="#5b5d60"/>
          </g>
        </g>
        <g id="Grupo_1180322" data-name="Grupo 1180322" transform="translate(18.568 46.967)">
          <g id="Grupo_1180321" data-name="Grupo 1180321">
            <path id="Trazado_1004113" data-name="Trazado 1004113" d="M115.544,176.265a3.517,3.517,0,0,1-1.962-3.154v-1.657a10.1,10.1,0,0,1-9.38,0v1.657a3.517,3.517,0,0,1-1.962,3.154c-.188.093-.373.183-.557.272a7.657,7.657,0,0,0,14.415.01C115.737,176.372,115.535,176.261,115.544,176.265Z" transform="translate(-101.683 -171.454)" fill="#f9d0b4"/>
          </g>
        </g>
        <g id="Grupo_1180324" data-name="Grupo 1180324" transform="translate(0 5.917)">
          <g id="Grupo_1180323" data-name="Grupo 1180323">
            <path id="Trazado_1004114" data-name="Trazado 1004114" d="M37.82,23.107h-.657v-.63a.865.865,0,0,0-.877-.877.877.877,0,0,0-.877.849v.657h-.63a.865.865,0,0,0-.877.877.849.849,0,0,0,.877.877h.63v.63a.865.865,0,0,0,.877.877.877.877,0,0,0,.877-.849V24.86h.63a.865.865,0,0,0,.877-.877.877.877,0,0,0-.849-.877Z" transform="translate(-33.901 -21.6)" fill="#70d6f9"/>
          </g>
        </g>
        <g id="Grupo_1180326" data-name="Grupo 1180326" transform="translate(7.452 0)">
          <g id="Grupo_1180325" data-name="Grupo 1180325">
            <path id="Trazado_1004115" data-name="Trazado 1004115" d="M62.037,0a.931.931,0,1,0,.931.931A.931.931,0,0,0,62.037,0Z" transform="translate(-61.106)" fill="#fc657e"/>
          </g>
        </g>
        <g id="Grupo_1180328" data-name="Grupo 1180328" transform="translate(49.09 54.787)">
          <g id="Grupo_1180327" data-name="Grupo 1180327">
            <path id="Trazado_1004116" data-name="Trazado 1004116" d="M214.037,200a.931.931,0,1,0,.931.931A.931.931,0,0,0,214.037,200Z" transform="translate(-213.106 -200)" fill="#f5c84c"/>
          </g>
        </g>
        <g id="Grupo_1180330" data-name="Grupo 1180330" transform="translate(4.825 41.919)">
          <g id="Grupo_1180329" data-name="Grupo 1180329">
            <path id="Trazado_1004117" data-name="Trazado 1004117" d="M55.012,154.717a2.135,2.135,0,0,1-1.7-1.671c0-.027-.082-.027-.082,0a2.135,2.135,0,0,1-1.7,1.671c-.027,0-.027.055,0,.082a2.135,2.135,0,0,1,1.7,1.671c0,.027.082.027.082,0a2.135,2.135,0,0,1,1.7-1.671C55.04,154.771,55.04,154.717,55.012,154.717Z" transform="translate(-51.513 -153.025)" fill="#87d147"/>
          </g>
        </g>
        <g id="Grupo_1180332" data-name="Grupo 1180332" transform="translate(49.044 45.569)">
          <g id="Grupo_1180331" data-name="Grupo 1180331">
            <path id="Trazado_1004118" data-name="Trazado 1004118" d="M217.965,168.774a3.04,3.04,0,0,1-2.438-2.383c0-.055-.11-.055-.11,0a3.04,3.04,0,0,1-2.438,2.383c-.055,0-.055.082,0,.11a3.04,3.04,0,0,1,2.438,2.383c0,.055.11.055.11,0a3.04,3.04,0,0,1,2.438-2.383C218.019,168.856,218.019,168.774,217.965,168.774Z" transform="translate(-212.938 -166.35)" fill="#fc657e"/>
          </g>
        </g>
        <g id="Grupo_1180335" data-name="Grupo 1180335" transform="translate(17.832 7.732)">
          <g id="Grupo_1180334" data-name="Grupo 1180334">
            <g id="Grupo_1180333" data-name="Grupo 1180333">
              <path id="Trazado_1004119" data-name="Trazado 1004119" d="M113.363,29.306a4.543,4.543,0,0,0-6.192.294l-.229.229-.229-.229a4.543,4.543,0,0,0-6.192-.294A4.43,4.43,0,0,0,99,32.522a4.482,4.482,0,0,0,1.306,3.3l5.249,5.249a1.963,1.963,0,0,0,2.776,0l5.249-5.249a4.483,4.483,0,0,0,1.306-3.3,4.431,4.431,0,0,0-1.522-3.215Zm-.753,5.55-5.249,5.249a.607.607,0,0,1-.839,0l-5.249-5.249a3.1,3.1,0,0,1,.151-4.521,3,3,0,0,1,1.994-.741,3.3,3.3,0,0,1,2.325.974l.427.428a1.089,1.089,0,0,0,1.54,0l.428-.428a3.171,3.171,0,0,1,4.319-.233,3.1,3.1,0,0,1,.151,4.521Z" transform="translate(-98.998 -28.226)"/>
            </g>
          </g>
        </g>
        <g id="Grupo_1180337" data-name="Grupo 1180337" transform="translate(35.638 12.601)">
          <g id="Grupo_1180336" data-name="Grupo 1180336">
            <path id="Trazado_1004120" data-name="Trazado 1004120" d="M172.9,46h-8.218a.685.685,0,0,0,0,1.37H172.9a.685.685,0,0,0,0-1.37Z" transform="translate(-164 -46)"/>
          </g>
        </g>
        <g id="Grupo_1180339" data-name="Grupo 1180339" transform="translate(6.328 12.601)">
          <g id="Grupo_1180338" data-name="Grupo 1180338">
            <path id="Trazado_1004121" data-name="Trazado 1004121" d="M65.9,46H57.685a.685.685,0,0,0,0,1.37H65.9a.685.685,0,1,0,0-1.37Z" transform="translate(-57 -46)"/>
          </g>
        </g>
        <g id="Grupo_1180341" data-name="Grupo 1180341" transform="translate(32.549 0)">
          <g id="Grupo_1180340" data-name="Grupo 1180340">
            <path id="Trazado_1004122" data-name="Trazado 1004122" d="M159.027.2a.684.684,0,0,0-.968,0l-5.135,5.135a.685.685,0,0,0,.969.968l5.135-5.135a.685.685,0,0,0,0-.968Z" transform="translate(-152.723 0.001)"/>
          </g>
        </g>
        <g id="Grupo_1180343" data-name="Grupo 1180343" transform="translate(25.092 0)">
          <g id="Grupo_1180342" data-name="Grupo 1180342">
            <path id="Trazado_1004123" data-name="Trazado 1004123" d="M126.185,0a.685.685,0,0,0-.685.685V2.731a.685.685,0,0,0,1.37,0V.685A.685.685,0,0,0,126.185,0Z" transform="translate(-125.5)"/>
          </g>
        </g>
        <g id="Grupo_1180345" data-name="Grupo 1180345" transform="translate(12.499 0)">
          <g id="Grupo_1180344" data-name="Grupo 1180344">
            <path id="Trazado_1004124" data-name="Trazado 1004124" d="M85.832,5.336,80.7.2a.685.685,0,0,0-.968.968L84.864,6.3a.685.685,0,1,0,.968-.968Z" transform="translate(-79.527 0.001)"/>
          </g>
        </g>
        <g id="Grupo_1180347" data-name="Grupo 1180347" transform="translate(34.836 5.42)">
          <g id="Grupo_1180346" data-name="Grupo 1180346">
            <path id="Trazado_1004125" data-name="Trazado 1004125" d="M169.979,20.208a.684.684,0,0,0-.895-.371l-7.592,3.145a.685.685,0,1,0,.524,1.265l7.592-3.145a.685.685,0,0,0,.37-.895Z" transform="translate(-161.069 -19.785)"/>
          </g>
        </g>
        <g id="Grupo_1180349" data-name="Grupo 1180349" transform="translate(7.756 16.637)">
          <g id="Grupo_1180348" data-name="Grupo 1180348">
            <path id="Trazado_1004126" data-name="Trazado 1004126" d="M71.124,61.155a.684.684,0,0,0-.895-.371L62.637,63.93a.685.685,0,1,0,.524,1.265l7.592-3.145A.685.685,0,0,0,71.124,61.155Z" transform="translate(-62.214 -60.732)"/>
          </g>
        </g>
        <g id="Grupo_1180351" data-name="Grupo 1180351" transform="translate(29.128 0)">
          <g id="Grupo_1180350" data-name="Grupo 1180350">
            <path id="Trazado_1004127" data-name="Trazado 1004127" d="M142.36.052a.685.685,0,0,0-.895.371l-1.18,2.849a.685.685,0,1,0,1.266.524l1.18-2.849a.685.685,0,0,0-.371-.895Z" transform="translate(-140.233 0.001)"/>
          </g>
        </g>
        <g id="Grupo_1180353" data-name="Grupo 1180353" transform="translate(19.876 0)">
          <g id="Grupo_1180352" data-name="Grupo 1180352">
            <path id="Trazado_1004128" data-name="Trazado 1004128" d="M108.956,3.271,107.776.423a.685.685,0,1,0-1.265.524l1.18,2.849a.685.685,0,1,0,1.265-.524Z" transform="translate(-106.458 0)"/>
          </g>
        </g>
        <g id="Grupo_1180355" data-name="Grupo 1180355" transform="translate(7.756 5.42)">
          <g id="Grupo_1180354" data-name="Grupo 1180354">
            <path id="Trazado_1004129" data-name="Trazado 1004129" d="M70.753,22.983l-7.592-3.145a.685.685,0,1,0-.524,1.265l7.592,3.145a.685.685,0,1,0,.524-1.265Z" transform="translate(-62.214 -19.786)"/>
          </g>
        </g>
        <g id="Grupo_1180357" data-name="Grupo 1180357" transform="translate(34.836 16.637)">
          <g id="Grupo_1180356" data-name="Grupo 1180356">
            <path id="Trazado_1004130" data-name="Trazado 1004130" d="M169.608,63.93l-7.592-3.145a.685.685,0,0,0-.524,1.265l7.592,3.145a.685.685,0,1,0,.524-1.265Z" transform="translate(-161.069 -60.733)"/>
          </g>
        </g>
        <g id="Grupo_1180360" data-name="Grupo 1180360" transform="translate(4.171 46.282)">
          <g id="Grupo_1180359" data-name="Grupo 1180359">
            <g id="Grupo_1180358" data-name="Grupo 1180358">
              <path id="Trazado_1004131" data-name="Trazado 1004131" d="M92.336,190.674l-.535-9.223a4.682,4.682,0,0,0-3.547-4.3l-5.512-1.387a23.864,23.864,0,0,1-5.016-1.911l-.037-.02a2.815,2.815,0,0,1-1.58-2.54v-1.657a.685.685,0,0,0-1-.607,9.414,9.414,0,0,1-8.745,0,.685.685,0,0,0-1,.607V171.3a2.817,2.817,0,0,1-1.583,2.542,23.358,23.358,0,0,1-5.05,1.929l-5.512,1.387a4.68,4.68,0,0,0-3.547,4.3l-.535,9.224a2.008,2.008,0,0,0,2,2.124h39.2a2.008,2.008,0,0,0,2-2.124Zm-1.54.554a.632.632,0,0,1-.464.2h-39.2a.638.638,0,0,1-.637-.675l.535-9.226a3.317,3.317,0,0,1,2.514-3.046l5.512-1.387a24.542,24.542,0,0,0,5.321-2.029,4.179,4.179,0,0,0,2.347-3.77v-.59a10.916,10.916,0,0,0,8.011,0v.59a4.175,4.175,0,0,0,2.344,3.768v0a13.253,13.253,0,0,0,1.536.734,25.488,25.488,0,0,0,3.787,1.3l5.512,1.387a3.319,3.319,0,0,1,2.514,3.048l.535,9.224A.633.633,0,0,1,90.8,191.229Z" transform="translate(-49.129 -168.953)"/>
            </g>
          </g>
        </g>
        <g id="Grupo_1180363" data-name="Grupo 1180363" transform="translate(14.912 24.503)">
          <g id="Grupo_1180362" data-name="Grupo 1180362">
            <g id="Grupo_1180361" data-name="Grupo 1180361">
              <path id="Trazado_1004132" data-name="Trazado 1004132" d="M108.423,90.236A2.543,2.543,0,0,0,105,90,9.54,9.54,0,0,1,93.4,90a2.545,2.545,0,0,0-3.424.24,5.923,5.923,0,0,0-1.644,4.105v8.544a10.865,10.865,0,1,0,21.731,0V94.342a5.924,5.924,0,0,0-1.644-4.105Zm.274,12.649a9.5,9.5,0,1,1-18.992,0V94.341a4.563,4.563,0,0,1,1.269-3.164,1.161,1.161,0,0,1,.844-.361,1.2,1.2,0,0,1,.741.258,10.909,10.909,0,0,0,13.284.006,1.179,1.179,0,0,1,1.588.1,4.559,4.559,0,0,1,1.265,3.16v8.544Z" transform="translate(-88.336 -89.446)"/>
            </g>
          </g>
        </g>
        <g id="Grupo_1180365" data-name="Grupo 1180365" transform="translate(38.956 61.081)">
          <g id="Grupo_1180364" data-name="Grupo 1180364">
            <path id="Trazado_1004133" data-name="Trazado 1004133" d="M176.795,222.977a.685.685,0,0,0-.685.685v7.158a.685.685,0,0,0,1.37,0v-7.158A.685.685,0,0,0,176.795,222.977Z" transform="translate(-176.11 -222.977)"/>
          </g>
        </g>
        <g id="Grupo_1180367" data-name="Grupo 1180367" transform="translate(11.228 61.081)">
          <g id="Grupo_1180366" data-name="Grupo 1180366">
            <path id="Trazado_1004134" data-name="Trazado 1004134" d="M75.575,222.977a.685.685,0,0,0-.685.685v7.158a.685.685,0,0,0,1.37,0v-7.158A.685.685,0,0,0,75.575,222.977Z" transform="translate(-74.89 -222.977)"/>
          </g>
        </g>
        <g id="Grupo_1180370" data-name="Grupo 1180370" transform="translate(35.247 29.498)">
          <g id="Grupo_1180369" data-name="Grupo 1180369">
            <g id="Grupo_1180368" data-name="Grupo 1180368">
              <path id="Trazado_1004135" data-name="Trazado 1004135" d="M163.934,107.682a4.979,4.979,0,0,0-.758.06.685.685,0,0,0-.58.677v7.707c0,.188-.008.391-.024.637a.685.685,0,0,0,.574.722,4.933,4.933,0,1,0,.788-9.8Zm.032,8.5v-7.131a3.566,3.566,0,0,1,0,7.131Z" transform="translate(-162.57 -107.682)"/>
            </g>
          </g>
        </g>
        <g id="Grupo_1180373" data-name="Grupo 1180373" transform="translate(10.008 29.498)">
          <g id="Grupo_1180372" data-name="Grupo 1180372">
            <g id="Grupo_1180371" data-name="Grupo 1180371">
              <path id="Trazado_1004136" data-name="Trazado 1004136" d="M76.707,116.125v-7.707a.685.685,0,0,0-.58-.677,4.935,4.935,0,1,0-.758,9.811,4.9,4.9,0,0,0,.788-.068.685.685,0,0,0,.574-.722C76.715,116.516,76.707,116.313,76.707,116.125Zm-4.9-3.508a3.57,3.57,0,0,1,3.534-3.566v7.131A3.57,3.57,0,0,1,71.8,112.617Z" transform="translate(-70.434 -107.681)"/>
            </g>
          </g>
        </g>
        <g id="Grupo_1180375" data-name="Grupo 1180375" transform="translate(22.482 39.946)">
          <g id="Grupo_1180374" data-name="Grupo 1180374">
            <path id="Trazado_1004137" data-name="Trazado 1004137" d="M122.612,145.982a.685.685,0,0,0-.965.085,3.13,3.13,0,0,1-4.467,0,.685.685,0,1,0-1.05.88,4.49,4.49,0,0,0,6.566,0A.685.685,0,0,0,122.612,145.982Z" transform="translate(-115.971 -145.822)"/>
          </g>
        </g>
        <g id="Grupo_1180377" data-name="Grupo 1180377" transform="translate(28.939 33.339)">
          <g id="Grupo_1180376" data-name="Grupo 1180376">
            <circle id="Elipse_13795" data-name="Elipse 13795" cx="1.368" cy="1.368" r="1.368" transform="matrix(0.987, -0.16, 0.16, 0.987, 0, 0.438)"/>
          </g>
        </g>
        <g id="Grupo_1180379" data-name="Grupo 1180379" transform="translate(19.754 33.337)">
          <g id="Grupo_1180378" data-name="Grupo 1180378">
            <circle id="Elipse_13796" data-name="Elipse 13796" cx="1.368" cy="1.368" r="1.368" transform="matrix(0.987, -0.16, 0.16, 0.987, 0, 0.438)"/>
          </g>
        </g>
        <g id="Grupo_1180382" data-name="Grupo 1180382" transform="translate(12.119 23.166)">
          <g id="Grupo_1180381" data-name="Grupo 1180381">
            <g id="Grupo_1180380" data-name="Grupo 1180380">
              <path id="Trazado_1004138" data-name="Trazado 1004138" d="M105.23,85.811a1.56,1.56,0,0,0-1.526-1.244H79.852a1.552,1.552,0,0,0-1.535,1.285,12.1,12.1,0,0,0-.177,2.058v4.256a.685.685,0,0,0,1.031.591,3.519,3.519,0,0,1,2.342-.445.685.685,0,0,0,.79-.677v-.768a4.736,4.736,0,0,1,1.268-3.232,1.178,1.178,0,0,1,1.585-.1,10.909,10.909,0,0,0,13.274.014,1.231,1.231,0,0,1,1.627.122,4.563,4.563,0,0,1,1.237,3.13v.837a.685.685,0,0,0,.79.677,3.517,3.517,0,0,1,2.361.456.685.685,0,0,0,1.034-.589V88.685a14.717,14.717,0,0,0-.249-2.874ZM82.571,86.7a6.1,6.1,0,0,0-1.638,4.167V90.9a4.9,4.9,0,0,0-1.423.221V87.91a10.732,10.732,0,0,1,.157-1.824.187.187,0,0,1,.185-.149h4.159A2.549,2.549,0,0,0,82.571,86.7Zm15.015-.233A9.541,9.541,0,0,1,86,86.453a2.571,2.571,0,0,0-1.175-.517h14.1A2.562,2.562,0,0,0,97.586,86.468Zm6.523,4.66a4.906,4.906,0,0,0-1.446-.228v-.1a5.928,5.928,0,0,0-1.607-4.067,2.567,2.567,0,0,0-1.631-.8H103.7a.186.186,0,0,1,.184.146,13.366,13.366,0,0,1,.222,2.6v2.443Z" transform="translate(-78.14 -84.567)"/>
            </g>
          </g>
        </g>
        <g id="Grupo_1180385" data-name="Grupo 1180385" transform="translate(17.882 46.282)">
          <g id="Grupo_1180384" data-name="Grupo 1180384">
            <g id="Grupo_1180383" data-name="Grupo 1180383">
              <path id="Trazado_1004139" data-name="Trazado 1004139" d="M114.58,174.114c-.291-.141-.473-.238-.513-.26l-.037-.019a2.815,2.815,0,0,1-1.58-2.54v-1.657a.685.685,0,0,0-1-.607,9.414,9.414,0,0,1-8.745,0,.685.685,0,0,0-1,.607V171.3a2.814,2.814,0,0,1-1.58,2.54c-.186.092-.369.181-.551.269a.685.685,0,0,0-.347.85,8.342,8.342,0,0,0,15.7.01A.684.684,0,0,0,114.58,174.114Zm-7.5,5a7.007,7.007,0,0,1-6.332-4.058,4.175,4.175,0,0,0,2.327-3.76v-.589a10.918,10.918,0,0,0,8.011,0v.59a4.175,4.175,0,0,0,2.327,3.76A7.008,7.008,0,0,1,107.075,179.113Z" transform="translate(-99.181 -168.953)"/>
            </g>
          </g>
        </g>
      </g>
    </g>
  </g>
</svg>
