<svg xmlns="http://www.w3.org/2000/svg" width="84" height="84" viewBox="0 0 84 84">
  <g id="Grupo_1180391" data-name="Grupo 1180391" transform="translate(-206 -11580)">
    <rect id="Rectángulo_455232" data-name="Rectángulo 455232" width="84" height="84" rx="10" transform="translate(206 11580)" fill="#99bfb7"/>
    <g id="Grupo_1180390" data-name="Grupo 1180390" transform="translate(196.658 11591.086)">
      <g id="Grupo_1180388" data-name="Grupo 1180388" transform="translate(23.635 0.92)">
        <path id="Trazado_1004140" data-name="Trazado 1004140" d="M67.151,109.72H33.283a3.068,3.068,0,0,1-3.068-3.068V57.568A3.068,3.068,0,0,1,33.283,54.5H67.151a3.068,3.068,0,0,1,3.068,3.068v49.084A3.068,3.068,0,0,1,67.151,109.72Z" transform="translate(-30.215 -48.733)" fill="#e29a6c"/>
        <path id="Trazado_1004141" data-name="Trazado 1004141" d="M307.959,57.568v49.084a3.067,3.067,0,0,1-3.068,3.068H301.21a3.067,3.067,0,0,0,3.068-3.068V57.568A3.067,3.067,0,0,0,301.21,54.5h3.681A3.067,3.067,0,0,1,307.959,57.568Z" transform="translate(-267.956 -48.733)" fill="#ce845c"/>
        <path id="Trazado_1004142" data-name="Trazado 1004142" d="M92.242,132.357H60.829a.614.614,0,0,1-.614-.614V85.114a.614.614,0,0,1,.614-.614H92.242a.614.614,0,0,1,.614.614v46.63A.614.614,0,0,1,92.242,132.357Z" transform="translate(-56.534 -75.051)" fill="#fff"/>
        <path id="Trazado_1004143" data-name="Trazado 1004143" d="M169.351,20.63h-4.908a1.227,1.227,0,0,1-1.227-1.227V8.727A1.227,1.227,0,0,1,164.442,7.5h4.908a1.227,1.227,0,0,1,1.227,1.227V19.4A1.227,1.227,0,0,1,169.351,20.63Z" transform="translate(-146.895 -7.5)" fill="#bcf1f8"/>
        <path id="Trazado_1004144" data-name="Trazado 1004144" d="M188.118,8.727V19.4a1.227,1.227,0,0,1-1.227,1.227H183.21a1.227,1.227,0,0,0,1.227-1.227V8.727A1.227,1.227,0,0,0,183.21,7.5h3.681A1.227,1.227,0,0,1,188.118,8.727Z" transform="translate(-164.436 -7.5)" fill="#8ef0f0"/>
        <path id="Trazado_1004145" data-name="Trazado 1004145" d="M123.737,28.181h-5.522V26.954a2.454,2.454,0,0,1,2.454-2.454h3.068Z" transform="translate(-107.416 -22.414)" fill="#7de8f9"/>
        <path id="Trazado_1004146" data-name="Trazado 1004146" d="M228.737,28.181h-5.522V24.5h3.068a2.454,2.454,0,0,1,2.454,2.454Z" transform="translate(-199.532 -22.414)" fill="#7de8f9"/>
        <path id="Trazado_1004147" data-name="Trazado 1004147" d="M228.732,26.954v1.227h-3.681V26.954a2.455,2.455,0,0,0-1.841-2.377V24.5h3.068A2.454,2.454,0,0,1,228.732,26.954Z" transform="translate(-199.527 -22.414)" fill="#00ddf9"/>
        <path id="Trazado_1004148" data-name="Trazado 1004148" d="M114.88,159.348H90.829a.614.614,0,0,1-.614-.614V145.114a.614.614,0,0,1,.614-.614H114.88a.614.614,0,0,1,.614.614v13.621A.614.614,0,0,1,114.88,159.348Z" transform="translate(-82.852 -127.689)" fill="#baf39a"/>
        <path id="Trazado_1004149" data-name="Trazado 1004149" d="M281.063,162.864l5.923-1.445a4.826,4.826,0,0,1,2.583.071,11.892,11.892,0,1,0-7.841-7.919,4.839,4.839,0,0,1,.059,2.544l-1.465,6.008A.614.614,0,0,0,281.063,162.864Z" transform="translate(-249.615 -122.184)" fill="#fcf1f2"/>
        <path id="Trazado_1004150" data-name="Trazado 1004150" d="M383.52,150.123a11.909,11.909,0,0,1-13.745,11.761,11.9,11.9,0,0,0,0-23.521,11.9,11.9,0,0,1,13.744,11.761Z" transform="translate(-328.107 -122.179)" fill="#f4e5e0"/>
        <path id="Trazado_1004151" data-name="Trazado 1004151" d="M345.05,196.533a3.618,3.618,0,0,0-6.121-2.614.522.522,0,0,1-.724,0,3.618,3.618,0,0,0-6.121,2.614v.113c0,3.581,5.771,7.525,6.484,7.525s6.484-3.944,6.484-7.525Z" transform="translate(-295.041 -170.162)" fill="#ff8d95"/>
        <path id="Trazado_1004152" data-name="Trazado 1004152" d="M378.243,196.53v.113c0,1.79-1.442,3.672-2.975,5.106a10.773,10.773,0,0,1-3.508,2.42,5.686,5.686,0,0,1-1.841-1.041,17.884,17.884,0,0,0,1.668-1.379c1.533-1.434,2.974-3.316,2.974-5.106v-.113a3.615,3.615,0,0,0-1.777-3.116,3.488,3.488,0,0,1,.469-.236,3.621,3.621,0,0,1,4.989,3.351Z" transform="translate(-328.235 -170.158)" fill="#ff738a"/>
      </g>
      <g id="Grupo_1180389" data-name="Grupo 1180389" transform="translate(22.715)">
        <path id="Trazado_1004153" data-name="Trazado 1004153" d="M67.145,16.041a12.833,12.833,0,0,0-2.586.262V9.755a3.993,3.993,0,0,0-3.988-3.988h-6.81V5.461a3.378,3.378,0,0,0-3.375-3.375H48.236A2.149,2.149,0,0,0,46.091,0H41.183a2.149,2.149,0,0,0-2.144,2.086H36.888a3.378,3.378,0,0,0-3.375,3.375v.307H26.7a3.993,3.993,0,0,0-3.988,3.988V58.84A3.993,3.993,0,0,0,26.7,62.828H49.6a.92.92,0,1,0,0-1.841H26.7a2.15,2.15,0,0,1-2.147-2.147V9.755A2.15,2.15,0,0,1,26.7,7.608H39.035V9.449H27.93A1.536,1.536,0,0,0,26.4,10.983v6.749a.92.92,0,0,0,1.841,0V11.289h10.8v1.534a2.15,2.15,0,0,0,2.147,2.147h4.908a2.15,2.15,0,0,0,2.147-2.147V11.289h10.8v7.648A12.929,12.929,0,0,0,57.2,20.783V18.345a1.536,1.536,0,0,0-1.534-1.534H31.612a1.536,1.536,0,0,0-1.534,1.534V31.966A1.536,1.536,0,0,0,31.612,33.5H55.022a4.008,4.008,0,0,1-.11,1.134L53.873,38.9H42.165a.92.92,0,1,0,0,1.841H53.43A1.53,1.53,0,0,0,55.3,42.495l3.736-.911V57.306h-30.8V22.027a.92.92,0,1,0-1.841,0V57.613a1.536,1.536,0,0,0,1.534,1.534H59.344a1.536,1.536,0,0,0,1.534-1.534V41.135l.347-.085a3.973,3.973,0,0,1,1.494-.077V58.84a2.15,2.15,0,0,1-2.147,2.147H53.9a.92.92,0,0,0,0,1.841h6.673a3.993,3.993,0,0,0,3.988-3.988V41.424a12.823,12.823,0,1,0,2.585-25.383ZM51.92,5.461v.307H48.239V3.927h2.147A1.536,1.536,0,0,1,51.92,5.461Zm-16.566.307V5.461a1.536,1.536,0,0,1,1.534-1.534h2.147V5.767ZM46.4,12.823a.307.307,0,0,1-.307.307H41.183a.307.307,0,0,1-.307-.307V2.147a.307.307,0,0,1,.307-.307h4.908a.307.307,0,0,1,.307.307ZM59.344,9.449H48.239V7.608H60.571a2.15,2.15,0,0,1,2.147,2.147v7.073a12.769,12.769,0,0,0-1.841.852v-6.7A1.536,1.536,0,0,0,59.344,9.449Zm-27.426,9.2H55.356v5.123c0,.014,0,.027,0,.041a12.847,12.847,0,0,0-.73,7.843H31.918Zm35.226,21.2a10.978,10.978,0,0,1-3.281-.5,5.743,5.743,0,0,0-3.076-.086l-5.433,1.325L56.7,35.07a5.762,5.762,0,0,0-.072-3.028,10.984,10.984,0,1,1,10.516,7.805Z" transform="translate(-22.715)"/>
        <path id="Trazado_1004154" data-name="Trazado 1004154" d="M131.551,167.922h-1.667a.92.92,0,0,0-.81.483l-1.21,2.24-2.1-6.29a.926.926,0,0,0-1.713-.084l-1.632,3.651h-1.729a.92.92,0,0,0-.832.527l-.567,1.2-1.65-4.814a.925.925,0,0,0-1.768.094l-.681,2.992h-1.558a.92.92,0,1,0,0,1.841h2.293a.92.92,0,0,0,.9-.716l.126-.552,1.335,3.9a.926.926,0,0,0,1.7.095l1.286-2.722h1.743a.92.92,0,0,0,.84-.545l.911-2.037,2.021,6.063a.926.926,0,0,0,1.683.146l1.96-3.628h1.118a.92.92,0,0,0,0-1.841Z" transform="translate(-101.671 -143.644)"/>
        <path id="Trazado_1004155" data-name="Trazado 1004155" d="M174.635,423.841H182.1a.92.92,0,1,0,0-1.841h-7.466a.92.92,0,0,0,0,1.841Z" transform="translate(-155.186 -370.216)"/>
        <path id="Trazado_1004156" data-name="Trazado 1004156" d="M174.635,393.841h14.112a.92.92,0,1,0,0-1.841H174.635a.92.92,0,0,0,0,1.841Z" transform="translate(-155.186 -343.897)"/>
        <path id="Trazado_1004157" data-name="Trazado 1004157" d="M83.14,383.246l2.069,2.069a.92.92,0,0,0,1.295.007l5.518-5.4a.92.92,0,1,0-1.288-1.315l-4.867,4.766-1.425-1.425a.92.92,0,0,0-1.3,1.3Z" transform="translate(-75.489 -331.914)"/>
        <path id="Trazado_1004158" data-name="Trazado 1004158" d="M174.635,348.841H182.1a.92.92,0,1,0,0-1.841h-7.466a.92.92,0,0,0,0,1.841Z" transform="translate(-155.186 -304.419)"/>
        <path id="Trazado_1004159" data-name="Trazado 1004159" d="M85.211,310.316a.92.92,0,0,0,1.295.007l5.518-5.4a.92.92,0,1,0-1.288-1.315l-4.867,4.766-1.425-1.425a.92.92,0,1,0-1.3,1.3Z" transform="translate(-75.49 -266.118)"/>
        <path id="Trazado_1004160" data-name="Trazado 1004160" d="M334.851,185.414a4.514,4.514,0,0,0-2.864,1.018,4.539,4.539,0,0,0-7.4,3.521v.113c0,2.249,1.776,4.383,3.266,5.777,1.184,1.108,3.25,2.668,4.138,2.668s2.954-1.56,4.138-2.668c1.49-1.394,3.266-3.529,3.266-5.777v-.113A4.545,4.545,0,0,0,334.851,185.414Zm2.7,4.653c0,2.7-4.382,6.044-5.563,6.567-1.182-.523-5.563-3.867-5.563-6.567v-.113a2.7,2.7,0,0,1,4.564-1.95,1.44,1.44,0,0,0,2,0,2.7,2.7,0,0,1,4.565,1.95v.113Z" transform="translate(-287.541 -162.662)"/>
      </g>
    </g>
  </g>
</svg>
