<svg xmlns="http://www.w3.org/2000/svg" width="84" height="84" viewBox="0 0 84 84">
  <g id="Grupo_1179089" data-name="Grupo 1179089" transform="translate(-185.711 -2094)">
    <rect id="Rect치ngulo_455106" data-name="Rect치ngulo 455106" width="84" height="84" transform="translate(185.711 2094)" fill="#bbded6"/>
    <g id="Filled_outline" data-name="Filled outline" transform="translate(195.817 2104.018)">
      <g id="Color">
        <rect id="Rect치ngulo_455372" data-name="Rect치ngulo 455372" width="28" height="38" rx="14" transform="translate(8.5 23)" fill="#e4f4fd"/>
        <path id="Trazado_999966" data-name="Trazado 999966" d="M9,26.3c-3.434,0-6.218-2.435-6.218-5.44S5.566,15.418,9,15.418Z" fill="#f4a490"/>
        <path id="Trazado_999967" data-name="Trazado 999967" d="M36,26.3c3.434,0,6.218-2.435,6.218-5.44S39.434,15.418,36,15.418Z" fill="#f4a490"/>
        <path id="Trazado_999968" data-name="Trazado 999968" d="M22.5,37.6a19.067,19.067,0,0,0,13.252-5.084,13.988,13.988,0,0,0-26.5,0A19.067,19.067,0,0,0,22.5,37.6Z" fill="#c9dfeb"/>
        <path id="Trazado_999969" data-name="Trazado 999969" d="M22.5,2.963A15.524,15.524,0,0,0,7,18.51v4.508c0,6.946,6.94,12.576,15.5,12.576S38,29.964,38,23.018V18.51A15.524,15.524,0,0,0,22.5,2.963Z" fill="#ffd5c5"/>
        <path id="Trazado_999970" data-name="Trazado 999970" d="M59.724,36.944c-5.487,1.249-10.3-2.47-11.971-3.967a.934.934,0,0,0-1.249,0c-1.678,1.5-6.522,5.222-11.976,3.97a.942.942,0,0,0-1.168.839c-.541,7.924.7,17.762,13.4,23.141a.965.965,0,0,0,.746,0C60.2,55.548,61.439,45.714,60.9,37.791a.917.917,0,0,0-1.176-.847Z" fill="#008b81"/>
        <path id="Trazado_999971" data-name="Trazado 999971" d="M44.424,52.065l-3.351-3.351a2.019,2.019,0,0,1,2.855-2.855l1.961,1.961,5.452-5.166a2.019,2.019,0,1,1,2.778,2.931L47.24,52.1a2.018,2.018,0,0,1-2.816-.035Z" fill="#fff"/>
      </g>
      <g id="Outline">
        <path id="Trazado_999972" data-name="Trazado 999972" d="M19.538,21.717a4.181,4.181,0,0,0,2.924,1.316,4.431,4.431,0,0,0,2.976-1.3,1,1,0,1,0-1.347-1.476,2.032,2.032,0,0,1-3.158.021,1,1,0,1,0-1.4,1.434Z" fill="#1e120b"/>
        <path id="Trazado_999973" data-name="Trazado 999973" d="M29.462,20.033a4.431,4.431,0,0,0,2.976-1.3,1,1,0,1,0-1.347-1.476,2.031,2.031,0,0,1-3.158.021,1,1,0,1,0-1.4,1.434,4.181,4.181,0,0,0,2.924,1.321Z" fill="#1e120b"/>
        <path id="Trazado_999974" data-name="Trazado 999974" d="M15.462,20.033a4.431,4.431,0,0,0,2.976-1.3,1,1,0,1,0-1.347-1.476,2.031,2.031,0,0,1-3.158.021,1,1,0,1,0-1.395,1.434A4.181,4.181,0,0,0,15.462,20.033Z" fill="#1e120b"/>
        <circle id="Elipse_13716" data-name="Elipse 13716" cx="1" cy="1" r="1" transform="translate(18 9)" fill="#1e120b"/>
        <path id="Trazado_999975" data-name="Trazado 999975" d="M61,9H56.532L61.6,3.69A1.007,1.007,0,0,0,60.877,2H54a1,1,0,0,0,0,2h4.54L53.472,9.31A1,1,0,0,0,54.2,11H61a1,1,0,0,0,0-2Z" fill="#1e120b"/>
        <path id="Trazado_999976" data-name="Trazado 999976" d="M51,17H48.477l3.159-3.31A1.007,1.007,0,0,0,50.912,12H46a1,1,0,0,0,0,2h2.575l-3.159,3.31A1.007,1.007,0,0,0,46.14,19H51a1,1,0,0,0,0-2Z" fill="#1e120b"/>
        <path id="Trazado_999977" data-name="Trazado 999977" d="M61.9,37.722a1.924,1.924,0,0,0-2.4-1.752c-4.975,1.13-9.4-2.237-11.08-3.739a1.935,1.935,0,0,0-2.582,0c-1.371,1.222-4.576,3.679-8.387,3.944a14.763,14.763,0,0,0-1.368-5.465,12.656,12.656,0,0,0,2.21-3.771,6.512,6.512,0,0,0,4.925-6.079,6.517,6.517,0,0,0-4.633-5.987,16.476,16.476,0,0,0-32.17,0A6.517,6.517,0,0,0,1.782,20.86a6.512,6.512,0,0,0,4.925,6.079,12.656,12.656,0,0,0,2.21,3.771A14.8,14.8,0,0,0,7.5,37V47a14.987,14.987,0,0,0,28.369,6.76,23.2,23.2,0,0,0,10.5,8.085,1.962,1.962,0,0,0,1.528,0C61.525,56.07,62.414,45.312,61.9,37.722ZM38.934,17.2a4.327,4.327,0,0,1,2.284,3.659,4.306,4.306,0,0,1-2.331,3.694A11.12,11.12,0,0,0,39,23.019V18.511c0-.443-.032-.878-.066-1.311ZM3.782,20.858A4.327,4.327,0,0,1,6.066,17.2c-.034.434-.066.869-.066,1.312V23.02a11.12,11.12,0,0,0,.113,1.533,4.306,4.306,0,0,1-2.331-3.7ZM8,23.019V18.511A14.512,14.512,0,0,1,22.49,3.963a2.744,2.744,0,0,1,2.843,2.7,2.665,2.665,0,0,1-2.662,2.662,1,1,0,0,0,0,2,4.668,4.668,0,0,0,4.662-4.662,4.59,4.59,0,0,0-.484-2.027A14.566,14.566,0,0,1,37,18.511v4.508C37,29.4,30.5,34.6,22.5,34.6S8,29.4,8,23.019ZM33.132,36.306a1.916,1.916,0,0,0-.77,1.41c-.029.431-.053.874-.071,1.325a46.94,46.94,0,0,1-13.914,5.464A44.188,44.188,0,0,1,9.5,39.487V37a12.807,12.807,0,0,1,.919-4.763A18.221,18.221,0,0,0,22.5,36.6a18.221,18.221,0,0,0,12.08-4.36,12.755,12.755,0,0,1,.866,3.856,2.667,2.667,0,0,0-2.314.21Zm.073,11.743a43.533,43.533,0,0,1-11.595-2.29,49.345,49.345,0,0,0,10.655-4.393,26.184,26.184,0,0,0,.94,6.683ZM22.5,60a13.015,13.015,0,0,1-13-13V41.937a47.323,47.323,0,0,0,24.406,8.147q.316.787.712,1.565A12.994,12.994,0,0,1,22.5,60Zm24.646,0C34.827,54.781,33.846,45.42,34.3,37.915c5.852,1.342,10.947-2.488,12.781-4.2,1.9,1.706,6.959,5.517,12.821,4.208C60.411,45.485,59.393,54.8,47.146,60Z" fill="#1e120b"/>
        <path id="Trazado_999978" data-name="Trazado 999978" d="M54.922,42.044a3.035,3.035,0,0,0-4.269-.116l-4.745,4.5-1.273-1.273a3.09,3.09,0,0,0-4.269,0,3.021,3.021,0,0,0,0,4.268l3.35,3.352a3,3,0,0,0,4.212.057l6.879-6.518a3.033,3.033,0,0,0,.115-4.27Zm-1.491,2.815-6.878,6.518a1.015,1.015,0,0,1-1.422-.019L41.78,48.006a1.019,1.019,0,0,1,1.441-1.44l1.961,1.961a1,1,0,0,0,1.4.019l5.452-5.166a1.019,1.019,0,1,1,1.4,1.479Z" fill="#1e120b"/>
      </g>
    </g>
  </g>
</svg>
