<svg xmlns="http://www.w3.org/2000/svg" width="84" height="84" viewBox="0 0 84 84">
  <g id="Grupo_1179267" data-name="Grupo 1179267" transform="translate(-185.711 -7160)">
    <rect id="Rectángulo_455135" data-name="Rectángulo 455135" width="84" height="84" rx="10" transform="translate(185.711 7160)" fill="#bbded6"/>
    <g id="Grupo_1179266" data-name="Grupo 1179266" transform="translate(170.459 7166.964)">
      <g id="Grupo_1179264" data-name="Grupo 1179264" transform="translate(26.764 1.022)">
        <path id="Trazado_1000168" data-name="Trazado 1000168" d="M123.742,234.433c-1.773-6.333-7.3-8.134-13.359-8.648V260.1l14.33.881C124.587,252.042,126.191,243.128,123.742,234.433Z" transform="translate(-99.824 -195.905)" fill="#ffc757"/>
        <g id="Grupo_1179263" data-name="Grupo 1179263" transform="translate(3.461 0.177)">
          <path id="Trazado_1000169" data-name="Trazado 1000169" d="M101.613,25.052c-.383-1.212-.789-2.4-1.217-3.524-2.189-5.759-5-10.113-10.97-11.748A56.279,56.279,0,0,0,83.36,8.765a14.521,14.521,0,0,0-3.32.935l-.826.343a5.453,5.453,0,0,1-2.071.419c-.607,0-1.4.017-2.154.065a13.8,13.8,0,0,0-7.113,2.337,14.589,14.589,0,0,0-6.245,8.643l-.8,3.118A82.637,82.637,0,0,0,58.523,38.26c8.317.007,18,.07,20.456,8.856,1.668,5.92,1.456,11.942,1.191,18H95.426a8.589,8.589,0,0,1-.036-2.4c.915-7.265,10.118-6.866,10.118-6.866l-.763-1.83a72.086,72.086,0,0,0-3.132-28.975Z" transform="translate(-58.523 -8.765)" fill="#ffdd45"/>
        </g>
        <path id="Trazado_1000170" data-name="Trazado 1000170" d="M262.363,52.911a72.989,72.989,0,0,0-2.97-29.18c-.383-1.211-.788-2.4-1.218-3.524-2.188-5.758-6.122-10.584-12.087-12.219a14.525,14.525,0,0,0-3.838-.516,14.308,14.308,0,0,0-2.256.177,14.322,14.322,0,0,1,1.577.339c5.965,1.636,9.9,6.461,12.087,12.219.43,1.128.835,2.313,1.218,3.524a72.989,72.989,0,0,1,2.97,29.18l-.3,2.483a31.565,31.565,0,0,1,4.6-.654Z" transform="translate(-211.697 -7.471)" fill="#ffc757"/>
        <path id="Trazado_1000171" data-name="Trazado 1000171" d="M185.824,325.756c.353,4.1-4.072,8.168-8.311,8.168-4.17,0-9.039-3.813-8.282-7.971l.055-.012a4.107,4.107,0,0,0,3.231-4.012v-1.51l.52-2.365-.52-3.083H182l.192,7.206a4.1,4.1,0,0,0,2.72,3.864C185.024,326.081,185.72,325.712,185.824,325.756Z" transform="translate(-150.55 -272.885)" fill="#e08369"/>
        <path id="Trazado_1000172" data-name="Trazado 1000172" d="M82.918,408.922H34.194a.958.958,0,0,1-.958-.958v-5.513a5.473,5.473,0,0,1,4.309-5.349l14.372-3.134a8.393,8.393,0,0,0,16.592-.2l3.118,2.438L74.633,403Z" transform="translate(-33.236 -340.9)" fill="#eaf6f8"/>
        <path id="Trazado_1000173" data-name="Trazado 1000173" d="M207.042,325.756l.611,2.088-1.833,1.237-1.926-.452c-.1-.044-.212-.085-.322-.125a4.1,4.1,0,0,1-2.72-3.864V322.75a.9.9,0,0,0-1.04-.888,7.77,7.77,0,0,1-3.983-.478,22.517,22.517,0,0,1-2.094-.965v-5.449H204v6.8a4.1,4.1,0,0,0,2.72,3.864C206.83,325.671,206.938,325.712,207.042,325.756Z" transform="translate(-171.769 -272.885)" fill="#d37562"/>
        <path id="Trazado_1000174" data-name="Trazado 1000174" d="M288.652,398.648l-6.626-1.551a8.351,8.351,0,0,0,1.222-3.326l4.771,1.051Z" transform="translate(-247.975 -340.9)" fill="#c8e9eb"/>
        <path id="Trazado_1000175" data-name="Trazado 1000175" d="M58.984,124.652a82.685,82.685,0,0,0-.923,37.152l.059.288a33.183,33.183,0,0,1,.46,10.4l-.638,3.339a.682.682,0,0,0,1.1.657l1.8-1.466c4.35-2.955,6.971-8.465,7.564-12.561.874-6.035.777-9.88-.3-18.042l.225-2.551Z" transform="translate(-53.215 -108.614)" fill="#ffdd45"/>
        <path id="Trazado_1000176" data-name="Trazado 1000176" d="M102.891,193.583H99.7a4.62,4.62,0,0,1-4.62-4.62v-1.54a3.08,3.08,0,0,1,3.08-3.08h3.884Z" transform="translate(-86.613 -160.134)" fill="#e08369"/>
        <path id="Trazado_1000177" data-name="Trazado 1000177" d="M325.027,339.471a11.292,11.292,0,0,0-9.355,17.616,12.576,12.576,0,0,0,9.616,4.1c6.236,0,10.357-4.191,10.357-10.427a12.356,12.356,0,0,0-4.3-9.356A11.239,11.239,0,0,0,325.027,339.471Zm7.173,10.866a7.178,7.178,0,0,1-.59,3.31.412.412,0,0,1-.668.127l-8.926-8.926a.412.412,0,0,1,.127-.668,7.188,7.188,0,0,1,10.057,6.157Zm-14.346.852a7.179,7.179,0,0,1,.59-3.31.412.412,0,0,1,.668-.127l8.926,8.926a.412.412,0,0,1-.127.668,7.188,7.188,0,0,1-10.057-6.157Z" transform="translate(-275.345 -294.031)" fill="#ff99ca"/>
        <path id="Trazado_1000178" data-name="Trazado 1000178" d="M343.564,353.611a11.3,11.3,0,0,1,.255,12.251.056.056,0,0,1-.007.012.286.286,0,0,1-.041.064,11.333,11.333,0,0,1-3.56,3.56.307.307,0,0,1-.07.042l-.016.01a11.293,11.293,0,0,1-12.239-.259,11.292,11.292,0,1,0,15.678-15.681Z" transform="translate(-287.558 -306.236)" fill="#fe7ab6"/>
        <path id="Trazado_1000179" data-name="Trazado 1000179" d="M128.835,90.237V86.65a3.232,3.232,0,0,1,1.937-2.938c4.451-2,4.075-7.718,7.32-10.635a4.069,4.069,0,0,1,2.722-1.031H142.7a13.861,13.861,0,0,1,13.861,13.861v4.939a19.321,19.321,0,0,1-12.145,17.939,4.621,4.621,0,0,1-3.432,0,19.321,19.321,0,0,1-12.145-17.939v-.609Z" transform="translate(-115.751 -63.208)" fill="#e88f77"/>
        <path id="Trazado_1000180" data-name="Trazado 1000180" d="M201.286,232.468l-2.553,2.553a.274.274,0,0,1-.387,0l-7.781-7.781a.274.274,0,0,1,0-.387l2.553-2.553a.274.274,0,0,1,.387,0l7.781,7.781A.274.274,0,0,1,201.286,232.468Z" transform="translate(-168.963 -194.555)" fill="#c8e9eb"/>
        <path id="Trazado_1000181" data-name="Trazado 1000181" d="M193.118,235.021l-2.553-2.553a.274.274,0,0,1,0-.387l7.781-7.781a.274.274,0,0,1,.387,0l2.553,2.553a.274.274,0,0,1,0,.387l-7.781,7.781A.274.274,0,0,1,193.118,235.021Z" transform="translate(-168.962 -194.555)" fill="#eaf6f8"/>
      </g>
      <g id="Grupo_1179265" data-name="Grupo 1179265" transform="translate(25.738 0)">
        <path id="Trazado_1000182" data-name="Trazado 1000182" d="M50.323,47.111a1.028,1.028,0,0,0,1.022-1.132,81.38,81.38,0,0,1,2.141-28.664l.8-3.118a13.523,13.523,0,0,1,5.806-8.035,12.859,12.859,0,0,1,6.623-2.177c.6-.038,1.321-.06,2.093-.063a6.453,6.453,0,0,0,2.46-.5l.826-.343a13.56,13.56,0,0,1,8.748-.553A14.5,14.5,0,0,1,85.088,4.47,1.027,1.027,0,0,0,86.23,2.764,16.556,16.556,0,0,0,81.386.549a15.625,15.625,0,0,0-10.078.638l-.826.343A4.411,4.411,0,0,1,68.8,1.87c-.823,0-1.568.026-2.214.067a14.759,14.759,0,0,0-7.6,2.5A15.57,15.57,0,0,0,52.3,13.687l-.8,3.118A83.43,83.43,0,0,0,49.3,46.19a1.027,1.027,0,0,0,1.02.922Z" transform="translate(-45.697 0)"/>
        <path id="Trazado_1000183" data-name="Trazado 1000183" d="M182.456,225.812l2.94,2.94a1.026,1.026,0,0,0,1.452,0l1.888-1.888,1.888,1.888a1.026,1.026,0,0,0,1.452,0l2.94-2.94a1.026,1.026,0,0,0,0-1.452l-1.888-1.888,1.888-1.888a1.026,1.026,0,0,0,0-1.452l-2.94-2.94a1.026,1.026,0,0,0-1.452,0l-1.888,1.888-1.888-1.888a1.026,1.026,0,0,0-1.452,0l-2.94,2.94a1.026,1.026,0,0,0,0,1.452l1.888,1.888-1.888,1.888a1.026,1.026,0,0,0,0,1.452Zm10.382-.726-1.489,1.489-1.162-1.162,1.489-1.489Zm-1.489-6.716,1.489,1.489-6.716,6.716-1.489-1.489Zm-6.716,1.489,1.489-1.489,1.162,1.162-1.489,1.489Z" transform="translate(-160.747 -186.344)"/>
        <path id="Trazado_1000184" data-name="Trazado 1000184" d="M78.54,81.973a73.512,73.512,0,0,0-3.1-28.641c-.4-1.281-.821-2.486-1.237-3.58a24.665,24.665,0,0,0-4.189-7.267,1.026,1.026,0,0,0-1.563,1.331,22.625,22.625,0,0,1,3.833,6.666c.4,1.057.805,2.224,1.2,3.468a71.471,71.471,0,0,1,3.013,27.845h-.048A12.34,12.34,0,0,0,64.61,90.7a7.561,7.561,0,0,0-2.548-1.538,3.085,3.085,0,0,1-2.039-2.9v-4.65a20.347,20.347,0,0,0,8.575-16.6V60.08A14.9,14.9,0,0,0,53.71,45.193H51.828a5.084,5.084,0,0,0-3.408,1.294,13.344,13.344,0,0,0-3.106,5.158c-.207.5-.42,1.023-.643,1.513a1.027,1.027,0,0,0,1.869.85c.239-.525.46-1.062.673-1.583a11.66,11.66,0,0,1,2.58-4.411,3.034,3.034,0,0,1,2.036-.768H53.71A12.849,12.849,0,0,1,66.544,60.08v4.939A18.294,18.294,0,0,1,55.045,82a3.579,3.579,0,0,1-2.669,0,18.286,18.286,0,0,1-9.784-9.25l0,0a18.223,18.223,0,0,1-1.714-7.731v-4.2a2.217,2.217,0,0,1,1.331-2,7.39,7.39,0,0,0,1.093-.606,1.027,1.027,0,1,0-1.146-1.7,5.315,5.315,0,0,1-.788.437,4.28,4.28,0,0,0-2.533,3.613h-.523A4.111,4.111,0,0,0,34.2,64.669v1.54A5.66,5.66,0,0,0,40,71.856q.292.819.656,1.611c1.07,8.14,1.126,11.785.282,17.61-.542,3.741-2.994,9.037-7.1,11.841l-.933.552.239-2.1a34.153,34.153,0,0,0-.474-10.717c-.248-1.2-.475-2.417-.669-3.625a1.026,1.026,0,0,0-2.027.327c.262,1.742.67,3.469.953,5.207a6.541,6.541,0,0,0-5.194,6.369V105.4a1.026,1.026,0,0,0,2.053,0V98.932a4.475,4.475,0,0,1,3.393-4.32,32.106,32.106,0,0,1-.075,6.527l-.472,4.149a1.027,1.027,0,0,0,1.542,1l2.737-1.618.054-.034c4.413-3,7.082-8.337,7.885-12.564l1.956-.431A9.352,9.352,0,0,0,53.727,98.5a9.145,9.145,0,0,0,6.123-2.386,9.539,9.539,0,0,0,2.765-4.384,6.155,6.155,0,0,1,1.543,1.543c-.019.277-.029.555-.029.837a12.249,12.249,0,0,0,.922,4.684,1.027,1.027,0,0,0,1.9-.781,10.277,10.277,0,1,1,2.468,3.577,1.027,1.027,0,0,0-1.406,1.5A12.318,12.318,0,1,0,78.54,81.973ZM47.7,81.83v4.595a3.1,3.1,0,0,1-2.426,3.009l-2.106.464a49.979,49.979,0,0,0,.048-12.243A20.243,20.243,0,0,0,47.7,81.83ZM36.255,66.209v-1.54a2.056,2.056,0,0,1,2.054-2.054h.514v2.4a20.372,20.372,0,0,0,.563,4.753A3.6,3.6,0,0,1,36.255,66.209Zm17.472,30.24a7.282,7.282,0,0,1-6.941-5.371,5.169,5.169,0,0,0,2.972-4.653V83.056c.6.313,1.219.6,1.855.854a5.623,5.623,0,0,0,4.194,0,20.478,20.478,0,0,0,2.163-1.017v3.37a5.144,5.144,0,0,0,2.766,4.552,7.391,7.391,0,0,1-7.009,5.632Z" transform="translate(-25.738 -36.358)"/>
        <path id="Trazado_1000185" data-name="Trazado 1000185" d="M337.979,389.506a1.026,1.026,0,0,0-.755.527,8.214,8.214,0,0,0,11.132,11.132,1.026,1.026,0,0,0,.237-1.628l-9.74-9.74A1.026,1.026,0,0,0,337.979,389.506Zm6.469,10.593a6.16,6.16,0,0,1-5.949-7.753l7.544,7.544A6.182,6.182,0,0,1,344.448,400.1Z" transform="translate(-293.739 -336.187)"/>
        <path id="Trazado_1000186" data-name="Trazado 1000186" d="M374.526,374.628a1.027,1.027,0,0,0,.9-.537A8.214,8.214,0,0,0,364.3,362.959a1.026,1.026,0,0,0-.237,1.628l9.74,9.74A1.026,1.026,0,0,0,374.526,374.628Zm-6.322-10.6a6.16,6.16,0,0,1,5.949,7.753l-7.544-7.544A6.182,6.182,0,0,1,368.2,364.024Z" transform="translate(-317.496 -312.429)"/>
      </g>
    </g>
  </g>
</svg>
