<svg id="Grupo_1179294" data-name="Grupo 1179294" xmlns="http://www.w3.org/2000/svg" width="40" height="40" viewBox="0 0 40 40">
  <g id="Grupo_1179292" data-name="Grupo 1179292">
    <path id="Trazado_1000234" data-name="Trazado 1000234" d="M46.5,274.3h4.3V270H46.5Zm1.172-3.125h1.953v1.953H47.672Z" transform="translate(-42.867 -248.906)" fill="#3e5d56"/>
    <path id="Trazado_1000235" data-name="Trazado 1000235" d="M116.5,274.3h4.3V270h-4.3Zm1.172-3.125h1.953v1.953h-1.953Z" transform="translate(-107.398 -248.906)" fill="#3e5d56"/>
    <path id="Trazado_1000236" data-name="Trazado 1000236" d="M46.5,348.3h4.3V344H46.5Zm1.172-3.125h1.953v1.953H47.672Z" transform="translate(-42.867 -317.125)" fill="#3e5d56"/>
    <path id="Trazado_1000237" data-name="Trazado 1000237" d="M116.5,348.3h4.3V344h-4.3Zm1.172-3.125h1.953v1.953h-1.953Z" transform="translate(-107.398 -317.125)" fill="#3e5d56"/>
    <path id="Trazado_1000238" data-name="Trazado 1000238" d="M186.5,270v4.3h4.3V270Zm3.125,3.125h-1.953v-1.953h1.953Z" transform="translate(-171.93 -248.906)" fill="#3e5d56"/>
    <path id="Trazado_1000239" data-name="Trazado 1000239" d="M186.5,348.3h4.3V344h-4.3Zm1.172-3.125h1.953v1.953h-1.953Z" transform="translate(-171.93 -317.125)" fill="#3e5d56"/>
    <path id="Trazado_1000240" data-name="Trazado 1000240" d="M286,286.5v4.3h4.3v-4.3Zm3.125,3.125h-1.953v-1.953h1.953Z" transform="translate(-263.656 -264.117)" fill="#3e5d56"/>
    <path id="Trazado_1000241" data-name="Trazado 1000241" d="M417.3,360.8v-4.3H413v4.3Zm-3.125-3.125h1.953v1.953h-1.953Z" transform="translate(-380.734 -328.648)" fill="#3e5d56"/>
    <path id="Trazado_1000242" data-name="Trazado 1000242" d="M364.75,286.5H356v4.3h8.75Zm-1.172,3.125h-6.406v-1.953h6.406Z" transform="translate(-328.188 -264.117)" fill="#3e5d56"/>
    <path id="Trazado_1000243" data-name="Trazado 1000243" d="M294.75,356.5H286v4.3h8.75Zm-1.172,3.125h-6.406v-1.953h6.406Z" transform="translate(-263.656 -328.648)" fill="#3e5d56"/>
    <path id="Trazado_1000244" data-name="Trazado 1000244" d="M417.3,426.5H413v4.3h4.3Zm-1.172,3.125h-1.953v-1.953h1.953Z" transform="translate(-380.734 -393.18)" fill="#3e5d56"/>
    <path id="Trazado_1000245" data-name="Trazado 1000245" d="M286,430.8h8.75v-4.3H286Zm1.172-3.125h6.406v1.953h-6.406Z" transform="translate(-263.656 -393.18)" fill="#3e5d56"/>
    <path id="Trazado_1000246" data-name="Trazado 1000246" d="M38.867,38.828V19.939H34.8V17.728a8.007,8.007,0,1,0-9.062.054v2.157H21.211V3.2h1.172V0H4.8V1.172H21.211v.859H1.289V1.172H3.633V0H.117V3.2H1.289V38.828H0V40H33.633V38.828H21.211V21.11H37.7V38.828H34.8V40H40V38.828Zm-25.078,0H7.148v-5h6.641Zm1.172,0V32.656H5.977v6.172H2.461V3.2H20.039V38.828ZM23.4,11.156a6.836,6.836,0,1,1,6.836,6.836A6.844,6.844,0,0,1,23.4,11.156Zm3.516,7.286a8,8,0,0,0,6.719-.037v1.533H26.914Z" fill="#3e5d56"/>
    <path id="Trazado_1000247" data-name="Trazado 1000247" d="M330.046,88.269h-1.172a5.12,5.12,0,0,1-1.421,3.624,4.169,4.169,0,0,1-3.014,1.215h-.014a3.759,3.759,0,0,1-3.755-3.755,2.89,2.89,0,0,1,2.887-2.886,2.195,2.195,0,0,1,2.192,2.192,1.638,1.638,0,0,1-1.636,1.636,1.193,1.193,0,0,1-1.192-1.192h-1.172a2.366,2.366,0,0,0,2.364,2.364,2.811,2.811,0,0,0,2.808-2.808,3.368,3.368,0,0,0-3.364-3.364,4.063,4.063,0,0,0-4.058,4.058,4.932,4.932,0,0,0,4.925,4.926h.017a5.316,5.316,0,0,0,3.84-1.557A6.3,6.3,0,0,0,330.046,88.269Z" transform="translate(-294.538 -78.632)" fill="#3e5d56"/>
    <path id="Trazado_1000248" data-name="Trazado 1000248" d="M70.172,73.75h-3.75V70H60.25v3.75H56.5v6.172h3.75v3.75h6.172v-3.75h3.75ZM69,78.75H65.25V82.5H61.422V78.75h-3.75V74.922h3.75v-3.75H65.25v3.75H69Z" transform="translate(-52.086 -64.531)" fill="#3e5d56"/>
  </g>
  <g id="Grupo_1179293" data-name="Grupo 1179293" transform="translate(8.359 35.742)">
    <path id="Trazado_1000249" data-name="Trazado 1000249" d="M145.989,457.5h1.172v1.172h-1.172Z" transform="translate(-142.942 -457.5)" fill="#3e5d56"/>
    <path id="Trazado_1000250" data-name="Trazado 1000250" d="M106.989,457.5h1.172v1.172h-1.172Z" transform="translate(-106.989 -457.5)" fill="#3e5d56"/>
  </g>
</svg>
