<svg xmlns="http://www.w3.org/2000/svg" width="70" height="70" viewBox="0 0 70 70">
  <g id="Grupo_1179582" data-name="Grupo 1179582" transform="translate(-220 -359)">
    <rect id="Rectángulo_455012" data-name="Rectángulo 455012" width="70" height="70" rx="10" transform="translate(220 359)" fill="#99bfb7"/>
    <g id="Grupo_1179581" data-name="Grupo 1179581" transform="translate(228.251 367.251)">
      <g id="Grupo_1179579" data-name="Grupo 1179579" transform="translate(0.784 0.784)">
        <path id="Trazado_1001362" data-name="Trazado 1001362" d="M129.149,189.882a3.377,3.377,0,0,0-3.377,3.377v11.251a3.05,3.05,0,1,0,6.1,0,3.05,3.05,0,0,0,6.1,0,3.05,3.05,0,1,0,6.1,0,3.05,3.05,0,0,0,2.991,3.05,3.106,3.106,0,0,0,3.109-3.119V193.259a3.377,3.377,0,0,0-3.377-3.377H129.149Z" transform="translate(-113.414 -170.825)" fill="#ffdfcf"/>
        <path id="Trazado_1001363" data-name="Trazado 1001363" d="M303.513,193.258V204.44a3.106,3.106,0,0,1-3.11,3.119,3.043,3.043,0,0,1-1.522-.442,3.157,3.157,0,0,0,1.5-2.677V193.258A3.378,3.378,0,0,0,297,189.88h3.135A3.378,3.378,0,0,1,303.513,193.258Z" transform="translate(-266.751 -170.824)" fill="#ffcebf"/>
        <path id="Trazado_1001364" data-name="Trazado 1001364" d="M360.09,256.849h-.764V248.4h.764a4.223,4.223,0,0,1,0,8.445Z" transform="translate(-322.565 -223.233)" fill="#ffdfcf"/>
        <path id="Trazado_1001365" data-name="Trazado 1001365" d="M33.465,7.5A25.965,25.965,0,1,0,59.43,33.465,25.965,25.965,0,0,0,33.465,7.5Zm0,3.135a22.731,22.731,0,0,1,14.146,4.911.99.99,0,0,1,.081,1.476L17.021,47.692a.99.99,0,0,1-1.476-.081,22.83,22.83,0,0,1,17.92-36.977Zm0,45.661a22.731,22.731,0,0,1-14.146-4.911.99.99,0,0,1-.081-1.476L49.909,19.238a.99.99,0,0,1,1.476.081A22.83,22.83,0,0,1,33.465,56.3Z" transform="translate(-7.5 -7.5)" fill="#fe646f"/>
        <path id="Trazado_1001366" data-name="Trazado 1001366" d="M106.208,136.963a5.186,5.186,0,0,0,1.466,2.339.411.411,0,0,1-.391.678,5.187,5.187,0,0,0-2.759-.1,5.186,5.186,0,0,0-1.293,2.44.411.411,0,0,1-.783,0,5.187,5.187,0,0,0-1.293-2.44,5.187,5.187,0,0,0-2.759.1.411.411,0,0,1-.391-.678,5.186,5.186,0,0,0,1.466-2.339,5.186,5.186,0,0,0-1.466-2.339.411.411,0,0,1,.391-.678,5.187,5.187,0,0,0,2.759.1,5.186,5.186,0,0,0,1.293-2.44.411.411,0,0,1,.783,0,5.187,5.187,0,0,0,1.293,2.44,5.186,5.186,0,0,0,2.759-.1.411.411,0,0,1,.391.678A5.186,5.186,0,0,0,106.208,136.963Z" transform="translate(-88.452 -118.384)" fill="#fef48b"/>
        <path id="Trazado_1001367" data-name="Trazado 1001367" d="M164.309,161.711a.411.411,0,0,1-.392.678,5.194,5.194,0,0,0-2.758-.1l-.018.012a5.839,5.839,0,0,0,0-5.857l.019.011a5.183,5.183,0,0,0,2.758-.1.411.411,0,0,1,.392.678,5.189,5.189,0,0,0-1.467,2.339A5.192,5.192,0,0,0,164.309,161.711Z" transform="translate(-145.087 -140.793)" fill="#fef056"/>
      </g>
      <g id="Grupo_1179580" data-name="Grupo 1179580">
        <path id="Trazado_1001368" data-name="Trazado 1001368" d="M44.747,60.265a.783.783,0,0,0-1.108,0l-2.41,2.41a2.249,2.249,0,0,1-.438-1.341V51.5c.036.1.072.211.109.326a1.195,1.195,0,0,0,2.274,0c.554-1.716.936-2,.934-2s.436-.194,2.207.186a1.195,1.195,0,0,0,1.137-1.969c-.184-.2-.342-.388-.476-.553h9.438l-9.989,9.989a.784.784,0,1,0,1.108,1.108L68.4,37.724a1.774,1.774,0,0,0-.149-2.645A23.369,23.369,0,0,0,53.614,30h0a23.555,23.555,0,0,0-18.219,8.6.784.784,0,0,0,1.209,1,22.042,22.042,0,0,1,30.67-3.285.2.2,0,0,1,.075.145.209.209,0,0,1-.062.162l-9.306,9.306H46.313a7.929,7.929,0,0,1,1.14-1.507,1.195,1.195,0,0,0-1.137-1.969,4.687,4.687,0,0,1-2.2.19s-.386-.281-.943-2a1.195,1.195,0,0,0-2.274,0c-.555,1.717-.936,2-.934,2s-.436.194-2.207-.185a1.195,1.195,0,0,0-1.137,1.969c1.208,1.336,1.263,1.809,1.264,1.809s-.051.476-1.264,1.819a1.195,1.195,0,0,0,1.137,1.969,10.419,10.419,0,0,1,1.476-.226c-.007.1-.011.2-.011.3V61.334a3.854,3.854,0,0,0,.891,2.455l-3.5,3.5a.209.209,0,0,1-.162.062.2.2,0,0,1-.145-.075,22.05,22.05,0,0,1-1.82-24.63.784.784,0,1,0-1.359-.782A23.617,23.617,0,0,0,35.08,68.246a1.768,1.768,0,0,0,1.283.667c.035,0,.069,0,.1,0a1.781,1.781,0,0,0,1.258-.521l7.022-7.022a.784.784,0,0,0,0-1.108Zm-6.285-16.1a3.452,3.452,0,0,0,2.284-.174c.311-.18.761-.574,1.292-1.891.531,1.316.981,1.711,1.292,1.891a3.452,3.452,0,0,0,2.284.174c-1.507,2.049-1.163,2.422,0,4.129a3.452,3.452,0,0,0-2.284.174c-.311.18-.761.575-1.292,1.891-1.017-2.293-1.47-2.229-3.576-2.064a3.452,3.452,0,0,0,.991-2.064,3.452,3.452,0,0,0-.991-2.065Z" transform="translate(-26.865 -26.865)"/>
        <path id="Trazado_1001369" data-name="Trazado 1001369" d="M143.385,110.219a1.774,1.774,0,0,0-2.645-.149l-30.671,30.671a1.774,1.774,0,0,0,.149,2.645,23.369,23.369,0,0,0,14.632,5.08h0a23.614,23.614,0,0,0,18.535-38.246Zm-8.522,11.1V132.5a2.38,2.38,0,0,1-.712,1.687,2.223,2.223,0,0,1-1.6.648,2.278,2.278,0,0,1-2.223-2.266v-4.1a.784.784,0,0,0-1.567,0v4.1a2.267,2.267,0,0,1-4.533,0V128.8l9.571-9.571A2.6,2.6,0,0,1,134.863,121.32Zm-12.2,11.251a2.268,2.268,0,0,1-3.84,1.634l3.84-3.84Zm17.776,7.867a22.04,22.04,0,0,1-29.247,1.718.2.2,0,0,1-.075-.145.21.21,0,0,1,.062-.162l6.538-6.538a3.829,3.829,0,0,0,5.73-.42,3.83,3.83,0,0,0,6.1,0,3.836,3.836,0,0,0,2.973,1.518,3.776,3.776,0,0,0,2.726-1.1,3.968,3.968,0,0,0,1.1-2.022h.061a5.009,5.009,0,0,0,4.746-6.6.784.784,0,1,0-1.486.5,3.442,3.442,0,0,1-3.241,4.535v-6.878a3.437,3.437,0,0,1,1.065.174.784.784,0,1,0,.494-1.487,5,5,0,0,0-1.559-.254V121.32a4.172,4.172,0,0,0-1.516-3.208l6.934-6.934a.21.21,0,0,1,.162-.062.2.2,0,0,1,.145.075,22.04,22.04,0,0,1-1.718,29.247Z" transform="translate(-98.102 -98.102)"/>
        <path id="Trazado_1001370" data-name="Trazado 1001370" d="M45.663,7.835A26.749,26.749,0,1,0,7.835,45.663,26.749,26.749,0,1,0,45.663,7.835Zm-1.108,36.72A25.181,25.181,0,1,1,8.943,8.943,25.181,25.181,0,1,1,44.555,44.555Z"/>
        <path id="Trazado_1001371" data-name="Trazado 1001371" d="M180.143,96.718a.783.783,0,0,0,1.07.287l.3-.173v.4a.784.784,0,1,0,1.567,0v-.4l.347.2a.784.784,0,0,0,.784-1.357l-.347-.2.347-.2a.784.784,0,0,0-.784-1.357l-.347.2v-.346a.784.784,0,1,0-1.567,0v.346l-.3-.173a.784.784,0,0,0-.784,1.357l.3.173-.3.173A.784.784,0,0,0,180.143,96.718Z" transform="translate(-161.226 -83.272)"/>
        <path id="Trazado_1001372" data-name="Trazado 1001372" d="M294.279,378.866a.784.784,0,0,0-1.07-.287l-.347.2v-.346a.784.784,0,0,0-1.567,0v.346l-.3-.173a.784.784,0,0,0-.784,1.357l.3.173-.3.173a.784.784,0,1,0,.784,1.357l.3-.173v.4a.784.784,0,0,0,1.567,0v-.4l.347.2a.784.784,0,1,0,.784-1.357l-.347-.2.347-.2A.784.784,0,0,0,294.279,378.866Z" transform="translate(-259.537 -338.19)"/>
      </g>
    </g>
  </g>
</svg>
