<svg xmlns="http://www.w3.org/2000/svg" width="84" height="84" viewBox="0 0 84 84">
  <g id="Grupo_1178434" data-name="Grupo 1178434" transform="translate(-216.34 -353)">
    <rect id="Rectángulo_455021" data-name="Rectángulo 455021" width="84" height="84" rx="10" transform="translate(216.34 353)" fill="#bbded6"/>
    <g id="Grupo_1178433" data-name="Grupo 1178433" transform="translate(223.98 360.637)">
      <g id="Grupo_1178431" data-name="Grupo 1178431" transform="translate(1.005 1.008)">
        <path id="Trazado_998949" data-name="Trazado 998949" d="M169.557,101.151l.1-7.4c0-8.653-6.072-16.324-14.726-16.324a16.133,16.133,0,0,0-2.008-.143A15.814,15.814,0,0,0,139.507,90.2c.539,1.462.78,1.98-.24,2.608,0,.05,0,.1,0,.151v8.19h30.291Z" transform="translate(-121.58 -67.9)" fill="#99e6fc"/>
        <path id="Trazado_998950" data-name="Trazado 998950" d="M258.719,92.25v8.189H254.7V92.25a15.823,15.823,0,0,0-13.66-15.677,15.494,15.494,0,0,1,2.008-.13A15.77,15.77,0,0,1,258.478,89.49c-.278,1.193-.468,1.847.241,2.608Q258.719,92.174,258.719,92.25Z" transform="translate(-209.695 -67.188)" fill="#62dbfb"/>
        <path id="Trazado_998951" data-name="Trazado 998951" d="M161.964,241.088h1.593a2.684,2.684,0,0,1,2.684,2.684V245.1a4.016,4.016,0,0,1-4.017,4.016H137.32A4.016,4.016,0,0,1,133.3,245.1v-1.332a2.684,2.684,0,0,1,2.684-2.684h25.976Z" transform="translate(-116.418 -209.734)" fill="#ffc7b6"/>
        <path id="Trazado_998952" data-name="Trazado 998952" d="M119.347,362.057l-7.189-.815a4.876,4.876,0,0,1-3.248-4.2v-7.282l-8.8-.417,1.054,2.97-1.054,2.026v2.7a3.569,3.569,0,0,1-2.8,3.485l-8.23,1.818-1.729-.287-2.19,1.153a4.759,4.759,0,0,0-3.733,4.647v1.633a.671.671,0,0,0,.671.671h7.126l30.869-2.3Z" transform="translate(-71.508 -303.458)" fill="#ffc7b6"/>
        <path id="Trazado_998953" data-name="Trazado 998953" d="M240.171,364.628l-9.683-2.358a3.569,3.569,0,0,1-2.8-3.484v-2.136a.851.851,0,0,0-1.028-.832,6.314,6.314,0,0,1-3.647-.313,19.119,19.119,0,0,1-2.412-1.168v-5l7.087.31,2.416.106v7.283a3.568,3.568,0,0,0,2.8,3.484l6.934,1.531Z" transform="translate(-191.999 -303.457)" fill="#ffb5a5"/>
        <path id="Trazado_998954" data-name="Trazado 998954" d="M166.228,149.1v-6.7a9.512,9.512,0,0,1,4.206-7.784,13.228,13.228,0,0,1,15.745-.017,9.474,9.474,0,0,1,4.148,7.8v7.232a16.794,16.794,0,0,1-10.558,15.593,4.018,4.018,0,0,1-2.984,0,16.794,16.794,0,0,1-10.558-15.593Z" transform="translate(-144.923 -115.299)" fill="#ffdcd0"/>
        <path id="Trazado_998955" data-name="Trazado 998955" d="M160.118,432.829a3.729,3.729,0,0,0-2.125,1.8,9.074,9.074,0,0,1-8.024,4.837h-6.944A9.074,9.074,0,0,1,135,434.633a3.751,3.751,0,0,0-5.481-1.312l.514,2.1a28.779,28.779,0,0,1,.828,6.855h37.916l-6.015-6a20.281,20.281,0,0,1-2.645-3.446Z" transform="translate(-113.142 -375.569)" fill="#9b7f95"/>
        <g id="Grupo_1178427" data-name="Grupo 1178427" transform="translate(44.562 44.563)">
          <path id="Trazado_998956" data-name="Trazado 998956" d="M350.576,339.5a11.074,11.074,0,0,0-9.174,17.276,12.333,12.333,0,0,0,9.431,4.024c6.116,0,10.157-4.11,10.157-10.226a12.117,12.117,0,0,0-4.212-9.176A11.022,11.022,0,0,0,350.576,339.5Zm7.035,10.656a7.039,7.039,0,0,1-.579,3.246.4.4,0,0,1-.655.125l-8.754-8.754a.4.4,0,0,1,.125-.655,7.05,7.05,0,0,1,9.863,6.038Zm-14.069.835a7.04,7.04,0,0,1,.579-3.246.4.4,0,0,1,.655-.125l8.754,8.754a.4.4,0,0,1-.125.655,7.05,7.05,0,0,1-9.863-6.038Z" transform="translate(-339.502 -339.502)" fill="#ff99ca"/>
          <path id="Trazado_998957" data-name="Trazado 998957" d="M369.027,353.642a11.078,11.078,0,0,1,.25,12.014.054.054,0,0,1-.007.012.282.282,0,0,1-.04.063,11.115,11.115,0,0,1-3.491,3.491.3.3,0,0,1-.068.042l-.016.009a11.075,11.075,0,0,1-12-.254,11.074,11.074,0,1,0,15.375-15.378Z" transform="translate(-351.753 -351.744)" fill="#fe7ab6"/>
        </g>
        <g id="Grupo_1178428" data-name="Grupo 1178428" transform="translate(43.22 0)">
          <path id="Trazado_998958" data-name="Trazado 998958" d="M338.235,12.6a34.924,34.924,0,0,1-4.649,5.746L330.031,21.9a1.808,1.808,0,1,0,2.559,2.554l5.734-5.724c-.239,1.072-.3,1.51-.5,2.674a2.389,2.389,0,0,0,.895,1.048l4.825,3.122a3.5,3.5,0,0,0,4.379-.464A19.262,19.262,0,0,0,352.2,18.61l.758-1.9a.4.4,0,0,0,.029-.149V7.9a.4.4,0,0,0-.4-.4h-4.6a.4.4,0,0,0-.288.121l-1.291,1.317a2.684,2.684,0,0,1-1.353.745l-3.767.81A4.858,4.858,0,0,0,338.235,12.6Z" transform="translate(-329.501 -7.498)" fill="#e88f77"/>
        </g>
        <g id="Grupo_1178429" data-name="Grupo 1178429">
          <path id="Trazado_998959" data-name="Trazado 998959" d="M22.258,12.6a34.923,34.923,0,0,0,4.649,5.746l3.555,3.549A1.808,1.808,0,1,1,27.9,24.448l-5.734-5.724c.239,1.072.3,1.51.5,2.674a2.389,2.389,0,0,1-.895,1.048l-4.825,3.122a3.5,3.5,0,0,1-4.379-.464,19.262,19.262,0,0,1-4.283-6.495l-.758-1.9a.4.4,0,0,1-.029-.149V7.9a.4.4,0,0,1,.4-.4h4.6a.4.4,0,0,1,.288.121l1.291,1.317a2.685,2.685,0,0,0,1.353.745l3.767.81a4.859,4.859,0,0,1,3.059,2.11Z" transform="translate(-7.502 -7.497)" fill="#ffdcd0"/>
        </g>
        <g id="Grupo_1178430" data-name="Grupo 1178430" transform="translate(0 48.074)">
          <path id="Trazado_998960" data-name="Trazado 998960" d="M22.258,379.19a34.923,34.923,0,0,1,4.649-5.746l3.555-3.549a1.808,1.808,0,0,0-2.559-2.554l-5.734,5.724c.239-1.072.3-1.51.5-2.674a2.389,2.389,0,0,0-.895-1.048l-4.825-3.122a3.5,3.5,0,0,0-4.379.464,19.262,19.262,0,0,0-4.283,6.495l-.758,1.9a.4.4,0,0,0-.029.149v8.661a.4.4,0,0,0,.4.4h4.6a.4.4,0,0,0,.288-.121l1.291-1.317a2.684,2.684,0,0,1,1.353-.745l3.767-.81a4.859,4.859,0,0,0,3.059-2.11Z" transform="translate(-7.503 -365.659)" fill="#e88f77"/>
        </g>
      </g>
      <g id="Grupo_1178432" data-name="Grupo 1178432" transform="translate(-0.002 0.002)">
        <path id="Trazado_998961" data-name="Trazado 998961" d="M56.641,44.564a12.094,12.094,0,0,0-12.08,12.08c0,.335.014.667.041.995l-2.474-.547a2.579,2.579,0,0,1-2.01-2.5V49.715A17.806,17.806,0,0,0,46.354,41.4h.458a4.991,4.991,0,0,0,2.478-.656l.752.752a1.007,1.007,0,0,0,1.424-1.424l-.657-.657a5,5,0,0,0,.925-2.031h.7a1.007,1.007,0,1,0,0-2.013h-.6v-.325a3.672,3.672,0,0,0-.8-2.291V26.069a16.813,16.813,0,0,0-2.161-8.245l2.681-2.677A3.4,3.4,0,0,0,52.894,16.8l4.822,3.12a4.536,4.536,0,0,0,5.64-.595,20.154,20.154,0,0,0,4.507-6.834l.786-1.971a1.007,1.007,0,0,0-1.87-.746l-.786,1.971a18.152,18.152,0,0,1-4.06,6.155,2.513,2.513,0,0,1-3.124.329l-4.822-3.12a1.4,1.4,0,0,1-.237-2.157l.458-.457h0a1.007,1.007,0,0,0-1.422-1.425L46.6,17.247a.806.806,0,0,1-1.136,0,.8.8,0,0,1,0-1.129l3.555-3.549A36,36,0,0,0,53.8,6.657a3.827,3.827,0,0,1,2.425-1.673L60,4.175a3.68,3.68,0,0,0,1.86-1.025l1.409-1.437A1.007,1.007,0,1,0,61.828.3L60.419,1.741a1.673,1.673,0,0,1-.845.466l-3.767.81a5.827,5.827,0,0,0-3.692,2.547,33.983,33.983,0,0,1-4.515,5.58l-2.283,2.279a16.707,16.707,0,0,0-3.736-2.5,1.007,1.007,0,1,0-.883,1.809,14.69,14.69,0,0,1,3.2,2.124,2.807,2.807,0,0,0,.148,3.816,2.823,2.823,0,0,0,3.279.51A14.8,14.8,0,0,1,48.9,24.2l-1.715,1.715A10.792,10.792,0,0,0,42.863,19.5a14.283,14.283,0,0,0-16.947.016,10.908,10.908,0,0,0-4.376,6.4L19.819,24.2A14.8,14.8,0,0,1,21.4,19.182a2.823,2.823,0,0,0,3.279-.51,2.807,2.807,0,0,0,.146-3.818,14.492,14.492,0,0,1,11.7-3.424,1.007,1.007,0,1,0,.3-1.991A16.505,16.505,0,0,0,23.4,13.421l-2.281-2.277a33.984,33.984,0,0,1-4.515-5.58,5.827,5.827,0,0,0-3.692-2.547l-3.767-.81A1.673,1.673,0,0,1,8.3,1.741L6.892.3a1.007,1.007,0,0,0-1.438,1.41L6.864,3.151a3.681,3.681,0,0,0,1.86,1.025l3.767.81a3.827,3.827,0,0,1,2.425,1.673A36,36,0,0,0,19.7,12.569l3.555,3.549a.8.8,0,0,1,0,1.129.805.805,0,0,1-1.136,0l-6.185-6.174A1.007,1.007,0,0,0,14.51,12.5l.459.458a1.4,1.4,0,0,1-.237,2.156L9.91,18.232A2.513,2.513,0,0,1,6.786,17.9a18.151,18.151,0,0,1-4.06-6.155L1.94,9.777a1.007,1.007,0,0,0-1.87.746l.787,1.971a20.154,20.154,0,0,0,4.507,6.834,4.536,4.536,0,0,0,5.64.595l4.822-3.12a3.4,3.4,0,0,0,1.338-1.655l2.681,2.677a16.814,16.814,0,0,0-2.161,8.245v6.686a3.671,3.671,0,0,0-.8,2.291v.325h-.6a1.007,1.007,0,0,0,0,2.013h.7a5,5,0,0,0,.925,2.032l-.657.657A1.007,1.007,0,0,0,18.677,41.5l.752-.752a4.991,4.991,0,0,0,2.478.656h.46a17.75,17.75,0,0,0,1.208,2.644,1.007,1.007,0,0,0,1.756-.984,15.816,15.816,0,0,1-2.015-7.717V28.111a8.469,8.469,0,0,1,3.8-6.977,12.257,12.257,0,0,1,14.543-.017A8.45,8.45,0,0,1,45.4,28.111v7.232A15.788,15.788,0,0,1,35.478,50a3,3,0,0,1-2.236,0A15.7,15.7,0,0,1,28,46.561a1.007,1.007,0,1,0-1.417,1.43A17.821,17.821,0,0,0,28.6,49.718V54.59a2.578,2.578,0,0,1-2.01,2.5l-4.191.926A4.762,4.762,0,0,0,21.3,57.4l3.38-3.375a2.811,2.811,0,0,0,0-3.979,2.822,2.822,0,0,0-3.981,0l-3.531,3.525a3.4,3.4,0,0,0-1.338-1.655L11,48.8a4.537,4.537,0,0,0-5.64.595A20.154,20.154,0,0,0,.856,56.225L.07,58.2a1.007,1.007,0,0,0,1.87.746l.786-1.971a18.152,18.152,0,0,1,4.06-6.155,2.513,2.513,0,0,1,3.124-.329l4.822,3.12a1.4,1.4,0,0,1,.237,2.157l-.459.458a1.007,1.007,0,0,0,1.422,1.425l.45-.45.013-.013,5.721-5.712a.806.806,0,0,1,1.136,0,.8.8,0,0,1,0,1.129L19.7,56.15a36,36,0,0,0-4.783,5.911,3.827,3.827,0,0,1-2.425,1.673l-3.781.813a3.686,3.686,0,0,0-1.834,1L5.414,67.006A1.007,1.007,0,0,0,6.838,68.43L8.3,66.969a1.675,1.675,0,0,1,.834-.454l.789-.17V67.71a1.007,1.007,0,1,0,2.013,0v-1.8l.979-.21a5.827,5.827,0,0,0,3.692-2.547c.187-.29.38-.575.577-.859a27.81,27.81,0,0,1,.536,5.415,1.007,1.007,0,1,0,2.013,0,29.814,29.814,0,0,0-.857-7.095l-.106-.434q.455-.56.934-1.1a2.747,2.747,0,0,1,2.271,1.458,10.057,10.057,0,0,0,8.914,5.373H36.9a1.007,1.007,0,1,0,0-2.013H30.888a8.047,8.047,0,0,1-7.046-4.14l3.184-.7a4.543,4.543,0,0,0,3.407-3.181h7.853a4.544,4.544,0,0,0,3.407,3.181l3.183.7A8.1,8.1,0,0,1,41.1,63.211a1.007,1.007,0,1,0,.815,1.841,10.127,10.127,0,0,0,3.9-3.06A12.079,12.079,0,1,0,56.641,44.564ZM19.7,26.922,21.3,28.528v2.827h-.728a3.681,3.681,0,0,0-.878.106Zm-.632,10.446a1.006,1.006,0,0,0-.169-2v-.325a1.68,1.68,0,0,1,1.678-1.678H21.3v1.975a17.8,17.8,0,0,0,.467,4.04A3.015,3.015,0,0,1,19.066,37.369Zm29.956-5.908a3.688,3.688,0,0,0-.878-.106h-.728V28.528l1.606-1.605Zm-1.605,3.882V33.368h.728a1.679,1.679,0,0,1,1.678,1.678v.325a1.006,1.006,0,0,0-.169,2,3.015,3.015,0,0,1-2.7,2.015A17.828,17.828,0,0,0,47.417,35.343ZM32.494,51.871a5,5,0,0,0,3.731,0,17.922,17.922,0,0,0,1.879-.882v2.875h-7.49V50.989A17.937,17.937,0,0,0,32.494,51.871Zm24.147,14.84A10.067,10.067,0,1,1,66.708,56.644,10.078,10.078,0,0,1,56.641,66.711Z" transform="translate(0.002 -0.002)"/>
        <path id="Trazado_998962" data-name="Trazado 998962" d="M364.569,389.821a1.007,1.007,0,0,0-1.6.232,8.055,8.055,0,0,0,10.917,10.917,1.007,1.007,0,0,0,.232-1.6Zm5.488,10.1a6.041,6.041,0,0,1-5.835-7.6l7.4,7.4A6.064,6.064,0,0,1,370.056,399.926Z" transform="translate(-313.413 -337.243)"/>
        <path id="Trazado_998963" data-name="Trazado 998963" d="M399.532,365.722a1.007,1.007,0,0,0-.382,1.371,6.051,6.051,0,0,1,.569,4.526l-7.4-7.4a6.063,6.063,0,0,1,1.564-.206,6,6,0,0,1,2.323.463,1.007,1.007,0,0,0,.775-1.858,8.07,8.07,0,0,0-6.93.351,1.007,1.007,0,0,0-.232,1.6l9.552,9.552a1.007,1.007,0,0,0,1.6-.232,8.063,8.063,0,0,0-.066-7.783A1.006,1.006,0,0,0,399.532,365.722Z" transform="translate(-337.242 -313.413)"/>
      </g>
    </g>
  </g>
</svg>
