<svg xmlns="http://www.w3.org/2000/svg" xmlns:xlink="http://www.w3.org/1999/xlink" width="292.34" height="290" viewBox="0 0 292.34 290">
  <defs>
    <clipPath id="clip-path">
      <path id="Trazado_1000522" data-name="Trazado 1000522" d="M344.249,348.379l-284.924.182V76.619H345.176Z" transform="translate(-59.325 -76.619)"/>
    </clipPath>
  </defs>
  <g id="Grupo_1179531" data-name="Grupo 1179531" transform="translate(-186 -323)">
    <rect id="Rectángulo_455022" data-name="Rectángulo 455022" width="292" height="290" transform="translate(186.34 323)" fill="#99bfb7"/>
    <g id="_8850213_3990176" data-name="8850213_3990176" transform="translate(185.56 322.865)">
      <g id="BACKGROUND" transform="translate(0.44 0.135)">
        <g id="Grupo_1179453" data-name="Grupo 1179453">
          <g id="Grupo_1179451" data-name="Grupo 1179451">
            <path id="Trazado_1000406" data-name="Trazado 1000406" d="M1.08,193.457c26.246,3.841,47.632-.587,77.217-14.907s54.088-39.314,66.713-69.66C158.88,75.549,158.3,36.43,157.353.332L.44.135l.64,191.4" transform="translate(-0.44 -0.135)" fill="#fff4e6"/>
          </g>
          <g id="Grupo_1179452" data-name="Grupo 1179452" transform="translate(141.889 103.329)">
            <path id="Trazado_1000407" data-name="Trazado 1000407" d="M389.122,178.82c-25.081-3.671-45.52.561-73.791,14.246s-51.689,37.57-63.753,66.57c-13.255,31.862-12.411,70.1-11.506,104.6l149.663-.665-.611-182.911" transform="translate(-239.623 -177.56)" fill="#fff4e6"/>
          </g>
        </g>
      </g>
      <g id="OBJECTS" transform="translate(6.249 0.135)">
        <g id="Grupo_1179530" data-name="Grupo 1179530">
          <g id="Grupo_1179455" data-name="Grupo 1179455">
            <g id="Grupo_1179454" data-name="Grupo 1179454">
              <path id="Trazado_1000408" data-name="Trazado 1000408" d="M42.74,360.92a2.971,2.971,0,1,1-2.971-2.971A2.971,2.971,0,0,1,42.74,360.92Z" transform="translate(-36.798 -155.37)" fill="#ff9830" opacity="0.28"/>
              <circle id="Elipse_13737" data-name="Elipse 13737" cx="1.739" cy="1.739" r="1.739" transform="translate(17.939 209.284)" fill="none" stroke="#fff4e6" stroke-miterlimit="10" stroke-width="1"/>
              <path id="Trazado_1000409" data-name="Trazado 1000409" d="M396.121,180.461a2.971,2.971,0,1,1-2.971-2.971A2.971,2.971,0,0,1,396.121,180.461Z" transform="translate(-170.773 -85.286)" fill="#fff4e6"/>
              <path id="Trazado_1000410" data-name="Trazado 1000410" d="M291.884,28.359a1.62,1.62,0,1,1-1.62-1.62A1.62,1.62,0,0,1,291.884,28.359Z" transform="translate(-132.838 -26.739)" fill="#fff4e6"/>
              <path id="Trazado_1000411" data-name="Trazado 1000411" d="M115.629,452.123a2.836,2.836,0,1,1-2.836-2.836A2.836,2.836,0,0,1,115.629,452.123Z" transform="translate(-65.389 -190.844)" fill="#ff9830" opacity="0.28"/>
              <path id="Trazado_1000412" data-name="Trazado 1000412" d="M475.962,158.585a1.823,1.823,0,1,1-1.823-1.823A1.823,1.823,0,0,1,475.962,158.585Z" transform="translate(-202.873 -77.239)" fill="#ff9830" opacity="0.28"/>
              <circle id="Elipse_13738" data-name="Elipse 13738" cx="1.519" cy="1.519" r="1.519" transform="translate(63.295 221.844)" fill="none" stroke="#fff4e6" stroke-miterlimit="10" stroke-width="1"/>
              <path id="Trazado_1000413" data-name="Trazado 1000413" d="M291.23,121.089a2.735,2.735,0,1,1-2.735-2.735A2.735,2.735,0,0,1,291.23,121.089Z" transform="translate(-131.719 -62.32)" fill="#ff9830" opacity="0.28"/>
            </g>
          </g>
          <g id="Grupo_1179529" data-name="Grupo 1179529" transform="translate(0 17.331)">
            <g id="Grupo_1179528" data-name="Grupo 1179528" clip-path="url(#clip-path)">
              <g id="Grupo_1179482" data-name="Grupo 1179482" transform="translate(-4.934 79.928)">
                <g id="Grupo_1179468" data-name="Grupo 1179468" transform="translate(0 113.569)">
                  <g id="Grupo_1179459" data-name="Grupo 1179459" transform="translate(70.638 217.578)">
                    <path id="Trazado_1000414" data-name="Trazado 1000414" d="M204.354,756.731c0,1.043-9.83,1.888-21.955,1.888s-21.955-.845-21.955-1.888,9.83-1.888,21.955-1.888S204.354,755.689,204.354,756.731Z" transform="translate(-160.444 -730.181)" fill="#bacfd4"/>
                    <g id="Grupo_1179458" data-name="Grupo 1179458" transform="translate(18.015)">
                      <path id="Trazado_1000415" data-name="Trazado 1000415" d="M197.141,716.456l-.33,10.111s2.994,12.851,5.149,8.5a12.8,12.8,0,0,1,6.725-5.891l3.3-12.72Z" transform="translate(-191.196 -716.456)" fill="#ffbd91"/>
                      <path id="Trazado_1000416" data-name="Trazado 1000416" d="M207.482,733.7l15.425,9.793c.691.438.327,1.368-.538,1.369-7.086.012-26.178-.061-31.2-.1-.609,0-1.032-.5-.844-.991,1.041-2.7,3.886-10.2,4.207-12.27.057-.364,4.41,5.806,6.5,5.128C202.824,736.056,207.076,733.348,207.482,733.7Z" transform="translate(-188.909 -721.833)" fill="#2d3473"/>
                      <path id="Trazado_1000417" data-name="Trazado 1000417" d="M220.842,757.535H191.2a1.987,1.987,0,0,1-2-1.976v-2.59a.984.984,0,0,1,.99-.978h31.665a.984.984,0,0,1,.99.978v2.59A1.988,1.988,0,0,1,220.842,757.535Z" transform="translate(-188.53 -729.161)" fill="#5cc8e0"/>
                      <path id="Trazado_1000418" data-name="Trazado 1000418" d="M212.4,728.89l3.027-10.513-10.125-.277Z" transform="translate(-194.171 -717.044)" fill="#e88f6f"/>
                      <g id="Grupo_1179457" data-name="Grupo 1179457" transform="translate(0 24.022)">
                        <g id="Grupo_1179456" data-name="Grupo 1179456">
                          <path id="Trazado_1000419" data-name="Trazado 1000419" d="M188.883,755.9c2.713-1.964,5.545-.744,8.4.024a30.559,30.559,0,0,0,7.322.845c5.836.142,11.68.085,17.515-.053a.489.489,0,0,0,0-.978c-6.626.156-13.4.45-20.013-.029-4.356-.315-9.689-3.575-13.724-.654-.509.368-.016,1.217.5.845Z" transform="translate(-188.17 -753.846)" fill="#fff"/>
                        </g>
                      </g>
                      <path id="Trazado_1000420" data-name="Trazado 1000420" d="M199.169,747.982c-3.54-.042-6.5-.08-8.075-.1-.609-.009-1.029-.51-.836-1,.531-1.347,1.523-3.89,2.424-6.354Z" transform="translate(-188.885 -725.063)" fill="#fff" stroke="#fff" stroke-miterlimit="10" stroke-width="0.508"/>
                      <path id="Trazado_1000421" data-name="Trazado 1000421" d="M223.341,749.277c4.233.044,8.107.08,10.552.1.865.005,1.236-.921.549-1.365l-6.58-4.251Z" transform="translate(-200.488 -726.217)" fill="#fff" stroke="#fff" stroke-miterlimit="10" stroke-width="0.508"/>
                    </g>
                  </g>
                  <g id="Grupo_1179463" data-name="Grupo 1179463" transform="translate(0 217.352)">
                    <path id="Trazado_1000422" data-name="Trazado 1000422" d="M95.642,756.731c0,1.043-9.83,1.888-21.955,1.888s-21.955-.845-21.955-1.888,9.83-1.888,21.955-1.888S95.642,755.689,95.642,756.731Z" transform="translate(-51.732 -729.954)" fill="#bacfd4"/>
                    <g id="Grupo_1179462" data-name="Grupo 1179462" transform="translate(19.345)">
                      <path id="Trazado_1000423" data-name="Trazado 1000423" d="M90.475,716.456l-.33,10.111s2.994,12.851,5.149,8.5a12.8,12.8,0,0,1,6.725-5.891l3.3-12.72Z" transform="translate(-84.53 -716.229)" fill="#ffbd91"/>
                      <path id="Trazado_1000424" data-name="Trazado 1000424" d="M100.817,733.7l15.425,9.793c.691.438.327,1.368-.538,1.369-7.086.012-26.178-.061-31.2-.1-.609,0-1.032-.5-.844-.991,1.04-2.7,3.886-10.2,4.207-12.27.057-.364,4.41,5.806,6.5,5.128C96.159,736.056,100.411,733.348,100.817,733.7Z" transform="translate(-82.244 -721.607)" fill="#2d3473"/>
                      <path id="Trazado_1000425" data-name="Trazado 1000425" d="M114.177,757.535H84.53a1.987,1.987,0,0,1-2-1.976v-2.59a.984.984,0,0,1,.99-.978h31.665a.984.984,0,0,1,.99.978v2.59A1.988,1.988,0,0,1,114.177,757.535Z" transform="translate(-81.864 -728.934)" fill="#5cc8e0"/>
                      <path id="Trazado_1000426" data-name="Trazado 1000426" d="M107.712,716.413l-10.125-.31,7.438,12.1Z" transform="translate(-87.137 -716.103)" fill="#e88f6f"/>
                      <g id="Grupo_1179461" data-name="Grupo 1179461" transform="translate(0 24.249)">
                        <g id="Grupo_1179460" data-name="Grupo 1179460">
                          <path id="Trazado_1000427" data-name="Trazado 1000427" d="M82.217,755.9c2.713-1.964,5.545-.744,8.4.024a30.559,30.559,0,0,0,7.322.845c5.836.142,11.68.085,17.515-.053a.489.489,0,0,0,0-.978c-6.626.156-13.4.45-20.013-.029-4.356-.315-9.689-3.575-13.724-.654-.509.368-.016,1.217.5.845Z" transform="translate(-81.504 -753.846)" fill="#fff"/>
                        </g>
                      </g>
                      <path id="Trazado_1000428" data-name="Trazado 1000428" d="M92.5,747.982c-3.54-.042-6.5-.08-8.075-.1-.609-.009-1.028-.51-.836-1,.531-1.347,1.523-3.89,2.424-6.354Z" transform="translate(-82.219 -724.836)" fill="#fff" stroke="#fff" stroke-miterlimit="10" stroke-width="0.508"/>
                      <path id="Trazado_1000429" data-name="Trazado 1000429" d="M116.676,749.277c4.233.044,8.107.08,10.552.1.866.005,1.236-.921.549-1.365l-6.58-4.251Z" transform="translate(-93.822 -725.99)" fill="#fff" stroke="#fff" stroke-miterlimit="10" stroke-width="0.508"/>
                    </g>
                  </g>
                  <g id="Grupo_1179467" data-name="Grupo 1179467" transform="translate(12.092)">
                    <path id="Trazado_1000430" data-name="Trazado 1000430" d="M132.232,378.6c-2.782.45-11.383,19.3-14.63,33.8-3.766,16.809-45.484,152.155-47.26,182.73,4.642,1.277,39.2,1.3,42.133,1.117,9.332-30.514,39.334-158.561,40.07-159.585-1.142,27.417-13.958,143.633-11.247,159.62,2.435,1.414,38.015.962,40.827.56,3.058-37.652,17.789-194.777-13-218.008C153.719,378.489,143.217,376.827,132.232,378.6Z" transform="translate(-70.341 -377.796)" fill="#ff4f4d"/>
                    <g id="Grupo_1179466" data-name="Grupo 1179466" transform="translate(1.062 0.991)">
                      <path id="Trazado_1000431" data-name="Trazado 1000431" d="M213.168,379.339s10.121,10.182,14.76,33.642-3.344,175.363-3.344,175.363" transform="translate(-121.426 -379.339)" fill="none" stroke="#fff" stroke-miterlimit="10" stroke-width="1.965"/>
                      <path id="Trazado_1000432" data-name="Trazado 1000432" d="M141.711,382.076s-53.25,185.314-58.922,205.7" transform="translate(-75.763 -380.318)" fill="none" stroke="#fff" stroke-miterlimit="10" stroke-width="1.845"/>
                      <g id="Grupo_1179465" data-name="Grupo 1179465" transform="translate(70.876 208.621)">
                        <g id="Grupo_1179464" data-name="Grupo 1179464">
                          <line id="Línea_3304" data-name="Línea 3304" x1="1.799" transform="translate(37.374)" fill="none" stroke="#fff" stroke-miterlimit="10" stroke-width="1.845"/>
                          <line id="Línea_3305" data-name="Línea 3305" x1="29.646" transform="translate(3.775)" fill="none" stroke="#fff" stroke-miterlimit="10" stroke-width="1.845" stroke-dasharray="6.083 6.083"/>
                          <line id="Línea_3306" data-name="Línea 3306" x1="1.799" fill="none" stroke="#fff" stroke-miterlimit="10" stroke-width="1.845"/>
                        </g>
                      </g>
                      <line id="Línea_3307" data-name="Línea 3307" x1="42.163" y1="2.661" transform="translate(0 206.404)" fill="none" stroke="#fff" stroke-miterlimit="10" stroke-width="1.845" stroke-dasharray="5.536"/>
                      <line id="Línea_3308" data-name="Línea 3308" x1="3.711" y2="12.707" transform="translate(104.956 14.093)" fill="none" stroke="#fff" stroke-miterlimit="10" stroke-width="1.965"/>
                      <line id="Línea_3309" data-name="Línea 3309" x1="4.021" y2="13.359" transform="translate(106.502 19.631)" fill="none" stroke="#fff" stroke-miterlimit="10" stroke-width="1.965"/>
                    </g>
                  </g>
                </g>
                <g id="Grupo_1179481" data-name="Grupo 1179481" transform="translate(19.104)">
                  <g id="Grupo_1179471" data-name="Grupo 1179471">
                    <path id="Trazado_1000433" data-name="Trazado 1000433" d="M167.361,261.343c-2.286-10.309,4.518-10.251,5.28-18.661.306-3.376-3.2-6.907-3.4-9.122-.212-2.42,1.988-5.144,2.385-7.54.575-3.468-1.32-11.634-2.359-13.663-2.845-5.556-6.775-8.862-12.313-10.324-24.332-6.421-27.492,19.663-32.57,28.265,0,0-5.155,14.139-13.724,15.871-13.6,2.748-23.322,33.395-18.785,46.024,5.512,15.34,21.594,28.692,51.754,21.664l2.92-51.809,2.242-3.5,4.8,2.792S169.647,271.652,167.361,261.343Z" transform="translate(-84.501 -201.027)" stroke="#000" stroke-miterlimit="10" stroke-width="0.982"/>
                    <g id="Grupo_1179470" data-name="Grupo 1179470" transform="translate(0 0.195)">
                      <g id="Grupo_1179469" data-name="Grupo 1179469">
                        <path id="Trazado_1000434" data-name="Trazado 1000434" d="M152.472,202.2a25.83,25.83,0,0,0-26.83,8.768,29.9,29.9,0,0,0-5.941,13.479c-1.075,5.7-1.2,11.787-4.2,16.937-3.919,6.731-10.029,5.9-16.857,6.091a12.656,12.656,0,0,0-8.428,3.779c-4.855,4.661-7.463,11.64-9.051,18.009a.957.957,0,0,0,1.845.5c1.552-6.223,4.083-13.282,9.064-17.642,4.07-3.562,8.183-2.313,13.173-2.651,4.047-.275,7.578-1.568,10.2-4.69,6.566-7.807,4.242-18.9,8.526-27.662a24.207,24.207,0,0,1,27.986-13.1.947.947,0,0,0,.509-1.825Z" transform="translate(-81.133 -201.331)"/>
                      </g>
                    </g>
                  </g>
                  <g id="Grupo_1179474" data-name="Grupo 1179474" transform="translate(51.328 9.257)">
                    <g id="Grupo_1179472" data-name="Grupo 1179472" transform="translate(7.443 3.898)">
                      <path id="Trazado_1000435" data-name="Trazado 1000435" d="M187.095,250s2.954,25.2,3.441,27.123a15.377,15.377,0,0,1-18.952,2.4s1.307-6.038,3.286-21.463Z" transform="translate(-171.583 -231.691)" fill="#e0815e"/>
                      <path id="Trazado_1000436" data-name="Trazado 1000436" d="M186.972,221.618h0c-5.167-1.032-9.942,5.032-11.6,13.127l-.127.619c-1.654,8.1,1.6,17.885,5.956,18.642l.2-.01c3.5.348,9.253-6.843,10.908-14.938l.916-.964C194.881,230,192.139,222.65,186.972,221.618Z" transform="translate(-172.713 -221.503)"/>
                    </g>
                    <g id="Grupo_1179473" data-name="Grupo 1179473">
                      <path id="Trazado_1000437" data-name="Trazado 1000437" d="M162.806,238.013l4.31-.464-.523-4.752-4.31.464a2.4,2.4,0,0,0-2.141,2.634h0A2.41,2.41,0,0,0,162.806,238.013Z" transform="translate(-160.128 -221.643)" fill="#e0815e"/>
                      <path id="Trazado_1000438" data-name="Trazado 1000438" d="M206.553,237.822l-4.328.25.282,4.771,4.327-.25a2.4,2.4,0,0,0,2.272-2.525h0A2.406,2.406,0,0,0,206.553,237.822Z" transform="translate(-174.872 -223.438)" fill="#e0815e"/>
                      <path id="Trazado_1000439" data-name="Trazado 1000439" d="M208.3,239.783l-1.787.1.116,1.97,1.787-.1a.99.99,0,0,0,.938-1.042h0A.993.993,0,0,0,208.3,239.783Z" transform="translate(-176.374 -224.14)" fill="#b8532e" stroke="#b8532e" stroke-linecap="round" stroke-linejoin="round" stroke-miterlimit="10" stroke-width="1.789"/>
                      <path id="Trazado_1000440" data-name="Trazado 1000440" d="M163.105,235.482l1.776-.221.249,1.958-1.776.221a1,1,0,0,1-1.114-.856h0A.988.988,0,0,1,163.105,235.482Z" transform="translate(-160.865 -222.524)" fill="#b8532e" stroke="#b8532e" stroke-linecap="round" stroke-linejoin="round" stroke-miterlimit="10" stroke-width="1.789"/>
                      <path id="Trazado_1000441" data-name="Trazado 1000441" d="M178.634,215.437h0c-8.051.1-13.259,6.617-13.157,14.354l.008.591c.1,7.738,6.564,14.568,13.322,14.377l.058-.015c5.349-.393,14.468-7.181,14.366-14.919l-.008-.591A14.133,14.133,0,0,0,178.634,215.437Z" transform="translate(-162 -215.436)" fill="#e0815e"/>
                      <path id="Trazado_1000442" data-name="Trazado 1000442" d="M188.629,237.063c.053.587.46,1.03.91.991a.965.965,0,0,0,.72-1.133c-.053-.587-.46-1.031-.91-.991A.965.965,0,0,0,188.629,237.063Z" transform="translate(-170.108 -222.762)"/>
                      <path id="Trazado_1000443" data-name="Trazado 1000443" d="M178.852,237.949a.847.847,0,1,0,.8-1.077A.968.968,0,0,0,178.852,237.949Z" transform="translate(-166.686 -223.1)"/>
                      <path id="Trazado_1000444" data-name="Trazado 1000444" d="M183.441,241.377l2.152-.125c.265-.015.421-.366.294-.66l-1.136-2.619a.338.338,0,0,0-.654.008l-1.016,2.744C182.968,241.035,183.165,241.393,183.441,241.377Z" transform="translate(-168.155 -223.406)" fill="#b8532e"/>
                      <path id="Trazado_1000445" data-name="Trazado 1000445" d="M176.971,233.135c-.66.232.669-1.247,1.48-1.24a1.373,1.373,0,0,1,1.456,1.267A4.357,4.357,0,0,0,176.971,233.135Z" transform="translate(-165.965 -221.321)"/>
                      <path id="Trazado_1000446" data-name="Trazado 1000446" d="M191.488,232.577c.655.245-.643-1.261-1.454-1.269a1.374,1.374,0,0,0-1.481,1.237A4.345,4.345,0,0,1,191.488,232.577Z" transform="translate(-170.083 -221.111)"/>
                      <path id="Trazado_1000447" data-name="Trazado 1000447" d="M183.8,247.747a5.726,5.726,0,0,1,5.268-2.805" transform="translate(-168.418 -225.985)" fill="none" stroke="#b8532e" stroke-linecap="round" stroke-miterlimit="10" stroke-width="0.938"/>
                    </g>
                  </g>
                  <g id="Grupo_1179477" data-name="Grupo 1179477" transform="translate(48.709 6.199)">
                    <path id="Trazado_1000448" data-name="Trazado 1000448" d="M178.577,213.472s-11.472,15.108-22.481,12.22C156.1,225.693,163.263,202.906,178.577,213.472Z" transform="translate(-156.096 -210.676)" stroke="#000" stroke-miterlimit="10" stroke-width="0.982"/>
                    <g id="Grupo_1179476" data-name="Grupo 1179476" transform="translate(0.344 1.618)">
                      <g id="Grupo_1179475" data-name="Grupo 1179475">
                        <path id="Trazado_1000449" data-name="Trazado 1000449" d="M157.356,221.618c-.413,2.33-1.717,6.467.65,8.146,2.442,1.733,5.857-.375,7.866-1.78,5.219-3.651,9.6-8.617,14-13.163.852-.88-.5-2.22-1.353-1.338-2.888,2.984-5.793,5.957-8.823,8.8a44.22,44.22,0,0,1-4.792,4.067c-1.066.747-3.5,2.689-4.858,2.146-2.334-.937-1.138-4.737-.847-6.375.211-1.191-1.633-1.7-1.845-.5Z" transform="translate(-156.625 -213.195)"/>
                      </g>
                    </g>
                    <path id="Trazado_1000450" data-name="Trazado 1000450" d="M187.735,212.436s2.7,14.829,11.4,12.718l3.314-.666S198.688,207.383,187.735,212.436Z" transform="translate(-167.177 -210.972)" stroke="#000" stroke-miterlimit="10" stroke-width="0.982"/>
                  </g>
                  <g id="Grupo_1179480" data-name="Grupo 1179480" transform="translate(20.452 9.817)">
                    <path id="Trazado_1000451" data-name="Trazado 1000451" d="M221.848,349.49c-15.708,1.5-24.926-13.951-27.485-45.925,0,0,3.483-12.811,5.018-19.722l5.724,3.218a12.01,12.01,0,0,1,6.129,9.735l.689,11.386c1.792,17.122,2.675,23.937,6.748,24.832,6.323,1.389,20.141,2.9,27.1,1.636l4.645-5.285,8.795.442a1.373,1.373,0,0,1,1.289,1.137h0a1.356,1.356,0,0,1-.643,1.388L252.1,337l-.336,7.8S227.91,348.911,221.848,349.49Z" transform="translate(-141.241 -240.453)" fill="#e0815e"/>
                    <g id="Grupo_1179478" data-name="Grupo 1179478" transform="translate(23.726 37.439)">
                      <path id="Trazado_1000452" data-name="Trazado 1000452" d="M149.991,287.565s5.765-2.767,10.509-4.749c4.688-3.361,4.107-7.839,4.107-7.839,1.185-.98,17.862.166,17.862.166-.3,1.634,2.19,8.664,2.19,8.664-.307.848,8.745,15.455,10.3,23.623,1.472,7.717,8.6,32.388,8.6,35.415l-49.879.444S146.736,297.951,149.991,287.565Z" transform="translate(-149.123 -274.581)" fill="#ff9830"/>
                      <path id="Trazado_1000453" data-name="Trazado 1000453" d="M149.991,294.559c-3.255,10.387,3.69,55.726,3.69,55.726l49.879-.444-53.108-55.7" transform="translate(-149.123 -281.576)" fill="#ff4f4d" opacity="0.14"/>
                    </g>
                    <g id="Grupo_1179479" data-name="Grupo 1179479">
                      <path id="Trazado_1000454" data-name="Trazado 1000454" d="M128.164,312.569h0a17.609,17.609,0,0,0,19.8-18.467L146.4,269.534l-26.446-3.194-6.711,24.244A17.509,17.509,0,0,0,128.164,312.569Z" transform="translate(-112.608 -234.195)" fill="#c9704f"/>
                      <path id="Trazado_1000455" data-name="Trazado 1000455" d="M142.415,274.1c.018,0,22.324-17.049,19.591-18.751-1.761-1.1-7.678.395-11.665,1.594a2.639,2.639,0,0,1-3.2-3.105c.862-6,2.5-16.966,4.057-24.813,2.243-11.325-.717-12.569-7.864,5.827s1.337-17.16-1.222-17.463-6.966,19.563-9.336,20.195,2.684-19.448-1.117-21.178-5.676,19.365-6.985,20.259-.053-13.848-1.74-14.224c-5.952-1.325-7.079,43.748-6.523,46.784,0,.009.007.018.008.028s2.017,6.915,12.856,8.56C129.273,277.814,135.891,279.57,142.415,274.1Z" transform="translate(-113.895 -216.307)" fill="#e0815e"/>
                    </g>
                  </g>
                </g>
              </g>
              <g id="Grupo_1179505" data-name="Grupo 1179505" transform="translate(171.854 83.868)">
                <g id="Grupo_1179489" data-name="Grupo 1179489" transform="translate(0 120.338)">
                  <g id="Grupo_1179484" data-name="Grupo 1179484" transform="translate(67.005 215.966)">
                    <path id="Trazado_1000456" data-name="Trazado 1000456" d="M470.366,766.787c-.016,1.031-9.753,1.717-21.747,1.531s-21.7-1.172-21.688-2.2,9.753-1.717,21.747-1.531S470.382,765.756,470.366,766.787Z" transform="translate(-426.931 -742.749)" fill="#bacfd4"/>
                    <g id="Grupo_1179483" data-name="Grupo 1179483" transform="translate(14.586)">
                      <path id="Trazado_1000457" data-name="Trazado 1000457" d="M449.379,730.864l.373,19.245,39.349.323-22.032-10.062-1.846-9.756Z" transform="translate(-449.379 -730.615)" fill="#f7b27e"/>
                      <path id="Trazado_1000458" data-name="Trazado 1000458" d="M465.222,730.615l-15.47,19.495-.373-19.245Z" transform="translate(-449.379 -730.615)" fill="#d46f4c"/>
                      <path id="Trazado_1000459" data-name="Trazado 1000459" d="M469.5,744.952l19.8,10.607-39.349-.323Z" transform="translate(-449.58 -735.741)" fill="#ff4f4d"/>
                      <rect id="Rectángulo_455393" data-name="Rectángulo 455393" width="40.01" height="6.257" transform="translate(0.187 19.233) rotate(0.9)" fill="#5cc8e0"/>
                    </g>
                  </g>
                  <g id="Grupo_1179486" data-name="Grupo 1179486" transform="translate(0 212.934)">
                    <path id="Trazado_1000460" data-name="Trazado 1000460" d="M395.316,765.611c-.016,1.031-9.753,1.717-21.747,1.531s-21.7-1.173-21.688-2.2,9.753-1.717,21.747-1.531S395.332,764.58,395.316,765.611Z" transform="translate(-333.641 -739.297)" fill="#bacfd4"/>
                    <g id="Grupo_1179485" data-name="Grupo 1179485">
                      <path id="Trazado_1000461" data-name="Trazado 1000461" d="M361.323,727.279l2.421,20.489-39.34-.9,22.891-9.861-.789-11.115Z" transform="translate(-324.018 -725.896)" fill="#f7b27e"/>
                      <path id="Trazado_1000462" data-name="Trazado 1000462" d="M358.419,725.9l14.817,1.383,2.421,20.489Z" transform="translate(-335.931 -725.896)" fill="#d46f4c"/>
                      <path id="Trazado_1000463" data-name="Trazado 1000463" d="M344.529,743,324.4,752.987l39.34.9Z" transform="translate(-324.018 -732.011)" fill="#ff4f4d"/>
                      <rect id="Rectángulo_455394" data-name="Rectángulo 455394" width="40.01" height="6.257" transform="translate(0.098 20.997) rotate(0.9)" fill="#5cc8e0"/>
                    </g>
                  </g>
                  <g id="Grupo_1179488" data-name="Grupo 1179488" transform="translate(2.8)">
                    <path id="Trazado_1000464" data-name="Trazado 1000464" d="M346.071,394.465l41.525,2.752s10.79,5.394,40.49,213l-22.012.613-39.241-157.29a2.008,2.008,0,0,0-3.952.484l5.134,156.407L345,608.36s-25.212-158.327-14.014-183.332S346.071,394.465,346.071,394.465Z" transform="translate(-328.118 -394.465)"/>
                    <g id="Grupo_1179487" data-name="Grupo 1179487" transform="translate(4.303 3.074)">
                      <path id="Trazado_1000465" data-name="Trazado 1000465" d="M334.741,423.666s13.757,6.024,21.5-5.893,9.948-18.523,9.948-18.523" transform="translate(-334.741 -399.25)" fill="none" stroke="#fff" stroke-miterlimit="10" stroke-width="1.024"/>
                      <path id="Trazado_1000466" data-name="Trazado 1000466" d="M402.448,404.074s.648,25.329,8.789,28.152,12.134,2.471,12.134,2.471" transform="translate(-358.454 -400.975)" fill="none" stroke="#fff" stroke-miterlimit="10" stroke-width="1.024"/>
                      <line id="Línea_3310" data-name="Línea 3310" x2="35.661" y2="181.28" transform="translate(52.783 31.252)" fill="none" stroke="#fff" stroke-miterlimit="10" stroke-width="1.024"/>
                      <line id="Línea_3311" data-name="Línea 3311" x2="13.428" y2="185.738" transform="translate(8.374 25.791)" fill="none" stroke="#fff" stroke-miterlimit="10" stroke-width="1.024"/>
                    </g>
                    <path id="Trazado_1000467" data-name="Trazado 1000467" d="M388.033,403.183l-34.967-7.721s-25.476,22-23.912,42.565Z" transform="translate(-328.457 -394.821)" fill="#1e3252" opacity="0.51"/>
                  </g>
                </g>
                <g id="Grupo_1179504" data-name="Grupo 1179504" transform="translate(3.927)">
                  <g id="Grupo_1179500" data-name="Grupo 1179500" transform="translate(20.161)">
                    <g id="Grupo_1179492" data-name="Grupo 1179492">
                      <path id="Trazado_1000468" data-name="Trazado 1000468" d="M366.664,224.374c.127-4.181,1.267-12.17,7.581-14.955,6.11-2.7,10.827-2.968,18.212-.883,9.657,2.727,20.194,29.926,20.194,29.926s-9.643,15.027-45.039,8.017C367.61,246.48,366.5,229.9,366.664,224.374Z" transform="translate(-362.901 -207.159)" fill="#02022b"/>
                      <g id="Grupo_1179491" data-name="Grupo 1179491" transform="translate(0 4.503)">
                        <g id="Grupo_1179490" data-name="Grupo 1179490">
                          <path id="Trazado_1000469" data-name="Trazado 1000469" d="M363.543,247.872c-.521-10.3-.264-24.254,8.186-31.626,1.212-1.057-.567-2.805-1.773-1.753-8.969,7.825-9.474,22.44-8.921,33.379.081,1.587,2.587,1.6,2.507,0Z" transform="translate(-360.882 -214.168)" fill="#02022b"/>
                        </g>
                      </g>
                    </g>
                    <g id="Grupo_1179493" data-name="Grupo 1179493" transform="translate(9.646 28.534)">
                      <path id="Trazado_1000470" data-name="Trazado 1000470" d="M379.262,252.9s-3.218,24.785-3.535,26.777c0,0,10.864,12.811,21.978,1.794,0,0-1.879-6.01-5.3-21.485Z" transform="translate(-375.727 -252.047)" fill="#f7b27e" stroke="#f7b27e" stroke-linecap="round" stroke-linejoin="round" stroke-miterlimit="10" stroke-width="2.231"/>
                      <path id="Trazado_1000471" data-name="Trazado 1000471" d="M394.669,298.807s-1.057,5.255,10.057-5.762c0,0-.913-4.977-1.657-7.782Z" transform="translate(-382.352 -263.618)" fill="#02022b"/>
                      <path id="Trazado_1000472" data-name="Trazado 1000472" d="M394.366,257.293c.167,3.358-4.3,7.66-7.446,8-3.834.416-7.527-5.381-8.058-8.1-.446-2.285,5.3-5.462,8.461-5.616S394.2,253.935,394.366,257.293Z" transform="translate(-376.816 -251.573)" fill="#02022b"/>
                    </g>
                    <g id="Grupo_1179498" data-name="Grupo 1179498" transform="translate(2.493 7.318)">
                      <g id="Grupo_1179496" data-name="Grupo 1179496">
                        <g id="Grupo_1179494" data-name="Grupo 1179494" transform="translate(0 12.91)">
                          <path id="Trazado_1000473" data-name="Trazado 1000473" d="M367.187,238.644l4.417.009-.01,4.869-4.417-.009a2.449,2.449,0,0,1-2.457-2.439h0A2.449,2.449,0,0,1,367.187,238.644Z" transform="translate(-364.719 -238.644)" fill="#f7b27e" stroke="#f7b27e" stroke-miterlimit="10" stroke-width="2.171"/>
                          <path id="Trazado_1000474" data-name="Trazado 1000474" d="M367.693,240.659l1.823,0,0,2.01-1.823,0a1.011,1.011,0,0,1-1.014-1.007h0A1.01,1.01,0,0,1,367.693,240.659Z" transform="translate(-365.404 -239.364)" fill="#d46f4c" stroke="#d46f4c" stroke-miterlimit="10" stroke-width="2.148"/>
                        </g>
                        <g id="Grupo_1179495" data-name="Grupo 1179495" transform="translate(27.763 12.653)">
                          <path id="Trazado_1000475" data-name="Trazado 1000475" d="M411.823,243.653l-4.377-.583.658-4.826,4.377.583a2.44,2.44,0,0,1,2.111,2.738h0A2.457,2.457,0,0,1,411.823,243.653Z" transform="translate(-407.446 -238.244)" fill="#f7b27e" stroke="#f7b27e" stroke-miterlimit="10" stroke-width="2.171"/>
                          <path id="Trazado_1000476" data-name="Trazado 1000476" d="M413.872,241.122l-1.8-.271-.306,1.987,1.8.271a1.015,1.015,0,0,0,1.158-.842h0A1.006,1.006,0,0,0,413.872,241.122Z" transform="translate(-408.958 -239.176)" fill="#d46f4c" stroke="#d46f4c" stroke-miterlimit="10" stroke-width="2.148"/>
                        </g>
                        <path id="Trazado_1000477" data-name="Trazado 1000477" d="M386.559,218.687h0c8.126,1.1,12.541,8.518,11.427,16.553l-.085.614c-1.114,8.035-8.541,14.34-15.348,13.306l-.057-.023c-5.357-1.068-13.689-9.255-12.575-17.289l.085-.614A14.645,14.645,0,0,1,386.559,218.687Z" transform="translate(-366.506 -218.549)" fill="#f7b27e" stroke="#f7b27e" stroke-miterlimit="10" stroke-width="2.171"/>
                      </g>
                      <g id="Grupo_1179497" data-name="Grupo 1179497" transform="translate(12.74 12.129)">
                        <path id="Trazado_1000478" data-name="Trazado 1000478" d="M395.3,243.545a.955.955,0,0,0,.738,1.1c.446.029.839-.419.877-1a.955.955,0,0,0-.738-1.1C395.727,242.515,395.335,242.963,395.3,243.545Z" transform="translate(-388.167 -239.257)" fill="#02022b"/>
                        <path id="Trazado_1000479" data-name="Trazado 1000479" d="M385.6,242.938a.954.954,0,0,0,.652,1.156c.443.062.868-.356.951-.932a.953.953,0,0,0-.652-1.156C386.108,241.943,385.682,242.361,385.6,242.938Z" transform="translate(-384.767 -239.063)" fill="#02022b"/>
                        <path id="Trazado_1000480" data-name="Trazado 1000480" d="M389.4,247.03l2.123.2c.261.024.468-.295.388-.6l-.712-2.73a.334.334,0,0,0-.64-.089l-1.412,2.531C388.985,246.625,389.123,247,389.4,247.03Z" transform="translate(-385.99 -239.636)" fill="#d97570"/>
                        <path id="Trazado_1000481" data-name="Trazado 1000481" d="M384.489,238.22c-.692.034.993-.993,1.759-.757a1.349,1.349,0,0,1,1.014,1.611A4.29,4.29,0,0,0,384.489,238.22Z" transform="translate(-384.326 -237.428)" fill="#02022b"/>
                        <path id="Trazado_1000482" data-name="Trazado 1000482" d="M398.255,238.706c.678.137-.829-1.131-1.622-1.013a1.353,1.353,0,0,0-1.25,1.439A4.307,4.307,0,0,1,398.255,238.706Z" transform="translate(-388.194 -237.52)" fill="#02022b"/>
                        <path id="Trazado_1000483" data-name="Trazado 1000483" d="M388.381,254.132h0c.135-.668,1.216-1.737,2.972-2.27a24.442,24.442,0,0,1,4.188-.267" transform="translate(-385.746 -242.493)" fill="none" stroke="#d46f4c" stroke-miterlimit="10" stroke-width="0.938"/>
                      </g>
                    </g>
                    <g id="Grupo_1179499" data-name="Grupo 1179499" transform="translate(4.754 3.688)">
                      <path id="Trazado_1000484" data-name="Trazado 1000484" d="M378.822,217.354c17.079,6.771,21.786,12.085,21.786,12.085s.731-19.224-20.128-16.221C367.006,215.157,377.778,216.94,378.822,217.354Z" transform="translate(-370.145 -212.899)" fill="#02022b"/>
                      <path id="Trazado_1000485" data-name="Trazado 1000485" d="M378.605,218.9s-4.55,9.492-5.828,11.2c-1.46,1.948-4.524.5-4.524.5S366.816,217.234,378.605,218.9Z" transform="translate(-368.198 -214.994)" fill="#02022b"/>
                    </g>
                  </g>
                  <g id="Grupo_1179502" data-name="Grupo 1179502" transform="translate(0 47.967)">
                    <g id="Grupo_1179501" data-name="Grupo 1179501">
                      <path id="Trazado_1000486" data-name="Trazado 1000486" d="M415.714,318.106l-11.049-26.883c.686.2-5.373-3.444-10.118-2.794a11.46,11.46,0,0,0-3.88,1.22l-9.572-2.626c-11.038,7.4-20.851-3.406-20.851-3.406-8.447-6.594-30.391,7.086-30.391,7.086l5.94,10.5s7.78,28.792,7.832,29.764c.48,9.034,2.309,23.432,2.434,23.192s46.707,7.543,47.083,6.824.444-6.154,1.334-25.935c.117-2.6.2-12.331.2-14.86Z" transform="translate(-329.853 -281.82)" fill="#ff4f4d"/>
                    </g>
                  </g>
                  <g id="Grupo_1179503" data-name="Grupo 1179503" transform="translate(45.147 13.822)">
                    <path id="Trazado_1000487" data-name="Trazado 1000487" d="M437.927,322.094h0a17.089,17.089,0,0,1-19.22-17.922l1.521-23.842,25.665-3.1,6.513,23.528A16.992,16.992,0,0,1,437.927,322.094Z" transform="translate(-406.107 -246.033)" fill="#fdb375"/>
                    <path id="Trazado_1000488" data-name="Trazado 1000488" d="M418.573,284.762c-.017,0-21.665-16.546-19.013-18.2,1.709-1.064,7.452.383,11.321,1.546a2.562,2.562,0,0,0,3.109-3.013c-.836-5.821-2.429-16.465-3.937-24.08-2.177-10.991.7-12.2,7.632,5.654s-1.3-16.654,1.185-16.948,6.76,18.985,9.06,19.6-2.6-18.873,1.085-20.553,5.509,18.794,6.779,19.661.051-13.439,1.689-13.8c5.776-1.286,6.87,42.456,6.33,45.4,0,.009-.007.017-.008.027s-1.957,6.711-12.476,8.308C431.326,288.365,424.9,290.069,418.573,284.762Z" transform="translate(-399.334 -228.673)" fill="#fdbe8b"/>
                  </g>
                </g>
              </g>
              <g id="Grupo_1179527" data-name="Grupo 1179527" transform="translate(108.628 27.337)">
                <g id="Grupo_1179515" data-name="Grupo 1179515" transform="translate(0 168.513)">
                  <g id="Grupo_1179514" data-name="Grupo 1179514">
                    <g id="Grupo_1179508" data-name="Grupo 1179508" transform="translate(93.59 234.297)">
                      <g id="Grupo_1179507" data-name="Grupo 1179507">
                        <path id="Trazado_1000489" data-name="Trazado 1000489" d="M370.539,747.087l1.244,21.1,43.186-1.314L390.36,756.767l-2.449-10.625Z" transform="translate(-370.539 -746.142)" fill="#fdcac6"/>
                        <path id="Trazado_1000490" data-name="Trazado 1000490" d="M387.911,746.142l-16.128,22.044-1.244-21.1Z" transform="translate(-370.539 -746.142)" fill="#d97871"/>
                        <path id="Trazado_1000491" data-name="Trazado 1000491" d="M393.023,761.6l22.182,10.8-43.186,1.314-.806-11.006Z" transform="translate(-370.775 -751.669)" fill="#1e2f52"/>
                        <rect id="Rectángulo_455395" data-name="Rectángulo 455395" width="43.933" height="6.889" transform="translate(1.029 21.73) rotate(-1.341)" fill="#f40648"/>
                        <g id="Grupo_1179506" data-name="Grupo 1179506" transform="translate(20.186 11.328)">
                          <line id="Línea_3312" data-name="Línea 3312" x1="4.732" y2="3" fill="none" stroke="#fff" stroke-miterlimit="10" stroke-width="1.124"/>
                          <line id="Línea_3313" data-name="Línea 3313" x1="4.732" y2="3" transform="translate(4.224 1.967)" fill="none" stroke="#fff" stroke-miterlimit="10" stroke-width="1.124"/>
                        </g>
                      </g>
                    </g>
                    <g id="Grupo_1179511" data-name="Grupo 1179511" transform="translate(4.952 234.149)">
                      <g id="Grupo_1179510" data-name="Grupo 1179510" transform="translate(0)">
                        <path id="Trazado_1000492" data-name="Trazado 1000492" d="M274.259,746.8l3.545,22.376-43.2.687,24.687-11.79-1.348-12.162Z" transform="translate(-234.293 -745.911)" fill="#fdcac6"/>
                        <path id="Trazado_1000493" data-name="Trazado 1000493" d="M270.523,745.911l16.316.89,3.545,22.376Z" transform="translate(-246.873 -745.911)" fill="#d97871"/>
                        <path id="Trazado_1000494" data-name="Trazado 1000494" d="M256.25,764.61,234.6,776.423l43.2-.687-1.539-11.479Z" transform="translate(-234.293 -752.47)" fill="#1e2f52"/>
                        <g id="Grupo_1179509" data-name="Grupo 1179509" transform="translate(14.46 13.675)">
                          <line id="Línea_3314" data-name="Línea 3314" x2="4.869" y2="2.779" transform="translate(4.125)" fill="none" stroke="#fff" stroke-miterlimit="10" stroke-width="1.124"/>
                          <line id="Línea_3315" data-name="Línea 3315" x2="4.869" y2="2.778" transform="translate(0 2.161)" fill="none" stroke="#fff" stroke-miterlimit="10" stroke-width="1.124"/>
                        </g>
                        <rect id="Rectángulo_455396" data-name="Rectángulo 455396" width="43.933" height="6.889" transform="translate(0 23.954) rotate(-1.341)" fill="#f40648"/>
                      </g>
                    </g>
                    <g id="Grupo_1179513" data-name="Grupo 1179513">
                      <path id="Trazado_1000495" data-name="Trazado 1000495" d="M252.228,381.459,290.006,385s11.709,3.78,53.3,230.3L319.183,616.9,269.306,446a2.2,2.2,0,0,0-4.315.7L277.409,618.08l-25.34-1.3s-34.531-172.64-23.329-200.55S252.228,381.459,252.228,381.459Z" transform="translate(-226.504 -381.459)" fill="#ff9830"/>
                      <g id="Grupo_1179512" data-name="Grupo 1179512" transform="translate(3.677 3.218)">
                        <path id="Trazado_1000496" data-name="Trazado 1000496" d="M232.163,414.591s15.355,6.026,23.335-7.378,10.111-20.745,10.111-20.745" transform="translate(-232.163 -386.468)" fill="none" stroke="#000" stroke-miterlimit="10" stroke-width="1.124"/>
                        <path id="Trazado_1000497" data-name="Trazado 1000497" d="M308.969,387.324s-.758,30.08,8.3,32.834,13.42,2.2,13.42,2.2" transform="translate(-259.057 -386.774)" fill="none" stroke="#000" stroke-miterlimit="10" stroke-width="1.124"/>
                        <line id="Línea_3316" data-name="Línea 3316" x2="46.991" y2="197.38" transform="translate(58.208 33.384)" fill="none" stroke="#000" stroke-miterlimit="10" stroke-width="1.124"/>
                        <line id="Línea_3317" data-name="Línea 3317" x2="22.791" y2="203.213" transform="translate(9.247 29.276)" fill="none" stroke="#000" stroke-miterlimit="10" stroke-width="1.124"/>
                      </g>
                      <path id="Trazado_1000498" data-name="Trazado 1000498" d="M290.139,386.056l-38.724-3.007s-27,25.214-24.389,47.715Z" transform="translate(-226.625 -382.028)" fill="#f0c03b" opacity="0.51"/>
                    </g>
                  </g>
                </g>
                <g id="Grupo_1179525" data-name="Grupo 1179525" transform="translate(5.727)">
                  <g id="Grupo_1179523" data-name="Grupo 1179523" transform="translate(24.827 39.173)">
                    <path id="Trazado_1000499" data-name="Trazado 1000499" d="M297.412,187.318a7.914,7.914,0,0,0-8.1-7.173h0a7.9,7.9,0,0,0-7.75,7.55c-11.569,6.186-5.175,22.968-5.175,22.968a17.073,17.073,0,0,0,1.886,2.543l-4.749,36.842s16.392,20.454,25.195,3.28.532-1.116.532-1.116l-1-35.358a25.319,25.319,0,0,0,7.939-8.481C307.368,202.65,305.088,191.6,297.412,187.318Z" transform="translate(-273.526 -180.143)"/>
                    <g id="Grupo_1179516" data-name="Grupo 1179516" transform="translate(6.721 35.524)">
                      <path id="Trazado_1000500" data-name="Trazado 1000500" d="M286.684,236.721s-2.552,24.112-2.814,26.052c0,0,10.832,12.182,21.359,1.247,0,0-1.961-5.787-5.633-20.721Z" transform="translate(-283.87 -235.895)" fill="#fdcac6" stroke="#fdcac6" stroke-linecap="round" stroke-linejoin="round" stroke-miterlimit="10" stroke-width="2.165"/>
                      <path id="Trazado_1000501" data-name="Trazado 1000501" d="M302.123,241.131c.088,3.261-4.337,7.337-7.4,7.6-3.728.321-7.183-5.381-7.638-8.029-.383-2.226,5.259-5.185,8.331-5.266S302.035,237.871,302.123,241.131Z" transform="translate(-284.99 -235.435)"/>
                    </g>
                    <g id="Grupo_1179521" data-name="Grupo 1179521" transform="translate(0.234 14.388)">
                      <g id="Grupo_1179519" data-name="Grupo 1179519">
                        <g id="Grupo_1179517" data-name="Grupo 1179517" transform="translate(0 13.567)">
                          <path id="Trazado_1000502" data-name="Trazado 1000502" d="M276.05,224.052l4.266-.4.449,4.7-4.266.4a2.382,2.382,0,0,1-2.6-2.13h0A2.37,2.37,0,0,1,276.05,224.052Z" transform="translate(-273.885 -223.654)" fill="#fdcac6" stroke="#fdcac6" stroke-linecap="round" stroke-linejoin="round" stroke-miterlimit="10" stroke-width="2.165"/>
                          <path id="Trazado_1000503" data-name="Trazado 1000503" d="M276.658,226.153l1.761-.164.185,1.942-1.761.164a.983.983,0,0,1-1.075-.879h0A.979.979,0,0,1,276.658,226.153Z" transform="translate(-274.544 -224.489)" fill="#e09691" stroke="#e09691" stroke-linecap="round" stroke-linejoin="round" stroke-miterlimit="10" stroke-width="2.165"/>
                        </g>
                        <g id="Grupo_1179518" data-name="Grupo 1179518" transform="translate(27.024 11.328)">
                          <path id="Trazado_1000504" data-name="Trazado 1000504" d="M319.758,225.049l-4.282-.161.181-4.721,4.282.161a2.373,2.373,0,0,1,2.3,2.45h0A2.378,2.378,0,0,1,319.758,225.049Z" transform="translate(-315.476 -220.168)" fill="#fdcac6" stroke="#fdcac6" stroke-linecap="round" stroke-linejoin="round" stroke-miterlimit="10" stroke-width="2.165"/>
                          <path id="Trazado_1000505" data-name="Trazado 1000505" d="M321.351,222.432l-1.766-.1-.109,1.947,1.767.1a.982.982,0,0,0,1.039-.92h0A.979.979,0,0,0,321.351,222.432Z" transform="translate(-316.877 -220.943)" fill="#e09691" stroke="#e09691" stroke-linecap="round" stroke-linejoin="round" stroke-miterlimit="10" stroke-width="2.165"/>
                        </g>
                        <path id="Trazado_1000506" data-name="Trazado 1000506" d="M293.507,202.548h0c7.951.316,12.914,7.072,12.594,14.934l-.025.6c-.32,7.862-6.9,14.635-13.57,14.263l-.057-.017c-5.274-.539-14.092-7.678-13.773-15.54l.025-.6A14.173,14.173,0,0,1,293.507,202.548Z" transform="translate(-275.561 -202.537)" fill="#fdcac6" stroke="#fdcac6" stroke-linecap="round" stroke-linejoin="round" stroke-miterlimit="10" stroke-width="2.165"/>
                      </g>
                      <g id="Grupo_1179520" data-name="Grupo 1179520" transform="translate(11.061 11.83)">
                        <path id="Trazado_1000507" data-name="Trazado 1000507" d="M303.79,226.478a.813.813,0,1,0,.752-1.047A.93.93,0,0,0,303.79,226.478Z" transform="translate(-295.419 -222.552)" fill="#03022b"/>
                        <path id="Trazado_1000508" data-name="Trazado 1000508" d="M294.371,226.793a.813.813,0,1,0,.83-.988A.927.927,0,0,0,294.371,226.793Z" transform="translate(-292.12 -222.686)" fill="#03022b"/>
                        <path id="Trazado_1000509" data-name="Trazado 1000509" d="M298.517,230.347l2.07,0c.255,0,.424-.328.318-.616l-.944-2.571a.324.324,0,0,0-.626-.028l-1.125,2.574C298.081,229.993,298.251,230.347,298.517,230.347Z" transform="translate(-293.45 -223.078)" fill="#d97871"/>
                        <path id="Trazado_1000510" data-name="Trazado 1000510" d="M291.08,222.7c-.627.24.609-1.214,1.387-1.228a1.319,1.319,0,0,1,1.43,1.178A4.183,4.183,0,0,0,291.08,222.7Z" transform="translate(-290.908 -221.137)" fill="#03022b"/>
                        <path id="Trazado_1000511" data-name="Trazado 1000511" d="M307.548,222.064c.645.188-.706-1.161-1.483-1.113a1.316,1.316,0,0,0-1.329,1.289A4.175,4.175,0,0,1,307.548,222.064Z" transform="translate(-295.751 -220.95)" fill="#03022b"/>
                        <path id="Trazado_1000512" data-name="Trazado 1000512" d="M295.917,234.907s4.179-2.167,6.168,1.189" transform="translate(-292.662 -225.694)" fill="none" stroke="#d97871" stroke-miterlimit="10" stroke-width="0.938"/>
                      </g>
                    </g>
                    <g id="Grupo_1179522" data-name="Grupo 1179522" transform="translate(1.752 10.456)">
                      <path id="Trazado_1000513" data-name="Trazado 1000513" d="M286.221,200.889c5.537,7.709,21.372,10.515,21.372,10.515s.307-17.941-19.857-14.565C274.709,199.021,285.589,200.009,286.221,200.889Z" transform="translate(-278.024 -196.417)"/>
                      <path id="Trazado_1000514" data-name="Trazado 1000514" d="M286.086,202.438s-4.2,9.309-5.4,10.991c-1.372,1.922-4.376.589-4.376.589S274.613,201.081,286.086,202.438Z" transform="translate(-276.223 -198.534)"/>
                    </g>
                  </g>
                  <g id="Grupo_1179524" data-name="Grupo 1179524">
                    <path id="Trazado_1000515" data-name="Trazado 1000515" d="M253.293,323.747" transform="translate(-241.613 -192.312)" fill="#fff"/>
                    <path id="Trazado_1000516" data-name="Trazado 1000516" d="M238.271,193.3c.2-.3,3.478-59.137,4.188-66.673A3.171,3.171,0,0,1,244.408,124l11.019-4.579a3.215,3.215,0,0,1,4.272,1.891h0a3.142,3.142,0,0,1,.173.932l.354,11.283a5.218,5.218,0,0,1-2.448,4.577h0l.218,49.584Z" transform="translate(-236.352 -119.169)" fill="#fdcac6" stroke="#fdcac6" stroke-linecap="round" stroke-linejoin="round" stroke-miterlimit="10" stroke-width="2.165"/>
                    <path id="Trazado_1000517" data-name="Trazado 1000517" d="M260.2,221.656a273.224,273.224,0,0,1,4.017,33.524s5.519,8,13.45,7.818,10.556-4.363,10.556-4.363l33.215,8L326.9,278.45c2.448,6.416-5.969,15.25-12.9,15.41l-11.7,3.877s-2.93,22.871-2.721,31.694l-52.615-5.489-4.863-35.5s-7.295-48.889-6.754-60.376Z" transform="translate(-235.317 -155.812)" fill="#fff"/>
                    <path id="Trazado_1000518" data-name="Trazado 1000518" d="M262.389,128.283c-.238,0-7.7,2.771-12.465,4.551a3.521,3.521,0,0,1-4.7-2.6l-.68-3.509a2.687,2.687,0,0,1,1.972-2.657c1.316-.527,6.887-2.833,11.111-4.585a3.512,3.512,0,0,1,4.876,3.281Z" transform="translate(-238.548 -119.184)" fill="#fdbcb7"/>
                    <path id="Trazado_1000519" data-name="Trazado 1000519" d="M266.843,136.062l-8.582-1.227a1.462,1.462,0,0,0-1.558.878h0a1.431,1.431,0,0,0,.357,1.607l7.21,6.6s2.573-1.616,2.573-3.585C266.843,138.259,266.843,136.062,266.843,136.062Z" transform="translate(-242.768 -124.765)" fill="#fdd0cd"/>
                  </g>
                </g>
                <g id="Grupo_1179526" data-name="Grupo 1179526" transform="translate(47.097 54.929)">
                  <path id="Trazado_1000520" data-name="Trazado 1000520" d="M343.007,307.939h0a18.94,18.94,0,0,1-21.754-19.354l1.058-26.441,28.34-4.091,7.83,25.888A18.811,18.811,0,0,1,343.007,307.939Z" transform="translate(-306.78 -223.754)" fill="#fdbcb7"/>
                  <path id="Trazado_1000521" data-name="Trazado 1000521" d="M320.757,267.059c-.019,0-24.426-17.767-21.532-19.663,1.864-1.222,8.262.233,12.578,1.422a2.836,2.836,0,0,0,3.364-3.417c-1.079-6.424-3.122-18.171-4.992-26.566-2.7-12.116.451-13.526,8.6,6.066s-1.873-18.409.868-18.8,7.984,20.851,10.548,21.471-3.38-20.834.661-22.788,6.593,20.671,8.022,21.6-.3-14.884,1.508-15.33c6.363-1.572,8.722,46.84,8.2,50.117,0,.01-.007.02-.008.03s-1.992,7.482-13.6,9.52C334.975,270.722,327.908,272.773,320.757,267.059Z" transform="translate(-298.986 -204.667)" fill="#fdd0cd"/>
                </g>
              </g>
            </g>
          </g>
        </g>
      </g>
    </g>
  </g>
</svg>
