<svg xmlns="http://www.w3.org/2000/svg" width="70" height="70" viewBox="0 0 70 70">
  <g id="Grupo_1180397" data-name="Grupo 1180397" transform="translate(-220 -359)">
    <rect id="Rectángulo_455012" data-name="Rectángulo 455012" width="70" height="70" rx="10" transform="translate(220 359)" fill="#99bfb7"/>
    <g id="Grupo_1180396" data-name="Grupo 1180396" transform="translate(224.883 371.292)">
      <g id="Grupo_1180394" data-name="Grupo 1180394" transform="translate(8.795 0.665)">
        <g id="Grupo_1180393" data-name="Grupo 1180393">
          <path id="Trazado_1004161" data-name="Trazado 1004161" d="M436.04,136.439l-5.511,2.123v-11.31l5.511,2.123a.514.514,0,0,1,.329.479v6.105A.514.514,0,0,1,436.04,136.439Z" transform="translate(-393.726 -116.63)" fill="#df646e"/>
          <path id="Trazado_1004162" data-name="Trazado 1004162" d="M436.04,32.447l-5.511,2.123V23.26l5.511,2.123a.514.514,0,0,1,.329.479v6.105A.514.514,0,0,1,436.04,32.447Z" transform="translate(-393.726 -21.862)" fill="#ffa95f"/>
          <path id="Trazado_1004163" data-name="Trazado 1004163" d="M85.81,7.95v37.3a.45.45,0,0,0,.45.45h30.8a.45.45,0,0,0,.45-.45V7.95a.45.45,0,0,0-.45-.45H86.26A.45.45,0,0,0,85.81,7.95Z" transform="translate(-79.585 -7.5)" fill="#6cbff8"/>
          <path id="Trazado_1004164" data-name="Trazado 1004164" d="M405.346,7.5h-3.193a.45.45,0,0,1,.45.45v37.3a.45.45,0,0,1-.45.45h3.193a.45.45,0,0,0,.45-.45V7.95A.45.45,0,0,0,405.346,7.5Z" transform="translate(-367.867 -7.5)" fill="#5fa7ee"/>
          <path id="Trazado_1004165" data-name="Trazado 1004165" d="M44.9,94.778v35.483a.45.45,0,0,1-.45.45H24.309l-8.678-8.678V94.778a.45.45,0,0,1,.45-.45H44.454A.45.45,0,0,1,44.9,94.778Z" transform="translate(-15.631 -86.626)" fill="#ddebfd"/>
          <path id="Trazado_1004166" data-name="Trazado 1004166" d="M307.76,94.329h-3.193a.45.45,0,0,1,.45.45v35.483a.45.45,0,0,1-.45.45h3.193a.45.45,0,0,0,.45-.45V94.779A.45.45,0,0,0,307.76,94.329Z" transform="translate(-278.938 -86.627)" fill="#bed9fd"/>
          <path id="Trazado_1004167" data-name="Trazado 1004167" d="M73.531,141.013H70.668a.2.2,0,0,1-.2-.2v-2.863a.3.3,0,0,0-.3-.3H67.26a.3.3,0,0,0-.3.3v2.863a.2.2,0,0,1-.2.2H63.9a.3.3,0,0,0-.3.3v2.914a.3.3,0,0,0,.3.3h2.863a.2.2,0,0,1,.2.2v2.863a.3.3,0,0,0,.3.3h2.914a.3.3,0,0,0,.3-.3v-2.863a.2.2,0,0,1,.2-.2h2.863a.3.3,0,0,0,.3-.3V141.31A.3.3,0,0,0,73.531,141.013Z" transform="translate(-59.35 -126.11)" fill="#df646e"/>
          <path id="Trazado_1004168" data-name="Trazado 1004168" d="M253.266,141.951h-3.757a.269.269,0,0,1-.269-.269v-3.757a.269.269,0,0,1,.269-.269h3.757a.269.269,0,0,1,.269.269v3.757A.269.269,0,0,1,253.266,141.951Z" transform="translate(-228.518 -126.111)" fill="#5392f9"/>
          <path id="Trazado_1004169" data-name="Trazado 1004169" d="M24.309,415.349v-7.787a.89.89,0,0,0-.89-.89H15.631Z" transform="translate(-15.631 -371.263)" fill="#bed9fd"/>
        </g>
      </g>
      <g id="Grupo_1180395" data-name="Grupo 1180395" transform="translate(8.13 0)">
        <path id="Trazado_1004170" data-name="Trazado 1004170" d="M52.1,10.771V4.666a1.186,1.186,0,0,0-.755-1.1L47.39,2.04V1.115A1.117,1.117,0,0,0,46.274,0H15.47a1.116,1.116,0,0,0-1.115,1.115V7.7H9.245A1.116,1.116,0,0,0,8.13,8.817v8.5a.665.665,0,0,0,1.331,0V9.033H37.4V44.085H18.138V36.963a1.557,1.557,0,0,0-1.555-1.555H9.461V20.427a.665.665,0,0,0-1.331,0V36.073a.671.671,0,0,0,.195.47L17,45.221a.669.669,0,0,0,.47.195H37.618A1.116,1.116,0,0,0,38.733,44.3V39.529h7.541a1.117,1.117,0,0,0,1.116-1.115V30.583a.665.665,0,0,0-1.331,0V38.2H38.733V8.817A1.116,1.116,0,0,0,37.618,7.7H15.686V1.331H46.059V27.478a.665.665,0,0,0,1.331,0V22.621L51.348,21.1A1.186,1.186,0,0,0,52.1,20V13.89a1.186,1.186,0,0,0-.755-1.1l-1.193-.46,1.193-.46a1.186,1.186,0,0,0,.755-1.1Zm-35.3,26.192v6.181L10.4,36.738h6.181A.225.225,0,0,1,16.808,36.963ZM50.773,13.994v5.9l-3.383,1.3V13.4l.916-.353Zm0-3.328-3.383,1.3v-8.5l3.383,1.3Z" transform="translate(-8.13 0)"/>
        <path id="Trazado_1004171" data-name="Trazado 1004171" d="M156.07,416.023H142.953a.665.665,0,1,0,0,1.331h13.116a.665.665,0,0,0,0-1.331Z" transform="translate(-130.388 -379.121)"/>
        <path id="Trazado_1004172" data-name="Trazado 1004172" d="M56.77,303.611h2.847a.665.665,0,1,0,0-1.331H56.77a.665.665,0,1,0,0,1.331Z" transform="translate(-51.849 -275.467)"/>
        <path id="Trazado_1004173" data-name="Trazado 1004173" d="M142.288,302.945a.665.665,0,0,0,.665.665h13.116a.665.665,0,1,0,0-1.331H142.953A.665.665,0,0,0,142.288,302.945Z" transform="translate(-130.388 -275.467)"/>
        <path id="Trazado_1004174" data-name="Trazado 1004174" d="M56.77,360.483h2.847a.665.665,0,0,0,0-1.331H56.77a.665.665,0,0,0,0,1.331Z" transform="translate(-51.849 -327.294)"/>
        <path id="Trazado_1004175" data-name="Trazado 1004175" d="M156.07,359.152H142.953a.665.665,0,0,0,0,1.331h13.116a.665.665,0,0,0,0-1.331Z" transform="translate(-130.388 -327.294)"/>
        <path id="Trazado_1004176" data-name="Trazado 1004176" d="M63.339,130.155H60.425a.963.963,0,0,0-.962.962v2.4h-2.4a.963.963,0,0,0-.962.962v2.914a.963.963,0,0,0,.962.962h2.4v2.4a.963.963,0,0,0,.962.962h2.914a.963.963,0,0,0,.962-.962v-2.4h2.4a.963.963,0,0,0,.962-.962v-2.914a.963.963,0,0,0-.962-.962H64.3v-2.4A.963.963,0,0,0,63.339,130.155Zm2.989,4.688v2.177H63.834a.864.864,0,0,0-.863.863v2.495H60.793v-2.495a.864.864,0,0,0-.863-.863H57.436v-2.177H59.93a.864.864,0,0,0,.863-.863v-2.495H62.97v2.495a.864.864,0,0,0,.863.863Z" transform="translate(-51.849 -118.61)"/>
        <path id="Trazado_1004177" data-name="Trazado 1004177" d="M246.431,135.781a.935.935,0,0,0,.934-.934V131.09a.935.935,0,0,0-.934-.934h-3.757a.935.935,0,0,0-.934.934v3.757a.935.935,0,0,0,.934.934Zm-3.361-4.295h2.964v2.964h-2.964Z" transform="translate(-221.018 -118.611)"/>
      </g>
    </g>
  </g>
</svg>
