<svg xmlns="http://www.w3.org/2000/svg" width="80" height="80" viewBox="0 0 80 80">
  <g id="Grupo_1178446" data-name="Grupo 1178446" transform="translate(-216 -2416)">
    <rect id="Rectángulo_455073" data-name="Rectángulo 455073" width="80" height="80" rx="10" transform="translate(216 2416)" fill="#bbded6"/>
    <g id="Grupo_1178445" data-name="Grupo 1178445" transform="translate(229.882 2429.882)">
      <g id="Grupo_1178443" data-name="Grupo 1178443" transform="translate(0.765 0.765)">
        <g id="Grupo_1178441" data-name="Grupo 1178441">
          <path id="Trazado_999041" data-name="Trazado 999041" d="M43.463,94.792v2.263L40.217,100.3l3.246,3.246v2.263a3.07,3.07,0,0,0,3.061,3.061h8.621a3.072,3.072,0,0,0,3.061-3.061V94.792a3.071,3.071,0,0,0-3.061-3.061H46.524A3.07,3.07,0,0,0,43.463,94.792ZM7.5,78.06V89.078a3.071,3.071,0,0,0,3.061,3.061h8.621a3.07,3.07,0,0,0,3.061-3.061V86.816l3.246-3.246-3.246-3.246V78.06A3.07,3.07,0,0,0,19.182,75H10.561A3.071,3.071,0,0,0,7.5,78.06Z" transform="translate(-7.5 -68.112)" fill="#9ce3bf" fill-rule="evenodd"/>
          <path id="Trazado_999042" data-name="Trazado 999042" d="M103.7,52.085H71.561V31.527H68.5V56.676a1.535,1.535,0,0,0,1.53,1.53h35.2a1.535,1.535,0,0,0,1.53-1.53V48.259H103.7Zm-32.138-37.7V10.561H103.7V31.119h3.061V9.03a1.535,1.535,0,0,0-1.53-1.53H70.03A1.535,1.535,0,0,0,68.5,9.03v5.356Z" transform="translate(-62.277 -7.5)" fill="#b0c5e0" fill-rule="evenodd"/>
          <path id="Trazado_999043" data-name="Trazado 999043" d="M98.5,79.024h32.138V75.2h-2.4a3.071,3.071,0,0,1-3.061-3.061V69.874l-3.246-3.246,3.246-3.246V61.119a3.07,3.07,0,0,1,3.061-3.061h2.4V37.5H98.5v3.826h2.4a3.07,3.07,0,0,1,3.061,3.061V46.65L107.2,49.9l-3.246,3.246v2.263a3.07,3.07,0,0,1-3.061,3.061H98.5Zm13.773-18.466h-3.061V55.966h3.061V52.906h4.591v3.061h3.061v4.591h-3.061v3.061h-4.591Z" transform="translate(-89.216 -34.439)" fill="#a4d7f5" fill-rule="evenodd"/>
          <path id="Trazado_999044" data-name="Trazado 999044" d="M206.561,199.213h4.591v-3.061h3.061v-4.591h-3.061V188.5h-4.591v3.061H203.5v4.591h3.061Z" transform="translate(-183.503 -170.034)" fill="#d15573" fill-rule="evenodd"/>
          <path id="Trazado_999045" data-name="Trazado 999045" d="M7.5,78.06V89.078a3.071,3.071,0,0,0,3.061,3.061h2.3A3.071,3.071,0,0,1,9.8,89.078V78.06A3.071,3.071,0,0,1,12.856,75h-2.3A3.071,3.071,0,0,0,7.5,78.06Z" transform="translate(-7.5 -68.112)" fill="#52cd8d" fill-rule="evenodd"/>
          <path id="Trazado_999046" data-name="Trazado 999046" d="M331.423,242.061v2.263l-3.246,3.246,3.246,3.246v2.263a3.07,3.07,0,0,0,3.061,3.061h2.3a3.07,3.07,0,0,1-3.061-3.061v-3.028l-2.481-2.481,2.481-2.481v-3.028A3.07,3.07,0,0,1,336.78,239h-2.3A3.07,3.07,0,0,0,331.423,242.061Z" transform="translate(-295.46 -215.381)" fill="#52cd8d" fill-rule="evenodd"/>
          <path id="Trazado_999047" data-name="Trazado 999047" d="M70.8,31.527H68.5V56.676a1.535,1.535,0,0,0,1.53,1.53h2.3a1.535,1.535,0,0,1-1.53-1.53ZM72.326,7.5h-2.3A1.535,1.535,0,0,0,68.5,9.03v5.356h2.3V9.03A1.535,1.535,0,0,1,72.326,7.5Z" transform="translate(-62.277 -7.5)" fill="#7094c6" fill-rule="evenodd"/>
          <path id="Trazado_999048" data-name="Trazado 999048" d="M130.638,77.493V75.2h-2.4a3.071,3.071,0,0,1-3.061-3.061V69.873l-3.246-3.246,3.246-3.246V61.118a3.07,3.07,0,0,1,3.061-3.061h2.4v-2.3h-2.4a5.367,5.367,0,0,0-5.356,5.356V62.43l-4.2,4.2,4.2,4.2v1.312a5.367,5.367,0,0,0,5.356,5.356ZM98.5,79.023h2.3V60.761a5.362,5.362,0,0,0,5.459-5.356V54.092l4.2-4.2-4.2-4.2V44.386a5.362,5.362,0,0,0-5.459-5.356V37.5H98.5v3.826h2.4a3.07,3.07,0,0,1,3.061,3.061v2.263L107.2,49.9l-3.246,3.246V55.4a3.07,3.07,0,0,1-3.061,3.061H98.5Z" transform="translate(-89.216 -34.438)" fill="#6e91ef" fill-rule="evenodd"/>
        </g>
        <g id="Grupo_1178442" data-name="Grupo 1178442" transform="translate(37.596 5.356)">
          <path id="Trazado_999049" data-name="Trazado 999049" d="M377.53,64.59H376V63.06h1.53Zm0-3.061H376V60h1.53Z" transform="translate(-376 -59.999)" fill="#fff"/>
        </g>
      </g>
      <g id="Grupo_1178444" data-name="Grupo 1178444" transform="translate(0)">
        <path id="Trazado_999050" data-name="Trazado 999050" d="M368.5,497h1.53v1.53H368.5Z" transform="translate(-330.904 -446.294)"/>
        <path id="Trazado_999051" data-name="Trazado 999051" d="M400.3,284.058l-2.9,7.622,1.43.545.693-1.82h2.869l.686,1.819,1.432-.54-2.878-7.627Zm-.2,4.817.858-2.254.85,2.254Z" transform="translate(-356.85 -255.076)"/>
        <path id="Trazado_999052" data-name="Trazado 999052" d="M48.41,23.619h-2.4V2.3a2.3,2.3,0,0,0-2.3-2.3H8.519a2.3,2.3,0,0,0-2.3,2.3V6.887h-2.4A3.83,3.83,0,0,0,0,10.712v4.744H1.53V10.712a2.3,2.3,0,0,1,2.3-2.3h8.621a2.3,2.3,0,0,1,2.3,2.3v2.58l2.93,2.93-2.93,2.929v2.58a2.3,2.3,0,0,1-2.3,2.3H3.826a2.3,2.3,0,0,1-2.3-2.3V16.987H0v4.744a3.83,3.83,0,0,0,3.826,3.826h2.4V49.941a2.3,2.3,0,0,0,2.3,2.3H36.066v-1.53H8.519a.766.766,0,0,1-.765-.765V25.557h1.53V46.115H42.952V42.289h1.53v7.652a.766.766,0,0,1-.765.765H40.657v1.53h3.061a2.3,2.3,0,0,0,2.3-2.3V42.289h2.4a3.83,3.83,0,0,0,3.826-3.826V27.444A3.83,3.83,0,0,0,48.41,23.619ZM7.754,2.3a.766.766,0,0,1,.765-.765h35.2a.766.766,0,0,1,.765.765V23.619h-1.53V3.061H9.284V6.887H7.754ZM41.422,44.585H10.815V25.557h1.633a3.83,3.83,0,0,0,3.826-3.826V19.785l3.563-3.563-3.563-3.563V10.712a3.83,3.83,0,0,0-3.826-3.826H10.815v-2.3H41.422V23.619H39.789a3.83,3.83,0,0,0-3.826,3.826V29.39L32.4,32.954l3.563,3.563v1.946a3.83,3.83,0,0,0,3.826,3.826h1.633Zm9.284-6.121a2.3,2.3,0,0,1-2.3,2.3H39.789a2.3,2.3,0,0,1-2.3-2.3v-2.58l-2.93-2.929,2.93-2.93v-2.58a2.3,2.3,0,0,1,2.3-2.3H48.41a2.3,2.3,0,0,1,2.3,2.3Z" transform="translate(0)"/>
        <path id="Trazado_999053" data-name="Trazado 999053" d="M44.359,120.456a3.932,3.932,0,1,0,2.217,7.182l.974.974,1.082-1.082-.984-.984a3.934,3.934,0,0,0-3.289-6.09Zm2.168,4.968-1-1L44.443,125.5l1.02,1.02a2.4,2.4,0,1,1,1.065-1.1Z" transform="translate(-36.302 -108.167)"/>
        <path id="Trazado_999054" data-name="Trazado 999054" d="M205.182,181h-6.121v3.061H196v6.121h3.061v3.061h6.121v-3.061h3.061v-6.121h-3.061Zm1.53,4.591v3.061h-3.061v3.061h-3.061v-3.061H197.53v-3.061h3.061V182.53h3.061v3.061Z" transform="translate(-176.003 -162.534)"/>
        <path id="Trazado_999055" data-name="Trazado 999055" d="M248.5,467h1.53v1.53H248.5Z" transform="translate(-223.147 -419.355)"/>
      </g>
    </g>
  </g>
</svg>
