<svg xmlns="http://www.w3.org/2000/svg" width="33.516" height="40" viewBox="0 0 33.516 40">
  <g id="Grupo_1180408" data-name="Grupo 1180408" transform="translate(-41.5)">
    <path id="Trazado_1004220" data-name="Trazado 1004220" d="M236.588,250.556a.586.586,0,1,0-.315-1.129,4.11,4.11,0,0,1-2.028,0,.586.586,0,1,0-.315,1.129A5.229,5.229,0,0,0,236.588,250.556Z" transform="translate(-177.002 -229.92)" fill="#773b3d"/>
    <path id="Trazado_1004221" data-name="Trazado 1004221" d="M234.336,404.4a1.836,1.836,0,1,0-1.836-1.836A1.838,1.838,0,0,0,234.336,404.4Zm0-2.5a.664.664,0,1,1-.664.664A.665.665,0,0,1,234.336,401.9Z" transform="translate(-176.078 -369.421)" fill="#773b3d"/>
    <path id="Trazado_1004222" data-name="Trazado 1004222" d="M74.117,36.484H70.562V33.963a7.782,7.782,0,0,0-7.773-7.773h-.246l-1.356-1.13v-.508a9.051,9.051,0,0,0,5.9-6.678c1.6.3,2.931-1.234,2.931-3.049a3.175,3.175,0,0,0-1.482-2.809,11.037,11.037,0,0,0,.27-4.971,9.206,9.206,0,0,0-1.281-3.377.586.586,0,1,0-.979.644,7.962,7.962,0,0,1,1.109,2.954,10.008,10.008,0,0,1-.31,4.636,1.768,1.768,0,0,0-.832.849,3.921,3.921,0,0,0-.807-1.173c-.182-1.837-.078-3.858-1.64-4.836a2.679,2.679,0,0,0-2.495-.113,9.665,9.665,0,0,1-6.632,0,2.679,2.679,0,0,0-2.494.113c-1.566.98-1.459,3.012-1.64,4.836A3.921,3.921,0,0,0,50,12.753a1.759,1.759,0,0,0-.831-.849,10,10,0,0,1-.31-4.638c.581-3.014,2.152-6.094,9.4-6.094,2.928,0,5.182.518,6.7,1.54a.586.586,0,1,0,.655-.972C63.873.569,61.468,0,58.258,0,54.691,0,52.1.706,50.343,2.159a7.877,7.877,0,0,0-2.635,4.886,11,11,0,0,0,.235,4.844,3.065,3.065,0,0,0-1.75,2.937c0,2.056,1.612,3.509,3.217,2.977a8.931,8.931,0,0,0,1.64,3.646.586.586,0,0,0,.936-.706,7.763,7.763,0,0,1-1.536-3.9.593.593,0,0,0-.007-.066q-.005-.057-.01-.114a3.905,3.905,0,0,0,7-1.737h1.65a3.905,3.905,0,0,0,7,1.737q-.014.17-.035.337v.011a7.858,7.858,0,0,1-7.784,6.859h-.011a7.787,7.787,0,0,1-4.617-1.5.586.586,0,0,0-.69.947,8.982,8.982,0,0,0,2.383,1.243v.5l-1.356,1.13h-.246a7.7,7.7,0,0,0-4.085,1.159l-2.028-4.011a1.758,1.758,0,0,0-3.137,1.587l1.6,3.156h-.465a2.9,2.9,0,0,0-2.892,2.892v3.239a1.312,1.312,0,0,0,1.311,1.311h1.927v.962H42.4a.9.9,0,0,0-.9.9V39.1a.9.9,0,0,0,.9.9H68.272a.586.586,0,0,0,0-1.172h-25.6V37.656H73.844v1.172H70.78a.586.586,0,0,0,0,1.172h3.337a.9.9,0,0,0,.9-.9V37.383a.9.9,0,0,0-.9-.9ZM67.255,16.712c.042-.551.02-.835.026-2.1,0-.49.169-1.449.546-1.639a1.934,1.934,0,0,1,1.021,1.85C68.848,15.879,68.146,16.927,67.255,16.712ZM53.069,7.735a1.579,1.579,0,0,1,1.449-.014,10.9,10.9,0,0,0,7.48,0,1.579,1.579,0,0,1,1.449.014c.925.579.918,1.992,1.007,3a3.906,3.906,0,0,0-5.37,3.017h-1.65a3.907,3.907,0,0,0-5.37-3.017c.089-1.01.084-2.419,1.007-3Zm-5.7,7.09a1.831,1.831,0,0,1,1.174-1.895.584.584,0,0,0,.065.016c.438.079.627,1.126.631,1.668,0,1.319-.011,1.516.018,1.976C48.318,17.144,47.364,16.1,47.364,14.825ZM53.57,17.07A2.734,2.734,0,1,1,56.3,14.336,2.738,2.738,0,0,1,53.57,17.07Zm9.375,0a2.734,2.734,0,1,1,2.734-2.734A2.737,2.737,0,0,1,62.945,17.07Zm-2.4,8.984.938.781L60,28.484l-.936-1.517Zm-2.3-1.015h.011a9.028,9.028,0,0,0,1.752-.171v.139l-1.758,1.081L56.5,25.007V24.87A9.09,9.09,0,0,0,58.252,25.039Zm-2.287,1.015,1.485.913-.936,1.517-1.487-1.649Zm-2.239,1.307h.2l2.1,2.333a.742.742,0,0,0,1.183-.107l1.046-1.7,1.046,1.7a.742.742,0,0,0,1.183.107l2.1-2.333h.2a6.609,6.609,0,0,1,6.6,6.6v2.521H53.344l-.11-1.908a.585.585,0,0,0-.063-.244l-3-5.933a6.536,6.536,0,0,1,3.554-1.037Zm-1.571,8.855-.535-.443.5-.25ZM45.522,24.4a.586.586,0,0,1,1.046-.529l5.294,10.471-1.046.529L49.407,32.08V30.055a1.976,1.976,0,0,0-1.974-1.974h-.048Zm-1.635,9.816V30.973a1.722,1.722,0,0,1,1.72-1.72h1.826a.8.8,0,0,1,.8.8v3.494a.8.8,0,0,1-.8.8H44.026A.139.139,0,0,1,43.887,34.212Zm3.238,1.311h.308a1.977,1.977,0,0,0,1.806-1.178l.8,1.574h0a.585.585,0,0,0,.156.192l.45.373H47.125Z" fill="#773b3d"/>
  </g>
</svg>
