<svg xmlns="http://www.w3.org/2000/svg" width="40" height="29.883" viewBox="0 0 40 29.883">
  <g id="Grupo_1179556" data-name="Grupo 1179556" transform="translate(0 -64.75)">
    <path id="Trazado_1001232" data-name="Trazado 1001232" d="M90,387.249h1.172v1.172H90Z" transform="translate(-82.969 -297.304)" fill="#3e5d56"/>
    <path id="Trazado_1001233" data-name="Trazado 1001233" d="M414.5,387.249h1.172v1.172H414.5Z" transform="translate(-382.116 -297.304)" fill="#3e5d56"/>
    <path id="Trazado_1001234" data-name="Trazado 1001234" d="M40,114.36,38.111,113.1l-3.96-7.921H31.8v-.586a2.344,2.344,0,0,0-4.687,0v.586H0V108.7H1.172v-2.344H24.766V116.9H1.172v-7.031H0v15.82H3.558a4.1,4.1,0,0,0,8.118,0h13.09v-1.172H11.676a4.069,4.069,0,0,0-.354-1.172H29.264a4.069,4.069,0,0,0-.354,1.172H25.938v1.172H28.91a4.1,4.1,0,0,0,8.118,0H40Zm-3.292-1.444H28.281V108.7H34.6Zm-8.427-8.322a1.172,1.172,0,0,1,2.344,0v.586H28.281Zm-2.344,1.758h7.489l.586,1.172h-6.9v6.564H37.479l1.349.9V116.9H25.938Zm9.9,15.82a4.092,4.092,0,0,0-5.733,0H25.938v-4.1H35.9v2.344h2.93v1.758Zm1.235-2.93V118.07h1.758v1.172Zm-12.3-1.172v4.1H10.484a4.092,4.092,0,0,0-5.733,0H1.172v-4.1ZM1.172,123.344h2.74a4.069,4.069,0,0,0-.354,1.172H1.172Zm6.445,4.688a2.93,2.93,0,1,1,2.93-2.93,2.933,2.933,0,0,1-2.93,2.93Zm25.352,0a2.93,2.93,0,1,1,2.93-2.93A2.933,2.933,0,0,1,32.969,128.031Zm4.059-3.516a4.069,4.069,0,0,0-.354-1.172h2.154v1.172Z" transform="translate(0 -34.57)" fill="#3e5d56"/>
    <path id="Trazado_1001235" data-name="Trazado 1001235" d="M389.455,199.748h1.172v1.172h-1.172Z" transform="translate(-359.029 -124.451)" fill="#3e5d56"/>
    <path id="Trazado_1001236" data-name="Trazado 1001236" d="M419.455,199.748h1.172v1.172h-1.172Z" transform="translate(-386.685 -124.451)" fill="#3e5d56"/>
    <path id="Trazado_1001237" data-name="Trazado 1001237" d="M115.551,169.75V171.8H113.5v4.1h2.051v2.051h4.1V175.9H121.7v-4.1h-2.051V169.75Zm4.98,3.223v1.758H118.48v2.051h-1.758V174.73h-2.051v-1.758h2.051v-2.051h1.758v2.051Z" transform="translate(-104.633 -96.797)" fill="#3e5d56"/>
    <path id="Trazado_1001238" data-name="Trazado 1001238" d="M0,0H1.758V1.172H0Z" transform="translate(31.521 67.126) rotate(-45)" fill="#3e5d56"/>
    <path id="Trazado_1001239" data-name="Trazado 1001239" d="M369.5,64.75h1.172v1.758H369.5Z" transform="translate(-340.633)" fill="#3e5d56"/>
    <path id="Trazado_1001240" data-name="Trazado 1001240" d="M0,0H1.172V1.758H0Z" transform="translate(25.306 66.71) rotate(-45)" fill="#3e5d56"/>
  </g>
</svg>
