<svg xmlns="http://www.w3.org/2000/svg" width="96" height="96" viewBox="0 0 96 96">
  <g id="Grupo_1177939" data-name="Grupo 1177939" transform="translate(-383.746 -8400.001)">
    <path id="Trazado_997400" data-name="Trazado 997400" d="M48,0A48,48,0,1,1,0,48,48,48,0,0,1,48,0Z" transform="translate(383.746 8400.001)" fill="#ffbdb6"/>
    <g id="Grupo_1179624" data-name="Grupo 1179624" transform="translate(361.334 8417.365)">
      <path id="Trazado_1001488" data-name="Trazado 1001488" d="M133.009,70.122V67.007a2.25,2.25,0,0,0-2.247-2.247H128.72a12.046,12.046,0,0,0-.6-1.476l1.437-1.437a2.246,2.246,0,0,0,0-3.178l-2.2-2.2a2.246,2.246,0,0,0-3.178,0l-1.384,1.384a11.97,11.97,0,0,0-1.53-.656V55.259a2.25,2.25,0,0,0-2.247-2.247H115.9a2.249,2.249,0,0,0-2.246,2.247v1.828a11.932,11.932,0,0,0-1.637.655l-1.277-1.276a2.244,2.244,0,0,0-3.177,0l-2.2,2.2a2.253,2.253,0,0,0,0,3.177l1.224,1.224a11.941,11.941,0,0,0-.71,1.69h-1.722a2.249,2.249,0,0,0-2.246,2.247v3.115a2.249,2.249,0,0,0,2.246,2.246h1.722a11.945,11.945,0,0,0,.71,1.69l-1.225,1.225a2.249,2.249,0,0,0,0,3.177l2.2,2.2a2.246,2.246,0,0,0,3.177,0l1.278-1.278a12,12,0,0,0,1.634.655V90.2h-.96a2.011,2.011,0,0,0-1.473,3.38l4.366,4.7a2.558,2.558,0,0,0,3.748,0l4.366-4.7a2.011,2.011,0,0,0-1.473-3.38h-.965l0-10.269a12,12,0,0,0,1.529-.656l1.385,1.385a2.253,2.253,0,0,0,3.177,0l2.2-2.2a2.245,2.245,0,0,0,0-3.177l-1.437-1.437a12.07,12.07,0,0,0,.6-1.477h2.041a2.249,2.249,0,0,0,2.248-2.246ZM122.223,92a.216.216,0,0,1,.158.363l-4.366,4.7a.763.763,0,0,1-1.118,0l-4.366-4.7A.216.216,0,0,1,112.69,92h1.858a.9.9,0,0,0,.9-.9V69.94a.139.139,0,0,1,.139-.139h3.74a.139.139,0,0,1,.139.139V91.1a.9.9,0,0,0,.9.9Zm8.99-21.876a.452.452,0,0,1-.452.451h-2.707a.9.9,0,0,0-.866.663,10.261,10.261,0,0,1-.955,2.338.9.9,0,0,0,.148,1.074l1.9,1.9a.45.45,0,0,1,0,.638l-2.2,2.2a.454.454,0,0,1-.64,0l-1.861-1.861a.9.9,0,0,0-1.09-.139,10.29,10.29,0,0,1-1.234.619V72.828a5.788,5.788,0,0,0,1.861-4.264,5.855,5.855,0,0,0-3.316-5.257.9.9,0,0,0-.774,1.62,4.031,4.031,0,0,1,2.181,4.59,1.937,1.937,0,0,0-1.886-1.511h-3.74a1.936,1.936,0,0,0-1.934,1.934v.333a4.027,4.027,0,0,1,1.963-5.369.9.9,0,0,0-.751-1.63A5.821,5.821,0,0,0,113.65,73.1v5.037a10.194,10.194,0,0,1-1.362-.637.9.9,0,0,0-1.074.148l-1.745,1.745a.452.452,0,0,1-.638,0l-2.2-2.2a.452.452,0,0,1,0-.638l1.7-1.7a.9.9,0,0,0,.138-1.091,10.156,10.156,0,0,1-1.061-2.522.9.9,0,0,0-.867-.664h-2.389a.452.452,0,0,1-.451-.451V67.007a.452.452,0,0,1,.451-.452h2.389a.9.9,0,0,0,.867-.664,10.156,10.156,0,0,1,1.061-2.522.9.9,0,0,0-.139-1.091l-1.7-1.7a.454.454,0,0,1,0-.64l2.2-2.2a.45.45,0,0,1,.638,0l1.745,1.744a.9.9,0,0,0,1.074.148,10.139,10.139,0,0,1,2.482-.992.9.9,0,0,0,.678-.87V55.26a.452.452,0,0,1,.451-.452h3.115a.453.453,0,0,1,.452.452V57.85a.9.9,0,0,0,.651.863,10.194,10.194,0,0,1,2.376,1.022.9.9,0,0,0,1.091-.138l1.861-1.861a.462.462,0,0,1,.639,0l2.2,2.2a.453.453,0,0,1,0,.639l-1.9,1.9a.9.9,0,0,0-.148,1.074,10.246,10.246,0,0,1,.955,2.337.9.9,0,0,0,.866.663h2.707a.453.453,0,0,1,.452.452v3.115Z" transform="translate(-49.933 -46.668)" fill="#773b3d"/>
      <path id="Trazado_1001489" data-name="Trazado 1001489" d="M313.193,303.016a.9.9,0,0,0,.9-.9v-.745h.745a.9.9,0,0,0,0-1.795h-.745v-.745a.9.9,0,1,0-1.795,0v.745h-.745a.9.9,0,0,0,0,1.795h.745v.745A.9.9,0,0,0,313.193,303.016Z" transform="translate(-233.701 -262.282)" fill="#773b3d"/>
      <path id="Trazado_1001490" data-name="Trazado 1001490" d="M95.522,7.523a1.7,1.7,0,0,0-1.339-1.078L91.7,6.056l2.148-3.463A1.7,1.7,0,0,0,92.4,0H86.079a2.274,2.274,0,0,0-2.148,1.53l-1.108,3.2A24.857,24.857,0,0,0,63.889.378,21.743,21.743,0,0,0,48.58,10.9a24.746,24.746,0,0,0-2.053,20.645,40.709,40.709,0,0,0,7.288,13.1,5.68,5.68,0,0,1,1.29,3.608v9.752a3.266,3.266,0,0,0,3.262,3.262H73.513a3.266,3.266,0,0,0,3.263-3.262V52.924a2.2,2.2,0,0,1,2.3-2.2l5.395.294a5.717,5.717,0,0,0,6-5.711V42.546a.9.9,0,1,0-1.795,0v2.765a3.922,3.922,0,0,1-4.108,3.918l-5.395-.294a3.992,3.992,0,0,0-4.188,3.989v5.085a1.469,1.469,0,0,1-1.468,1.467H58.367A1.469,1.469,0,0,1,56.9,58.008V48.257a7.479,7.479,0,0,0-1.7-4.75,38.874,38.874,0,0,1-6.961-12.5,23.019,23.019,0,0,1,1.893-19.2A19.975,19.975,0,0,1,64.2,2.145a23,23,0,0,1,18,4.374l-.553,1.6a2.02,2.02,0,0,0,1.531,2.644l2.879.549L83.9,18.035a1.709,1.709,0,0,0,.828,2.054,1.745,1.745,0,0,0,.829.212,1.713,1.713,0,0,0,1.341-.653l2.3-2.862a25.258,25.258,0,0,1,.975,8.577c-.046.942-.005,3.64,0,3.755a.9.9,0,0,0,.067.325L92.9,35.968a.6.6,0,0,1-.44.684l-3.111.795a.9.9,0,1,0,.444,1.739l3.112-.795a2.392,2.392,0,0,0,1.721-2.924.889.889,0,0,0-.037-.111l-2.63-6.437c-.008-.611-.033-2.714,0-3.47a26.538,26.538,0,0,0-1.428-10.335L95.26,9.222a1.7,1.7,0,0,0,.262-1.7Zm-9.8,10.728,2.365-7.357A.9.9,0,0,0,87.4,9.737L83.521,9a.224.224,0,0,1-.17-.294l2.278-6.587A.478.478,0,0,1,86.08,1.8h6.149l-2.77,4.464a.9.9,0,0,0,.624,1.36l3.7.577Z" fill="#773b3d"/>
    </g>
  </g>
</svg>
