<svg xmlns="http://www.w3.org/2000/svg" width="96" height="96" viewBox="0 0 96 96">
  <g id="Grupo_1177940" data-name="Grupo 1177940" transform="translate(-383.746 -8400.001)">
    <path id="Trazado_997400" data-name="Trazado 997400" d="M48,0A48,48,0,1,1,0,48,48,48,0,0,1,48,0Z" transform="translate(383.746 8400.001)" fill="#ffbdb6"/>
    <g id="Grupo_1179631" data-name="Grupo 1179631" transform="translate(406.313 8403.921)">
      <g id="Grupo_1179626" data-name="Grupo 1179626" transform="translate(33.333 20.704)">
        <g id="Grupo_1179625" data-name="Grupo 1179625">
          <path id="Trazado_1001491" data-name="Trazado 1001491" d="M352.041,37.371h-.679c-.662-3.356-4.055-9.266-5.557-11.769a2.685,2.685,0,1,0-3.035,0c-1.5,2.5-4.9,8.413-5.557,11.769h-.679a1.013,1.013,0,0,0-1.013,1.013,8.766,8.766,0,0,0,17.533,0A1.013,1.013,0,0,0,352.041,37.371Zm-7.753-14.64a.658.658,0,1,1-.658.658A.659.659,0,0,1,344.288,22.731Zm0,4.282c1.715,2.894,4.363,7.715,5.014,10.358H339.279C339.894,34.9,342.276,30.391,344.287,27.012Zm0,18.111a6.75,6.75,0,0,1-6.664-5.727h13.328A6.751,6.751,0,0,1,344.288,45.124Z" transform="translate(-335.522 -20.704)" fill="#773b3d"/>
        </g>
      </g>
      <g id="Grupo_1179628" data-name="Grupo 1179628" transform="translate(0 23.163)">
        <g id="Grupo_1179627" data-name="Grupo 1179627">
          <path id="Trazado_1001492" data-name="Trazado 1001492" d="M34.452,83.927H31.773V81.353A1.013,1.013,0,0,0,30.76,80.34H28.186v-28.3a3.834,3.834,0,0,0,1.139-2.54l4.284-.922a1.013,1.013,0,1,0-.426-1.981l-4.294.924a3.844,3.844,0,0,0-7.241,1.558L10.934,51.381a2.683,2.683,0,1,0-3.685,3.794c-1.5,2.5-4.9,8.413-5.557,11.769H1.013A1.013,1.013,0,0,0,0,67.958a8.766,8.766,0,1,0,17.533,0,1.013,1.013,0,0,0-1.013-1.013H15.84c-.662-3.357-4.055-9.266-5.557-11.769a2.688,2.688,0,0,0,1.139-1.826l10.644-2.29a3.869,3.869,0,0,0,.718.977v28.3H20.211A1.013,1.013,0,0,0,19.2,81.354v2.573H16.519a1.013,1.013,0,0,0-1.013,1.013v3.8a1.013,1.013,0,0,0,1.013,1.013H34.452a1.013,1.013,0,0,0,1.013-1.013v-3.8A1.013,1.013,0,0,0,34.452,83.927ZM8.766,52.3a.658.658,0,1,1-.658.658A.659.659,0,0,1,8.766,52.3Zm0,22.393A6.75,6.75,0,0,1,2.1,68.971H15.43A6.75,6.75,0,0,1,8.766,74.7Zm5.012-7.753H3.757c.615-2.475,3-6.98,5.008-10.358C10.479,59.48,13.127,64.3,13.779,66.944Zm11.707-19.46A1.818,1.818,0,1,1,23.667,49.3,1.82,1.82,0,0,1,25.486,47.484Zm.674,5.6V80.34H24.811V53.087a3.793,3.793,0,0,0,1.349,0ZM21.225,82.367h8.522v1.56H21.225Zm12.214,5.357H17.533V85.953H33.439Z" transform="translate(0 -45.458)" fill="#773b3d"/>
        </g>
      </g>
      <g id="Grupo_1179630" data-name="Grupo 1179630" transform="translate(35.548 23.499)">
        <g id="Grupo_1179629" data-name="Grupo 1179629">
          <path id="Trazado_1001493" data-name="Trazado 1001493" d="M360.557,49.633a1.013,1.013,0,0,0-1.2-.777l-.738.159A1.013,1.013,0,1,0,359.041,51l.738-.159A1.013,1.013,0,0,0,360.557,49.633Z" transform="translate(-357.815 -48.833)" fill="#773b3d"/>
        </g>
      </g>
    </g>
  </g>
</svg>
