<svg xmlns="http://www.w3.org/2000/svg" width="90" height="90" viewBox="0 0 90 90">
  <g id="Grupo_1179093" data-name="Grupo 1179093" transform="translate(-215.711 -2338)">
    <rect id="Rectángulo_455021" data-name="Rectángulo 455021" width="90" height="90" rx="10" transform="translate(215.711 2338)" fill="#bbded6"/>
    <g id="Grupo_1179092" data-name="Grupo 1179092" transform="translate(204.651 2343.884)">
      <g id="Grupo_1179090" data-name="Grupo 1179090" transform="translate(21.146 1.146)">
        <path id="Trazado_999979" data-name="Trazado 999979" d="M63.56,22.5v4.584h6.265a1.528,1.528,0,0,1,1.528,1.528V43.2a19.634,19.634,0,1,1-39.269,0V28.612a1.528,1.528,0,0,1,1.528-1.528h6.265V22.5H33.612A6.112,6.112,0,0,0,27.5,28.612V43.2a24.218,24.218,0,0,0,48.437,0V28.612A6.112,6.112,0,0,0,69.825,22.5Z" transform="translate(-27.5 -20.208)" fill="#f0e5e0"/>
        <path id="Trazado_999980" data-name="Trazado 999980" d="M197.51,28.612V43.2a24.216,24.216,0,0,1-24.218,24.218q-1.16,0-2.292-.108a24.216,24.216,0,0,0,21.925-23.856c0-.084,0-.17,0-.254V28.612c0-.026,0-.052,0-.078a6.11,6.11,0,0,0-6.11-6.034H191.4a6.112,6.112,0,0,1,6.112,6.112Z" transform="translate(-149.074 -20.208)" fill="#e2d6d1"/>
        <path id="Trazado_999981" data-name="Trazado 999981" d="M100.792,16.668A2.292,2.292,0,0,1,98.5,14.376V9.792a2.292,2.292,0,0,1,4.584,0v4.584A2.292,2.292,0,0,1,100.792,16.668Z" transform="translate(-87.651 -7.5)" fill="#6f6571"/>
        <path id="Trazado_999982" data-name="Trazado 999982" d="M245.792,16.668a2.292,2.292,0,0,0,2.292-2.292V9.792a2.292,2.292,0,0,0-4.584,0v4.584A2.292,2.292,0,0,0,245.792,16.668Z" transform="translate(-210.496 -7.5)" fill="#6f6571"/>
        <path id="Trazado_999983" data-name="Trazado 999983" d="M177.084,257.377v12.3a5.577,5.577,0,1,0,11.154,0V258.141a8.4,8.4,0,0,1,16.808,0v6.57a2.292,2.292,0,0,0,4.584,0V239.5h4.584v25.211a6.876,6.876,0,0,1-13.752,0v-6.57a3.82,3.82,0,0,0-7.64,0V269.83a10.161,10.161,0,1,1-20.322,0V257.377Z" transform="translate(-150.344 -204.051)" fill="#b2a6f4"/>
        <path id="Trazado_999984" data-name="Trazado 999984" d="M394.668,239.5v25.211a6.877,6.877,0,0,1-9.168,6.483,6.876,6.876,0,0,0,4.584-6.483V239.5Z" transform="translate(-330.799 -204.051)" fill="#8686d1"/>
        <path id="Trazado_999985" data-name="Trazado 999985" d="M148.016,264.5H135.028a1.528,1.528,0,0,0-1.528,1.528v7.181a1.528,1.528,0,0,0,1.528,1.528H136.4a.764.764,0,0,1,.764.764v3.056a1.528,1.528,0,0,0,1.528,1.528h6.112a1.528,1.528,0,0,0,1.528-1.528V275.5a.764.764,0,0,1,.764-.764h.917a1.528,1.528,0,0,0,1.528-1.528v-7.181A1.528,1.528,0,0,0,148.016,264.5Z" transform="translate(-117.304 -225.231)" fill="#6f6571"/>
        <path id="Trazado_999986" data-name="Trazado 999986" d="M186.821,266.028v7.181a1.529,1.529,0,0,1-1.528,1.528h-.917a.764.764,0,0,0-.764.764v3.056a1.529,1.529,0,0,1-1.528,1.528H177.5a1.529,1.529,0,0,0,1.528-1.528V275.5a.764.764,0,0,1,.764-.764h.917a1.529,1.529,0,0,0,1.528-1.528v-7.181a1.529,1.529,0,0,0-1.528-1.528h4.584A1.529,1.529,0,0,1,186.821,266.028Z" transform="translate(-154.58 -225.231)" fill="#5d5360"/>
        <path id="Trazado_999987" data-name="Trazado 999987" d="M408.14,215.612h-6.112a1.528,1.528,0,0,1-1.528-1.528V209.5h9.168v4.584A1.528,1.528,0,0,1,408.14,215.612Z" transform="translate(-343.507 -178.635)" fill="#6f6571"/>
        <path id="Trazado_999988" data-name="Trazado 999988" d="M426.612,209.5v4.584a1.529,1.529,0,0,1-1.528,1.528H420.5a1.529,1.529,0,0,0,1.528-1.528V209.5Z" transform="translate(-360.451 -178.635)" fill="#5d5360"/>
        <path id="Trazado_999989" data-name="Trazado 999989" d="M390.71,194.084H378.792a2.292,2.292,0,1,1,0-4.584H390.71a2.292,2.292,0,1,1,0,4.584Z" transform="translate(-323.174 -161.691)" fill="#f0e5e0"/>
        <path id="Trazado_999990" data-name="Trazado 999990" d="M446.376,191.792a2.3,2.3,0,0,1-2.292,2.292H439.5a2.292,2.292,0,1,0,0-4.584h4.584A2.293,2.293,0,0,1,446.376,191.792Z" transform="translate(-376.548 -161.691)" fill="#e2d6d1"/>
        <path id="Trazado_999991" data-name="Trazado 999991" d="M133.4,105.5a5.711,5.711,0,0,0-4.039,1.666.769.769,0,0,1-1.089,0,5.73,5.73,0,0,0-9.769,4.064v.344c0,6.99,8.977,11.689,10.314,11.689,1.452,0,10.314-4.813,10.314-11.689v-.344A5.73,5.73,0,0,0,133.4,105.5Z" transform="translate(-104.595 -90.526)" fill="#dd636e"/>
        <path id="Trazado_999992" data-name="Trazado 999992" d="M183.657,111.23v.344c0,3.438-2.216,6.361-4.613,8.424s-4.975,3.265-5.7,3.265a6.791,6.791,0,0,1-2.283-.9,20.128,20.128,0,0,0,3.4-2.364c2.4-2.063,4.613-4.986,4.613-8.424v-.344a5.732,5.732,0,0,0-3.438-5.253,5.73,5.73,0,0,1,8.022,5.253Z" transform="translate(-149.124 -90.526)" fill="#da4a54"/>
      </g>
      <g id="Grupo_1179091" data-name="Grupo 1179091" transform="translate(20 0)">
        <path id="Trazado_999993" data-name="Trazado 999993" d="M88.682,27.809H87.307a1.146,1.146,0,0,0,0,2.292h1.375a1.146,1.146,0,0,1,0,2.292H76.764a1.146,1.146,0,1,1,0-2.292h5.2a1.146,1.146,0,0,0,0-2.292h-5.2a3.438,3.438,0,1,0,0,6.876h.229v1.91a2.676,2.676,0,0,0,2.292,2.643V61.806a1.146,1.146,0,1,1-2.292,0v-6.57a9.55,9.55,0,0,0-19.1,0V66.772a4.431,4.431,0,0,1-8.862,0V57.115a2.676,2.676,0,0,0,2.292-2.643V51.8h.535a2.677,2.677,0,0,0,2.674-2.674V47.794a25.362,25.362,0,0,0,16.2-23.652V9.55a7.266,7.266,0,0,0-7.258-7.258H59.683A3.438,3.438,0,0,0,53,3.438V8.022a3.438,3.438,0,0,0,6.679,1.146h3.788a.382.382,0,0,1,.382.382V24.142A18.563,18.563,0,0,1,54.076,40.45a2.673,2.673,0,0,0-2.218-1.182H38.87a2.673,2.673,0,0,0-2.218,1.181,18.581,18.581,0,0,1-9.777-16.308V9.55a.382.382,0,0,1,.382-.382h3.788a3.438,3.438,0,0,0,6.679-1.146V3.438a3.438,3.438,0,0,0-6.679-1.146H27.258A7.266,7.266,0,0,0,20,9.55V24.142A25.372,25.372,0,0,0,36.2,47.8v1.326A2.677,2.677,0,0,0,38.87,51.8h.993v2.674a2.676,2.676,0,0,0,2.292,2.643v4.462a1.146,1.146,0,0,0,2.292,0V57.146h2.292v9.626a6.723,6.723,0,0,0,13.446,0V55.236a7.258,7.258,0,1,1,14.516,0v6.57a3.438,3.438,0,1,0,6.876,0V39.269h2.292V61.806a5.73,5.73,0,1,1-11.46,0v-6.57a4.966,4.966,0,1,0-9.932,0V66.925a9.015,9.015,0,1,1-18.03,0,1.146,1.146,0,0,0-2.292,0,11.307,11.307,0,1,0,22.614,0V55.236a2.674,2.674,0,0,1,5.348,0v6.57a8.022,8.022,0,1,0,16.044,0V39.238a2.676,2.676,0,0,0,2.292-2.643v-1.91h.229a3.438,3.438,0,0,0,0-6.876ZM57.588,8.022a1.146,1.146,0,1,1-2.292,0V3.438a1.146,1.146,0,0,1,2.292,0Zm8.557,16.12V9.55a2.677,2.677,0,0,0-2.674-2.674H59.88V4.584h3.591A4.971,4.971,0,0,1,68.437,9.55V24.142a23.167,23.167,0,0,1-13.9,21.179V42.792a20.858,20.858,0,0,0,11.613-18.65Zm-33-20.7a1.146,1.146,0,1,1,2.292,0V8.022a1.146,1.146,0,1,1-2.292,0Zm-10.849,20.7V9.55a4.972,4.972,0,0,1,4.966-4.966h3.591V6.876H27.258A2.677,2.677,0,0,0,24.584,9.55V24.142A20.771,20.771,0,0,0,36.2,42.792v2.529a23.234,23.234,0,0,1-13.9-21.179ZM40.246,49.506H38.87a.382.382,0,0,1-.382-.382V41.943a.382.382,0,0,1,.382-.382H51.858a.382.382,0,0,1,.382.382v7.181a.382.382,0,0,1-.382.382h-.917a1.912,1.912,0,0,0-1.91,1.91v3.056a.382.382,0,0,1-.382.382H42.538a.382.382,0,0,1-.382-.382V51.416A1.912,1.912,0,0,0,40.246,49.506ZM86.161,36.595a.382.382,0,0,1-.382.382H79.667a.382.382,0,0,1-.382-.382v-1.91h6.876Z" transform="translate(-20 0)"/>
        <path id="Trazado_999994" data-name="Trazado 999994" d="M111,103.323v.344c0,7.678,9.487,12.835,11.46,12.835,1.264,0,4.217-1.623,6.449-3.543,2.286-1.967,5.011-5.176,5.011-9.292v-.344a6.832,6.832,0,0,0-.86-3.325l1.874-1.874a1.146,1.146,0,0,0-1.621-1.621L131.619,98.2a6.867,6.867,0,0,0-9.159,0A6.876,6.876,0,0,0,111,103.323Zm2.292,0a4.584,4.584,0,0,1,7.815-3.251,1.923,1.923,0,0,0,2.705,0A4.577,4.577,0,0,1,130,99.82l-7.536,7.536-2.984-2.984a1.146,1.146,0,0,0-1.621,1.621l3.255,3.255a1.912,1.912,0,0,0,2.7,0l7.527-7.527a4.562,4.562,0,0,1,.29,1.6v.344c0,3.189-2.22,5.806-4.083,7.44a14.928,14.928,0,0,1-5.079,3.1c-1.165-.213-9.173-4.348-9.173-10.539Z" transform="translate(-97.095 -81.473)"/>
      </g>
    </g>
  </g>
</svg>
