<svg xmlns="http://www.w3.org/2000/svg" width="96" height="96" viewBox="0 0 96 96">
  <g id="Grupo_1177477" data-name="Grupo 1177477" transform="translate(-383.746 -8400)">
    <path id="Trazado_997400" data-name="Trazado 997400" d="M48,0A48,48,0,1,1,0,48,48,48,0,0,1,48,0Z" transform="translate(383.746 8400)" fill="#ffbdb6"/>
    <g id="Grupo_1178117" data-name="Grupo 1178117" transform="translate(399.746 8416)">
      <path id="Trazado_998347" data-name="Trazado 998347" d="M63.685,6H59.477l2-5h-7.2l-.746,2.24A8.15,8.15,0,0,0,47.917,1H39a6.019,6.019,0,0,0-6,6.024V7.15a5.857,5.857,0,0,0,4.267,5.627A2.974,2.974,0,0,0,37,14v2.789a2.989,2.989,0,0,1-.5,1.664L35.533,19.9a3.172,3.172,0,0,0,1.22,4.6l.247.123V27a5.006,5.006,0,0,0,5,5h1v4a18.528,18.528,0,0,0-5.55,9.632,7.249,7.249,0,0,1-8.134-2.544L29,42.667V42a4,4,0,0,0-4-4,3.962,3.962,0,0,0-2.509.91A16.9,16.9,0,0,0,21,37.491V34h1a5.006,5.006,0,0,0,5-5V26.618l.246-.123a3.172,3.172,0,0,0,1.221-4.6L27.5,20.453a2.989,2.989,0,0,1-.5-1.664V15h1a3,3,0,0,0,3-3,9.011,9.011,0,0,0-9-9H18.1A15.163,15.163,0,0,0,6.441,8.539l.537-4.3A2.886,2.886,0,0,0,4.117,1H3.883A2.886,2.886,0,0,0,1,3.883a2.816,2.816,0,0,0,.022.357l.861,6.892A2.132,2.132,0,0,0,3.9,12.991a14.8,14.8,0,0,0-.582,2.1A2.986,2.986,0,0,0,3.2,20.878a15.062,15.062,0,0,0,9.292,11.6l.506.2V34.31a9.759,9.759,0,0,0-6,9.015V63H27V59h8a3.959,3.959,0,0,0,2-.556V63H57V39h-.014c0-.079.014-.156.014-.235a5.446,5.446,0,0,0-3.025-4.9L51,32.382V30.618l3.851-1.925A11.309,11.309,0,0,0,61,18.445V16.73a11.019,11.019,0,0,0-.857-4.238ZM3.007,3.991A.783.783,0,0,1,3,3.883.884.884,0,0,1,3.883,3h.234A.884.884,0,0,1,5,3.883a.808.808,0,0,1-.007.109l-.861,6.892a.137.137,0,0,1-.264,0ZM58.523,3l-2,5h3.792l-4.8,8.8-.176.149L57.326,10H53.388l2.333-7ZM35,7.15V7.024A4.016,4.016,0,0,1,39,3h8.917a6.154,6.154,0,0,1,4.889,2.418L50.613,12h4.062l-1.168,4.087A4.3,4.3,0,0,0,51,15.013V15a4,4,0,0,0-4-4H38.851A3.855,3.855,0,0,1,35,7.15ZM45,32h2V30H42a3,3,0,0,1-3-3V26h2a2,2,0,0,1,2,2h2a4,4,0,0,0-4-4H39v-.618L37.647,22.7a1.171,1.171,0,0,1-.45-1.7l.963-1.445A4.991,4.991,0,0,0,39,16.79V14a1,1,0,0,1,1-1h7a2,2,0,0,1,2,2v2h1.667a2.333,2.333,0,0,1,1.4,4.2L49,23.5v8.805a18.5,18.5,0,0,0-4,2.1ZM25,40a2,2,0,0,1,2,2v1.333l.713.954A9.286,9.286,0,0,0,40.86,46.052l2.033-1.584,2.56,3.2-2.411,1.81a12.674,12.674,0,0,1-5.613,2.358,3.979,3.979,0,0,0-1.786-.785l-.214-.428a2.937,2.937,0,0,0-4.7-.763l-.849.849a12.663,12.663,0,0,1-5.754-5.7l-.911-1.825A2,2,0,0,1,23,42.292V42a2,2,0,0,1,2-2Zm.84-18.437.963,1.444a1.172,1.172,0,0,1-.451,1.7L25,25.382V26H23a4,4,0,0,0-4,4h2a2,2,0,0,1,2-2h2v1a3,3,0,0,1-3,3H17v2h2v2.036a16.755,16.755,0,0,0-4-1.785V25.5l-3.066-2.3a2.333,2.333,0,0,1,1.4-4.2H15V17a2,2,0,0,1,2-2h8v3.789A4.992,4.992,0,0,0,25.84,21.563ZM4,17a1,1,0,1,1-1,1A1,1,0,0,1,4,17Zm1.2,3.745a2.988,2.988,0,0,0,.107-5.432A13.175,13.175,0,0,1,18.1,5H22a7.008,7.008,0,0,1,7,7,1,1,0,0,1-1,1H18a1,1,0,0,1,0-2h1V9H18a3,3,0,0,0-3,3,2.959,2.959,0,0,0,.346,1.369A4,4,0,0,0,13,17v.012A4.333,4.333,0,0,0,10.733,24.8L13,26.5v4.014A13.066,13.066,0,0,1,5.2,20.745ZM9,43.325a7.764,7.764,0,0,1,5.044-7.28,14.7,14.7,0,0,1,7.235,4.513A3.971,3.971,0,0,0,21,42v.292a4.032,4.032,0,0,0,.421,1.787l.912,1.826A14.653,14.653,0,0,0,26.558,51H21a6.006,6.006,0,0,1-6-6H13a7.953,7.953,0,0,0,1.688,4.9l-2.843,2.843A11.944,11.944,0,0,1,9,45ZM25,61H9V52.174A13.991,13.991,0,0,0,21,59h4Zm10-4H21a11.944,11.944,0,0,1-7.741-2.845L16.1,51.312A7.953,7.953,0,0,0,21,53h9.414l1.726-1.726a.967.967,0,0,1,1.5.244L34.382,53H35a2,2,0,0,1,0,4Zm4,4V53.571a14.681,14.681,0,0,0,5.244-2.493l10.569-7.936c.066-.049.124-.107.187-.159V61ZM55,38.765a3.492,3.492,0,0,1-1.388,2.778l-6.558,4.924-2.583-3.228,3.144-2.45-1.229-1.577-6.479,5.049A16.559,16.559,0,0,1,49.93,34.084l3.15,1.575A3.453,3.453,0,0,1,55,38.765ZM59,16.73v1.715A9.2,9.2,0,0,1,53.956,26.9L51,28.382V24.5l2.267-1.7A4.355,4.355,0,0,0,55,19.333c0-.13-.025-.254-.037-.382a2,2,0,0,0,.418.049,2.048,2.048,0,0,0,1.749-.988c.008-.013.135-.244.142-.256l1.542-2.826A9.138,9.138,0,0,1,59,16.73Z" fill="#773b3d"/>
      <path id="Trazado_998348" data-name="Trazado 998348" d="M18.293,17.707,19.586,19l-1.293,1.293,1.414,1.414L22.414,19l-2.707-2.707Z" fill="#773b3d"/>
      <path id="Trazado_998349" data-name="Trazado 998349" d="M44.293,15.293,41.586,18l2.707,2.707,1.414-1.414L44.414,18l1.293-1.293Z" fill="#773b3d"/>
    </g>
  </g>
</svg>
