<svg xmlns="http://www.w3.org/2000/svg" width="80" height="80" viewBox="0 0 80 80">
  <g id="Grupo_1178358" data-name="Grupo 1178358" transform="translate(-527.711 -1735)">
    <rect id="Rectángulo_455052" data-name="Rectángulo 455052" width="80" height="80" rx="10" transform="translate(527.711 1735)" fill="#99bfb7"/>
    <g id="Grupo_1178357" data-name="Grupo 1178357" transform="translate(536.916 1744.705)">
      <path id="Trazado_998855" data-name="Trazado 998855" d="M196,85.582v8.11l1.5,3.992v38.291h7.819l1.8-35.836,4.571-8.552v-6Z" transform="translate(-172.423 -75.287)" fill="#fdbba8"/>
      <path id="Trazado_998856" data-name="Trazado 998856" d="M264.875,85.582v6a6.673,6.673,0,0,1-2.97,5.553,3.609,3.609,0,0,0-1.6,3l-1.8.758,1.8.758v34.319h3.609V100.139a10.274,10.274,0,0,0,4.571-8.552v-6Z" transform="translate(-227.403 -75.287)" fill="#fc9e8d"/>
      <path id="Trazado_998857" data-name="Trazado 998857" d="M292.59,37.5a2.285,2.285,0,0,0-2.286,2.286l-1.8,1.8,1.8,1.8a2.286,2.286,0,1,0,4.571,0V39.786A2.285,2.285,0,0,0,292.59,37.5Z" transform="translate(-253.796 -32.989)" fill="#fc8071"/>
      <path id="Trazado_998858" data-name="Trazado 998858" d="M254.59,22.5a2.285,2.285,0,0,0-2.286,2.286l-1.8,2.707,1.8,2.707a2.286,2.286,0,1,0,4.571,0V24.786A2.285,2.285,0,0,0,254.59,22.5Z" transform="translate(-220.367 -19.793)" fill="#fc9e8d"/>
      <path id="Trazado_998859" data-name="Trazado 998859" d="M216.59,7.5A2.285,2.285,0,0,0,214.3,9.786L212.5,17h6.376V9.786A2.285,2.285,0,0,0,216.59,7.5Z" transform="translate(-186.938 -6.598)" fill="#fc8071"/>
      <path id="Trazado_998860" data-name="Trazado 998860" d="M191.786,7.5A2.285,2.285,0,0,0,189.5,9.786V17h4.571V9.786A2.285,2.285,0,0,0,191.786,7.5Z" transform="translate(-166.705 -6.598)" fill="#fc9e8d"/>
      <path id="Trazado_998861" data-name="Trazado 998861" d="M175.071,75.68V72.071h4.571a2.286,2.286,0,0,0,2.283-2.4,2.328,2.328,0,0,0-2.348-2.175h-4.507a4.571,4.571,0,0,0-4.571,4.571V75.68a10.291,10.291,0,0,0,12.39,10.069V83.5A7.819,7.819,0,0,0,175.071,75.68Z" transform="translate(-149.99 -59.38)" fill="#fdd9c4"/>
      <path id="Trazado_998862" data-name="Trazado 998862" d="M33,269.082v8.11l1.5,3.992V297.4h7.819l1.8-13.762,4.571-8.552v-6Z" transform="translate(-29.03 -236.713)" fill="#f6d76f"/>
      <path id="Trazado_998863" data-name="Trazado 998863" d="M101.875,269.082v6a6.673,6.673,0,0,1-2.97,5.553,3.609,3.609,0,0,0-1.6,3l-1.8.758,1.8.758V297.4h3.609V283.639a10.274,10.274,0,0,0,4.571-8.552v-6Z" transform="translate(-84.011 -236.713)" fill="#f9bb69"/>
      <path id="Trazado_998864" data-name="Trazado 998864" d="M129.59,221a2.285,2.285,0,0,0-2.286,2.286l-1.8,1.8,1.8,1.8a2.286,2.286,0,0,0,4.571,0v-3.609A2.285,2.285,0,0,0,129.59,221Z" transform="translate(-110.403 -194.415)" fill="#fc9f63"/>
      <path id="Trazado_998865" data-name="Trazado 998865" d="M91.59,206a2.285,2.285,0,0,0-2.286,2.286l-1.8,2.707,1.8,2.707a2.286,2.286,0,0,0,4.571,0v-5.413A2.285,2.285,0,0,0,91.59,206Z" transform="translate(-76.974 -181.22)" fill="#f9bb69"/>
      <path id="Trazado_998866" data-name="Trazado 998866" d="M53.59,191a2.285,2.285,0,0,0-2.286,2.286L49.5,200.5h6.376v-7.218A2.285,2.285,0,0,0,53.59,191Z" transform="translate(-43.546 -168.024)" fill="#fc9f63"/>
      <path id="Trazado_998867" data-name="Trazado 998867" d="M28.786,191a2.285,2.285,0,0,0-2.286,2.286V200.5h4.571v-7.218A2.285,2.285,0,0,0,28.786,191Z" transform="translate(-23.312 -168.024)" fill="#f9bb69"/>
      <path id="Trazado_998868" data-name="Trazado 998868" d="M12.071,259.18v-3.609h4.571a2.286,2.286,0,0,0,2.283-2.4A2.328,2.328,0,0,0,16.578,251H12.071A4.571,4.571,0,0,0,7.5,255.571v3.609a10.291,10.291,0,0,0,12.39,10.069V267A7.819,7.819,0,0,0,12.071,259.18Z" transform="translate(-6.598 -220.807)" fill="#fae8ac"/>
      <path id="Trazado_998869" data-name="Trazado 998869" d="M359,269.082v8.11l1.5,3.992V297.4h7.819l1.8-13.762,4.571-8.552v-6Z" transform="translate(-315.815 -236.713)" fill="#ae6e5a"/>
      <path id="Trazado_998870" data-name="Trazado 998870" d="M427.875,269.082v6a6.673,6.673,0,0,1-2.97,5.553,3.609,3.609,0,0,0-1.6,3l-1.8.758,1.8.758V297.4h3.609V283.639a10.274,10.274,0,0,0,4.571-8.552v-6Z" transform="translate(-370.796 -236.713)" fill="#8d5d4d"/>
      <path id="Trazado_998871" data-name="Trazado 998871" d="M455.59,221a2.285,2.285,0,0,0-2.286,2.286l-1.8,1.8,1.8,1.8a2.286,2.286,0,1,0,4.571,0v-3.609A2.285,2.285,0,0,0,455.59,221Z" transform="translate(-397.188 -194.415)" fill="#6c4b41"/>
      <path id="Trazado_998872" data-name="Trazado 998872" d="M417.59,206a2.285,2.285,0,0,0-2.286,2.286l-1.8,2.707,1.8,2.707a2.286,2.286,0,0,0,4.571,0v-5.413A2.285,2.285,0,0,0,417.59,206Z" transform="translate(-363.759 -181.22)" fill="#8d5d4d"/>
      <path id="Trazado_998873" data-name="Trazado 998873" d="M379.59,191a2.285,2.285,0,0,0-2.286,2.286l-1.8,7.218h6.375v-7.218A2.285,2.285,0,0,0,379.59,191Z" transform="translate(-330.33 -168.024)" fill="#6c4b41"/>
      <path id="Trazado_998874" data-name="Trazado 998874" d="M354.786,191a2.285,2.285,0,0,0-2.286,2.286V200.5h4.571v-7.218A2.285,2.285,0,0,0,354.786,191Z" transform="translate(-310.097 -168.024)" fill="#8d5d4d"/>
      <path id="Trazado_998875" data-name="Trazado 998875" d="M338.071,259.18v-3.609h4.571a2.286,2.286,0,0,0,2.283-2.4A2.328,2.328,0,0,0,342.578,251h-4.507a4.571,4.571,0,0,0-4.571,4.571v3.609a10.291,10.291,0,0,0,12.39,10.069V267A7.819,7.819,0,0,0,338.071,259.18Z" transform="translate(-293.382 -220.807)" fill="#d7795c"/>
      <path id="Trazado_998876" data-name="Trazado 998876" d="M185.374,6.8a3.186,3.186,0,0,0-4.728-2.79,3.185,3.185,0,0,0-4.571-1.8A3.185,3.185,0,0,0,170.759.969a3.186,3.186,0,0,0-5.473,2.219V8.246A5.469,5.469,0,0,0,163,12.691V16.3a11.174,11.174,0,0,0,4.571,9.021V60.688a.9.9,0,0,0,.9.9H179.9a.9.9,0,0,0,.9-.9V25.321a11.173,11.173,0,0,0,4.571-9.021Zm-3.188-1.383A1.385,1.385,0,0,1,183.57,6.8v3.609a1.383,1.383,0,0,1-2.767,0V6.8A1.385,1.385,0,0,1,182.187,5.413Zm-4.571-1.8A1.385,1.385,0,0,1,179,4.992v5.413a1.383,1.383,0,0,1-2.767,0V4.992A1.385,1.385,0,0,1,177.616,3.609Zm-4.571-1.8a1.385,1.385,0,0,1,1.383,1.383V7.549a3.3,3.3,0,0,0-1.448-.332h-1.319V3.188A1.385,1.385,0,0,1,173.044,1.8ZM167.09,3.188a1.383,1.383,0,0,1,2.767,0v4.03h-1.383a5.466,5.466,0,0,0-1.383.177ZM179.4,24.1a.9.9,0,0,0-.4.75V59.785h-9.623V24.852a.9.9,0,0,0-.4-.75,9.375,9.375,0,0,1-4.171-7.8V12.691a3.673,3.673,0,0,1,3.669-3.669h4.507a1.432,1.432,0,0,1,1.446,1.315,1.383,1.383,0,0,1-1.382,1.451h-4.571a.9.9,0,0,0-.9.9V16.3a.9.9,0,0,0,.9.9,6.922,6.922,0,0,1,6.066,3.592.9.9,0,0,0,1.581-.869,8.729,8.729,0,0,0-6.745-4.481V13.593h3.669a3.2,3.2,0,0,0,2.287-.968,3.18,3.18,0,0,0,4.57,0,3.182,3.182,0,0,0,3.669.653V16.3A9.375,9.375,0,0,1,179.4,24.1Z" transform="translate(-143.392)"/>
      <path id="Trazado_998877" data-name="Trazado 998877" d="M19.187,187.109a3.168,3.168,0,0,0-1.54.4,3.185,3.185,0,0,0-4.571-1.8,3.185,3.185,0,0,0-5.317-1.233,3.186,3.186,0,0,0-5.473,2.219v5.058A5.468,5.468,0,0,0,0,196.191V199.8a11.174,11.174,0,0,0,4.571,9.021v1.264a.9.9,0,0,0,1.8,0v-1.733a.9.9,0,0,0-.4-.75A9.375,9.375,0,0,1,1.8,199.8v-3.609a3.673,3.673,0,0,1,3.669-3.669H9.98a1.432,1.432,0,0,1,1.446,1.315,1.383,1.383,0,0,1-1.382,1.451H5.473a.9.9,0,0,0-.9.9V199.8a.9.9,0,0,0,.9.9,6.922,6.922,0,0,1,6.066,3.592.9.9,0,0,0,1.581-.869,8.73,8.73,0,0,0-6.745-4.481v-1.851h3.669a3.2,3.2,0,0,0,2.287-.968,3.18,3.18,0,0,0,4.57,0,3.182,3.182,0,0,0,3.669.653V199.8a9.374,9.374,0,0,1-4.171,7.8.9.9,0,0,0-.4.75v12.86H6.376v-7.518a.9.9,0,0,0-1.8,0v8.42a.9.9,0,0,0,.9.9H16.9a.9.9,0,0,0,.9-.9V208.821a11.173,11.173,0,0,0,4.571-9.021v-9.5A3.191,3.191,0,0,0,19.187,187.109Zm-15.1,3.786v-4.207a1.383,1.383,0,0,1,2.767,0v4.03H5.473A5.466,5.466,0,0,0,4.09,190.895Zm5.89-.177H8.661v-4.03a1.383,1.383,0,0,1,2.767,0v4.361A3.3,3.3,0,0,0,9.98,190.718Zm4.636,4.571a1.385,1.385,0,0,1-1.383-1.383v-5.413a1.383,1.383,0,0,1,2.767,0v5.413A1.385,1.385,0,0,1,14.616,195.289Zm4.571,0a1.385,1.385,0,0,1-1.383-1.383V190.3a1.383,1.383,0,0,1,2.767,0v3.609A1.385,1.385,0,0,1,19.187,195.289Z" transform="translate(0 -161.426)"/>
      <path id="Trazado_998878" data-name="Trazado 998878" d="M345.187,187.109a3.169,3.169,0,0,0-1.54.4,3.185,3.185,0,0,0-4.571-1.8,3.185,3.185,0,0,0-5.317-1.233,3.186,3.186,0,0,0-5.473,2.219v5.058A5.469,5.469,0,0,0,326,196.191V199.8a11.174,11.174,0,0,0,4.571,9.021v13.293a.9.9,0,0,0,.9.9H342.9a.9.9,0,0,0,.9-.9V208.821a11.173,11.173,0,0,0,4.571-9.021v-9.5A3.191,3.191,0,0,0,345.187,187.109Zm-4.571,0A1.385,1.385,0,0,1,342,188.492v5.413a1.383,1.383,0,1,1-2.767,0v-5.413A1.385,1.385,0,0,1,340.616,187.109Zm-4.571-1.8a1.385,1.385,0,0,1,1.383,1.383v4.361a3.3,3.3,0,0,0-1.448-.332h-1.319v-4.03A1.385,1.385,0,0,1,336.044,185.3Zm-5.954,1.383a1.383,1.383,0,0,1,2.767,0v4.03h-1.383a5.467,5.467,0,0,0-1.383.177ZM342.4,207.6a.9.9,0,0,0-.4.75v12.86h-9.623v-12.86a.9.9,0,0,0-.4-.75,9.375,9.375,0,0,1-4.171-7.8v-3.609a3.673,3.673,0,0,1,3.669-3.669h4.507a1.432,1.432,0,0,1,1.446,1.315,1.383,1.383,0,0,1-1.382,1.451h-4.571a.9.9,0,0,0-.9.9V199.8a.9.9,0,0,0,.9.9,6.923,6.923,0,0,1,6.066,3.592.9.9,0,0,0,1.581-.869,8.729,8.729,0,0,0-6.745-4.481v-1.851h3.669a3.2,3.2,0,0,0,2.287-.968,3.18,3.18,0,0,0,4.57,0,3.182,3.182,0,0,0,3.669.653V199.8A9.375,9.375,0,0,1,342.4,207.6Zm2.787-12.313a1.385,1.385,0,0,1-1.383-1.383V190.3a1.383,1.383,0,0,1,2.767,0v3.609A1.385,1.385,0,0,1,345.187,195.289Z" transform="translate(-286.785 -161.426)"/>
    </g>
  </g>
</svg>
