<svg xmlns="http://www.w3.org/2000/svg" width="40" height="40" viewBox="0 0 40 40">
  <g id="Grupo_1180410" data-name="Grupo 1180410" transform="translate(-1 -1)">
    <path id="Trazado_1004233" data-name="Trazado 1004233" d="M35.859,13.717a4.511,4.511,0,0,0-3.892-8.011V1H7.83L1,7.83v30.59H28.742a2.57,2.57,0,0,0,4.516,1.689,2.57,2.57,0,0,0,4.516-1.689V26.161h.968A2.261,2.261,0,0,0,41,23.9V21A7.747,7.747,0,0,0,35.859,13.717Zm.625-3.685a3.226,3.226,0,1,1-3.226-3.226A3.229,3.229,0,0,1,36.484,10.032ZM7.452,3.2V7.452H3.2ZM2.29,37.129V8.742H8.742V2.29H30.677V6.218h.174a4.5,4.5,0,0,0-.2,7.494,7.729,7.729,0,0,0-4.883,5.353H20.328c.016-.214.026-.43.026-.645a8.412,8.412,0,1,0-2.349,5.806H28.742v12.9Zm31.29-15.484a2.255,2.255,0,0,0-2.032,1.29h-.226V20.355H33.9a1.292,1.292,0,0,1,1.29,1.29Zm-3.548,1.29h-1.29V20.355h1.29Zm-2.581,0H17.129V20.355H27.452Zm-8.418-3.871h-2.7L11.17,21.645l4.993,2.5a7.1,7.1,0,1,1,2.9-5.723C19.065,18.635,19.053,18.85,19.034,19.065Zm-4.978,2.581,1.783-.892v1.783ZM36.484,38.419a1.29,1.29,0,1,1-2.581,0V27.452h-1.29V38.419a1.29,1.29,0,1,1-2.581,0V24.226h1.323a2.254,2.254,0,0,0,2.225,1.935h2.9ZM39.71,23.9a.969.969,0,0,1-.968.968H33.581a.968.968,0,1,1,0-1.935h4.839v-1.29H36.484A2.583,2.583,0,0,0,33.9,19.065h-6.8A6.45,6.45,0,0,1,39.71,21Z" fill="#773b3d"/>
    <path id="Trazado_1004234" data-name="Trazado 1004234" d="M14.806,19a5.807,5.807,0,0,0-2.813,10.887l.626-1.129a4.516,4.516,0,1,1,6.668-4.517l1.28-.16A5.811,5.811,0,0,0,14.806,19Z" transform="translate(-2.839 -6.387)" fill="#773b3d"/>
    <path id="Trazado_1004235" data-name="Trazado 1004235" d="M5,50.742H15.323V43H5ZM6.29,44.29h7.742v5.161H6.29Z" transform="translate(-1.419 -14.903)" fill="#773b3d"/>
    <path id="Trazado_1004236" data-name="Trazado 1004236" d="M23,43v7.742H33.323V43Zm9.032,6.452H24.29V44.29h7.742Z" transform="translate(-7.806 -14.903)" fill="#773b3d"/>
    <path id="Trazado_1004237" data-name="Trazado 1004237" d="M43,5h1.29V6.29H43Z" transform="translate(-14.903 -1.419)" fill="#773b3d"/>
    <path id="Trazado_1004238" data-name="Trazado 1004238" d="M39,5h1.29V6.29H39Z" transform="translate(-13.484 -1.419)" fill="#773b3d"/>
    <path id="Trazado_1004239" data-name="Trazado 1004239" d="M35,5h1.29V6.29H35Z" transform="translate(-12.065 -1.419)" fill="#773b3d"/>
    <path id="Trazado_1004240" data-name="Trazado 1004240" d="M31,9h7.1v1.29H31Z" transform="translate(-10.645 -2.839)" fill="#773b3d"/>
    <path id="Trazado_1004241" data-name="Trazado 1004241" d="M31,13h7.1v1.29H31Z" transform="translate(-10.645 -4.258)" fill="#773b3d"/>
    <path id="Trazado_1004242" data-name="Trazado 1004242" d="M31,17h7.1v1.29H31Z" transform="translate(-10.645 -5.677)" fill="#773b3d"/>
    <path id="Trazado_1004243" data-name="Trazado 1004243" d="M31,5h1.29V6.29H31Z" transform="translate(-10.645 -1.419)" fill="#773b3d"/>
  </g>
</svg>
