<svg xmlns="http://www.w3.org/2000/svg" width="96" height="96" viewBox="0 0 96 96">
  <g id="Grupo_1177941" data-name="Grupo 1177941" transform="translate(-383.746 -8400.001)">
    <path id="Trazado_997400" data-name="Trazado 997400" d="M48,0A48,48,0,1,1,0,48,48,48,0,0,1,48,0Z" transform="translate(383.746 8400.001)" fill="#ffbdb6"/>
    <g id="Grupo_1179632" data-name="Grupo 1179632" transform="translate(402.862 8414.271)">
      <path id="Trazado_1001494" data-name="Trazado 1001494" d="M45.832,92.736a.848.848,0,0,0-.848.848v7.659a4.069,4.069,0,0,1-4.064,4.064H5.76A4.069,4.069,0,0,1,1.7,101.243V61.97A4.069,4.069,0,0,1,5.76,57.906h4.9a.848.848,0,1,0,0-1.7H5.76A5.767,5.767,0,0,0,0,61.97v39.273A5.767,5.767,0,0,0,5.76,107H40.92a5.767,5.767,0,0,0,5.76-5.76V93.584A.848.848,0,0,0,45.832,92.736Z" transform="translate(0 -45.007)" fill="#773b3d"/>
      <path id="Trazado_1001495" data-name="Trazado 1001495" d="M311.848,57.906h4.9a4.069,4.069,0,0,1,4.064,4.064v5.3a.848.848,0,0,0,1.7,0v-5.3a5.767,5.767,0,0,0-5.76-5.76h-4.9a.848.848,0,1,0,0,1.7Z" transform="translate(-275.831 -45.007)" fill="#773b3d"/>
      <path id="Trazado_1001496" data-name="Trazado 1001496" d="M30.848,177.61a.848.848,0,0,0-.848.848v30.457a2.37,2.37,0,0,0,2.368,2.368h35.16a2.37,2.37,0,0,0,2.368-2.368v-7.626a.848.848,0,0,0-1.7,0v7.626a.672.672,0,0,1-.671.672H32.368a.672.672,0,0,1-.671-.672V178.458A.848.848,0,0,0,30.848,177.61Z" transform="translate(-26.607 -152.679)" fill="#773b3d"/>
      <path id="Trazado_1001497" data-name="Trazado 1001497" d="M37.487,86.21H32.368A2.37,2.37,0,0,0,30,88.578v5.2a.848.848,0,1,0,1.7,0v-5.2a.672.672,0,0,1,.671-.671h5.119a.848.848,0,0,0,0-1.7Z" transform="translate(-26.607 -71.615)" fill="#773b3d"/>
      <path id="Trazado_1001498" data-name="Trazado 1001498" d="M309.938,87.906h5.119a.672.672,0,0,1,.671.671v5.327a.848.848,0,1,0,1.7,0V88.578a2.37,2.37,0,0,0-2.368-2.368h-5.119a.848.848,0,0,0,0,1.7Z" transform="translate(-274.137 -71.615)" fill="#773b3d"/>
      <path id="Trazado_1001499" data-name="Trazado 1001499" d="M120.022,17.108h3.943a.848.848,0,1,0,0-1.7h-3.943a1.53,1.53,0,0,1-1.529-1.529V11.211a1.53,1.53,0,0,1,1.529-1.529h1.357a1.134,1.134,0,0,0,1.132-1.132V7.713a.554.554,0,0,1,.553-.553h7.731a.554.554,0,0,1,.553.553V8.55a1.134,1.134,0,0,0,1.132,1.132h1.357a1.53,1.53,0,0,1,1.529,1.529v2.672a1.53,1.53,0,0,1-1.529,1.529h-6.258a.848.848,0,1,0,0,1.7h6.258a3.228,3.228,0,0,0,3.225-3.225V11.211a3.228,3.228,0,0,0-3.225-3.225h-.793V7.713a2.252,2.252,0,0,0-2.249-2.249h-7.731a2.252,2.252,0,0,0-2.249,2.249v.273h-.793a3.228,3.228,0,0,0-3.225,3.225v2.672a3.228,3.228,0,0,0,3.225,3.225Z" transform="translate(-103.589)" fill="#773b3d"/>
      <path id="Trazado_1001500" data-name="Trazado 1001500" d="M182.191,54.456a.848.848,0,0,0-.848-.848h-5.379a.848.848,0,0,0,0,1.7h5.379A.848.848,0,0,0,182.191,54.456Z" transform="translate(-155.313 -42.7)" fill="#773b3d"/>
      <path id="Trazado_1001501" data-name="Trazado 1001501" d="M295.08,174.323a8.216,8.216,0,0,0-10.353-3l-1.931.9a.211.211,0,0,1-.179,0l-1.931-.9a8.188,8.188,0,0,0-8.468,13.9l9.295,7.179a1.953,1.953,0,0,0,2.387,0l3.545-2.738a.848.848,0,1,0-1.037-1.343l-3.545,2.738a.256.256,0,0,1-.313,0l-9.295-7.178a6.513,6.513,0,0,1-.987-.945h3.557a.848.848,0,0,0,.817-.622l.955-3.453,2.655,7.363a.848.848,0,0,0,.794.56h0a.848.848,0,0,0,.8-.553l2.52-6.792.762,2.491a.848.848,0,0,0,.811.6h7.524a6.5,6.5,0,0,1-1.3,1.351l-2.866,2.213a.848.848,0,1,0,1.037,1.343l2.866-2.213a8.189,8.189,0,0,0,1.886-10.9Zm-8.514,6.514-1.312-4.29a.848.848,0,0,0-1.606-.047l-2.586,6.97-2.773-7.69a.848.848,0,0,0-1.615.062l-1.494,5.4h-3.949a6.492,6.492,0,0,1,8.738-8.38l1.931.9a1.9,1.9,0,0,0,1.614,0l1.931-.9a6.489,6.489,0,0,1,8.89,7.973h-7.769Z" transform="translate(-238.611 -146.429)" fill="#773b3d"/>
      <path id="Trazado_1001502" data-name="Trazado 1001502" d="M76.934,150.958h3.985a1.757,1.757,0,0,0,1.755-1.755v-4.395a1.757,1.757,0,0,0-1.755-1.755H76.934a1.757,1.757,0,0,0-1.755,1.755V149.2A1.757,1.757,0,0,0,76.934,150.958Zm-.058-6.149a.058.058,0,0,1,.058-.058h3.985a.059.059,0,0,1,.058.058V149.2a.059.059,0,0,1-.058.058H76.934a.058.058,0,0,1-.058-.058Z" transform="translate(-66.678 -122.031)" fill="#773b3d"/>
      <path id="Trazado_1001503" data-name="Trazado 1001503" d="M75.179,247.928a1.757,1.757,0,0,0,1.755,1.755h3.985a1.757,1.757,0,0,0,1.755-1.755v-4.395a1.757,1.757,0,0,0-1.755-1.755H76.934a1.757,1.757,0,0,0-1.755,1.755Zm1.7-4.395a.058.058,0,0,1,.058-.058h3.985a.058.058,0,0,1,.058.058v4.395a.059.059,0,0,1-.058.058H76.934a.058.058,0,0,1-.058-.058Z" transform="translate(-66.678 -209.592)" fill="#773b3d"/>
      <path id="Trazado_1001504" data-name="Trazado 1001504" d="M75.179,346.652a1.757,1.757,0,0,0,1.755,1.755h3.985a1.757,1.757,0,0,0,1.755-1.755v-4.394a1.757,1.757,0,0,0-1.755-1.755H76.934a1.757,1.757,0,0,0-1.755,1.755Zm1.7-4.394a.058.058,0,0,1,.058-.058h3.985a.058.058,0,0,1,.058.058v4.394a.059.059,0,0,1-.058.058H76.934a.058.058,0,0,1-.058-.058Z" transform="translate(-66.678 -297.152)" fill="#773b3d"/>
      <path id="Trazado_1001505" data-name="Trazado 1001505" d="M157.064,148.455h9.866a.848.848,0,0,0,0-1.7h-9.866a.848.848,0,1,0,0,1.7Z" transform="translate(-138.551 -125.317)" fill="#773b3d"/>
      <path id="Trazado_1001506" data-name="Trazado 1001506" d="M157.064,196.465h9.866a.848.848,0,0,0,0-1.7h-9.866a.848.848,0,1,0,0,1.7Z" transform="translate(-138.551 -167.898)" fill="#773b3d"/>
      <path id="Trazado_1001507" data-name="Trazado 1001507" d="M157.064,246.916h9.866a.848.848,0,0,0,0-1.7h-9.866a.848.848,0,1,0,0,1.7Z" transform="translate(-138.551 -212.644)" fill="#773b3d"/>
      <path id="Trazado_1001508" data-name="Trazado 1001508" d="M168.287,293.23H157.064a.848.848,0,1,0,0,1.7h11.223a.848.848,0,1,0,0-1.7Z" transform="translate(-138.551 -255.225)" fill="#773b3d"/>
      <path id="Trazado_1001509" data-name="Trazado 1001509" d="M172.678,343.682H157.064a.848.848,0,1,0,0,1.7h15.614a.848.848,0,1,0,0-1.7Z" transform="translate(-138.551 -299.971)" fill="#773b3d"/>
      <path id="Trazado_1001510" data-name="Trazado 1001510" d="M176.254,391.692h-19.19a.848.848,0,1,0,0,1.7h19.19a.848.848,0,1,0,0-1.7Z" transform="translate(-138.551 -342.552)" fill="#773b3d"/>
    </g>
  </g>
</svg>
