<svg xmlns="http://www.w3.org/2000/svg" width="40" height="36.061" viewBox="0 0 40 36.061">
  <g id="Grupo_1178447" data-name="Grupo 1178447" transform="translate(0 -25.124)">
    <path id="Trazado_999056" data-name="Trazado 999056" d="M19.261,54.29H3.469A2.3,2.3,0,0,1,1.176,52v-18.1H5.088a.588.588,0,1,0,0-1.176H1.176V31.074A2.3,2.3,0,0,1,3.469,28.78H6.395v.677a1.8,1.8,0,0,0,3.606,0V28.78h1.471v.677a1.8,1.8,0,0,0,3.606,0V28.78h1.471v.677a1.8,1.8,0,0,0,3.606,0V28.78h1.471v.677a1.8,1.8,0,0,0,3.606,0V28.78H26.7v.677a1.8,1.8,0,0,0,3.606,0V28.78h2.925a2.3,2.3,0,0,1,2.293,2.293v1.645H7.593a.588.588,0,1,0,0,1.176H35.528V41.53a.588.588,0,0,0,1.176,0V31.074A3.473,3.473,0,0,0,33.235,27.6H30.309v-.677a1.8,1.8,0,1,0-3.606,0V27.6H25.232v-.677a1.8,1.8,0,1,0-3.606,0V27.6H20.155v-.677a1.8,1.8,0,0,0-3.606,0V27.6H15.078v-.677a1.8,1.8,0,1,0-3.606,0V27.6H10v-.677a1.8,1.8,0,0,0-3.606,0V27.6H3.469A3.473,3.473,0,0,0,0,31.074V52a3.473,3.473,0,0,0,3.469,3.469H19.261a.588.588,0,1,0,0-1.176Zm8.618-27.363a.627.627,0,1,1,1.254,0v2.53a.627.627,0,1,1-1.254,0Zm-5.077,0a.627.627,0,1,1,1.254,0v2.53a.627.627,0,1,1-1.254,0Zm-5.077,0a.627.627,0,0,1,1.254,0v2.53a.627.627,0,0,1-1.254,0Zm-5.077,0a.627.627,0,1,1,1.254,0v2.53a.627.627,0,0,1-1.254,0Zm-5.077,0a.627.627,0,0,1,1.254,0v2.53a.627.627,0,0,1-1.254,0Z" fill="#3e5d56"/>
    <path id="Trazado_999057" data-name="Trazado 999057" d="M271.215,236.34a9.789,9.789,0,0,0-8.436,4.859.588.588,0,0,0,1.017.591,8.536,8.536,0,1,1-.891,2.178.588.588,0,0,0-1.14-.29,9.752,9.752,0,1,0,9.449-7.337Z" transform="translate(-240.965 -194.657)" fill="#3e5d56"/>
    <path id="Trazado_999058" data-name="Trazado 999058" d="M379.509,268.56v-.51a.588.588,0,1,0-1.176,0v.51a.588.588,0,1,0,1.176,0Z" transform="translate(-348.672 -223.339)" fill="#3e5d56"/>
    <path id="Trazado_999059" data-name="Trazado 999059" d="M318.65,294.113a.588.588,0,0,0,.416-1l-.361-.361a.588.588,0,0,0-.832.831l.361.361A.586.586,0,0,0,318.65,294.113Z" transform="translate(-292.794 -246.484)" fill="#3e5d56"/>
    <path id="Trazado_999060" data-name="Trazado 999060" d="M293.684,354.385a.588.588,0,0,0,0-1.176h-.51a.588.588,0,1,0,0,1.176Z" transform="translate(-269.647 -302.363)" fill="#3e5d56"/>
    <path id="Trazado_999061" data-name="Trazado 999061" d="M317.874,410.605a.588.588,0,0,0,.832,0l.361-.361a.588.588,0,0,0-.832-.832l-.361.361A.588.588,0,0,0,317.874,410.605Z" transform="translate(-292.793 -354.002)" fill="#3e5d56"/>
    <path id="Trazado_999062" data-name="Trazado 999062" d="M378.333,433.039v.51a.588.588,0,1,0,1.176,0v-.51a.588.588,0,1,0-1.176,0Z" transform="translate(-348.672 -375.392)" fill="#3e5d56"/>
    <path id="Trazado_999063" data-name="Trazado 999063" d="M434.538,410.246l.361.361a.588.588,0,0,0,.832-.832l-.361-.361a.588.588,0,0,0-.832.832Z" transform="translate(-400.311 -354.003)" fill="#3e5d56"/>
    <path id="Trazado_999064" data-name="Trazado 999064" d="M458.673,354.385a.588.588,0,0,0,0-1.176h-.51a.588.588,0,0,0,0,1.176Z" transform="translate(-421.701 -302.363)" fill="#3e5d56"/>
    <path id="Trazado_999065" data-name="Trazado 999065" d="M434.955,294.113a.586.586,0,0,0,.416-.172l.361-.361a.588.588,0,1,0-.832-.831l-.361.361a.588.588,0,0,0,.416,1Z" transform="translate(-400.312 -246.484)" fill="#3e5d56"/>
    <path id="Trazado_999066" data-name="Trazado 999066" d="M345.235,315.455a.588.588,0,1,0-.874.786l1.345,1.5a2.075,2.075,0,1,0,3.681.281l1.082-.885a.588.588,0,1,0-.745-.91l-1.082.885a2.071,2.071,0,0,0-2.061-.158Zm3.138,3.368a.9.9,0,1,1-1.5-.665l0,0,0,0a.9.9,0,0,1,1.5.671Z" transform="translate(-317.223 -267.39)" fill="#3e5d56"/>
    <path id="Trazado_999067" data-name="Trazado 999067" d="M50.273,164.332a1.364,1.364,0,0,0-1.362-1.362H47.167a1.364,1.364,0,0,0-1.362,1.362v1.744a1.364,1.364,0,0,0,1.362,1.362h1.744a1.364,1.364,0,0,0,1.362-1.362ZM49.1,166.076a.187.187,0,0,1-.186.186H47.167a.187.187,0,0,1-.186-.186v-1.744a.187.187,0,0,1,.186-.186h1.744a.187.187,0,0,1,.186.186Z" transform="translate(-42.214 -127.039)" fill="#3e5d56"/>
    <path id="Trazado_999068" data-name="Trazado 999068" d="M129.794,164.332a1.364,1.364,0,0,0-1.362-1.362h-1.744a1.364,1.364,0,0,0-1.362,1.362v1.744a1.364,1.364,0,0,0,1.362,1.362h1.744a1.364,1.364,0,0,0,1.362-1.362Zm-1.176,1.744a.187.187,0,0,1-.186.186h-1.744a.187.187,0,0,1-.186-.186v-1.744a.187.187,0,0,1,.186-.186h1.744a.187.187,0,0,1,.186.186Z" transform="translate(-115.5 -127.039)" fill="#3e5d56"/>
    <path id="Trazado_999069" data-name="Trazado 999069" d="M206.209,162.97a1.364,1.364,0,0,0-1.362,1.362v1.744a1.364,1.364,0,0,0,1.362,1.362h1.744a1.364,1.364,0,0,0,1.362-1.362v-1.744a1.364,1.364,0,0,0-1.362-1.362Zm1.93,1.362v1.744a.187.187,0,0,1-.186.186h-1.744a.187.187,0,0,1-.186-.186v-1.744a.187.187,0,0,1,.186-.186h1.744A.187.187,0,0,1,208.139,164.332Z" transform="translate(-188.787 -127.039)" fill="#3e5d56"/>
    <path id="Trazado_999070" data-name="Trazado 999070" d="M285.73,162.97a1.364,1.364,0,0,0-1.362,1.362v1.744a1.364,1.364,0,0,0,1.362,1.362h1.744a1.364,1.364,0,0,0,1.362-1.362v-1.744a1.364,1.364,0,0,0-1.362-1.362Zm1.93,1.362v1.744a.187.187,0,0,1-.186.186H285.73a.187.187,0,0,1-.186-.186v-1.744a.187.187,0,0,1,.186-.186h1.744A.187.187,0,0,1,287.66,164.332Z" transform="translate(-262.073 -127.039)" fill="#3e5d56"/>
    <path id="Trazado_999071" data-name="Trazado 999071" d="M365.252,162.97a1.364,1.364,0,0,0-1.362,1.362v1.744a1.364,1.364,0,0,0,1.362,1.362H367a1.364,1.364,0,0,0,1.362-1.362v-1.744A1.364,1.364,0,0,0,367,162.97Zm1.93,1.362v1.744a.187.187,0,0,1-.186.186h-1.744a.186.186,0,0,1-.186-.186v-1.744a.187.187,0,0,1,.186-.186H367A.187.187,0,0,1,367.182,164.332Z" transform="translate(-335.361 -127.039)" fill="#3e5d56"/>
    <path id="Trazado_999072" data-name="Trazado 999072" d="M50.273,240.093a1.364,1.364,0,0,0-1.362-1.362H47.167a1.364,1.364,0,0,0-1.362,1.362v1.744a1.364,1.364,0,0,0,1.362,1.362h1.744a1.364,1.364,0,0,0,1.362-1.362ZM49.1,241.837a.187.187,0,0,1-.186.186H47.167a.187.187,0,0,1-.186-.186v-1.744a.187.187,0,0,1,.186-.186h1.744a.187.187,0,0,1,.186.186Z" transform="translate(-42.214 -196.86)" fill="#3e5d56"/>
    <path id="Trazado_999073" data-name="Trazado 999073" d="M129.794,240.093a1.364,1.364,0,0,0-1.362-1.362h-1.744a1.364,1.364,0,0,0-1.362,1.362v1.744a1.364,1.364,0,0,0,1.362,1.362h1.744a1.364,1.364,0,0,0,1.362-1.362Zm-1.176,1.744a.187.187,0,0,1-.186.186h-1.744a.187.187,0,0,1-.186-.186v-1.744a.187.187,0,0,1,.186-.186h1.744a.187.187,0,0,1,.186.186Z" transform="translate(-115.5 -196.86)" fill="#3e5d56"/>
    <path id="Trazado_999074" data-name="Trazado 999074" d="M209.315,240.093a1.364,1.364,0,0,0-1.362-1.362h-1.744a1.364,1.364,0,0,0-1.362,1.362v1.744a1.364,1.364,0,0,0,1.362,1.362h1.744a1.364,1.364,0,0,0,1.362-1.362Zm-1.176,1.744a.187.187,0,0,1-.186.186h-1.744a.187.187,0,0,1-.186-.186v-1.744a.187.187,0,0,1,.186-.186h1.744a.187.187,0,0,1,.186.186Z" transform="translate(-188.787 -196.86)" fill="#3e5d56"/>
    <path id="Trazado_999075" data-name="Trazado 999075" d="M48.911,314.492H47.167a1.364,1.364,0,0,0-1.362,1.362V317.6a1.364,1.364,0,0,0,1.362,1.362h1.744a1.364,1.364,0,0,0,1.362-1.362v-1.744A1.364,1.364,0,0,0,48.911,314.492ZM49.1,317.6a.187.187,0,0,1-.186.186H47.167a.187.187,0,0,1-.186-.186v-1.744a.187.187,0,0,1,.186-.186h1.744a.187.187,0,0,1,.186.186Z" transform="translate(-42.214 -266.681)" fill="#3e5d56"/>
    <path id="Trazado_999076" data-name="Trazado 999076" d="M128.432,314.492h-1.744a1.364,1.364,0,0,0-1.362,1.362V317.6a1.364,1.364,0,0,0,1.362,1.362h1.744a1.364,1.364,0,0,0,1.362-1.362v-1.744A1.364,1.364,0,0,0,128.432,314.492Zm.186,3.106a.187.187,0,0,1-.186.186h-1.744a.187.187,0,0,1-.186-.186v-1.744a.187.187,0,0,1,.186-.186h1.744a.187.187,0,0,1,.186.186Z" transform="translate(-115.5 -266.681)" fill="#3e5d56"/>
  </g>
</svg>
