<svg xmlns="http://www.w3.org/2000/svg" width="40" height="40.021" viewBox="0 0 40 40.021">
  <g id="Grupo_1178448" data-name="Grupo 1178448" transform="translate(0 0.26)">
    <path id="Trazado_999077" data-name="Trazado 999077" d="M159.974,205.175l-3.45-1v-1.839a4.1,4.1,0,0,0,1.455-2.963v-1.39a7.081,7.081,0,0,0,1.519-1.865,5.147,5.147,0,0,0-.641-5.692.628.628,0,0,0-.927.025c-.005.006-.522.584-1.006.487a7.128,7.128,0,0,1-.924-.273,9,9,0,0,0-3.269-.581c-3.64,0-4.793,1.807-5.119,3.323a4.661,4.661,0,0,0,1.738,4.609v1.358a4.125,4.125,0,0,0,1.489,3v1.8l-3.439.995a3.274,3.274,0,0,0-2.352,3.135l.058,6.307a.625.625,0,0,0,.625.619h.006a.625.625,0,0,0,.619-.631l-.058-6.3a2.017,2.017,0,0,1,1.449-1.929l3.328-.962a2.917,2.917,0,0,0,2.706,1.719,2.612,2.612,0,0,0,2.558-1.708l3.287.951a2.018,2.018,0,0,1,1.45,1.934l.058,6.307a.625.625,0,0,0,.625.619h.006a.625.625,0,0,0,.619-.631l-.058-6.3A3.273,3.273,0,0,0,159.974,205.175Zm-11.139-11.5c.334-1.55,1.645-2.336,3.9-2.336a7.712,7.712,0,0,1,2.862.513,8.16,8.16,0,0,0,1.086.317,2.112,2.112,0,0,0,1.6-.375l.019-.013a4.045,4.045,0,0,1,.065,3.824,3.837,3.837,0,0,1-.634.867,1.938,1.938,0,0,0-.853-1.275.873.873,0,0,0-.864.1,2.762,2.762,0,0,1-2.445.656,4.984,4.984,0,0,1-1.882-.65.627.627,0,0,0-.935.3,5.435,5.435,0,0,1-.737,1.219q-.028.036-.055.068A3.369,3.369,0,0,1,148.835,193.672Zm1.766,4.34a3.031,3.031,0,0,0,.4-.43,8.039,8.039,0,0,0,.607-.908,6.525,6.525,0,0,0,1.784.516,3.811,3.811,0,0,0,3.031-.661,6.41,6.41,0,0,1,.3,1.224v1.622c0,1.642-2.061,3.057-3.072,3.057s-3.057-1.415-3.057-3.057Zm3.181,7.871a1.715,1.715,0,0,1-1.683-1.277.628.628,0,0,0-.009-.072v-1.287a3.58,3.58,0,0,0,1.568.435,3.638,3.638,0,0,0,1.617-.459v1.385a1.864,1.864,0,0,1-.264.673,1.355,1.355,0,0,1-1.228.6Z" transform="translate(-133.716 -175.475)" fill="#3e5d56"/>
    <path id="Trazado_999078" data-name="Trazado 999078" d="M12.069,144.2a1.544,1.544,0,0,1,1.106,1.48l-.009,2.973a.625.625,0,0,0,.623.627h0a.625.625,0,0,0,.625-.623l.009-2.973A2.8,2.8,0,0,0,12.42,143l-2.751-.8,0-1.377a3.458,3.458,0,0,0,1.2-2.48l0-1.094a5.828,5.828,0,0,0,1.242-1.531,4.343,4.343,0,0,0-.534-4.8.622.622,0,0,0-.927.022c-.123.141-.462.414-.722.362a5.779,5.779,0,0,1-.744-.223,7.49,7.49,0,0,0-2.72-.49H6.45c-2.377,0-3.9,1-4.3,2.806a3.925,3.925,0,0,0,1.415,3.865l0,1.064A3.481,3.481,0,0,0,4.78,140.84l0,1.349-2.747.786a2.8,2.8,0,0,0-2.02,2.673L0,153.13a.625.625,0,0,0,.624.626h0a.625.625,0,0,0,.625-.624l.009-7.481a1.545,1.545,0,0,1,1.114-1.474l2.647-.758a2.493,2.493,0,0,0,2.277,1.4h.009a2.244,2.244,0,0,0,2.161-1.374ZM5.71,140a2.344,2.344,0,0,1-.9-1.672l0-1.07a2.611,2.611,0,0,0,.308-.334,6.824,6.824,0,0,0,.459-.671,5.478,5.478,0,0,0,1.4.4,3.241,3.241,0,0,0,2.449-.477,5.692,5.692,0,0,1,.194.846l0,1.323a2.935,2.935,0,0,1-2.419,2.393A2.725,2.725,0,0,1,5.71,140ZM3.373,133.66c.1-.451.4-1.822,3.076-1.822H6.47a6.239,6.239,0,0,1,2.314.421,6.79,6.79,0,0,0,.906.267A1.812,1.812,0,0,0,11,132.261a3.237,3.237,0,0,1-.016,2.935,2.578,2.578,0,0,1-.375.536,1.478,1.478,0,0,0-.7-.931.826.826,0,0,0-.819.094,2.179,2.179,0,0,1-1.93.514,3.991,3.991,0,0,1-1.5-.52.622.622,0,0,0-.936.3,4.3,4.3,0,0,1-.561.93,2.628,2.628,0,0,1-.793-2.457ZM7.3,143.566h0a1.3,1.3,0,0,1-1.27-.963c0-.015,0-.029-.006-.044l0-.873a2.915,2.915,0,0,0,1.176.3h.005a2.968,2.968,0,0,0,1.212-.307l0,.952a1.068,1.068,0,0,1-1.113.939Z" transform="translate(0 -120.625)" fill="#3e5d56"/>
    <path id="Trazado_999079" data-name="Trazado 999079" d="M339.773,150.181l-2.216-.647h1.66a.625.625,0,0,0,.625-.625v-5.271a5.265,5.265,0,0,0-10.53,0v5.271a.625.625,0,0,0,.625.625h1.608l-2.163.619a2.8,2.8,0,0,0-2.02,2.672l-.009,3.009a.625.625,0,0,0,.623.627h0a.625.625,0,0,0,.625-.623l.009-3.009a1.544,1.544,0,0,1,1.114-1.474l2.729-.781a2.1,2.1,0,0,0,2.132,1.421,2.2,2.2,0,0,0,1.63-.611,2.033,2.033,0,0,0,.479-.8l2.726.8a1.545,1.545,0,0,1,1.106,1.481l-.009,7.482a.625.625,0,0,0,.624.626h0a.625.625,0,0,0,.625-.624l.009-7.481A2.8,2.8,0,0,0,339.773,150.181Zm-7.314-4.234v-1.275a1.191,1.191,0,0,1,.276-.714c.231-.229.419-.433.572-.615a3.784,3.784,0,0,0,1.2,1,9.664,9.664,0,0,0,2.186.838v.768a2.114,2.114,0,0,1-2.112,2.112h-.011a2.114,2.114,0,0,1-2.112-2.112Zm-1.9-2.309a4.015,4.015,0,1,1,8.03,0v4.646H337a3.349,3.349,0,0,0,.948-2.337v-1.275a.625.625,0,0,0-.534-.618,8,8,0,0,1-2.313-.815,2.317,2.317,0,0,1-1.146-1.264.645.645,0,0,0-.649-.513.587.587,0,0,0-.565.519,4.266,4.266,0,0,1-.881,1.089,2.407,2.407,0,0,0-.647,1.6v1.275a3.35,3.35,0,0,0,.948,2.337h-1.6Zm5,6.284c0,.251-.11.822-.974.822s-.987-.581-.995-.833v-.748a3.349,3.349,0,0,0,.979.146h.011a3.35,3.35,0,0,0,.979-.146v.753c0,.007,0,0,0,.006Z" transform="translate(-301.779 -127.802)" fill="#3e5d56"/>
    <path id="Trazado_999080" data-name="Trazado 999080" d="M163.8,15.842h.018a.625.625,0,0,0,.624-.607l.009-.313v-.016a1.555,1.555,0,0,1,1.117-1.484l2.71-.746a2.09,2.09,0,0,0,.468.745,2.284,2.284,0,0,0,1.7.635,2.185,2.185,0,0,0,2.179-1.369l2.706.76a1.542,1.542,0,0,1,1.055,1.057.625.625,0,1,0,1.2-.347,2.784,2.784,0,0,0-1.6-1.8V5.266a5.526,5.526,0,1,0-11.051,0v7.059a2.814,2.814,0,0,0-1.727,2.569l-.009.306a.625.625,0,0,0,.607.642ZM172.73,7.7a2.268,2.268,0,0,1-2.266,2.266h-.012A2.268,2.268,0,0,1,168.186,7.7V6.866a10.161,10.161,0,0,0,2.327-.888A3.959,3.959,0,0,0,171.8,4.9c.165.2.372.425.629.68a1.265,1.265,0,0,1,.3.779ZM171.4,12.359a.983.983,0,0,1-.951.446c-.951,0-1.061-.635-1.064-.9a.08.08,0,0,0,0-.009v-.843a3.5,3.5,0,0,0,1.069.167h.012a3.5,3.5,0,0,0,1.069-.167V11.9A1.156,1.156,0,0,1,171.4,12.359Zm-.94-11.349a4.27,4.27,0,0,1,4.276,4.255v6.715l-1.951-.548V10.343a3.507,3.507,0,0,0,1.2-2.639V6.357a2.5,2.5,0,0,0-.673-1.667,4.468,4.468,0,0,1-.94-1.165.585.585,0,0,0-.56-.514.648.648,0,0,0-.652.5,2.476,2.476,0,0,1-1.23,1.364,8.591,8.591,0,0,1-2.455.865.625.625,0,0,0-.534.618V7.7a3.507,3.507,0,0,0,1.2,2.639V11.42l-1.951.538V5.266a4.27,4.27,0,0,1,4.276-4.255Z" transform="translate(-150.447)" fill="#3e5d56"/>
  </g>
</svg>
