<svg xmlns="http://www.w3.org/2000/svg" xmlns:xlink="http://www.w3.org/1999/xlink" width="1020" height="230" viewBox="0 0 1020 230">
  <defs>
    <clipPath id="clip-path">
      <rect id="Rectángulo_455478" data-name="Rectángulo 455478" width="1020" height="230" transform="translate(290.273 1503)" fill="#bbded6"/>
    </clipPath>
    <clipPath id="clip-path-2">
      <rect id="Rectángulo_455477" data-name="Rectángulo 455477" width="1020" height="399.794" fill="none"/>
    </clipPath>
    <clipPath id="clip-path-4">
      <rect id="Rectángulo_455419" data-name="Rectángulo 455419" width="318.877" height="234.234" fill="none"/>
    </clipPath>
    <clipPath id="clip-path-5">
      <rect id="Rectángulo_455420" data-name="Rectángulo 455420" width="510.865" height="399.792" fill="none"/>
    </clipPath>
    <clipPath id="clip-path-7">
      <rect id="Rectángulo_455434" data-name="Rectángulo 455434" width="26.338" height="399.792" fill="none"/>
    </clipPath>
    <clipPath id="clip-path-9">
      <rect id="Rectángulo_455455" data-name="Rectángulo 455455" width="1020" height="399.792" fill="none"/>
    </clipPath>
    <radialGradient id="radial-gradient" cx="0" cy="1" r="0.001" gradientTransform="translate(0.304) scale(0.392 1)" gradientUnits="objectBoundingBox">
      <stop offset="0" stop-color="#89d6fd"/>
      <stop offset="1" stop-color="#401414"/>
    </radialGradient>
    <clipPath id="clip-path-11">
      <rect id="Rectángulo_455456" data-name="Rectángulo 455456" width="122.993" height="183.245" fill="none"/>
    </clipPath>
    <clipPath id="clip-path-12">
      <rect id="Rectángulo_455457" data-name="Rectángulo 455457" width="88.381" height="96.583" fill="none"/>
    </clipPath>
  </defs>
  <g id="Enmascarar_grupo_1119197" data-name="Enmascarar grupo 1119197" transform="translate(-290.273 -1503)" clip-path="url(#clip-path)">
    <g id="Grupo_1179660" data-name="Grupo 1179660" transform="translate(290 1414.271)">
      <g id="Grupo_1179659" data-name="Grupo 1179659" clip-path="url(#clip-path-2)">
        <rect id="Rectángulo_455410" data-name="Rectángulo 455410" width="347.443" height="399.792" transform="translate(672.557 0)" fill="#bfdcfe"/>
        <rect id="Rectángulo_455411" data-name="Rectángulo 455411" width="347.443" height="87.167" transform="translate(672.557 312.626)" fill="#fff"/>
        <rect id="Rectángulo_455412" data-name="Rectángulo 455412" width="46.225" height="182.372" transform="translate(973.775 41.958)" fill="#fff"/>
        <rect id="Rectángulo_455413" data-name="Rectángulo 455413" width="208.924" height="94.893" transform="translate(741.886 41.958)" fill="#fff"/>
        <rect id="Rectángulo_455414" data-name="Rectángulo 455414" width="54.995" height="67.278" transform="translate(895.278 157.052)" fill="#fff"/>
        <rect id="Rectángulo_455415" data-name="Rectángulo 455415" width="54.995" height="67.278" transform="translate(817.599 157.052)" fill="#fff"/>
        <rect id="Rectángulo_455416" data-name="Rectángulo 455416" width="54.995" height="67.278" transform="translate(739.92 157.052)" fill="#fff"/>
        <rect id="Rectángulo_455417" data-name="Rectángulo 455417" width="653.715" height="399.792" transform="translate(0 0)" fill="#bfdcfe"/>
        <rect id="Rectángulo_455418" data-name="Rectángulo 455418" width="653.715" height="38.065" transform="translate(0 0)" fill="#bfdcfe"/>
        <g id="Grupo_1179640" data-name="Grupo 1179640">
          <g id="Grupo_1179639" data-name="Grupo 1179639" clip-path="url(#clip-path-2)">
            <g id="Grupo_1179635" data-name="Grupo 1179635" transform="translate(328.852)" opacity="0.36">
              <g id="Grupo_1179634" data-name="Grupo 1179634">
                <g id="Grupo_1179633" data-name="Grupo 1179633" clip-path="url(#clip-path-4)">
                  <path id="Trazado_1001511" data-name="Trazado 1001511" d="M1445.355,149.593l-84.642,84.641L1126.479,0h169.283Z" transform="translate(-1126.48 0)" fill="#fff"/>
                </g>
              </g>
            </g>
            <g id="Grupo_1179638" data-name="Grupo 1179638" transform="translate(115.889)" opacity="0.36">
              <g id="Grupo_1179637" data-name="Grupo 1179637">
                <g id="Grupo_1179636" data-name="Grupo 1179636" clip-path="url(#clip-path-5)">
                  <path id="Trazado_1001512" data-name="Trazado 1001512" d="M907.841,341.551,849.6,399.792H796.753L396.977,0H564.2Z" transform="translate(-396.977)" fill="#fff"/>
                </g>
              </g>
            </g>
          </g>
        </g>
        <rect id="Rectángulo_455422" data-name="Rectángulo 455422" width="6.285" height="399.792" transform="translate(374.457 0)" fill="#6c82d0"/>
        <rect id="Rectángulo_455423" data-name="Rectángulo 455423" width="6.286" height="399.792" transform="translate(202.781 0)" fill="#6c82d0"/>
        <rect id="Rectángulo_455424" data-name="Rectángulo 455424" width="6.285" height="399.792" transform="translate(35.074 0)" fill="#6c82d0"/>
        <rect id="Rectángulo_455425" data-name="Rectángulo 455425" width="6.285" height="399.792" transform="translate(368.172 0)" fill="#fff"/>
        <rect id="Rectángulo_455426" data-name="Rectángulo 455426" width="6.285" height="399.792" transform="translate(196.496 0)" fill="#fff"/>
        <rect id="Rectángulo_455427" data-name="Rectángulo 455427" width="6.286" height="399.792" transform="translate(28.788 0)" fill="#fff"/>
        <rect id="Rectángulo_455428" data-name="Rectángulo 455428" width="538.736" height="6.273" transform="translate(0 228.776)" fill="#6c82d0"/>
        <rect id="Rectángulo_455429" data-name="Rectángulo 455429" width="146.057" height="399.792" transform="translate(538.736 0)" fill="#5768a6"/>
        <rect id="Rectángulo_455430" data-name="Rectángulo 455430" width="19.055" height="399.792" transform="translate(593.221 0)" fill="#5d70b3"/>
        <rect id="Rectángulo_455431" data-name="Rectángulo 455431" width="8.419" height="399.792" transform="translate(623.327 0)" fill="#5d70b3"/>
        <rect id="Rectángulo_455432" data-name="Rectángulo 455432" width="41.615" height="399.792" transform="translate(538.736 0)" fill="#5d70b3"/>
        <g id="Grupo_1179645" data-name="Grupo 1179645">
          <g id="Grupo_1179644" data-name="Grupo 1179644" clip-path="url(#clip-path-2)">
            <g id="Grupo_1179643" data-name="Grupo 1179643" transform="translate(512.397)" opacity="0.25">
              <g id="Grupo_1179642" data-name="Grupo 1179642">
                <g id="Grupo_1179641" data-name="Grupo 1179641" clip-path="url(#clip-path-7)">
                  <rect id="Rectángulo_455433" data-name="Rectángulo 455433" width="26.338" height="399.792" transform="translate(0.001 0)" fill="#231f20"/>
                </g>
              </g>
            </g>
          </g>
        </g>
        <rect id="Rectángulo_455436" data-name="Rectángulo 455436" width="24.63" height="2.794" transform="translate(995.37 63.507)" fill="#ffd898"/>
        <rect id="Rectángulo_455437" data-name="Rectángulo 455437" width="24.63" height="2.794" transform="translate(995.37 76.676)" fill="#ffd898"/>
        <rect id="Rectángulo_455438" data-name="Rectángulo 455438" width="24.63" height="2.793" transform="translate(995.37 89.845)" fill="#ffd898"/>
        <rect id="Rectángulo_455439" data-name="Rectángulo 455439" width="24.63" height="2.793" transform="translate(995.37 103.014)" fill="#ffd898"/>
        <rect id="Rectángulo_455440" data-name="Rectángulo 455440" width="24.63" height="2.793" transform="translate(995.37 116.184)" fill="#ffd898"/>
        <rect id="Rectángulo_455441" data-name="Rectángulo 455441" width="24.63" height="2.793" transform="translate(995.37 129.353)" fill="#ffd898"/>
        <rect id="Rectángulo_455442" data-name="Rectángulo 455442" width="24.63" height="2.793" transform="translate(995.37 142.522)" fill="#ffd898"/>
        <rect id="Rectángulo_455443" data-name="Rectángulo 455443" width="24.63" height="2.793" transform="translate(995.37 155.691)" fill="#ffd898"/>
        <rect id="Rectángulo_455444" data-name="Rectángulo 455444" width="24.63" height="2.793" transform="translate(995.37 168.86)" fill="#ffd898"/>
        <rect id="Rectángulo_455445" data-name="Rectángulo 455445" width="24.63" height="2.794" transform="translate(995.37 182.029)" fill="#ffd898"/>
        <rect id="Rectángulo_455446" data-name="Rectángulo 455446" width="106.655" height="2.793" transform="translate(824.373 55.924)" fill="#ffd898"/>
        <rect id="Rectángulo_455447" data-name="Rectángulo 455447" width="106.655" height="2.793" transform="translate(824.373 69.093)" fill="#ffd898"/>
        <rect id="Rectángulo_455448" data-name="Rectángulo 455448" width="106.655" height="2.793" transform="translate(824.373 82.262)" fill="#ffd898"/>
        <rect id="Rectángulo_455449" data-name="Rectángulo 455449" width="106.655" height="2.793" transform="translate(824.373 95.431)" fill="#ffd898"/>
        <rect id="Rectángulo_455450" data-name="Rectángulo 455450" width="106.655" height="2.793" transform="translate(824.373 108.6)" fill="#ffd898"/>
        <rect id="Rectángulo_455451" data-name="Rectángulo 455451" width="106.655" height="2.793" transform="translate(824.373 121.769)" fill="#ffd898"/>
        <rect id="Rectángulo_455452" data-name="Rectángulo 455452" width="53.354" height="69.442" transform="translate(756.643 55.923)" fill="#f4f0ed"/>
        <g id="Grupo_1179658" data-name="Grupo 1179658">
          <g id="Grupo_1179657" data-name="Grupo 1179657" clip-path="url(#clip-path-2)">
            <g id="Grupo_1179650" data-name="Grupo 1179650" opacity="0.26" style="mix-blend-mode: overlay;isolation: isolate">
              <g id="Grupo_1179649" data-name="Grupo 1179649">
                <g id="Grupo_1179648" data-name="Grupo 1179648" clip-path="url(#clip-path-9)">
                  <g id="Grupo_1179647" data-name="Grupo 1179647" transform="translate(0 0)">
                    <g id="Grupo_1179646" data-name="Grupo 1179646" clip-path="url(#clip-path-9)">
                      <rect id="Rectángulo_455453" data-name="Rectángulo 455453" width="1020" height="399.792" transform="translate(0 0)" fill="url(#radial-gradient)"/>
                    </g>
                  </g>
                </g>
              </g>
            </g>
            <g id="Grupo_1179653" data-name="Grupo 1179653" transform="translate(198.847 216.547)" opacity="0.2" style="mix-blend-mode: multiply;isolation: isolate">
              <g id="Grupo_1179652" data-name="Grupo 1179652">
                <g id="Grupo_1179651" data-name="Grupo 1179651" clip-path="url(#clip-path-11)">
                  <path id="Trazado_1001513" data-name="Trazado 1001513" d="M800.546,901.844a198.967,198.967,0,0,0-15.121-66.3L681.15,744.3s45.185-12.955,71.7,19.864c21.465,26.56,31.7,58.787,34.821,70.11a201.635,201.635,0,0,1,15.438,67.448q.565,12.042,1.034,23.3h-2.565q-.469-11.189-1.032-23.181" transform="translate(-681.15 -741.78)" fill="#412233"/>
                </g>
              </g>
            </g>
            <g id="Grupo_1179656" data-name="Grupo 1179656" transform="translate(221.043 303.209)" opacity="0.2" style="mix-blend-mode: multiply;isolation: isolate">
              <g id="Grupo_1179655" data-name="Grupo 1179655">
                <g id="Grupo_1179654" data-name="Grupo 1179654" clip-path="url(#clip-path-12)">
                  <path id="Trazado_1001514" data-name="Trazado 1001514" d="M769.713,1121.378s37.883-27.572,67.863,3.718c-3.169-17.64-6.82-31.83-10.9-38.1q-.89-1.358-1.886-2.688L757.182,1038.8c47.093-2.791,64.453,31.125,69.138,43.264.887,1.159,1.73,2.34,2.505,3.535,4.587,7.048,8.608,23.337,12.027,43.193a75.709,75.709,0,0,1,4.711,6.428H796.886Z" transform="translate(-757.182 -1038.641)" fill="#412233"/>
                </g>
              </g>
            </g>
            <path id="Trazado_1001515" data-name="Trazado 1001515" d="M1605.371,818.708a20.361,20.361,0,0,1,20.361-20.361h148.6V965.079H1605.371Z" transform="translate(-1136.717 -565.286)" fill="#fbcf9c"/>
            <path id="Trazado_1001516" data-name="Trazado 1001516" d="M1729.277,818.708a20.361,20.361,0,0,1,20.361-20.361h162.016V965.079H1729.277Z" transform="translate(-1224.451 -565.286)" fill="#fb9d66"/>
            <rect id="Rectángulo_455458" data-name="Rectángulo 455458" width="270.354" height="166.732" transform="translate(687.102 233.061)" fill="#fb9d66"/>
            <path id="Trazado_1001517" data-name="Trazado 1001517" d="M1757.63,1288.359a7.013,7.013,0,0,1,7.013-7.013h347.981v25.73H1757.63Z" transform="translate(-1244.527 -907.284)" fill="#fbcf9c"/>
            <path id="Trazado_1001518" data-name="Trazado 1001518" d="M2586.933,861.04h-225.9a7.025,7.025,0,0,0-7.024,7.024V983.74h208.463a24.461,24.461,0,0,0,24.461-24.461Z" transform="translate(-1666.805 -609.677)" fill="#cec5ca"/>
            <path id="Trazado_1001519" data-name="Trazado 1001519" d="M2427.42,983.74h37.1a3.783,3.783,0,0,0,3.782-3.782V861.04h-34.427a6.457,6.457,0,0,0-6.457,6.457Z" transform="translate(-1718.786 -609.677)" fill="#e0d8dd"/>
            <path id="Trazado_1001520" data-name="Trazado 1001520" d="M2460.216,1289.219a7.873,7.873,0,0,1,7.873-7.873h194.32v25.73H2460.216Z" transform="translate(-1742.008 -907.284)" fill="#fb9d66"/>
            <path id="Trazado_1001521" data-name="Trazado 1001521" d="M1797.423,861.04H1953.1a6.916,6.916,0,0,1,6.8,7.024V983.74H1819.392c-12.133,0-21.969-10.156-21.969-22.683Z" transform="translate(-1272.703 -609.677)" fill="#e6dfe4"/>
            <path id="Trazado_1001522" data-name="Trazado 1001522" d="M1798.514,983.74h-37.1a3.783,3.783,0,0,1-3.783-3.782V861.04h34.427a6.457,6.457,0,0,1,6.457,6.457Z" transform="translate(-1244.527 -609.677)" fill="#fff"/>
            <path id="Trazado_1001523" data-name="Trazado 1001523" d="M2003.953,454.419l58.489-15.895L2040.45,357.6a30.305,30.305,0,1,0-58.489,15.895Z" transform="translate(-1402.613 -237.367)" fill="#412233"/>
            <rect id="Rectángulo_455459" data-name="Rectángulo 455459" width="87.826" height="37.323" transform="translate(494.726 310.782)" fill="#878358"/>
            <path id="Trazado_1001524" data-name="Trazado 1001524" d="M1542.475,1129.055c-10.857-30.274,10.263-63.206,42.4-64.6.71-.039,1.42-.052,2.143-.052a48.707,48.707,0,0,1,46.992,61.605l3.076,27.457h-85.844Z" transform="translate(-1090.145 -753.673)" fill="#566a91"/>
            <path id="Trazado_1001525" data-name="Trazado 1001525" d="M1829.919,1064.451v71.886h45.273v-8.557h100.582c10.394-9.05,15.166-24.731,14.113-44.063l-1.635-19.265Z" transform="translate(-1295.713 -753.707)" fill="#6d89ba"/>
            <path id="Trazado_1001526" data-name="Trazado 1001526" d="M1665.9,1129.055c-10.857-30.274,10.263-63.206,42.4-64.6.71-.039,1.42-.052,2.143-.052a48.707,48.707,0,0,1,46.991,61.605l3.076,27.457h-85.844Z" transform="translate(-1177.538 -753.673)" fill="#6d89ba"/>
            <path id="Trazado_1001527" data-name="Trazado 1001527" d="M1721.94,702.47a27.4,27.4,0,0,0,38.729-2.156l14.481-16.024,2.4-2.688,5.3-5.883,2.1-2.316,2.289-2.529,2.236-2.476L1832.7,620.38a27.38,27.38,0,0,0-2.156-38.756,27.012,27.012,0,0,0-5.483-3.807,27.488,27.488,0,0,0-18.553-2.582,27.162,27.162,0,0,0-14.693,8.544l-1.278,1.437-3.168,3.514-.319.346-2.635,2.875-29.733,32.98-8.145,9.05-26.751,29.759a27.371,27.371,0,0,0,2.156,38.729" transform="translate(-1212.765 -406.885)" fill="#fff"/>
            <path id="Trazado_1001528" data-name="Trazado 1001528" d="M1355.509,778.463h0a3.657,3.657,0,0,1,2.977,2.57,15.375,15.375,0,0,0,12.566,10.71l7.45,1.043a2.53,2.53,0,0,0,2.521-3.807,4.285,4.285,0,0,0-3.081-2.04l-4.46-.624a4.41,4.41,0,0,1-3.87-4.443,4.286,4.286,0,0,1,4.876-4.069l6.287.88a9.38,9.38,0,0,1,6.745,4.466l7.133,11.9,12.191,1.706-4.964,35.471-29.031-4.063A12.534,12.534,0,0,1,1362.6,819.4l-11.058-36.289a3.627,3.627,0,0,1,3.972-4.649" transform="translate(-956.87 -550.71)" fill="#60a4fc"/>
            <path id="Trazado_1001529" data-name="Trazado 1001529" d="M1400.932,805.888s11.173,29.413,1.053,27.045-22.5-34.941-22.5-34.941Z" transform="translate(-976.774 -565.035)" fill="#6491d9"/>
            <path id="Trazado_1001530" data-name="Trazado 1001530" d="M1631.013,875.872c-2.094,14.995-13.379,25.816-30.972,23.358-14.63-2.048-44.539-11.4-62.029-17.141-.771-.267-1.518-.514-2.217-.745-2.8-.922-5.2-1.734-7.071-2.364-2.755-.927-4.344-1.478-4.344-1.478l-.005-.044,2.583-35.759,8.737.351,2.229.093,52.191,2.064,4.771.172c.044-.005.091.012.135.006l1.17.04a.958.958,0,0,1,.113.009.031.031,0,0,0,.044-.005l11.3.449a27.443,27.443,0,0,1,23.36,30.994" transform="translate(-1079.366 -595.982)" fill="#ffb38c"/>
            <path id="Trazado_1001531" data-name="Trazado 1001531" d="M1928.693,582.11V684.3h129.4s7.321-98.78-5.83-124.06c-3.026-5.808-8.323-11.3-14.153-16.022a102.632,102.632,0,0,0-21.541-13.352l-.067-.022-.088-.039a38.562,38.562,0,0,0-18.153-3.124l-16.763,1.115c-5.919,0-26.1,10.637-40.033,28.106a63.152,63.152,0,0,0-12.773,25.212" transform="translate(-1365.651 -373.57)" fill="#fff"/>
            <path id="Trazado_1001532" data-name="Trazado 1001532" d="M2099.593,735.285a8.338,8.338,0,0,0,8.329-8.329V695.828a8.329,8.329,0,0,0-16.658,0v31.128a8.338,8.338,0,0,0,8.329,8.329m0-44.757a5.307,5.307,0,0,1,5.3,5.3v31.128a5.3,5.3,0,0,1-10.6,0V695.828a5.307,5.307,0,0,1,5.3-5.3" transform="translate(-1480.764 -486.798)" fill="#4265c9"/>
            <path id="Trazado_1001533" data-name="Trazado 1001533" d="M2118.307,839.292a2.767,2.767,0,1,0,2.767-2.767,2.767,2.767,0,0,0-2.767,2.767" transform="translate(-1499.912 -592.319)" fill="#412233"/>
            <path id="Trazado_1001534" data-name="Trazado 1001534" d="M2102.332,839.292a2.767,2.767,0,1,0,2.767-2.767,2.767,2.767,0,0,0-2.767,2.767" transform="translate(-1488.6 -592.319)" fill="#412233"/>
            <path id="Trazado_1001535" data-name="Trazado 1001535" d="M1964.867,594.061l3.023-.228c1.429-6.24.948-14.182,7.487-30.143,5.729-13.976,26.387-26.5,31.054-29.3l-.951-3.368c-2.3,1.3-26.208,15.164-32.911,31.53-6.855,16.732-6.3,25-7.7,31.509" transform="translate(-1391.265 -376.001)" fill="#4265c9"/>
            <path id="Trazado_1001536" data-name="Trazado 1001536" d="M1951.278,743.734a5.375,5.375,0,1,0,5.375-5.375,5.375,5.375,0,0,0-5.375,5.375" transform="translate(-1381.643 -522.811)" fill="#412233"/>
            <path id="Trazado_1001537" data-name="Trazado 1001537" d="M2060.909,454.6l20.678-21.464-19.845-41.53-25.238,9.829Z" transform="translate(-1441.99 -277.284)" fill="#ffb38c"/>
            <path id="Trazado_1001538" data-name="Trazado 1001538" d="M2008.016,373.437l.04.257a17.672,17.672,0,0,0,.985,3.64,17.383,17.383,0,0,0,20.176,10.622,16.408,16.408,0,0,0,2.338-.726,17.157,17.157,0,0,0,2.635-1.3,17.392,17.392,0,0,0-11.343-32.138,17.624,17.624,0,0,0-3.91,1.027,17.4,17.4,0,0,0-10.921,18.617" transform="translate(-1421.699 -250.392)" fill="#ffb38c"/>
            <path id="Trazado_1001539" data-name="Trazado 1001539" d="M2011.645,430.178q.073.466.187.926a8.577,8.577,0,0,0,11.1,5.63l12.765-4.974-1.1-10.034-1.929-17.548-3.419.715-20.827,4.339.04.257Z" transform="translate(-1422.106 -286.187)" fill="#ffb38c"/>
            <path id="Trazado_1001540" data-name="Trazado 1001540" d="M2007.465,370.312s13.165,7.157,27.46,6.882c6.112-.118,10.622,1.088,12.511.6l-6.254-13.08a17.394,17.394,0,0,0-22.517-9.9,17.643,17.643,0,0,0-11.2,15.5" transform="translate(-1421.428 -250.39)" fill="#412233"/>
            <path id="Trazado_1001541" data-name="Trazado 1001541" d="M2074.99,499.8l9.866-3.842-7.346,9.332Z" transform="translate(-1469.241 -351.171)" fill="#412233"/>
            <path id="Trazado_1001542" data-name="Trazado 1001542" d="M2086.687,417.4a5.7,5.7,0,1,0,3.244-7.383,5.7,5.7,0,0,0-3.244,7.383" transform="translate(-1477.246 -290.046)" fill="#ffb38c"/>
            <path id="Trazado_1001543" data-name="Trazado 1001543" d="M2028.866,461.792l2.869-.449-.16-1.02-1.849.289-.688-4.4-1.02.16Z" transform="translate(-1435.981 -323.03)" fill="#412233"/>
            <path id="Trazado_1001544" data-name="Trazado 1001544" d="M2052.093,480.524c3.231-.506,4.939-3.783,5.01-3.921l-.919-.471c-.015.029-1.545,2.948-4.25,3.372Z" transform="translate(-1452.914 -337.135)" fill="#412233"/>
            <path id="Trazado_1001545" data-name="Trazado 1001545" d="M1963.153,694.259a24.613,24.613,0,0,0,34.767-1.545l24.126-26.5,32.8-36.044,8-8.781c.426-.471.851-.963,1.232-1.456a16.571,16.571,0,0,0,1.165-1.635,24.145,24.145,0,0,0,3.764-9.745c.044-.358.09-.694.134-1.053a24.592,24.592,0,0,0-31.25-26.344l-82.661,93.5a24.608,24.608,0,0,0,7.93,19.6" transform="translate(-1384.406 -410.811)" fill="#fff"/>
            <path id="Trazado_1001546" data-name="Trazado 1001546" d="M2011.682,788.612,2027.506,771l1.669,1.518-15.824,17.61Z" transform="translate(-1424.413 -545.924)" fill="#412233"/>
            <path id="Trazado_1001547" data-name="Trazado 1001547" d="M1760.967,696.816s2.351,2.751,6.128,7.073c11.478,13.147,36.1,40.8,47.455,49.469,12.393,9.463,25.678,6.057,33.75-4.515a24.031,24.031,0,0,0-4.411-33.67c-.032-.025-.073-.054-.1-.079l-72.815-44.754Z" transform="translate(-1246.89 -474.648)" fill="#ffb38c"/>
            <rect id="Rectángulo_455460" data-name="Rectángulo 455460" width="1.39" height="32.264" transform="translate(462.862 190.141) rotate(-88.404)" fill="#412233"/>
            <path id="Trazado_1001548" data-name="Trazado 1001548" d="M1575.708,646.585l-3.84-.107a1.536,1.536,0,1,1,.086-3.071l3.839.107a1.536,1.536,0,0,1-.085,3.072" transform="translate(-1111.937 -455.577)" fill="#fff"/>
            <path id="Trazado_1001549" data-name="Trazado 1001549" d="M1670.068,642.076l6.777,34.5a5.028,5.028,0,0,0,6.4,3.845,5.082,5.082,0,0,0,3.529-4.577,5.4,5.4,0,0,0-.086-1.425,1.648,1.648,0,0,1,2.105-1.89l14.356,8.563s7.262-5.626,9.422-14.382-2.484-20.481-12.418-23.558l-12.3-3.809c-14.16-4.576-18.291.166-17.784,2.734" transform="translate(-1182.498 -451.345)" fill="#60a4fc"/>
            <path id="Trazado_1001550" data-name="Trazado 1001550" d="M1999.3,805.4a26.636,26.636,0,0,0,15.25-4.669c15.665-10.651,67.144-68.954,69.328-71.43l-1.79-1.576c-.532.6-53.462,60.551-68.879,71.034-14.878,10.112-31.49-.912-31.655-1.026l-1.339,1.976a38.062,38.062,0,0,0,19.085,5.69" transform="translate(-1402.129 -515.279)" fill="#412233"/>
            <path id="Trazado_1001551" data-name="Trazado 1001551" d="M2487.317,818.708a20.361,20.361,0,0,1,20.361-20.361h148.6V965.079H2487.317Z" transform="translate(-1761.197 -565.286)" fill="#fbcf9c"/>
            <path id="Trazado_1001552" data-name="Trazado 1001552" d="M2611.223,818.708a20.361,20.361,0,0,1,20.361-20.361h174.8V965.079H2611.223Z" transform="translate(-1848.931 -565.286)" fill="#fb9d66"/>
            <path id="Trazado_1001553" data-name="Trazado 1001553" d="M2117.65,563.6c.024-.208,2.425-20.84,10.944-30.653a33.167,33.167,0,0,1,8.794-6.962c3.1-1.851,5.775-3.449,5.775-6.974,0-2.972-.855-5.192-2.542-6.6-2.392-1.994-6.637-1.067-6.767-1.044l1.092,2.286a3.756,3.756,0,0,1,3.752,1.1,6.412,6.412,0,0,1,1.437,4.259c0,1.733-1.319,2.593-4.3,4.373a36.258,36.258,0,0,0-9.528,7.576c-9.139,10.528-11.567,31.418-11.666,32.3Z" transform="translate(-1497.315 -361.917)" fill="#4265c9"/>
            <path id="Trazado_1001554" data-name="Trazado 1001554" d="M3246.784,1034.481l7.424.362-4.748,97.435h-7.442Z" transform="translate(-2295.579 -732.486)" fill="#412233"/>
            <path id="Trazado_1001555" data-name="Trazado 1001555" d="M2921.924,1235.18s65.321,1.589,86.043-11.315,18.921-13.8,18.921-13.8l-12.614-6.757Z" transform="translate(-2068.93 -852.024)" fill="#412233"/>
            <path id="Trazado_1001556" data-name="Trazado 1001556" d="M3234.981,1112.258l57.537,34.931v14.78c-11.958-2.232-25.183-5.534-35.463-10.3-24.777-11.5-47.605-39.406-47.605-39.406Z" transform="translate(-2272.518 -787.558)" fill="#412233"/>
            <path id="Trazado_1001557" data-name="Trazado 1001557" d="M3228.859,978.355c21.264-21.479,51.541-29.235,77.4-31.471v13.609Z" transform="translate(-2286.261 -670.461)" fill="#412233"/>
            <path id="Trazado_1001558" data-name="Trazado 1001558" d="M2883.346,1054.827l85.592,35.138s0-37.841-85.592-35.138" transform="translate(-2041.614 -746.794)" fill="#412233"/>
            <path id="Trazado_1001559" data-name="Trazado 1001559" d="M3344.745,1299.858l25.212,20.326h-17.7a157.161,157.161,0,0,1-7.509-20.326" transform="translate(-2368.317 -920.392)" fill="#412233"/>
            <path id="Trazado_1001560" data-name="Trazado 1001560" d="M3291.735,1365.988s-.257.372-.727,1.021h-16.9Z" transform="translate(-2318.299 -967.216)" fill="#412233"/>
            <rect id="Rectángulo_455461" data-name="Rectángulo 455461" width="33.697" height="2.027" transform="translate(950.481 396.128) rotate(-12.164)" fill="#412233"/>
            <rect id="Rectángulo_455462" data-name="Rectángulo 455462" width="2.027" height="29.653" transform="matrix(0.9, -0.436, 0.436, 0.9, 936.019, 362.589)" fill="#412233"/>
            <rect id="Rectángulo_455463" data-name="Rectángulo 455463" width="38.702" height="2.027" transform="matrix(0.55, -0.835, 0.835, 0.55, 949.849, 374.936)" fill="#412233"/>
            <rect id="Rectángulo_455464" data-name="Rectángulo 455464" width="2.027" height="61.281" transform="translate(906.895 329.411) rotate(-44.665)" fill="#412233"/>
            <path id="Trazado_1001561" data-name="Trazado 1001561" d="M716.278,957.39c-1.971-41.976-18.087-76.52-31.259-98.107-14.293-23.424-28.306-37.081-28.445-37.215l1.781-1.843c.142.137,14.348,13.972,28.809,37.653,13.347,21.857,29.676,56.842,31.675,99.393q.565,12.042,1.035,23.3h-2.565q-.469-11.192-1.03-23.179" transform="translate(-464.9 -580.777)" fill="#412233"/>
            <path id="Trazado_1001562" data-name="Trazado 1001562" d="M918.346,942.68c2-42.551,18.328-77.536,31.675-99.393,14.461-23.681,28.667-37.516,28.809-37.653l1.78,1.843c-.14.135-14.152,13.791-28.445,37.215-13.173,21.588-29.288,56.131-31.259,98.107q-.67,14.274-1.207,27.438h-2.565q.541-13.2,1.211-27.559" transform="translate(-649.397 -570.447)" fill="#412233"/>
            <path id="Trazado_1001563" data-name="Trazado 1001563" d="M1033.808,1091.484c28.8-20.828,42.542-24.966,42.822-25.066l-.312,1.778c-.276.1-12.55,4.771-41.061,25.4-18.91,13.684-40.993,34.154-53.73,61.293H978.7c12.885-28.175,35.648-49.334,55.108-63.407" transform="translate(-692.989 -755.1)" fill="#412233"/>
            <path id="Trazado_1001564" data-name="Trazado 1001564" d="M622.582,1095.942c-15.792-24.266-58.774-42.125-59.207-42.3l.974-2.37c1.8.737,44.157,18.346,60.38,43.275,5.074,7.8,9.455,26.893,13.091,49.621h-2.626c-3.549-22.241-7.78-40.8-12.612-48.223" transform="translate(-398.909 -744.373)" fill="#412233"/>
            <path id="Trazado_1001565" data-name="Trazado 1001565" d="M746.3,1339.7l1.16-2.284a97.993,97.993,0,0,1,14.365,9.361H757.41A93.573,93.573,0,0,0,746.3,1339.7" transform="translate(-528.43 -946.987)" fill="#412233"/>
            <path id="Trazado_1001566" data-name="Trazado 1001566" d="M452.09,744.3s45.187-12.955,71.7,19.862,35.9,74.286,35.9,74.286Z" transform="translate(-320.112 -525.233)" fill="#412233"/>
            <path id="Trazado_1001567" data-name="Trazado 1001567" d="M1016.477,791.424l-60.236,95.83s-7.068-84.694,60.236-95.83" transform="translate(-676.935 -560.384)" fill="#412233"/>
            <path id="Trazado_1001568" data-name="Trazado 1001568" d="M1041.109,1122.173l83.3-61.686s-60.585-19.138-83.3,61.686" transform="translate(-737.179 -749.501)" fill="#412233"/>
            <path id="Trazado_1001569" data-name="Trazado 1001569" d="M571.054,1294.833s45.131-32.849,75.856,13.845H598.226Z" transform="translate(-404.347 -908.886)" fill="#412233"/>
            <path id="Trazado_1001570" data-name="Trazado 1001570" d="M528.127,1038.8l70.57,47.5s-13.306-50.889-70.57-47.5" transform="translate(-373.951 -735.429)" fill="#412233"/>
            <rect id="Rectángulo_455465" data-name="Rectángulo 455465" width="6.121" height="25.255" transform="translate(318.987 374.537)" fill="#73617a"/>
            <rect id="Rectángulo_455466" data-name="Rectángulo 455466" width="6.121" height="25.255" transform="translate(375.579 374.537)" fill="#73617a"/>
            <rect id="Rectángulo_455467" data-name="Rectángulo 455467" width="6.121" height="25.255" transform="translate(429.447 374.537)" fill="#412233"/>
            <path id="Trazado_1001571" data-name="Trazado 1001571" d="M1101.56,1188.106H1200.4a8.872,8.872,0,0,1,8.872,8.872V1215.8h-116.58v-18.823a8.872,8.872,0,0,1,8.872-8.872" transform="translate(-773.701 -841.263)" fill="#ffa273"/>
            <path id="Trazado_1001572" data-name="Trazado 1001572" d="M1099.606,1188.106h48.877a6.918,6.918,0,0,1,6.918,6.918V1215.8h-62.713v-20.777a6.918,6.918,0,0,1,6.918-6.918" transform="translate(-773.701 -841.263)" fill="#fbc483"/>
            <rect id="Rectángulo_455468" data-name="Rectángulo 455468" width="53.867" height="6.121" transform="translate(381.7 385.059)" fill="#412233"/>
            <rect id="Rectángulo_455469" data-name="Rectángulo 455469" width="62.713" height="6.121" transform="translate(318.987 385.059)" fill="#73617a"/>
            <path id="Trazado_1001573" data-name="Trazado 1001573" d="M1496.161,1282.749h45.251l2.478,25.32h-43.427Z" transform="translate(-1059.389 -908.278)" fill="#ffa273"/>
            <path id="Trazado_1001574" data-name="Trazado 1001574" d="M1363.1,890.969l-1.4.564a14.374,14.374,0,0,1-18.71-7.948l-17.73-43.915a14.375,14.375,0,0,1,7.947-18.711l1.4-.564a14.374,14.374,0,0,1,18.711,7.948l17.73,43.915a14.375,14.375,0,0,1-7.947,18.711" transform="translate(-937.638 -580.155)" fill="#b37475"/>
            <path id="Trazado_1001575" data-name="Trazado 1001575" d="M1405.533,1006.479h0c-6.191,7.531-1.265,18.518,4.916,23.092s32.687,4.7,32.687,4.7l11.224-15.422-24.638-15.308c-5.93-4.009-18-4.594-24.19,2.936" transform="translate(-993.198 -708.523)" fill="#ffa273"/>
            <path id="Trazado_1001576" data-name="Trazado 1001576" d="M1566.356,1057.2l-12.858,19.885c-1.079,1.671-4.11,1.7-5.368,1.2a2.512,2.512,0,0,1-1.51-2.434,3.19,3.19,0,0,1,.521-1.876,1.023,1.023,0,0,0-1.02-1.535l-6.772.066c-4.792.047-8.574-3.286-8.45-7.446l.374-12.542,23.325-.227c10.95-.226,12.711,3.424,11.759,4.907" transform="translate(-1083.983 -745.088)" fill="#ffa273"/>
            <path id="Trazado_1001577" data-name="Trazado 1001577" d="M1372.354,1064.347v44.585h-7.185v-8.438h-60.488a22.322,22.322,0,0,1-3.387-21.758,22.44,22.44,0,0,1,3.972-6.657Z" transform="translate(-920.388 -753.633)" fill="#633b53"/>
            <path id="Trazado_1001578" data-name="Trazado 1001578" d="M1524.892,1153.094l-8.481-59.979c-2.187-15.47-14.065-28.761-28.7-28.761h0c-13.277,0-24.354,11.025-21.93,25.094l10.967,63.646Z" transform="translate(-1037.642 -753.638)" fill="#633b53"/>
            <path id="Trazado_1001579" data-name="Trazado 1001579" d="M1490.144,1323.892h51.442l1.947,13.31h-51.442Z" transform="translate(-1055.128 -937.41)" fill="#734560"/>
            <rect id="Rectángulo_455470" data-name="Rectángulo 455470" width="51.442" height="0.002" transform="translate(437.384 404.425) rotate(-10.376)" fill="#734560"/>
            <path id="Trazado_1001580" data-name="Trazado 1001580" d="M1209.09,854.866s-11.6,2.449-34.838,2.449-52.055,1.043-52.055,1.043l3.665-63.615a32.324,32.324,0,0,1,27.821-32.012c.729-.114,1.469-.194,2.21-.25.763-.057,1.526-.08,2.312-.08h21.045a31.973,31.973,0,0,1,5.66.5c.74.125,1.469.273,2.186.455a32.374,32.374,0,0,1,24.5,31.386Z" transform="translate(-794.595 -539.833)" fill="#b37475"/>
            <path id="Trazado_1001581" data-name="Trazado 1001581" d="M1039.67,867.043l.665.414a14,14,0,0,0,19.278-4.477l26.574-42.651a13.994,13.994,0,0,0-4.477-19.278l-.665-.415a13.994,13.994,0,0,0-19.278,4.477l-26.574,42.651a14,14,0,0,0,4.477,19.278" transform="translate(-731.49 -565.407)" fill="#b37475"/>
            <path id="Trazado_1001582" data-name="Trazado 1001582" d="M1266.639,762.9s-3.441,5.659-11.986,5.659-17.031-6.08-17.031-6.08c.763-.057,1.526-.08,2.312-.08h21.045a32,32,0,0,1,5.66.5" transform="translate(-876.324 -539.834)" fill="#ffa273"/>
            <path id="Trazado_1001583" data-name="Trazado 1001583" d="M1034.8,953.1h0c-5.322,7.686-1.124,17.865,7.712,22.583s46.031,6.088,46.031,6.088l9.133-15.747-38.091-19.348A20.187,20.187,0,0,0,1034.8,953.1" transform="translate(-731.05 -668.972)" fill="#ffa273"/>
            <path id="Trazado_1001584" data-name="Trazado 1001584" d="M1243.5,1005.74l-9.749,20.345c-.817,1.709-3.679,2.1-4.927,1.785a2.393,2.393,0,0,1-1.721-2.118,3.034,3.034,0,0,1,.266-1.835c.342-.719-.282-1.452-1.15-1.328l-6.392.88c-4.523.623-8.5-2.069-8.885-6.015l-1.162-11.9,22.014-3.032c10.321-1.537,12.426,1.7,11.706,3.216" transform="translate(-856.611 -709.572)" fill="#ffa273"/>
            <path id="Trazado_1001585" data-name="Trazado 1001585" d="M1306.64,1282.749h45.251l2.478,25.32h-43.427Z" transform="translate(-925.194 -908.278)" fill="#ffa273"/>
            <path id="Trazado_1001586" data-name="Trazado 1001586" d="M1182.835,1064.347v36.147h-67.673a22.274,22.274,0,0,1,.581-28.415Z" transform="translate(-786.195 -753.633)" fill="#7a4867"/>
            <path id="Trazado_1001587" data-name="Trazado 1001587" d="M1335.371,1153.094l-8.481-59.979c-2.187-15.47-14.065-28.761-28.7-28.761h0c-13.277,0-24.354,11.025-21.93,25.094l10.966,63.646Z" transform="translate(-903.448 -753.638)" fill="#7a4867"/>
            <path id="Trazado_1001588" data-name="Trazado 1001588" d="M1297.464,1323.892h53.747l1.947,13.31H1299.41Z" transform="translate(-918.696 -937.41)" fill="#8c5276"/>
            <rect id="Rectángulo_455471" data-name="Rectángulo 455471" width="53.747" height="0.002" transform="translate(381.153 404.632) rotate(-10.376)" fill="#8c5276"/>
            <rect id="Rectángulo_455472" data-name="Rectángulo 455472" width="1.212" height="33.083" transform="translate(415.11 258.494)" fill="#412233"/>
            <rect id="Rectángulo_455473" data-name="Rectángulo 455473" width="24.408" height="1.21" transform="translate(337.112 282.003) rotate(-58.586)" fill="#412233"/>
            <rect id="Rectángulo_455474" data-name="Rectángulo 455474" width="14.515" height="1.21" transform="matrix(0.716, -0.698, 0.698, 0.716, 374.246, 282.385)" fill="#412233"/>
            <rect id="Rectángulo_455475" data-name="Rectángulo 455475" width="14.271" height="1.21" transform="translate(385.699 279.093) rotate(-42.151)" fill="#412233"/>
            <path id="Trazado_1001589" data-name="Trazado 1001589" d="M1244.714,532.142a29.339,29.339,0,1,1-29.346-29.358,27.871,27.871,0,0,1,3.595.223,29.068,29.068,0,0,1,13.5,5.287,27.025,27.025,0,0,1,3.842,3.289,29.208,29.208,0,0,1,8.412,20.559" transform="translate(-839.779 -356.007)" fill="#412233"/>
            <path id="Trazado_1001590" data-name="Trazado 1001590" d="M1218.384,664.335c2.511,4.269-1.879,11.51-9.805,16.173s-16.389,4.983-18.9.715,1.879-11.51,9.805-16.173,16.388-4.983,18.9-.714" transform="translate(-841.876 -468.27)" fill="#412233"/>
            <path id="Trazado_1001591" data-name="Trazado 1001591" d="M1191.84,645.963c.679,4.906-6.155,9.905-15.264,11.167s-17.045-1.693-17.725-6.6,6.155-9.906,15.265-11.167,17.045,1.693,17.725,6.6" transform="translate(-820.516 -452.509)" fill="#412233"/>
            <path id="Trazado_1001592" data-name="Trazado 1001592" d="M1240.558,671.377l26.325.519v-43.53h-24.906Z" transform="translate(-878.403 -444.928)" fill="#ffa273"/>
            <path id="Trazado_1001593" data-name="Trazado 1001593" d="M1292.715,737.334,1277.04,730.9h15.675Z" transform="translate(-904.235 -517.527)" fill="#ff854a"/>
            <path id="Trazado_1001594" data-name="Trazado 1001594" d="M1270.8,546.87v14.156a24.448,24.448,0,1,1-48.9,0V546.87a24.448,24.448,0,0,1,44.666-13.745.011.011,0,0,0,.012.012,24.281,24.281,0,0,1,3.747,8.964,24.576,24.576,0,0,1,.47,4.77" transform="translate(-865.195 -369.913)" fill="#ffa273"/>
            <path id="Trazado_1001595" data-name="Trazado 1001595" d="M1331.907,568.087a36.218,36.218,0,0,1-10.808.118c-5.98-1.175-12.229-7.413-12.229-7.413l19.29-1.668a24.3,24.3,0,0,1,3.747,8.964" transform="translate(-926.773 -395.899)" fill="#ff854a"/>
            <path id="Trazado_1001596" data-name="Trazado 1001596" d="M1253.863,524.786s-30.888-2.542-32.944,14.612c-2.248,18.757-8.7,10.116-16.012,9.284v-8.794a26.825,26.825,0,0,1,26.793-26.853c14.666,0,22.163,11.751,22.163,11.751" transform="translate(-853.16 -363.265)" fill="#412233"/>
            <path id="Trazado_1001597" data-name="Trazado 1001597" d="M1327.708,529.463c0,4.65-7.415,8.419-16.561,8.419s-16.561-3.769-16.561-8.419,7.414-8.419,16.561-8.419,16.561,3.769,16.561,8.419" transform="translate(-916.659 -368.936)" fill="#412233"/>
            <path id="Trazado_1001598" data-name="Trazado 1001598" d="M1302.738,494.564a31.574,31.574,0,0,1-3.783,2.408c-8.036,4.37-16.353,4.6-18.573.517a2.3,2.3,0,0,1-.118-.247c-1.41-3.019.752-7.436,5.134-11.254a30.688,30.688,0,0,1,5.522-3.806c6.849-3.724,13.91-4.44,17.211-2.044a4.729,4.729,0,0,1,1.363,1.539c1.844,3.383-1.1,8.693-6.755,12.888" transform="translate(-906.214 -338.987)" fill="#412233"/>
            <path id="Trazado_1001599" data-name="Trazado 1001599" d="M1265.573,480.137a25.575,25.575,0,0,1-9.234,11.137,34.467,34.467,0,0,1-18.632,5.968c-.411.012-.834.023-1.245.023a35.471,35.471,0,0,1-16.729-4.065,29.185,29.185,0,0,1,19.513-7.436,27.818,27.818,0,0,1,3.595.223,30.659,30.659,0,0,1,5.521-3.806c6.849-3.724,13.91-4.44,17.211-2.044" transform="translate(-863.657 -338.987)" fill="#5e314a"/>
            <path id="Trazado_1001600" data-name="Trazado 1001600" d="M1338.476,660.036h-.339v-1.655h.339a2.659,2.659,0,0,0,2.659-2.659h1.655a4.314,4.314,0,0,1-4.314,4.314" transform="translate(-947.496 -464.298)" fill="#412233"/>
            <path id="Trazado_1001601" data-name="Trazado 1001601" d="M1306.483,688.672v-1.68a6.584,6.584,0,0,1-6.2-4.391l-1.584.56a8.265,8.265,0,0,0,7.788,5.511" transform="translate(-919.568 -483.33)" fill="#412233"/>
            <path id="Trazado_1001602" data-name="Trazado 1001602" d="M1186.019,623.214a8.6,8.6,0,1,0,8.6-8.6,8.6,8.6,0,0,0-8.6,8.6" transform="translate(-839.786 -435.193)" fill="#ffa273"/>
            <path id="Trazado_1001603" data-name="Trazado 1001603" d="M1187.805,539.776c1.467,3.211,1.4,6.389-.154,7.1s-4-1.32-5.465-4.532-1.4-6.389.154-7.1,4,1.32,5.465,4.532" transform="translate(-836.324 -378.891)" fill="#412233"/>
            <path id="Trazado_1001604" data-name="Trazado 1001604" d="M1171.425,564.94c3.124-.4,5.791.319,5.957,1.608s-2.233,2.66-5.357,3.061-5.791-.319-5.956-1.608,2.233-2.66,5.357-3.061" transform="translate(-825.654 -399.939)" fill="#412233"/>
            <path id="Trazado_1001605" data-name="Trazado 1001605" d="M1211.4,735.336l18.243,13.285-9.947,13.075-20.627-15.928Z" transform="translate(-849.025 -520.67)" fill="#fff"/>
            <path id="Trazado_1001606" data-name="Trazado 1001606" d="M1313.61,756.639l4.972-8.727,6.814,4.985-3.6,14.4Z" transform="translate(-930.129 -529.575)" fill="#fff"/>
          </g>
        </g>
      </g>
    </g>
  </g>
</svg>
