<svg xmlns="http://www.w3.org/2000/svg" width="128" height="128" viewBox="0 0 128 128">
  <g id="Grupo_1177482" data-name="Grupo 1177482" transform="translate(-383.457 -8399.999)">
    <path id="Trazado_997401" data-name="Trazado 997401" d="M64,0A64,64,0,1,1,0,64,64,64,0,0,1,64,0Z" transform="translate(383.457 8399.999)" fill="#565097"/>
    <g id="Grupo_1178367" data-name="Grupo 1178367" transform="translate(409.457 8424.999)">
      <path id="Trazado_998899" data-name="Trazado 998899" d="M7.939,42.113h7.044a23.7,23.7,0,0,0,1.879,6.464,1.134,1.134,0,0,0,1.6.515l2.854-1.647A3.406,3.406,0,0,0,22.561,42.8,1.134,1.134,0,1,0,20.6,43.931a1.134,1.134,0,0,1-.415,1.549l-1.738,1a21.79,21.79,0,0,1,0-15.544l1.737,1a1.135,1.135,0,0,1,.415,1.549,1.134,1.134,0,1,0,1.964,1.134,3.406,3.406,0,0,0-1.245-4.648l-9.822-5.671A4.044,4.044,0,0,0,8.1,24.041c-.76.2-1.119.28-1.671-.039a1.135,1.135,0,0,1-.415-1.549l2.268-3.929a1.135,1.135,0,0,1,1.549-.415c.552.319.665.668.869,1.428a4.044,4.044,0,0,0,1.926,2.8l9.822,5.671A3.406,3.406,0,0,0,27.1,26.768a1.134,1.134,0,1,0-1.964-1.134,1.135,1.135,0,0,1-1.549.415l-1.731-1a21.7,21.7,0,0,1,13.455-7.771v2a1.135,1.135,0,0,1-1.134,1.134,1.134,1.134,0,1,0,0,2.268,3.406,3.406,0,0,0,3.4-3.4V7.939a4.044,4.044,0,0,0-1.466-3.07c-.556-.556-.8-.829-.8-1.466a1.135,1.135,0,0,1,1.134-1.134h4.536A1.135,1.135,0,0,1,42.113,3.4c0,.638-.246.91-.8,1.466a4.043,4.043,0,0,0-1.466,3.07V19.28a3.406,3.406,0,0,0,3.4,3.4,1.134,1.134,0,1,0,0-2.268,1.135,1.135,0,0,1-1.134-1.134v-2A21.7,21.7,0,0,1,55.568,25.05l-1.731,1a1.135,1.135,0,0,1-1.549-.415,1.134,1.134,0,1,0-1.964,1.134,3.406,3.406,0,0,0,4.648,1.245l9.822-5.671a4.043,4.043,0,0,0,1.926-2.8c.2-.76.317-1.109.869-1.428a1.135,1.135,0,0,1,1.549.415l2.268,3.929A1.135,1.135,0,0,1,70.99,24c-.552.319-.911.242-1.671.039a4.043,4.043,0,0,0-3.392.265l-3.04,1.755a1.134,1.134,0,1,0,1.134,1.964l3.04-1.755c.552-.319.911-.242,1.671-.039a4.044,4.044,0,0,0,3.392-.265A3.406,3.406,0,0,0,73.37,21.32L71.1,17.391a3.406,3.406,0,0,0-4.648-1.245,4.043,4.043,0,0,0-1.926,2.8c-.2.76-.317,1.109-.869,1.428L57.554,23.9a24.047,24.047,0,0,0-4.036-4.035l3.525-6.106c.319-.552.668-.665,1.428-.869a4.044,4.044,0,0,0,2.8-1.926A3.406,3.406,0,0,0,60.031,6.32L56.1,4.052A3.406,3.406,0,0,0,51.454,5.3a4.043,4.043,0,0,0-.265,3.392c.2.76.28,1.119-.039,1.671l-3.523,6.1a23.839,23.839,0,0,0-5.514-1.477V7.939c0-.638.246-.91.8-1.466A4.043,4.043,0,0,0,44.382,3.4a3.406,3.406,0,0,0-3.4-3.4H36.443a3.406,3.406,0,0,0-3.4,3.4,4.044,4.044,0,0,0,1.466,3.07c.556.556.8.829.8,1.466v7.047a23.837,23.837,0,0,0-5.514,1.477l-3.523-6.1c-.319-.552-.242-.911-.039-1.671A4.044,4.044,0,0,0,25.968,5.3,3.406,3.406,0,0,0,21.32,4.052L17.391,6.32a3.406,3.406,0,0,0-1.245,4.648,4.043,4.043,0,0,0,2.8,1.926c.76.2,1.109.317,1.428.869L23.9,19.868A24.041,24.041,0,0,0,19.868,23.9l-6.105-3.525c-.552-.319-.665-.668-.869-1.428a4.044,4.044,0,0,0-1.926-2.8A3.406,3.406,0,0,0,6.32,17.391L4.052,21.32A3.406,3.406,0,0,0,5.3,25.967a4.043,4.043,0,0,0,3.392.265c.76-.2,1.119-.28,1.671.039l6.1,3.522a23.674,23.674,0,0,0-1.477,5.516H7.939c-.638,0-.91-.246-1.466-.8A4.043,4.043,0,0,0,3.4,33.04a3.406,3.406,0,0,0-3.4,3.4v4.536a3.406,3.406,0,0,0,3.4,3.4,4.044,4.044,0,0,0,3.07-1.466c.556-.556.829-.8,1.466-.8ZM53.115,11.494A4.044,4.044,0,0,0,53.38,8.1c-.2-.76-.28-1.119.039-1.671a1.135,1.135,0,0,1,1.549-.415L58.9,8.285a1.135,1.135,0,0,1,.415,1.549c-.319.552-.668.665-1.428.869a4.044,4.044,0,0,0-2.8,1.926l-3.416,5.917q-.955-.614-1.964-1.135ZM22.343,12.629a4.043,4.043,0,0,0-2.8-1.926c-.76-.2-1.109-.317-1.428-.869a1.135,1.135,0,0,1,.415-1.549l3.929-2.268A1.135,1.135,0,0,1,24,6.432c.319.552.242.911.039,1.671a4.043,4.043,0,0,0,.265,3.392l3.416,5.916q-1.008.521-1.964,1.135ZM3.4,42.113a1.135,1.135,0,0,1-1.134-1.134V36.443A1.135,1.135,0,0,1,3.4,35.309c.638,0,.91.246,1.466.8a4.043,4.043,0,0,0,3.07,1.466h6.832c-.017.377-.028.755-.028,1.134s.01.757.028,1.134H7.939a4.044,4.044,0,0,0-3.07,1.466C4.313,41.867,4.04,42.113,3.4,42.113Z" fill="#fff5c1"/>
      <path id="Trazado_998900" data-name="Trazado 998900" d="M94.2,191.208a4.044,4.044,0,0,0-3.07,1.466c-.556.556-.829.8-1.466.8H82.617a23.7,23.7,0,0,0-1.879-6.464,1.134,1.134,0,0,0-1.6-.515l-2.854,1.647a3.406,3.406,0,0,0-1.245,4.648A1.134,1.134,0,1,0,77,191.659a1.134,1.134,0,0,1,.415-1.549l1.738-1a21.79,21.79,0,0,1,0,15.544l-1.737-1A1.135,1.135,0,0,1,77,202.1a1.134,1.134,0,0,0-1.964-1.134,3.406,3.406,0,0,0,1.245,4.648l9.822,5.671a4.043,4.043,0,0,0,3.392.265c.76-.2,1.119-.28,1.671.039a1.135,1.135,0,0,1,.415,1.549l-2.268,3.929a1.135,1.135,0,0,1-1.549.415c-.552-.319-.665-.668-.869-1.428a4.043,4.043,0,0,0-1.926-2.8l-9.822-5.671a3.406,3.406,0,0,0-4.648,1.245,1.134,1.134,0,1,0,1.964,1.134,1.135,1.135,0,0,1,1.549-.415l1.731,1a21.7,21.7,0,0,1-13.455,7.771v-2a1.135,1.135,0,0,1,1.134-1.134,1.134,1.134,0,0,0,0-2.268,3.406,3.406,0,0,0-3.4,3.4v11.341a4.044,4.044,0,0,0,1.466,3.07c.556.556.8.829.8,1.466a1.135,1.135,0,0,1-1.134,1.134H56.621a1.135,1.135,0,0,1-1.134-1.134c0-.638.246-.91.8-1.466a4.043,4.043,0,0,0,1.466-3.07V216.31a3.406,3.406,0,0,0-3.4-3.4,1.134,1.134,0,1,0,0,2.268,1.135,1.135,0,0,1,1.134,1.134v2a21.7,21.7,0,0,1-13.456-7.772l1.729-1a1.135,1.135,0,0,1,1.549.415,1.134,1.134,0,1,0,1.964-1.134,3.406,3.406,0,0,0-4.648-1.245L32.8,213.247a4.043,4.043,0,0,0-1.926,2.8c-.2.76-.317,1.109-.869,1.428a1.135,1.135,0,0,1-1.549-.415l-2.268-3.929a1.135,1.135,0,0,1,.415-1.549c.552-.319.911-.242,1.671-.039a4.043,4.043,0,0,0,3.392-.265l3.04-1.755a1.134,1.134,0,1,0-1.134-1.964l-3.04,1.755c-.552.319-.911.242-1.671.039a4.044,4.044,0,0,0-3.392.265,3.406,3.406,0,0,0-1.245,4.648L26.5,218.2a3.406,3.406,0,0,0,4.648,1.245,4.043,4.043,0,0,0,1.926-2.8c.2-.76.317-1.109.869-1.428l6.107-3.526a24.072,24.072,0,0,0,4.036,4.036l-3.525,6.105c-.319.552-.668.665-1.428.869a4.044,4.044,0,0,0-2.8,1.926,3.406,3.406,0,0,0,1.245,4.648l3.929,2.268a3.406,3.406,0,0,0,4.648-1.245,4.043,4.043,0,0,0,.265-3.392c-.2-.76-.28-1.119.039-1.671l3.523-6.1a23.838,23.838,0,0,0,5.514,1.477v7.047c0,.638-.246.91-.8,1.466a4.043,4.043,0,0,0-1.466,3.07,3.406,3.406,0,0,0,3.4,3.4h4.536a3.406,3.406,0,0,0,3.4-3.4,4.044,4.044,0,0,0-1.466-3.07c-.556-.556-.8-.829-.8-1.466V220.6a23.837,23.837,0,0,0,5.514-1.477l3.523,6.1c.319.552.242.911.039,1.671a4.044,4.044,0,0,0,.265,3.392,3.406,3.406,0,0,0,4.648,1.245l3.929-2.268a3.406,3.406,0,0,0,1.245-4.648,4.043,4.043,0,0,0-2.8-1.926c-.76-.2-1.109-.317-1.428-.869L73.7,215.722a24.04,24.04,0,0,0,4.036-4.035l6.105,3.525c.552.319.665.668.869,1.428a4.044,4.044,0,0,0,1.926,2.8A3.406,3.406,0,0,0,91.28,218.2l2.268-3.929a3.406,3.406,0,0,0-1.245-4.648,4.043,4.043,0,0,0-3.392-.265c-.76.2-1.119.28-1.671-.039l-6.1-3.522a23.674,23.674,0,0,0,1.477-5.516h7.045c.638,0,.91.246,1.466.8a4.043,4.043,0,0,0,3.07,1.466,3.406,3.406,0,0,0,3.4-3.4V194.61a3.406,3.406,0,0,0-3.4-3.4ZM44.485,224.1a4.044,4.044,0,0,0-.265,3.392c.2.76.28,1.119-.039,1.671a1.135,1.135,0,0,1-1.549.415L38.7,227.3a1.135,1.135,0,0,1-.415-1.549c.319-.552.668-.665,1.428-.869a4.043,4.043,0,0,0,2.8-1.926l3.416-5.917q.955.614,1.964,1.135Zm30.772-1.134a4.043,4.043,0,0,0,2.8,1.926c.76.2,1.109.317,1.428.869a1.135,1.135,0,0,1-.415,1.549l-3.929,2.268a1.135,1.135,0,0,1-1.549-.415c-.319-.552-.242-.911-.039-1.671a4.043,4.043,0,0,0-.265-3.392l-3.416-5.916q1.008-.521,1.964-1.135Zm20.074-23.814a1.135,1.135,0,0,1-1.134,1.134c-.638,0-.91-.246-1.466-.8a4.043,4.043,0,0,0-3.07-1.466H82.829c.017-.377.028-.755.028-1.134s-.01-.758-.028-1.134h6.832a4.044,4.044,0,0,0,3.07-1.466c.556-.556.829-.8,1.466-.8a1.135,1.135,0,0,1,1.134,1.134Z" transform="translate(-20.178 -158.168)" fill="#fff5c1"/>
    </g>
  </g>
</svg>
