<svg xmlns="http://www.w3.org/2000/svg" width="84" height="84" viewBox="0 0 84 84">
  <g id="Grupo_1179569" data-name="Grupo 1179569" transform="translate(-186.34 -3595)">
    <rect id="Rectángulo_455054" data-name="Rectángulo 455054" width="84" height="84" rx="10" transform="translate(186.34 3595)" fill="#bbded6"/>
    <g id="Grupo_1179568" data-name="Grupo 1179568" transform="translate(195.676 3602.514)">
      <g id="Grupo_1179566" data-name="Grupo 1179566" transform="translate(0.955 2.952)">
        <g id="Grupo_1179563" data-name="Grupo 1179563" transform="translate(21.429 4.665)">
          <path id="Trazado_1001268" data-name="Trazado 1001268" d="M193.467,49.228h1.517a2.839,2.839,0,0,1,2.839,2.839v4.8a11.357,11.357,0,0,1-3.263,7.967L193.017,66.4V101.64a2.167,2.167,0,0,1-2.167,2.167H180.744a2.167,2.167,0,0,1-2.167-2.167V65.295l-1-1.136a7.4,7.4,0,0,1-1.839-4.883V45.495h17.725v3.733Z" transform="translate(-175.742 -45.495)" fill="#ffe6c6"/>
        </g>
        <path id="Trazado_1001269" data-name="Trazado 1001269" d="M183.263,66.712a4.015,4.015,0,0,0-1-2.647,7.4,7.4,0,0,1-1.839-4.883V45.5h-4.687v13.78a7.4,7.4,0,0,0,1.839,4.883l1,1.136v36.345a2.167,2.167,0,0,0,2.167,2.167h2.52Z" transform="translate(-154.312 -40.831)" fill="#f8d3aa"/>
        <path id="Trazado_1001270" data-name="Trazado 1001270" d="M202.887,248.308H187.841a1.136,1.136,0,0,1-1.136-1.136v-1.429a1.136,1.136,0,0,1,1.136-1.136h15.046a1.136,1.136,0,0,1,1.136,1.136v1.429A1.136,1.136,0,0,1,202.887,248.308Z" transform="translate(-163.88 -214.581)" fill="#d2b3ea"/>
        <path id="Trazado_1001271" data-name="Trazado 1001271" d="M202.887,277.367H187.841a1.136,1.136,0,0,1-1.136-1.136V274.8a1.136,1.136,0,0,1,1.136-1.136h15.046a1.136,1.136,0,0,1,1.136,1.136v1.429A1.136,1.136,0,0,1,202.887,277.367Z" transform="translate(-163.88 -239.939)" fill="#8aadde"/>
        <path id="Trazado_1001272" data-name="Trazado 1001272" d="M192.831,273.666h-4.99A1.136,1.136,0,0,0,186.7,274.8v1.429a1.136,1.136,0,0,0,1.136,1.136h4.99Z" transform="translate(-163.88 -239.939)" fill="#5f90d3"/>
        <path id="Trazado_1001273" data-name="Trazado 1001273" d="M192.831,244.607h-4.99a1.136,1.136,0,0,0-1.136,1.136v1.429a1.136,1.136,0,0,0,1.136,1.136h4.99Z" transform="translate(-163.88 -214.581)" fill="#c39be2"/>
        <path id="Trazado_1001274" data-name="Trazado 1001274" d="M202.887,306.426H187.841a1.136,1.136,0,0,1-1.136-1.136v-1.429a1.136,1.136,0,0,1,1.136-1.136h15.046a1.136,1.136,0,0,1,1.136,1.136v1.429A1.136,1.136,0,0,1,202.887,306.426Z" transform="translate(-163.88 -265.297)" fill="#b1f5d5"/>
        <path id="Trazado_1001275" data-name="Trazado 1001275" d="M202.887,335.485H187.841a1.136,1.136,0,0,1-1.136-1.136V332.92a1.136,1.136,0,0,1,1.136-1.136h15.046a1.136,1.136,0,0,1,1.136,1.136v1.429A1.136,1.136,0,0,1,202.887,335.485Z" transform="translate(-163.88 -290.655)" fill="#fcf0b6"/>
        <path id="Trazado_1001276" data-name="Trazado 1001276" d="M202.887,364.544H187.841a1.136,1.136,0,0,1-1.136-1.136v-1.429a1.136,1.136,0,0,1,1.136-1.136h15.046a1.136,1.136,0,0,1,1.136,1.136v1.429A1.136,1.136,0,0,1,202.887,364.544Z" transform="translate(-163.88 -316.013)" fill="#f3af90"/>
        <path id="Trazado_1001277" data-name="Trazado 1001277" d="M202.887,393.6H187.841a1.136,1.136,0,0,1-1.136-1.136v-1.429a1.136,1.136,0,0,1,1.136-1.136h15.046a1.136,1.136,0,0,1,1.136,1.136v1.429A1.136,1.136,0,0,1,202.887,393.6Z" transform="translate(-163.88 -341.37)" fill="#ea9a98"/>
        <g id="Grupo_1179564" data-name="Grupo 1179564">
          <path id="Trazado_1001278" data-name="Trazado 1001278" d="M243.063,70.04a11.357,11.357,0,0,0,2.26-6.8v-4.8a2.839,2.839,0,0,0-2.839-2.839h-1.517v-2.8h-5.017a5.243,5.243,0,0,0-3.765,8.893,10.17,10.17,0,0,0-1.949,4.816l-.053.693a2.634,2.634,0,0,0,2.626,2.833Z" transform="translate(-201.814 -47.209)" fill="#f8d3aa"/>
          <path id="Trazado_1001279" data-name="Trazado 1001279" d="M69.813,84a8.219,8.219,0,0,0,13.031-.627,1.158,1.158,0,0,0-.292-1.611L81.314,80.9A1.157,1.157,0,0,0,79.7,81.2a4.346,4.346,0,0,1-3.586,1.893h-.031a4.345,4.345,0,0,1-3.579-1.845l-.189-.265a1.91,1.91,0,0,0-1.556-.8H35.939a1.911,1.911,0,0,0-1.556.8l-.189.265a4.344,4.344,0,0,1-3.579,1.845h-.031A4.346,4.346,0,0,1,27,81.2a1.158,1.158,0,0,0-1.611-.292l-1.238.858a1.158,1.158,0,0,0-.292,1.611A8.219,8.219,0,0,0,36.889,84Z" transform="translate(-21.595 -71.097)" fill="#dfae91"/>
          <path id="Trazado_1001280" data-name="Trazado 1001280" d="M302.48,16.217a2.581,2.581,0,1,0-5.162,0V22a2.581,2.581,0,1,0,5.162,0Z" transform="translate(-260.404 -13.029)" fill="#ffe6c6"/>
          <path id="Trazado_1001281" data-name="Trazado 1001281" d="M299.746,22V16.217a2.581,2.581,0,0,1,1.369-2.277,2.582,2.582,0,0,0-3.8,2.277V22a2.58,2.58,0,0,0,3.794,2.277A2.58,2.58,0,0,1,299.746,22Z" transform="translate(-260.405 -13.029)" fill="#f8d3aa"/>
          <path id="Trazado_1001282" data-name="Trazado 1001282" d="M261.957,11.453a2.581,2.581,0,1,0-5.162,0v5.588a2.581,2.581,0,1,0,5.162,0Z" transform="translate(-225.042 -8.872)" fill="#ffe6c6"/>
          <path id="Trazado_1001283" data-name="Trazado 1001283" d="M259.376,17.043V11.455a2.582,2.582,0,0,1,1.293-2.234,2.581,2.581,0,0,0-3.874,2.234v5.588a2.578,2.578,0,0,0,3.871,2.233A2.578,2.578,0,0,1,259.376,17.043Z" transform="translate(-225.042 -8.874)" fill="#f8d3aa"/>
          <path id="Trazado_1001284" data-name="Trazado 1001284" d="M21.038,341.1H12.606A5.106,5.106,0,0,1,7.5,336v-10.27a1.122,1.122,0,0,1,1.122-1.122h16.4a1.122,1.122,0,0,1,1.122,1.122V336A5.106,5.106,0,0,1,21.038,341.1Z" transform="translate(-7.5 -284.391)" fill="#b3e5ee"/>
          <path id="Trazado_1001285" data-name="Trazado 1001285" d="M364.132,341.1h8.431A5.106,5.106,0,0,0,377.67,336v-10.27a1.122,1.122,0,0,0-1.122-1.122h-16.4a1.122,1.122,0,0,0-1.122,1.122V336a5.106,5.106,0,0,0,5.106,5.106Z" transform="translate(-314.252 -284.391)" fill="#ffd1eb"/>
          <path id="Trazado_1001286" data-name="Trazado 1001286" d="M24.932,338.019H16.5a5.106,5.106,0,0,1-5.106-5.106v-8.306H8.622A1.122,1.122,0,0,0,7.5,325.729V336a5.106,5.106,0,0,0,5.106,5.106h8.431a5.107,5.107,0,0,0,4.719-3.153,5.145,5.145,0,0,1-.824.067Z" transform="translate(-7.5 -284.392)" fill="#86d7e5"/>
          <path id="Trazado_1001287" data-name="Trazado 1001287" d="M376.458,338.019h-8.431a5.106,5.106,0,0,1-5.106-5.106v-8.306h-2.772a1.122,1.122,0,0,0-1.122,1.122V336a5.106,5.106,0,0,0,5.106,5.106h8.431a5.107,5.107,0,0,0,4.719-3.153A5.144,5.144,0,0,1,376.458,338.019Z" transform="translate(-314.252 -284.392)" fill="#f2b2de"/>
        </g>
        <path id="Trazado_1001288" data-name="Trazado 1001288" d="M178.33,19.73a2.581,2.581,0,0,0-2.581,2.581v3.628a2.581,2.581,0,1,0,5.162,0V22.311A2.581,2.581,0,0,0,178.33,19.73Z" transform="translate(-154.319 -18.347)" fill="#ffe6c6"/>
        <path id="Trazado_1001289" data-name="Trazado 1001289" d="M178.142,25.939V22.311a2.582,2.582,0,0,1,1.386-2.286,2.582,2.582,0,0,0-3.779,2.286v3.628a2.582,2.582,0,0,0,3.781,2.285A2.583,2.583,0,0,1,178.142,25.939Z" transform="translate(-154.319 -18.347)" fill="#f8d3aa"/>
        <path id="Trazado_1001290" data-name="Trazado 1001290" d="M218.853,14.352a2.581,2.581,0,0,0-2.581,2.581v4.632a2.581,2.581,0,1,0,5.162,0V16.933A2.581,2.581,0,0,0,218.853,14.352Z" transform="translate(-189.681 -13.654)" fill="#ffe6c6"/>
        <path id="Trazado_1001291" data-name="Trazado 1001291" d="M218.746,21.564V16.932a2.58,2.58,0,0,1,1.344-2.265,2.581,2.581,0,0,0-3.817,2.265v4.632a2.581,2.581,0,0,0,3.817,2.265A2.58,2.58,0,0,1,218.746,21.564Z" transform="translate(-189.682 -13.653)" fill="#f8d3aa"/>
        <g id="XMLID_488_" transform="translate(30.803 8.398)">
          <g id="Grupo_1179565" data-name="Grupo 1179565">
            <path id="Trazado_1001292" data-name="Trazado 1001292" d="M255.544,79.691h-2.87a2.443,2.443,0,0,1,0-4.886h6.534a2.839,2.839,0,0,1,2.839,2.839v4.8a11.357,11.357,0,0,1-3.263,7.967l-1.331,1.351h-8.112l.322-5.1.076-.6a7.378,7.378,0,0,1,4.723-5.971Z" transform="translate(-249.341 -74.805)" fill="#ffe6c6"/>
          </g>
        </g>
        <path id="Trazado_1001293" data-name="Trazado 1001293" d="M192.831,389.9h-4.99a1.136,1.136,0,0,0-1.136,1.136v1.429a1.136,1.136,0,0,0,1.136,1.136h4.99Z" transform="translate(-163.88 -341.37)" fill="#e5827f"/>
        <path id="Trazado_1001294" data-name="Trazado 1001294" d="M192.831,360.843h-4.99a1.136,1.136,0,0,0-1.136,1.136v1.429a1.136,1.136,0,0,0,1.136,1.136h4.99Z" transform="translate(-163.88 -316.013)" fill="#f09971"/>
        <path id="Trazado_1001295" data-name="Trazado 1001295" d="M192.831,331.784h-4.99a1.136,1.136,0,0,0-1.136,1.136v1.429a1.136,1.136,0,0,0,1.136,1.136h4.99Z" transform="translate(-163.88 -290.655)" fill="#fbe88c"/>
        <path id="Trazado_1001296" data-name="Trazado 1001296" d="M192.831,302.725h-4.99a1.136,1.136,0,0,0-1.136,1.136v1.429a1.136,1.136,0,0,0,1.136,1.136h4.99Z" transform="translate(-163.88 -265.297)" fill="#91f2c5"/>
      </g>
      <g id="Grupo_1179567" data-name="Grupo 1179567" transform="translate(0 2.088)">
        <path id="Trazado_1001297" data-name="Trazado 1001297" d="M64.373,49.269a.955.955,0,0,0,.955-.955V44.289a2.08,2.08,0,0,0-2.077-2.077H62.81l-4.34-23a9.182,9.182,0,0,0,4.52-3.436,2.115,2.115,0,0,0-.533-2.94l-1.238-.858a2.113,2.113,0,0,0-2.94.533,3.464,3.464,0,0,1-.9.9l-.192-1.019a1.987,1.987,0,0,0-1.976-1.638h0a1.988,1.988,0,0,0-1.976,1.638l-.129.681a3.515,3.515,0,0,1-.457-.522l-.189-.264a2.871,2.871,0,0,0-2.333-1.2H43.986V6.231a3.534,3.534,0,0,0-5.838-2.682,3.528,3.528,0,0,0-5.72,0,3.522,3.522,0,0,0-5.195.655,3.532,3.532,0,0,0-5.8,2.709v3.628a3.55,3.55,0,0,0,.041.535H15.3a2.871,2.871,0,0,0-2.333,1.2l-.189.265a3.511,3.511,0,0,1-.538.6l-.143-.756a2.011,2.011,0,0,0-3.952,0l-.181.959a3.474,3.474,0,0,1-.82-.838,2.113,2.113,0,0,0-2.94-.533l-1.238.858a2.115,2.115,0,0,0-.533,2.94,9.182,9.182,0,0,0,4.431,3.4L2.518,42.212H2.077A2.079,2.079,0,0,0,0,44.289v10.27a6.068,6.068,0,0,0,6.062,6.062h8.431a6.068,6.068,0,0,0,6.062-6.062v-1.9a.955.955,0,0,0-1.911,0v1.9a4.156,4.156,0,0,1-4.151,4.151H6.061a4.156,4.156,0,0,1-4.151-4.151V44.289a.167.167,0,0,1,.167-.167h16.4a.167.167,0,0,1,.167.167v4.3a.955.955,0,0,0,1.911,0v-4.3a2.08,2.08,0,0,0-2.077-2.077h-.752L13.36,19.075a9.154,9.154,0,0,0,3.319-2.265h4.75V21.4a8.356,8.356,0,0,0,2.076,5.514l.76.866v4.352a2.094,2.094,0,0,0-1.439,1.986v1.429a2.078,2.078,0,0,0,.338,1.136,2.077,2.077,0,0,0-.338,1.136v1.429a2.077,2.077,0,0,0,.338,1.136,2.077,2.077,0,0,0-.338,1.136v1.429a2.077,2.077,0,0,0,.338,1.136,2.077,2.077,0,0,0-.338,1.136v1.429a2.077,2.077,0,0,0,.338,1.136,2.077,2.077,0,0,0-.338,1.136v1.429a2.077,2.077,0,0,0,.338,1.136,2.077,2.077,0,0,0-.338,1.136v1.429a2.094,2.094,0,0,0,1.439,1.986v9.894a.955.955,0,0,0,1.911,0V56.14H38.7v9.789a.955.955,0,1,0,1.911,0V56.035a2.094,2.094,0,0,0,1.439-1.986V52.62a2.077,2.077,0,0,0-.338-1.136,2.078,2.078,0,0,0,.338-1.136V48.918a2.077,2.077,0,0,0-.338-1.136,2.078,2.078,0,0,0,.338-1.136V45.217a2.077,2.077,0,0,0-.338-1.136,2.078,2.078,0,0,0,.338-1.136V41.516a2.077,2.077,0,0,0-.338-1.136,2.078,2.078,0,0,0,.338-1.136V37.815a2.077,2.077,0,0,0-.338-1.136,2.077,2.077,0,0,0,.338-1.136V34.113a2.094,2.094,0,0,0-1.439-1.986V28.911l1.267-1.287a12.242,12.242,0,0,0,3.538-8.637V16.81h3.325a9.159,9.159,0,0,0,3.23,2.229L47.6,42.212h-.752a2.08,2.08,0,0,0-2.077,2.077v10.27a6.068,6.068,0,0,0,6.062,6.062h8.431a6.068,6.068,0,0,0,6.062-6.062V52.385a.955.955,0,1,0-1.911,0v2.174a4.156,4.156,0,0,1-4.151,4.151H50.835a4.156,4.156,0,0,1-4.151-4.151V44.289a.167.167,0,0,1,.167-.167h16.4a.167.167,0,0,1,.167.167v4.025A.955.955,0,0,0,64.373,49.269ZM59.849,13.6a.2.2,0,0,1,.281-.051l1.238.858a.2.2,0,0,1,.051.282A7.273,7.273,0,0,1,55.5,17.811h-.059a7.256,7.256,0,0,1-1.264-.113l.354-1.876a5.494,5.494,0,0,0,.92.078h.038A5.29,5.29,0,0,0,59.849,13.6Zm-4.741-.855c.009-.045.015-.082.1-.082s.09.036.1.082l.235,1.247-.062,0h-.031a3.52,3.52,0,0,1-.566-.046ZM40.45,4.605a1.627,1.627,0,0,1,1.625,1.625v4.192a3.817,3.817,0,0,0-.449-.028h-2.8V6.231A1.627,1.627,0,0,1,40.45,4.605ZM33.663,5.624a1.625,1.625,0,1,1,3.251,0V10.4H35.091a3.379,3.379,0,0,0-1.245.237,1.614,1.614,0,0,1-.183-.743V5.624ZM28.5,6.231a1.625,1.625,0,1,1,3.251,0v4.632a1.625,1.625,0,1,1-3.251,0Zm-5.161.685a1.625,1.625,0,0,1,3.251,0v3.628a1.625,1.625,0,1,1-3.251,0ZM10.023,12.741c.009-.045.015-.082.1-.082s.09.036.1.082l.23,1.216a3.54,3.54,0,0,1-.473.033H9.952c-.055,0-.109,0-.163-.006ZM4,14.684a.2.2,0,0,1,.051-.282l1.238-.858a.2.2,0,0,1,.151-.033.2.2,0,0,1,.13.084,5.293,5.293,0,0,0,4.371,2.3h.031a5.5,5.5,0,0,0,.827-.064l.355,1.88a7.267,7.267,0,0,1-1.173.1h-.06A7.272,7.272,0,0,1,4,14.684ZM15.781,42.212H4.462l4.26-22.577a9.153,9.153,0,0,0,1.189.087h.075a9.171,9.171,0,0,0,1.526-.13ZM16.25,14.9a.955.955,0,0,0-.729.338A7.266,7.266,0,0,1,13,17.154L12.629,15.2a5.355,5.355,0,0,0,1.7-1.548l.189-.265a.957.957,0,0,1,.778-.4h7.116a3.524,3.524,0,0,0,4.981.116,3.524,3.524,0,0,0,4.306.92,3.371,3.371,0,0,0,.177.874H16.25ZM40.144,37.815v1.429a.181.181,0,0,1-.181.181H24.917a.181.181,0,0,1-.181-.181V37.815a.181.181,0,0,1,.181-.181H39.963A.181.181,0,0,1,40.144,37.815Zm0,3.7v1.429a.181.181,0,0,1-.181.181H24.917a.181.181,0,0,1-.181-.181V41.516a.181.181,0,0,1,.181-.181H39.963A.181.181,0,0,1,40.144,41.516Zm0,3.7v1.429a.181.181,0,0,1-.181.181H24.917a.181.181,0,0,1-.181-.181V45.217a.181.181,0,0,1,.181-.181H39.963a.181.181,0,0,1,.181.181Zm0,3.7v1.429a.181.181,0,0,1-.181.181H24.917a.181.181,0,0,1-.181-.181V48.919a.181.181,0,0,1,.181-.181H39.963A.181.181,0,0,1,40.144,48.919Zm0,3.7v1.429a.181.181,0,0,1-.181.181H24.917a.181.181,0,0,1-.181-.181V52.62a.181.181,0,0,1,.181-.181H39.963A.181.181,0,0,1,40.144,52.62Zm3.365-33.633a10.343,10.343,0,0,1-2.989,7.3L38.979,27.85a.955.955,0,0,0-.274.67v3.5H37.3a.955.955,0,1,0,0,1.911h2.668a.181.181,0,0,1,.181.181v1.429a.181.181,0,0,1-.181.181H24.917a.181.181,0,0,1-.181-.181V34.114a.181.181,0,0,1,.181-.181h8.308a.955.955,0,1,0,0-1.911H26.175V27.416a.955.955,0,0,0-.237-.63l-1-1.136a6.446,6.446,0,0,1-1.6-4.254V16.811H33.532a3.37,3.37,0,0,0,.69.267,8.314,8.314,0,0,0-3.013,5.414l-.076.6a.955.955,0,0,0,.827,1.069.97.97,0,0,0,.122.008.955.955,0,0,0,.946-.834l.076-.6a6.409,6.409,0,0,1,4.111-5.2l.919-.345h.53a.955.955,0,0,0,0-1.911H35.091a1.487,1.487,0,1,1,0-2.975h6.535a1.885,1.885,0,0,1,1.883,1.883v4.8ZM49.9,15.238a.955.955,0,0,0-.729-.338H45.42v-.711a3.777,3.777,0,0,0-.2-1.2h4.9a.957.957,0,0,1,.778.4l.189.265a5.364,5.364,0,0,0,1.618,1.5l-.37,1.959A7.267,7.267,0,0,1,49.9,15.238Zm3.916,4.337a9.161,9.161,0,0,0,1.617.146h.075a9.158,9.158,0,0,0,1.1-.074l4.258,22.564H49.548Z" transform="translate(0 -2.088)"/>
        <path id="Trazado_1001298" data-name="Trazado 1001298" d="M43.247,352.273a4.227,4.227,0,1,0-3.582-1.991l-.992.992-.21-.21a.955.955,0,0,0-1.351,1.351l.21.21-.391.391a.955.955,0,0,0,1.351,1.351l.391-.391.185.185a.955.955,0,0,0,1.351-1.351l-.184-.184.992-.992A4.194,4.194,0,0,0,43.247,352.273Zm0-6.533a2.311,2.311,0,1,1-2.311,2.311A2.314,2.314,0,0,1,43.247,345.74Z" transform="translate(-31.983 -300.302)"/>
        <path id="Trazado_1001299" data-name="Trazado 1001299" d="M401.528,352.012a.955.955,0,0,0,.955-.955V348.48a.955.955,0,0,0-.955-.955h-2.577a.955.955,0,0,0,0,1.911h.271l-1.08,1.08a4.222,4.222,0,1,0,1.351,1.351l1.08-1.08v.271A.955.955,0,0,0,401.528,352.012Zm-3.984,3.72a2.31,2.31,0,1,1,0-3.268,2.314,2.314,0,0,1,0,3.268Z" transform="translate(-341.801 -303.527)"/>
      </g>
    </g>
  </g>
</svg>
