<svg xmlns="http://www.w3.org/2000/svg" width="128" height="128" viewBox="0 0 128 128">
  <g id="Grupo_1177483" data-name="Grupo 1177483" transform="translate(-383.746 -8400)">
    <circle id="Elipse_13609" data-name="Elipse 13609" cx="64" cy="64" r="64" transform="translate(383.746 8400)" fill="#565097"/>
    <g id="Grupo_1178361" data-name="Grupo 1178361" transform="translate(329.594 8415.542)">
      <path id="Trazado_998885" data-name="Trazado 998885" d="M134.269,67.221a4.383,4.383,0,0,0-2.454-5.062l-3.161-1.423a6.352,6.352,0,0,0-1.331-.428,8.316,8.316,0,0,0-1.464-10.367l-9.294-8.814,3.669-5.765c2.892,1.854,6.088,2.866,8.427,2.652,3.48-.316,6.819-4.6,8.5-7.132a2.885,2.885,0,0,0,.212-2.831l-.567-1.213a2.476,2.476,0,0,1-.071-1.911l.174-.461a11.692,11.692,0,0,0,3.667-2.377,12.1,12.1,0,0,0,3.316-10.672,1.42,1.42,0,1,0-2.809.417c.227,1.53.44,5.394-2.479,8.211-2.657,2.564-7.165,3.393-13.063,2.408a5.294,5.294,0,0,0-3.329-4.527c-2.781-1.028-5.985.682-7.143,3.812a6.67,6.67,0,0,0-.421,2.393,9.239,9.239,0,0,1-4.352-3.554c-1.511-2.194-1.781-6.922.418-10.732a9.363,9.363,0,0,1,2.607-2.982c.039-.028.077-.056.114-.087a11.86,11.86,0,0,1,8.229-1.959,1.42,1.42,0,0,0,.992-.3c3.782-2.99,11.605-1.856,15.794,2.29a1.42,1.42,0,1,0,2-2.018,17.466,17.466,0,0,0-9.73-4.623,13.337,13.337,0,0,0-9.367,1.786,14.769,14.769,0,0,0-8.739,1.972,9.059,9.059,0,0,0-14.424,7.3V48.5a26.149,26.149,0,0,0-.637,4.152l-4.765,5.861a1.42,1.42,0,1,0,2.2,1.791l10.961-13.481a2.714,2.714,0,1,1,4.2,3.438L96.023,67.41a2.454,2.454,0,0,0,.18,3.3l6.9,6.729q-.927,1.275-2.251,3.106L89.671,70.707a2.523,2.523,0,0,1-.292-3.5l1.441-1.772a1.42,1.42,0,1,0-2.2-1.791l-1.441,1.772a5.354,5.354,0,0,0,.62,7.42L98.23,82.017l-.055.145a22.854,22.854,0,0,0-.939,13.216,1.977,1.977,0,0,0,1.938,1.539h33.363a2.358,2.358,0,0,0,1.572-.6,19.595,19.595,0,0,0,.16-29.1Zm-3.619-2.473a1.544,1.544,0,0,1,.695,2.2c-.007.012-.014.024-.021.036l-1.334,2.18a1.448,1.448,0,0,1-1.559.656c-1.333-.3-3.157-.726-4.276-1.011a4.274,4.274,0,0,0-3.1.386.829.829,0,0,1-.841-.031.828.828,0,0,1-.165-1.257l3.43-3.753a3.482,3.482,0,0,1,4.008-.828Zm-13.464-38.13a1.906,1.906,0,0,0,.409-1.719,3.717,3.717,0,0,1,.141-2.176c.614-1.662,2.182-2.619,3.495-2.134a2.6,2.6,0,0,1,1.511,2.551,2.033,2.033,0,0,0,1.667,2,26.685,26.685,0,0,0,9.351.238,5.337,5.337,0,0,0,.476,2.663l.567,1.213a.064.064,0,0,1,0,.061,26.219,26.219,0,0,1-2.861,3.6,6.716,6.716,0,0,1-3.53,2.27c-1.766.162-4.563-.814-6.955-2.423a2.38,2.38,0,0,0-1.83-.363,2.42,2.42,0,0,0-1.543,1.064l-3.611,5.672-3.437-3.26a9.9,9.9,0,0,0-2.168-1.563s4.61-7.264,4.762-7.531c1.277.467,2.681.847,3.561-.164ZM101.032,11.225a6.221,6.221,0,0,1,9.241-5.44,13.061,13.061,0,0,0-2.014,2.642c-2.5,4.33-2.629,10.375-.3,13.762a13.244,13.244,0,0,0,3.16,3.253c-.319.557-9.647,15.17-10.089,15.932V11.225ZM100.4,66.568c.827,1.792,1.822,3.909,1.59,5.813L98.45,68.932ZM105.16,79.44l1.937,1.888a2.661,2.661,0,0,0,2.807.571l5.518-2.139a1.022,1.022,0,0,1,1.116.252,5.741,5.741,0,0,1,1.542,4.533,1.894,1.894,0,0,1-1.52,1.675l-6.309,1.271a2.52,2.52,0,0,1-2.151-.577L103,82.427c.833-1.153,1.557-2.152,2.163-2.987Zm27.2,14.638H99.866a20,20,0,0,1,.659-10.043l5.7,5.013a5.384,5.384,0,0,0,3.544,1.332c.918,0,.949-.1,7.351-1.375a4.713,4.713,0,0,0,3.785-4.172,8.576,8.576,0,0,0-2.3-6.771,3.849,3.849,0,0,0-4.2-.948l-5.405,2.1-4.638-4.522c1.166-3.555.18-5.941-1.478-9.527-.163-.352-.32-.693-.469-1.027l9.94-12.062a5.553,5.553,0,1,0-8.594-7.035l-2.538,3.121a23.372,23.372,0,0,1,2.762-6.164l3.358-5.275a7.074,7.074,0,0,1,1.744,1.219L123.907,52a5.552,5.552,0,0,1,.829,7.086,8.9,8.9,0,0,1-1.625,1.821,6.332,6.332,0,0,0-1.725,1.329l-3.43,3.753a3.668,3.668,0,0,0,4.454,5.7,1.442,1.442,0,0,1,1.045-.131c1.147.292,3,.72,4.344,1.027a4.286,4.286,0,0,0,4.611-1.941l.492-.8a16.754,16.754,0,0,1-.545,24.235Z" fill="#fff5c1"/>
      <path id="Trazado_998886" data-name="Trazado 998886" d="M399.957,421.185h-2.916a1.42,1.42,0,1,0,0,2.839h2.916a1.42,1.42,0,1,0,0-2.839Z" transform="translate(-251.039 -341.459)" fill="#fff5c1"/>
      <path id="Trazado_998887" data-name="Trazado 998887" d="M392.836,458.3a1.42,1.42,0,0,0-2.08,1.933l1.986,2.136a1.42,1.42,0,0,0,2.08-1.933Z" transform="translate(-246.788 -371.179)" fill="#fff5c1"/>
      <path id="Trazado_998888" data-name="Trazado 998888" d="M390.83,377.835a1.42,1.42,0,0,0,2.006-.073l1.986-2.136a1.42,1.42,0,0,0-2.08-1.933l-1.986,2.136A1.419,1.419,0,0,0,390.83,377.835Z" transform="translate(-246.787 -302.589)" fill="#fff5c1"/>
    </g>
  </g>
</svg>
