<svg xmlns="http://www.w3.org/2000/svg" width="34.156" height="40" viewBox="0 0 34.156 40">
  <g id="Grupo_1178450" data-name="Grupo 1178450" transform="translate(-8.089 -3.748)">
    <path id="Trazado_999084" data-name="Trazado 999084" d="M25.17,43.748a5.576,5.576,0,0,1-2.539-.61C11.251,37.313,8.713,28.541,8.206,25.992c-.226.386-.042-14.58-.1-14.8a5.672,5.672,0,0,1,4.088-5.459C17.294,4.206,27.469,2.177,38.3,5.7a5.681,5.681,0,0,1,3.932,5.418c-.039.188.1,15.323-.1,14.879-.507,2.548-3.046,11.32-14.425,17.146a5.576,5.576,0,0,1-2.539.61Zm.5-38.573A46.362,46.362,0,0,0,12.6,7.1a4.252,4.252,0,0,0-3.068,4.091V24.931c.488,3.421,2.481,10.847,13.747,16.935a4.149,4.149,0,0,0,3.776,0C38.337,35.778,40.3,28.349,40.805,24.931V11.114A4.255,4.255,0,0,0,37.86,7.055,39.381,39.381,0,0,0,25.67,5.175Z" transform="translate(0 0)" fill="#3e5d56"/>
    <path id="Trazado_999085" data-name="Trazado 999085" d="M26.635,41.165a4.493,4.493,0,0,1-2.045-.491C15.686,36.115,13.7,29.241,13.3,27.243a4.4,4.4,0,0,1-.081-.855V15.713a4.565,4.565,0,0,1,3.29-4.394,34.942,34.942,0,0,1,20.376-.024,4.571,4.571,0,0,1,3.165,4.36V26.388a4.391,4.391,0,0,1-.081.855c-.4,2-2.386,8.873-11.289,13.431a4.488,4.488,0,0,1-2.045.492ZM27.024,11.2a35.846,35.846,0,0,0-10.105,1.487,3.146,3.146,0,0,0-2.27,3.025V26.388c.375,2.6,1.921,8.337,10.593,13.014a3.075,3.075,0,0,0,2.788,0C36.362,35.136,38.2,28.8,38.569,26.964a3.008,3.008,0,0,0,.053-.576V15.654a3.145,3.145,0,0,0-2.177-3A30.431,30.431,0,0,0,27.024,11.2Z" transform="translate(-1.466 -1.721)" fill="#3e5d56"/>
    <path id="Trazado_999086" data-name="Trazado 999086" d="M30.7,30.585a2.4,2.4,0,0,1-2.4-2.172l-.771-7.757a3.209,3.209,0,1,1,6.39.022L33.1,28.429a2.4,2.4,0,0,1-2.4,2.156Zm.025-12.029a1.79,1.79,0,0,0-1.775,1.96l.771,7.756a.982.982,0,0,0,1.954.007l.823-7.751a1.791,1.791,0,0,0-1.773-1.971Z" transform="translate(-5.552 -3.832)" fill="#3e5d56"/>
    <path id="Trazado_999087" data-name="Trazado 999087" d="M30.728,43.948a3.034,3.034,0,1,1,3.039-3.029,3.034,3.034,0,0,1-3.039,3.029Zm0-4.639a1.605,1.605,0,1,0,1.606,1.6,1.605,1.605,0,0,0-1.606-1.6Z" transform="translate(-5.602 -9.75)" fill="#3e5d56"/>
  </g>
</svg>
