<svg xmlns="http://www.w3.org/2000/svg" xmlns:xlink="http://www.w3.org/1999/xlink" width="292" height="150" viewBox="0 0 292 150">
  <defs>
    <clipPath id="clip-path">
      <rect id="Rectángulo_455864" data-name="Rectángulo 455864" width="275.454" height="143.917" fill="none"/>
    </clipPath>
    <clipPath id="clip-path-2">
      <rect id="Rectángulo_455863" data-name="Rectángulo 455863" width="275.455" height="143.917" fill="none"/>
    </clipPath>
    <clipPath id="clip-path-4">
      <rect id="Rectángulo_455853" data-name="Rectángulo 455853" width="76.576" height="58.392" fill="none"/>
    </clipPath>
    <clipPath id="clip-path-5">
      <rect id="Rectángulo_455854" data-name="Rectángulo 455854" width="2.967" height="1.461" fill="none"/>
    </clipPath>
    <clipPath id="clip-path-6">
      <rect id="Rectángulo_455855" data-name="Rectángulo 455855" width="0.998" height="1.024" fill="none"/>
    </clipPath>
    <clipPath id="clip-path-7">
      <rect id="Rectángulo_455856" data-name="Rectángulo 455856" width="0.996" height="0.357" fill="none"/>
    </clipPath>
    <clipPath id="clip-path-8">
      <rect id="Rectángulo_455857" data-name="Rectángulo 455857" width="0.705" height="0.601" fill="none"/>
    </clipPath>
    <clipPath id="clip-path-9">
      <rect id="Rectángulo_455858" data-name="Rectángulo 455858" width="4.11" height="5.33" fill="none"/>
    </clipPath>
    <clipPath id="clip-path-10">
      <rect id="Rectángulo_455859" data-name="Rectángulo 455859" width="5.493" height="2.115" fill="none"/>
    </clipPath>
    <clipPath id="clip-path-11">
      <rect id="Rectángulo_455860" data-name="Rectángulo 455860" width="2.619" height="1.124" fill="none"/>
    </clipPath>
    <clipPath id="clip-path-12">
      <rect id="Rectángulo_455862" data-name="Rectángulo 455862" width="13.003" height="10.452" fill="none"/>
    </clipPath>
  </defs>
  <g id="Grupo_1180447" data-name="Grupo 1180447" transform="translate(-186 -3152)">
    <rect id="Rectángulo_455249" data-name="Rectángulo 455249" width="292" height="150" transform="translate(186 3152)" fill="#e3f1ee"/>
    <g id="Grupo_1180446" data-name="Grupo 1180446" transform="translate(194.273 3157.747)">
      <g id="Grupo_1180445" data-name="Grupo 1180445" clip-path="url(#clip-path)">
        <g id="Grupo_1180444" data-name="Grupo 1180444" transform="translate(0 0)">
          <g id="Grupo_1180443" data-name="Grupo 1180443" clip-path="url(#clip-path-2)">
            <g id="Grupo_1180415" data-name="Grupo 1180415" transform="translate(0 0)" opacity="0.2">
              <g id="Grupo_1180414" data-name="Grupo 1180414">
                <g id="Grupo_1180413" data-name="Grupo 1180413" clip-path="url(#clip-path)">
                  <path id="Trazado_1004270" data-name="Trazado 1004270" d="M275.454,143.914H11.289c-16.041-6.107-20.015-62.746,22.318-65.76C75.886,75.143,18.083,9.147,78.514.479s84.2,102.506,140.761,79.574c15.556-6.305,29.939-5.558,40.549,7.366,15.791,19.243,15.63,56.494,15.63,56.494" transform="translate(0 0.003)" fill="#abc7f2"/>
                </g>
              </g>
            </g>
            <g id="Grupo_1180418" data-name="Grupo 1180418" transform="translate(146.513 17.929)" opacity="0.6">
              <g id="Grupo_1180417" data-name="Grupo 1180417">
                <g id="Grupo_1180416" data-name="Grupo 1180416" clip-path="url(#clip-path-4)">
                  <path id="Trazado_1004271" data-name="Trazado 1004271" d="M1417.081,187.164q-.032.621-.1,1.237c0,.04-.009.079-.014.118a17.4,17.4,0,0,1-.835,3.673c-.015.042-.029.084-.045.126-1.8,5.035-6.148,9.1-14.314,9.79a6.421,6.421,0,0,0-4.836,3.067c-.026.036-.051.071-.077.109-2.07,2.943-3.573,7.417-7.084,11.248l-.113.123c-4.706,5.053-12.978,8.936-30.789,6.6l-.18-.023s-.039-.074-.11-.216c-1.154-2.3-10.8-22.34-1.843-33.565,6.714-8.414,11.866-7.638,15.968-10,.035-.019.069-.039.1-.06a11.364,11.364,0,0,0,4.517-5.426c4.161-8.942,13.492-9.61,20.192-7.207l.108.039a18.808,18.808,0,0,1,2.338,1.034c6.651,3.513,21.515-6.566,28.081,1.059s-10.6,11.1-10.966,18.28" transform="translate(-1352.966 -165.558)" fill="#cfe6ff"/>
                  <path id="Trazado_1004272" data-name="Trazado 1004272" d="M1474.329,198.816q-.79.133-1.575.287a77.56,77.56,0,0,0-10.5,2.887l-.118.041c-2.051.717-4.075,1.507-6.068,2.355a100.379,100.379,0,0,0-20.123,11.435q-2.578,1.893-5.007,3.953l-.064.053q-1.445,1.227-2.834,2.51c-.031.028-.062.055-.091.083a92.448,92.448,0,0,0-8.6,9.116q-.462.56-.917,1.125l-.071.089a132.769,132.769,0,0,0-9.461,13.38c-.021.033-.041.065-.062.1q-.986,1.6-1.927,3.223c-.6,1.031-1.19,2.078-1.769,3.139l-.18-.023s-.039-.074-.11-.216c.94-1.728,1.928-3.422,2.933-5.086q2.377-3.935,5.016-7.717l.073-.105a126.357,126.357,0,0,1,7.86-10.11q.7-.811,1.422-1.6l.077-.085a91.112,91.112,0,0,1,13.194-11.885c.031-.025.063-.048.095-.071q1.324-.979,2.682-1.912l.609-.415.111-.075a100.833,100.833,0,0,1,15.111-8.407l.109-.049q2.016-.9,4.069-1.715a79.9,79.9,0,0,1,16.059-4.655.181.181,0,0,1,.062.356" transform="translate(-1399.229 -194.895)" fill="#b3d6f9"/>
                  <path id="Trazado_1004273" data-name="Trazado 1004273" d="M1424.395,346.328c-1.952,8.824,1.866,17.415,5.465,25.265a.056.056,0,0,0,.1-.048c-3.593-7.836-7.4-16.4-5.455-25.207.016-.07-.1-.08-.11-.011" transform="translate(-1416.188 -326.711)" fill="#b3d6f9"/>
                  <path id="Trazado_1004274" data-name="Trazado 1004274" d="M1527.924,513.569c5.965,2.858,12.994,3.2,19.485,2.661q2.76-.231,5.488-.728a.055.055,0,0,0-.019-.109,48.263,48.263,0,0,1-19.857-.15,25.9,25.9,0,0,1-5.058-1.778c-.064-.031-.1.073-.039.1" transform="translate(-1508.949 -475.785)" fill="#b3d6f9"/>
                  <path id="Trazado_1004275" data-name="Trazado 1004275" d="M1723.465,175.5a32.613,32.613,0,0,0-5.044,17.546c0,.071.109.082.11.011a32.51,32.51,0,0,1,5.025-17.492c.04-.059-.051-.123-.091-.064" transform="translate(-1678.847 -174.4)" fill="#b3d6f9"/>
                  <path id="Trazado_1004276" data-name="Trazado 1004276" d="M1687.483,168.337a39.936,39.936,0,0,0-4.191,10.371c-.834,3.376-1.388,6.929-.348,10.326.021.067.13.049.109-.019-1.054-3.44-.471-7.052.392-10.464a39.84,39.84,0,0,1,4.128-10.15c.036-.061-.055-.126-.091-.064" transform="translate(-1646.705 -168.013)" fill="#b3d6f9"/>
                  <path id="Trazado_1004277" data-name="Trazado 1004277" d="M1617.036,412.342a44.466,44.466,0,0,0,27.218,1.808,41.626,41.626,0,0,0,7.326-2.559.056.056,0,0,0-.047-.1,44.363,44.363,0,0,1-26.963,3,41.464,41.464,0,0,1-7.495-2.25c-.066-.027-.1.077-.039.1" transform="translate(-1588.41 -384.854)" fill="#b3d6f9"/>
                  <path id="Trazado_1004278" data-name="Trazado 1004278" d="M1645.2,378.639a44.24,44.24,0,0,0,25.547.359,48.484,48.484,0,0,0,6.807-2.4c.065-.029.018-.129-.048-.1a47.435,47.435,0,0,1-25.222,3.687,37.925,37.925,0,0,1-7.046-1.654c-.068-.023-.106.081-.039.1" transform="translate(-1613.526 -353.655)" fill="#b3d6f9"/>
                  <path id="Trazado_1004279" data-name="Trazado 1004279" d="M1860.949,186.023a13.671,13.671,0,0,0-1.962,7.928c0,.071.112.051.109-.019a13.541,13.541,0,0,1,1.944-7.845c.039-.06-.052-.124-.091-.064" transform="translate(-1804.179 -183.785)" fill="#b3d6f9"/>
                  <path id="Trazado_1004280" data-name="Trazado 1004280" d="M1932.313,229.447a15.518,15.518,0,0,0,10.972,4.174c.07,0,.082-.113.011-.111a15.409,15.409,0,0,1-10.9-4.136c-.052-.048-.137.023-.085.072" transform="translate(-1869.561 -222.451)" fill="#b3d6f9"/>
                  <path id="Trazado_1004281" data-name="Trazado 1004281" d="M1535.265,293.076c.255,3.4.279,6.813.486,10.216a16.492,16.492,0,0,0,2.707,8.769c.042.058.127-.014.085-.072a16.8,16.8,0,0,1-2.7-9.127c-.166-3.268-.219-6.542-.464-9.806-.005-.071-.115-.052-.109.019" transform="translate(-1515.525 -279.211)" fill="#b3d6f9"/>
                  <path id="Trazado_1004282" data-name="Trazado 1004282" d="M1467.117,636.136c-6.827,2.369-14.432,2.245-21.508,1.273q-2.914-.4-5.786-1.045c-.07-.016-.079.1-.011.111a58.986,58.986,0,0,0,21.693,1.145,32.315,32.315,0,0,0,5.66-1.383c.067-.023.02-.124-.047-.1" transform="translate(-1430.366 -585.175)" fill="#b3d6f9"/>
                </g>
              </g>
            </g>
            <path id="Trazado_1004283" data-name="Trazado 1004283" d="M1379.439,796.8c-.265,1.071-.455,1.591-.455,1.607a20.75,20.75,0,0,1-1.862,4.232c-.026.046-.054.094-.081.138h0c-3.344,5.647-9.527,9.532-19.53,8.461-2.659-.286-4.662.791-6.542,2.568,0,0,0,0,0,0-3.367,3.266-5.924,7.836-10.716,11.59l-39.927-.046c-1.485-5.77-6.567-29.252,5.873-39.862,10.227-8.722,16.42-6.4,21.711-8.381h0c2.24-.8,4.4-2.294,6.705-5.486,7.1-9.805,18.5-8.436,26.011-3.978a22.262,22.262,0,0,1,2.7,1.863c7.2,5.782,27.456-2.9,33.591,7.82s-15.361,10.91-17.474,19.471" transform="translate(-1157.47 -681.479)" fill="#bedeff"/>
            <path id="Trazado_1004284" data-name="Trazado 1004284" d="M1424.849,887.927q-.983-.024-1.965-.022a95.262,95.262,0,0,0-13.33,1.031l-.152.022h0c-2.638.386-5.26.867-7.859,1.423a123.216,123.216,0,0,0-26.913,9.09q-3.548,1.68-6.954,3.6l-.088.048s0,0,0,0q-2.027,1.142-4,2.364c-.045.026-.088.053-.129.079a113.576,113.576,0,0,0-12.492,8.98q-.686.568-1.366,1.142l-.106.09a162.7,162.7,0,0,0-14.518,13.918l-.1.1h0q-1.56,1.7-3.071,3.434-.861.991-1.717,2h-.6c1.269-1.509,2.568-2.985,3.875-4.433q3.782-4.187,7.843-8.129c.038-.038.074-.073.113-.11h0a154.879,154.879,0,0,1,11.826-10.349q1.032-.814,2.086-1.6h0c.038-.028.074-.055.111-.083a111.748,111.748,0,0,1,18.668-11.246h0c.044-.023.086-.044.129-.063h0q1.823-.873,3.677-1.679c.277-.12.553-.24.83-.358h0c.049-.023.1-.045.151-.064h0a123.863,123.863,0,0,1,20.168-6.609h0c.047-.013.094-.023.142-.034h0q2.64-.617,5.3-1.118a98.133,98.133,0,0,1,20.436-1.867.222.222,0,0,1-.008.443" transform="translate(-1185.521 -791.357)" fill="#a8ccfc"/>
            <path id="Trazado_1004285" data-name="Trazado 1004285" d="M1412.316,922.1c-4.409,10.178-1.81,21.419.7,31.718a.068.068,0,0,0,.132-.034c-2.5-10.279-5.1-21.487-.7-31.646.035-.08-.1-.118-.131-.039" transform="translate(-1257.253 -822.202)" fill="#a8ccfc"/>
            <path id="Trazado_1004286" data-name="Trazado 1004286" d="M1512.426,1146.713c6.521,4.833,14.911,6.889,22.859,7.747q3.379.365,6.782.4a.068.068,0,0,0,0-.136c-8.1-.092-16.491-1.41-23.892-4.808a31.764,31.764,0,0,1-5.681-3.322c-.07-.052-.141.064-.071.116" transform="translate(-1348.62 -1022.42)" fill="#a8ccfc"/>
            <path id="Trazado_1004287" data-name="Trazado 1004287" d="M1793.231,794.577c-5.322,5.392-8.631,12.607-10.168,19.967-.018.085.113.125.131.039,1.532-7.337,4.824-14.53,10.131-19.907.062-.062-.033-.161-.094-.1" transform="translate(-1589.975 -708.514)" fill="#a8ccfc"/>
            <path id="Trazado_1004288" data-name="Trazado 1004288" d="M1750.438,777.68a49.015,49.015,0,0,0-7.467,11.521c-1.792,3.873-3.288,8.026-2.826,12.362.009.086.146.089.136,0-.468-4.391,1.076-8.607,2.911-12.518a48.889,48.889,0,0,1,7.34-11.269c.057-.066-.037-.164-.095-.1" transform="translate(-1551.63 -693.445)" fill="#a8ccfc"/>
            <path id="Trazado_1004289" data-name="Trazado 1004289" d="M1641.958,1052.937a54.574,54.574,0,0,0,32.376,8.521,51.047,51.047,0,0,0,9.424-1.376.068.068,0,0,0-.034-.132,54.449,54.449,0,0,1-33.188-2.671,50.908,50.908,0,0,1-8.507-4.458c-.074-.048-.144.069-.071.116" transform="translate(-1464.124 -938.801)" fill="#a8ccfc"/>
            <path id="Trazado_1004290" data-name="Trazado 1004290" d="M1681.283,1031.656c9.223,5.261,20.18,7.155,30.7,6.387a59.482,59.482,0,0,0,8.761-1.3c.085-.019.052-.151-.034-.132a58.217,58.217,0,0,1-31.251-1.435,46.559,46.559,0,0,1-8.1-3.635c-.076-.043-.147.073-.071.116" transform="translate(-1499.188 -919.826)" fill="#a8ccfc"/>
            <path id="Trazado_1004291" data-name="Trazado 1004291" d="M1975.031,833.41a16.785,16.785,0,0,0-4.212,9.1c-.013.086.123.088.136,0a16.62,16.62,0,0,1,4.17-9c.061-.063-.033-.161-.094-.1" transform="translate(-1757.399 -743.142)" fill="#a8ccfc"/>
            <path id="Trazado_1004292" data-name="Trazado 1004292" d="M2065.937,898.614a19.044,19.044,0,0,0,12.248,7.587c.086.014.125-.116.039-.131a18.915,18.915,0,0,1-12.169-7.523c-.051-.07-.17,0-.118.067" transform="translate(-1842.206 -801.217)" fill="#a8ccfc"/>
            <path id="Trazado_1004293" data-name="Trazado 1004293" d="M1555.7,882.754c-.486,4.158-1.251,8.274-1.8,12.423a20.241,20.241,0,0,0,1.219,11.2c.037.079.155.013.119-.067-1.686-3.642-1.684-7.726-1.133-11.628.562-3.977,1.26-7.934,1.727-11.924.01-.087-.126-.089-.136,0" transform="translate(-1385.4 -787.103)" fill="#a8ccfc"/>
            <path id="Trazado_1004294" data-name="Trazado 1004294" d="M1383.942,1279.024a78.374,78.374,0,0,0,11.662,3.063h-.682a79.852,79.852,0,0,1-17.566-5.462l-.181-.079c-.08-.034-.042-.165.039-.13s.16.07.241.1q3.191,1.382,6.487,2.5" transform="translate(-1228.002 -1138.187)" fill="#a8ccfc"/>
            <path id="Trazado_1004295" data-name="Trazado 1004295" d="M372.482,931.891l-2.866,0h-.566l-8.389-.009h-.348l-28.186-.03a65.771,65.771,0,0,0-4.737-4.69c-.037-.032-.073-.06-.11-.09h0a6.889,6.889,0,0,0-5.886-1.761c-8.636,1.661-14.308-1.273-17.632-5.949-.028-.039-.056-.076-.082-.116h0a18.719,18.719,0,0,1-1.93-3.55c-.017-.039-.033-.078-.049-.118h0c-.168-.41-.321-.826-.464-1.247-2.465-7.3-21.206-5.906-16.642-15.691s22.847-3.7,28.695-9.26a20.02,20.02,0,0,1,2.115-1.748l.1-.072h0c6.221-4.431,16.053-6.454,22.951,1.571a12.19,12.19,0,0,0,6.243,4.291c.042.012.082.023.124.033,4.924,1.25,10.019-1.049,19.4,5.689,10.669,7.66,9.24,25.866,8.261,32.754" transform="translate(-253.139 -787.974)" fill="#cfe6ff"/>
            <path id="Trazado_1004296" data-name="Trazado 1004296" d="M375.041,1053.693h-.565q-1.414-1.374-2.868-2.712h0l-.092-.084a142.587,142.587,0,0,0-13.662-11.068l-.1-.071c-.424-.3-.848-.6-1.274-.894a99.169,99.169,0,0,0-11.537-6.914c-.038-.021-.077-.041-.118-.059q-1.807-.922-3.657-1.769l-.081-.036s0,0,0,0q-3.108-1.421-6.32-2.627a107.763,107.763,0,0,0-24.109-5.959c-2.3-.3-4.624-.523-6.951-.667h0l-.134-.008a83.142,83.142,0,0,0-11.687.073q-.857.068-1.71.162a.194.194,0,0,1-.04-.386,85.724,85.724,0,0,1,17.94.138q2.354.243,4.7.588h0l.126.019h0a108.234,108.234,0,0,1,18.051,4.289h0l.137.044.749.252q1.674.57,3.325,1.195h0l.118.046h0a97.736,97.736,0,0,1,17.083,8.439h0l.1.064q.976.609,1.935,1.244a135.551,135.551,0,0,1,11.057,8.157c.037.029.071.057.107.087q3.823,3.13,7.424,6.51,1.026.962,2.045,1.949" transform="translate(-258.565 -909.778)" fill="#b3d6f9"/>
            <path id="Trazado_1004297" data-name="Trazado 1004297" d="M971.065,997.388c4.583,8.546,3.137,18.529,1.7,27.684a.06.06,0,0,1-.117-.02c1.432-9.138,2.878-19.091-1.7-27.621-.036-.068.075-.11.111-.043" transform="translate(-865.804 -889.351)" fill="#b3d6f9"/>
            <path id="Trazado_1004298" data-name="Trazado 1004298" d="M709.832,1198.938c-5.329,4.686-12.489,7.088-19.351,8.415q-2.917.564-5.879.844a.059.059,0,0,1-.012-.118,51.789,51.789,0,0,0,20.465-5.929,27.8,27.8,0,0,0,4.707-3.308c.058-.051.128.046.07.1" transform="translate(-610.41 -1069.007)" fill="#b3d6f9"/>
            <path id="Trazado_1004299" data-name="Trazado 1004299" d="M574.221,918.691a35,35,0,0,1,10.312,16.655c.022.073-.089.117-.111.043a34.882,34.882,0,0,0-10.276-16.605c-.058-.05.017-.142.075-.092" transform="translate(-511.953 -819.193)" fill="#b3d6f9"/>
            <path id="Trazado_1004300" data-name="Trazado 1004300" d="M608.8,900.978a42.844,42.844,0,0,1,7.344,9.493c1.844,3.244,3.449,6.753,3.362,10.564,0,.076-.12.089-.118.012.088-3.86-1.564-7.42-3.447-10.694a42.74,42.74,0,0,0-7.216-9.283c-.054-.053.02-.146.075-.092" transform="translate(-542.786 -803.397)" fill="#b3d6f9"/>
            <path id="Trazado_1004301" data-name="Trazado 1004301" d="M502.435,1126.676a47.713,47.713,0,0,1-27.586,9.782,44.669,44.669,0,0,1-8.31-.513.06.06,0,0,1,.02-.117,47.6,47.6,0,0,0,28.719-4.745,44.51,44.51,0,0,0,7.087-4.5c.061-.047.131.049.07.1" transform="translate(-415.975 -1004.571)" fill="#b3d6f9"/>
            <path id="Trazado_1004302" data-name="Trazado 1004302" d="M482.158,1111c-7.652,5.256-17.06,7.7-26.281,7.8a52.019,52.019,0,0,1-7.727-.5c-.076-.011-.056-.128.02-.118a50.9,50.9,0,0,0,27.122-3.526,40.693,40.693,0,0,0,6.8-3.757c.063-.043.133.053.07.1" transform="translate(-399.577 -990.596)" fill="#b3d6f9"/>
            <path id="Trazado_1004303" data-name="Trazado 1004303" d="M461.394,962.192a14.672,14.672,0,0,1,4.332,7.618c.018.074-.1.086-.118.012a14.53,14.53,0,0,0-4.289-7.538c-.058-.05.017-.143.075-.092" transform="translate(-411.344 -857.983)" fill="#b3d6f9"/>
            <path id="Trazado_1004304" data-name="Trazado 1004304" d="M333.924,1023.109a16.65,16.65,0,0,1-10.118,7.5c-.074.019-.117-.092-.043-.111a16.534,16.534,0,0,0,10.053-7.44c.039-.065.148-.016.108.049" transform="translate(-288.668 -912.246)" fill="#b3d6f9"/>
            <path id="Trazado_1004305" data-name="Trazado 1004305" d="M845.594,973.367c.726,3.587,1.693,7.117,2.469,10.693a17.7,17.7,0,0,1-.246,9.844c-.026.072-.135.022-.108-.049,1.2-3.3.9-6.854.14-10.213-.779-3.424-1.676-6.82-2.373-10.263-.015-.075.1-.087.118-.012" transform="translate(-753.919 -867.916)" fill="#b3d6f9"/>
            <path id="Trazado_1004306" data-name="Trazado 1004306" d="M995.714,1302.2l-.153.081c-1.8.965-3.638,1.872-5.521,2.7h-.348l.305-.133q2.788-1.215,5.471-2.655l.2-.107c.067-.037.11.074.044.111" transform="translate(-882.519 -1161.078)" fill="#b3d6f9"/>
            <path id="Trazado_1004307" data-name="Trazado 1004307" d="M977.489,209.732H892.733a3.276,3.276,0,0,1-3.276-3.276V93.18a3.276,3.276,0,0,1,3.276-3.276h84.756a3.276,3.276,0,0,1,3.276,3.276V206.455a3.276,3.276,0,0,1-3.276,3.276" transform="translate(-793.138 -80.168)" fill="#51497a"/>
            <path id="Trazado_1004308" data-name="Trazado 1004308" d="M924.677,162.167v100.61H833.369V142.95h74.789Z" transform="translate(-743.124 -127.469)" fill="#fff"/>
            <path id="Trazado_1004309" data-name="Trazado 1004309" d="M923.511,261.611h-91.63V141.462h75.024l.048.056,16.557,19.262Zm-91.308-.322h90.986V160.9l-16.431-19.115H832.2Z" transform="translate(-741.797 -126.143)" fill="#bedeff"/>
            <path id="Trazado_1004310" data-name="Trazado 1004310" d="M1540.529,162.167h-16.519V142.95Z" transform="translate(-1358.976 -127.469)" fill="#bedeff"/>
            <path id="Trazado_1004311" data-name="Trazado 1004311" d="M1354.246,721.6H1332.13a3.3,3.3,0,0,1-3.3-3.3v-19.75a3.3,3.3,0,0,1,3.3-3.3h22.115a3.3,3.3,0,0,1,3.3,3.3V718.3a3.3,3.3,0,0,1-3.3,3.3" transform="translate(-1184.93 -619.955)" fill="#ff6576"/>
            <path id="Trazado_1004312" data-name="Trazado 1004312" d="M1372.053,755.6l-10.391-10.015,3.048-3.162,6.785,6.539,7.492-10.147,3.533,2.609Z" transform="translate(-1214.209 -658.807)" fill="#fb4b63"/>
            <path id="Trazado_1004313" data-name="Trazado 1004313" d="M1384.848,751.7l-10.391-10.015,3.048-3.162,6.785,6.539,7.492-10.147,3.533,2.609Z" transform="translate(-1225.618 -655.334)" fill="#fff"/>
            <path id="Trazado_1004314" data-name="Trazado 1004314" d="M992.967,43.132a3.079,3.079,0,0,1-2.546-1.336L981.3,28.465a5.123,5.123,0,0,1,1.367-7.143,4.445,4.445,0,0,1,6.169,1.205l11.85,17.6a.8.8,0,0,1-1.335.9l-11.85-17.6a2.835,2.835,0,0,0-3.935-.769,3.514,3.514,0,0,0-.938,4.9l9.122,13.331a1.467,1.467,0,0,0,2.431-1.643l-6.36-9.535a.8.8,0,1,1,1.339-.893l6.36,9.535a3.073,3.073,0,0,1-2.552,4.781" transform="translate(-874.235 -18.336)" fill="#ff6576"/>
            <path id="Trazado_1004315" data-name="Trazado 1004315" d="M1104.229,142.949h-5.894l7.245,10.549,2.59-2.553Z" transform="translate(-979.397 -127.469)" fill="#fff"/>
            <path id="Trazado_1004316" data-name="Trazado 1004316" d="M1069.217,89.9h3.754l3.3,5.744h-3.9Z" transform="translate(-953.432 -80.168)" fill="#51497a"/>
            <path id="Trazado_1004317" data-name="Trazado 1004317" d="M1873.133,853.165c-.165,1.475-1.586,1.327-2.258,1.952-.23.214.025.988-.168.741-.914-1.163-4.079-4.035-7.534-7.282l-.156-.147c-4.974-4.678-10.484-10.089-10.719-12.281-.44-4.111,1.952-25.212,2.5-26.217s6.316-2.574,6.316-2.574,7.151,11.65,3.278,14.769a14.951,14.951,0,0,0-3.658,5.071,33.682,33.682,0,0,0-1.641,4.109c-.359,1.091-.538,1.811-.538,1.811a18.247,18.247,0,0,1,3.245,2.367h0c.2.189.407.386.6.592a8.008,8.008,0,0,1,1.989,3.165c1.022,3.505,8.744,13.924,8.744,13.924" transform="translate(-1651.665 -719.928)" fill="#fabba5"/>
            <path id="Trazado_1004318" data-name="Trazado 1004318" d="M1992.836,1174.709s.071,4.874-.688,6.129l-1.409-1.356,1.8-5.284Z" transform="translate(-1775.164 -1047.044)" fill="#ed938b"/>
            <path id="Trazado_1004319" data-name="Trazado 1004319" d="M1927.823,1072.151l-.156-.147-1.46-1.382c1.42-3.934-1.461-12.539-1.461-12.539l1.7.976c.2.189.407.386.6.592Z" transform="translate(-1716.315 -943.503)" fill="#ed938b"/>
            <path id="Trazado_1004320" data-name="Trazado 1004320" d="M1918.151,870.577c2.326,10.665,2.88,26.567,2.88,26.567a5.487,5.487,0,0,0,3.917-.175s1.957-10.585,2.456-13.68-.6-6.191-1-7.589c-.324-1.136,2.794-12.058,2.052-21.776-.329-4.309-15.881-8.912-10.306,16.652" transform="translate(-1709.36 -758.448)" fill="#fabba5"/>
            <path id="Trazado_1004321" data-name="Trazado 1004321" d="M1867.239,840.5s-5.358.951-9.347-.329c-6.186-1.984-8.806-1.047-8.806-1.047-.358-1.99.589-10.4,1.475-17.323a.156.156,0,0,1,0-.017c.418-3.266.821-6.2,1.068-7.977.15-1.088.242-1.742.242-1.772.007,0,11.148-.067,12.06.812.007.006.4.429.4.435a10.689,10.689,0,0,1,3.538,6.292,85.813,85.813,0,0,1-.638,20.926" transform="translate(-1648.78 -724.102)" fill="#ff6576"/>
            <path id="Trazado_1004322" data-name="Trazado 1004322" d="M1872.765,829.267c-7.828.4-9.319,6.742-9.392,7.123.418-3.266.821-6.2,1.068-7.977Z" transform="translate(-1661.589 -738.704)" fill="#f64660"/>
            <path id="Trazado_1004323" data-name="Trazado 1004323" d="M1975,862.176s-.21-6.321-2.2-7.149-2.645.663-1.653,2.279,3.024,6.593,3.851,4.871" transform="translate(-1757.286 -762.225)" fill="#ff8091"/>
            <path id="Trazado_1004324" data-name="Trazado 1004324" d="M1972.051,1312.238v1.651h1.881l.428-1.8Z" transform="translate(-1758.499 -1170.002)" fill="#29274f"/>
            <path id="Trazado_1004325" data-name="Trazado 1004325" d="M1917.789,1270.628s-.273,2.223-1.677,3.044c-1.132.663-1.975,1.268-1.975,1.268-.128.293-1.39,1.475-1.083,1.475l4.431.3s1.107-1.393,2.105-1.243,2.443-1.1,2.054-1.993a3.823,3.823,0,0,1-.209-1.928Z" transform="translate(-1705.848 -1133.032)" fill="#fabba5"/>
            <path id="Trazado_1004326" data-name="Trazado 1004326" d="M1905.167,1298.431s-2.654,1.5-2.159,1.979h5.426a.694.694,0,0,0,.562-.287,2.3,2.3,0,0,1,1.945-1.018c2.2.05,2.115-.481,1.733-2.133a25.137,25.137,0,0,1-4.259,1.719c-3.1.713-3.248-.26-3.248-.26" transform="translate(-1696.877 -1156.522)" fill="#51497a"/>
            <path id="Trazado_1004327" data-name="Trazado 1004327" d="M2059.092,1251.63l1.258,1.07,1.219-1.432-1.094-1.494Z" transform="translate(-1836.114 -1114.436)" fill="#29274f"/>
            <path id="Trazado_1004328" data-name="Trazado 1004328" d="M2015.691,1232.209s1.638,1.984,1.353,3.585c-.229,1.292-.314,2.326-.314,2.326.14.288.223,2.015.422,1.781l3.1-3.179s-.343-1.746.418-2.409.745-2.573-.187-2.856a3.821,3.821,0,0,1-1.6-1.09Z" transform="translate(-1797.413 -1097.13)" fill="#fabba5"/>
            <path id="Trazado_1004329" data-name="Trazado 1004329" d="M2023.414,1247.1s-.578,2.993.108,2.927l3.516-4.132a.693.693,0,0,0,.146-.614,2.3,2.3,0,0,1,.485-2.141c1.461-1.639,1-1.923-.5-2.7a25.156,25.156,0,0,1-1.451,4.358c-1.465,2.821-2.3,2.305-2.3,2.305" transform="translate(-1804.097 -1106.107)" fill="#51497a"/>
            <path id="Trazado_1004330" data-name="Trazado 1004330" d="M1780.186,566.538a7.431,7.431,0,0,0-1.366-2.39c-2.785-1.837-2.669-1.724-2.859-2.344a3.783,3.783,0,0,1,.362-3.119c.187-.025.133.817.078,1.066-.106.48.53,1.241.53,1.241a7.378,7.378,0,0,1,.1-1.415,5.5,5.5,0,0,1,.646-1.418c.333.03.08.808-.012,1.513a5.029,5.029,0,0,0,.349,1.6,7.53,7.53,0,0,1,.11-1.289c.118-.474.748-1.425.884-1.4.236.051-.008.687-.1,1.35a3.941,3.941,0,0,0,.3,1.461,4.076,4.076,0,0,1,.388-.9c.215-.313.751-.809.816-.688.121.224-.023.49-.334,1.029a1.431,1.431,0,0,0,.528,1.479,2.981,2.981,0,0,1,1.623,1.729c.314,1.175-2.043,2.49-2.043,2.49" transform="translate(-1583.498 -497.716)" fill="#fabba5"/>
            <path id="Trazado_1004331" data-name="Trazado 1004331" d="M1790.1,620.872s-.906-1.408-3.682-.371c-.852.318-2.878,2.808-3.922,4.136a27.667,27.667,0,0,1-2.223,2.905c-.241.217-.495.439-.751.661.323-2.285.473-4.263.679-5.633.258-1.716.65-3.265.179-4.382-.092-.217-.871-.021-1.565-.043-.594-.019-1.106-.271-1.242-.17-1.2.892-1.934,5.107-2.975,8.333-1.286,3.985-.57,6.533.259,7.849.464.738,6.652,1.864,12.181-1.962s3.063-11.325,3.063-11.325" transform="translate(-1581.798 -551.034)" fill="#75acf2"/>
            <path id="Trazado_1004332" data-name="Trazado 1004332" d="M1820,710.344c-.076.541.1,1.074.013,1.623a3.141,3.141,0,0,1-.69,1.5c-.026.032.021.074.048.042a3.218,3.218,0,0,0,.676-1.381,3.1,3.1,0,0,0,.067-.772,5.53,5.53,0,0,1-.051-1c.006-.041-.057-.054-.063-.013" transform="translate(-1622.301 -633.399)" fill="#4b83db"/>
            <path id="Trazado_1004333" data-name="Trazado 1004333" d="M1914.4,579.28l-1.385,6.221,8.715,14.257a7.211,7.211,0,0,1,6.609-.495,3.833,3.833,0,0,0,3.2-.348,6.253,6.253,0,0,0-.015-5.627,7.34,7.34,0,0,1,.812,5.236,7.6,7.6,0,0,0,1.648-1.031c1.145-3.661-.711-11.541-7.668-13.667s-6.04-7.063-6.04-7.063Z" transform="translate(-1705.86 -514.306)" fill="#6d2f3b"/>
            <path id="Trazado_1004334" data-name="Trazado 1004334" d="M1881.787,640.259c-.144-6.065,1.782-14.108.236-14.725s-2.353-.56-3.7-1.064c-1.669-.622-1.782-.826-4.506.52s-2.358,1.352-2.358,1.352a77.773,77.773,0,0,0-1.889,8.075c-.111,2.425,1.225,2.978,1.225,2.978a37.677,37.677,0,0,1,2.458,5.764,17.156,17.156,0,0,1-.071,2.628l11.207-2.013s-2.558-1.857-2.6-3.515" transform="translate(-1667.105 -556.415)" fill="#fabba5"/>
            <path id="Trazado_1004335" data-name="Trazado 1004335" d="M1880.273,640.509s-1.048,5.717-1.152,6.612a.625.625,0,0,0,.07.331c.439.954,2.71,2.467,2.261,3.348-.132.259-.959.52-2.109.763h-.007l-.019,0c-.194.041-.4.081-.608.121l-.162.031c-3.325.616-8.3,1.091-8.3,1.091v0a4.085,4.085,0,0,0,.112-.709,5.953,5.953,0,0,0-.662-3.22h0a32.423,32.423,0,0,1-1.835-4.457v0h0a2.25,2.25,0,0,1-.847-.512c-.538-.509-1.041-1.477-.515-3.237.561-1.873.849-5.857,1.887-7.484a13.979,13.979,0,0,1,2.517-1.2s-1.942,6.648-1.1,7.579,3.579-2.475,5.048-5.147a15.3,15.3,0,0,1,1.912-2.555,17.909,17.909,0,0,1,2.867.758c.657.226,1.833,1.563.652,7.884" transform="translate(-1664.173 -563.441)" fill="#75acf2"/>
            <path id="Trazado_1004336" data-name="Trazado 1004336" d="M1933.3,768.685a.415.415,0,0,1-.1.211c-.49.564-1.735,2.752-6.634,3.189-4.263.38-5.657,1.16-5.657,1.16l-2.646-3.032s1.053,1.384,7.121-1.841a30.1,30.1,0,0,0,2.918-1.672s5.84-3.715,5,1.985" transform="translate(-1710.535 -682.613)" fill="#fabba5"/>
            <path id="Trazado_1004337" data-name="Trazado 1004337" d="M1982.443,696.57s-2.638-5.937-4.536-7.075,2.457-3.043,4.313-2.485,5.3,8.076,3.733,12.3Z" transform="translate(-1763.303 -612.525)" fill="#fabba5"/>
            <path id="Trazado_1004338" data-name="Trazado 1004338" d="M1899.689,512.869a2.77,2.77,0,0,1,1.221-2.933c1.722-1.253,2.738-1.475,4.283-.894s3.569.935,4.364,2.371a6.073,6.073,0,0,1-1.468,7.252c-2.133,1.983-3.909.531-5,.809s-3.4-6.605-3.4-6.605" transform="translate(-1693.912 -453.646)" fill="#6d2f3b"/>
            <path id="Trazado_1004339" data-name="Trazado 1004339" d="M1915.636,591.22a4.4,4.4,0,0,1-4.28.754,14.928,14.928,0,0,0,.132-2.483,19.39,19.39,0,0,0-.158-2.439,1.868,1.868,0,0,1,.166-.183h0a11.97,11.97,0,0,1,3.536-1.794,4.1,4.1,0,0,0-.452,1.578,4.709,4.709,0,0,0-.017.634,4.792,4.792,0,0,0,.093.773,17.242,17.242,0,0,0,.978,3.16" transform="translate(-1704.353 -521.716)" fill="#fabba5"/>
            <path id="Trazado_1004340" data-name="Trazado 1004340" d="M1914.345,599.711c-.841,1.285-3.06,1.536-3.1,1.551a10.475,10.475,0,0,0-.138-1.786.729.729,0,0,0-.027-.091c.062-.033.126-.063.193-.091h0a7.276,7.276,0,0,1,3.084-.216,4.726,4.726,0,0,0-.017.634" transform="translate(-1704.133 -534.142)" fill="#e58f78"/>
            <path id="Trazado_1004341" data-name="Trazado 1004341" d="M1890.782,533.949a6.093,6.093,0,0,1-4.966-.339c-.427-.323-.279-.76-.558-2.143a3.441,3.441,0,0,1,.229-2.252,1.838,1.838,0,0,1,.413-.551c.046-.04.086-.078.12-.115.318-.337.169-.537.392-1.244a1.643,1.643,0,0,1,.36-.548c.078-.086.165-.174.257-.261a13.24,13.24,0,0,1,1.668-1.273c4.173-1.086,5.68,2.53,5.445,3.888s-.763,4.023-3.361,4.837" transform="translate(-1681.028 -468.168)" fill="#fabba5"/>
            <path id="Trazado_1004342" data-name="Trazado 1004342" d="M1921.387,548.928s-.049-1.006-1.826-1.152c-1.056-.086-1.068.418-.491.542s.929-.346,2.317.609" transform="translate(-1710.914 -488.449)" fill="#752d4b"/>
            <path id="Trazado_1004343" data-name="Trazado 1004343" d="M1900.392,539.506c-.2-.121-.306-.45-.438-.611.078-.086.165-.174.257-.261a.686.686,0,0,1,.217.145c.525.5.3.93-.035.727" transform="translate(-1694.209 -480.305)" fill="#752d4b"/>
            <path id="Trazado_1004344" data-name="Trazado 1004344" d="M1895.021,549.57c-.08.256-.178-.622-.405-.765-.208-.131-.54-.089-.7-.267a.058.058,0,0,1,.066-.092,1.055,1.055,0,0,0,.417.081.731.731,0,0,1,.626,1.043" transform="translate(-1688.807 -489.05)" fill="#752d4b"/>
            <path id="Trazado_1004345" data-name="Trazado 1004345" d="M1897.2,550.622a.384.384,0,0,1-.3-.054.512.512,0,0,1-.16-.277.3.3,0,0,1,.115-.336l.139-.077.253.158.094.116.006.149.067.177a.274.274,0,0,1-.208.143" transform="translate(-1691.329 -490.331)" fill="#752d4b"/>
            <path id="Trazado_1004346" data-name="Trazado 1004346" d="M1917.8,555.366s.385-.591.765-.686a1.938,1.938,0,0,1,1.454.525,1.3,1.3,0,0,1,.042.62,1.787,1.787,0,0,0-2.261-.459" transform="translate(-1710.127 -494.599)" fill="#ef9f8a"/>
            <path id="Trazado_1004347" data-name="Trazado 1004347" d="M1921.166,559.1a.427.427,0,1,1-.8-.3.429.429,0,0,1,.316-.268c.151.056.3.115.435.174a.427.427,0,0,1,.049.4" transform="translate(-1712.386 -498.044)" fill="#752d4b"/>
            <path id="Trazado_1004348" data-name="Trazado 1004348" d="M1918.643,558.764c-.1.162-.375-.049-.534-.153-.038-.025-.076-.052-.113-.079a3.651,3.651,0,0,0-.351-.248,1.213,1.213,0,0,0-.345-.133,1.305,1.305,0,0,0-1.052.219,1.534,1.534,0,0,1,1.471-.467c.633.163,1,.744.924.861" transform="translate(-1708.738 -497.447)" fill="#752d4b"/>
            <g id="Grupo_1180421" data-name="Grupo 1180421" transform="translate(207.397 61.912)" opacity="0.2">
              <g id="Grupo_1180420" data-name="Grupo 1180420">
                <g id="Grupo_1180419" data-name="Grupo 1180419" clip-path="url(#clip-path-5)">
                  <path id="Trazado_1004349" data-name="Trazado 1004349" d="M1918.055,572.3a1.26,1.26,0,0,0-.92-.508l-.608-.048a1.969,1.969,0,0,0-1.124.121.4.4,0,0,0-.183.211c-.072.219.12.386.313.515a3.559,3.559,0,0,0,1.77.589,2.426,2.426,0,0,0,.294,0,.54.54,0,0,0,.457-.876" transform="translate(-1915.206 -571.719)" fill="#ed4c62"/>
                </g>
              </g>
            </g>
            <g id="Grupo_1180424" data-name="Grupo 1180424" transform="translate(204.459 60.381)" opacity="0.2">
              <g id="Grupo_1180423" data-name="Grupo 1180423">
                <g id="Grupo_1180422" data-name="Grupo 1180422" clip-path="url(#clip-path-6)">
                  <path id="Trazado_1004350" data-name="Trazado 1004350" d="M1889.054,558.442a.255.255,0,0,1-.261.167.847.847,0,0,1-.666-.3.7.7,0,0,1-.043-.056,1.843,1.843,0,0,1,.413-.551c.046-.041.086-.078.12-.115a.321.321,0,0,1,.038.035l.175.187a.748.748,0,0,1,.25.458.394.394,0,0,1-.026.177" transform="translate(-1888.084 -557.586)" fill="#ed4c62"/>
                </g>
              </g>
            </g>
            <path id="Trazado_1004351" data-name="Trazado 1004351" d="M1897.1,548.886a.875.875,0,0,1,.1.975,2.2,2.2,0,0,1-.932.846c-.167.1-.4.24-.345.47.058.257.408.476.611.6.044.028.091-.038.047-.065a1.676,1.676,0,0,1-.5-.412c-.234-.346.171-.491.391-.629a2.4,2.4,0,0,0,.662-.563,1,1,0,0,0,.022-1.277c-.035-.038-.1.013-.062.051" transform="translate(-1690.613 -489.39)" fill="#e58f78"/>
            <g id="Grupo_1180427" data-name="Grupo 1180427" transform="translate(204.842 64.44)" opacity="0.2">
              <g id="Grupo_1180426" data-name="Grupo 1180426">
                <g id="Grupo_1180425" data-name="Grupo 1180425" clip-path="url(#clip-path-7)">
                  <path id="Trazado_1004352" data-name="Trazado 1004352" d="M1891.67,595.071a1.4,1.4,0,0,1,.9.2.081.081,0,0,1-.086.136,1.217,1.217,0,0,0-.776-.179c-.1.011-.139-.146-.036-.157" transform="translate(-1891.609 -595.063)" fill="#ff6576"/>
                </g>
              </g>
            </g>
            <g id="Grupo_1180430" data-name="Grupo 1180430" transform="translate(205.529 61.716)" opacity="0.2">
              <g id="Grupo_1180429" data-name="Grupo 1180429">
                <g id="Grupo_1180428" data-name="Grupo 1180428" clip-path="url(#clip-path-8)">
                  <path id="Trazado_1004353" data-name="Trazado 1004353" d="M1898.084,569.927a2.18,2.18,0,0,1,.562.453c.069.077-.048.189-.117.111a2.032,2.032,0,0,0-.528-.426c-.09-.051-.007-.189.083-.138" transform="translate(-1897.961 -569.916)" fill="#ff6576"/>
                </g>
              </g>
            </g>
            <path id="Trazado_1004354" data-name="Trazado 1004354" d="M1933.941,521.262a2.023,2.023,0,0,1,1.392,1.687,11.317,11.317,0,0,0,1.157,3.612c.257.253-.762,1.536-.762,1.536a1.62,1.62,0,0,1-1,1.571,4.064,4.064,0,0,0,2.451-.726c.85-.774,1.274-4.574.812-6.022a4.28,4.28,0,0,0-2.974-2.506c-.608.017-1.075.848-1.075.848" transform="translate(-1724.515 -464.057)" fill="#6d2f3b"/>
            <path id="Trazado_1004355" data-name="Trazado 1004355" d="M1943.827,570.707s1.2-.88,1.711-.084-.584,1.5-1,1.768c-.444.29-.616.229-1.084-.094s.372-1.59.372-1.59" transform="translate(-1732.873 -508.533)" fill="#fabba5"/>
            <path id="Trazado_1004356" data-name="Trazado 1004356" d="M1944.728,572.187c.112.492.662.385.974.188a3.643,3.643,0,0,0,.7-.579c.283-.3.572-.794.24-1.176a.776.776,0,0,0-.941-.128c-.048.023-.089-.05-.04-.073a.866.866,0,0,1,1.009.112.849.849,0,0,1-.046,1.128,2.72,2.72,0,0,1-1.152.925.6.6,0,0,1-.825-.378.042.042,0,0,1,.081-.02" transform="translate(-1734.061 -508.551)" fill="#e58f78"/>
            <path id="Trazado_1004357" data-name="Trazado 1004357" d="M1948.78,573.929a.532.532,0,0,0-.36.119.729.729,0,0,0-.1.374.752.752,0,0,1-.043.1c-.125.188-.624.167-.6.461,0,.054-.08.052-.084,0a.293.293,0,0,1,.145-.286c.23-.155.422-.049.505-.411a.5.5,0,0,1,.541-.438c.054,0,.052.081,0,.084" transform="translate(-1736.685 -511.704)" fill="#e58f78"/>
            <path id="Trazado_1004358" data-name="Trazado 1004358" d="M1907.623,518.186a3.37,3.37,0,0,0-2.656.508,2.332,2.332,0,0,0-.364.263c-.817.8,1.317-3.2,4.095-1.619s-1.075.848-1.075.848" transform="translate(-1698.197 -460.982)" fill="#6d2f3b"/>
            <path id="Trazado_1004359" data-name="Trazado 1004359" d="M1960.349,631.872a19.272,19.272,0,0,1,4.55,1.3c1.385.777,2.473,3.4,4.059,5.819s3.764,8.205,2.079,12.035-9.225,3.3-10.229,2.168a3.943,3.943,0,0,0-.791-2.857l2.293-7.12Z" transform="translate(-1747.769 -563.446)" fill="#75acf2"/>
            <path id="Trazado_1004360" data-name="Trazado 1004360" d="M1961.138,775.335c-.015-1.424,1.551-1.863,2.644-2.2,1.422-.441,2.8-1.47,4.362-1.122.052.012.042.095-.01.083-1.439-.322-2.7.558-4,1.012-1.1.385-2.928.7-2.912,2.217,0,.053-.082.066-.083.012" transform="translate(-1748.767 -688.347)" fill="#4b83db"/>
            <path id="Trazado_1004361" data-name="Trazado 1004361" d="M2008.025,763.262a7.494,7.494,0,0,1,1.148-1.3c.04-.036.091.03.051.066a7.385,7.385,0,0,0-1.132,1.285c-.031.044-.1-.007-.067-.051" transform="translate(-1790.569 -679.44)" fill="#4b83db"/>
            <path id="Trazado_1004362" data-name="Trazado 1004362" d="M1990.843,728.969a2.759,2.759,0,0,0-.481-1.413c-.235-.433-.454-.874-.652-1.324a17.805,17.805,0,0,1-.933-2.7c-.014-.052.069-.064.082-.012a17.581,17.581,0,0,0,1.075,3.007c.21.451.454.883.68,1.325a2.241,2.241,0,0,1,.313,1.13c0,.054-.086.043-.083-.01" transform="translate(-1773.412 -645.137)" fill="#4b83db"/>
            <path id="Trazado_1004363" data-name="Trazado 1004363" d="M1917.452,742.916a3.787,3.787,0,0,1-3.69.735c-.051-.017-.019-.094.032-.077a3.7,3.7,0,0,0,3.607-.724c.04-.036.091.031.051.066" transform="translate(-1706.498 -662.398)" fill="#4b83db"/>
            <path id="Trazado_1004364" data-name="Trazado 1004364" d="M1991.662,606.305a10.143,10.143,0,0,0-2.184-9.66,9.933,9.933,0,0,0-4.223-2.766c-.956-.316-1.948-.513-2.885-.887a9.77,9.77,0,0,1-2.35-1.321,5.418,5.418,0,0,1-2.325-3.931c0-.054.081-.052.083,0a5.456,5.456,0,0,0,2.522,4.034,10.049,10.049,0,0,0,2.693,1.354c.935.309,1.907.5,2.825.864a10.2,10.2,0,0,1,6.035,6.864,10.35,10.35,0,0,1-.111,5.471.042.042,0,0,1-.08-.022" transform="translate(-1763.531 -524.058)" fill="#6d2f3b"/>
            <path id="Trazado_1004365" data-name="Trazado 1004365" d="M1974.213,596.423c-.612,1.54.746,3.129,1.734,4.16a49.5,49.5,0,0,0,3.876,3.346c2.372,2.009,4.379,4.6,4.688,7.792a7.869,7.869,0,0,1-1.124,4.97c-.029.045-.1,0-.071-.043,1.819-2.868,1.308-6.506-.453-9.265a16.02,16.02,0,0,0-3.374-3.627,36.77,36.77,0,0,1-3.843-3.374c-.926-1.019-2.093-2.52-1.512-3.981.02-.05.1-.027.08.023" transform="translate(-1760.216 -531.791)" fill="#964d5f"/>
            <path id="Trazado_1004366" data-name="Trazado 1004366" d="M1970.122,597.655c-1.49,1.3-.131,3.377.8,4.545a40.9,40.9,0,0,0,3.426,3.547c1.917,1.891,3.878,4.224,3.946,7.059a5.9,5.9,0,0,1-1.9,4.43c-.039.036-.1-.024-.057-.061a5.813,5.813,0,0,0,1.868-4.47,7.943,7.943,0,0,0-1.417-3.973c-1.752-2.675-4.523-4.458-6.368-7.059-.808-1.139-1.659-2.943-.356-4.08.04-.035.1.025.057.06" transform="translate(-1756.127 -532.871)" fill="#964d5f"/>
            <path id="Trazado_1004367" data-name="Trazado 1004367" d="M1936.441,525.43c2.565.813,2.208,4.487,4.663,5.427.05.019.028.1-.022.08-2.467-.945-2.115-4.62-4.663-5.427-.051-.016-.029-.1.022-.08" transform="translate(-1726.699 -468.529)" fill="#964d5f"/>
            <path id="Trazado_1004368" data-name="Trazado 1004368" d="M1936.748,525.093c1.3-.167,2.1,1.047,2.66,2.023a5.32,5.32,0,0,0,1.489,1.791,4.257,4.257,0,0,0,2.224.765c.053,0,.052.086,0,.083a4.316,4.316,0,0,1-3.223-1.709c-.8-1.072-1.437-3.09-3.129-2.874-.053.007-.073-.074-.02-.081" transform="translate(-1726.991 -468.217)" fill="#964d5f"/>
            <g id="Grupo_1180433" data-name="Grupo 1180433" transform="translate(213.441 80.094)" opacity="0.5">
              <g id="Grupo_1180432" data-name="Grupo 1180432">
                <g id="Grupo_1180431" data-name="Grupo 1180431" clip-path="url(#clip-path-9)">
                  <path id="Trazado_1004369" data-name="Trazado 1004369" d="M1973.545,739.751c-.3-.745.823,2.053-.194,3.206a12.764,12.764,0,0,1-2.334,2s2.391-1.006,4.032-1.588c.422-.15-.989-2.343-1.5-3.618" transform="translate(-1971.017 -739.627)" fill="#4b83db"/>
                </g>
              </g>
            </g>
            <path id="Trazado_1004370" data-name="Trazado 1004370" d="M1981.922,647.339a4.709,4.709,0,0,0-2.145.913,3.927,3.927,0,0,0-.99,2.363,7.3,7.3,0,0,0,.971,4.8l-.071.042-.228-.739c-.016-.051.061-.084.077-.033l.228.739c.013.041-.045.086-.071.042a7.388,7.388,0,0,1-.954-5.073,3.812,3.812,0,0,1,.987-2.2,4.8,4.8,0,0,1,2.184-.93c.052-.013.064.07.012.082" transform="translate(-1764.365 -577.164)" fill="#4b83db"/>
            <path id="Trazado_1004371" data-name="Trazado 1004371" d="M1966.967,636.067a7.605,7.605,0,0,0-3.268-1.8c-.051-.013-.042-.1.01-.083a7.689,7.689,0,0,1,3.309,1.817c.039.036-.011.1-.051.066" transform="translate(-1751.02 -565.506)" fill="#4b83db"/>
            <path id="Trazado_1004372" data-name="Trazado 1004372" d="M1867.021,682.219c-.1,1.281-.518,2.514-.685,3.786a4.258,4.258,0,0,0,.076,1.9,1.747,1.747,0,0,0,1.527,1.294c.054,0,.043.084-.01.083-1.37-.038-1.8-1.576-1.733-2.7.083-1.483.624-2.9.742-4.373,0-.054.087-.043.083.01" transform="translate(-1664.101 -608.301)" fill="#4b83db"/>
            <path id="Trazado_1004373" data-name="Trazado 1004373" d="M1877.01,518.4a2.744,2.744,0,0,0-2.1.05,2.618,2.618,0,0,0-.841.592,6.591,6.591,0,0,1-.8.853,17.561,17.561,0,0,0-1.79,1.169,4.656,4.656,0,0,0-1.271,2.092.042.042,0,0,1-.08-.023,4.752,4.752,0,0,1,1.175-2.014,4.591,4.591,0,0,1,.925-.724,6.971,6.971,0,0,0,1.153-.7c.31-.276.518-.644.836-.914a2.746,2.746,0,0,1,.838-.483,2.81,2.81,0,0,1,1.976.018c.05.019.028.1-.023.08" transform="translate(-1667.613 -462.026)" fill="#6d2f3b"/>
            <path id="Trazado_1004374" data-name="Trazado 1004374" d="M1930.631,524.581a2.33,2.33,0,0,1,1.294,1.713,7.1,7.1,0,0,0,.171,1.288,9.852,9.852,0,0,0,.531,1.013,1.433,1.433,0,0,1,.176.832,2.3,2.3,0,0,1-.562,1c-.557.742-.517,1.754-1.127,2.455-.035.04-.093-.02-.057-.061.557-.639.52-1.555.977-2.25a3.145,3.145,0,0,0,.68-1.134,1.587,1.587,0,0,0-.285-1.031,6.128,6.128,0,0,1-.382-.718,3.033,3.033,0,0,1-.163-.958,2.338,2.338,0,0,0-1.3-2.073c-.048-.023,0-.095.043-.071" transform="translate(-1721.506 -467.77)" fill="#6d2f3b"/>
            <path id="Trazado_1004375" data-name="Trazado 1004375" d="M1986.06,600.936a6.618,6.618,0,0,1-7.072-3.76c-.025-.048.049-.088.073-.04a6.534,6.534,0,0,0,6.978,3.719c.052-.011.073.07.02.081" transform="translate(-1764.68 -532.453)" fill="#6d2f3b"/>
            <path id="Trazado_1004376" data-name="Trazado 1004376" d="M1919.389,508.091a2.959,2.959,0,0,0-2.509-.776c-.969.156-1.409.98-1.771,1.8-.022.049-.093.005-.071-.043.391-.885.875-1.724,1.921-1.851a3.042,3.042,0,0,1,2.491.813c.037.039-.023.1-.061.058" transform="translate(-1707.655 -452.273)" fill="#6d2f3b"/>
            <path id="Trazado_1004377" data-name="Trazado 1004377" d="M1807.308,743.846s7.578-.2,8.917-.158c0,0,3.186,9.382,3.334,12.446a93.13,93.13,0,0,1-9.73-.02s-2.623-11.183-2.521-12.268" transform="translate(-1611.593 -663.148)" fill="#51497a"/>
            <path id="Trazado_1004378" data-name="Trazado 1004378" d="M1878.74,803.318a7.43,7.43,0,0,1-2.726.388c-3.159-1.072-3-1.05-3.6-.819a3.784,3.784,0,0,0-2.241,2.2c.095.163.726-.4.89-.593.314-.378,1.306-.343,1.306-.343a7.365,7.365,0,0,0-1.057.946,5.485,5.485,0,0,0-.723,1.38c.228.245.687-.433,1.188-.938a5.029,5.029,0,0,1,1.475-.7,7.546,7.546,0,0,0-.951.878,3.134,3.134,0,0,0-.559,1.554c.185.155.538-.428,1.005-.906a3.936,3.936,0,0,1,1.338-.66,4.071,4.071,0,0,0-.469.856c-.116.362-.178,1.089-.043,1.067.251-.042.373-.319.608-.895a1.431,1.431,0,0,1,1.491-.49,2.981,2.981,0,0,0,2.361.221c1.12-.473.713-3.141.713-3.141" transform="translate(-1667.641 -715.827)" fill="#fabba5"/>
            <path id="Trazado_1004379" data-name="Trazado 1004379" d="M1853.758,735.124s1.084-.146.784,1.318l-1.94.11.355-.985.4-.408Z" transform="translate(-1651.985 -655.513)" fill="#badbf6"/>
            <path id="Trazado_1004380" data-name="Trazado 1004380" d="M1780.454,735.157a2.164,2.164,0,0,0-.8,2.623c.567,1.843-.892,2.171-.892,2.171l-8.365.775s1.2-1.582.682-2.947.2-1.6,1.269-1.728c1.2-.144,8.107-.9,8.107-.9" transform="translate(-1578.681 -655.547)" fill="#d8ebff"/>
            <path id="Trazado_1004381" data-name="Trazado 1004381" d="M1893.709,579.825a1.428,1.428,0,0,1-.7-.519c-.162-.227-.495-.115-.495-.115v0a.278.278,0,0,0-.2-.168c-.207-.046-.544.2-.561.21a.913.913,0,0,0,.665,1.053c.533.113.975-.331,1.295-.461" transform="translate(-1686.885 -516.315)" fill="#ff6576"/>
            <path id="Trazado_1004382" data-name="Trazado 1004382" d="M1894.81,585.892l-.021-.016a1.383,1.383,0,0,1-.377-.1.438.438,0,0,0-.137-.054.106.106,0,0,0-.118.067.134.134,0,0,0,.061.121.788.788,0,0,0,.428.162.194.194,0,0,0,.163-.036.107.107,0,0,0,0-.142" transform="translate(-1689.038 -522.291)" fill="#ff8a9a"/>
            <path id="Trazado_1004383" data-name="Trazado 1004383" d="M1891.392,580.591a2.711,2.711,0,0,0,2.266.58c.034,0,.019-.057-.014-.052a2.674,2.674,0,0,1-2.214-.567c-.024-.025-.062.013-.038.038" transform="translate(-1686.567 -517.677)" fill="#f64660"/>
            <path id="Trazado_1004384" data-name="Trazado 1004384" d="M659.793,1321.057v.469H657.56l-.257-.907Z" transform="translate(-586.124 -1177.609)" fill="#29274f"/>
            <path id="Trazado_1004385" data-name="Trazado 1004385" d="M659.387,1276.618s.833,2.492,2.1,3.233c1.021.6,2.972.687,3.492,1.874a.4.4,0,0,1-.352.565h-5.239a9.607,9.607,0,0,0-2.806-.418c-.9.135-.857-2.137-.6-2.977a6.664,6.664,0,0,0,.043-2.277Z" transform="translate(-584.802 -1138.373)" fill="#383463"/>
            <path id="Trazado_1004386" data-name="Trazado 1004386" d="M502.276,1321.057v.469h2.233l.257-.907Z" transform="translate(-447.884 -1177.609)" fill="#29274f"/>
            <path id="Trazado_1004387" data-name="Trazado 1004387" d="M447.5,1276.618s-.833,2.492-2.1,3.233c-1.021.6-2.972.687-3.492,1.874a.4.4,0,0,0,.352.565H447.5a9.609,9.609,0,0,1,2.806-.418c.9.135.857-2.137.6-2.977a6.664,6.664,0,0,1-.043-2.277Z" transform="translate(-394.021 -1138.373)" fill="#383463"/>
            <path id="Trazado_1004388" data-name="Trazado 1004388" d="M505.378,878.413a58.453,58.453,0,0,1,1.868,10.52c.149,3.742-.2,11.809-.153,18.057.075,8.99.563,15.224.331,15.509-.406.5-.8.033-2.474.427a2.692,2.692,0,0,1-2.624-.458s-.5-3.413-1.359-9.181c-.308-2.07-.642-4.31-.981-6.577-1.127-7.529-1.642-14.419-2.023-15.218,0,0-1.621,6.044-3.9,14.853-2.643,10.206-4.609,16.263-4.831,17.058a2.978,2.978,0,0,1-2.348-.255c-.593-.255-2.026-.194-2.486-.662-.6-.615,2.244-12.6,3.293-25.4.949-11.586,2.719-16.367,3.58-18.443Z" transform="translate(-431.865 -783.29)" fill="#51497a"/>
            <path id="Trazado_1004389" data-name="Trazado 1004389" d="M607.516,977.04a5.291,5.291,0,0,0-.7,1.623c-.179.634-.343,1.273-.513,1.91a.081.081,0,1,1-.155-.045c.176-.657.343-1.318.53-1.971a5.309,5.309,0,0,1,.7-1.6c.061-.086.2,0,.139.085" transform="translate(-540.507 -871.128)" fill="#383463"/>
            <path id="Trazado_1004390" data-name="Trazado 1004390" d="M641,964.195a4.636,4.636,0,0,0-1.6,1.23l-.078-.141a14.247,14.247,0,0,1,2.24-.379c.1-.009.1.159,0,.168a13.961,13.961,0,0,0-2.2.373.084.084,0,0,1-.078-.141,4.746,4.746,0,0,1,1.635-1.256c.094-.043.176.1.081.146" transform="translate(-570.039 -859.645)" fill="#383463"/>
            <path id="Trazado_1004391" data-name="Trazado 1004391" d="M535.728,969.912l-.129.539c-.025.105-.18.061-.155-.045l.129-.539c.025-.105.18-.061.155.045" transform="translate(-477.459 -864.787)" fill="#383463"/>
            <path id="Trazado_1004392" data-name="Trazado 1004392" d="M529.938,987.365l-.138.807c-.018.106-.173.061-.155-.045l.138-.807c.018-.106.173-.061.155.045" transform="translate(-472.289 -880.349)" fill="#383463"/>
            <path id="Trazado_1004393" data-name="Trazado 1004393" d="M525.274,1013.521l-.132.538a.081.081,0,1,1-.155-.045l.132-.538a.081.081,0,1,1,.155.045" transform="translate(-468.134 -903.673)" fill="#383463"/>
            <path id="Trazado_1004394" data-name="Trazado 1004394" d="M521.524,1038.356l-.143.94c-.016.107-.171.061-.155-.045l.144-.941c.016-.107.171-.062.155.045" transform="translate(-464.781 -925.818)" fill="#383463"/>
            <path id="Trazado_1004395" data-name="Trazado 1004395" d="M519.06,1075.658v1.078a.08.08,0,1,1-.161,0v-1.078a.08.08,0,1,1,.161,0" transform="translate(-462.708 -959.103)" fill="#383463"/>
            <path id="Trazado_1004396" data-name="Trazado 1004396" d="M517.863,1110.475a.515.515,0,0,0-.1.458.081.081,0,1,1-.155.045.7.7,0,0,1,.14-.622c.068-.082.181.038.114.119" transform="translate(-461.537 -990.091)" fill="#383463"/>
            <path id="Trazado_1004397" data-name="Trazado 1004397" d="M505.993,1143.984a5.5,5.5,0,0,0,2.363,1.811c.1.038.054.2-.043.162a5.652,5.652,0,0,1-2.434-1.854c-.064-.084.049-.2.114-.119" transform="translate(-451.081 -1020.076)" fill="#383463"/>
            <path id="Trazado_1004398" data-name="Trazado 1004398" d="M506.595,1148.37l.841,1.478c.053.093-.086.178-.139.085l-.841-1.478c-.053-.093.086-.178.139-.085" transform="translate(-451.602 -1023.977)" fill="#383463"/>
            <path id="Trazado_1004399" data-name="Trazado 1004399" d="M634.022,1151.888l1.434,1.427c.075.075-.039.194-.114.119l-1.434-1.427c-.075-.075.038-.194.114-.119" transform="translate(-565.241 -1027.129)" fill="#383463"/>
            <path id="Trazado_1004400" data-name="Trazado 1004400" d="M641.239,1165.834a9.061,9.061,0,0,1,1.155,2.148c.038.1-.117.145-.155.045a8.9,8.9,0,0,0-1.139-2.108c-.063-.086.077-.17.139-.085" transform="translate(-571.662 -1039.555)" fill="#383463"/>
            <path id="Trazado_1004401" data-name="Trazado 1004401" d="M505.949,1182.69v.3a.08.08,0,1,1-.161,0v-.3a.08.08,0,1,1,.161,0" transform="translate(-451.016 -1054.544)" fill="#383463"/>
            <path id="Trazado_1004402" data-name="Trazado 1004402" d="M503.279,1204.149v.909a.08.08,0,1,1-.161,0v-.909a.08.08,0,1,1,.161,0" transform="translate(-448.636 -1073.679)" fill="#383463"/>
            <path id="Trazado_1004403" data-name="Trazado 1004403" d="M499.747,1226.544a.947.947,0,0,0-.084.541c.015.106-.14.152-.155.045a1.155,1.155,0,0,1,.1-.671c.046-.1.185-.012.139.085" transform="translate(-445.405 -1093.608)" fill="#383463"/>
            <path id="Trazado_1004404" data-name="Trazado 1004404" d="M497.036,1265.729a.578.578,0,0,0-.076.443c.024.105-.131.15-.155.045a.756.756,0,0,1,.092-.573.081.081,0,0,1,.139.085" transform="translate(-442.988 -1128.553)" fill="#383463"/>
            <path id="Trazado_1004405" data-name="Trazado 1004405" d="M533.992,928.912l-.585,1.776q-.152.462-.3.924a.732.732,0,0,1-.333.486,4.168,4.168,0,0,1-1.487.377,5.367,5.367,0,0,1-1.63-.09c-.1-.021-.058-.183.043-.162a5.217,5.217,0,0,0,1.489.093,4.251,4.251,0,0,0,1.488-.356c.251-.123.3-.46.381-.713l.258-.781.527-1.6a.081.081,0,1,1,.155.045" transform="translate(-472.244 -828.228)" fill="#383463"/>
            <path id="Trazado_1004406" data-name="Trazado 1004406" d="M675.236,936.279l.528,2c.042.159.076.324.128.481.066.2.211.253.387.328l.895.377c.095.04.053.2-.043.162-.341-.144-.683-.285-1.022-.431-.282-.121-.345-.29-.424-.586l-.6-2.286a.081.081,0,1,1,.155-.045" transform="translate(-601.974 -834.836)" fill="#383463"/>
            <path id="Trazado_1004407" data-name="Trazado 1004407" d="M515.483,663.224c.066.613.416,2.571.838,4.882.07.382.142.774.215,1.17h0c.71,3.858,1.52,8.2,1.563,8.883.128,2.055-.932,7.24-.976,8.58-.011.335.961.137,2.044.04a22.318,22.318,0,0,1,6.675.7,15,15,0,0,0,8-.1c.681-.2,1.708-.962,1.457-1.627-.1-.269-.242-.632-.4-1.058-.115-.3-.24-.637-.369-.991h0a23.03,23.03,0,0,1-1.454-5.341c-.05-.978,1.98-15.168,1.98-15.168l-1.545-4.235c-7.165-1.785-15.031-.008-15.031-.008a3.7,3.7,0,0,0-2.991,4.27" transform="translate(-459.631 -586.894)" fill="#ffca87"/>
            <path id="Trazado_1004408" data-name="Trazado 1004408" d="M757.629,659.814,756.365,665l3.463.554s-.208-2.043.433-2.563-2.632-3.178-2.632-3.178" transform="translate(-674.458 -588.363)" fill="#fabba5"/>
            <path id="Trazado_1004409" data-name="Trazado 1004409" d="M764.862,659.758s.651-1.845,1.735-2.207,1.674-.182,2.107.251a2.864,2.864,0,0,1,.138,2.691,2.184,2.184,0,0,1-2.317,1.35c-.914-.2-1.663-2.086-1.663-2.086" transform="translate(-682.035 -586.173)" fill="#fabba5"/>
            <path id="Trazado_1004410" data-name="Trazado 1004410" d="M652.2,695.243l6.56.31a25.088,25.088,0,0,0,1.847,5.9c2.48,4.814,3.041,8.029-.17,8.891-2.065.555-3.446-.436-6.15-5.335-3.681-6.668-2.087-9.763-2.087-9.763" transform="translate(-581.267 -619.955)" fill="#ffca87"/>
            <path id="Trazado_1004411" data-name="Trazado 1004411" d="M607.263,636.518s.113.223.316.6c.109.206.245.459.4.748.38.691.888,1.588,1.473,2.548,1.712,2.807,4.08,6.149,5.8,6.436.333.055,4.763.729,3.744-3.667-.7-3.033-2.741-5.354-5.371-5.8-.747-.128-1.554-.25-2.333-.36-1.456-.2-2.818-.367-3.524-.448l-.5-.057" transform="translate(-541.503 -567.589)" fill="#ffca87"/>
            <path id="Trazado_1004412" data-name="Trazado 1004412" d="M437.383,650.658s8.073,1.812,7.081.8c-.7-.719,4.653-6.868,5.735-7.037,1.725-.269,3.512-3.695,4.722-6.561.358-.849.665-1.648.9-2.3.1-.281.194-.535.27-.755s.139-.4.188-.547c.072-.217.111-.339.111-.339s-1.424.349-3.244.721c-.7.144-1.47.292-2.234.425-2.63.456-5.575,1.628-6.842,4.471-1.627,3.652-5.945,7.187-6.692,11.122" transform="translate(-390.019 -565.271)" fill="#ffca87"/>
            <path id="Trazado_1004413" data-name="Trazado 1004413" d="M583.56,592.635a1.1,1.1,0,0,0,.847-.9c.158-.917.354-2.144.483-3.292a7.664,7.664,0,0,0-.284-1.494c.035.01,4.813,1.4,4.23,2.868-.026.066-.05.135-.071.207a5.99,5.99,0,0,0-.189,1.654,9.205,9.205,0,0,0,.059,1.007c.328.043.669.09,1.016.138a3.584,3.584,0,0,1,.082,1.016,2.642,2.642,0,0,1-1.917,2.378,5.325,5.325,0,0,1-.72.214,2.684,2.684,0,0,1-2.333-.453,4.858,4.858,0,0,1-1.455-2.185,9.249,9.249,0,0,1-.315-1.035l.566-.118" transform="translate(-519.862 -523.384)" fill="#fabba5"/>
            <path id="Trazado_1004414" data-name="Trazado 1004414" d="M599.233,599.356c.029.218-.062,1.03-.06,1.28,1.078,2.195,3.791,2.085,3.83,2.1a5.987,5.987,0,0,1,.189-1.654c-1.074-.537-3.349-1.819-3.959-1.726" transform="translate(-534.289 -534.448)" fill="#ed938b"/>
            <path id="Trazado_1004415" data-name="Trazado 1004415" d="M582.883,642.361a3.932,3.932,0,0,1-2.444,4.362,4.267,4.267,0,0,1-5.074-1.343,6.44,6.44,0,0,1-.822-2.977c0-.054.076-.054.08,0a6.9,6.9,0,0,0,.613,2.581,3.316,3.316,0,0,0,2.063,1.738,4.344,4.344,0,0,0,4.885-1.466,3.729,3.729,0,0,0,.621-2.871c-.011-.053.066-.075.077-.022" transform="translate(-512.326 -572.773)" fill="#ffa468"/>
            <path id="Trazado_1004416" data-name="Trazado 1004416" d="M546.614,827.866c-.97-.12-2.377,1.826-3.224,2.139l-1.441-.439-1.022,2.688,1.961.517a3.975,3.975,0,0,0,.749.225c1.657.2,2.114-.924,2.676-.978.163-.016,1.175.11,1.25-.152.042-.147-.935-.461-1.409-.663a.067.067,0,0,1,0-.126c.675-.191,2.049.024,2.143-.366a5.017,5.017,0,0,0-1.223-.51,3.09,3.09,0,0,0-1.129-.027.028.028,0,0,1-.016-.053,3.44,3.44,0,0,1,1.007-.288c.441-.042,1.6-.018,1.843-.452.1-.181-1.368-.264-1.953-.367a1.037,1.037,0,0,0-.349.016.023.023,0,0,1-.014-.043,2.372,2.372,0,0,1,.459-.187c.738-.115,1.7-.141,1.866-.637a11.746,11.746,0,0,0-2.178-.3" transform="translate(-482.35 -738.211)" fill="#fabba5"/>
            <path id="Trazado_1004417" data-name="Trazado 1004417" d="M449.048,788.335a45.925,45.925,0,0,1-7.94-3.925,8.044,8.044,0,0,1-3.747-5.811.67.67,0,0,1,.444-.692c1.057-.372,3.811-1.121,5.559.429,2.2,1.95,2.815,3.139,4.563,4.533,1.053.839,2.767,1.294,2.866,1.753s-.684,1.046-.653,1.619-.705,2.218-1.092,2.094" transform="translate(-389.997 -693.212)" fill="#ffca87"/>
            <path id="Trazado_1004418" data-name="Trazado 1004418" d="M715.587,700.029a35.8,35.8,0,0,1-2.28,8.559c-2.2,4.912-3.844,5.127-4.831,5.257-.3.04-.734-.472-.891-.735-.574-.963-1.851-3.515-.677-5.534,1.477-2.541,2.521-3.379,3.542-5.368.615-1.2.723-2.968,1.153-3.156s1.16.464,1.716.32,2.313.253,2.269.657" transform="translate(-629.929 -623.321)" fill="#ffca87"/>
            <path id="Trazado_1004419" data-name="Trazado 1004419" d="M479.143,787.872a4.366,4.366,0,0,0-2.869-.689,4.606,4.606,0,0,1,2.965-.048s-.28.447-.1.738" transform="translate(-424.698 -701.685)" fill="#ffa468"/>
            <path id="Trazado_1004420" data-name="Trazado 1004420" d="M525.165,743.99s.873-1.554,1.727-1.782-.7.711-.864,1.782a5.094,5.094,0,0,1-.532,1.808c-.014-.088-.332-1.808-.332-1.808" transform="translate(-468.295 -661.803)" fill="#ffa468"/>
            <path id="Trazado_1004421" data-name="Trazado 1004421" d="M711.19,743.788s-2.146,2.143-2.18,4.187c0,0-1.107-2.53,1.923-4.78Z" transform="translate(-632.055 -662.714)" fill="#ffa468"/>
            <path id="Trazado_1004422" data-name="Trazado 1004422" d="M847.762,789.086a.5.5,0,0,0,.013.214.015.015,0,0,0,.029-.008.463.463,0,0,1-.013-.2c0-.019-.026-.027-.029-.008" transform="translate(-755.953 -703.626)" fill="#dc826f"/>
            <path id="Trazado_1004423" data-name="Trazado 1004423" d="M778.34,654.048c.88-.244,1.234-.162,1.355.272s-.059.564-.939.808-1.857.435-1.978,0,.682-.836,1.562-1.08" transform="translate(-692.65 -583.1)" fill="#ffccbc"/>
            <path id="Trazado_1004424" data-name="Trazado 1004424" d="M776.737,663.3c1.077-.3,1.5-.236,1.621.2s-.1.577-1.181.875-2.268.549-2.389.114.872-.889,1.949-1.188" transform="translate(-690.878 -591.311)" fill="#ffccbc"/>
            <path id="Trazado_1004425" data-name="Trazado 1004425" d="M778.813,671.953c1.022-.283,1.426-.216,1.547.219s-.092.573-1.114.857-2.154.517-2.274.083.819-.874,1.841-1.158" transform="translate(-692.825 -599.035)" fill="#ffccbc"/>
            <path id="Trazado_1004426" data-name="Trazado 1004426" d="M785.731,680.487c.734-.2,1.031-.132,1.134.238s-.047.48-.781.684-1.55.361-1.653-.009.566-.709,1.3-.913" transform="translate(-699.476 -606.697)" fill="#ffccbc"/>
            <path id="Trazado_1004427" data-name="Trazado 1004427" d="M783.959,663.619l1.8-.413c.057-.013.033-.1-.024-.087l-1.8.413c-.057.013-.033.1.024.087" transform="translate(-699.014 -591.309)" fill="#eea490"/>
            <path id="Trazado_1004428" data-name="Trazado 1004428" d="M781.5,672.294a17.4,17.4,0,0,0,2.52-.634c.055-.018.031-.105-.024-.087a17.417,17.417,0,0,1-2.52.635c-.057.01-.033.1.024.087" transform="translate(-696.825 -598.845)" fill="#eea490"/>
            <path id="Trazado_1004429" data-name="Trazado 1004429" d="M785.646,681.2a12.58,12.58,0,0,0,2.035-.544c.054-.02.031-.107-.024-.087a12.586,12.586,0,0,1-2.035.544c-.057.01-.033.1.024.087" transform="translate(-700.518 -606.865)" fill="#eea490"/>
            <path id="Trazado_1004430" data-name="Trazado 1004430" d="M607.555,504.346a1.916,1.916,0,0,0-1.794-3.1c-1.235.187-2.5,1.569-3.791.781-.043-.027,0-.095.04-.068.869.532,1.839-.016,2.641-.405a2.653,2.653,0,0,1,2.012-.312,2.016,2.016,0,0,1,.96,3.14c-.03.04-.1,0-.068-.04" transform="translate(-536.766 -446.883)" fill="#6d2f3b"/>
            <path id="Trazado_1004431" data-name="Trazado 1004431" d="M601.607,533.1a1.471,1.471,0,0,0-1.16-.036,1.567,1.567,0,0,1,.849.241c.4.263.311-.2.311-.2" transform="translate(-535.425 -475.246)" fill="#2d2b4e"/>
            <path id="Trazado_1004432" data-name="Trazado 1004432" d="M587.933,586.759c.073.019.448.116.955.276-.025-.267-.841-.261-.955-.276" transform="translate(-524.266 -523.219)" fill="#fabba5"/>
            <path id="Trazado_1004433" data-name="Trazado 1004433" d="M590.358,537.67c.213.607,2.427,1.05,3.311,1.123a3.252,3.252,0,0,0,1.963-.192,6.305,6.305,0,0,0,1.227-4.072,7.833,7.833,0,0,1-.068-1.984,7.627,7.627,0,0,0-.713-3.065c-3.413-2.289-6.265,1.123-6.481,2.418a12.213,12.213,0,0,0,.76,5.771" transform="translate(-525.667 -471.455)" fill="#fabba5"/>
            <path id="Trazado_1004434" data-name="Trazado 1004434" d="M608.631,556.754c-.169.031-.19-.1-.047-.2a1.926,1.926,0,0,1,1.8-.189c.979.251.914.8.356.729a4.065,4.065,0,0,0-2.112-.341" transform="translate(-542.596 -496.009)" fill="#752d4b"/>
            <path id="Trazado_1004435" data-name="Trazado 1004435" d="M645.3,556.744c.091.015.1-.285.02-.361-.18-.18-.486-.31-.971-.021-.532.317-.473.662-.17.55a1.741,1.741,0,0,1,1.12-.168" transform="translate(-574.216 -495.962)" fill="#752d4b"/>
            <path id="Trazado_1004436" data-name="Trazado 1004436" d="M614.505,567.152a.407.407,0,1,0,.755-.221,1.436,1.436,0,0,0-.58-.061c-.08.058-.144.085-.166.184a.406.406,0,0,0-.009.1" transform="translate(-547.96 -505.481)" fill="#752d4b"/>
            <path id="Trazado_1004437" data-name="Trazado 1004437" d="M610.464,566.53c-.06.17.333-.427,1.277-.267a1.631,1.631,0,0,1,.654.311c.068.05.071-.031.009-.088a1.262,1.262,0,0,0-.819-.393,1.408,1.408,0,0,0-1.121.437" transform="translate(-544.352 -504.787)" fill="#752d4b"/>
            <path id="Trazado_1004438" data-name="Trazado 1004438" d="M636.9,565.249a.81.81,0,0,0-.4.766,1.632,1.632,0,0,0,.4.914c.138.18.475.455.36.717a.539.539,0,0,1-.288.226,2.2,2.2,0,0,1-.471.159c-.048.011-.07-.063-.022-.073a2.1,2.1,0,0,0,.526-.187c.139-.073.242-.17.173-.341a.912.912,0,0,0-.161-.234,2.928,2.928,0,0,1-.5-.752.98.98,0,0,1,.344-1.259c.044-.022.084.043.04.065" transform="translate(-567.504 -503.976)" fill="#cf8171"/>
            <path id="Trazado_1004439" data-name="Trazado 1004439" d="M634.534,608.178a1.179,1.179,0,0,0-.777,0c-.094.032-.138-.115-.044-.147a1.319,1.319,0,0,1,.859-.005c.093.031.057.18-.037.149" transform="translate(-565.042 -542.124)" fill="#ef9f8a"/>
            <path id="Trazado_1004440" data-name="Trazado 1004440" d="M568.223,512.259a4.614,4.614,0,0,0,2.32,2.467c-.192-1.03-.324-3.169-.073-3.171s.953.752.878.373a1.925,1.925,0,0,1,.013-1.759,2.228,2.228,0,0,0,.027-1.826l.011,0,.007,0a2.059,2.059,0,0,0,.3.093h0a5.247,5.247,0,0,0,1.046.115,10.471,10.471,0,0,0,1.06-.031c.382-.03.756-.078,1.092-.137a6.253,6.253,0,0,0,.825-.2,2.526,2.526,0,0,1,.364-.092,1.507,1.507,0,0,1,.23-.023c.482-.008.547.282.547.282a2.266,2.266,0,0,0,.356-2.289,2.142,2.142,0,0,0-2.775-1.537,4.648,4.648,0,0,1-2.556.369c-3.232-.2-3.126,1.994-3.126,1.994-1.553.941-1.059,3.712-.553,5.361" transform="translate(-506.248 -449.803)" fill="#6d2f3b"/>
            <path id="Trazado_1004441" data-name="Trazado 1004441" d="M584.994,570.166s-.8-1.168-1.513-.613.054,1.531.342,1.9c.309.4.482.4,1.005.256s.165-1.547.165-1.547" transform="translate(-520.034 -507.742)" fill="#fabba5"/>
            <path id="Trazado_1004442" data-name="Trazado 1004442" d="M584.877,571.587a.562.562,0,0,1-.825.113,1.566,1.566,0,0,1-.38-.437,3.874,3.874,0,0,1-.339-.609.951.951,0,0,1,.113-1.127.8.8,0,0,1,1.078.13c.037.038-.02.1-.057.06a.716.716,0,0,0-1-.1c-.3.286-.167.771-.012,1.1a3.021,3.021,0,0,0,.528.81c.212.214.646.353.827.019a.041.041,0,0,1,.072.04" transform="translate(-520.049 -507.716)" fill="#ef9f8a"/>
            <path id="Trazado_1004443" data-name="Trazado 1004443" d="M590.064,572.827a.61.61,0,0,1,.317.228.421.421,0,0,1,.02.382c-.07.266.2.313.336.478a.274.274,0,0,1,.042.318.041.041,0,0,1-.072-.04c.14-.253-.355-.385-.4-.613-.021-.1.03-.161.051-.25.05-.212-.135-.356-.309-.422-.049-.018-.03-.1.02-.08" transform="translate(-526.123 -510.793)" fill="#ef9f8a"/>
            <path id="Trazado_1004444" data-name="Trazado 1004444" d="M624.7,594.24a.993.993,0,0,0,.355.5,1.324,1.324,0,0,0,.921.357,1.232,1.232,0,0,0,.582-.191.94.94,0,0,0,.446-.592.288.288,0,0,0,0-.084.031.031,0,0,0-.007-.018c-.015-.025-.06-.032-.1-.038-.151-.023-.425.055-.868.082-.295.018-.794-.082-1.093-.1-.041,0-.08,0-.114,0-.072,0-.123.012-.127.044a.08.08,0,0,0,0,.034" transform="translate(-557.045 -529.819)" fill="#e33b58"/>
            <path id="Trazado_1004445" data-name="Trazado 1004445" d="M625.879,594.164a1.807,1.807,0,0,0,2.173.069.089.089,0,0,0,0-.015c-.016-.025-.06-.032-.1-.038-.15-.023-.424.055-.868.082-.295.018-.794-.082-1.092-.1-.041,0-.08,0-.114,0" transform="translate(-558.103 -529.821)" fill="#fff"/>
            <path id="Trazado_1004446" data-name="Trazado 1004446" d="M627.99,598.588a1.325,1.325,0,0,0,.921.357,1.232,1.232,0,0,0,.582-.191,2.306,2.306,0,0,0-1.073-.279,1.121,1.121,0,0,0-.43.112" transform="translate(-559.985 -533.662)" fill="#ff6576"/>
            <path id="Trazado_1004447" data-name="Trazado 1004447" d="M631.33,504.919a2.421,2.421,0,0,1,2.176.433,1.671,1.671,0,0,1,.468,1.921c-.02.047-.088.006-.068-.04a1.6,1.6,0,0,0-.565-1.912,2.374,2.374,0,0,0-1.99-.326c-.049.012-.071-.065-.021-.076" transform="translate(-562.938 -450.167)" fill="#6d2f3b"/>
            <path id="Trazado_1004448" data-name="Trazado 1004448" d="M576.062,517.221a1.881,1.881,0,0,0,.286,1.349c.028.043-.041.082-.068.04a1.965,1.965,0,0,1-.294-1.41c.008-.05.084-.029.076.021" transform="translate(-513.588 -461.167)" fill="#6d2f3b"/>
            <path id="Trazado_1004449" data-name="Trazado 1004449" d="M570.134,526.242a3.789,3.789,0,0,0-1.061.527c-.042.029-.081-.039-.04-.068a3.864,3.864,0,0,1,1.08-.535c.049-.015.069.061.021.076" transform="translate(-507.398 -469.185)" fill="#6d2f3b"/>
            <path id="Trazado_1004450" data-name="Trazado 1004450" d="M623.352,517.643c.732-.17.814-1.194.683-1.8-.163-.754-.888-.922-1.557-.943-.051,0-.051-.081,0-.079.763.024,1.52.257,1.653,1.108.1.632-.007,1.615-.757,1.79-.049.011-.071-.065-.021-.076" transform="translate(-555.036 -459.072)" fill="#7a3a49"/>
            <path id="Trazado_1004451" data-name="Trazado 1004451" d="M622.033,523.974a1.768,1.768,0,0,1,.911.8,1.378,1.378,0,0,1,.037,1.048c-.017.048-.093.027-.076-.021a1.3,1.3,0,0,0-.069-1.068,1.779,1.779,0,0,0-.842-.691c-.046-.022-.006-.091.04-.068" transform="translate(-554.62 -467.229)" fill="#7a3a49"/>
            <path id="Trazado_1004452" data-name="Trazado 1004452" d="M587.838,530.841a6.946,6.946,0,0,1-1.593-1.071c-.038-.034.018-.09.056-.056a6.864,6.864,0,0,0,1.577,1.058c.046.022.006.09-.04.068" transform="translate(-522.75 -472.342)" fill="#7a3a49"/>
            <path id="Trazado_1004453" data-name="Trazado 1004453" d="M644.031,566.505a.941.941,0,0,1,.581-.374.415.415,0,0,1,.168.022,2.648,2.648,0,0,1,.359.233c.048.03-.565-.835-1.062-.039-.017.027-.034.056-.051.087s-.037.071-.055.111c-.044.1-.017.05.06-.04" transform="translate(-574.217 -504.716)" fill="#752d4b"/>
            <path id="Trazado_1004454" data-name="Trazado 1004454" d="M644.647,567.172a.415.415,0,0,0,.005.071.256.256,0,0,0,.1.172.4.4,0,0,0,.319.053.432.432,0,0,0,.232-.159.334.334,0,0,0,0-.36c-.024-.03-.048-.059-.065-.08l-.026-.032-.279.054-.159.1-.062.081-.01.009c-.017.027-.034.056-.051.088" transform="translate(-574.838 -505.454)" fill="#752d4b"/>
            <path id="Trazado_1004455" data-name="Trazado 1004455" d="M767.183,397.735l-3.7.341-3.63.334,1.315-8.524.119-.773.864-5.593L764.3,389.6Z" transform="translate(-677.567 -341.987)" fill="#fff"/>
            <path id="Trazado_1004456" data-name="Trazado 1004456" d="M763.48,444.134l-3.63.334,1.315-8.524.119-.774h1.367s-.026.227-.055.621a21.483,21.483,0,0,0,.884,8.343" transform="translate(-677.566 -388.045)" fill="#cfe6ff"/>
            <path id="Trazado_1004457" data-name="Trazado 1004457" d="M775.408,602.293l-7.333.675-8.228-87.495,7.333-.675Z" transform="translate(-677.564 -459.051)" fill="#ff6576"/>
            <path id="Trazado_1004458" data-name="Trazado 1004458" d="M789.19,603.912l-3.522.324-8.228-87.495,3.522-.324Z" transform="translate(-693.251 -460.494)" fill="#fb4b63"/>
            <path id="Trazado_1004459" data-name="Trazado 1004459" d="M775.126,400.237l-3.135.288.773-5.011.667-.064Z" transform="translate(-688.392 -352.627)" fill="#51497a"/>
            <path id="Trazado_1004460" data-name="Trazado 1004460" d="M757.731,656.256a6.486,6.486,0,0,1-.255-2.529c.273-.558,1.075-1.621,1.68-1.718.846-.134,2.15-.42,2.054-.046a1.8,1.8,0,0,1-1.439,1.091c-.262-.014-.222.712-.369.909a4.911,4.911,0,0,0-.858,2.128Z" transform="translate(-675.379 -581.197)" fill="#fabba5"/>
            <g id="Grupo_1180436" data-name="Grupo 1180436" transform="translate(69.768 96.814)" opacity="0.6">
              <g id="Grupo_1180435" data-name="Grupo 1180435">
                <g id="Grupo_1180434" data-name="Grupo 1180434" clip-path="url(#clip-path-10)">
                  <path id="Trazado_1004461" data-name="Trazado 1004461" d="M644.273,896.079a10.053,10.053,0,0,0,5.493-1.067c-.115-.3-.24-.636-.369-.991-.636,1.2-5.124,2.057-5.124,2.057" transform="translate(-644.273 -894.022)" fill="#ffa468"/>
                </g>
              </g>
            </g>
            <path id="Trazado_1004462" data-name="Trazado 1004462" d="M594.774,889.949s-3.462.708-5.3-.965a7.352,7.352,0,0,0,3.178.837c1.394-.1,2.313-.13,2.119.128" transform="translate(-525.643 -792.716)" fill="#ffa468"/>
            <g id="Grupo_1180439" data-name="Grupo 1180439" transform="translate(66.086 95.461)" opacity="0.6">
              <g id="Grupo_1180438" data-name="Grupo 1180438">
                <g id="Grupo_1180437" data-name="Grupo 1180437" clip-path="url(#clip-path-11)">
                  <path id="Trazado_1004463" data-name="Trazado 1004463" d="M612.711,882.056a5.816,5.816,0,0,1-2.438.572,5.367,5.367,0,0,0,2.106-.9c.486-.548.689.176.332.324" transform="translate(-610.273 -881.53)" fill="#ffa468"/>
                </g>
              </g>
            </g>
            <path id="Trazado_1004464" data-name="Trazado 1004464" d="M537.608,829.6a4.756,4.756,0,0,0,1.335.843c.193.086.391.162.587.242.276.112.509.224.491.58-.005.11-.154.285-.2.382a4.865,4.865,0,0,0-.437,1.423,2.939,2.939,0,0,1-.245.934c-.239.444-.8.778-1.244.371-.063-.059-.159.036-.095.095a.854.854,0,0,0,1.178-.024c.58-.524.48-1.427.7-2.11.121-.374.443-.755.525-1.129a.372.372,0,0,0-.12-.409,3.793,3.793,0,0,0-1.068-.471,4.627,4.627,0,0,1-1.308-.822c-.063-.059-.159.036-.095.095" transform="translate(-479.372 -739.659)" fill="#ffa468"/>
            <path id="Trazado_1004465" data-name="Trazado 1004465" d="M526.9,738.808c.855-.882,1.616-1.851,2.917-2,.085-.01.086-.144,0-.134-1.351.155-2.118,1.118-3.012,2.04-.06.062.035.157.095.095" transform="translate(-469.743 -656.898)" fill="#ffa468"/>
            <path id="Trazado_1004466" data-name="Trazado 1004466" d="M682.313,723.84a54.568,54.568,0,0,1-.872,8.942c-.015.084.114.121.13.036a54.8,54.8,0,0,0,.877-8.977.067.067,0,0,0-.134,0" transform="translate(-607.647 -645.398)" fill="#ffa468"/>
            <path id="Trazado_1004467" data-name="Trazado 1004467" d="M711.715,748.336a6.844,6.844,0,0,0-2.188,6.254c.015.085.145.049.129-.036a6.709,6.709,0,0,1,2.154-6.123c.063-.059-.032-.154-.095-.1" transform="translate(-632.597 -667.281)" fill="#ffa468"/>
            <path id="Trazado_1004468" data-name="Trazado 1004468" d="M475.361,789.151a4.906,4.906,0,0,0-3.262-.575c-.085.014-.049.143.036.129a4.756,4.756,0,0,1,3.159.562.067.067,0,0,0,.068-.116" transform="translate(-420.932 -703.119)" fill="#ffa468"/>
            <path id="Trazado_1004469" data-name="Trazado 1004469" d="M688.783,728.263a12.242,12.242,0,0,0,.768-1.513c.033-.079-.082-.147-.116-.068a12.236,12.236,0,0,1-.768,1.513.067.067,0,0,0,.116.068" transform="translate(-614.083 -647.958)" fill="#ffa468"/>
            <path id="Trazado_1004470" data-name="Trazado 1004470" d="M1105.725,338.227h-40.492a.852.852,0,1,1,0-1.7h40.492a.852.852,0,0,1,0,1.7" transform="translate(-949.12 -300.082)" fill="#75acf2"/>
            <path id="Trazado_1004471" data-name="Trazado 1004471" d="M1083.125,376.844h-46.74a.852.852,0,1,1,0-1.7h46.74a.852.852,0,1,1,0,1.7" transform="translate(-923.396 -334.517)" fill="#75acf2"/>
            <path id="Trazado_1004472" data-name="Trazado 1004472" d="M965.514,509.649H926.543a.854.854,0,0,1,0-1.707h38.971a.854.854,0,1,1,0,1.707" transform="translate(-825.447 -452.937)" fill="#cfe6ff"/>
            <path id="Trazado_1004473" data-name="Trazado 1004473" d="M1356.488,509.649h-27.038a.854.854,0,0,1,0-1.707h27.038a.854.854,0,0,1,0,1.707" transform="translate(-1184.724 -452.937)" fill="#cfe6ff"/>
            <path id="Trazado_1004474" data-name="Trazado 1004474" d="M953.963,453.98H926.543a.854.854,0,0,1,0-1.707h27.419a.854.854,0,0,1,0,1.707" transform="translate(-825.447 -403.296)" fill="#cfe6ff"/>
            <path id="Trazado_1004475" data-name="Trazado 1004475" d="M1245.917,453.98h-21.2a.854.854,0,0,1,0-1.707h21.2a.854.854,0,0,1,0,1.707" transform="translate(-1091.331 -403.296)" fill="#cfe6ff"/>
            <path id="Trazado_1004476" data-name="Trazado 1004476" d="M1471.776,453.98h-13.037a.854.854,0,0,1,0-1.707h13.037a.854.854,0,0,1,0,1.707" transform="translate(-1300.011 -403.296)" fill="#cfe6ff"/>
            <path id="Trazado_1004477" data-name="Trazado 1004477" d="M953.963,565.317H926.543a.854.854,0,0,1,0-1.707h27.419a.854.854,0,0,1,0,1.707" transform="translate(-825.447 -502.576)" fill="#cfe6ff"/>
            <path id="Trazado_1004478" data-name="Trazado 1004478" d="M1245.917,565.317h-21.2a.854.854,0,0,1,0-1.707h21.2a.854.854,0,0,1,0,1.707" transform="translate(-1091.331 -502.576)" fill="#cfe6ff"/>
            <path id="Trazado_1004479" data-name="Trazado 1004479" d="M1471.776,565.317h-13.037a.854.854,0,0,1,0-1.707h13.037a.854.854,0,0,1,0,1.707" transform="translate(-1300.011 -502.576)" fill="#cfe6ff"/>
            <path id="Trazado_1004480" data-name="Trazado 1004480" d="M957.543,678.286H926.529a.841.841,0,0,1-.839-.839v-.029a.841.841,0,0,1,.839-.839h31.014a.841.841,0,0,1,.839.839v.029a.841.841,0,0,1-.839.839" transform="translate(-825.447 -603.312)" fill="#cfe6ff"/>
            <path id="Trazado_1004481" data-name="Trazado 1004481" d="M953.963,622.618H926.543a.854.854,0,0,1,0-1.707h27.419a.854.854,0,0,1,0,1.707" transform="translate(-825.447 -553.672)" fill="#cfe6ff"/>
            <path id="Trazado_1004482" data-name="Trazado 1004482" d="M1245.917,622.618h-21.2a.854.854,0,0,1,0-1.707h21.2a.854.854,0,0,1,0,1.707" transform="translate(-1091.331 -553.672)" fill="#cfe6ff"/>
            <path id="Trazado_1004483" data-name="Trazado 1004483" d="M1471.776,622.618h-13.037a.854.854,0,0,1,0-1.707h13.037a.854.854,0,0,1,0,1.707" transform="translate(-1300.011 -553.672)" fill="#cfe6ff"/>
            <path id="Trazado_1004484" data-name="Trazado 1004484" d="M928.975,796.36h22.006a.661.661,0,0,0,0-1.323H928.975a.661.661,0,0,0,0,1.323" transform="translate(-827.787 -708.942)" fill="#cfe6ff"/>
            <path id="Trazado_1004485" data-name="Trazado 1004485" d="M928.975,882.869h22.006a.661.661,0,0,0,0-1.323H928.975a.661.661,0,0,0,0,1.323" transform="translate(-827.787 -786.083)" fill="#cfe6ff"/>
            <path id="Trazado_1004486" data-name="Trazado 1004486" d="M928.975,753.224h10.644a.661.661,0,1,0,0-1.323H928.975a.661.661,0,0,0,0,1.323" transform="translate(-827.787 -670.477)" fill="#cfe6ff"/>
            <path id="Trazado_1004487" data-name="Trazado 1004487" d="M928.975,839.495h10.644a.663.663,0,0,0,.661-.661h0a.663.663,0,0,0-.661-.661H928.975a.661.661,0,0,0,0,1.323" transform="translate(-827.787 -747.406)" fill="#cfe6ff"/>
            <path id="Trazado_1004488" data-name="Trazado 1004488" d="M928.975,925.328h10.644a.661.661,0,1,0,0-1.323H928.975a.663.663,0,0,0-.661.661h0a.663.663,0,0,0,.661.661" transform="translate(-827.787 -823.944)" fill="#cfe6ff"/>
            <rect id="Rectángulo_455861" data-name="Rectángulo 455861" width="28.753" height="13.336" transform="translate(119.637 116.182)" fill="#cfe6ff"/>
            <path id="Trazado_1004489" data-name="Trazado 1004489" d="M1021.376,865.173c-1.392,2.768-2.709,5.575-4.1,8.6-1.082,2.348-2.072,4.8-3.262,7.585-3.745,8.765-6.957,14.411-7.213,14.926-.031.057-.6,1.086-.728,1.312a.973.973,0,0,1,.2.007c2.207.3,4.6,7.829,1.171,10.737h0a13.458,13.458,0,0,1-1.117.75c-13.587-.018-16.685-.023-31.724-.04,1.17-5.077,2.748-15.7,3.894-19.358,2.791-8.92,3.186-14.233,6.163-15.215,1.391-.459,2.751-.807,4.065.84.333.417,1.589-1.514,3.846-1.283,3.955.4,3.148,2.865,3.734,3.779a.24.24,0,0,0,.137.115h0c.6.152,1.856-3.134,4.241-3.208,4.841-.151,3.982,4.066,4.4,4.781.77,1.339,8.308-13.951,12.956-19.958,2.426-3.136,6.73-1.127,3.333,5.631" transform="translate(-869.065 -765.173)" fill="#fdbaa0"/>
            <path id="Trazado_1004490" data-name="Trazado 1004490" d="M1377.2,864.015s-.59,2.724-1.647,3.194-2.805-.616-2.825-1.147a9.273,9.273,0,0,1,1.89-3.206,3.936,3.936,0,0,1,2.583,1.159" transform="translate(-1224.072 -769.401)" fill="#ffc6b2"/>
            <path id="Trazado_1004491" data-name="Trazado 1004491" d="M1244.227,1216.261a32.989,32.989,0,0,0-2.877,5.181c-.044.1-.191.013-.147-.086a33,33,0,0,1,2.877-5.181c.061-.09.209-.005.147.086" transform="translate(-1106.786 -1084.441)" fill="#f18e7b"/>
            <path id="Trazado_1004492" data-name="Trazado 1004492" d="M1167.843,1108.1a30.162,30.162,0,0,0-2.946,3.559,10.009,10.009,0,0,0-1.578,3.124c-.638,2.736-1.259,3.942-4.518,8.068-1.2,1.519-3.829,5.747-5.047,6.871q-.194.18-.387.347c-2.237,0,.4,0-15.632-.02a7.465,7.465,0,0,1,3.094-6.6c4.114-3.195,8.706-4.871,11.228-5.98h0l.212-.095c1.593-.713,1.588-.916,1.761-1.2a24.589,24.589,0,0,1,3.981-4.8,21.119,21.119,0,0,1,2.682-3.249,7.652,7.652,0,0,1,3.218-2.056c2.919-.7,4.841,1.044,3.931,2.028" transform="translate(-1014.504 -986.153)" fill="#fdbaa0"/>
            <path id="Trazado_1004493" data-name="Trazado 1004493" d="M1251.185,1191.717a62.538,62.538,0,0,0-3.555,8.231c-.032.091-.178.052-.146-.04a62.783,62.783,0,0,1,3.57-8.267c.045-.086.176-.01.131.077" transform="translate(-1112.39 -1062.564)" fill="#f18e7b"/>
            <path id="Trazado_1004494" data-name="Trazado 1004494" d="M1325.932,1155.473a3.532,3.532,0,0,1,1.292.291c.089.038.012.169-.076.131a3.334,3.334,0,0,0-1.216-.271c-.1,0-.1-.155,0-.151" transform="translate(-1182.282 -1030.347)" fill="#f18e7b"/>
            <path id="Trazado_1004495" data-name="Trazado 1004495" d="M1327.045,1156.332a3.091,3.091,0,0,1,.485.484c.06.075-.046.183-.107.107a3.087,3.087,0,0,0-.485-.484c-.076-.061.031-.167.107-.107" transform="translate(-1183.221 -1031.097)" fill="#f18e7b"/>
            <path id="Trazado_1004496" data-name="Trazado 1004496" d="M1281.35,1204.782a1.814,1.814,0,0,1,.886-.32c.1-.009.1.143,0,.151a1.662,1.662,0,0,0-.81.3c-.08.056-.156-.075-.076-.131" transform="translate(-1142.563 -1074.031)" fill="#f18e7b"/>
            <path id="Trazado_1004497" data-name="Trazado 1004497" d="M1249.963,1050.593l-1.542,1.606c-.068.07-.175-.037-.107-.107l1.542-1.606c.068-.07.175.037.107.107" transform="translate(-1113.115 -936.708)" fill="#f18e7b"/>
            <path id="Trazado_1004498" data-name="Trazado 1004498" d="M1170.64,1038.561a2.645,2.645,0,0,1-1.234.534c-.1.015-.136-.131-.04-.146a2.5,2.5,0,0,0,1.167-.495c.076-.059.184.047.107.107" transform="translate(-1042.687 -925.984)" fill="#f18e7b"/>
            <path id="Trazado_1004499" data-name="Trazado 1004499" d="M1097.846,1013.876a2.864,2.864,0,0,1-1.466.865c-.095.022-.135-.123-.04-.146a2.723,2.723,0,0,0,1.4-.826c.066-.072.172.035.107.107" transform="translate(-977.569 -903.966)" fill="#f18e7b"/>
            <path id="Trazado_1004500" data-name="Trazado 1004500" d="M1382.065,1123.359a1.469,1.469,0,0,0,.729,1.147c1.977-1.8,3.013-3.4,2.944-3.555l0,0s-.527-.98-1.214-.5-2.422,2.059-2.462,2.906" transform="translate(-1232.401 -998.999)" fill="#ffc6b2"/>
            <path id="Trazado_1004501" data-name="Trazado 1004501" d="M1327.8,988.681a5.011,5.011,0,0,0-2.269-.984c-.1-.016-.055-.162.04-.146a5.1,5.1,0,0,1,2.305,1c.076.059,0,.19-.077.131" transform="translate(-1181.942 -880.608)" fill="#f18e7b"/>
            <path id="Trazado_1004502" data-name="Trazado 1004502" d="M1330.766,997.423l-.723-.254c-.091-.032-.052-.178.04-.146l.723.254c.091.032.052.178-.04.146" transform="translate(-1185.967 -889.051)" fill="#f18e7b"/>
            <g id="Grupo_1180442" data-name="Grupo 1180442" transform="translate(139.429 119.76)" opacity="0.5">
              <g id="Grupo_1180441" data-name="Grupo 1180441">
                <g id="Grupo_1180440" data-name="Grupo 1180440" clip-path="url(#clip-path-12)">
                  <path id="Trazado_1004503" data-name="Trazado 1004503" d="M1287.559,1116.351c1.172.324,5.671-4.224,7.383-6.981s5.621-3.114,5.621-3.114a4.731,4.731,0,0,0-3.024-.181c-2.908.7-5.9,5.305-5.9,5.305a24.208,24.208,0,0,0-4.079,4.971" transform="translate(-1287.559 -1105.915)" fill="#f07b7e"/>
                </g>
              </g>
            </g>
          </g>
        </g>
      </g>
    </g>
  </g>
</svg>
