<svg xmlns="http://www.w3.org/2000/svg" width="128" height="128" viewBox="0 0 128 128">
  <g id="Grupo_1178366" data-name="Grupo 1178366" transform="translate(-383.746 -8400)">
    <circle id="Elipse_13609" data-name="Elipse 13609" cx="64" cy="64" r="64" transform="translate(383.746 8400)" fill="#565097"/>
    <g id="outline" transform="translate(409.712 8425.344)">
      <path id="Trazado_998898" data-name="Trazado 998898" d="M59.52,73.765H33.3a1.234,1.234,0,0,1-1.208-.982l-1.1-5.289a1.9,1.9,0,0,0-1.852-1.507H22.331a8.872,8.872,0,0,1-8.75-7.346L12.11,50.265,8.4,48.539A3.815,3.815,0,0,1,6.808,43l5.172-7.948v-3.69A27.844,27.844,0,0,1,39.792,3.549h1.821a28.274,28.274,0,0,1,24.153,42.97l-5.116,8.407a12.79,12.79,0,0,0-1.6,9.278l1.678,8.077a1.232,1.232,0,0,1-1.207,1.483ZM34.3,71.3H58L56.634,64.7A15.245,15.245,0,0,1,58.543,53.64l5.116-8.407A25.8,25.8,0,0,0,41.614,6.016H39.793A25.373,25.373,0,0,0,14.449,31.36v4.056a1.227,1.227,0,0,1-.2.673L8.876,44.344a1.346,1.346,0,0,0,.56,1.956l4.3,2a1.237,1.237,0,0,1,.695.906l1.582,9.009a6.406,6.406,0,0,0,6.319,5.3h6.808A4.377,4.377,0,0,1,33.4,66.99Zm6.562-36.259A4.179,4.179,0,0,1,37.9,33.813l-8.037-8.037A7.337,7.337,0,0,1,30.4,14.92a7.538,7.538,0,0,1,10.03.668l.439.439.441-.439a7.533,7.533,0,0,1,10.028-.668,7.337,7.337,0,0,1,.531,10.858l-8.037,8.037a4.178,4.178,0,0,1-2.963,1.224ZM34.953,15.776a4.668,4.668,0,0,0-2.987,1.046,4.871,4.871,0,0,0-.357,7.21l8.037,8.037a1.726,1.726,0,0,0,2.438,0l8.037-8.037a4.871,4.871,0,0,0-.357-7.21,5.049,5.049,0,0,0-6.713.51l-1.313,1.313a1.233,1.233,0,0,1-1.745,0l-1.312-1.313a5.3,5.3,0,0,0-3.729-1.556Zm-8.512,20.59a1.234,1.234,0,1,0-1.515-1.947,4.813,4.813,0,0,1-5.518,0,1.234,1.234,0,1,0-1.515,1.947,7.147,7.147,0,0,0,8.549,0Z" transform="translate(0)" fill="#fff5c1"/>
    </g>
  </g>
</svg>
