<svg id="_8967118_4056192" data-name="8967118_4056192" xmlns="http://www.w3.org/2000/svg" xmlns:xlink="http://www.w3.org/1999/xlink" width="292" height="178" viewBox="0 0 292 178">
  <defs>
    <clipPath id="clip-path">
      <rect id="Rect치ngulo_455310" data-name="Rect치ngulo 455310" width="292" height="178"/>
    </clipPath>
  </defs>
  <g id="BACKGROUND_1_">
    <rect id="Rect치ngulo_455309" data-name="Rect치ngulo 455309" width="292" height="178" fill="#001a2d"/>
  </g>
  <g id="OBJECTS">
    <g id="Grupo_1178426" data-name="Grupo 1178426">
      <g id="Grupo_1178424" data-name="Grupo 1178424" clip-path="url(#clip-path)">
        <g id="Grupo_1178369" data-name="Grupo 1178369" transform="translate(59.749 42.604)">
          <path id="Trazado_998901" data-name="Trazado 998901" d="M262.963,224.1c-13.24-7.308-23.974-4.379-31.1-15.732-7.834-12.478,7.612-23.423,10.288-34.449,3.038-12.519-12.673-19.023-22.509-23.532-13.918-6.38-9.009-25.168-18.961-29.452s-18.879,2.276-18.879,2.276-15.1-2.555-15.1,10.926c0,11.428,3.352,12.7-3.6,21.225s-13.359,16.077-7.4,33.058,45.181,78.91,45.181,78.91h70.858C282.964,250.764,276.2,231.405,262.963,224.1Zm-95.3-69.942a7.4,7.4,0,0,1-2.115,3.98,5.731,5.731,0,0,1-4.463,1.574c1.855-2.6,5.742-5.5,6.863-10.081A18.182,18.182,0,0,1,167.663,154.155Z" transform="translate(-153.352 -119.479)" fill="#e82439"/>
        </g>
        <g id="Grupo_1178370" data-name="Grupo 1178370" transform="translate(78.503 70.28)">
          <path id="Trazado_998902" data-name="Trazado 998902" d="M228.557,255.277h0c4.362.667,8.426-2.193,8.842-6.222l1.723-16.692-15.316-22.206,3.36-11.661-2.4-1.4-23.281,72.8c13.051,22.532,33.459,51.653,33.459,51.653h1.035a23.194,23.194,0,0,0,2.6-5.5C247.4,289.129,228.557,255.277,228.557,255.277Z" transform="translate(-201.487 -197.094)" fill="#b02439"/>
        </g>
        <g id="Grupo_1178397" data-name="Grupo 1178397" transform="translate(45.942 45.792)">
          <g id="Grupo_1178371" data-name="Grupo 1178371" transform="translate(13.677 34.692)">
            <path id="Trazado_998903" data-name="Trazado 998903" d="M164.771,263.642l23.069-33.28-7.236-4.649c-9.165,1.637-18.182,5.391-20.633,8.246-.648.756-1.444,2.139-1.875,5.383-.631,4.75-2.877,12.868-4.861,19.486-1.282,4.278,3.407,8.014,7.86,6.261Z" transform="translate(-153.019 -225.713)" fill="#84312e"/>
          </g>
          <g id="Grupo_1178372" data-name="Grupo 1178372" transform="translate(23.824 34.816)">
            <path id="Trazado_998904" data-name="Trazado 998904" d="M202.844,226.06s14.094,2.687,19.081,6.56l-10.062,40.625-32.8-3.19.887-5.86Z" transform="translate(-179.063 -226.06)" fill="#84312e"/>
          </g>
          <g id="Grupo_1178373" data-name="Grupo 1178373" transform="translate(0 78.811)">
            <path id="Trazado_998905" data-name="Trazado 998905" d="M174.541,352.632s14.115,26.407,5.214,55.681l-61.84-4.177,23.825-54.695Z" transform="translate(-117.915 -349.441)" fill="#ff8c9d"/>
          </g>
          <g id="Grupo_1178376" data-name="Grupo 1178376" transform="translate(34.713 1.543)">
            <g id="Grupo_1178375" data-name="Grupo 1178375">
              <g id="Grupo_1178374" data-name="Grupo 1178374">
                <path id="Trazado_998906" data-name="Trazado 998906" d="M223.238,169.121l7.3-12.026s5.372,3.82,7.551-.582c1.941-3.922-2.765-5.74-5.794-4.559,0,0,9.459-12.857-3.511-18.173s-19.37,11.429-20.939,15.476c-2.763,7.126,1.908,11.457,5.831,13.081l-2.295,5.148s-1.756,3.739,2.132,5.117a7.973,7.973,0,0,0,5.1.12A8.261,8.261,0,0,0,223.238,169.121Z" transform="translate(-207.01 -132.749)" fill="#f39e6e"/>
              </g>
            </g>
          </g>
          <g id="Grupo_1178377" data-name="Grupo 1178377" transform="translate(45.034 12.405)">
            <path id="Trazado_998948" data-name="Trazado 998948" d="M2.707,0A3.16,3.16,0,0,1,5.669,2.958,2.552,2.552,0,0,1,2.958,5.669,3.16,3.16,0,0,1,0,2.707,2.552,2.552,0,0,1,2.707,0Z" transform="translate(0 4.028) rotate(-45)" fill="#e87555"/>
          </g>
          <g id="Grupo_1178378" data-name="Grupo 1178378" transform="translate(40.838 13.861)">
            <path id="Trazado_998907" data-name="Trazado 998907" d="M225.577,168.6a1.428,1.428,0,1,1-1.423-1.3A1.367,1.367,0,0,1,225.577,168.6Z" transform="translate(-222.731 -167.294)" fill="#001a2d"/>
          </g>
          <g id="Grupo_1178379" data-name="Grupo 1178379" transform="translate(46.605 15.05)">
            <path id="Trazado_998908" data-name="Trazado 998908" d="M240.377,171.93a1.428,1.428,0,1,1-1.423-1.3A1.367,1.367,0,0,1,240.377,171.93Z" transform="translate(-237.531 -170.628)" fill="#001a2d"/>
          </g>
          <g id="Grupo_1178382" data-name="Grupo 1178382" transform="translate(30.608 11.754)">
            <g id="Grupo_1178381" data-name="Grupo 1178381">
              <g id="Grupo_1178380" data-name="Grupo 1178380">
                <path id="Trazado_998909" data-name="Trazado 998909" d="M204.253,163.845s-4.335-5.1-7.115-.619c-3.057,4.926,5.421,5.833,5.421,5.833Z" transform="translate(-196.473 -161.384)" fill="#f39e6e"/>
              </g>
            </g>
          </g>
          <g id="Grupo_1178384" data-name="Grupo 1178384" transform="translate(43.259 15.998)">
            <g id="Grupo_1178383" data-name="Grupo 1178383">
              <path id="Trazado_998910" data-name="Trazado 998910" d="M230.473,177.981a.42.42,0,0,1-.13-.047,2.281,2.281,0,0,1-1.391-1.592c-.092-.831.519-1.77,1.922-2.956a.435.435,0,0,1,.577.021.352.352,0,0,1-.023.528c-1.15.972-1.725,1.778-1.664,2.332.039.354.338.661,1,1.028a.356.356,0,0,1,.138.513A.424.424,0,0,1,230.473,177.981Z" transform="translate(-228.943 -173.287)" fill="#001a2d"/>
            </g>
          </g>
          <g id="Grupo_1178386" data-name="Grupo 1178386" transform="translate(35.382 14.137)">
            <g id="Grupo_1178385" data-name="Grupo 1178385">
              <path id="Trazado_998911" data-name="Trazado 998911" d="M209.056,172.215l-.011,0a.374.374,0,0,1-.306-.448,17.445,17.445,0,0,1,1.289-3.479.424.424,0,0,1,.541-.185.362.362,0,0,1,.2.495,16.729,16.729,0,0,0-1.237,3.337A.41.41,0,0,1,209.056,172.215Z" transform="translate(-208.728 -168.066)" fill="#001a2d"/>
            </g>
          </g>
          <g id="Grupo_1178388" data-name="Grupo 1178388" transform="translate(33.994 14.687)">
            <g id="Grupo_1178387" data-name="Grupo 1178387">
              <path id="Trazado_998912" data-name="Trazado 998912" d="M207.3,171.208a.426.426,0,0,1-.107-.035l-1.809-.857a.359.359,0,0,1-.175-.5.426.426,0,0,1,.55-.16l1.809.857a.359.359,0,0,1,.175.5A.423.423,0,0,1,207.3,171.208Z" transform="translate(-205.165 -169.611)" fill="#001a2d"/>
            </g>
          </g>
          <g id="Grupo_1178390" data-name="Grupo 1178390" transform="translate(59.631 22.185)">
            <g id="Grupo_1178389" data-name="Grupo 1178389">
              <path id="Trazado_998913" data-name="Trazado 998913" d="M271.292,192.792a.444.444,0,0,1-.084-.025.362.362,0,0,1-.21-.492,3,3,0,0,1,2.144-1.583,3.232,3.232,0,0,1,2.649.687.352.352,0,0,1,.019.528.437.437,0,0,1-.577.017,2.356,2.356,0,0,0-1.928-.5,2.182,2.182,0,0,0-1.558,1.151A.418.418,0,0,1,271.292,192.792Z" transform="translate(-270.964 -190.638)" fill="#001a2d"/>
            </g>
          </g>
          <g id="Grupo_1178392" data-name="Grupo 1178392" transform="translate(61.131 22.441)">
            <g id="Grupo_1178391" data-name="Grupo 1178391">
              <path id="Trazado_998914" data-name="Trazado 998914" d="M275.616,193.395a.4.4,0,0,1-.307-.248l-.474-1.3a.368.368,0,0,1,.259-.472.418.418,0,0,1,.517.237l.473,1.3a.367.367,0,0,1-.258.473A.447.447,0,0,1,275.616,193.395Z" transform="translate(-274.815 -191.355)" fill="#001a2d"/>
            </g>
          </g>
          <g id="Grupo_1178394" data-name="Grupo 1178394" transform="translate(40.065 31.132)">
            <g id="Grupo_1178393" data-name="Grupo 1178393">
              <path id="Trazado_998915" data-name="Trazado 998915" d="M222.057,215.729c2.833,1.161,8.181,1.48,8.181,1.48a15.968,15.968,0,0,1-9.493,1.505Z" transform="translate(-220.745 -215.729)" fill="#001a2d"/>
            </g>
          </g>
          <g id="Grupo_1178396" data-name="Grupo 1178396" transform="translate(37.555)">
            <g id="Grupo_1178395" data-name="Grupo 1178395">
              <path id="Trazado_998916" data-name="Trazado 998916" d="M214.3,141.809s3.355-7.24,8.325-8.908c0,0,6.213,9.542,10.914,14.327,0,0-2.885,6.753-1.985,7.058s2.679-3.033,5.186-5.117a37.336,37.336,0,0,1,5.555-3.7l-2.713-12.547-3.669-2.664-4.959-1.84-5.166.323-4.379.975-4.687,3.978-2.243,3.718Z" transform="translate(-214.304 -128.421)" fill="#e82439"/>
            </g>
          </g>
        </g>
        <g id="Grupo_1178398" data-name="Grupo 1178398" transform="translate(85.986 37.872)">
          <path id="Trazado_998917" data-name="Trazado 998917" d="M223.924,116.1a5.438,5.438,0,0,1-.1-9.895A12.711,12.711,0,0,0,223.924,116.1Z" transform="translate(-220.693 -106.21)" fill="#e82439"/>
        </g>
        <g id="Grupo_1178399" data-name="Grupo 1178399" transform="translate(113.31 60.555)">
          <path id="Trazado_998918" data-name="Trazado 998918" d="M293.119,169.822a14.347,14.347,0,0,0,1.475,4.152,15.842,15.842,0,0,0,2.735,3.615,35.773,35.773,0,0,0,7.854,5.557c2.85,1.625,5.9,3,8.917,4.484a52.366,52.366,0,0,1,8.7,5.125,21.709,21.709,0,0,1,3.618,3.459A13.28,13.28,0,0,1,328.8,200.5a11.459,11.459,0,0,1,.459,4.774,18.023,18.023,0,0,1-1.189,4.618A35.923,35.923,0,0,1,326,214.2c-.779,1.394-1.592,2.763-2.354,4.156a32.657,32.657,0,0,0-2.01,4.286,16.236,16.236,0,0,0-1.026,4.563,16.264,16.264,0,0,1,.886-4.6,32.58,32.58,0,0,1,1.885-4.362c.72-1.418,1.492-2.812,2.222-4.217a35.253,35.253,0,0,0,1.914-4.3,17.4,17.4,0,0,0,1.012-4.5,10.785,10.785,0,0,0-.57-4.48,12.516,12.516,0,0,0-2.362-3.95,20.823,20.823,0,0,0-3.543-3.2,51.423,51.423,0,0,0-8.631-4.764c-3.032-1.389-6.154-2.7-9.148-4.293a37.826,37.826,0,0,1-8.442-5.659,17.928,17.928,0,0,1-3.189-3.979,16.393,16.393,0,0,1-1.821-4.675Z" transform="translate(-290.822 -169.822)" fill="#e82439"/>
        </g>
        <g id="Grupo_1178400" data-name="Grupo 1178400" transform="translate(86.488 56.008)">
          <path id="Trazado_998919" data-name="Trazado 998919" d="M226.484,157.079l.185-.009c.852-.028.374.663.018.917a6.5,6.5,0,0,1-1.361.694,6.7,6.7,0,0,1-2.785.474c-.349-.016-.716-.226-.489-.568.208-.313.9-.547,1.249-.7A9.348,9.348,0,0,1,226.484,157.079Z" transform="translate(-221.982 -157.07)" fill="#001a2d"/>
        </g>
        <g id="Grupo_1178401" data-name="Grupo 1178401" transform="translate(95.023 57.259)">
          <path id="Trazado_998920" data-name="Trazado 998920" d="M248.182,162.96q.06.065.117.132c.528.613-.363.668-.8.555a6.627,6.627,0,0,1-1.416-.6,6.018,6.018,0,0,1-2.064-1.776c-.192-.267-.224-.662.212-.7a3.455,3.455,0,0,1,1.357.507A8.634,8.634,0,0,1,248.182,162.96Z" transform="translate(-243.887 -160.578)" fill="#001a2d"/>
        </g>
        <g id="Grupo_1178402" data-name="Grupo 1178402" transform="translate(96.316 64.265)">
          <path id="Trazado_998921" data-name="Trazado 998921" d="M249.752,182.529a1.278,1.278,0,0,1-2.547,0c0-.644,1.273-2.3,1.273-2.3S249.752,181.885,249.752,182.529Z" transform="translate(-247.205 -180.225)" fill="#fff"/>
        </g>
        <g id="Grupo_1178403" data-name="Grupo 1178403" transform="translate(83.042 61.79)">
          <path id="Trazado_998922" data-name="Trazado 998922" d="M215.2,175.632a1.355,1.355,0,0,1-1.789-.187,1.1,1.1,0,0,1,.2-1.637,8.855,8.855,0,0,1,2.762-.521A7.2,7.2,0,0,1,215.2,175.632Z" transform="translate(-213.136 -173.286)" fill="#fff"/>
        </g>
        <g id="Grupo_1178404" data-name="Grupo 1178404" transform="translate(90.1 67.064)">
          <path id="Trazado_998923" data-name="Trazado 998923" d="M231.64,190.414a.42.42,0,0,1-.16-.031.345.345,0,0,1-.2-.472,3.64,3.64,0,0,1,4.083-1.719.353.353,0,0,1,.265.443.4.4,0,0,1-.484.242A2.851,2.851,0,0,0,232,190.2.394.394,0,0,1,231.64,190.414Z" transform="translate(-231.251 -188.075)" fill="#001a2d"/>
        </g>
        <g id="Grupo_1178405" data-name="Grupo 1178405" transform="translate(89.558 96.33)">
          <path id="Trazado_998924" data-name="Trazado 998924" d="M256.91,270.654c.958,2.463.43,13.212-.122,21.153-.353,5.085-6.283,8.142-11.241,5.824A44.177,44.177,0,0,1,232.6,288.3c-11.472-11.8,16.786-18.151,16.786-18.151Z" transform="translate(-229.86 -270.149)" fill="#84312e"/>
        </g>
        <g id="Grupo_1178406" data-name="Grupo 1178406" transform="translate(102.015 86.903)">
          <path id="Trazado_998925" data-name="Trazado 998925" d="M261.832,250.149l5.362,6.828,9.232-3.332.45,2.271s1.886-2.382,1.886-3.216-1.6-1.878-1.6-1.878a6.08,6.08,0,0,0,.166-1.565c-.051-.678-1.9-1.3-1.9-1.3a2.272,2.272,0,0,0,0-1.749c-.432-.65-1.743-.806-1.743-.806s.342-1.46-.57-1.669S266.557,245.355,261.832,250.149Z" transform="translate(-261.832 -243.714)" fill="#e8935d"/>
        </g>
        <g id="Grupo_1178407" data-name="Grupo 1178407" transform="translate(63.318 82.87)">
          <path id="Trazado_998926" data-name="Trazado 998926" d="M179.632,239.763,173.6,246.1,164.745,242l-.856,1.649s-1.459-1.959-1.374-2.79,1.78-1.733,1.78-1.733a6.061,6.061,0,0,1-.005-1.572c.12-.671,2.024-1.136,2.024-1.136a2.274,2.274,0,0,1,.178-1.742,2.941,2.941,0,0,1,1.817-.654s-.191-1.483.738-1.613S175.416,234.586,179.632,239.763Z" transform="translate(-162.512 -232.402)" fill="#e8935d"/>
        </g>
        <g id="Grupo_1178416" data-name="Grupo 1178416" transform="translate(67.829 82.745)">
          <g id="Grupo_1178408" data-name="Grupo 1178408" transform="translate(4.919 16.651)">
            <path id="Trazado_998927" data-name="Trazado 998927" d="M216.174,301.763a.413.413,0,0,1-.234-.071c-4.083-2.806-28.838-22.12-29.087-22.315a.335.335,0,0,1-.044-.5.414.414,0,0,1,.549-.04c.25.195,24.985,19.494,29.05,22.287a.337.337,0,0,1,.078.5A.4.4,0,0,1,216.174,301.763Z" transform="translate(-186.716 -278.749)" fill="#4c1d25"/>
          </g>
          <g id="Grupo_1178409" data-name="Grupo 1178409" transform="translate(13.105 7.937)">
            <path id="Trazado_998928" data-name="Trazado 998928" d="M231.783,272.921a.41.41,0,0,1-.248-.082l-23.665-17.9a.336.336,0,0,1-.052-.5.413.413,0,0,1,.548-.048l23.137,17.5.813-4.838a.385.385,0,0,1,.445-.3.362.362,0,0,1,.326.407l-.917,5.459a.365.365,0,0,1-.247.279A.422.422,0,0,1,231.783,272.921Z" transform="translate(-207.728 -254.311)" fill="#4c1d25"/>
          </g>
          <g id="Grupo_1178410" data-name="Grupo 1178410" transform="translate(0.748 12.939)">
            <path id="Trazado_998929" data-name="Trazado 998929" d="M177.676,279.165a.393.393,0,0,1-.353-.206,9.46,9.46,0,0,1-1.309-4.157c.083-2.328,2.26-6.114,2.352-6.274a.409.409,0,0,1,.527-.148.342.342,0,0,1,.162.482c-.022.038-2.185,3.8-2.263,5.963a9.035,9.035,0,0,0,1.237,3.833.344.344,0,0,1-.189.474A.422.422,0,0,1,177.676,279.165Z" transform="translate(-176.011 -268.338)" fill="#4c1d25"/>
          </g>
          <g id="Grupo_1178411" data-name="Grupo 1178411" transform="translate(22.271 10.752)">
            <path id="Trazado_998930" data-name="Trazado 998930" d="M231.643,267.011a.394.394,0,0,1-.356-.211.345.345,0,0,1,.2-.471l9.984-4.093a.406.406,0,0,1,.515.18.345.345,0,0,1-.2.471L231.8,266.98A.428.428,0,0,1,231.643,267.011Z" transform="translate(-231.252 -262.204)" fill="#4c1d25"/>
          </g>
          <g id="Grupo_1178412" data-name="Grupo 1178412" transform="translate(0 20.105)">
            <path id="Trazado_998931" data-name="Trazado 998931" d="M174.482,293.017a.394.394,0,0,1-.356-.211.345.345,0,0,1,.2-.471l9.441-3.871a.406.406,0,0,1,.515.18.345.345,0,0,1-.2.471l-9.441,3.871A.424.424,0,0,1,174.482,293.017Z" transform="translate(-174.091 -288.434)" fill="#4c1d25"/>
          </g>
          <g id="Grupo_1178413" data-name="Grupo 1178413" transform="translate(4.253 27.967)">
            <path id="Trazado_998932" data-name="Trazado 998932" d="M185.4,317.66a.394.394,0,0,1-.354-.207.345.345,0,0,1,.191-.473l15.291-6.463a.4.4,0,0,1,.517.174.345.345,0,0,1-.191.473l-15.291,6.463A.421.421,0,0,1,185.4,317.66Z" transform="translate(-185.006 -310.483)" fill="#4c1d25"/>
          </g>
          <g id="Grupo_1178414" data-name="Grupo 1178414" transform="translate(32.603 18.097)">
            <path id="Trazado_998933" data-name="Trazado 998933" d="M258.16,287.866a.394.394,0,0,1-.354-.207.345.345,0,0,1,.191-.473l6.954-2.939-.709-.875a.338.338,0,0,1,.081-.5.415.415,0,0,1,.545.074l.994,1.227a.334.334,0,0,1,.064.3.366.366,0,0,1-.214.236l-7.389,3.123A.423.423,0,0,1,258.16,287.866Z" transform="translate(-257.77 -282.803)" fill="#4c1d25"/>
          </g>
          <g id="Grupo_1178415" data-name="Grupo 1178415" transform="translate(16.133)">
            <path id="Trazado_998934" data-name="Trazado 998934" d="M225.547,234.74a24.819,24.819,0,0,1-9.825-2.009.344.344,0,0,1-.185-.475.407.407,0,0,1,.519-.169,24.086,24.086,0,0,0,13.241,1.645.388.388,0,0,1,.451.29.361.361,0,0,1-.317.413A24.548,24.548,0,0,1,225.547,234.74Z" transform="translate(-215.499 -232.052)" fill="#4c1d25"/>
          </g>
        </g>
        <g id="Grupo_1178417" data-name="Grupo 1178417" transform="translate(83.155 78.771)">
          <path id="Trazado_998935" data-name="Trazado 998935" d="M213.425,228.337s1.636-7.022,2.458-7.368,13.848.894,14.469,1.125-3.042,8.536-3.042,8.536S216.7,231.748,213.425,228.337Z" transform="translate(-213.425 -220.909)" fill="#84312e"/>
        </g>
        <g id="Grupo_1178418" data-name="Grupo 1178418" transform="translate(61.095 126.862)">
          <path id="Trazado_998936" data-name="Trazado 998936" d="M199.345,358.935l-34.85-3.159-.3.69,6.585.6-13.973,52.173.789.053,13.967-52.155,19.852,1.8c0,1.635.166,8.736,3.2,11.632a4.326,4.326,0,0,0,2.849,1.239,168.962,168.962,0,0,1,.157,40.188l.779.053a168.2,168.2,0,0,0-2.164-52.675l3.435.311C199.559,359.417,199.449,359.166,199.345,358.935Zm-1.97,12.149a3.5,3.5,0,0,1-2.194-1.013c-2.757-2.629-2.974-9.382-2.984-11.068l3.236.293C196.222,363.287,196.868,367.2,197.375,371.085Z" transform="translate(-156.807 -355.776)" fill="#f67086"/>
        </g>
        <g id="Grupo_1178419" data-name="Grupo 1178419" transform="translate(106.638 90.342)">
          <path id="Trazado_998937" data-name="Trazado 998937" d="M274.089,258.55a.419.419,0,0,1-.131-.021.35.35,0,0,1-.236-.456,19.8,19.8,0,0,1,2.517-4.56.414.414,0,0,1,.541-.1.339.339,0,0,1,.105.5,19.083,19.083,0,0,0-2.429,4.4A.391.391,0,0,1,274.089,258.55Z" transform="translate(-273.699 -253.357)" fill="#e87555"/>
        </g>
        <g id="Grupo_1178420" data-name="Grupo 1178420" transform="translate(109.258 90.647)">
          <path id="Trazado_998938" data-name="Trazado 998938" d="M280.812,258.694a.421.421,0,0,1-.144-.025.348.348,0,0,1-.219-.463,10.6,10.6,0,0,1,2.95-3.9.417.417,0,0,1,.551.024.336.336,0,0,1-.026.5,9.879,9.879,0,0,0-2.75,3.635A.391.391,0,0,1,280.812,258.694Z" transform="translate(-280.423 -254.214)" fill="#e87555"/>
        </g>
        <g id="Grupo_1178423" data-name="Grupo 1178423" transform="translate(81.941 67.266)">
          <g id="Grupo_1178421" data-name="Grupo 1178421" transform="translate(0 1.659)">
            <path id="Trazado_998939" data-name="Trazado 998939" d="M213.363,195.956a.414.414,0,0,1-.2-.053,14.325,14.325,0,0,1-2.738-2.005.336.336,0,0,1,.006-.5.416.416,0,0,1,.551.006,13.588,13.588,0,0,0,2.591,1.9.339.339,0,0,1,.127.491A.4.4,0,0,1,213.363,195.956Z" transform="translate(-210.31 -193.292)" fill="#e87555"/>
          </g>
          <g id="Grupo_1178422" data-name="Grupo 1178422" transform="translate(0.212)">
            <path id="Trazado_998940" data-name="Trazado 998940" d="M213.27,190.817a.417.417,0,0,1-.169-.036,6.329,6.329,0,0,1-2.158-1.559.337.337,0,0,1,.056-.5.415.415,0,0,1,.548.051,5.55,5.55,0,0,0,1.892,1.367.344.344,0,0,1,.182.476A.393.393,0,0,1,213.27,190.817Z" transform="translate(-210.855 -188.641)" fill="#e87555"/>
          </g>
        </g>
      </g>
      <g id="Grupo_1178425" data-name="Grupo 1178425" clip-path="url(#clip-path)">
        <path id="Trazado_998941" data-name="Trazado 998941" d="M416.937-87.721l-23.143-28.843c-4.226,6.4-7.939,13.085-12.4,19.355a83.5,83.5,0,0,0-5.272,7.816,52.313,52.313,0,0,1-6.336,9.24,29.116,29.116,0,0,1-9.079,7.015c-6.059,2.912-13.114,3.663-19.641,5.317-5.343,1.354-10.8,2.869-15.527,5.586-3.912,2.246-7.159,5.427-8.4,9.579-.148.492-.371,1.2.009,1.66,1.222,1.463,9.629-5.57,11.549-6.566A89.066,89.066,0,0,1,340.6-61.9a.527.527,0,0,1,.612.281.449.449,0,0,1-.208.577c-3.4,1.9-11.231,6.491-14.2,10.083-3.84,4.643-4.972,19.369-2.467,19.215s6.678-14.626,7.68-15.508c.833-.734,9.681-6.708,12.642-8.7a.629.629,0,0,1,.84.129.511.511,0,0,1-.12.739c-4.725,3.331-11.771,11.511-13.051,15.171-1.492,4.265-.774,17.848,2.238,16.9,2.984-.935,3.233-13.561,4.312-15.3.845-1.364,7.942-7.725,10.984-10.424a.771.771,0,0,1,1.1.1.625.625,0,0,1-.125.886c-3.765,2.952-9.071,10.468-9.071,16.987,0,7.3,1.367,13.94,3.311,13.445,2.545-.648,2.16-14.063,3.417-15.526,2.362-2.749,4.328-5.757,6.645-8.535a48.218,48.218,0,0,1,7.9-7,1.372,1.372,0,0,1,2.105.541c.463,1.279.856,2.335.936,2.627a9.266,9.266,0,0,1-4.076,10.776c-.95.557-4.212,1.762-3.5,3.237.772,1.605,6.988,1.362,8.433.9,6.025-1.937,8.623-7.593,9.727-12.924a52.356,52.356,0,0,0,.927-8.758c.115-3.212-.723-6.388,1.959-8.793,3.11-2.788,6.486-5.373,9.836-7.913,8.547-6.482,17.8-12.083,26.524-18.3C415.964-87.028,416.94-87.717,416.937-87.721Z" transform="translate(-193.449 75)" fill="#29327d"/>
        <path id="Trazado_998942" data-name="Trazado 998942" d="M619.506,9.5,609.089-24.991c-6.438,4.608-12.505,9.644-19.116,14.051a91.84,91.84,0,0,0-7.965,5.588,57.508,57.508,0,0,1-9.513,6.572,31.447,31.447,0,0,1-11.211,3.6c-6.795.748-13.68-.847-20.423-1.426-5.52-.474-11.2-.834-16.682.165-4.529.825-8.8,2.741-11.578,6.216-.329.411-.815,1-.636,1.554.573,1.765,11.165-2.071,13.346-2.376a92.177,92.177,0,0,1,12.812-.179.489.489,0,0,1,.463.462.482.482,0,0,1-.418.472c-3.913.667-13.02,2.41-17.192,4.8C515.581,17.6,508.8,30.991,511.2,31.661s11.927-11.494,13.206-11.993c1.064-.415,11.655-3.117,15.2-4.017a.6.6,0,0,1,.736.394.537.537,0,0,1-.4.652c-5.711,1.575-15.475,6.925-18.095,9.929-3.053,3.5-7.661,16.428-4.479,16.527,3.153.1,8.293-11.621,9.979-12.9,1.319-1,10.425-4.634,14.318-6.166a.742.742,0,0,1,.993.452.655.655,0,0,1-.461.787c-4.667,1.533-12.547,6.829-15.081,12.922-2.84,6.827-4.141,13.473-2.132,13.643,2.631.223,7.486-12.44,9.229-13.4,3.276-1.8,6.283-3.972,9.529-5.813a52.47,52.47,0,0,1,10.108-3.969,1.3,1.3,0,0,1,1.757,1.191c-.064,1.346-.108,2.46-.146,2.76a9.965,9.965,0,0,1-8,8.744c-1.1.211-4.621.275-4.531,1.885.1,1.752,6,3.548,7.532,3.584,6.383.152,11.011-4.289,14.115-8.911a55.286,55.286,0,0,0,4.271-7.883c1.356-2.965,1.807-6.205,5.249-7.579,3.99-1.593,8.15-2.909,12.268-4.193,10.508-3.275,21.33-5.5,31.9-8.464C618.327,9.831,619.508,9.505,619.506,9.5Z" transform="translate(-311.723 16.08)" fill="#29327d"/>
        <path id="Trazado_998943" data-name="Trazado 998943" d="M-141.409,351.186l-22.814-29.062c7.96-1.7,16.051-2.863,23.948-4.81a99.406,99.406,0,0,1,9.751-2.172,62.068,62.068,0,0,0,11.56-2.657,30.164,30.164,0,0,0,10.1-5.732c4.9-4.374,7.861-10.281,11.6-15.451,3.059-4.232,6.32-8.508,10.606-11.786a19.394,19.394,0,0,1,12.552-4.352c.557.024,1.366.05,1.721.521,1.143,1.516-8.766,6.658-10.394,8.022a79.276,79.276,0,0,0-8.19,9.019.443.443,0,0,0,.1.619.549.549,0,0,0,.664,0c3.022-2.37,10.218-7.767,14.869-9.242,6.012-1.906,21.664,1.663,20.729,3.795s-17.263,1.29-18.49,1.889c-1.02.5-9.964,6.351-12.952,8.312a.514.514,0,0,0-.126.771.629.629,0,0,0,.805.124c4.922-3.082,15.6-6.685,19.8-6.668,4.894.02,18.785,4.846,16.872,7.175-1.895,2.309-15.091-1.379-17.234-.979-1.678.313-10.483,4.523-14.228,6.337a.636.636,0,0,0-.238.991.77.77,0,0,0,.959.165c4.232-2.364,13.682-4.658,20.456-2.642,7.591,2.259,14.063,5.5,12.947,7.04-1.461,2.015-15.281-2.469-17.19-1.827-3.587,1.206-7.321,1.986-10.924,3.144a51.6,51.6,0,0,0-9.718,4.715,1.153,1.153,0,0,0-.088,2c1.186.8,2.161,1.467,2.44,1.627,3.862,2.22,8.821,2.513,12.458-.215.873-.655,3.133-3.121,4.446-2.047,1.429,1.168-.746,6.5-1.675,7.617-3.875,4.645-10.556,5.157-16.438,4.47a67.325,67.325,0,0,1-9.386-1.9c-3.373-.893-6.414-2.6-9.742-1.014-3.859,1.844-7.589,3.983-11.264,6.114-9.378,5.435-18.059,11.753-27.215,17.427C-140.388,350.553-141.405,351.189-141.409,351.186Z" transform="translate(100.239 -177.037)" fill="#29327d"/>
        <path id="Trazado_998944" data-name="Trazado 998944" d="M715.944,254.466l16.137-32.595c-8.169-.235-16.353.077-24.514-.414-3.468-.209-6.493-.5-10.027-.377a62.9,62.9,0,0,1-11.906-.529,31.348,31.348,0,0,1-11.13-3.806c-5.742-3.408-9.913-8.668-14.687-13.066-3.907-3.6-8.021-7.208-12.927-9.652a19.852,19.852,0,0,0-13.241-2.012c-.541.123-1.329.294-1.576.82-.8,1.692,10.024,4.954,11.912,6a83.522,83.522,0,0,1,9.965,7.372.441.441,0,0,1,.032.626.545.545,0,0,1-.651.117c-3.472-1.781-11.685-5.781-16.562-6.391-6.3-.789-20.886,5.523-19.511,7.445s17.2-1.837,18.535-1.47c1.107.3,11.132,4.438,14.483,5.823a.526.526,0,0,1,.289.734.616.616,0,0,1-.763.266c-5.487-2.138-16.731-3.752-20.845-2.981-4.794.9-17.38,8.126-15.005,10.067,2.353,1.923,14.5-4.064,16.689-4.056,1.713.006,11.249,2.552,15.31,3.657a.652.652,0,0,1,.446.929.753.753,0,0,1-.905.335c-4.657-1.558-14.415-2.11-20.625,1.084-6.958,3.579-12.609,7.92-11.185,9.229,1.865,1.713,14.454-5.166,16.463-4.88,3.776.538,7.6.632,11.386,1.12a53.411,53.411,0,0,1,10.541,2.877,1.165,1.165,0,0,1,.516,1.945c-.991,1-1.8,1.826-2.044,2.034-3.31,2.87-8.11,4.049-12.261,2.028-1-.485-3.741-2.5-4.8-1.208-1.151,1.4,2.126,6.242,3.277,7.168,4.8,3.858,11.457,3.16,17.076,1.43a65.381,65.381,0,0,0,8.8-3.551c3.116-1.482,5.731-3.706,9.335-2.745,4.179,1.115,8.3,2.543,12.356,3.971,10.362,3.644,20.229,8.28,30.423,12.2C714.808,254.028,715.942,254.47,715.944,254.466Z" transform="translate(-374.445 -123.282)" fill="#29327d"/>
        <path id="Trazado_998945" data-name="Trazado 998945" d="M561.726,412.5l-15.9-25.074c-1.987-3.135-1.036-6.673-.108-9.937.672-2.365,2.356-23.8-1.911-22.224-.868.32-1.5,2.789-1.77,3.486a93.1,93.1,0,0,0-3.006,9.655.849.849,0,0,1-1.454.268l-7.038-7.5a21.742,21.742,0,0,1-3.781-5.507c-3.192-6.684-10.914-22.256-13.016-21.015-1.593.941-.062,5.949,2.122,13.193,1.69,5.6,3.2,10.081,3.8,11.82-6.413-6.593-24.342-24.659-25.909-22.194-1.52,2.391,14.372,20.253,20.942,27.465a.561.561,0,0,1-.01.778l-.008.008a.7.7,0,0,1-.872.093c-8.174-5.367-27.753-17.87-29.037-15.38-1.06,2.057,16.611,14.654,24.619,20.219a.562.562,0,0,1,.122.834l-.156.189a.683.683,0,0,1-.753.2c-7.334-2.609-25.217-8.726-25.874-6.57-.365,1.2,11.865,7.068,19.552,10.624a27.4,27.4,0,0,1,7.065,4.71c4.034,3.717,10.584,9.3,15.9,11.681a8.955,8.955,0,0,1,4.813,5.148c3.659,10.327,13,36.692,13.09,36.983C543.255,434.822,561.726,412.5,561.726,412.5Z" transform="translate(-294.644 -215.281)" fill="#29327d"/>
        <path id="Trazado_998946" data-name="Trazado 998946" d="M-74.563,5.962-49.676,23.9c3.111,2.242,7.072,1.878,10.734,1.5,2.653-.276,26.075,1.215,23.773,4.861-.468.742-3.228.965-4.02,1.113-3.577.669-7.238,1.029-10.868,1.365a.738.738,0,0,0-.5,1.28l7.121,7.433a23.553,23.553,0,0,0,5.425,4.2C-11.224,49.48,4.534,58.668,2.9,60.4c-1.242,1.311-6.444-.781-13.973-3.779C-16.9,54.3-21.532,52.3-23.329,51.51-17.1,58.249-.081,77.037-2.968,78.11c-2.8,1.041-19.886-15.873-26.763-22.841a.7.7,0,0,0-.843-.1l-.01.006a.568.568,0,0,0-.224.777c4.655,8.162,15.425,27.662,12.55,28.475-2.374.671-13.514-17.114-18.407-25.153a.683.683,0,0,0-.885-.228l-.227.115a.576.576,0,0,0-.321.655c1.791,7.013,5.89,24.077,3.464,24.369-1.345.162-5.976-11.746-8.741-19.211a24.407,24.407,0,0,0-4.1-7.064c-3.454-4.178-8.57-10.9-10.4-16.047a8.987,8.987,0,0,0-4.892-5.086c-10.656-4.77-37.862-16.945-38.164-17.067C-101.305,19.557-74.563,5.962-74.563,5.962Z" transform="translate(61.608 -3.836)" fill="#29327d"/>
        <path id="Trazado_998947" data-name="Trazado 998947" d="M211.493-177.03l-9.352,27.7c-1.168,3.463.625,6.715,2.329,9.706,1.235,2.167,8.127,22.708,3.582,22.051-.925-.134-2.144-2.41-2.579-3.033a97.461,97.461,0,0,1-5.295-8.793.855.855,0,0,0-1.483.037l-5.021,8.752a20.711,20.711,0,0,0-2.335,6.143c-1.473,7.169-5.183,23.929-7.536,23.151-1.783-.59-1.518-5.785-1.165-13.293.273-5.809.652-10.481.81-12.3-4.634,7.741-17.681,29.026-19.812,26.946-2.068-2.018,9.044-22.687,13.68-31.063a.569.569,0,0,0-.2-.756l-.009-.006a.7.7,0,0,0-.872.088c-6.651,6.907-22.668,23.111-24.529,20.947-1.537-1.787,12.6-17.689,19.039-24.756a.56.56,0,0,0-.085-.837l-.2-.153a.7.7,0,0,0-.783-.039c-6.508,4.048-22.437,13.679-23.606,11.712-.649-1.09,9.83-9.322,16.449-14.366a25.84,25.84,0,0,0,5.731-6.04c3.02-4.45,8.036-11.235,12.629-14.645a8.485,8.485,0,0,0,3.429-6c1.036-10.815,3.68-38.425,3.7-38.727C188.025-194.988,211.493-177.03,211.493-177.03Z" transform="translate(-89.141 125.221)" fill="#29327d"/>
      </g>
    </g>
  </g>
</svg>
