<svg xmlns="http://www.w3.org/2000/svg" width="34.823" height="40" viewBox="0 0 34.823 40">
  <g id="Grupo_1179572" data-name="Grupo 1179572" transform="translate(-33.134)">
    <path id="Trazado_1001314" data-name="Trazado 1001314" d="M339.971,328.667l-.864-.966a1.237,1.237,0,0,0-1.733-.1l-2.215,1.945-.926-.733-.007-.005a1.226,1.226,0,0,0-1.661.146l-.892.976a1.233,1.233,0,0,0,.113,1.773l2.783,2.359h0a.914.914,0,0,0,1.19-.013l4.108-3.632a1.233,1.233,0,0,0,.1-1.745Zm-.879.867-3.938,3.482-2.61-2.212a.059.059,0,0,1-.022-.043.059.059,0,0,1,.016-.045l.892-.976a.061.061,0,0,1,.045-.02.062.062,0,0,1,.036.012l1.1.868.007.005a.912.912,0,0,0,1.154-.038l2.379-2.09a.061.061,0,0,1,.086.005l.864.966a.061.061,0,0,1-.005.087Z" transform="translate(-274.918 -301.721)" fill="#3e5d56"/>
    <path id="Trazado_1001315" data-name="Trazado 1001315" d="M67.957,29.06a7.07,7.07,0,0,0-5.177-6.8V6.41a3.178,3.178,0,0,0-3.175-3.174H54.367V3.152a1.212,1.212,0,0,0-1.211-1.211H50.415a2.527,2.527,0,0,0-4.916,0H42.758a1.212,1.212,0,0,0-1.211,1.211v.083H36.308A3.178,3.178,0,0,0,33.134,6.41V36.825A3.178,3.178,0,0,0,36.308,40h2.239a.586.586,0,1,0,0-1.172H36.308a2,2,0,0,1-2-2V6.41a2,2,0,0,1,2-2h5.238V5.824H37.6a1.882,1.882,0,0,0-1.88,1.88v4.457a.586.586,0,1,0,1.172,0V7.7A.709.709,0,0,1,37.6,7h4.026A1.839,1.839,0,0,0,43.383,8.29h9.148A1.839,1.839,0,0,0,54.285,7h4.025a.709.709,0,0,1,.708.708V22.257a7.058,7.058,0,0,0-.073,13.585.709.709,0,0,1-.636.4H37.6a.709.709,0,0,1-.708-.708V14.9a.586.586,0,1,0-1.172,0V35.531a1.882,1.882,0,0,0,1.88,1.88H58.311a1.883,1.883,0,0,0,1.8-1.339,7.1,7.1,0,0,0,.788.044q.358,0,.708-.035v.744a2,2,0,0,1-2,2H41.282a.586.586,0,0,0,0,1.172H59.605a3.178,3.178,0,0,0,3.175-3.174v-.963a7.07,7.07,0,0,0,5.177-6.8Zm-20-27.888a1.356,1.356,0,0,1,1.22.769h-2.44A1.356,1.356,0,0,1,47.957,1.172ZM53.2,6.454a.665.665,0,0,1-.664.664H48.543V6.41a.586.586,0,1,0-1.172,0v.708H43.383a.665.665,0,0,1-.664-.664v-3.3a.039.039,0,0,1,.039-.039h10.4a.039.039,0,0,1,.039.039Zm5.116-.63H54.367V4.407h5.238a2,2,0,0,1,2,2V22.038Q61.258,22,60.9,22t-.708.035V7.7a1.882,1.882,0,0,0-1.88-1.88ZM60.9,34.945a5.885,5.885,0,1,1,5.885-5.885A5.892,5.892,0,0,1,60.9,34.945Z" fill="#3e5d56"/>
    <path id="Trazado_1001316" data-name="Trazado 1001316" d="M99.4,241.428v1.339a1.212,1.212,0,0,0,1.211,1.211H112.3a1.212,1.212,0,0,0,1.211-1.211v-1.339a1.212,1.212,0,0,0-1.211-1.211H100.61A1.212,1.212,0,0,0,99.4,241.428Zm12.943,0v1.339a.039.039,0,0,1-.039.039H100.61a.039.039,0,0,1-.039-.039v-1.339a.039.039,0,0,1,.039-.039H112.3A.039.039,0,0,1,112.342,241.428Z" transform="translate(-61.088 -221.45)" fill="#3e5d56"/>
    <path id="Trazado_1001317" data-name="Trazado 1001317" d="M300.749,243.977a1.212,1.212,0,0,0,1.211-1.211v-1.339a1.212,1.212,0,0,0-1.211-1.211H299.41a1.212,1.212,0,0,0-1.211,1.211v1.339a1.212,1.212,0,0,0,1.211,1.211Zm-1.378-1.211v-1.339a.039.039,0,0,1,.039-.039h1.339a.039.039,0,0,1,.039.039v1.339a.039.039,0,0,1-.039.039H299.41A.039.039,0,0,1,299.371,242.766Z" transform="translate(-244.357 -221.45)" fill="#3e5d56"/>
    <path id="Trazado_1001318" data-name="Trazado 1001318" d="M99.4,309.033a1.212,1.212,0,0,0,1.211,1.211H112.3a1.212,1.212,0,0,0,1.211-1.211v-1.339a1.212,1.212,0,0,0-1.211-1.211H100.61a1.212,1.212,0,0,0-1.211,1.211Zm1.172-1.339a.039.039,0,0,1,.039-.039H112.3a.039.039,0,0,1,.039.039v1.339a.039.039,0,0,1-.039.039H100.61a.039.039,0,0,1-.039-.039Z" transform="translate(-61.088 -282.54)" fill="#3e5d56"/>
    <path id="Trazado_1001319" data-name="Trazado 1001319" d="M99.4,375.3a1.212,1.212,0,0,0,1.211,1.211H112.3a1.212,1.212,0,0,0,1.211-1.211v-1.339a1.212,1.212,0,0,0-1.211-1.211H100.61a1.212,1.212,0,0,0-1.211,1.211Zm1.172-1.339a.039.039,0,0,1,.039-.039H112.3a.039.039,0,0,1,.039.039V375.3a.039.039,0,0,1-.039.039H100.61a.039.039,0,0,1-.039-.039Z" transform="translate(-61.088 -343.629)" fill="#3e5d56"/>
    <path id="Trazado_1001320" data-name="Trazado 1001320" d="M178.42,124.25h-1.294a1.234,1.234,0,0,0-1.233,1.233v.708h-.708a1.234,1.234,0,0,0-1.233,1.233v1.294a1.234,1.234,0,0,0,1.233,1.233h.708v.708a1.234,1.234,0,0,0,1.233,1.233h1.294a1.234,1.234,0,0,0,1.233-1.233v-.708h.708a1.234,1.234,0,0,0,1.233-1.233v-1.294a1.234,1.234,0,0,0-1.233-1.233h-.708v-.708A1.234,1.234,0,0,0,178.42,124.25Zm1.941,3.113a.061.061,0,0,1,.061.061v1.294a.061.061,0,0,1-.061.061h-.971a.911.911,0,0,0-.91.91v.971a.061.061,0,0,1-.061.061h-1.294a.061.061,0,0,1-.061-.061v-.971a.911.911,0,0,0-.91-.91h-.971a.061.061,0,0,1-.061-.061v-1.294a.061.061,0,0,1,.061-.061h.971a.911.911,0,0,0,.91-.91v-.971a.061.061,0,0,1,.061-.061h1.294a.061.061,0,0,1,.061.061v.971a.911.911,0,0,0,.91.91Z" transform="translate(-129.816 -114.543)" fill="#3e5d56"/>
  </g>
</svg>
