<svg xmlns="http://www.w3.org/2000/svg" width="116" height="116" viewBox="0 0 116 116">
  <g id="Grupo_1180787" data-name="Grupo 1180787" transform="translate(-325.711 -3642)">
    <circle id="Elipse_13820" data-name="Elipse 13820" cx="58" cy="58" r="58" transform="translate(325.711 3642)" fill="#565097"/>
    <g id="Grupo_1180774" data-name="Grupo 1180774">
      <circle id="Elipse_13822" data-name="Elipse 13822" cx="45" cy="45" r="45" transform="translate(338.711 3655)" fill="#fff"/>
      <g id="Grupo_1180773" data-name="Grupo 1180773" transform="translate(324.357 3667.001)">
        <g id="Grupo_1178280" data-name="Grupo 1178280" transform="translate(45.147 0.967)">
          <path id="Trazado_998631" data-name="Trazado 998631" d="M340.933,16.121a4.906,4.906,0,1,1,1.482,4.535" transform="translate(-315.744 -11.552)" fill="#7ca1b1"/>
          <path id="Trazado_998632" data-name="Trazado 998632" d="M367.51,20.988a4.9,4.9,0,0,1-4.979.539,4.833,4.833,0,0,0,.907-.539,4.909,4.909,0,0,0-.905-8.391,4.907,4.907,0,0,1,4.978,8.391Z" transform="translate(-334.561 -11.559)" fill="#678d98"/>
          <path id="Trazado_998633" data-name="Trazado 998633" d="M238.859,28.5l-1.643-3.458A5.436,5.436,0,0,1,228.74,23.2l-2.88-6.612A4.922,4.922,0,0,1,228.377,10L233.2,7.922a4.92,4.92,0,0,1,6.507,2.671l1.594,4.189a6.7,6.7,0,0,1-.182,5.437h0l4.4,4.921Z" transform="translate(-215.085 -7.52)" fill="#ffdfcf"/>
          <path id="Trazado_998634" data-name="Trazado 998634" d="M297.678,25.139,291.018,28.5l2.589-3.358-3.67-4.1a1.771,1.771,0,0,1-.378-1.712,6.7,6.7,0,0,0-.174-4.544l-1.595-4.189a4.906,4.906,0,0,0-2.525-2.632l.091-.039a4.919,4.919,0,0,1,6.506,2.671l1.595,4.189a6.7,6.7,0,0,1-.182,5.436h0Z" transform="translate(-267.242 -7.52)" fill="#ffcebf"/>
          <path id="Trazado_998635" data-name="Trazado 998635" d="M182.1,160.385V148.6a8.008,8.008,0,0,0-8.008-8.008h-.079a8.023,8.023,0,0,0-6.426,3.229c-1.7,2.276-3.635,4.263-5.39,4.523-4.454.661-8.034,7.211-3.8,13.022,0,0-10.529,1.8-12.671,10.638-2.293,9.459,4.873,15.439,4.873,15.439h31.994s.733-9.7-5.621-16.3Z" transform="translate(-145.267 -123.457)" fill="#feaee1"/>
          <path id="Trazado_998636" data-name="Trazado 998636" d="M358.851,171.138l5.132-10.754V148.6a8.008,8.008,0,0,0-8.008-8.008H355.9a7.988,7.988,0,0,0-1.868.222,8.01,8.01,0,0,1,6.139,7.787v11.788l-5.132,10.754c6.354,6.6,5.621,16.3,5.621,16.3h3.817S365.205,177.737,358.851,171.138Z" transform="translate(-327.153 -123.457)" fill="#fe93d3"/>
          <path id="Trazado_998637" data-name="Trazado 998637" d="M237.354,190.566l.022.073a8.685,8.685,0,0,1-9.387,11.124l-14.322-1.778-7.633,1.681a2.263,2.263,0,0,1-2.63-1.485l-.474-1.4a2.263,2.263,0,0,1,.87-2.6l3.594-2.447,1.08-1.925,4.713,1.849,15.241-.438-5.852-14.629a5.377,5.377,0,1,1,10.076-3.7l3.33,11.1Z" transform="translate(-195.403 -150.007)" fill="#ffdfcf"/>
          <path id="Trazado_998638" data-name="Trazado 998638" d="M381.314,201.766l-1.1-.136a8.7,8.7,0,0,0,6.411-10.988c-.007-.024-.015-.049-.022-.073L385.235,186,381.9,174.9a5.352,5.352,0,0,0-3.114-3.43,5.369,5.369,0,0,1,7.186,3.43l3.331,11.1,1.371,4.569c.007.024.015.049.022.073A8.685,8.685,0,0,1,381.314,201.766Z" transform="translate(-348.727 -150.01)" fill="#ffcebf"/>
          <path id="Trazado_998639" data-name="Trazado 998639" d="M239.7,10.6l1.593,4.19c-8.95,5.195-15.439,1.809-15.439,1.809A4.923,4.923,0,0,1,228.376,10L233.2,7.926A4.921,4.921,0,0,1,239.7,10.6Z" transform="translate(-215.084 -7.523)" fill="#7ca1b1"/>
          <path id="Trazado_998640" data-name="Trazado 998640" d="M268.027,14.786a18.766,18.766,0,0,1-11.948,2.765,20.692,20.692,0,0,0,7.876-2.765L262.362,10.6a4.9,4.9,0,0,0-2.527-2.632l.092-.039a4.922,4.922,0,0,1,6.507,2.671Z" transform="translate(-241.814 -7.523)" fill="#678d98"/>
        </g>
        <g id="Grupo_1178281" data-name="Grupo 1178281" transform="translate(30.353 -0.001)">
          <path id="Trazado_998641" data-name="Trazado 998641" d="M144.7,331.173a15.489,15.489,0,0,1-3.11-3.968,14.139,14.139,0,0,1-1.445-10.5c1.11-4.576,4.714-7.123,7.543-8.453a.966.966,0,0,0-.822-1.747c-3.21,1.51-7.308,4.426-8.6,9.745a16.255,16.255,0,0,0,1.673,11.967,17.107,17.107,0,0,0,3.519,4.441.966.966,0,0,0,1.239-1.481Z" transform="translate(-123.963 -266.963)"/>
          <path id="Trazado_998642" data-name="Trazado 998642" d="M231.775,41.32l-4.723-15.743a6.341,6.341,0,0,0-.576-1.334,8.975,8.975,0,0,0-7.01-6.933l-3.425-3.83a7.675,7.675,0,0,0,.426-1.654A5.876,5.876,0,1,0,214.1,3.064,5.885,5.885,0,0,0,206.61.483l-2.464,1.061a.965.965,0,1,0,.764,1.774l2.464-1.061A3.954,3.954,0,0,1,212.6,4.394l1.293,3.4a18.048,18.048,0,0,1-9.7,2.334,12.376,12.376,0,0,1-3.79-.811,3.97,3.97,0,0,1,.71-3.923.965.965,0,1,0-1.468-1.254,5.988,5.988,0,0,0-.869,6.3l2.875,6.6a6.448,6.448,0,0,0,8.978,2.894l.168.354q-.193.226-.373.465c-2.388,3.2-3.9,4.02-4.757,4.147a7.8,7.8,0,0,0-5.8,4.883,9.749,9.749,0,0,0,1.35,9.657.964.964,0,0,0,.631.39,17.856,17.856,0,0,1,5.216,1.615.966.966,0,1,0,1.031-1.633,18.545,18.545,0,0,0-5.531-1.817,7.791,7.791,0,0,1-.916-7.466,5.946,5.946,0,0,1,4.3-3.72c1.787-.266,3.756-1.869,6.02-4.9a7.2,7.2,0,0,1,10.931-.547,6.342,6.342,0,0,0-7.739,8.57l5.333,13.332-13.662.392-4.53-1.777a.966.966,0,0,0-1.195.426l-.969,1.727-3.406,2.319a3.238,3.238,0,0,0-1.242,3.7l.474,1.4a3.223,3.223,0,0,0,3.753,2.119l7.471-1.646,4.021.5a.965.965,0,1,0,.238-1.916l-4.185-.52a.957.957,0,0,0-.327.015L199.3,51.684a1.3,1.3,0,0,1-1.508-.851l-.474-1.4a1.3,1.3,0,0,1,.5-1.488l3.594-2.447a.965.965,0,0,0,.3-.326l.668-1.191,3.93,1.542a.982.982,0,0,0,.38.066l15.241-.438a.965.965,0,0,0,.869-1.324L216.948,29.2l-.012-.028a4.411,4.411,0,1,1,8.267-3.035l4.724,15.745a7.74,7.74,0,0,1-8.343,9.887l-5.711-.709a.966.966,0,0,0-.238,1.916l5.711.709a9.226,9.226,0,0,0,1.611.063,24.279,24.279,0,0,1,2.277,11.132.966.966,0,0,0,.89,1.036c.025,0,.049,0,.074,0a.966.966,0,0,0,.962-.893,25.871,25.871,0,0,0-2.206-11.574,9.676,9.676,0,0,0,6.822-12.127Zm-15.255-38a3.941,3.941,0,1,1-.064,6.261,7.629,7.629,0,0,0-.466-1.7l-.917-2.41a3.929,3.929,0,0,1,1.447-2.15Zm-6.14,14.437a4.551,4.551,0,0,1-6.121-.273,3.854,3.854,0,0,1,1.9-.478.966.966,0,0,0-.014-1.931h-.015a5.784,5.784,0,0,0-2.891.773l-1.821-4.182a15.826,15.826,0,0,0,3.742.436,20.158,20.158,0,0,0,9.353-2.448,5.748,5.748,0,0,1-.468,3.594,1.062,1.062,0,0,0,.184,1.1l2.531,2.831a9.039,9.039,0,0,0-4.479,1.728l-.4-.832a.965.965,0,0,0-1.5-.318Z" transform="translate(-174.084 0.001)"/>
          <path id="Trazado_998643" data-name="Trazado 998643" d="M81.729,237.632a.965.965,0,0,0,1.435.278l1.507-1.187,2.089,3.913a.965.965,0,0,0,1.7-.909L85.832,234.8a.966.966,0,0,0-1.449-.3L82.849,235.7l-2.621-4.572a.966.966,0,0,0-1.675.96Z" transform="translate(-72.236 -200.951)"/>
          <path id="Trazado_998644" data-name="Trazado 998644" d="M159.969,199.958l1.916-.1-.546,4.4a.966.966,0,0,0,.839,1.077,1,1,0,0,0,.12.007.966.966,0,0,0,.957-.847l.688-5.547a.965.965,0,0,0-1.01-1.083l-1.95.1.491-5.247a.966.966,0,1,0-1.923-.18l-.6,6.36a.965.965,0,0,0,1.013,1.054Z" transform="translate(-142.397 -166.994)"/>
          <path id="Trazado_998645" data-name="Trazado 998645" d="M43.44,315.094l-5.045-2.406a.966.966,0,0,0-1.347.615l-.518,1.883-4.822-2.124a.966.966,0,0,0-.778,1.767l5.846,2.575a1.016,1.016,0,0,0,1.32-.627l.509-1.85,4,1.91a.966.966,0,1,0,.831-1.743Z" transform="translate(-30.353 -272.351)"/>
        </g>
      </g>
    </g>
  </g>
</svg>
