<svg xmlns="http://www.w3.org/2000/svg" width="100" height="100" viewBox="0 0 100 100">
  <g id="Grupo_1179897" data-name="Grupo 1179897" transform="translate(-490.273 -3855)">
    <circle id="Elipse_13670" data-name="Elipse 13670" cx="50" cy="50" r="50" transform="translate(490.273 3855)" fill="#bbded6"/>
    <g id="Grupo_1179896" data-name="Grupo 1179896" transform="translate(501.826 3788.199)">
      <g id="Grupo_1179894" data-name="Grupo 1179894" transform="translate(1.139 93.328)">
        <path id="Trazado_1002766" data-name="Trazado 1002766" d="M26.147,290.616a2.573,2.573,0,0,1-1.834-2.465v-4.39h-7.72v4.39a2.574,2.574,0,0,1-1.834,2.465l-4.422,1.327a3.86,3.86,0,0,0-2.751,3.7c0,.546.442,1.612.988,1.612H32.332Z" transform="translate(-7.586 -256.119)" fill="#fbbd80"/>
        <path id="Trazado_1002767" data-name="Trazado 1002767" d="M39.879,288.152v-4.39h-7.72v4.39a2.573,2.573,0,0,1-1.834,2.465L25.9,291.944l1.114,3.7,4.416-1.324a6.422,6.422,0,0,0,3.681-2.883,2.51,2.51,0,0,1,1.936-1.279,12.987,12.987,0,0,0,3.219-.692A2.539,2.539,0,0,1,39.879,288.152Z" transform="translate(-23.152 -256.12)" fill="#f4aa73"/>
        <path id="Trazado_1002768" data-name="Trazado 1002768" d="M30.569,333.348l-2.88-.864a10.285,10.285,0,0,1-14.472,0l-2.88.864a3.86,3.86,0,0,0-2.751,3.7l3.86,7.424H33.32v-7.424h0a3.86,3.86,0,0,0-2.751-3.7Z" transform="translate(-7.586 -297.525)" fill="#8ceea1"/>
        <path id="Trazado_1002769" data-name="Trazado 1002769" d="M13.28,336.5l4.587-1.376a10.282,10.282,0,0,1-4.65-2.635l-2.88.864a3.86,3.86,0,0,0-2.751,3.7v7.424h3.86V338.96A2.573,2.573,0,0,1,13.28,336.5Z" transform="translate(-7.586 -297.525)" fill="#4ce1a1"/>
        <path id="Trazado_1002770" data-name="Trazado 1002770" d="M408.568,291.943l-4.422-1.327a2.573,2.573,0,0,1-1.834-2.465v-4.39h-4.168l-3.293,13.491H410.33c.546,0,.988-1.066.988-1.612A3.86,3.86,0,0,0,408.568,291.943Z" transform="translate(-336.69 -256.119)" fill="#c6805d"/>
        <path id="Trazado_1002771" data-name="Trazado 1002771" d="M371.749,288.152v-4.39h-7.72v4.39a2.573,2.573,0,0,1-1.834,2.465l-3.308,5.022,4.416-1.324a6.421,6.421,0,0,0,3.681-2.883,2.51,2.51,0,0,1,1.936-1.279,12.985,12.985,0,0,0,3.219-.692A2.538,2.538,0,0,1,371.749,288.152Z" transform="translate(-306.127 -256.12)" fill="#af6e4d"/>
        <path id="Trazado_1002772" data-name="Trazado 1002772" d="M362.35,333.349l-2.88-.864a10.285,10.285,0,0,1-14.472,0l-4.532,5.268,2.761,6.717H365.1v-7.424A3.86,3.86,0,0,0,362.35,333.349Z" transform="translate(-290.472 -297.526)" fill="#ffe077"/>
        <path id="Trazado_1002773" data-name="Trazado 1002773" d="M338.844,336.5l4.587-1.376a10.282,10.282,0,0,1-4.65-2.635l-2.88.864a3.86,3.86,0,0,0-2.751,3.7v7.424h3.86V338.96A2.574,2.574,0,0,1,338.844,336.5Z" transform="translate(-284.256 -297.525)" fill="#ffd05b"/>
        <path id="Trazado_1002774" data-name="Trazado 1002774" d="M31.593,129.562h-7.72a7.72,7.72,0,0,0-7.72,7.72v6.433h23.16v-6.433A7.72,7.72,0,0,0,31.593,129.562Z" transform="translate(-14.866 -125.078)" fill="#d48c64"/>
        <path id="Trazado_1002775" data-name="Trazado 1002775" d="M23.873,129.562a7.72,7.72,0,0,0-7.72,7.72v6.433h7.72Z" transform="translate(-14.866 -125.078)" fill="#c6805d"/>
        <path id="Trazado_1002776" data-name="Trazado 1002776" d="M33.286,181.285a2.669,2.669,0,0,0-2.676-2.141H29.461a2.573,2.573,0,0,1-2.286-1.391,2.7,2.7,0,0,0-1.828-1.491l-9.787-1.957a1.287,1.287,0,0,0-1.539,1.262v1a2.573,2.573,0,0,1-2.573,2.573H10.3a2.669,2.669,0,0,0-2.676,2.141,2.575,2.575,0,0,0,2.538,3.006h1.287a9.007,9.007,0,1,0,18.014,0h1.287A2.575,2.575,0,0,0,33.286,181.285Z" transform="translate(-7.587 -163.08)" fill="#ffd18d"/>
        <path id="Trazado_1002777" data-name="Trazado 1002777" d="M10.159,184.291h1.287a8.99,8.99,0,0,0,11.493,8.651c.016-.01.031-.027.048-.033a9.008,9.008,0,0,1-6.394-8.619v-9.779l-1.034-.207a1.287,1.287,0,0,0-1.539,1.262v1a2.573,2.573,0,0,1-2.573,2.573H10.3a2.669,2.669,0,0,0-2.676,2.141A2.575,2.575,0,0,0,10.159,184.291Z" transform="translate(-7.586 -163.08)" fill="#fbbd80"/>
        <path id="Trazado_1002778" data-name="Trazado 1002778" d="M359.8,121c-7.106,0-10.431,5.761-10.431,12.867v2.573l9.144,7.72H370.1a2.573,2.573,0,0,0,2.573-2.573v-7.72A12.867,12.867,0,0,0,359.8,121Z" transform="translate(-298.041 -117.798)" fill="#615260"/>
        <path id="Trazado_1002779" data-name="Trazado 1002779" d="M342.158,124.929a12.871,12.871,0,0,0-9.007,12.276v2.573l9.007,6Z" transform="translate(-284.257 -121.141)" fill="#4e3d4d"/>
        <path id="Trazado_1002780" data-name="Trazado 1002780" d="M368.5,177v.788c-.018.136-1.323,7.312-1.323,7.312,0,5.066,2.932,9.564,8.033,9.411a9.257,9.257,0,0,0,8.73-9.38v0a6.614,6.614,0,0,0-4.522-6.274l-9.225-3.075A1.287,1.287,0,0,0,368.5,177Z" transform="translate(-313.176 -164.297)" fill="#d48c64"/>
        <path id="Trazado_1002781" data-name="Trazado 1002781" d="M342.158,185.508v-9.436l-.88-.293A1.287,1.287,0,0,0,339.585,177v.788a2.573,2.573,0,0,1-2.573,2.573h-1.149a2.669,2.669,0,0,0-2.676,2.141,2.575,2.575,0,0,0,2.538,3.006h1.287a9.007,9.007,0,0,0,9.284,9,8.537,8.537,0,0,0,2.257-.384A9.008,9.008,0,0,1,342.158,185.508Z" transform="translate(-284.257 -164.297)" fill="#c6805d"/>
        <path id="Trazado_1002782" data-name="Trazado 1002782" d="M183.235,120.979a12.867,12.867,0,0,0-12.867,12.867v2.573H196.1v-2.573A12.867,12.867,0,0,0,183.235,120.979Z" transform="translate(-145.921 -117.784)" fill="#845252"/>
        <path id="Trazado_1002783" data-name="Trazado 1002783" d="M179.375,124.914a12.871,12.871,0,0,0-9.007,12.276v2.573h9.007Z" transform="translate(-145.921 -121.128)" fill="#7a4646"/>
        <path id="Trazado_1002784" data-name="Trazado 1002784" d="M193.35,291.944l-4.422-1.327a2.573,2.573,0,0,1-1.834-2.465v-4.39h-7.72v4.39a2.573,2.573,0,0,1-1.834,2.465l-4.422,1.327a3.86,3.86,0,0,0-2.751,3.7c0,.546.442,1.612.988,1.612h23.758c.546,0,.988-1.066.988-1.612h0a3.859,3.859,0,0,0-2.75-3.7Z" transform="translate(-145.92 -256.12)" fill="#e29a6c"/>
        <path id="Trazado_1002785" data-name="Trazado 1002785" d="M202.661,288.152v-4.39h-7.72v4.39a2.573,2.573,0,0,1-1.834,2.465l-4.422,1.327,1.114,3.7,4.416-1.324a6.422,6.422,0,0,0,3.681-2.883,2.51,2.51,0,0,1,1.936-1.279,12.987,12.987,0,0,0,3.219-.692A2.54,2.54,0,0,1,202.661,288.152Z" transform="translate(-161.487 -256.12)" fill="#d48c64"/>
        <path id="Trazado_1002786" data-name="Trazado 1002786" d="M193.35,333.348l-2.88-.864a10.285,10.285,0,0,1-14.472,0l-2.88.864a3.86,3.86,0,0,0-2.751,3.7l3.86,7.424H196.1v-7.424h0A3.859,3.859,0,0,0,193.35,333.348Z" transform="translate(-145.92 -297.525)" fill="#ff7e92"/>
        <path id="Trazado_1002787" data-name="Trazado 1002787" d="M196.068,181.269a2.669,2.669,0,0,0-2.676-2.141h-1.149a2.573,2.573,0,0,1-2.286-1.391,2.7,2.7,0,0,0-1.828-1.491l-9.787-1.957a1.287,1.287,0,0,0-1.539,1.262v1a2.573,2.573,0,0,1-2.573,2.573h-1.149a2.669,2.669,0,0,0-2.676,2.141,2.575,2.575,0,0,0,2.538,3.006h1.287a9.007,9.007,0,1,0,18.014,0h1.287A2.575,2.575,0,0,0,196.068,181.269Z" transform="translate(-145.922 -163.067)" fill="#f4aa73"/>
        <path id="Trazado_1002788" data-name="Trazado 1002788" d="M172.941,184.275h1.287a8.99,8.99,0,0,0,11.493,8.651c.016-.01.031-.027.048-.033a9.008,9.008,0,0,1-6.394-8.619V174.5l-1.034-.207a1.287,1.287,0,0,0-1.539,1.262v1a2.573,2.573,0,0,1-2.573,2.573h-1.149a2.669,2.669,0,0,0-2.676,2.141A2.575,2.575,0,0,0,172.941,184.275Z" transform="translate(-145.921 -163.067)" fill="#e29a6c"/>
        <path id="Trazado_1002789" data-name="Trazado 1002789" d="M205.189,102.9,198,105.991a1.287,1.287,0,0,1-1.795-1.182V101A1.287,1.287,0,0,1,198,99.814Z" transform="translate(-167.879 -99.707)" fill="#ff7e92"/>
        <path id="Trazado_1002790" data-name="Trazado 1002790" d="M256.206,102.9l7.188-3.089a1.287,1.287,0,0,1,1.795,1.182v3.813a1.287,1.287,0,0,1-1.795,1.182Z" transform="translate(-218.867 -99.707)" fill="#ff7e92"/>
        <path id="Trazado_1002791" data-name="Trazado 1002791" d="M176.062,336.5l4.587-1.376a10.282,10.282,0,0,1-4.65-2.635l-2.88.864a3.86,3.86,0,0,0-2.751,3.7v7.424h3.86V338.96A2.573,2.573,0,0,1,176.062,336.5Z" transform="translate(-145.921 -297.525)" fill="#ff5f7a"/>
      </g>
      <g id="Grupo_1179895" data-name="Grupo 1179895" transform="translate(0 92.201)">
        <path id="Trazado_1002792" data-name="Trazado 1002792" d="M224.959,217.427a1.126,1.126,0,0,0-1.126-1.126h-.013a1.126,1.126,0,1,0,1.139,1.126Z" transform="translate(-189.254 -197.663)"/>
        <path id="Trazado_1002793" data-name="Trazado 1002793" d="M275.246,216.3h-.013a1.133,1.133,0,1,0,.013,0Z" transform="translate(-232.946 -197.663)"/>
        <path id="Trazado_1002794" data-name="Trazado 1002794" d="M236.745,252.764a2.681,2.681,0,0,1-3.64,0,1.126,1.126,0,0,0-1.508,1.674,4.933,4.933,0,0,0,6.656,0,1.126,1.126,0,0,0-1.508-1.674Z" transform="translate(-196.499 -228.404)"/>
        <path id="Trazado_1002795" data-name="Trazado 1002795" d="M112.45,218.554a1.133,1.133,0,1,0-.013,0Z" transform="translate(-94.594 -197.663)"/>
        <path id="Trazado_1002796" data-name="Trazado 1002796" d="M62.156,217.427a1.13,1.13,0,1,0-1.133,1.126h.013A1.121,1.121,0,0,0,62.156,217.427Z" transform="translate(-50.901 -197.663)"/>
        <path id="Trazado_1002797" data-name="Trazado 1002797" d="M68.924,254.438a4.933,4.933,0,0,0,6.656,0,1.126,1.126,0,1,0-1.508-1.674,2.681,2.681,0,0,1-3.64,0,1.126,1.126,0,0,0-1.508,1.674Z" transform="translate(-58.257 -228.404)"/>
        <path id="Trazado_1002798" data-name="Trazado 1002798" d="M23.755,124.3a8.833,8.833,0,0,0-5.9-2.253H10.135a8.858,8.858,0,0,0-8.848,8.848v3.673A3.587,3.587,0,0,0,.05,136.712a3.7,3.7,0,0,0,3.65,4.313h.223a10.153,10.153,0,0,0,5.086,7.693v2.006a1.438,1.438,0,0,1-1.032,1.386l-4.423,1.327A4.956,4.956,0,0,0,0,158.215v7.42a1.126,1.126,0,0,0,2.253,0v-7.42A2.718,2.718,0,0,1,4.2,155.6l2.26-.678a11.42,11.42,0,0,0,15.078-.009,1.126,1.126,0,0,0,.5-2.19l-2.027-.608a1.439,1.439,0,0,1-1.032-1.386v-2.018a10.158,10.158,0,0,0,4.728-5.912,1.126,1.126,0,0,0-2.159-.643A7.883,7.883,0,0,1,6.114,139.9a1.126,1.126,0,0,0-1.126-1.126H3.7a1.449,1.449,0,0,1-1.427-1.7,1.559,1.559,0,0,1,1.565-1.2H4.987a3.7,3.7,0,0,0,3.7-3.7v-1.2l11.522,2.3a1.126,1.126,0,1,0,.442-2.209L7.782,128.5a1.127,1.127,0,0,0-1.347,1.1v2.574a1.449,1.449,0,0,1-1.447,1.447H3.838c-.1,0-.2.006-.3.013v-2.747a6.6,6.6,0,0,1,6.6-6.6h7.722a6.583,6.583,0,0,1,4.4,1.679,1.126,1.126,0,1,0,1.5-1.679ZM16.73,149.651v1.074a3.672,3.672,0,0,0,2.161,3.363,9.171,9.171,0,0,1-9.79,0,3.672,3.672,0,0,0,2.16-3.363v-1.067a10.106,10.106,0,0,0,2.734.376A10,10,0,0,0,16.73,149.651Z" transform="translate(0 -117.561)"/>
        <path id="Trazado_1002799" data-name="Trazado 1002799" d="M186.8,98.429V94.615a2.413,2.413,0,0,0-3.366-2.217l-6.758,2.9-6.758-2.9a2.413,2.413,0,0,0-3.366,2.217v3.814a2.412,2.412,0,0,0,.245,1.06,13.978,13.978,0,0,0-4.106,9.9v2.574h0a3.7,3.7,0,0,0,3.7,3.7h.223a10.152,10.152,0,0,0,5.065,7.681v2.018a1.438,1.438,0,0,1-1.032,1.386l-4.423,1.327a4.957,4.957,0,0,0-3.554,4.777v7.42a1.126,1.126,0,1,0,2.253,0v-7.42a2.717,2.717,0,0,1,1.949-2.619l2.26-.678a11.42,11.42,0,0,0,15.069,0l2.26.678a2.718,2.718,0,0,1,1.949,2.619v7.42a1.126,1.126,0,1,0,2.253,0v-7.42a4.956,4.956,0,0,0-3.554-4.777l-4.423-1.327a1.439,1.439,0,0,1-1.032-1.386v-1.994a10.153,10.153,0,0,0,5.106-7.7h.223a3.7,3.7,0,0,0,3.7-3.7h0v-2.574a14.015,14.015,0,0,0-4.12-9.916,2.415,2.415,0,0,0,.239-1.046Zm-2.477-3.962a.16.16,0,0,1,.224.147v3.814a.16.16,0,0,1-.224.147l-4.781-2.055Zm-15.52.147a.152.152,0,0,1,.072-.134.155.155,0,0,1,.087-.028.164.164,0,0,1,.065.014l4.781,2.055-4.781,2.055a.16.16,0,0,1-.224-.147Zm-.146,6.207a2.372,2.372,0,0,0,1.259-.176l6.759-2.9,6.758,2.9a2.383,2.383,0,0,0,1.274.175,11.758,11.758,0,0,1,3.69,7.766,3.942,3.942,0,0,0-1.554-.322H185.7a1.449,1.449,0,0,1-1.447-1.447,1.126,1.126,0,0,0-.905-1.1l-12.869-2.574a1.127,1.127,0,0,0-1.347,1.1v2.574a1.449,1.449,0,0,1-1.447,1.447h-1.149a3.945,3.945,0,0,0-1.557.323,11.729,11.729,0,0,1,3.686-7.765Zm12.9,27.9a9.171,9.171,0,0,1-9.79,0,3.672,3.672,0,0,0,2.16-3.363v-1.072a10.122,10.122,0,0,0,5.469.011v1.062a3.672,3.672,0,0,0,2.16,3.363Zm6.525-15.825a1.446,1.446,0,0,1-1.1.511H185.7a1.126,1.126,0,0,0-1.126,1.126,7.882,7.882,0,0,1-15.764,0,1.126,1.126,0,0,0-1.126-1.126h-1.287a1.449,1.449,0,0,1-1.427-1.7,1.558,1.558,0,0,1,1.565-1.2h1.149a3.7,3.7,0,0,0,3.7-3.7v-1.2l10.739,2.148a3.707,3.707,0,0,0,3.577,2.752h1.149a1.558,1.558,0,0,1,1.565,1.2A1.446,1.446,0,0,1,188.089,112.9Z" transform="translate(-138.243 -92.201)"/>
        <path id="Trazado_1002800" data-name="Trazado 1002800" d="M369.273,138.891h2.482a3.7,3.7,0,0,0,3.7-3.7v-7.722a14,14,0,0,0-23.793-9.994,1.126,1.126,0,1,0,1.577,1.609A11.743,11.743,0,0,1,373.2,127.47v7.722a1.449,1.449,0,0,1-1.447,1.447h-1.108a10.685,10.685,0,0,0,.947-4.4,7.731,7.731,0,0,0-5.293-7.344l-9.226-3.075a2.413,2.413,0,0,0-3.176,2.289v.788a1.126,1.126,0,0,0,2.253,0v-.788a.16.16,0,0,1,.211-.152l9.226,3.075a5.482,5.482,0,0,1,3.753,5.209A8.14,8.14,0,0,1,361.7,140.5a7.894,7.894,0,0,1-7.8-5.626,1.126,1.126,0,0,0-2.159.643,10.121,10.121,0,0,0,4.728,5.924v2.006a1.438,1.438,0,0,1-1.032,1.386l-2.027.608a1.125,1.125,0,0,0,.5,2.19,11.42,11.42,0,0,0,15.078.009l2.26.678a2.718,2.718,0,0,1,1.949,2.619v7.42a1.126,1.126,0,0,0,2.253,0v-7.42a4.956,4.956,0,0,0-3.554-4.777l-4.423-1.327a1.439,1.439,0,0,1-1.032-1.386v-2.069a10.434,10.434,0,0,0,2.827-2.483Zm-2.919,7.914a9.171,9.171,0,0,1-9.79,0,3.672,3.672,0,0,0,2.16-3.363v-1.069a10.117,10.117,0,0,0,2.739.379q.153,0,.306,0a9.574,9.574,0,0,0,2.423-.388v1.083A3.673,3.673,0,0,0,366.354,146.805Z" transform="translate(-298.561 -110.279)"/>
        <path id="Trazado_1002801" data-name="Trazado 1002801" d="M386.78,216.3h-.013a1.133,1.133,0,1,0,.013,0Z" transform="translate(-327.729 -197.663)"/>
        <path id="Trazado_1002802" data-name="Trazado 1002802" d="M439.319,217.427a1.126,1.126,0,0,0-1.126-1.126h-.013a1.126,1.126,0,1,0,1.139,1.126Z" transform="translate(-371.421 -197.663)"/>
        <path id="Trazado_1002803" data-name="Trazado 1002803" d="M399.692,252.764a2.681,2.681,0,0,1-3.64,0,1.126,1.126,0,1,0-1.508,1.674,4.933,4.933,0,0,0,6.655,0,1.126,1.126,0,0,0-1.508-1.674Z" transform="translate(-334.974 -228.404)"/>
      </g>
    </g>
  </g>
</svg>
