<svg xmlns="http://www.w3.org/2000/svg" width="40" height="40.287" viewBox="0 0 40 40.287">
  <g id="Grupo_1179573" data-name="Grupo 1179573" transform="translate(-1.819)">
    <path id="Trazado_1001321" data-name="Trazado 1001321" d="M182.247,233.922a2.113,2.113,0,0,1,2.227,0,.59.59,0,1,0,.574-1.031,3.279,3.279,0,0,0-3.376,0,.59.59,0,0,0,.574,1.031Z" transform="translate(-165.423 -214.135)" fill="#3e5d56"/>
    <path id="Trazado_1001322" data-name="Trazado 1001322" d="M126.388,388.484v-5.543a1.291,1.291,0,0,0-1.29-1.29h-4.27a1.291,1.291,0,0,0-1.29,1.29v3.237l-.83.658a2.4,2.4,0,0,0-.884,1.519l-.446,2.871a.59.59,0,1,0,1.166.181l.446-2.871a1.383,1.383,0,0,1,.548-.852v1.035a.59.59,0,0,0,.59.59h5.36a.147.147,0,0,1,.147.147v1.86a.59.59,0,0,0,1.18,0v-1.86A1.322,1.322,0,0,0,126.388,388.484Zm-5.669-5.543a.11.11,0,0,1,.11-.11h4.27a.11.11,0,0,1,.11.11v5.189h-4.489v-5.189Z" transform="translate(-106.46 -351.621)" fill="#3e5d56"/>
    <path id="Trazado_1001323" data-name="Trazado 1001323" d="M139.894,185.77a.59.59,0,0,0,.59.59h1.981a.59.59,0,0,0,.476-.938l-1.667-2.279a.59.59,0,1,0-.953.7l.98,1.341h-.819A.59.59,0,0,0,139.894,185.77Z" transform="translate(-127.211 -168.509)" fill="#3e5d56"/>
    <path id="Trazado_1001324" data-name="Trazado 1001324" d="M235.874,183.014a.59.59,0,0,0-.825.128l-1.667,2.279a.59.59,0,0,0,.476.938h1.981a.59.59,0,1,0,0-1.18h-.819l.98-1.341A.59.59,0,0,0,235.874,183.014Z" transform="translate(-213.238 -168.509)" fill="#3e5d56"/>
    <path id="Trazado_1001325" data-name="Trazado 1001325" d="M39.833,25.033H37.354a.59.59,0,1,0,0,1.18h2.479a.807.807,0,0,1,.806.806v8.276a.807.807,0,0,1-.806.806H22.988l1.825-1.538a.59.59,0,0,0,.21-.451V27.019a.807.807,0,0,1,.806-.806H34.6a.59.59,0,1,0,0-1.18H25.828a1.989,1.989,0,0,0-1.974,1.77H21.463V24.388h.83a3.916,3.916,0,0,0,3.912-3.912V18.471h.178a2.96,2.96,0,0,0,.186-5.915l1.11-2.209a8.363,8.363,0,0,0,.886-3.736V5.416A5.423,5.423,0,0,0,23.147,0H13.89a2.534,2.534,0,0,0-2.46,1.94H10.011A2.532,2.532,0,0,0,7.481,4.469V6.73a8.378,8.378,0,0,0,.779,3.516l1.076,2.307a2.96,2.96,0,0,0,.156,5.917h.768a.59.59,0,0,0,.59-.59V13.422a11.6,11.6,0,0,0,3.036-3.84,12.655,12.655,0,0,0,1.7,1.49c1.808,1.3,3.579,1.7,5.149,1.173.694.637,2.54,1.956,4.286,1.67v6.561a2.735,2.735,0,0,1-2.732,2.732H13.582a2.73,2.73,0,0,1-2.728-2.583.59.59,0,0,0-1.179.063,3.91,3.91,0,0,0,3.906,3.7h.83V26.8h-7.8A4.8,4.8,0,0,0,1.819,31.6v8.1A.59.59,0,0,0,3,39.7V37.281H8.384V39.7a.59.59,0,0,0,.59.59h0a.59.59,0,0,0,.59-.59V27.983H23.842v5.854l-1.626,1.37a1.175,1.175,0,0,0,.757,2.074H26.31V39.7a.59.59,0,1,0,1.18,0V37.281h5.386V39.7a.59.59,0,1,0,1.18,0V37.281h5.777a1.988,1.988,0,0,0,1.986-1.986V27.019a1.988,1.988,0,0,0-1.986-1.986ZM28.163,15.51a1.782,1.782,0,0,1-1.78,1.78H26.2V13.73h.178A1.782,1.782,0,0,1,28.163,15.51Zm-20.451,0a1.782,1.782,0,0,1,1.78-1.78H9.67v3.56H9.493A1.782,1.782,0,0,1,7.712,15.51ZM21.3,11.151a7.781,7.781,0,0,1-1.81-2.873.59.59,0,0,0-1.133.332,8.025,8.025,0,0,0,1.458,2.647c-2.843.415-5.647-3.136-5.677-3.175a.59.59,0,0,0-1.036.209,9.032,9.032,0,0,1-2.632,3.894L9.331,9.748a7.188,7.188,0,0,1-.669-3.017V4.469A1.35,1.35,0,0,1,10.011,3.12h1.94a.59.59,0,0,0,.59-.59A1.351,1.351,0,0,1,13.89,1.18h9.257a4.241,4.241,0,0,1,4.236,4.236V6.611a7.177,7.177,0,0,1-.76,3.206l-1.432,2.851c-1.826.58-3.874-1.5-3.894-1.518ZM20.282,24.388V26.8h-4.69V24.388ZM3,36.1V31.6a3.617,3.617,0,0,1,3.613-3.613H8.384V36.1H3Z" fill="#3e5d56"/>
    <path id="Trazado_1001326" data-name="Trazado 1001326" d="M318.962,353.052h0a.587.587,0,0,0-.387.145,1.5,1.5,0,0,0-.666-.154,1.807,1.807,0,0,0-1.721,1.917,1.852,1.852,0,0,0,1.692,1.974,1.473,1.473,0,0,0,.81-.243,1.389,1.389,0,0,0,1.009.5,1.879,1.879,0,0,0,1.743-1.235,3.611,3.611,0,0,0,.2-2.391l-.005-.018a4.02,4.02,0,1,0-6.585,4.108.59.59,0,0,0,.8-.865,2.84,2.84,0,1,1,4.65-2.912,2.51,2.51,0,0,1-.158,1.643.714.714,0,0,1-.647.491c-.077-.034-.139-.077-.162-.254l.015-2.105A.59.59,0,0,0,318.962,353.052Zm-1.086,2.7c-.242,0-.512-.326-.512-.794s.275-.736.541-.736.446.286.454.7C318.375,355.255,318.156,355.745,317.876,355.754Z" transform="translate(-287.398 -323.087)" fill="#3e5d56"/>
    <path id="Trazado_1001327" data-name="Trazado 1001327" d="M429.047,358.127a.59.59,0,0,0,.59-.59v-3.609a.59.59,0,1,0-1.18,0v3.609A.59.59,0,0,0,429.047,358.127Z" transform="translate(-393.068 -325.536)" fill="#3e5d56"/>
    <path id="Trazado_1001328" data-name="Trazado 1001328" d="M461.553,358.127a.59.59,0,0,0,.59-.59v-3.609a.59.59,0,1,0-1.18,0v3.609A.59.59,0,0,0,461.553,358.127Z" transform="translate(-423.017 -325.536)" fill="#3e5d56"/>
    <circle id="Elipse_13740" data-name="Elipse 13740" cx="0.59" cy="0.59" r="0.59" transform="translate(35.389 33.334)" fill="#3e5d56"/>
    <circle id="Elipse_13741" data-name="Elipse 13741" cx="0.59" cy="0.59" r="0.59" transform="translate(37.946 33.334)" fill="#3e5d56"/>
    <circle id="Elipse_13742" data-name="Elipse 13742" cx="0.59" cy="0.59" r="0.59" transform="translate(15.914 32.124)" fill="#3e5d56"/>
  </g>
</svg>
