<svg xmlns="http://www.w3.org/2000/svg" width="116" height="116" viewBox="0 0 116 116">
  <g id="Grupo_1180788" data-name="Grupo 1180788" transform="translate(-741.711 -3642)">
    <circle id="Elipse_13823" data-name="Elipse 13823" cx="58" cy="58" r="58" transform="translate(741.711 3642)" fill="#565097"/>
    <g id="Grupo_1180775" data-name="Grupo 1180775" transform="translate(416)">
      <circle id="Elipse_13822" data-name="Elipse 13822" cx="45" cy="45" r="45" transform="translate(338.711 3655)" fill="#fff"/>
      <g id="Layer_46" transform="translate(317.048 3662)">
        <g id="Grupo_1178319" data-name="Grupo 1178319" transform="translate(40.663 0)">
          <g id="Grupo_1178285" data-name="Grupo 1178285" transform="translate(8.309 50.95)">
            <path id="Trazado_998646" data-name="Trazado 998646" d="M103.652,195.16l-.7-12.131a3.282,3.282,0,0,0-2.476-3c-4.035-1.027-4.578-1.123-5.575-1.441-1.064-.339-3.352-1.172-4.08-2.022a2.87,2.87,0,0,1-.692-1.867v-1.354a8.253,8.253,0,0,1-7.665,0V174.7a2.872,2.872,0,0,1-.692,1.867c-.7.818-3.067,1.708-4.077,2.025-.939.294-1.2.325-5.577,1.438a3.283,3.283,0,0,0-2.476,3l-.7,12.131a1.649,1.649,0,0,0,1.646,1.745h31.424a1.649,1.649,0,0,0,1.647-1.745Z" transform="translate(-68.932 -173.345)" fill="#70d6f9"/>
          </g>
          <g id="Grupo_1178286" data-name="Grupo 1178286" transform="translate(19.127 50.95)">
            <path id="Trazado_998647" data-name="Trazado 998647" d="M112.282,182.022a7.22,7.22,0,0,0,6.541-4.208,6.137,6.137,0,0,1-2.017-1.248,2.87,2.87,0,0,1-.692-1.867v-1.354a8.253,8.253,0,0,1-7.665,0V174.7a2.872,2.872,0,0,1-.692,1.867,6.339,6.339,0,0,1-2.019,1.243,7.219,7.219,0,0,0,6.543,4.213Z" transform="translate(-105.739 -173.345)" fill="#f9d0b4"/>
          </g>
          <g id="Grupo_1178287" data-name="Grupo 1178287" transform="translate(8.309 67.319)">
            <path id="Trazado_998648" data-name="Trazado 998648" d="M74.966,229.036H69.252l-.316,5.446a1.649,1.649,0,0,0,1.647,1.745h4.384v-7.191Z" transform="translate(-68.933 -229.036)" fill="#f9d0b4"/>
          </g>
          <g id="Grupo_1178288" data-name="Grupo 1178288" transform="translate(36.998 67.319)">
            <path id="Trazado_998649" data-name="Trazado 998649" d="M172.255,229.036h-5.714v7.191h4.384a1.65,1.65,0,0,0,1.647-1.745Z" transform="translate(-166.541 -229.036)" fill="#f9d0b4"/>
          </g>
          <g id="Grupo_1178289" data-name="Grupo 1178289" transform="translate(17.351 33.155)">
            <path id="Trazado_998650" data-name="Trazado 998650" d="M115.146,113.273a1.524,1.524,0,0,0-2.048-.136,8.355,8.355,0,0,1-10.164-.006,1.524,1.524,0,0,0-2.045.139l0,0a4.3,4.3,0,0,0-1.188,2.968v6.981a8.318,8.318,0,1,0,16.637,0v-6.981A4.3,4.3,0,0,0,115.146,113.273Z" transform="translate(-99.697 -112.802)" fill="#f9d0b4"/>
          </g>
          <g id="Grupo_1178290" data-name="Grupo 1178290" transform="translate(33.968 37.236)">
            <path id="Trazado_998651" data-name="Trazado 998651" d="M156.786,126.686a3.473,3.473,0,0,0-.534.042v6.3c0,.188-.009.373-.021.558a3.471,3.471,0,1,0,.555-6.9Z" transform="translate(-156.231 -126.686)" fill="#f9d0b4"/>
          </g>
          <g id="Grupo_1178291" data-name="Grupo 1178291" transform="translate(13.345 37.236)">
            <path id="Trazado_998652" data-name="Trazado 998652" d="M90.074,133.027v-6.3a3.474,3.474,0,1,0,.021,6.855C90.082,133.4,90.074,133.214,90.074,133.027Z" transform="translate(-86.067 -126.687)" fill="#f9d0b4"/>
          </g>
          <g id="Grupo_1178292" data-name="Grupo 1178292" transform="translate(15.07 24.73)">
            <path id="Trazado_998653" data-name="Trazado 998653" d="M110.823,89.547a.515.515,0,0,1-.524-.493c-.064-4.635-5.357-5.506-10.628-4.6a9.32,9.32,0,0,0-7.736,9.183v3.478a3.437,3.437,0,0,1,2.282-.433V96a4.3,4.3,0,0,1,1.188-2.968l0,0a1.523,1.523,0,0,1,2.045-.139,8.355,8.355,0,0,0,10.164.006,1.524,1.524,0,0,1,2.048.136A4.3,4.3,0,0,1,110.854,96v.684a3.435,3.435,0,0,1,2.3.444V94.274c0-4.151-1.5-4.727-2.332-4.727Z" transform="translate(-91.935 -84.137)" fill="#5b5d60"/>
          </g>
          <g id="Grupo_1178293" data-name="Grupo 1178293" transform="translate(20.975 9.169)">
            <path id="Trazado_998654" data-name="Trazado 998654" d="M114.029,31.194h2.07a.769.769,0,0,1,.746.955l-.678,2.714a.605.605,0,0,0,.587.752h2.554a.605.605,0,0,1,.513.926l-4.066,6.505a.319.319,0,0,1-.584-.226l.671-3.69a.638.638,0,0,0-.628-.752h-2.235a.952.952,0,0,1-.936-1.127l.973-5.217A1.031,1.031,0,0,1,114.029,31.194Z" transform="translate(-112.026 -31.194)" fill="#f5c84c"/>
          </g>
          <g id="Grupo_1178294" data-name="Grupo 1178294" transform="translate(37.563 20.466)">
            <path id="Trazado_998655" data-name="Trazado 998655" d="M170.7,69.632h2.318a.861.861,0,0,1,.835,1.07l-.76,3.039a.678.678,0,0,0,.658.842h2.86a.678.678,0,0,1,.575,1.037l-4.553,7.285a.357.357,0,0,1-.654-.253l.751-4.133a.714.714,0,0,0-.7-.842h-2.5a1.066,1.066,0,0,1-1.048-1.262l1.09-5.842A1.153,1.153,0,0,1,170.7,69.632Z" transform="translate(-168.46 -69.632)" fill="#f5c84c"/>
          </g>
          <g id="Grupo_1178295" data-name="Grupo 1178295" transform="translate(5.231 20.466)">
            <path id="Trazado_998656" data-name="Trazado 998656" d="M60.7,69.632H63.02a.861.861,0,0,1,.835,1.07l-.76,3.039a.678.678,0,0,0,.658.842h2.86a.678.678,0,0,1,.575,1.037l-4.553,7.285a.357.357,0,0,1-.654-.253l.751-4.133a.714.714,0,0,0-.7-.842h-2.5a1.066,1.066,0,0,1-1.048-1.262l1.09-5.842a1.153,1.153,0,0,1,1.134-.942Z" transform="translate(-58.46 -69.632)" fill="#f5c84c"/>
          </g>
          <g id="Grupo_1178296" data-name="Grupo 1178296" transform="translate(10.553 0.735)">
            <path id="Trazado_998657" data-name="Trazado 998657" d="M102.231,9.162a1.272,1.272,0,0,1-1.244-.6,5.241,5.241,0,0,0-5.254-2.507,1.208,1.208,0,0,1-1.171-.5A6.973,6.973,0,0,0,82.289,6.973a1.244,1.244,0,0,1-1.223.774,4.378,4.378,0,0,0-4.477,4.817,4.457,4.457,0,0,0,4.476,3.919H87.1l.878-4.707a1.03,1.03,0,0,1,1.013-.842h2.07a.769.769,0,0,1,.746.955L91.128,14.6a.605.605,0,0,0,.587.752h2.554a.605.605,0,0,1,.513.926l-.126.2h7.838a3.745,3.745,0,0,0,3.78-3.489,3.678,3.678,0,0,0-4.043-3.832Z" transform="translate(-76.566 -2.5)" fill="#818182"/>
          </g>
          <g id="Grupo_1178297" data-name="Grupo 1178297" transform="translate(41.906)">
            <path id="Trazado_998658" data-name="Trazado 998658" d="M186.993,1.815A2.291,2.291,0,0,1,185.171.022c0-.029-.088-.029-.088,0a2.291,2.291,0,0,1-1.822,1.793c-.029,0-.029.059,0,.088A2.291,2.291,0,0,1,185.082,3.7c0,.029.088.029.088,0A2.291,2.291,0,0,1,186.993,1.9c.029-.029.029-.088,0-.088Z" transform="translate(-183.238 0)" fill="#fc657e"/>
          </g>
          <g id="Grupo_1178298" data-name="Grupo 1178298" transform="translate(45.601 39.856)">
            <path id="Trazado_998659" data-name="Trazado 998659" d="M196.75,139.1h.676v.676a.929.929,0,0,0,.941.941.941.941,0,0,0,.941-.911V139.1h.676a.929.929,0,0,0,.941-.941.941.941,0,0,0-.911-.941h-.705v-.676a.929.929,0,0,0-.941-.941.941.941,0,0,0-.941.911v.705h-.676a.929.929,0,0,0-.941.941.91.91,0,0,0,.941.941Z" transform="translate(-195.808 -135.6)" fill="#70d6f9"/>
          </g>
          <g id="Grupo_1178299" data-name="Grupo 1178299" transform="translate(50.658 30.127)">
            <circle id="Elipse_13692" data-name="Elipse 13692" cx="0.999" cy="0.999" r="0.999" fill="#f5c84c"/>
          </g>
          <g id="Grupo_1178300" data-name="Grupo 1178300" transform="translate(5.393 52.318)">
            <circle id="Elipse_13693" data-name="Elipse 13693" cx="0.999" cy="0.999" r="0.999" fill="#87d147"/>
          </g>
          <g id="Grupo_1178301" data-name="Grupo 1178301" transform="translate(0 39.783)">
            <path id="Trazado_998660" data-name="Trazado 998660" d="M40.707,137.951a3.262,3.262,0,0,0,2.616-2.557c0-.059.118-.059.118,0a3.262,3.262,0,0,0,2.616,2.557c.059,0,.059.088,0,.118a3.262,3.262,0,0,0-2.616,2.557c0,.059-.118.059-.118,0a3.262,3.262,0,0,0-2.616-2.557C40.648,138.039,40.648,137.951,40.707,137.951Z" transform="translate(-40.663 -135.35)" fill="#f5c84c"/>
          </g>
          <g id="Grupo_1178302" data-name="Grupo 1178302" transform="translate(22.651 45.184)">
            <path id="Trazado_998661" data-name="Trazado 998661" d="M123.032,156.176a.733.733,0,0,1-.563-.263,2.427,2.427,0,0,0-3.444,0,.735.735,0,0,1-1.126-.944,3.887,3.887,0,0,1,5.7,0,.735.735,0,0,1-.563,1.207Z" transform="translate(-117.727 -153.727)"/>
          </g>
          <g id="Grupo_1178303" data-name="Grupo 1178303" transform="translate(36.264 62.514)">
            <path id="Trazado_998662" data-name="Trazado 998662" d="M164.776,225.229a.735.735,0,0,1-.735-.735V213.422a.735.735,0,1,1,1.47,0v11.073A.735.735,0,0,1,164.776,225.229Z" transform="translate(-164.041 -212.687)"/>
          </g>
          <g id="Grupo_1178304" data-name="Grupo 1178304" transform="translate(13.607 62.514)">
            <path id="Trazado_998663" data-name="Trazado 998663" d="M87.694,225.229a.735.735,0,0,1-.735-.735V213.422a.735.735,0,1,1,1.47,0v11.073A.735.735,0,0,1,87.694,225.229Z" transform="translate(-86.959 -212.687)"/>
          </g>
          <g id="Grupo_1178305" data-name="Grupo 1178305" transform="translate(27.708 39.36)">
            <path id="Trazado_998664" data-name="Trazado 998664" d="M138.073,136.422a.728.728,0,0,1-.291-.06l-2.408-1.038a.735.735,0,0,1,.582-1.35l2.408,1.038a.735.735,0,0,1-.291,1.41Z" transform="translate(-134.931 -133.914)"/>
          </g>
          <g id="Grupo_1178306" data-name="Grupo 1178306" transform="translate(19.756 39.361)">
            <path id="Trazado_998665" data-name="Trazado 998665" d="M108.612,136.423a.735.735,0,0,1-.291-1.41l2.408-1.038a.735.735,0,0,1,.582,1.35l-2.408,1.038a.733.733,0,0,1-.291.06Z" transform="translate(-107.876 -133.915)"/>
          </g>
          <g id="Grupo_1178307" data-name="Grupo 1178307" transform="translate(7.574 50.216)">
            <path id="Trazado_998666" data-name="Trazado 998666" d="M100.241,195.875H68.816a2.384,2.384,0,0,1-2.38-2.522l.7-12.131a4,4,0,0,1,3.03-3.671c1.6-.407,2.654-.67,3.39-.853,1.272-.317,1.573-.393,2.148-.573a11.289,11.289,0,0,0,3.738-1.8,2.141,2.141,0,0,0,.516-1.39v-1.354a.735.735,0,0,1,1.076-.651,7.517,7.517,0,0,0,6.983,0,.735.735,0,0,1,1.076.651v1.354a2.14,2.14,0,0,0,.516,1.389,10.759,10.759,0,0,0,3.744,1.8c.615.2,1.05.3,2.343.626.732.183,1.734.432,3.19.8a4,4,0,0,1,3.029,3.672l.7,12.129a2.383,2.383,0,0,1-2.38,2.522Zm-18.81-23.167v.227a3.611,3.611,0,0,1-.869,2.345c-.981,1.147-4.067,2.139-4.415,2.248-.616.193-.958.278-2.231.6-.734.183-1.784.445-3.385.852a2.537,2.537,0,0,0-1.923,2.329l-.7,12.132a.914.914,0,0,0,.913.968H100.24a.914.914,0,0,0,.913-.967l-.7-12.13a2.537,2.537,0,0,0-1.922-2.331c-1.454-.37-2.454-.619-3.185-.8-1.291-.321-1.774-.441-2.433-.652-1.031-.328-3.525-1.2-4.415-2.244a3.611,3.611,0,0,1-.869-2.345v-.227A9.082,9.082,0,0,1,81.431,172.707Z" transform="translate(-66.433 -170.846)"/>
          </g>
          <g id="Grupo_1178308" data-name="Grupo 1178308" transform="translate(18.392 50.215)">
            <path id="Trazado_998667" data-name="Trazado 998667" d="M110.516,180.991a7.968,7.968,0,0,1-7.211-4.64.735.735,0,0,1,.369-.978,5.224,5.224,0,0,0,1.759-1.049,2.141,2.141,0,0,0,.516-1.39V171.58a.735.735,0,0,1,1.076-.651,7.517,7.517,0,0,0,6.983,0,.735.735,0,0,1,1.076.651v1.354a2.14,2.14,0,0,0,.516,1.389,5.088,5.088,0,0,0,1.754,1.053.735.735,0,0,1,.372.98,7.97,7.97,0,0,1-7.209,4.635Zm-5.536-4.612a6.447,6.447,0,0,0,11.068.006,5.114,5.114,0,0,1-1.566-1.106,3.611,3.611,0,0,1-.869-2.345v-.227a9.085,9.085,0,0,1-6.2,0v.227a3.611,3.611,0,0,1-.869,2.345,5.161,5.161,0,0,1-1.57,1.1Z" transform="translate(-103.238 -170.845)"/>
          </g>
          <g id="Grupo_1178309" data-name="Grupo 1178309" transform="translate(7.575 66.584)">
            <path id="Trazado_998668" data-name="Trazado 998668" d="M73.2,235.2H68.817a2.384,2.384,0,0,1-2.38-2.522l.316-5.446a.735.735,0,0,1,.734-.692H73.2a.735.735,0,0,1,.735.735v7.191A.735.735,0,0,1,73.2,235.2Zm-5.021-7.191-.276,4.754a.914.914,0,0,0,.913.968h3.649v-5.721H68.18Z" transform="translate(-66.434 -226.536)"/>
          </g>
          <g id="Grupo_1178310" data-name="Grupo 1178310" transform="translate(36.264 66.584)">
            <path id="Trazado_998669" data-name="Trazado 998669" d="M169.16,235.2h-4.384a.735.735,0,0,1-.735-.735v-7.191a.735.735,0,0,1,.735-.735h5.714a.735.735,0,0,1,.734.692l.316,5.446a2.384,2.384,0,0,1-2.38,2.522Zm-3.649-1.47h3.649a.914.914,0,0,0,.913-.967l-.276-4.754h-4.286Z" transform="translate(-164.041 -226.536)"/>
          </g>
          <g id="Grupo_1178311" data-name="Grupo 1178311" transform="translate(16.617 32.419)">
            <path id="Trazado_998670" data-name="Trazado 998670" d="M106.252,130.507a9.063,9.063,0,0,1-9.053-9.053v-6.981A5.014,5.014,0,0,1,98.59,111a2.253,2.253,0,0,1,3.032-.214,7.62,7.62,0,0,0,9.258.006,2.252,2.252,0,0,1,3.034.207,5.015,5.015,0,0,1,1.391,3.475v6.981A9.064,9.064,0,0,1,106.252,130.507Zm-6.032-18.739a.775.775,0,0,0-.563.24,3.554,3.554,0,0,0-.988,2.464v6.981a7.584,7.584,0,1,0,15.167,0v-6.981a3.551,3.551,0,0,0-.985-2.461.789.789,0,0,0-1.063-.066,9.089,9.089,0,0,1-11.071,0A.807.807,0,0,0,100.22,111.768Z" transform="translate(-97.199 -110.296)"/>
          </g>
          <g id="Grupo_1178312" data-name="Grupo 1178312" transform="translate(33.233 36.501)">
            <path id="Trazado_998671" data-name="Trazado 998671" d="M155.02,132.6a4.175,4.175,0,0,1-.672-.058.735.735,0,0,1-.616-.775c.011-.168.019-.337.019-.508v-6.3a.735.735,0,0,1,.622-.726,4.207,4.207,0,1,1,.647,8.365Zm.2-6.939v5.462a2.738,2.738,0,0,0,0-5.462Z" transform="translate(-153.73 -124.186)"/>
          </g>
          <g id="Grupo_1178313" data-name="Grupo 1178313" transform="translate(12.61 36.501)">
            <path id="Trazado_998672" data-name="Trazado 998672" d="M87.774,132.6a4.208,4.208,0,1,1,0-8.416,4.279,4.279,0,0,1,.646.051.735.735,0,0,1,.622.726v6.3c0,.171.008.34.019.508a.735.735,0,0,1-.615.775,4.2,4.2,0,0,1-.673.058Zm-.2-6.939a2.738,2.738,0,0,0,0,5.462Z" transform="translate(-83.566 -124.186)"/>
          </g>
          <g id="Grupo_1178314" data-name="Grupo 1178314" transform="translate(14.335 23.991)">
            <path id="Trazado_998673" data-name="Trazado 998673" d="M111.388,96.091a.735.735,0,0,1-.375-.1,2.731,2.731,0,0,0-1.392-.384,2.767,2.767,0,0,0-.421.034.735.735,0,0,1-.847-.726v-.684a3.551,3.551,0,0,0-.985-2.461A.789.789,0,0,0,106.3,91.7a9.089,9.089,0,0,1-11.071,0,.788.788,0,0,0-1.06.067,3.554,3.554,0,0,0-.988,2.464v.684a.735.735,0,0,1-.847.726,2.767,2.767,0,0,0-.421-.034,2.732,2.732,0,0,0-1.377.375.735.735,0,0,1-1.106-.634V91.866a10.034,10.034,0,0,1,8.345-9.907c2.487-.43,7.055-.823,9.7,1.37a4.923,4.923,0,0,1,1.785,3.716c1.155.087,2.862.975,2.862,5.454v2.855a.734.734,0,0,1-.371.638.723.723,0,0,1-.363.1Zm-1.566-1.951a4.176,4.176,0,0,1,.832.125V92.5c0-2.5-.6-3.992-1.6-3.992A1.252,1.252,0,0,1,107.8,87.29a3.517,3.517,0,0,0-1.261-2.829c-1.6-1.326-4.7-1.71-8.507-1.053A8.567,8.567,0,0,0,90.9,91.867v2.393a4.171,4.171,0,0,1,.813-.12,5.013,5.013,0,0,1,1.391-3.387,2.253,2.253,0,0,1,3.032-.214,7.62,7.62,0,0,0,9.258.006,2.252,2.252,0,0,1,3.034.207A5.017,5.017,0,0,1,109.822,94.139Zm-.554-6.869h0Z" transform="translate(-89.434 -81.625)"/>
          </g>
          <g id="Grupo_1178315" data-name="Grupo 1178315" transform="translate(20.24 8.434)">
            <path id="Trazado_998674" data-name="Trazado 998674" d="M113.726,42.169a1.072,1.072,0,0,1-.387-.073,1.043,1.043,0,0,1-.657-1.171l.65-3.576h-2.119a1.687,1.687,0,0,1-1.659-2l.973-5.217a1.766,1.766,0,0,1,1.735-1.442h2.07a1.5,1.5,0,0,1,1.459,1.868l-.638,2.553h2.388a1.34,1.34,0,0,1,1.137,2.05l-4.066,6.506A1.042,1.042,0,0,1,113.726,42.169Zm-1.463-12.006a.3.3,0,0,0-.291.242L111,35.621a.217.217,0,0,0,.214.257h2.235A1.373,1.373,0,0,1,114.8,37.5l-.283,1.556,2.792-4.468h-2.321a1.34,1.34,0,0,1-1.3-1.665l.679-2.714a.03.03,0,0,0-.006-.029.03.03,0,0,0-.027-.013h-2.07Zm1.185,7.185h0Zm4.093-2.763h0Z" transform="translate(-109.526 -28.694)"/>
          </g>
          <g id="Grupo_1178316" data-name="Grupo 1178316" transform="translate(36.827 19.731)">
            <path id="Trazado_998675" data-name="Trazado 998675" d="M170.573,82.045a1.112,1.112,0,0,1-.4-.076,1.08,1.08,0,0,1-.68-1.214l.747-4.108H167.76a1.8,1.8,0,0,1-1.771-2.132l1.09-5.842a1.889,1.889,0,0,1,1.857-1.543h2.318a1.6,1.6,0,0,1,1.548,1.983l-.742,2.969h2.787a1.413,1.413,0,0,1,1.2,2.161l-4.553,7.285a1.079,1.079,0,0,1-.919.516ZM168.936,68.6a.419.419,0,0,0-.412.342l-1.09,5.842a.331.331,0,0,0,.326.392h2.5a1.449,1.449,0,0,1,1.426,1.708l-.4,2.194,3.454-5.528h-2.757a1.413,1.413,0,0,1-1.371-1.755l.76-3.039a.123.123,0,0,0-.023-.108.121.121,0,0,0-.1-.049h-2.317Zm1.327,8.046h0Zm4.584-3.094h0Z" transform="translate(-165.959 -67.131)"/>
          </g>
          <g id="Grupo_1178317" data-name="Grupo 1178317" transform="translate(4.496 19.731)">
            <path id="Trazado_998676" data-name="Trazado 998676" d="M60.573,82.045a1.112,1.112,0,0,1-.4-.076,1.08,1.08,0,0,1-.68-1.214l.747-4.108H57.76a1.8,1.8,0,0,1-1.771-2.132l1.09-5.842a1.889,1.889,0,0,1,1.857-1.543h2.318A1.6,1.6,0,0,1,62.8,69.114l-.742,2.969h2.787a1.413,1.413,0,0,1,1.2,2.161l-4.553,7.285a1.079,1.079,0,0,1-.919.516ZM58.936,68.6a.419.419,0,0,0-.412.342l-1.09,5.842a.331.331,0,0,0,.326.392h2.5a1.449,1.449,0,0,1,1.426,1.708l-.4,2.194,3.454-5.528H61.987A1.413,1.413,0,0,1,60.616,71.8l.76-3.039a.123.123,0,0,0-.023-.108.121.121,0,0,0-.1-.049H58.936Zm1.327,8.046h0Zm4.584-3.094h0Z" transform="translate(-55.959 -67.131)"/>
          </g>
          <g id="Grupo_1178318" data-name="Grupo 1178318" transform="translate(9.819 0)">
            <path id="Trazado_998677" data-name="Trazado 998677" d="M100.731,15.452H92.893a.735.735,0,0,1-.623-1.124l0,0H89.952a1.34,1.34,0,0,1-1.3-1.665l.679-2.714a.03.03,0,0,0-.006-.029A.03.03,0,0,0,89.3,9.9h-2.07a.3.3,0,0,0-.291.241l-.878,4.707a.735.735,0,0,1-.722.6H79.3a5.221,5.221,0,0,1-5.207-4.58,5.113,5.113,0,0,1,5.234-5.625.513.513,0,0,0,.513-.306A7.708,7.708,0,0,1,93.4,3.366a.473.473,0,0,0,.457.193,5.947,5.947,0,0,1,5.993,2.858.541.541,0,0,0,.533.25,4.413,4.413,0,0,1,4.857,4.6,4.458,4.458,0,0,1-4.513,4.188Zm-6.9-1.47h6.9a3.028,3.028,0,0,0,3.046-2.789,2.944,2.944,0,0,0-3.23-3.066,2,2,0,0,1-1.953-.957,4.483,4.483,0,0,0-4.516-2.158A1.95,1.95,0,0,1,92.193,4.2,6.239,6.239,0,0,0,81.21,5.475a1.985,1.985,0,0,1-1.933,1.242,3.643,3.643,0,0,0-3.72,4.008A3.738,3.738,0,0,0,79.3,13.982h5.425l.766-4.107a1.766,1.766,0,0,1,1.735-1.441H89.3A1.5,1.5,0,0,1,90.756,10.3l-.638,2.553h2.388a1.339,1.339,0,0,1,1.323,1.127ZM100.467,7.4h0Z" transform="translate(-74.068 0)"/>
          </g>
        </g>
      </g>
    </g>
  </g>
</svg>
