<svg xmlns="http://www.w3.org/2000/svg" width="84" height="84" viewBox="0 0 84 84">
  <g id="Grupo_1177874" data-name="Grupo 1177874" transform="translate(-706 -1685.277)">
    <g id="Grupo_1177731" data-name="Grupo 1177731" transform="translate(706 1685.277)">
      <g id="Grupo_1119665" data-name="Grupo 1119665" transform="translate(0 0)">
        <path id="Trazado_991847" data-name="Trazado 991847" d="M5,0H79a5,5,0,0,1,5,5V79a5,5,0,0,1-5,5H5a5,5,0,0,1-5-5V5A5,5,0,0,1,5,0Z" fill="#773b3d"/>
      </g>
      <g id="Grupo_1179049" data-name="Grupo 1179049" transform="translate(10.914 10.794)">
        <path id="Trazado_999890" data-name="Trazado 999890" d="M23.87,32.744l.583-2.332H13.891l.583,2.332a4.843,4.843,0,0,0,9.4,0Zm-7.413-.332h5.43a2.843,2.843,0,0,1-5.43,0Z" fill="#fff5c1"/>
        <path id="Trazado_999891" data-name="Trazado 999891" d="M16.172,24.412a4,4,0,1,0-8,0h2a2,2,0,0,1,4,0Z" fill="#fff5c1"/>
        <path id="Trazado_999892" data-name="Trazado 999892" d="M26.172,22.412a2,2,0,0,1,2,2h2a4,4,0,0,0-8,0h2A2,2,0,0,1,26.172,22.412Z" fill="#fff5c1"/>
        <path id="Trazado_999893" data-name="Trazado 999893" d="M54.172,31a1.986,1.986,0,0,0-1.414-.586H42.172a2,2,0,0,0-2,2v6H29.335a14.946,14.946,0,0,0,4.786-10h.051a3.985,3.985,0,0,0,2.437-7.149l.938-2.813A12.186,12.186,0,0,0,25.987,2.411H20.452A50.938,50.938,0,0,1,6.447.449L4.87,0,5.995,5.628.8,6.667,2.85,11.8,0,12.749l1.868,8.4a3.993,3.993,0,0,0,2.3,7.259h.051a15.017,15.017,0,0,0,10.32,13.261,6.042,6.042,0,0,0-2.37,4.793V62.412h16v-6h4l.03,0,.231.751A6.185,6.185,0,0,0,36.383,61.2l1.3.434.842-1.684a6.176,6.176,0,0,0,.379-4.578l-2.758-8.962h4.031v4a2,2,0,0,0,2,2h14a2,2,0,0,0,2-2V35.826a2.011,2.011,0,0,0-.586-1.414Zm-1,1.828,2.586,2.586H53.172Zm-17,7.586v4H35.5a3.291,3.291,0,0,0-6.055,0H27.487a7.029,7.029,0,0,0-2.821-3.056,14.816,14.816,0,0,0,1.957-.944Zm-4,14h-2v-4h2a2,2,0,0,1,0,4ZM24.1,45a6.035,6.035,0,0,0-1.1-2.23,5,5,0,0,1,3.176,4.644v1H24.953Zm3.993,1.414H29.2a3.254,3.254,0,0,0,.12.625l.423,1.375H28.172v-1a7.026,7.026,0,0,0-.08-1Zm4.08,2h-.339l-.6-1.962a1.319,1.319,0,0,1-.058-.384v-.354a1.3,1.3,0,0,1,2.544-.383l1.325,4.305A3.985,3.985,0,0,0,32.172,48.412Zm2-22v-4a2,2,0,0,1,0,4Zm-32-2a2,2,0,0,1,2-2v4A2,2,0,0,1,2.172,24.412Zm2-4.227v.228a3.715,3.715,0,0,0-.411.042L2.344,14.077l3.15-1.05L3.547,8.157l4.8-.961-.88-4.4A52.985,52.985,0,0,0,20.452,4.412h5.535A10.187,10.187,0,0,1,35.65,17.818l-.885,2.655a4,4,0,0,0-.593-.06v-3A6.877,6.877,0,0,0,29.83,11l-1.286-.515L27.8,12.341l1.286.515a4.878,4.878,0,0,1,2.979,3.532,21.29,21.29,0,0,1-9.529-2.776L18.76,11.455l1.159,5.794-.837-.1A10.915,10.915,0,0,1,11.029,11.9L9.314,12.928A13.234,13.234,0,0,0,10.357,14.4L7.416,15.5a5.021,5.021,0,0,0-3.244,4.681Zm2,7.227V20.184a3.015,3.015,0,0,1,1.947-2.81l3.743-1.4a12.889,12.889,0,0,0,6.972,3.156l3.59.448-.841-4.206a23.316,23.316,0,0,0,10.588,3.01v9.032a13,13,0,1,1-26,0Zm12.054,15a4.05,4.05,0,0,1,3.933,3.07l.906,3.623-1.6,1.6,1.414,1.414,1.707-1.707h3.586v4H22.118a7.955,7.955,0,0,1-7.946-7.946,4.058,4.058,0,0,1,4.054-4.054Zm7.946,18h-12V52.423a9.924,9.924,0,0,0,7.946,3.989h4.054Zm11-3.222a4.188,4.188,0,0,1-.441,1.867l-.058.116a4.185,4.185,0,0,1-2.329-2.6l-.214-.694A3.987,3.987,0,0,0,36.1,53.088l.884,2.873A4.165,4.165,0,0,1,37.172,57.19Zm3-14.778v2h-2v-4h5a1,1,0,0,1,0,2Zm2,8v-6h1a3,3,0,0,0,0-6h-1v-6h9v3a2,2,0,0,0,2,2h3v13Z" fill="#fff5c1"/>
        <path id="Trazado_999894" data-name="Trazado 999894" d="M52.354,47.2a3.447,3.447,0,0,0-2.208-.791h-.171a2.917,2.917,0,0,0-1.8.617,2.939,2.939,0,0,0-4.43,1.007l-.464.929,1.789.9.464-.929a.966.966,0,0,1,1.5-.244l1.14,1.14,1.14-1.14a.932.932,0,0,1,.663-.274h.171a1.462,1.462,0,0,1,1.044.433,1.538,1.538,0,0,0,1.777.288l1.652-.826-.9-1.789Z" fill="#fff5c1"/>
        <path id="Trazado_999895" data-name="Trazado 999895" d="M44.172,34.412h5v2h-5Z" fill="#fff5c1"/>
        <path id="Trazado_999896" data-name="Trazado 999896" d="M48.172,38.412h6v2h-6Z" fill="#fff5c1"/>
        <path id="Trazado_999897" data-name="Trazado 999897" d="M48.172,42.412h6v2h-6Z" fill="#fff5c1"/>
        <path id="Trazado_999898" data-name="Trazado 999898" d="M60.172,6.412h-18a2,2,0,0,0-2,2v12a2,2,0,0,0,2,2h6.219l.568,2.273a2.281,2.281,0,0,0,4.426,0l.568-2.272h6.219a2,2,0,0,0,2-2v-12a2,2,0,0,0-2-2Zm0,14H52.391L51.444,24.2a.292.292,0,0,1-.545,0l-.947-3.788H42.171v-12h18v12Z" fill="#fff5c1"/>
        <path id="Trazado_999899" data-name="Trazado 999899" d="M42.172,56.412h2v2h-2Z" fill="#fff5c1"/>
        <path id="Trazado_999900" data-name="Trazado 999900" d="M46.172,56.412h2v2h-2Z" fill="#fff5c1"/>
        <path id="Trazado_999901" data-name="Trazado 999901" d="M50.172,56.412h2v2h-2Z" fill="#fff5c1"/>
        <path id="Trazado_999902" data-name="Trazado 999902" d="M54.172,56.412h2v2h-2Z" fill="#fff5c1"/>
        <path id="Trazado_999903" data-name="Trazado 999903" d="M45.671,13.649a.447.447,0,0,1,.8.088l.441,1.766a2.52,2.52,0,0,0,4.541.787l.872-1.309.9.9a2.473,2.473,0,0,0,1.961.731,2.515,2.515,0,0,0,1.836-1l1.949-2.6-1.6-1.2-1.949,2.6a.518.518,0,0,1-.378.207.545.545,0,0,1-.4-.151l-.9-.9a2,2,0,0,0-3.079.3l-.872,1.309a.541.541,0,0,1-.937-.162l-.441-1.766a2.429,2.429,0,0,0-4.53-.5l-.6,1.21,1.789.895Z" fill="#fff5c1"/>
      </g>
    </g>
  </g>
</svg>
