<svg xmlns="http://www.w3.org/2000/svg" width="84" height="84" viewBox="0 0 84 84">
  <g id="Grupo_1179450" data-name="Grupo 1179450" transform="translate(-528.34 -353)">
    <rect id="Rectángulo_455021" data-name="Rectángulo 455021" width="84" height="84" rx="10" transform="translate(528.34 353)" fill="#99bfb7"/>
    <g id="Grupo_1179449" data-name="Grupo 1179449" transform="translate(512.601 359.75)">
      <g id="Grupo_1179447" data-name="Grupo 1179447" transform="translate(27.112 1.028)">
        <path id="Trazado_1000393" data-name="Trazado 1000393" d="M211.554,224.364a5.563,5.563,0,0,1,4.458-2.236h6.4v4.66h-7.751Z" transform="translate(-187.045 -192.567)" fill="#ffc7b6"/>
        <path id="Trazado_1000394" data-name="Trazado 1000394" d="M281.189,71.821l-.152-30.047,7.673-9.314a3.315,3.315,0,0,0,.751-2.1V25.081l-.284-6.962a5.549,5.549,0,0,0-.824-2.91l-2.675-5.514c-.637-1.034-1.922-1.962-2.991-1.429q-.078.039-.154.084l-.048.029a2.381,2.381,0,0,0-.971,3.005c.84,1.914,2.035,4.667,2.331,5.348a.824.824,0,0,1,.068.328v3.563l-3.087,2.143-2.156,2.488a40.964,40.964,0,0,1-4.32,4.293,9.635,9.635,0,0,0-3.37,7.321v4.907L271,61.247v10.8Z" transform="translate(-238.285 -8.021)" fill="#e88f77"/>
        <path id="Trazado_1000395" data-name="Trazado 1000395" d="M339.121,17.117V30.26a3.317,3.317,0,0,1-.751,2.1l-7.26,8.86V58.6l3.328,6.383-3.328,6.267-3.167.072V41.6a4.132,4.132,0,0,1,.935-2.618L335.2,31.26a3.317,3.317,0,0,0,.751-2.1V16.015a5.544,5.544,0,0,0-.825-2.91l-3.322-5.391a2.326,2.326,0,0,1,3.02.863l3.469,5.63A5.542,5.542,0,0,1,339.121,17.117Z" transform="translate(-287.406 -7.469)" fill="#e08369"/>
        <path id="Trazado_1000396" data-name="Trazado 1000396" d="M103.688,247.638l.262-.019q0-.091-.007-.18a2.434,2.434,0,0,0-2.427-2.254c1.408-.425,2.095-1.089,2.095-2.434,0-.061.337-.121.333-.181a2.434,2.434,0,0,0-2.427-2.254H84.42l-5.352-1.956a10.061,10.061,0,0,1-8.063,4.043H57.91l2.439,12.532H73.675a10.062,10.062,0,0,1,4.5,1.062l2.529,1.264a10.9,10.9,0,0,0,4.875,1.151l12.715.413v-3.9l2.738-.246a2.456,2.456,0,0,0,2.683-2.177c0-.061.233-.132.229-.191a2.434,2.434,0,0,0-2.427-2.254c1.431-.538,2.172-1.071,2.172-2.415Z" transform="translate(-54.559 -206.565)" fill="#ffdcd0"/>
        <g id="Grupo_1179446" data-name="Grupo 1179446" transform="translate(5.307 36.007)">
          <path id="Trazado_1000397" data-name="Trazado 1000397" d="M110.54,352.2v2.754H97.825a10.89,10.89,0,0,1-4.874-1.151l-2.53-1.264a10.062,10.062,0,0,0-4.5-1.062H72.6l-.483-2.754H87.3a10.062,10.062,0,0,1,4.5,1.062l2.53,1.264A10.891,10.891,0,0,0,99.2,352.2Z" transform="translate(-72.113 -337.738)" fill="#ffc7b6"/>
          <path id="Trazado_1000398" data-name="Trazado 1000398" d="M311.963,270.243a1.307,1.307,0,0,1,1.307-1.307h9.74c0,.059.007.12.007.18a2.433,2.433,0,0,1-2.433,2.433H313.27A1.306,1.306,0,0,1,311.963,270.243Z" transform="translate(-278.933 -268.936)" fill="#ffc7b6"/>
          <path id="Trazado_1000399" data-name="Trazado 1000399" d="M323.01,304.286c0,.059.007.12.007.18a2.433,2.433,0,0,1-2.435,2.433H313.27a1.307,1.307,0,0,1,0-2.614Z" transform="translate(-278.933 -299.418)" fill="#ffc7b6"/>
          <path id="Trazado_1000400" data-name="Trazado 1000400" d="M323.01,339.636c0,.059.007.12.007.18a2.435,2.435,0,0,1-2.435,2.435H313.27a1.307,1.307,0,0,1-1.307-1.307h0a1.307,1.307,0,0,1,1.307-1.307Z" transform="translate(-278.933 -329.9)" fill="#ffc7b6"/>
        </g>
        <path id="Trazado_1000401" data-name="Trazado 1000401" d="M94,90.285c0,16.888-12.9,28.878-29.79,28.878a32.8,32.8,0,0,1-24.837-10.976A30.613,30.613,0,0,1,86.022,68.81C90.918,74.894,94,81.928,94,90.285ZM83.906,106.69a.3.3,0,0,0,.447-.023h0A25.967,25.967,0,0,0,47.823,70.138h0a.3.3,0,0,0-.023.447ZM38.238,90.285a25.967,25.967,0,0,0,42.349,20.148h0a.3.3,0,0,0,.023-.447L44.505,73.88a.3.3,0,0,0-.447.023h0A26.027,26.027,0,0,0,38.238,90.285Z" transform="translate(-33.578 -52.471)" fill="#ff99ca"/>
        <path id="Trazado_1000402" data-name="Trazado 1000402" d="M131.087,147.592a30.618,30.618,0,0,1-55.464,17.9,30.572,30.572,0,0,0,39.34,3.637q.969-.651,1.88-1.391a.28.28,0,0,0,.078-.1,30.583,30.583,0,0,0,5.356-41.525A30.527,30.527,0,0,1,131.087,147.592Z" transform="translate(-69.833 -109.777)" fill="#fe7ab6"/>
      </g>
      <g id="Grupo_1179448" data-name="Grupo 1179448" transform="translate(26.079 -0.001)">
        <path id="Trazado_1000403" data-name="Trazado 1000403" d="M74.985,161.295a1.033,1.033,0,1,0-1.461,1.461l4.154,4.154a9.042,9.042,0,0,1-4.942,1.475H62.166a25.009,25.009,0,0,1,4.9-12.085l3.039,3.039a1.033,1.033,0,0,0,1.461-1.461l-3.858-3.858a1.033,1.033,0,0,0-1.532.079,27,27,0,0,0,37.772,38.242l.259-.211a1.033,1.033,0,0,0,.078-1.531Zm-9.358,23.064h3.141a1.033,1.033,0,1,0,0-2.066H64.5a24.784,24.784,0,0,1-2.513-10.9c0-.315.007-.629.019-.942H72.736a11.112,11.112,0,0,0,6.429-2.054L96.54,185.77H87.309a9.919,9.919,0,0,1-4.413-1.042l-2.529-1.264a11.151,11.151,0,0,0-4.961-1.171H73.588a1.033,1.033,0,1,0,0,2.066h1.818a9.077,9.077,0,0,1,4.038.953l2.529,1.264a12,12,0,0,0,5.337,1.26h.661V196.3q-.526.022-1.053.023a24.943,24.943,0,0,1-21.29-11.968Zm24.409,11.77v-8.293h8.57l3.4,3.4A25.011,25.011,0,0,1,90.036,196.129Z" transform="translate(-55.257 -132.549)"/>
        <path id="Trazado_1000404" data-name="Trazado 1000404" d="M162.033,91.811a26.977,26.977,0,0,0-34.013.448,1.033,1.033,0,0,0-.078,1.531l36.578,36.578a1.033,1.033,0,0,0,.73.3h.053a1.033,1.033,0,0,0,.748-.38l.211-.259a26.838,26.838,0,0,0,5.017-9.645,1.033,1.033,0,0,0-1.987-.566,24.787,24.787,0,0,1-4.131,8.269l-3.517-3.517a3.465,3.465,0,0,0,2.463-5.9,3.46,3.46,0,0,0,0-4.868,3.465,3.465,0,0,0-2.466-5.9h-1.071l5.877-7.173a4.335,4.335,0,0,0,.313-.435,24.781,24.781,0,0,1,3.486,12.7c0,.765-.036,1.54-.107,2.3a1.033,1.033,0,0,0,2.057.192c.077-.827.116-1.666.116-2.495a26.965,26.965,0,0,0-10.28-21.186ZM146.345,107.9h-1.37l-2.063-2.063a4.521,4.521,0,0,1,.742-.063h2.692V107.9Zm15.3,14.6H159.58l-2.8-2.8h4.865a1.4,1.4,0,0,1,0,2.8Zm1.4-11.138a1.4,1.4,0,0,1-1.4,1.4h-7.648a1.033,1.033,0,1,0,0,2.066h7.648a1.4,1.4,0,0,1,0,2.8h-6.931l-7.671-7.671h14.6A1.4,1.4,0,0,1,163.044,111.369Zm1.808-11.949L157.9,107.9h-9.49v-3.874a8.584,8.584,0,0,1,1.388-4.686,1.033,1.033,0,1,0-1.732-1.125,10.643,10.643,0,0,0-1.716,5.493h-2.7a6.623,6.623,0,0,0-2.412.459L130.221,93.148a24.93,24.93,0,0,1,25.342-2.881l-1.275,1.471c-.862,1-1.785,1.959-2.743,2.864a1.033,1.033,0,1,0,1.419,1.5c1.007-.952,1.978-1.965,2.884-3.012l1.613-1.861a25.016,25.016,0,0,1,2.434,1.555l-3.32,4.112a6.183,6.183,0,0,0-1.353,3.356,1.033,1.033,0,0,0,.939,1.119c.031,0,.061,0,.091,0a1.033,1.033,0,0,0,1.028-.943,4.124,4.124,0,0,1,.9-2.238l3.335-4.131a25.144,25.144,0,0,1,3.838,4.12A2.291,2.291,0,0,1,164.851,99.42Z" transform="translate(-113.653 -74.153)"/>
        <path id="Trazado_1000405" data-name="Trazado 1000405" d="M79.859,16.215V10.676a6.578,6.578,0,0,0-.978-3.452l-3.469-5.63A3.377,3.377,0,0,0,70.829.469L70.782.5A3.422,3.422,0,0,0,69.393,4.8c.819,1.865,1.989,4.559,2.312,5.3v.326a31.752,31.752,0,1,0,8.154,5.781ZM73.685,9.483c-.014-.033-1.446-3.333-2.4-5.509a1.354,1.354,0,0,1,.554-1.7l.048-.028a1.3,1.3,0,0,1,1.768.434l3.469,5.63a4.513,4.513,0,0,1,.671,2.368v3.686a31.807,31.807,0,0,0-4.023-2.811V9.894A1.034,1.034,0,0,0,73.685,9.483ZM57.739,68.436A29.594,29.594,0,1,1,87.334,38.842,29.628,29.628,0,0,1,57.739,68.436Z" transform="translate(-26.079 0.001)"/>
      </g>
    </g>
  </g>
</svg>
