<svg xmlns="http://www.w3.org/2000/svg" width="291.711" height="180" viewBox="0 0 291.711 180">
  <g id="Grupo_1179600" data-name="Grupo 1179600" transform="translate(-1122.289 -326)">
    <rect id="Rectángulo_455013" data-name="Rectángulo 455013" width="291.711" height="180" transform="translate(1122.289 326)" fill="#e3f1ee"/>
    <g id="_28345707_telehealth" data-name="28345707_telehealth" transform="translate(1105.96 142.075)">
      <g id="Grupo_1179585" data-name="Grupo 1179585" transform="translate(54.137 204.676)" opacity="0.36">
        <g id="Grupo_1179584" data-name="Grupo 1179584" transform="translate(0 0)">
          <g id="Grupo_1179583" data-name="Grupo 1179583">
            <path id="Trazado_1001373" data-name="Trazado 1001373" d="M64.213,466.731c-7.867-13.841-13.12-30.355-8.115-45.119,4.749-14.012,18.524-21.176,32.068-24.547,14.161-3.524,29.029-3.927,43.343-6.922a271.8,271.8,0,0,0,44.048-13.155c6.473-2.553,12.874-5.371,19.618-7.086,12.159-3.091,27.077-1.14,35.019,9.543,8.293,11.155,8.669,27.3,2.681,39.586-6.842,14.035-19.114,25.039-23.62,40.281-2.731,9.24-2.088,19.279-5.312,28.344a67.048,67.048,0,0,1-14.484,24.077c-7.475,7.781-17.335,13.435-28,15.065-14.727,2.25-29.559-3.158-42.774-10.037-17.669-9.2-34.139-21.485-46.2-37.488A117.39,117.39,0,0,1,64.213,466.731Z" transform="translate(-54.137 -368.572)" fill="#56b18c"/>
          </g>
        </g>
      </g>
      <g id="Grupo_1179586" data-name="Grupo 1179586" transform="translate(81.525 297.771)">
        <path id="Trazado_1001374" data-name="Trazado 1001374" d="M546.952,1353.354a1.613,1.613,0,0,0,1.718.753l.042-.012a.61.61,0,0,0,.644-.27,22.7,22.7,0,0,0,2.109-3.578,23.347,23.347,0,0,0,2.075-7.2,11.136,11.136,0,0,0-1.15-7.219.572.572,0,0,0-.715-.222.565.565,0,0,0-.319.677,2.856,2.856,0,0,1,.073,1.89,9.467,9.467,0,0,1-.817,1.965,42.34,42.34,0,0,0-3.148,7.307,21.776,21.776,0,0,0-.79,3.906A3.061,3.061,0,0,0,546.952,1353.354Z" transform="translate(-518.669 -1319.976)" fill="#109490"/>
        <path id="Trazado_1001375" data-name="Trazado 1001375" d="M506.705,1295.985q.029.889.11,1.774a3.414,3.414,0,0,0,.13.8,1.451,1.451,0,0,0,.544.728.537.537,0,0,0,.631-.053.566.566,0,0,0,.747-.06,15.406,15.406,0,0,0,1.97-3.368,14.485,14.485,0,0,0,1.152-7.042,20.467,20.467,0,0,0-2.032-6.352,1.955,1.955,0,0,0-.327-.708l0-.006h0c-.028-.039-.058-.077-.09-.115a.565.565,0,0,0-.749-.033.579.579,0,0,0-.135.737l.239.517c0,.025,0,.058,0,.11s0,.12-.005.181c0,.021,0,.035,0,.046s-.005.026-.009.048c-.025.146-.056.29-.095.434-.16.588-.4,1.154-.585,1.733a31.488,31.488,0,0,0-1.4,7.035A30.744,30.744,0,0,0,506.705,1295.985Z" transform="translate(-483.217 -1271.932)" fill="#109490"/>
        <path id="Trazado_1001376" data-name="Trazado 1001376" d="M339.9,1424.929a31.5,31.5,0,0,0-7.164-.366c-.607.04-1.215.132-1.823.142-.148,0-.3,0-.444-.014l-.049,0-.045-.01c-.059-.012-.118-.023-.177-.039l-.106-.028-.442-.358a.579.579,0,0,0-.748-.049.565.565,0,0,0-.151.734c.029.04.059.078.089.115h0l.005,0a1.953,1.953,0,0,0,.606.49,20.471,20.471,0,0,0,5.661,3.526,14.487,14.487,0,0,0,7.109.607,15.408,15.408,0,0,0,3.747-1.085.566.566,0,0,0,.241-.71.537.537,0,0,0,.206-.6,1.452,1.452,0,0,0-.573-.705,3.415,3.415,0,0,0-.746-.323q-.839-.3-1.693-.541A30.575,30.575,0,0,0,339.9,1424.929Z" transform="translate(-325.209 -1398.559)" fill="#109490"/>
        <path id="Trazado_1001377" data-name="Trazado 1001377" d="M323.629,1350.979a20.449,20.449,0,0,0-3.344.116c-.566.046-1.134.086-1.7.087q-.361,0-.721-.025a6.138,6.138,0,0,1-.7-.084,4.431,4.431,0,0,1-2.719-1.383.57.57,0,0,0-.811.8,16.326,16.326,0,0,0,5.124,4.3,11.191,11.191,0,0,0,5.941.962,10.988,10.988,0,0,0,3.355-.939.529.529,0,0,0,.281-.483.639.639,0,0,0,0-.574C327.525,1351.96,325.483,1351.133,323.629,1350.979Z" transform="translate(-311.715 -1332.374)" fill="#109490"/>
        <path id="Trazado_1001378" data-name="Trazado 1001378" d="M297.91,1197.217a.578.578,0,0,1,.776-.217,35.14,35.14,0,0,1,6.134,4.332,22.915,22.915,0,0,1,4.727,5.753,8.034,8.034,0,0,1,1.355,3.981,10.191,10.191,0,0,1,2.091,2.264c.6.8,1.16,1.628,1.7,2.47a7.067,7.067,0,0,1-.119-3.007,20.426,20.426,0,0,1,.932-3.213c.183-.538.361-1.079.5-1.63q.089-.35.152-.705a6.141,6.141,0,0,0,.09-.7,4.43,4.43,0,0,0-.675-2.974.57.57,0,1,1,.975-.59,16.328,16.328,0,0,1,2.918,6.022,11.193,11.193,0,0,1-.522,6,10.994,10.994,0,0,1-1.732,3.023.529.529,0,0,1-.537.153.639.639,0,0,1-.557-.137c-.035-.028-.068-.056-.1-.085.859,1.431,1.7,2.872,2.61,4.274a79.6,79.6,0,0,0,8.264,10.666q1.117,1.214,2.285,2.38h0a18.2,18.2,0,0,1,3.061-6.964c.749-1.047,1.508-2.076,2.151-3.195a23.577,23.577,0,0,0,1.572-3.289,24.346,24.346,0,0,0,1.151-4.02.576.576,0,0,1,1.039-.152,9.526,9.526,0,0,1,.75,4.479,18.87,18.87,0,0,1-.655,4.449,15.035,15.035,0,0,1-4.229,7.1,12.92,12.92,0,0,1-3.8,2.426.418.418,0,0,1-.167.031q1.108,1.075,2.255,2.108a.57.57,0,1,1-.793.818q-1.5-1.347-2.926-2.769a.413.413,0,0,1-.06.116,12.918,12.918,0,0,1-3.282,3.088,15.037,15.037,0,0,1-7.92,2.362,18.885,18.885,0,0,1-4.474-.454,9.526,9.526,0,0,1-4.159-1.824.576.576,0,0,1,.4-.971,24.344,24.344,0,0,0,4.179-.132,23.575,23.575,0,0,0,3.574-.719c1.242-.349,2.425-.833,3.624-1.3a18.272,18.272,0,0,1,7.016-1.279q-1.639-1.695-3.179-3.481a1.52,1.52,0,0,1-.091,1.174c-.007.013-.015.025-.022.037a.61.61,0,0,1-.42.558,22.691,22.691,0,0,1-3.985,1.169,23.352,23.352,0,0,1-7.492.249,11.134,11.134,0,0,1-6.718-2.882.572.572,0,0,1-.04-.748.565.565,0,0,1,.735-.144,2.856,2.856,0,0,0,1.815.533,9.465,9.465,0,0,0,2.105-.311,42.339,42.339,0,0,1,7.855-1.263,21.785,21.785,0,0,1,3.98.191,4.132,4.132,0,0,1,1.394.393q-.633-.759-1.248-1.533-2.1-2.646-3.974-5.461c-1.277-1.92-2.432-3.911-3.626-5.882-.683-1.128-1.387-2.244-2.157-3.314a10.555,10.555,0,0,0-2.1-2.417.535.535,0,0,1-.161-.015.541.541,0,0,1-.266-.157,2.48,2.48,0,0,1-1.811-.534,14.332,14.332,0,0,1-1.466-1.247,23.39,23.39,0,0,1-2.517-2.843,40.349,40.349,0,0,1-3.762-6.349,13.176,13.176,0,0,0-.959-1.661,4.724,4.724,0,0,0-.566-.682,3.949,3.949,0,0,0-.682-.563A.583.583,0,0,1,297.91,1197.217Z" transform="translate(-297.839 -1196.929)" fill="#109490"/>
      </g>
      <path id="Trazado_1001379" data-name="Trazado 1001379" d="M1580.3,885.769s3.488-13.684,16.092-8.3c14.763,6.963,1.884,33.794-16.092,38.624-14.489-4.293-31.124-25.489-18.513-37.831C1569.3,871.549,1580.3,878.256,1580.3,885.769Z" transform="translate(-1334.248 -613.851)" fill="#f05559" opacity="0.74"/>
      <path id="Trazado_1001380" data-name="Trazado 1001380" d="M1361.334,873.124h-19.716l-2.222-5.554-2.221,5.554-2.639-7.5L1329.4,878.4l-4.859-12.774-2.777,7.5-4.443-11.872-4.027,11.733H1297.05" transform="translate(-1103.229 -601.206)" fill="none" stroke="#0a5244" stroke-miterlimit="10" stroke-width="2"/>
      <path id="Trazado_1001381" data-name="Trazado 1001381" d="M840.755,440h-58.5a6.22,6.22,0,0,1-6.22-6.22V305.143a6.22,6.22,0,0,1,6.22-6.22h58.5a6.22,6.22,0,0,1,6.22,6.22V433.78A6.22,6.22,0,0,1,840.755,440Z" transform="translate(-640.772 -102.074)" fill="#fff"/>
      <path id="Trazado_1001382" data-name="Trazado 1001382" d="M840.755,440h-58.5a6.22,6.22,0,0,1-6.22-6.22V305.143a6.22,6.22,0,0,1,6.22-6.22h58.5a6.22,6.22,0,0,1,6.22,6.22V433.78A6.22,6.22,0,0,1,840.755,440Z" transform="translate(-640.772 -102.074)" fill="none" stroke="#109490" stroke-miterlimit="10" stroke-width="2"/>
      <path id="Trazado_1001383" data-name="Trazado 1001383" d="M846.976,307.481H776.04V304.79a5.867,5.867,0,0,1,5.867-5.867h58.937a6.132,6.132,0,0,1,6.132,6.132Z" transform="translate(-640.773 -102.074)" fill="#109490" opacity="0.37"/>
      <path id="Trazado_1001384" data-name="Trazado 1001384" d="M997.638,298.923H969.783v1.057a2.3,2.3,0,0,0,2.3,2.3H995.23a2.408,2.408,0,0,0,2.408-2.408v-.953Z" transform="translate(-812.742 -102.074)" fill="#0a5244"/>
      <path id="Trazado_1001385" data-name="Trazado 1001385" d="M852.22,298.923h-8v.807a.873.873,0,0,0,.873.873h6.213a.912.912,0,0,0,.912-.912v-.768Z" transform="translate(-701.292 -102.074)" fill="#0a5244"/>
      <path id="Trazado_1001386" data-name="Trazado 1001386" d="M846.976,1477.99H776.04v2.691a5.867,5.867,0,0,0,5.867,5.867h58.937a6.132,6.132,0,0,0,6.132-6.132Z" transform="translate(-640.773 -1148.633)" fill="#109490" opacity="0.37"/>
      <path id="Trazado_1001387" data-name="Trazado 1001387" d="M854.75,412.026H808.4a2.041,2.041,0,0,1-2.035-2.035V409.3a2.041,2.041,0,0,1,2.035-2.035H854.75a2.041,2.041,0,0,1,2.035,2.035v.695A2.04,2.04,0,0,1,854.75,412.026Z" transform="translate(-667.687 -198.238)" fill="none" stroke="#0a5244" stroke-miterlimit="10" stroke-width="2"/>
      <path id="Trazado_1001388" data-name="Trazado 1001388" d="M1288,412.025h-3.8a1.813,1.813,0,0,1-1.808-1.808v-1.149a1.813,1.813,0,0,1,1.808-1.808h3.8a1.813,1.813,0,0,1,1.808,1.808v1.149A1.812,1.812,0,0,1,1288,412.025Z" transform="translate(-1090.225 -198.237)" fill="none" stroke="#0a5244" stroke-miterlimit="10" stroke-width="2"/>
      <rect id="Rectángulo_455407" data-name="Rectángulo 455407" width="38.755" height="8.865" transform="translate(150.928 266.634)" fill="#0a5244"/>
      <rect id="Rectángulo_455408" data-name="Rectángulo 455408" width="38.755" height="8.865" transform="translate(165.873 290.444) rotate(-90)" fill="#0a5244"/>
      <circle id="Elipse_13745" data-name="Elipse 13745" cx="32.093" cy="32.093" r="32.093" transform="translate(138.675 239.394)" fill="#56b18c" opacity="0.36"/>
      <g id="Grupo_1179587" data-name="Grupo 1179587" transform="translate(238.364 275.499)">
        <circle id="Elipse_13746" data-name="Elipse 13746" cx="15.934" cy="15.934" r="15.934" transform="translate(0 0)" fill="#109490"/>
        <circle id="Elipse_13747" data-name="Elipse 13747" cx="12.051" cy="12.051" r="12.051" transform="translate(3.882 3.882)" fill="#70b77e"/>
        <circle id="Elipse_13748" data-name="Elipse 13748" cx="8.522" cy="8.522" r="8.522" transform="translate(7.412 7.412)" fill="#fff"/>
      </g>
      <path id="Trazado_1001389" data-name="Trazado 1001389" d="M1087.121,1293.03s-1.935,25.463,21.872,29.789c11.833,2.15,34.6,5.46,57.859-45.784" transform="translate(-916.86 -970.262)" fill="none" stroke="#3eb09e" stroke-miterlimit="10" stroke-width="2"/>
      <g id="Grupo_1179588" data-name="Grupo 1179588" transform="translate(145.544 269.398)">
        <path id="Trazado_1001390" data-name="Trazado 1001390" d="M1219,959.162a8.147,8.147,0,0,1,9.343,6.324,13.49,13.49,0,0,1,.384,5.172,45.824,45.824,0,0,1-3,11.8" transform="translate(-1179.495 -957.423)" fill="none" stroke="#010101" stroke-miterlimit="10" stroke-width="2"/>
        <path id="Trazado_1001391" data-name="Trazado 1001391" d="M877.5,959.352s-9.086-1.565-10.007,9.7c-.249,7.146,3.472,13.933,3.472,13.933" transform="translate(-867.48 -957.613)" fill="none" stroke="#010101" stroke-miterlimit="10" stroke-width="2"/>
        <path id="Trazado_1001392" data-name="Trazado 1001392" d="M932.769,1147.445s-7.56,21.417-11.415,25.1c-1.752,1.674-7.2,6.394-14.578,4.243a13.411,13.411,0,0,1-8.7-7.625c-3.182-7.676-9.529-23.089-9.529-23.089" transform="translate(-886.179 -1123.416)" fill="none" stroke="#3eb09e" stroke-miterlimit="10" stroke-width="2"/>
        <path id="Trazado_1001393" data-name="Trazado 1001393" d="M1207.5,951.246s1.818.62,1.979-.465-.428-1.471-1.711-1.626C1207.711,948.768,1206,950.472,1207.5,951.246Z" transform="translate(-1168.741 -948.578)" fill="#89cfb9"/>
        <ellipse id="Elipse_13749" data-name="Elipse 13749" cx="1.177" cy="1.704" rx="1.177" ry="1.704" transform="translate(36.832 0)" fill="#89cfb9"/>
        <path id="Trazado_1001394" data-name="Trazado 1001394" d="M947.456,951.246s-1.818.62-1.979-.465.428-1.471,1.711-1.626C947.242,948.768,948.953,950.472,947.456,951.246Z" transform="translate(-936.688 -948.578)" fill="#89cfb9"/>
        <ellipse id="Elipse_13750" data-name="Elipse 13750" cx="1.177" cy="1.704" rx="1.177" ry="1.704" transform="translate(10.34 0)" fill="#89cfb9"/>
      </g>
      <path id="Trazado_1001395" data-name="Trazado 1001395" d="M1767.114,1262.778s-2.457-.159-3.556,2.893-4.315,3.907-4.966,1.343,2.288-4.955,0-6.709C1762.459,1261.154,1767.114,1262.778,1767.114,1262.778Z" transform="translate(-1512.815 -955.412)" fill="#109490"/>
      <path id="Trazado_1001396" data-name="Trazado 1001396" d="M870.952,504.74h-55.8a2.771,2.771,0,0,1-2.771-2.771h0a2.771,2.771,0,0,1,2.771-2.771h55.8a2.771,2.771,0,0,1,2.771,2.771h0A2.771,2.771,0,0,1,870.952,504.74Z" transform="translate(-673.03 -279.841)" fill="#659994" opacity="0.64"/>
      <path id="Trazado_1001397" data-name="Trazado 1001397" d="M859.184,575.663H815.547a1.386,1.386,0,0,1-1.386-1.386h0a1.386,1.386,0,0,1,1.386-1.386h43.638a1.386,1.386,0,0,1,1.386,1.386h0A1.387,1.387,0,0,1,859.184,575.663Z" transform="translate(-674.609 -345.253)" fill="#659994" opacity="0.64"/>
      <g id="Grupo_1179589" data-name="Grupo 1179589" transform="translate(102.024 230.023)">
        <path id="Trazado_1001398" data-name="Trazado 1001398" d="M518.37,609.12a9.926,9.926,0,0,1-8.482,4.8H490.144a9.936,9.936,0,0,1-9.907-9.907h0a9.936,9.936,0,0,1,9.907-9.907h19.744a9.936,9.936,0,0,1,9.907,9.907h0a6.692,6.692,0,0,1,6.565,4.425C522.847,605.227,518.37,609.12,518.37,609.12Z" transform="translate(-480.237 -594.11)" fill="#fff" opacity="0.46"/>
        <path id="Trazado_1001399" data-name="Trazado 1001399" d="M518.37,609.12a9.926,9.926,0,0,1-8.482,4.8H490.144a9.936,9.936,0,0,1-9.907-9.907h0a9.936,9.936,0,0,1,9.907-9.907h19.744a9.936,9.936,0,0,1,9.907,9.907h0a6.692,6.692,0,0,1,6.565,4.425C522.847,605.227,518.37,609.12,518.37,609.12Z" transform="translate(-480.237 -594.11)" fill="none" stroke="#0a5244" stroke-miterlimit="10" stroke-width="2"/>
        <circle id="Elipse_13751" data-name="Elipse 13751" cx="2.052" cy="2.052" r="2.052" transform="translate(13.156 7.96)" fill="#0a5244"/>
        <circle id="Elipse_13752" data-name="Elipse 13752" cx="2.052" cy="2.052" r="2.052" transform="translate(19.149 8.221)" fill="#0a5244"/>
        <circle id="Elipse_13753" data-name="Elipse 13753" cx="2.052" cy="2.052" r="2.052" transform="translate(24.882 8.482)" fill="#0a5244"/>
      </g>
      <g id="Grupo_1179596" data-name="Grupo 1179596" transform="translate(57.658 183.925)">
        <path id="Trazado_1001400" data-name="Trazado 1001400" d="M264.626,272.987a13.334,13.334,0,0,1,.347-4.923,21.854,21.854,0,0,0-4.554-20.071c-3.845-4.644-4.8-11.514-4.8-11.514h0c-2.824-9.306-12.393-15.762-21.1-15.762s-18.249,6.084-21.073,15.39h0s-1.275,7.367-4.834,11.887c-4.121,5.232-6.659,12-4.554,20.071a13.331,13.331,0,0,1,.347,4.923,6.77,6.77,0,0,1-1.173,3.353H265.8A6.771,6.771,0,0,1,264.626,272.987Z" transform="translate(-189.991 -216.582)"/>
        <g id="Grupo_1179590" data-name="Grupo 1179590" transform="translate(0 19.8)">
          <path id="Trazado_1001401" data-name="Trazado 1001401" d="M389.436,363.023a8.536,8.536,0,0,0-5.521-2.842c-2.407-.282-4.866.288-7.232.67l-1.819.294a1.017,1.017,0,0,0-.726.621,1.169,1.169,0,0,0-1.261.518,49.118,49.118,0,0,0-5.28,9.1,19.757,19.757,0,0,0-1.345,5.148,29.147,29.147,0,0,0,.086,5.732c.153,1.972.292,3.945.464,5.915.171,1.946-.995,3.6-.482,5.488,1.008,3.71,4.177,7.492,5.745,10.987,1.623,3.617,3.114,7.456,5.925,10.347a1.171,1.171,0,0,0,1.375.177,5.392,5.392,0,0,0,2.226-2.385c.621-1.092,1.226-2.193,1.838-3.289,1.214-2.173,2.467-4.33,3.627-6.532a28.5,28.5,0,0,0,1.5-3.288c.446-1.192,1.538-2.409,1.7-3.67.148-1.179.215-2.366.37-3.545l.011-.077c.011-.077.022-.155.033-.232q.029-.2.06-.406.071-.464.15-.927.148-.87.319-1.736a91.464,91.464,0,0,0,1.58-14.251C392.927,370.714,392.243,366.228,389.436,363.023Z" transform="translate(-334.596 -360.105)" fill="#e0a990"/>
          <path id="Trazado_1001402" data-name="Trazado 1001402" d="M375.832,659.023l-9.438,18.486-13.328-21.4s-3.758,2.465.051,12.66,8.247,28.053,11.6,27.009,5.54-7.963,7.668-12.444,7.058-18.314,7.058-18.314l1.232-7.118Z" transform="translate(-321.523 -622.844)" fill="#70b77e"/>
          <path id="Trazado_1001403" data-name="Trazado 1001403" d="M117.013,652.475s-1.069,3.809,5.2,18.374c5.938,14,7.282,18.15,7.282,18.15s13.22-30.809,13.444-33.61c.224-2.577,2.913-4.033,3.7-2.241s3.025,6.5,3.025,6.5,10.419,3.7,13.332,5.826,5.49,13.108,6.5,17.141,4.705,21.174,4.705,21.174l-19.382,3.7s-61.395,4.369-69.349-3.025c2.913-16.469,7.842-33.386,8.627-36.523s11.427-6.154,15.013-6.55c1.008-4.877,3.585-7.006,4.817-8.574S117.013,652.475,117.013,652.475Z" transform="translate(-85.47 -619.208)" fill="#fff"/>
          <path id="Trazado_1001404" data-name="Trazado 1001404" d="M117.013,652.475s-1.069,3.809,5.2,18.374c5.938,14,7.282,18.15,7.282,18.15s13.22-30.809,13.444-33.61c.224-2.577,2.913-4.033,3.7-2.241s3.025,6.5,3.025,6.5,10.419,3.7,13.332,5.826,5.49,13.108,6.5,17.141,4.705,21.174,4.705,21.174l-19.382,3.7s-61.395,4.369-69.349-3.025c2.913-16.469,7.842-33.386,8.627-36.523s11.427-6.154,15.013-6.55c1.008-4.877,3.585-7.006,4.817-8.574S117.013,652.475,117.013,652.475Z" transform="translate(-85.47 -619.208)" fill="none" stroke="#0a5244" stroke-miterlimit="10" stroke-width="2" opacity="0.63"/>
          <path id="Trazado_1001405" data-name="Trazado 1001405" d="M485.025,719.911s2.353,5.49,1.9,7.842c-1.12.112-7.058,0-7.058,0s3.53,8.29,3.557,8.739-11.736,13.556-20.138,17.141c1.232-3.137,1.568-4.369,1.568-4.369" transform="translate(-420.829 -679.474)" fill="none" stroke="#0a5244" stroke-miterlimit="10" stroke-width="2" opacity="0.63"/>
          <path id="Trazado_1001406" data-name="Trazado 1001406" d="M301.213,765.452s-11.266-4.911-17.763-14.938c2.241-5.546,3.7-9.691,3.7-9.691l-7.282,1.12,1.793-6.55" transform="translate(-258.017 -693.216)" fill="none" stroke="#0a5244" stroke-miterlimit="10" stroke-width="2" opacity="0.63"/>
        </g>
        <path id="Trazado_1001407" data-name="Trazado 1001407" d="M465.7,1009.08v16.47h-2.41V1010.3" transform="translate(-420.829 -916.345)" fill="none" stroke="#0a5244" stroke-miterlimit="10" stroke-width="2"/>
        <line id="Línea_3318" data-name="Línea 3318" x1="1.575" y2="16.236" transform="translate(18.591 92.735)" fill="none" stroke="#0a5244" stroke-miterlimit="10" stroke-width="2" opacity="0.63"/>
        <line id="Línea_3319" data-name="Línea 3319" x2="2.774" y2="20.453" transform="translate(68.341 87.285)" fill="none" stroke="#0a5244" stroke-miterlimit="10" stroke-width="2" opacity="0.63"/>
        <g id="Grupo_1179592" data-name="Grupo 1179592" transform="translate(15.461 57.701)">
          <g id="Grupo_1179591" data-name="Grupo 1179591">
            <path id="Trazado_1001408" data-name="Trazado 1001408" d="M260.451,697.354s-9,6.915-5.041,17.665" transform="translate(-250.878 -697.354)" fill="none" stroke="#3eb09e" stroke-miterlimit="10" stroke-width="2"/>
            <path id="Trazado_1001409" data-name="Trazado 1001409" d="M234,883.563s-6.028,2.185-8.783-9.747-4.037-20.364,3.32-21.694c8.85-1.262,7.874,22.159,6.324,25.96-1.206,3.128-4.381,6.3-6.324,5.638" transform="translate(-223.042 -834.686)" fill="none" stroke="#3eb09e" stroke-miterlimit="10" stroke-width="2"/>
          </g>
        </g>
        <path id="Trazado_1001410" data-name="Trazado 1001410" d="M660.187,717.818s8.381,3.555,8.152,25.206" transform="translate(-595.598 -657.817)" fill="none" stroke="#3eb09e" stroke-miterlimit="10" stroke-width="2"/>
        <g id="Grupo_1179593" data-name="Grupo 1179593" transform="translate(68.257 84.012)">
          <ellipse id="Elipse_13754" data-name="Elipse 13754" cx="4.489" cy="4.38" rx="4.489" ry="4.38" fill="#109490"/>
          <ellipse id="Elipse_13755" data-name="Elipse 13755" cx="3.395" cy="3.313" rx="3.395" ry="3.313" transform="translate(1.094 1.067)" fill="#70b77e"/>
          <ellipse id="Elipse_13756" data-name="Elipse 13756" cx="2.401" cy="2.343" rx="2.401" ry="2.343" transform="translate(2.088 2.038)" fill="#fff"/>
        </g>
        <g id="Grupo_1179594" data-name="Grupo 1179594" transform="translate(21.423 32.747)">
          <path id="Trazado_1001411" data-name="Trazado 1001411" d="M288.346,481.264a6.126,6.126,0,1,1-6.3-5.95A6.126,6.126,0,0,1,288.346,481.264Z" transform="translate(-276.097 -475.311)" fill="#fab69a"/>
          <path id="Trazado_1001412" data-name="Trazado 1001412" d="M299.66,520.946s2.436-1.186,4.757,3.045" transform="translate(-297.012 -515.682)" fill="none" stroke="#dc7368" stroke-linecap="round" stroke-linejoin="round" stroke-miterlimit="10" stroke-width="2"/>
        </g>
        <g id="Grupo_1179595" data-name="Grupo 1179595" transform="translate(53.5 30.21)">
          <circle id="Elipse_13757" data-name="Elipse 13757" cx="6.126" cy="6.126" r="6.126" transform="translate(0 8.663) rotate(-45)" fill="#fab69a"/>
          <path id="Trazado_1001413" data-name="Trazado 1001413" d="M632.444,520.252s-2.468-1.117-4.669,3.179" transform="translate(-620.328 -512.548)" fill="none" stroke="#dc7368" stroke-linecap="round" stroke-linejoin="round" stroke-miterlimit="10" stroke-width="2"/>
        </g>
        <circle id="Elipse_13758" data-name="Elipse 13758" cx="19.239" cy="19.239" r="19.239" transform="translate(17.476 27.208) rotate(-45)"/>
        <path id="Trazado_1001414" data-name="Trazado 1001414" d="M367.622,289.556a70.067,70.067,0,0,1-1.976,16.405c-.967,3.974-3.687,6.751-7.531,8.986l-.7.407a13.859,13.859,0,0,1-13.452.141h0c-4.165-2.3-7.081-5.329-7.979-9.594a102.328,102.328,0,0,1-1.811-16.346s-1.306-17.932,16.733-17.607S367.622,289.556,367.622,289.556Z" transform="translate(-306.204 -262.052)" fill="#fab69a"/>
        <path id="Trazado_1001415" data-name="Trazado 1001415" d="M318.656,266.3s16.081-3.062,19.4-15.064C338.057,251.232,320.949,245.162,318.656,266.3Z" transform="translate(-292.45 -242.95)"/>
        <path id="Trazado_1001416" data-name="Trazado 1001416" d="M478.515,266.3s-16.081-3.062-19.4-15.064C459.114,251.232,476.222,245.162,478.515,266.3Z" transform="translate(-417.122 -242.95)"/>
      </g>
      <g id="Grupo_1179597" data-name="Grupo 1179597" transform="translate(96.877 267.238)">
        <path id="Trazado_1001417" data-name="Trazado 1001417" d="M587.262,962.778s6.584-3.471,3.358-7.581-12.537-14.853-12.537-14.853-2.184-1.279.668-6.244c-2.753-3.952-6.1-8-6.1-8s-1.535-2.609-6.472,1.335c-4.621,3.786-8.257,6.777-8.257,6.777Z" transform="translate(-544.04 -925.253)" fill="#0a5244"/>
        <path id="Trazado_1001418" data-name="Trazado 1001418" d="M601.895,1006.1l6.75-4.341-20.7-25.378-7.941,5.629Z" transform="translate(-563.647 -970.637)" fill="#fff"/>
        <path id="Trazado_1001419" data-name="Trazado 1001419" d="M465.81,997.55l12.2,14.627s3.31,1.9-1.908,6.072-15.1,10.462-15.1,10.462-1.109,1.734-4.1-2.3-21.329-25.458-21.329-25.458-2.283-2.609-.384-4.736,10.2-10.788,10.2-10.788,3.007-3.86,6,.171,7.29,10.17,10.468,12.334C463.836,997.94,464.579,996.075,465.81,997.55Z" transform="translate(-434.439 -977.189)" fill="#8acfbd"/>
        <line id="Línea_3320" data-name="Línea 3320" y1="5.75" x2="7.784" transform="translate(17.714 26.964)" fill="none" stroke="#659994" stroke-linecap="round" stroke-miterlimit="10" stroke-width="2" opacity="0.64"/>
        <line id="Línea_3321" data-name="Línea 3321" y1="8.292" x2="11.586" transform="translate(22.302 31.32)" fill="none" stroke="#659994" stroke-linecap="round" stroke-miterlimit="10" stroke-width="2" opacity="0.64"/>
      </g>
      <path id="Trazado_1001420" data-name="Trazado 1001420" d="M1395.11,256.719s3.063-.856,3.691,2.111" transform="translate(-1190.269 -64.512)" fill="none" stroke="#0a5244" stroke-linecap="round" stroke-miterlimit="10" stroke-width="2"/>
      <path id="Trazado_1001421" data-name="Trazado 1001421" d="M1395.01,238.215s4.187-1.3,5.646,3.524" transform="translate(-1190.18 -48.048)" fill="none" stroke="#0a5244" stroke-linecap="round" stroke-miterlimit="10" stroke-width="2"/>
      <path id="Trazado_1001422" data-name="Trazado 1001422" d="M1393.59,219.083s6.57-1.51,7.769,4.809" transform="translate(-1188.92 -31.067)" fill="none" stroke="#0a5244" stroke-linecap="round" stroke-miterlimit="10" stroke-width="2"/>
      <circle id="Elipse_13759" data-name="Elipse 13759" cx="1.226" cy="1.226" r="1.226" transform="translate(203.731 195.437) rotate(-45)" fill="#0a5244"/>
      <circle id="Elipse_13760" data-name="Elipse 13760" cx="8.195" cy="8.195" r="8.195" transform="translate(77.67 337.163)" fill="#fff" opacity="0.39"/>
      <circle id="Elipse_13761" data-name="Elipse 13761" cx="4.858" cy="4.858" r="4.858" transform="translate(60.449 330.199) rotate(-80.654)" fill="#56b18c" opacity="0.36"/>
      <circle id="Elipse_13762" data-name="Elipse 13762" cx="4.858" cy="4.858" r="4.858" transform="translate(206.541 311.011) rotate(-45)" fill="#fff" opacity="0.39"/>
      <circle id="Elipse_13763" data-name="Elipse 13763" cx="6.91" cy="6.91" r="6.91" transform="translate(210.108 237.983)" fill="#fff" opacity="0.39"/>
      <circle id="Elipse_13764" data-name="Elipse 13764" cx="5.139" cy="5.139" r="5.139" transform="translate(219.054 283.609)" fill="#fff" opacity="0.39"/>
      <circle id="Elipse_13765" data-name="Elipse 13765" cx="5.139" cy="5.139" r="5.139" transform="translate(194.447 251.77)" fill="#fff" opacity="0.39"/>
      <circle id="Elipse_13766" data-name="Elipse 13766" cx="11.764" cy="11.764" r="11.764" transform="translate(206.431 306.154) rotate(-45)" fill="#56b18c" opacity="0.36"/>
      <circle id="Elipse_13767" data-name="Elipse 13767" cx="5.139" cy="5.139" r="5.139" transform="translate(96.885 254.084)" fill="#fff" opacity="0.39"/>
      <circle id="Elipse_13768" data-name="Elipse 13768" cx="4.386" cy="4.386" r="4.386" transform="translate(125.87 207.098)" fill="#fff" opacity="0.39"/>
      <path id="Trazado_1001423" data-name="Trazado 1001423" d="M1504.18,284.524s35.357,7.76,28.517,44.181" transform="translate(-1287.081 -89.293)" fill="none" stroke="#0a5244" stroke-miterlimit="10" stroke-width="2"/>
      <g id="Grupo_1179598" data-name="Grupo 1179598" transform="translate(109.779 318.511)">
        <ellipse id="Elipse_13769" data-name="Elipse 13769" cx="10.497" cy="12.2" rx="10.497" ry="12.2" transform="translate(5.296 0)" fill="none" stroke="#0e1422" stroke-miterlimit="10" stroke-width="2"/>
        <path id="Trazado_1001424" data-name="Trazado 1001424" d="M579.259,1480.08h-28.07a1.947,1.947,0,0,1-1.947-1.947v-18.973a1.947,1.947,0,0,1,1.947-1.948h28.07a1.947,1.947,0,0,1,1.947,1.948v18.973A1.947,1.947,0,0,1,579.259,1480.08Z" transform="translate(-549.242 -1448.701)" fill="#f48786"/>
        <path id="Trazado_1001425" data-name="Trazado 1001425" d="M658.379,1529.46h-3.51v-3.51h-2.082v3.51h-3.51v2.083h3.51v3.51h2.082v-3.51h3.51Z" transform="translate(-638.035 -1509.714)" fill="#fff"/>
      </g>
      <g id="Grupo_1179599" data-name="Grupo 1179599" transform="translate(89.404 208.966)">
        <path id="Trazado_1001426" data-name="Trazado 1001426" d="M407.772,479.32a1.517,1.517,0,1,1-1.517-1.517A1.517,1.517,0,0,1,407.772,479.32Z" transform="translate(-400.603 -469.817)" fill="#200e0c"/>
        <path id="Trazado_1001427" data-name="Trazado 1001427" d="M540.223,479.32a1.517,1.517,0,1,1-1.517-1.517A1.517,1.517,0,0,1,540.223,479.32Z" transform="translate(-518.169 -469.817)" fill="#200e0c"/>
        <path id="Trazado_1001428" data-name="Trazado 1001428" d="M472.217,526.616v2.431h1.969" transform="translate(-460.498 -513.144)" fill="none" stroke="#dc7368" stroke-linecap="round" stroke-linejoin="round" stroke-miterlimit="10" stroke-width="2"/>
        <path id="Trazado_1001429" data-name="Trazado 1001429" d="M367.945,409.833l9.912-.894s-.887-2.568-4.9-2.152C368.861,407.214,367.945,409.833,367.945,409.833Z" transform="translate(-367.945 -406.742)" fill="#010101"/>
        <path id="Trazado_1001430" data-name="Trazado 1001430" d="M517,409.833l-9.912-.894s.888-2.568,4.9-2.152C516.086,407.214,517,409.833,517,409.833Z" transform="translate(-491.452 -406.742)" fill="#010101"/>
        <path id="Trazado_1001431" data-name="Trazado 1001431" d="M442.029,579.08h9.779s-.46,3-5.034,3S442.029,579.08,442.029,579.08Z" transform="translate(-433.703 -559.712)" fill="#fff"/>
      </g>
    </g>
  </g>
</svg>
