<svg xmlns="http://www.w3.org/2000/svg" width="84" height="84" viewBox="0 0 84 84">
  <g id="Grupo_1177874" data-name="Grupo 1177874" transform="translate(-706 -1685.277)">
    <g id="Grupo_1177731" data-name="Grupo 1177731" transform="translate(706 1685.277)">
      <g id="Grupo_1119665" data-name="Grupo 1119665" transform="translate(0 0)">
        <path id="Trazado_991847" data-name="Trazado 991847" d="M5,0H79a5,5,0,0,1,5,5V79a5,5,0,0,1-5,5H5a5,5,0,0,1-5-5V5A5,5,0,0,1,5,0Z" fill="#773b3d"/>
      </g>
      <g id="Grupo_1178337" data-name="Grupo 1178337" transform="translate(10.496 10.496)">
        <path id="Trazado_998745" data-name="Trazado 998745" d="M53.781,9.227a31.505,31.505,0,0,0-43.169-1.3A.923.923,0,1,0,11.837,9.3,29.658,29.658,0,1,1,9.3,11.837a.923.923,0,0,0-1.381-1.225A31.5,31.5,0,1,0,53.781,9.227Z" transform="translate(0 0)" fill="#fff5c1"/>
        <path id="Trazado_998746" data-name="Trazado 998746" d="M41.177,42.487a.923.923,0,0,0-1.3.09,27.391,27.391,0,0,0-.9,34.909,1.947,1.947,0,0,0,1.414.741c.039,0,.078,0,.116,0a1.944,1.944,0,0,0,1.374-.569l3.6-3.6a13.151,13.151,0,0,0,1.129,2.027L43.46,79.24a1.944,1.944,0,0,0,.176,2.9A27.149,27.149,0,0,0,60.56,87.989,27.458,27.458,0,0,0,87.987,60.561a27.149,27.149,0,0,0-5.845-16.924,1.944,1.944,0,0,0-2.9-.176l-4.48,4.48a3.884,3.884,0,0,0-2.688-.468l5.59-5.59a1.944,1.944,0,0,0-.176-2.9,27.391,27.391,0,0,0-34.909.9.923.923,0,0,0,1.212,1.392,25.545,25.545,0,0,1,32.557-.838.1.1,0,0,1,.038.073.09.09,0,0,1-.028.074l-5.7,5.7v-1a3.978,3.978,0,0,0-6.3-3.233,3.981,3.981,0,0,0-7.779,1.195v.72a3.978,3.978,0,0,0-6.116,3.357v6.842a3.917,3.917,0,0,0-4.89.51,4.1,4.1,0,0,0-1.226,2.911V68.717a13.127,13.127,0,0,0,.451,3.419l-4.221,4.221a.094.094,0,0,1-.074.028.1.1,0,0,1-.073-.038,25.545,25.545,0,0,1,.838-32.557.923.923,0,0,0-.09-1.3Zm39.366,2.279a.091.091,0,0,1,.074-.028.1.1,0,0,1,.073.038,25.32,25.32,0,0,1,5.451,15.784A25.61,25.61,0,0,1,60.56,86.143a25.32,25.32,0,0,1-15.784-5.451.1.1,0,0,1-.038-.073.091.091,0,0,1,.028-.074l3-3A13.125,13.125,0,0,0,57.5,81.872h6.116A13.17,13.17,0,0,0,76.774,68.717V51.456a4.094,4.094,0,0,0-.678-2.242ZM46.192,57.572a2.247,2.247,0,0,1,.673-1.593,2.083,2.083,0,0,1,1.5-.61A2.145,2.145,0,0,1,50.463,57.5v5.154a1.935,1.935,0,0,0,1.722,1.929,7.217,7.217,0,0,1,6.433,7.189.923.923,0,0,0,1.846,0,9.061,9.061,0,0,0-8.078-9.023.093.093,0,0,1-.077-.094V47.31a2.135,2.135,0,0,1,4.27,0V59.542a.923.923,0,1,0,1.846,0V43.232a2.135,2.135,0,1,1,4.27,0v16.31a.923.923,0,0,0,1.846,0V45.271a2.135,2.135,0,0,1,4.27,0V48.5h0V60.562a.923.923,0,1,0,1.846,0V51.387a2.145,2.145,0,0,1,2.094-2.135,2.084,2.084,0,0,1,1.5.611,2.248,2.248,0,0,1,.673,1.593V68.717a11.322,11.322,0,0,1-11.31,11.31H57.5a11.322,11.322,0,0,1-11.31-11.31Z" transform="translate(-29.056 -29.057)" fill="#fff5c1"/>
      </g>
    </g>
  </g>
</svg>
