<svg xmlns="http://www.w3.org/2000/svg" xmlns:xlink="http://www.w3.org/1999/xlink" width="292" height="170" viewBox="0 0 292 170">
  <defs>
    <clipPath id="clip-path">
      <rect id="Rectángulo_455388" data-name="Rectángulo 455388" width="292" height="170" transform="translate(101.711 5987)" fill="#99bfb7"/>
    </clipPath>
    <clipPath id="clip-path-2">
      <rect id="Rectángulo_455381" data-name="Rectángulo 455381" width="352.948" height="235.299"/>
    </clipPath>
    <clipPath id="clip-path-4">
      <rect id="Rectángulo_455385" data-name="Rectángulo 455385" width="352.948" height="205.054"/>
    </clipPath>
    <clipPath id="clip-path-5">
      <rect id="Rectángulo_455386" data-name="Rectángulo 455386" width="352.948" height="206.264"/>
    </clipPath>
  </defs>
  <g id="Enmascarar_grupo_1119190" data-name="Enmascarar grupo 1119190" transform="translate(-101.711 -5987)" clip-path="url(#clip-path)">
    <rect id="Rectángulo_455389" data-name="Rectángulo 455389" width="292" height="170" rx="10" transform="translate(101.711 5987)" fill="#bbded6"/>
    <g id="OBJECTS" transform="translate(40.744 5921.597)">
      <g id="Grupo_1179133" data-name="Grupo 1179133" transform="translate(191.668 78.953)">
        <path id="Trazado_1000018" data-name="Trazado 1000018" d="M496.878,189.02s40.115-25.284,86.879,9.03" transform="translate(-454.716 -174.271)" fill="none" stroke="#dbfdd9" stroke-linecap="round" stroke-linejoin="round" stroke-miterlimit="10" stroke-width="3.087"/>
        <g id="Grupo_1179132" data-name="Grupo 1179132">
          <g id="Grupo_1179131" data-name="Grupo 1179131">
            <g id="Grupo_1179130" data-name="Grupo 1179130">
              <path id="Trazado_1000019" data-name="Trazado 1000019" d="M407.313,243.945c-.368-49.671,49.007-77.811,80.218-76.1s78.037,19.534,76,78.094-46.731,78.466-78.123,78.123-75.036-21.357-78.123-78.123" transform="translate(-407.286 -167.773)" fill="#b9f0c3"/>
              <path id="Trazado_1000020" data-name="Trazado 1000020" d="M407.313,243.945c-.368-49.671,49.007-77.811,80.218-76.1s78.037,19.534,76,78.094-46.731,78.466-78.123,78.123-75.036-21.357-78.123-78.123" transform="translate(-407.286 -167.773)" fill="#b9f0c3" opacity="0.35"/>
              <g id="Grupo_1179129" data-name="Grupo 1179129" transform="translate(1.217 17.139)">
                <path id="Trazado_1000021" data-name="Trazado 1000021" d="M545.844,213.725c.762-.824,2.027-.79,2.37-1.134s1.649-1.512,1.752-2.027a7.143,7.143,0,0,0,.275-2.748,3.542,3.542,0,0,0-1.134-1.443c-.515-.515-1.58-.859-1.889-1.168s-3.675-.79-4.946-1-5.049,1.683-5.359,1.477a5.206,5.206,0,0,0-1.614-.447,15.6,15.6,0,0,1-2.542.034,8.637,8.637,0,0,0-2.049-.55c-.468,0-3.413,1.031-3.619,1.031s-2.3-.344-2.989-.447-3.023,1.339-3.023,1.339a2.071,2.071,0,0,0-1.443,2.164c-.481-.034-.584,2.576-.481,3.5s1.162.909,1.057,1.407.329,3.116.317,3.54,1.546,1.409,1.992,1.649,1.615.721,1.82,1.1a21.074,21.074,0,0,0,1.134,2.645c.275.206.962.55,1.34.859a9.81,9.81,0,0,1,1.209,1.748,10.318,10.318,0,0,0,1.5,2.065,4.4,4.4,0,0,0,1.855.55,30.042,30.042,0,0,0,3.058,0c.79-.069,1.511-1.512,1.924-1.683s1.683-.378,2.2-.618a4.2,4.2,0,0,0,1.477-1.752,8.754,8.754,0,0,1,1.271-1.889A2.955,2.955,0,0,0,542,219.77a11.987,11.987,0,0,1,1.958-2.267c.481-.447.515-1.512.79-2.336S545.081,214.549,545.844,213.725Z" transform="translate(-467.706 -204.194)" fill="#dbfdd9"/>
                <path id="Trazado_1000022" data-name="Trazado 1000022" d="M484.255,329.277c-.36-.257-2.061-.721-2.473-1.185a20.663,20.663,0,0,0-2.113-1.546c-.67-.515-2.834-.232-3.349-.232s-2.261-.383-2.625-.333c-.959.321-1.754,1.8-1.832,1.981s-.773.7-.85,1,.9,1.3,1.537.953c.258,0,1.88.455,2.808.507s3.332-.481,4.192-.224,1.614.464,2.181.67.773.67,1.082,1.082,1.082,1.34,1.7,1.443,1.134-.464,1.391-.824-.309-1.443-.567-2.061A2.891,2.891,0,0,0,484.255,329.277Z" transform="translate(-442.238 -268.666)" fill="#dbfdd9"/>
                <path id="Trazado_1000023" data-name="Trazado 1000023" d="M438.582,288.167a13.236,13.236,0,0,0-.665,1.38,52.2,52.2,0,0,0-1.9,5.331c-.264,1.1-1.185,3.592-.979,4.548s3.71,5.175,4.174,5.433,3.079,4.068,2.937,4.534a14.951,14.951,0,0,0,.928,4.071c.258.464,3.968,3.195,3.865,3.761s-.773,3.555-.567,4.277,2.319,4.534,2.37,5.2a23.991,23.991,0,0,1-.824,4.174,15.829,15.829,0,0,0,.928,4.689,22.371,22.371,0,0,0,2.112,2.937,17.1,17.1,0,0,0,.721,2.525c.257.309,3.658,2.525,4.328,1.752s.309-5.049.515-5.719a6.869,6.869,0,0,0,.618-1.906c0-.67-.257-2.267.412-3.143a12.734,12.734,0,0,0,1.524-2.854c.288-.741-.339-2.66-.03-3.036a5.271,5.271,0,0,1,1.681-1.4,9.925,9.925,0,0,0,2.905-1.419c.567-.618-.1-2,.417-3.266s3.138-3.02,4.22-3.793,1.084-2.184,1.277-2.7.528-1.872.924-3.063a41.542,41.542,0,0,0,1.457-6.45,9.742,9.742,0,0,1,.464-2.783,13.7,13.7,0,0,0,.475-2.546c.063-.743-2.743-1.833-3.441-2.482s-4.609-.536-5.485-1-3.544-2.941-3.833-3.823-1.061-.969-1.525-1.485a17.682,17.682,0,0,0-2.525-1.855c-.567-.361-.751-1.03-1.337-1.176a16.949,16.949,0,0,1-2.436-1.228c-.578-.306-3.853-.12-3.853-.12a10.445,10.445,0,0,0-2.744-1.376,3.493,3.493,0,0,0-2.789.294,25.349,25.349,0,0,0-2.8,1.472s-2.5.211-3.158-.957-1.443-.824-1.906-1.494-1.34-1.391-1.6-1.855-2.009-2.009-2.267-2.473a6.708,6.708,0,0,0-2.37-2.267c-.979-.412-3.349-.721-3.5-.928a10.8,10.8,0,0,1-1.185-2.319,9.935,9.935,0,0,1,.618-2.216s1.494-1.546,2.009-2.009,2.834-.721,3.555-.979a8.287,8.287,0,0,1,2.989.052c.618.1,1.391,1.34,2.164,1.855s1.967,1.8,2.564,1.856,2.589-.671,2.744-1.238-.154-1.752.361-2.834a9.7,9.7,0,0,1,1.958-2.988c.773-.67.721-1.958.809-2.68s.292-1.493,3.055-2.422,5.445-3.074,5.891-3.212a6.4,6.4,0,0,0,1.031-.309c.24-.137,1.443-.824,1.718-1.443a2.066,2.066,0,0,0-.322-1.917,4.915,4.915,0,0,1-.536-1.862c-.034-.24,1.615-.721,1.992-.893s3.755-.351,4.019-.653,2.2-1.34,2.3-2.473-1.58-2.473-1.649-2.68a8.783,8.783,0,0,0-1.821-1.924,4.926,4.926,0,0,1-1.84-1.434c-.2-.446-.908-1.348-.7-1.863s1.1-1.237,1.1-1.752a4.126,4.126,0,0,0-.567-1.871A9.867,9.867,0,0,0,455.5,233.8a16.766,16.766,0,0,1-2.009-1.855,9.352,9.352,0,0,0-2.834-1.546c-.67-.206-2.885.979-3.246.979a8.628,8.628,0,0,0-2.319,1.7,5.179,5.179,0,0,1-2.422.773c-.567,0-2.937.824-4.174.979s-2.473.876-3.457.911a5.64,5.64,0,0,1-3.345-1.633c-.207-.515-.824-2.061-1.082-2.525a6.262,6.262,0,0,0-1.958-1.906,7.032,7.032,0,0,0-2.484-.537,77.8,77.8,0,0,0-16.3,35.48c.593,1.147,1.215,2.347,1.39,2.868.347,1.033,3.219,3.514,3.837,4.184s.206,4.329,1.288,5.977a3.426,3.426,0,0,0,3.78,1.821c1.668-.189,3.382,2.971,4.721,3.126s3.638.412,4.019,1.082,3.04,3.607,4.122,3.813S438.582,288.167,438.582,288.167Z" transform="translate(-409.873 -217.403)" fill="#dbfdd9"/>
                <path id="Trazado_1000024" data-name="Trazado 1000024" d="M638.235,225.444c-.32-.174-.511-.274-.511-.274-1.34-.052-3.876,1.067-5.062,1.48s-2.009.773-2.267,1.237-1.288.721-2.267.928a3.712,3.712,0,0,0-1.855.773c-.309.309-.678.412-1.34,1.031a7.14,7.14,0,0,1-1.958,1.7,38.111,38.111,0,0,1-4.581,2.027,12.444,12.444,0,0,1-2.812.072c-.334-.4-1.031-1.247-1.186-1.481a6.659,6.659,0,0,0-2.551-1.572c-.773-.128-2.4-.088-3.066-.147s-1.52-.111-2.448-.214a17.765,17.765,0,0,0-2.834-.128,6.319,6.319,0,0,0-2.164.747,25.454,25.454,0,0,1-4.148.541,11.954,11.954,0,0,0-3.143,1.237c-.386.283-.464,2.911-1.108,3.169s-1.958,1.185-1.958,1.623a6.565,6.565,0,0,0,.592,2.009,6.8,6.8,0,0,0,2.216.515,7.278,7.278,0,0,0,1.88-1.057c.618-.386,2.705-2.087,2.963-2.293s.464-.85,1.391-.85,1.159.773,1.8,1,2.164.979,2.782,1.108c.038.008.1.016.173.024a5.433,5.433,0,0,0,.265.672,4.335,4.335,0,0,1-.459,2.68A7.471,7.471,0,0,1,602,243.327c-.928.328-2.456-1.111-3.525-1.031a6.158,6.158,0,0,0-3.122.792,21.521,21.521,0,0,0-2.628,2.886c-.257.464-.928,1.494-1.443,1.546s-2.473.258-3.04.979a5.543,5.543,0,0,0-1.237,2.525,10.914,10.914,0,0,1-1.082,3.143c-.257.257-.72,1.223-1.285,2.148a4.4,4.4,0,0,0,0,3.211c.234.438,1.822.436,2.558.5s2.787-1.229,3.811-1.841,3.675-.721,4.191-.721,3.71-.154,4.225-.67,2.628-2.473,3.452-2.473a13.458,13.458,0,0,1,3.916,1.7,8.28,8.28,0,0,0,3.066.412,2.8,2.8,0,0,1,2.034,1.185,7.415,7.415,0,0,0,3.195,1.546c1.185.361,2.3,1.1,2.473,1.752s-1.082,1.031-1.907,1.031-1.6-.515-2.473-.567a9.255,9.255,0,0,0-2.422.567,30.4,30.4,0,0,1-3.247.6,14.127,14.127,0,0,1-2.627-.758c-.464-.206-1.752-1.339-2.267-1.649a7.112,7.112,0,0,0-3.194-1.288c-1.237,0-2.267-.155-3.246.412A14.05,14.05,0,0,1,593.4,260.5c-.824.258-3.452.979-4.946,1.391s-3.516,1.012-4.121,2.061a38.058,38.058,0,0,1-2.478,3.532c-.383.453-3.756,4.124-4.015,5.217s.875,3.36.669,3.927-.824,3.71-.257,4.843,2.061,2.061,2.577,2.731,2.449,4.373,4.058,4.686,3.162-.821,4.34-.821,2.113-1.134,3.04-1.134,1.875-.594,2.525-.051,1.6,1.854,2.731,2.061,2.834,1.649,2.679,2.422a22.435,22.435,0,0,0-.051,4.122,31.253,31.253,0,0,1,1.8,3.916,26.434,26.434,0,0,1-1.082,4.171c-.361,1.188,1.185,3.61,1.6,4.383a3.743,3.743,0,0,1,.67,2.009c0,.824,1.34,2.782,1.6,3.3s.36,2.319.67,3.195a9.9,9.9,0,0,0,1.494,2.834c.567.618,2.787,2.343,3.246,2.834s2.875.208,3.53-.089a29.931,29.931,0,0,0,3.7-2.838c.143-.21,1.062-4.338,1.165-4.956s3.186-4.865,2.984-5.4a38.492,38.492,0,0,1,.159-4.91c0-.309,1.134-2.267,1.185-2.525s.1-2.422.1-2.834,2.525-5.771,3.246-6.389,4.893-3.471,5.442-4,1.411-4.866,1.411-5.124a5.343,5.343,0,0,0-1.185-1.7,31.757,31.757,0,0,1-3.3-1.134,29.2,29.2,0,0,0-3.18-.947c-.243-.164-2.52-2.426-2.679-2.646a18.906,18.906,0,0,1-1.355-3.1c0-.361-.206-2.989.206-3.04s1.2-.544,1.271-.253a6.141,6.141,0,0,0,1.46,2.469c.721.515,3.233,2.113,3.246,2.679s2.084,1.913,2.818,2.03a28.415,28.415,0,0,0,6.348-1.113,10.884,10.884,0,0,0,2.442-2.2,4.723,4.723,0,0,0-.737-2.428c-.36-.206-2.267-.773-2.731-.979s-1.325-1.328-1.9-1.6a3.6,3.6,0,0,1-1.556-1.6c-.1-.464.1-2.319.36-2.319a5.986,5.986,0,0,1,1.752.309c.412.206,1.268.954,1.648,1.116s1.443,1.408,2.113,1.666,4.586.309,5,.464,2.628,1.082,2.886,1.082,2.13,1.318,2.778,1.445,2.786.874,3.508.513c.321-.16.824-.4,1.331-.689C653.625,252.51,648.376,237.7,638.235,225.444Z" transform="translate(-498.773 -215.298)" fill="#dbfdd9"/>
                <path id="Trazado_1000025" data-name="Trazado 1000025" d="M686.4,387.58c0-.206.447-1.443.55-1.821a8.2,8.2,0,0,0,.515-1.34,4.593,4.593,0,0,0,0-1.374,3.5,3.5,0,0,0-1.546-.79,7.656,7.656,0,0,0-1.3.721c-.034.1-.309,1.237-.515,1.34s-.355,1.28-.721,1.443c-.309.137-.653,1.58-.55,1.683a2.334,2.334,0,0,1,.55,1.409c-.1.481-.378.893,0,1.168s1.134.893,1.718.859,1.134-1.031,1.34-1.443A5.479,5.479,0,0,0,686.4,387.58Z" transform="translate(-554.366 -298.457)" fill="#dbfdd9"/>
                <path id="Trazado_1000026" data-name="Trazado 1000026" d="M580.1,238.95a9.834,9.834,0,0,0-2.576-.928c-.55.034-2.039,1.733-2.164,1.855a2.1,2.1,0,0,0,0,2.714c.584.378,1.3.275,1.58.481s.653,1.443,1.134,1.683a4.28,4.28,0,0,0,2.885-.447,4.5,4.5,0,0,0,.584-2.37c.034-.653-.824-1.031-.962-1.512S580.37,239.088,580.1,238.95Z" transform="translate(-497.218 -222.102)" fill="#dbfdd9"/>
                <path id="Trazado_1000027" data-name="Trazado 1000027" d="M596.573,263.588a2.8,2.8,0,0,0,.361,1.3c.232.193,1.417-.193,1.623-.232s1.159-.154,1.224-.309a2.737,2.737,0,0,0,.309-1.12c-.065-.309-.438-.477-.4-.747a2.286,2.286,0,0,0-.309-1.185,1.5,1.5,0,0,0-.631-.528c-.052-.064-.721-.361-.786-.489s-.1-.528-.18-.58a4.05,4.05,0,0,0-.554-.412c-.438-.193-.632.1-.632.168s.013.489-.077.58a3.364,3.364,0,0,0-.245,1.069c0,.232.515.348.605.58a1.12,1.12,0,0,1-.116.889A2.457,2.457,0,0,0,596.573,263.588Z" transform="translate(-508.556 -233.325)" fill="#dbfdd9"/>
              </g>
            </g>
          </g>
        </g>
      </g>
      <g id="Grupo_1179144" data-name="Grupo 1179144" transform="translate(216.39 76.129)">
        <g id="Grupo_1179140" data-name="Grupo 1179140" transform="translate(0 31.677)">
          <g id="Grupo_1179136" data-name="Grupo 1179136">
            <g id="Grupo_1179135" data-name="Grupo 1179135">
              <g id="Grupo_1179134" data-name="Grupo 1179134">
                <path id="Trazado_1000028" data-name="Trazado 1000028" d="M523.126,242.5c-1.868-7.707-9.32-14.237-17.2-13.337-4.654.532-8.8,3.472-11.588,7.234a32.052,32.052,0,0,0-2.683,4.042,32.12,32.12,0,0,0-2.807-3.958c-2.9-3.676-7.136-6.488-11.8-6.877-7.9-.659-15.15,6.1-16.782,13.856s1.4,15.914,6.273,22.174,12.93,14.248,26.419,17.123c8.823-2.176,19.9-11.5,24.578-17.9S524.993,250.211,523.126,242.5Z" transform="translate(-459.82 -229.084)" fill="#da5882"/>
              </g>
            </g>
          </g>
          <g id="Grupo_1179139" data-name="Grupo 1179139" transform="translate(46.041 3.44)">
            <g id="Grupo_1179138" data-name="Grupo 1179138">
              <g id="Grupo_1179137" data-name="Grupo 1179137">
                <path id="Trazado_1000029" data-name="Trazado 1000029" d="M563.187,271.224a37.93,37.93,0,0,0,4.228-4.743c3.931-5.387,6.274-12.319,4.7-18.8s-7.838-11.973-14.464-11.216" transform="translate(-557.655 -236.394)" fill="none" stroke="#072420" stroke-linecap="round" stroke-linejoin="round" stroke-miterlimit="10" stroke-width="1.2"/>
              </g>
            </g>
          </g>
        </g>
        <g id="Grupo_1179143" data-name="Grupo 1179143" transform="translate(75.004)">
          <g id="Grupo_1179142" data-name="Grupo 1179142">
            <path id="Trazado_1000030" data-name="Trazado 1000030" d="M647.39,180.132a14.374,14.374,0,1,1-9.829-17.794A14.374,14.374,0,0,1,647.39,180.132Z" transform="translate(-619.2 -161.771)" fill="#edb44e"/>
            <g id="Grupo_1179141" data-name="Grupo 1179141" transform="translate(7.922 8.257)">
              <path id="Trazado_1000031" data-name="Trazado 1000031" d="M639.688,181.788a1.875,1.875,0,1,1-1.183-2.374A1.875,1.875,0,0,1,639.688,181.788Z" transform="translate(-636.034 -179.316)" fill="#072420"/>
              <path id="Trazado_1000032" data-name="Trazado 1000032" d="M662.462,188.355a1.875,1.875,0,1,1-1.183-2.374A1.876,1.876,0,0,1,662.462,188.355Z" transform="translate(-648.09 -182.793)" fill="#072420"/>
            </g>
            <path id="Trazado_1000033" data-name="Trazado 1000033" d="M647.5,196.693c-5.795,1.349-9.982-2.879-9.982-2.879a5.195,5.195,0,0,0,9.982,2.879Z" transform="translate(-628.748 -178.735)" fill="#fff"/>
          </g>
          <path id="Trazado_1000034" data-name="Trazado 1000034" d="M649.255,162.975A14.374,14.374,0,1,1,641.29,190.6" transform="translate(-630.895 -162.409)" fill="none" stroke="#072420" stroke-linecap="round" stroke-linejoin="round" stroke-miterlimit="10" stroke-width="1.298"/>
        </g>
      </g>
      <g id="Grupo_1179149" data-name="Grupo 1179149">
        <g id="Grupo_1179146" data-name="Grupo 1179146" clip-path="url(#clip-path-2)">
          <path id="Trazado_1000035" data-name="Trazado 1000035" d="M702.929,361.169c.179.079.36.153.535.23,5.568,2.414,10.853,4.937,15.143,9.246,4.743,4.764,7.346,11.245,9.127,17.737.019.071.039.137.057.208,1.487,5.469,2.409,10.814,4.063,16.134.008.2.007.405.006.611a.37.37,0,0,1,0,.1c-.1-.2-.2-.389-.3-.578a.947.947,0,0,0-.061-.111c-.477-.9-1-1.774-1.562-2.618-.162-.253-.331-.5-.5-.745-6.164-8.921-15.695-15.206-21.346-24.461a36.218,36.218,0,0,1-5.138-15.52C702.941,361.323,702.938,361.245,702.929,361.169Z" transform="translate(-372.132 -191.204)" fill="#c8ec61"/>
          <path id="Trazado_1000036" data-name="Trazado 1000036" d="M702.881,360.537l.362.484q3.892,5.209,7.731,10.52c3.782,5.229,7.507,10.512,11.137,15.8a72.212,72.212,0,0,1,6.707,11.207c.405.9.781,1.828,1.146,2.729.416,1.03.839,2.074,1.313,3.094a.079.079,0,0,0,.014.035.182.182,0,0,0,.022.037c.1.232.211.462.327.686,0,.288,0,.574-.012.862a36.8,36.8,0,0,1-1.657-3.619c-.089-.206-.171-.415-.255-.619-.04-.108-.086-.214-.13-.323-.363-.9-.739-1.826-1.138-2.717a72.062,72.062,0,0,0-6.673-11.144c-3.767-5.486-7.641-10.973-11.578-16.4q-3.7-5.117-7.466-10.142c-.058-.08-.12-.161-.179-.241a.207.207,0,0,1,.042-.286A.2.2,0,0,1,702.881,360.537Z" transform="translate(-371.912 -190.825)" fill="#072420"/>
          <g id="Grupo_1179145" data-name="Grupo 1179145" transform="translate(323.245 188.277)">
            <path id="Trazado_1000037" data-name="Trazado 1000037" d="M697.967,404.192a44.8,44.8,0,0,1,14.155,8.034,56.008,56.008,0,0,1,9.575,11.12c.448.672.893,1.352,1.32,2.033a.185.185,0,0,0,.022.037.219.219,0,0,1,.026.039c.1.159.2.317.3.48a.361.361,0,0,1,0,.1.276.276,0,0,1,0,.069c0,.288,0,.574-.012.862q0,.206-.011.408c-.005.166-.009.327-.022.49-.009.3-.03.6-.056.9a36.1,36.1,0,0,0-6.3-2.34,78.678,78.678,0,0,1-12.587-4.732,31.921,31.921,0,0,1-10.584-8.159c-2.9-3.571-4.717-7.86-6.4-12.153-.129-.336-.26-.668-.394-1.005-.035-.1-.074-.2-.113-.3C690.53,402.117,694.042,402.768,697.967,404.192Z" transform="translate(-686.883 -400.08)" fill="#c8ec61"/>
            <path id="Trazado_1000038" data-name="Trazado 1000038" d="M687.387,400.691a11.276,11.276,0,0,0,2.665,3.278c6.385,5.982,13.885,10.805,21.138,15.476,3.891,2.5,7.908,5.088,11.718,7.827.168.122.334.239.5.363-.005.166-.009.327-.022.49-.231-.177-.471-.354-.712-.526-3.8-2.731-7.818-5.314-11.7-7.812-7.267-4.68-14.785-9.514-21.2-15.522a14.008,14.008,0,0,1-2.324-2.621,6.573,6.573,0,0,1-.433-.778.2.2,0,0,1,.039-.227.161.161,0,0,1,.058-.044A.2.2,0,0,1,687.387,400.691Z" transform="translate(-686.945 -400.342)" fill="#072420"/>
          </g>
        </g>
        <g id="Grupo_1179148" data-name="Grupo 1179148" clip-path="url(#clip-path-2)">
          <path id="Trazado_1000039" data-name="Trazado 1000039" d="M273.426,430.332c.164.106.33.208.491.312,5.112,3.271,9.927,6.6,13.474,11.543,3.922,5.46,5.458,12.273,6.181,18.966.007.073.016.142.023.215.6,5.636.653,11.06,1.437,16.575-.025.2-.057.4-.092.6a.352.352,0,0,1-.016.1c-.064-.208-.133-.415-.2-.619a.84.84,0,0,0-.042-.119c-.327-.965-.705-1.912-1.124-2.833-.12-.275-.247-.545-.375-.816-4.663-9.789-13.068-17.515-17.171-27.553a36.228,36.228,0,0,1-2.6-16.141C273.413,430.486,273.422,430.408,273.426,430.332Z" transform="translate(-144.7 -227.819)" fill="#c8ec61"/>
          <path id="Trazado_1000040" data-name="Trazado 1000040" d="M273.552,429.734l.28.536q3.011,5.763,5.954,11.618c2.9,5.765,5.734,11.574,8.475,17.37a72.2,72.2,0,0,1,4.834,12.133c.256.951.48,1.929.7,2.877.246,1.083.5,2.182.8,3.264a.085.085,0,0,0,.008.037.252.252,0,0,0,.015.04c.063.245.134.49.213.729-.046.284-.095.566-.149.849a36.818,36.818,0,0,1-1.058-3.837c-.054-.217-.1-.437-.153-.652-.023-.113-.05-.224-.077-.34-.215-.942-.438-1.921-.69-2.864a72.061,72.061,0,0,0-4.81-12.066c-2.844-6.016-5.793-12.052-8.813-18.038q-2.835-5.641-5.753-11.2c-.045-.089-.093-.178-.138-.267a.207.207,0,0,1,.087-.275A.2.2,0,0,1,273.552,429.734Z" transform="translate(-144.614 -227.444)" fill="#072420"/>
          <g id="Grupo_1179147" data-name="Grupo 1179147" transform="translate(118.334 219.387)">
            <path id="Trazado_1000041" data-name="Trazado 1000041" d="M261.776,472.014A44.809,44.809,0,0,1,274.468,482.2a56,56,0,0,1,7.679,12.505c.335.735.666,1.477.979,2.218a.26.26,0,0,0,.015.04.193.193,0,0,1,.019.042c.073.173.147.345.219.521a.351.351,0,0,1-.016.1.3.3,0,0,1-.009.069c-.046.284-.095.566-.149.849q-.032.2-.076.4c-.032.162-.061.321-.1.48-.057.3-.126.59-.2.882a36.06,36.06,0,0,0-5.851-3.315,78.648,78.648,0,0,1-11.671-6.679,31.912,31.912,0,0,1-9.147-9.743c-2.289-3.987-3.4-8.512-4.381-13.018-.074-.352-.151-.7-.229-1.055-.019-.1-.042-.206-.064-.31C254.765,468.779,258.128,469.982,261.776,472.014Z" transform="translate(-251.472 -466.188)" fill="#c8ec61"/>
            <path id="Trazado_1000042" data-name="Trazado 1000042" d="M251.853,466.9a11.284,11.284,0,0,0,2.108,3.661c5.349,6.923,11.984,12.882,18.4,18.649,3.442,3.089,6.995,6.284,10.319,9.595.147.147.292.289.433.438-.032.162-.061.321-.1.48-.2-.212-.409-.424-.619-.633-3.315-3.3-6.87-6.493-10.305-9.578-6.427-5.779-13.079-11.75-18.448-18.7a14.037,14.037,0,0,1-1.876-2.958,6.537,6.537,0,0,1-.3-.837.2.2,0,0,1,.074-.218.163.163,0,0,1,.064-.034A.2.2,0,0,1,251.853,466.9Z" transform="translate(-251.454 -466.489)" fill="#072420"/>
          </g>
        </g>
      </g>
      <g id="Grupo_1179162" data-name="Grupo 1179162" transform="translate(21.438 78.393)">
        <g id="Grupo_1179156" data-name="Grupo 1179156" transform="translate(97.869 98.931)">
          <g id="Grupo_1179152" data-name="Grupo 1179152" transform="translate(3.44)">
            <path id="Trazado_1000043" data-name="Trazado 1000043" d="M274.6,380.789l-8.134,15.264a2.091,2.091,0,0,1-2.829.862l-1.7-.907a2.092,2.092,0,0,1-.862-2.83l8.134-15.264a2.092,2.092,0,0,1,2.829-.862l1.7.907A2.092,2.092,0,0,1,274.6,380.789Z" transform="translate(-260.832 -376.806)" fill="#edb44e"/>
            <g id="Grupo_1179150" data-name="Grupo 1179150" transform="translate(1.183 14.196)">
              <path id="Trazado_1000044" data-name="Trazado 1000044" d="M263.853,412.008a.345.345,0,1,1-.466.142A.345.345,0,0,1,263.853,412.008Z" transform="translate(-263.346 -409.617)" fill="#072420"/>
              <path id="Trazado_1000045" data-name="Trazado 1000045" d="M268.224,410.641a.345.345,0,1,1-.466.142A.345.345,0,0,1,268.224,410.641Z" transform="translate(-265.66 -408.894)" fill="#072420"/>
              <path id="Trazado_1000046" data-name="Trazado 1000046" d="M266.1,407.013a.345.345,0,1,1-.466.142A.345.345,0,0,1,266.1,407.013Z" transform="translate(-264.535 -406.973)" fill="#072420"/>
              <path id="Trazado_1000047" data-name="Trazado 1000047" d="M272.367,410.4a.345.345,0,1,1-.466.142A.345.345,0,0,1,272.367,410.4Z" transform="translate(-267.853 -408.767)" fill="#072420"/>
              <path id="Trazado_1000048" data-name="Trazado 1000048" d="M269.52,414.9a.345.345,0,1,1-.467.142A.345.345,0,0,1,269.52,414.9Z" transform="translate(-266.346 -411.145)" fill="#072420"/>
            </g>
            <g id="Grupo_1179151" data-name="Grupo 1179151" transform="translate(7.62 1.896)">
              <path id="Trazado_1000049" data-name="Trazado 1000049" d="M279.967,381.484a.345.345,0,1,0-.142-.466A.345.345,0,0,0,279.967,381.484Z" transform="translate(-278.486 -380.835)" fill="#072420"/>
              <path id="Trazado_1000050" data-name="Trazado 1000050" d="M277.208,386.953a.345.345,0,1,0-.142-.466A.345.345,0,0,0,277.208,386.953Z" transform="translate(-277.025 -383.73)" fill="#072420"/>
              <path id="Trazado_1000051" data-name="Trazado 1000051" d="M281.27,385.875a.345.345,0,1,0-.142-.466A.345.345,0,0,0,281.27,385.875Z" transform="translate(-279.176 -383.16)" fill="#072420"/>
              <path id="Trazado_1000052" data-name="Trazado 1000052" d="M285.523,384.578a.345.345,0,1,0-.143-.467A.345.345,0,0,0,285.523,384.578Z" transform="translate(-281.427 -382.473)" fill="#072420"/>
              <path id="Trazado_1000053" data-name="Trazado 1000053" d="M283.5,389.406a.345.345,0,1,0-.142-.466A.345.345,0,0,0,283.5,389.406Z" transform="translate(-280.354 -385.029)" fill="#072420"/>
            </g>
          </g>
          <g id="Grupo_1179155" data-name="Grupo 1179155" transform="translate(0 3.88)">
            <path id="Trazado_1000054" data-name="Trazado 1000054" d="M254.812,390.857l15.975,6.629a2.091,2.091,0,0,0,2.733-1.13l.739-1.781a2.092,2.092,0,0,0-1.13-2.734l-15.975-6.629a2.091,2.091,0,0,0-2.733,1.13l-.739,1.781A2.093,2.093,0,0,0,254.812,390.857Z" transform="translate(-253.521 -385.051)" fill="#edb44e"/>
            <rect id="Rectángulo_455383" data-name="Rectángulo 455383" width="7.052" height="4.806" transform="matrix(-0.924, -0.383, 0.383, -0.924, 12.897, 9.935)" fill="none" stroke="#072420" stroke-linecap="round" stroke-linejoin="round" stroke-miterlimit="10" stroke-width="0.734"/>
            <g id="Grupo_1179153" data-name="Grupo 1179153" transform="translate(15.027 6.515)">
              <path id="Trazado_1000055" data-name="Trazado 1000055" d="M293.077,401.541a.345.345,0,1,0,.451-.186A.345.345,0,0,0,293.077,401.541Z" transform="translate(-289.475 -400.183)" fill="#072420"/>
              <path id="Trazado_1000056" data-name="Trazado 1000056" d="M288.831,403.26a.345.345,0,1,0,.451-.186A.345.345,0,0,0,288.831,403.26Z" transform="translate(-287.227 -401.094)" fill="#072420"/>
              <path id="Trazado_1000057" data-name="Trazado 1000057" d="M288.17,399.108a.345.345,0,1,0,.451-.186A.345.345,0,0,0,288.17,399.108Z" transform="translate(-286.878 -398.895)" fill="#072420"/>
              <path id="Trazado_1000058" data-name="Trazado 1000058" d="M285.479,405.7a.345.345,0,1,0,.451-.186A.345.345,0,0,0,285.479,405.7Z" transform="translate(-285.453 -402.388)" fill="#072420"/>
              <path id="Trazado_1000059" data-name="Trazado 1000059" d="M290.531,407.37a.345.345,0,1,0,.451-.186A.345.345,0,0,0,290.531,407.37Z" transform="translate(-288.127 -403.269)" fill="#072420"/>
            </g>
            <g id="Grupo_1179154" data-name="Grupo 1179154" transform="translate(2.228 1.252)">
              <path id="Trazado_1000060" data-name="Trazado 1000060" d="M261.246,388.189a.345.345,0,1,1-.186-.451A.345.345,0,0,1,261.246,388.189Z" transform="translate(-259.487 -387.712)" fill="#072420"/>
              <path id="Trazado_1000061" data-name="Trazado 1000061" d="M266.85,390.662a.345.345,0,1,1-.186-.451A.345.345,0,0,1,266.85,390.662Z" transform="translate(-262.454 -389.021)" fill="#072420"/>
              <path id="Trazado_1000062" data-name="Trazado 1000062" d="M263.027,392.408a.345.345,0,1,1-.186-.451A.345.345,0,0,1,263.027,392.408Z" transform="translate(-260.43 -389.945)" fill="#072420"/>
              <path id="Trazado_1000063" data-name="Trazado 1000063" d="M258.918,394.108a.345.345,0,1,1-.186-.451A.345.345,0,0,1,258.918,394.108Z" transform="translate(-258.255 -390.845)" fill="#072420"/>
              <path id="Trazado_1000064" data-name="Trazado 1000064" d="M263.549,396.55a.345.345,0,1,1-.186-.451A.345.345,0,0,1,263.549,396.55Z" transform="translate(-260.707 -392.138)" fill="#072420"/>
            </g>
          </g>
        </g>
        <g id="Grupo_1179161" data-name="Grupo 1179161">
          <g id="Grupo_1179157" data-name="Grupo 1179157" transform="translate(227.526)">
            <circle id="Elipse_13718" data-name="Elipse 13718" cx="6.337" cy="6.337" r="6.337" fill="#da5882"/>
            <path id="Trazado_1000065" data-name="Trazado 1000065" d="M540.888,173.129h-3.4v-3.4a.952.952,0,0,0-1.9,0v3.4h-3.4a.952.952,0,0,0-.952.952h0a.952.952,0,0,0,.952.952h3.4v3.4a.952.952,0,0,0,1.9,0v-3.4h3.4a.952.952,0,0,0,.952-.952h0A.952.952,0,0,0,540.888,173.129Z" transform="translate(-530.2 -167.744)" fill="#fff"/>
          </g>
          <g id="Grupo_1179158" data-name="Grupo 1179158" transform="translate(205.841 138.114)">
            <circle id="Elipse_13719" data-name="Elipse 13719" cx="5.712" cy="5.712" r="5.712" transform="translate(0 11.275) rotate(-80.747)" fill="#da5882"/>
            <path id="Trazado_1000066" data-name="Trazado 1000066" d="M495.422,467.764h-3.065V464.7a.858.858,0,1,0-1.716,0v3.065h-3.064a.858.858,0,0,0-.858.858h0a.858.858,0,0,0,.858.858h3.064v3.065a.858.858,0,1,0,1.716,0V469.48h3.065a.858.858,0,0,0,.858-.858h0A.858.858,0,0,0,495.422,467.764Z" transform="translate(-484.949 -462.066)" fill="#fff"/>
          </g>
          <g id="Grupo_1179159" data-name="Grupo 1179159" transform="translate(0 120.592)">
            <circle id="Elipse_13720" data-name="Elipse 13720" cx="5.712" cy="5.712" r="5.712" transform="translate(0 11.312) rotate(-82.027)" fill="#da5882"/>
            <path id="Trazado_1000067" data-name="Trazado 1000067" d="M57.816,430.3H54.752v-3.065a.858.858,0,0,0-1.716,0V430.3H49.972a.858.858,0,0,0-.858.858h0a.858.858,0,0,0,.858.858h3.064v3.065a.858.858,0,1,0,1.716,0v-3.065h3.065a.858.858,0,0,0,.858-.858h0A.858.858,0,0,0,57.816,430.3Z" transform="translate(-47.439 -424.71)" fill="#fff"/>
          </g>
          <g id="Grupo_1179160" data-name="Grupo 1179160" transform="translate(308.995 34.956)">
            <circle id="Elipse_13721" data-name="Elipse 13721" cx="6.551" cy="6.551" r="6.551" transform="translate(0 9.937) rotate(-49.331)" fill="#da5882"/>
            <path id="Trazado_1000068" data-name="Trazado 1000068" d="M720.123,253.377h-3.514v-3.514a.984.984,0,1,0-1.968,0v3.514h-3.514a.984.984,0,0,0-.984.984h0a.984.984,0,0,0,.984.984h3.514v3.514a.984.984,0,0,0,1.968,0v-3.514h3.514a.984.984,0,0,0,.984-.984h0A.984.984,0,0,0,720.123,253.377Z" transform="translate(-706.384 -245.106)" fill="#fff"/>
          </g>
        </g>
      </g>
      <g id="Grupo_1179164" data-name="Grupo 1179164" transform="translate(172.572 86.477)">
        <g id="Grupo_1179163" data-name="Grupo 1179163">
          <path id="Trazado_1000069" data-name="Trazado 1000069" d="M372,261.975l3.133,1.039-3.067,1.011-1.181,3.237-1.207-3.216-2.965-.956,3.152-1.1,1.1-3.153Z" transform="translate(-366.709 -223.509)" fill="#3d998b"/>
          <path id="Trazado_1000070" data-name="Trazado 1000070" d="M704.41,186.893l3.133,1.039-3.067,1.011-1.181,3.237-1.207-3.216-2.965-.956,3.153-1.1,1.1-3.153Z" transform="translate(-542.689 -183.76)" fill="#3d998b"/>
        </g>
        <path id="Trazado_1000071" data-name="Trazado 1000071" d="M708.947,450.469l3.133,1.039-3.067,1.011-1.181,3.237-1.206-3.216-2.965-.956,3.152-1.1,1.1-3.153Z" transform="translate(-545.092 -323.298)" fill="#3d998b"/>
      </g>
      <g id="Grupo_1179242" data-name="Grupo 1179242" transform="translate(0.308 29.139)">
        <g id="Grupo_1179197" data-name="Grupo 1179197" transform="translate(0 1.21)" clip-path="url(#clip-path-4)">
          <g id="Grupo_1179167" data-name="Grupo 1179167" transform="translate(226.012 94.688)">
            <g id="Grupo_1179165" data-name="Grupo 1179165" transform="translate(9.549 9.781)">
              <path id="Trazado_1000072" data-name="Trazado 1000072" d="M501.213,286.661c2.681-.62,5.458.477,7.841,1.853a17.026,17.026,0,0,1,5.566,4.743c3.553,5.056,2.491,11.915,3.935,17.923a15.229,15.229,0,0,0,5.891,9.19c3.088,2.081,7.422,2.49,10.525.432a18.149,18.149,0,0,0,4.216-4.644q1.8-2.438,3.812-4.712a10.375,10.375,0,0,1,4.54-3.426c2.284-.672,4.7.166,7.031.635" transform="translate(-501.213 -286.484)" fill="none" stroke="#072420" stroke-linecap="round" stroke-linejoin="round" stroke-miterlimit="10" stroke-width="1.2"/>
              <path id="Trazado_1000073" data-name="Trazado 1000073" d="M606.347,324.81a12.739,12.739,0,0,0,7.485-6.041" transform="translate(-556.871 -303.576)" fill="none" stroke="#072420" stroke-linecap="round" stroke-linejoin="round" stroke-miterlimit="10" stroke-width="1.2"/>
            </g>
            <g id="Grupo_1179166" data-name="Grupo 1179166">
              <circle id="Elipse_13722" data-name="Elipse 13722" cx="8.62" cy="8.62" r="8.62" fill="#072420"/>
              <path id="Trazado_1000074" data-name="Trazado 1000074" d="M499.188,280.475a3.8,3.8,0,1,1-3.8-3.8A3.8,3.8,0,0,1,499.188,280.475Z" transform="translate(-486.571 -271.511)" fill="none" stroke="#072420" stroke-linecap="round" stroke-linejoin="round" stroke-miterlimit="10" stroke-width="1.2"/>
            </g>
          </g>
          <g id="Grupo_1179196" data-name="Grupo 1179196" transform="translate(229.275 94.22)">
            <g id="Grupo_1179174" data-name="Grupo 1179174" transform="translate(29.12 105.015)">
              <g id="Grupo_1179170" data-name="Grupo 1179170" transform="translate(0 81.205)">
                <g id="Grupo_1179168" data-name="Grupo 1179168" transform="translate(30.769 0.679)">
                  <path id="Trazado_1000075" data-name="Trazado 1000075" d="M635.869,663.346l-1.456,20.305,12.033-.367,1.384-21.427Z" transform="translate(-625.333 -661.857)" fill="#ce9180"/>
                  <path id="Trazado_1000076" data-name="Trazado 1000076" d="M623.058,697.888l14.557.414.653,10.939-23.15-.17,5.872-5.646Z" transform="translate(-615.118 -680.932)" fill="#fff"/>
                </g>
                <g id="Grupo_1179169" data-name="Grupo 1179169">
                  <path id="Trazado_1000077" data-name="Trazado 1000077" d="M585.5,661.259l-2.545,20.2,12.036.281,2.533-21.322Z" transform="translate(-567.324 -660.415)" fill="#ce9180"/>
                  <path id="Trazado_1000078" data-name="Trazado 1000078" d="M565.037,694.373c.414,0,14.337,1.323,14.337,1.323v11.645l-29.639-.12,10.257-6.723Z" transform="translate(-549.735 -678.392)" fill="#fff"/>
                </g>
              </g>
              <g id="Grupo_1179173" data-name="Grupo 1179173" transform="translate(13.355)">
                <path id="Trazado_1000079" data-name="Trazado 1000079" d="M578.114,578.1l21.482,1.083,8.824-82.994-27.084-2.231Z" transform="translate(-578.114 -491.086)" fill="#072420"/>
                <g id="Grupo_1179172" data-name="Grupo 1179172">
                  <path id="Trazado_1000080" data-name="Trazado 1000080" d="M626.19,487.857l2.128,88.1h18.615l.614-84.457Z" transform="translate(-603.566 -487.857)" fill="#072420"/>
                  <g id="Grupo_1179171" data-name="Grupo 1179171" transform="translate(0 5.102)">
                    <path id="Trazado_1000081" data-name="Trazado 1000081" d="M578.114,580.609l21.482,1.083L608.42,498.7" transform="translate(-578.114 -498.698)" fill="none" stroke="#072420" stroke-linecap="round" stroke-linejoin="round" stroke-miterlimit="10" stroke-width="1.2"/>
                  </g>
                </g>
              </g>
            </g>
            <g id="Grupo_1179194" data-name="Grupo 1179194">
              <g id="Grupo_1179187" data-name="Grupo 1179187" transform="translate(54.844)">
                <g id="Grupo_1179183" data-name="Grupo 1179183">
                  <g id="Grupo_1179182" data-name="Grupo 1179182">
                    <g id="Grupo_1179178" data-name="Grupo 1179178" transform="translate(2.196 7.805)">
                      <g id="Grupo_1179175" data-name="Grupo 1179175" transform="translate(0 7.76)">
                        <path id="Trazado_1000082" data-name="Trazado 1000082" d="M611.363,297.779a11,11,0,0,1-2.241,3.655.148.148,0,0,0-.059.085c-.006.049.037.089.075.12a8.49,8.49,0,0,0,1.39.888l.756.407Z" transform="translate(-609.063 -297.779)" fill="#ce9180"/>
                      </g>
                      <path id="Trazado_1000083" data-name="Trazado 1000083" d="M619.051,281.294l4.727.2c3.143.135,5.588,3.173,5.434,6.751l-.315,7.327c-.009.207-.028.41-.054.611a2.932,2.932,0,0,1,.052.675l-.192,4.46-.011.248-.192,4.46a2.954,2.954,0,0,1-3.069,2.816l-1.875-.08a2.954,2.954,0,0,1-2.816-3.069l.169-3.947-2.733-.118c-3.142-.135-5.588-3.173-5.434-6.751l.315-7.327C613.212,283.976,615.909,281.159,619.051,281.294Z" transform="translate(-611.008 -281.289)" fill="#ce9180"/>
                      <g id="Grupo_1179176" data-name="Grupo 1179176" transform="translate(4.862 8.902)">
                        <path id="Trazado_1000084" data-name="Trazado 1000084" d="M619.523,300.718a1,1,0,1,0,1.362-.384A1,1,0,0,0,619.523,300.718Z" transform="translate(-619.395 -300.206)" fill="#072420"/>
                      </g>
                      <path id="Trazado_1000085" data-name="Trazado 1000085" d="M615.665,311.41s.738,3.641-2.324,1.681Z" transform="translate(-611.328 -297.235)" fill="#fff"/>
                      <g id="Grupo_1179177" data-name="Grupo 1179177" transform="translate(5.794 7.102)">
                        <path id="Trazado_1000086" data-name="Trazado 1000086" d="M622.749,296.659s.987.4.719.9c0,0-.188.333-1.038-.039s-1.137-.6-1.035-.951S622.31,296.427,622.749,296.659Z" transform="translate(-621.375 -296.381)" fill="#072420"/>
                      </g>
                    </g>
                    <g id="Grupo_1179181" data-name="Grupo 1179181">
                      <g id="Grupo_1179179" data-name="Grupo 1179179">
                        <path id="Trazado_1000087" data-name="Trazado 1000087" d="M614.263,275.969s-14.472,1.351-8.362-9.058c2.943-5.013,10.349.083,10.349.083a5.489,5.489,0,0,1,6.639-.525c3.89,2.225,4.334,7.653,4.334,7.653s3.962-.09,4.189,4.731q.011.226.006.45a6.677,6.677,0,0,1-10.28,5.311Z" transform="translate(-604.396 -264.704)" fill="#072420"/>
                      </g>
                      <g id="Grupo_1179180" data-name="Grupo 1179180" transform="translate(17.113 17.958)">
                        <path id="Trazado_1000088" data-name="Trazado 1000088" d="M648.067,306.874a3.663,3.663,0,1,1-3.271-3.99A3.648,3.648,0,0,1,648.067,306.874Z" transform="translate(-640.761 -302.864)" fill="#ce9180"/>
                        <path id="Trazado_1000089" data-name="Trazado 1000089" d="M644.321,308.927a2,2,0,0,1,2.585-1.938" transform="translate(-642.646 -305.008)" fill="none" stroke="#072420" stroke-linecap="round" stroke-linejoin="round" stroke-miterlimit="10" stroke-width="1.2"/>
                      </g>
                    </g>
                    <path id="Trazado_1000090" data-name="Trazado 1000090" d="M623.912,306.038a2.468,2.468,0,1,0,2.659-2.26A2.468,2.468,0,0,0,623.912,306.038Z" transform="translate(-614.724 -285.386)" fill="#da5882" opacity="0.3"/>
                  </g>
                </g>
                <g id="Grupo_1179186" data-name="Grupo 1179186" transform="translate(7.508 29.314)">
                  <g id="Grupo_1179184" data-name="Grupo 1179184">
                    <path id="Trazado_1000091" data-name="Trazado 1000091" d="M622.133,334.825l12.187-.189a1.693,1.693,0,0,0,1.666-1.718l-.065-4.256A1.693,1.693,0,0,0,634.2,327l-12.187.189a1.692,1.692,0,0,0-1.666,1.719l.066,4.256A1.691,1.691,0,0,0,622.133,334.825Z" transform="translate(-620.35 -326.996)" fill="#edb44e"/>
                  </g>
                  <g id="Grupo_1179185" data-name="Grupo 1179185" transform="translate(1.187 0.045)">
                    <rect id="Rectángulo_455384" data-name="Rectángulo 455384" width="0.384" height="7.642" transform="translate(5.86 0.075) rotate(-0.888)" fill="#072420"/>
                    <path id="Trazado_1000092" data-name="Trazado 1000092" d="M642.369,327.1l.385-.006-.3,7.647-.385.006Z" transform="translate(-633.036 -327.092)" fill="#072420"/>
                    <path id="Trazado_1000093" data-name="Trazado 1000093" d="M628.605,327.311l.385-.006-.307,7.648-.385.006Z" transform="translate(-625.745 -327.205)" fill="#072420"/>
                    <path id="Trazado_1000094" data-name="Trazado 1000094" d="M622.98,334.876l-.107-6.907a2.464,2.464,0,0,1,.382-.2l.113,7.292A2.474,2.474,0,0,1,622.98,334.876Z" transform="translate(-622.873 -327.451)" fill="#072420"/>
                    <path id="Trazado_1000095" data-name="Trazado 1000095" d="M649.417,334.671a2.472,2.472,0,0,1-.389.09l.33-7.481a2.482,2.482,0,0,1,.378.152Z" transform="translate(-636.719 -327.192)" fill="#072420"/>
                  </g>
                </g>
              </g>
              <g id="Grupo_1179189" data-name="Grupo 1179189" transform="translate(0 6.86)">
                <path id="Trazado_1000096" data-name="Trazado 1000096" d="M495.719,305.122s-6.534-11.87-7.237-13.217-1.024-3.3.177-4.244l.53-.935,1.057-2.126a12.87,12.87,0,0,1-1.415-3.927c-.018-1.323,1.091-2.192,2.377-.289s3.2,6.579,3.772,6.35-1-5.647.119-5.936,1.884.732,4.085,5.577,7.092,14.73,7.211,14.916S495.719,305.122,495.719,305.122Z" transform="translate(-487.855 -279.281)" fill="#ce9180"/>
                <g id="Grupo_1179188" data-name="Grupo 1179188" transform="translate(0.976 1.742)">
                  <path id="Trazado_1000097" data-name="Trazado 1000097" d="M493.713,290.451a26.457,26.457,0,0,1-3.163-7.468" transform="translate(-490.258 -282.983)" fill="none" stroke="#072420" stroke-linecap="round" stroke-linejoin="round" stroke-miterlimit="10" stroke-width="1.2"/>
                  <path id="Trazado_1000098" data-name="Trazado 1000098" d="M493.419,296.094a9.994,9.994,0,0,1-1.142-2.071,3.356,3.356,0,0,1-.067-2.319c.046-.12.188-.255.276-.161" transform="translate(-491.043 -287.498)" fill="none" stroke="#072420" stroke-linecap="round" stroke-linejoin="round" stroke-miterlimit="10" stroke-width="1.2"/>
                  <path id="Trazado_1000099" data-name="Trazado 1000099" d="M491.155,299.078l-.423-.781a6.091,6.091,0,0,1-.772-1.917,2.066,2.066,0,0,1,.587-1.9" transform="translate(-489.929 -289.071)" fill="none" stroke="#072420" stroke-linecap="round" stroke-linejoin="round" stroke-miterlimit="10" stroke-width="1.2"/>
                </g>
              </g>
              <g id="Grupo_1179193" data-name="Grupo 1179193" transform="translate(5.357 25.763)">
                <path id="Trazado_1000100" data-name="Trazado 1000100" d="M570.262,432.914l-3.6,1.456-1.223,13.392-37.021-.97,9.3-81.787s-22.994-4.043-28.37-11.451-10.116-28.973-10.116-28.973l14.623-5.133s12.118,15.45,18.57,16.111,25.283-6.986,32.41-7.463,9.074,5.564,12.484,17.845,10.027,101.82,10.027,101.82h-19.29l-1.4-13.392" transform="translate(-499.238 -319.449)" fill="#fff"/>
                <g id="Grupo_1179192" data-name="Grupo 1179192" transform="translate(0 0)">
                  <g id="Grupo_1179190" data-name="Grupo 1179190">
                    <path id="Trazado_1000101" data-name="Trazado 1000101" d="M663.2,577.045h-19.29l-1.4-13.392" transform="translate(-575.088 -448.731)" fill="none" stroke="#072420" stroke-linecap="round" stroke-linejoin="round" stroke-miterlimit="10" stroke-width="1.2"/>
                    <path id="Trazado_1000102" data-name="Trazado 1000102" d="M537.723,365.006s-22.994-4.043-28.37-11.451-10.115-28.973-10.115-28.973l14.623-5.133" transform="translate(-499.238 -319.449)" fill="none" stroke="#072420" stroke-linecap="round" stroke-linejoin="round" stroke-miterlimit="10" stroke-width="1.2"/>
                    <path id="Trazado_1000103" data-name="Trazado 1000103" d="M585,417.64c-1.71-.269-9.045-1.385-9.045-1.385l-1.6,14.079-2.894,25.435" transform="translate(-537.475 -370.698)" fill="none" stroke="#072420" stroke-linecap="round" stroke-linejoin="round" stroke-miterlimit="10" stroke-width="1.2"/>
                    <path id="Trazado_1000104" data-name="Trazado 1000104" d="M602.7,561.826l-3.213.86-1.223,13.392-37.021-.97" transform="translate(-532.065 -447.764)" fill="none" stroke="#072420" stroke-linecap="round" stroke-linejoin="round" stroke-miterlimit="10" stroke-width="1.2"/>
                  </g>
                  <g id="Grupo_1179191" data-name="Grupo 1179191" transform="translate(63.613 57.882)">
                    <path id="Trazado_1000105" data-name="Trazado 1000105" d="M634.413,442.446s4.421,1.05,13.137,0" transform="translate(-634.413 -442.446)" fill="none" stroke="#072420" stroke-linecap="round" stroke-linejoin="round" stroke-miterlimit="10" stroke-width="1.2"/>
                    <path id="Trazado_1000106" data-name="Trazado 1000106" d="M634.413,461.366s7.922.221,16.873,0" transform="translate(-634.413 -452.462)" fill="none" stroke="#072420" stroke-linecap="round" stroke-linejoin="round" stroke-miterlimit="10" stroke-width="1.2"/>
                    <path id="Trazado_1000107" data-name="Trazado 1000107" d="M637.061,449.917a1.323,1.323,0,1,1-1.323-1.323A1.323,1.323,0,0,1,637.061,449.917Z" transform="translate(-634.414 -445.701)" fill="none" stroke="#072420" stroke-linecap="round" stroke-linejoin="round" stroke-miterlimit="10" stroke-width="1.2"/>
                  </g>
                </g>
              </g>
            </g>
            <g id="Grupo_1179195" data-name="Grupo 1179195" transform="translate(58.995 21.584)">
              <path id="Trazado_1000108" data-name="Trazado 1000108" d="M613.217,322.077c3.739.753,7.952.433,10.87-2.023,2.067-1.74,3.223-4.313,4.173-6.843.182-.485.735-1.068,1.088-.689.255.6-.948,1.019-1.141.395s.978-1,1.21-.394a.619.619,0,0,1-1.045.4c-.3-.393.214-1.067.666-.861s.253,1.057-.243,1.028c-.481-.137-.326-1.035.173-1a.518.518,0,1,1-.522.122.577.577,0,0,1,.784.057c.356.389-.268,1.106-.713.824s-.118-1.134.4-1.067a.658.658,0,0,1,.187,1.176c-.448-.118-.985-.664-.591-.908" transform="translate(-613.217 -311.34)" fill="none" stroke="#072420" stroke-linecap="round" stroke-linejoin="round" stroke-miterlimit="10" stroke-width="1.2"/>
              <circle id="Elipse_13723" data-name="Elipse 13723" cx="1.323" cy="1.323" r="1.323" transform="translate(14.245)" fill="#072420"/>
            </g>
          </g>
        </g>
        <g id="Grupo_1179241" data-name="Grupo 1179241" clip-path="url(#clip-path-5)">
          <path id="Trazado_1000109" data-name="Trazado 1000109" d="M377.366,313.442s9.316,9.357,22.489,0c0,0,6.182-3.469.895-15.866S368.638,293.522,377.366,313.442Z" transform="translate(-199.17 -183.59)" fill="#072420"/>
          <g id="Grupo_1179202" data-name="Grupo 1179202" transform="translate(150.033 103.955)">
            <g id="Grupo_1179200" data-name="Grupo 1179200" transform="translate(0 6.128)">
              <g id="Grupo_1179199" data-name="Grupo 1179199">
                <g id="Grupo_1179198" data-name="Grupo 1179198">
                  <path id="Trazado_1000110" data-name="Trazado 1000110" d="M354.559,302.825l-9.376,19.792a4.637,4.637,0,0,1-.22.41c-.744,1.231-4.828,7.975-9.08,14.712a5.881,5.881,0,0,1-5,2.569h-5.038c-.13,0-.253-.007-.376-.013a9.672,9.672,0,0,1-1.7-.439c-3.348-.888-3.96-5.236-4.066-7.125-.037-.652-.12-1.3-.186-1.949a9.778,9.778,0,0,1,2.753-7.916,4.939,4.939,0,0,1,.8-.674c.108-.068.206-.124.29-.166,6.026-3.03,8.835-.365,11.368-2.85,3.377-3.3-.506-5.521,1.3-9.952,1.85-4.518,5.818-4.424,9.464-6.258,3.369-1.681,3.807-5.488,4.183-7.009.08-.331,1.173.1,2.452.732A4.619,4.619,0,0,1,354.559,302.825Z" transform="translate(-319.468 -295.841)" fill="#072420"/>
                </g>
              </g>
            </g>
            <g id="Grupo_1179201" data-name="Grupo 1179201" transform="translate(29.712)">
              <path id="Trazado_1000111" data-name="Trazado 1000111" d="M383.123,293.281a3.165,3.165,0,0,1-.5-2.032,9.858,9.858,0,0,1,.449-2.031c.8-2.242,3.227-6.463,10.21-6.4,9.5.088,9.527,14.57,9.527,14.57l-16.962.19Z" transform="translate(-382.604 -282.819)" fill="#072420"/>
            </g>
          </g>
          <g id="Grupo_1179214" data-name="Grupo 1179214" transform="translate(158.985 174.086)">
            <g id="Grupo_1179213" data-name="Grupo 1179213">
              <g id="Grupo_1179212" data-name="Grupo 1179212">
                <g id="Grupo_1179207" data-name="Grupo 1179207" transform="translate(4.425 94.449)">
                  <g id="Grupo_1179204" data-name="Grupo 1179204" transform="translate(39.043 0.996)">
                    <path id="Trazado_1000112" data-name="Trazado 1000112" d="M443.64,634.663l4.706,19.182-12.481,1.144-4.378-18.879Z" transform="translate(-431.19 -634.663)" fill="#ecb08c"/>
                    <g id="Grupo_1179203" data-name="Grupo 1179203" transform="translate(0 15.4)">
                      <path id="Trazado_1000113" data-name="Trazado 1000113" d="M450.564,667.388l-19.707,1.182,2.394,14.043,33.6-.165-12.8-7.219Z" transform="translate(-430.857 -667.388)" fill="none" stroke="#072420" stroke-linecap="round" stroke-linejoin="round" stroke-miterlimit="10" stroke-width="1.2"/>
                    </g>
                  </g>
                  <g id="Grupo_1179206" data-name="Grupo 1179206">
                    <path id="Trazado_1000114" data-name="Trazado 1000114" d="M369.437,633.919l.189,19.75-12.412-1.744.06-19.379Z" transform="translate(-352.828 -632.546)" fill="#ecb08c"/>
                    <g id="Grupo_1179205" data-name="Grupo 1179205" transform="translate(0 17.066)">
                      <path id="Trazado_1000115" data-name="Trazado 1000115" d="M368.533,668.81l-19.193.427-1.447,14.128,33.6-.165-12.8-7.219Z" transform="translate(-347.893 -668.81)" fill="none" stroke="#072420" stroke-linecap="round" stroke-linejoin="round" stroke-miterlimit="10" stroke-width="1.2"/>
                    </g>
                  </g>
                </g>
                <g id="Grupo_1179211" data-name="Grupo 1179211">
                  <g id="Grupo_1179210" data-name="Grupo 1179210">
                    <g id="Grupo_1179208" data-name="Grupo 1179208" transform="translate(23.804 9.214)">
                      <path id="Trazado_1000116" data-name="Trazado 1000116" d="M392.493,468.288l12.583,76.254,26.347-2.122-18.14-91h-24.21Z" transform="translate(-389.073 -451.425)" fill="#3d998b"/>
                      <path id="Trazado_1000117" data-name="Trazado 1000117" d="M396.556,488.443l12.482,75.7,26.347-2.122" transform="translate(-393.035 -471.022)" fill="none" stroke="#072420" stroke-linecap="round" stroke-linejoin="round" stroke-miterlimit="10" stroke-width="1.2"/>
                    </g>
                    <g id="Grupo_1179209" data-name="Grupo 1179209">
                      <path id="Trazado_1000118" data-name="Trazado 1000118" d="M405.953,481.865l-4.1.356-2.436,32.764" transform="translate(-370.744 -458.326)" fill="none" stroke="#3d998b" stroke-miterlimit="10" stroke-width="0.488"/>
                      <path id="Trazado_1000119" data-name="Trazado 1000119" d="M373.7,455.385l-4.1.356-3.781,77.168-27.325-.375,11.421-84.975,1.226-8.035,28.1-7.677Z" transform="translate(-338.491 -431.846)" fill="#3d998b"/>
                      <path id="Trazado_1000120" data-name="Trazado 1000120" d="M373.7,481.865l-4.1.356-3.781,77.168-27.325-.375" transform="translate(-338.491 -458.326)" fill="none" stroke="#072420" stroke-linecap="round" stroke-linejoin="round" stroke-miterlimit="10" stroke-width="1.2"/>
                    </g>
                  </g>
                </g>
              </g>
            </g>
          </g>
          <g id="Grupo_1179240" data-name="Grupo 1179240" transform="translate(146.808 103.954)">
            <g id="Grupo_1179222" data-name="Grupo 1179222" transform="translate(6.047 23.639)">
              <g id="Grupo_1179217" data-name="Grupo 1179217" transform="translate(7.999)">
                <path id="Trazado_1000121" data-name="Trazado 1000121" d="M355.281,339.388c10.321-7.531,15.347-6.257,15.347-6.257,6.5-.906,17.268,8.46,18.863,9.657s8.138,15.459,9.783,21.787-3.59,14.968-3.59,14.968-51.01,1.441-52.805-2.061S345.085,346.828,355.281,339.388Z" transform="translate(-342.464 -333.049)" fill="#fff"/>
                <g id="Grupo_1179216" data-name="Grupo 1179216" transform="translate(9.449 0.439)">
                  <g id="Grupo_1179215" data-name="Grupo 1179215">
                    <path id="Trazado_1000122" data-name="Trazado 1000122" d="M363.057,396.571c-.778-4.478-.44-11.555-.44-16.534,0-24.858,5.862-45.459,18.8-46.05,7.917-.362,18.348,19.918,19.815,44.694.294,4.971,1.076,13.129.3,17.607Z" transform="translate(-362.543 -333.982)" fill="#b9f0c3"/>
                  </g>
                </g>
              </g>
              <g id="Grupo_1179219" data-name="Grupo 1179219" transform="translate(41.324 1.165)">
                <path id="Trazado_1000123" data-name="Trazado 1000123" d="M426.768,358.269c7.644,24.088,17.027,98.153,17.027,98.153l-26.576,2.828-3.1-109.721-.839-14S421.306,341.058,426.768,358.269Z" transform="translate(-413.278 -335.524)" fill="#fff"/>
                <g id="Grupo_1179218" data-name="Grupo 1179218" transform="translate(1.497 2.028)">
                  <path id="Trazado_1000124" data-name="Trazado 1000124" d="M416.459,339.833c.886,2.479,4.17,12,4.17,12l-2.038.474v.091l3.146,2.163L417.8,391.168" transform="translate(-416.459 -339.833)" fill="none" stroke="#072420" stroke-linecap="round" stroke-linejoin="round" stroke-miterlimit="10" stroke-width="1.2"/>
                  <line id="Línea_3287" data-name="Línea 3287" x1="11.868" y1="0.997" transform="translate(6.531 62.644)" fill="none" stroke="#072420" stroke-linecap="round" stroke-linejoin="round" stroke-miterlimit="10" stroke-width="1.2"/>
                  <path id="Trazado_1000125" data-name="Trazado 1000125" d="M431.2,383.856c7.644,24.088,17.027,98.153,17.027,98.153l-26.576,2.828" transform="translate(-419.208 -363.139)" fill="none" stroke="#072420" stroke-linecap="round" stroke-linejoin="round" stroke-miterlimit="10" stroke-width="1.2"/>
                </g>
              </g>
              <g id="Grupo_1179221" data-name="Grupo 1179221" transform="translate(0 1.165)">
                <path id="Trazado_1000126" data-name="Trazado 1000126" d="M342.492,358.269c-7.644,24.088-17.026,98.153-17.026,98.153l26.576,2.828,3.1-109.721.839-14S347.954,341.058,342.492,358.269Z" transform="translate(-325.466 -335.524)" fill="#fff"/>
                <g id="Grupo_1179220" data-name="Grupo 1179220" transform="translate(0 2.028)">
                  <path id="Trazado_1000127" data-name="Trazado 1000127" d="M381.194,339.833c-.886,2.479-4.17,12-4.17,12l2.038.474v.091l-3.146,2.163,3.285,39.027" transform="translate(-352.174 -339.833)" fill="none" stroke="#072420" stroke-linecap="round" stroke-linejoin="round" stroke-miterlimit="10" stroke-width="1.2"/>
                  <line id="Línea_3288" data-name="Línea 3288" y1="0.997" x2="11.868" transform="translate(10.62 62.644)" fill="none" stroke="#072420" stroke-linecap="round" stroke-linejoin="round" stroke-miterlimit="10" stroke-width="1.2"/>
                  <path id="Trazado_1000128" data-name="Trazado 1000128" d="M342.492,383.856c-7.644,24.088-17.026,98.153-17.026,98.153l26.576,2.828" transform="translate(-325.466 -363.139)" fill="none" stroke="#072420" stroke-linecap="round" stroke-linejoin="round" stroke-miterlimit="10" stroke-width="1.2"/>
                </g>
              </g>
            </g>
            <g id="Grupo_1179225" data-name="Grupo 1179225" transform="translate(45.896 27.415)">
              <g id="Grupo_1179223" data-name="Grupo 1179223" transform="translate(0 20.134)">
                <path id="Trazado_1000129" data-name="Trazado 1000129" d="M425.58,402.279s-5.211-7.833-6.781-7.906.126,2.816.126,2.816-4.662-2.027-6.433-1.784-2.35,9.143-2.35,9.143,8.684,3.319,12.7,3.067C426.1,407.41,425.58,402.279,425.58,402.279Z" transform="translate(-410.142 -389.423)" fill="#ecb08c"/>
                <path id="Trazado_1000130" data-name="Trazado 1000130" d="M426.28,391.623l3.838-5.993-2.7-1.774-3.385,6.891Z" transform="translate(-417.497 -383.856)" fill="#3d998b"/>
              </g>
              <g id="Grupo_1179224" data-name="Grupo 1179224" transform="translate(5.955)">
                <path id="Trazado_1000131" data-name="Trazado 1000131" d="M436.824,371.73l-.816-8.118-12.026-14.83-1.186-7.709c7.811,4.1,19.588,12.477,26.021,27.751C459.006,393.011,445.692,393.3,442.7,393s-17.775-8.091-17.775-8.091l4.937-16.09Z" transform="translate(-422.796 -341.073)" fill="#fff"/>
                <path id="Trazado_1000132" data-name="Trazado 1000132" d="M451.212,400.041c10.189,24.188-3.125,24.474-6.116,24.181s-17.775-8.091-17.775-8.091l4.937-16.09,15.681,6.547" transform="translate(-425.191 -372.291)" fill="none" stroke="#072420" stroke-linecap="round" stroke-linejoin="round" stroke-miterlimit="10" stroke-width="1.2"/>
              </g>
            </g>
            <g id="Grupo_1179232" data-name="Grupo 1179232" transform="translate(0 27.163)">
              <g id="Grupo_1179227" data-name="Grupo 1179227" transform="translate(25.503 15.263)">
                <path id="Trazado_1000133" data-name="Trazado 1000133" d="M371.659,416.017h16.9a4.851,4.851,0,0,0,4.85-4.85v-25.5a4.851,4.851,0,0,0-4.85-4.85h-16.9a4.851,4.851,0,0,0-4.85,4.85v25.5A4.85,4.85,0,0,0,371.659,416.017Z" transform="translate(-366.809 -377.123)" fill="#edb44e"/>
                <g id="Grupo_1179226" data-name="Grupo 1179226" transform="translate(6.722)">
                  <path id="Trazado_1000134" data-name="Trazado 1000134" d="M382.905,382.5h9.527a1.813,1.813,0,0,0,1.813-1.813v-.16a1.813,1.813,0,0,0-1.813-1.813h-9.527a1.813,1.813,0,0,0-1.813,1.813v.16A1.814,1.814,0,0,0,382.905,382.5Z" transform="translate(-381.092 -376.013)" fill="#3d998b"/>
                  <path id="Trazado_1000135" data-name="Trazado 1000135" d="M388.853,375.894a2.924,2.924,0,1,0,2.924-2.924A2.924,2.924,0,0,0,388.853,375.894Zm1.328,0a1.6,1.6,0,1,1,1.6,1.6A1.6,1.6,0,0,1,390.181,375.894Z" transform="translate(-385.201 -372.97)" fill="#3d998b"/>
                </g>
              </g>
              <g id="Grupo_1179231" data-name="Grupo 1179231">
                <g id="Grupo_1179229" data-name="Grupo 1179229" transform="translate(18.074 32.062)">
                  <path id="Trazado_1000136" data-name="Trazado 1000136" d="M358.451,408.667v2.592s5.369-2.777,6.574-2.583,1.681,1.177.674,2.119c0,0,1.489-.389,1.913.573s-.328,1.777-1.292,2.308c0,0,1.358-.478,1.561.419s-2.187,2.312-2.187,2.312,1.087-.83,1.452-.32-.131,1.877-3.986,3.683-6.974,3.04-6.974,3.04l-5.164-8.353Z" transform="translate(-351.022 -408.667)" fill="#ecb08c"/>
                  <g id="Grupo_1179228" data-name="Grupo 1179228" transform="translate(8.319 1.97)">
                    <line id="Línea_3289" data-name="Línea 3289" x1="4.331" y2="2.189" transform="translate(2.668 5.559)" fill="none" stroke="#072420" stroke-linecap="round" stroke-linejoin="round" stroke-miterlimit="10" stroke-width="1.2"/>
                    <line id="Línea_3290" data-name="Línea 3290" x1="6.248" y2="3.442" transform="translate(1.631 2.545)" fill="none" stroke="#072420" stroke-linecap="round" stroke-linejoin="round" stroke-miterlimit="10" stroke-width="1.2"/>
                    <line id="Línea_3291" data-name="Línea 3291" x1="6.577" y2="3.74" fill="none" stroke="#072420" stroke-linecap="round" stroke-linejoin="round" stroke-miterlimit="10" stroke-width="1.2"/>
                  </g>
                </g>
                <g id="Grupo_1179230" data-name="Grupo 1179230">
                  <path id="Trazado_1000137" data-name="Trazado 1000137" d="M318.468,366.879c6.867-13.776,18.716-23.516,26.817-26.342l-1.754,2.649a31.286,31.286,0,0,0-7.98,9.2c-3.769,7.369-6.7,17.776-7.548,20.924,1.633-.431,2.818-.712,2.818-.712l5.849,16.687s-7.611,3.585-10.744,4.673c-2.768.962-9.437,1.745-12.147-2.938C311.525,387.124,312.682,378.485,318.468,366.879Z" transform="translate(-312.662 -340.537)" fill="#fff"/>
                  <path id="Trazado_1000138" data-name="Trazado 1000138" d="M318.422,396.512c-12.735,25.549-1.89,30.5,7.459,27.081,3.115-1.14,10.744-4.673,10.744-4.673l-5.849-16.687a97.141,97.141,0,0,0-10.2,3" transform="translate(-312.616 -370.17)" fill="none" stroke="#072420" stroke-linecap="round" stroke-linejoin="round" stroke-miterlimit="10" stroke-width="1.2"/>
                </g>
              </g>
            </g>
            <g id="Grupo_1179239" data-name="Grupo 1179239" transform="translate(32.289)">
              <path id="Trazado_1000139" data-name="Trazado 1000139" d="M390.313,334.091c0,1.99,2.419,3.6,5.4,3.6s5.4-1.613,5.4-3.6-2.419-3.6-5.4-3.6S390.313,332.1,390.313,334.091Z" transform="translate(-386.038 -308.055)" fill="#3d998b"/>
              <g id="Grupo_1179238" data-name="Grupo 1179238">
                <g id="Grupo_1179237" data-name="Grupo 1179237">
                  <path id="Trazado_1000140" data-name="Trazado 1000140" d="M397.206,288.38l4.318-.219c2.871-.146,5.356,2.409,5.521,5.678l.34,6.694c.166,3.269-2.048,6.062-4.918,6.208l-1.478.075v2.28a3.423,3.423,0,0,1-3.423,3.423h-1.324a3.423,3.423,0,0,1-3.423-3.423V306.02l-.181-3.564a2.652,2.652,0,0,1,.043-.617c-.024-.184-.044-.369-.053-.558l-.34-6.694C392.122,291.319,394.335,288.525,397.206,288.38Z" transform="translate(-387.079 -285.643)" fill="#ecb08c"/>
                  <g id="Grupo_1179235" data-name="Grupo 1179235" transform="translate(8.064 9.481)">
                    <g id="Grupo_1179233" data-name="Grupo 1179233" transform="translate(2.901)">
                      <path id="Trazado_1000141" data-name="Trazado 1000141" d="M404.53,304.66a.974.974,0,1,0,.924-1.023A.975.975,0,0,0,404.53,304.66Z" transform="translate(-404.528 -303.32)" fill="#072420"/>
                      <path id="Trazado_1000142" data-name="Trazado 1000142" d="M418.056,303.839a.832.832,0,1,0,.789-.873A.832.832,0,0,0,418.056,303.839Z" transform="translate(-411.689 -302.965)" fill="#072420"/>
                    </g>
                    <g id="Grupo_1179234" data-name="Grupo 1179234" transform="translate(0 2.546)">
                      <path id="Trazado_1000143" data-name="Trazado 1000143" d="M398.366,310.921a2.422,2.422,0,1,0,2.3-2.542A2.423,2.423,0,0,0,398.366,310.921Z" transform="translate(-398.363 -308.375)" fill="#da5882" opacity="0.3"/>
                      <path id="Trazado_1000144" data-name="Trazado 1000144" d="M421.218,309.07a1.854,1.854,0,0,1,.43.03l.128,2.51a5.166,5.166,0,0,1-.035,1.1,2.178,2.178,0,0,1-.336.048,1.844,1.844,0,1,1-.187-3.683Z" transform="translate(-409.536 -308.742)" fill="#da5882" opacity="0.3"/>
                    </g>
                  </g>
                  <g id="Grupo_1179236" data-name="Grupo 1179236" transform="translate(0 10.27)">
                    <path id="Trazado_1000145" data-name="Trazado 1000145" d="M381.233,308.229a3.442,3.442,0,1,0,3.265-3.585A3.428,3.428,0,0,0,381.233,308.229Z" transform="translate(-381.229 -304.64)" fill="#ecb08c"/>
                    <path id="Trazado_1000146" data-name="Trazado 1000146" d="M389.92,310.417a1.879,1.879,0,0,0-2.332-1.946" transform="translate(-384.595 -306.646)" fill="none" stroke="#072420" stroke-linecap="round" stroke-linejoin="round" stroke-miterlimit="10" stroke-width="1.2"/>
                  </g>
                  <path id="Trazado_1000147" data-name="Trazado 1000147" d="M389.478,285.325c2.278-2.605,13.906-5.846,15.685,5.592a11.218,11.218,0,0,1-5.655-4.475s-.368,2.569-6.653,5.4a15.628,15.628,0,0,1-1.516.6l-.314,2.751-1.929-2.36C385.667,292.657,387.663,287.4,389.478,285.325Z" transform="translate(-384.404 -282.817)" fill="#072420"/>
                  <path id="Trazado_1000148" data-name="Trazado 1000148" d="M413.42,304.012a9.282,9.282,0,0,0,.581,1.765c.01.022.017.051-.008.066a.1.1,0,0,1-.041.01q-.429.044-.863.055" transform="translate(-398.096 -294.038)" fill="none" stroke="#072420" stroke-linecap="round" stroke-linejoin="round" stroke-miterlimit="10" stroke-width="1.2"/>
                  <path id="Trazado_1000149" data-name="Trazado 1000149" d="M410.791,312.79a4,4,0,0,0,3.659,0" transform="translate(-396.879 -298.685)" fill="none" stroke="#072420" stroke-linecap="round" stroke-linejoin="round" stroke-miterlimit="10" stroke-width="1.2"/>
                </g>
              </g>
            </g>
          </g>
        </g>
      </g>
      <g id="Grupo_1179246" data-name="Grupo 1179246" transform="translate(217.728 108.409)">
        <g id="Grupo_1179243" data-name="Grupo 1179243">
          <path id="Trazado_1000150" data-name="Trazado 1000150" d="M473.273,233.712a5.528,5.528,0,1,1-7.261-2.9A5.528,5.528,0,0,1,473.273,233.712Z" transform="translate(-462.664 -230.364)" fill="#fff"/>
          <line id="Línea_3292" data-name="Línea 3292" y1="4.362" x2="10.159" transform="translate(0.45 3.348)" fill="none" stroke="#072420" stroke-linecap="round" stroke-linejoin="round" stroke-miterlimit="10" stroke-width="1.2"/>
        </g>
        <g id="Grupo_1179244" data-name="Grupo 1179244" transform="translate(110.934 40.698)">
          <path id="Trazado_1000151" data-name="Trazado 1000151" d="M708.544,325.408a5.528,5.528,0,1,1-1.588-7.655A5.528,5.528,0,0,1,708.544,325.408Z" transform="translate(-698.394 -316.846)" fill="#fff"/>
          <line id="Línea_3293" data-name="Línea 3293" x2="9.243" y2="6.067" transform="translate(0.907 2.495)" fill="none" stroke="#072420" stroke-linecap="round" stroke-linejoin="round" stroke-miterlimit="10" stroke-width="1.2"/>
        </g>
        <g id="Grupo_1179245" data-name="Grupo 1179245" transform="translate(24.379 94.337)">
          <circle id="Elipse_13724" data-name="Elipse 13724" cx="5.528" cy="5.528" r="5.528" transform="matrix(0.787, -0.617, 0.617, 0.787, 0, 6.816)" fill="#fff"/>
          <line id="Línea_3294" data-name="Línea 3294" y1="1.92" x2="10.888" transform="translate(2.305 6.809)" fill="none" stroke="#072420" stroke-linecap="round" stroke-linejoin="round" stroke-miterlimit="10" stroke-width="1.2"/>
        </g>
      </g>
      <g id="Grupo_1179251" data-name="Grupo 1179251" transform="translate(139.36 121.676)">
        <g id="Grupo_1179250" data-name="Grupo 1179250">
          <g id="Grupo_1179249" data-name="Grupo 1179249">
            <g id="Grupo_1179248" data-name="Grupo 1179248">
              <path id="Trazado_1000152" data-name="Trazado 1000152" d="M296.272,272.9A12.5,12.5,0,1,0,306.8,258.694,12.5,12.5,0,0,0,296.272,272.9Z" transform="translate(-296.134 -258.556)" fill="#3d998b"/>
              <g id="Grupo_1179247" data-name="Grupo 1179247" transform="translate(5.509 8.445)">
                <path id="Trazado_1000153" data-name="Trazado 1000153" d="M321.428,277.317h-13.18a.409.409,0,0,1-.408-.408h0a.409.409,0,0,1,.408-.408h13.18a.409.409,0,0,1,.408.408h0A.408.408,0,0,1,321.428,277.317Z" transform="translate(-307.84 -276.502)" fill="#fff"/>
                <path id="Trazado_1000154" data-name="Trazado 1000154" d="M321.428,282.494h-13.18a.409.409,0,0,1-.408-.408h0a.409.409,0,0,1,.408-.408h13.18a.409.409,0,0,1,.408.408h0A.408.408,0,0,1,321.428,282.494Z" transform="translate(-307.84 -279.243)" fill="#fff"/>
                <path id="Trazado_1000155" data-name="Trazado 1000155" d="M321.428,287.67h-13.18a.409.409,0,0,1-.408-.408h0a.409.409,0,0,1,.408-.408h13.18a.409.409,0,0,1,.408.408h0A.408.408,0,0,1,321.428,287.67Z" transform="translate(-307.84 -281.983)" fill="#fff"/>
                <path id="Trazado_1000156" data-name="Trazado 1000156" d="M321.428,292.846h-13.18a.409.409,0,0,1-.408-.408h0a.409.409,0,0,1,.408-.408h13.18a.409.409,0,0,1,.408.408h0A.408.408,0,0,1,321.428,292.846Z" transform="translate(-307.84 -284.723)" fill="#fff"/>
              </g>
              <path id="Trazado_1000157" data-name="Trazado 1000157" d="M343.244,288.81l7.542,7.007-10.924-1.809Z" transform="translate(-319.284 -274.573)" fill="#3d998b"/>
            </g>
          </g>
        </g>
      </g>
      <g id="Grupo_1179261" data-name="Grupo 1179261" transform="translate(51.593 172.984)">
        <g id="Grupo_1179254" data-name="Grupo 1179254" transform="translate(0 0)">
          <g id="Grupo_1179253" data-name="Grupo 1179253">
            <g id="Grupo_1179252" data-name="Grupo 1179252">
              <rect id="Rectángulo_455387" data-name="Rectángulo 455387" width="44.304" height="50.282" transform="matrix(-0.18, -0.984, 0.984, -0.18, 7.97, 52.628)" fill="#fff"/>
            </g>
          </g>
        </g>
        <g id="Grupo_1179257" data-name="Grupo 1179257" transform="translate(0 0.007)">
          <g id="Grupo_1179256" data-name="Grupo 1179256">
            <g id="Grupo_1179255" data-name="Grupo 1179255">
              <path id="Trazado_1000158" data-name="Trazado 1000158" d="M117.6,420.225l-7.97-43.582L159.1,367.6" transform="translate(-109.634 -367.599)" fill="none" stroke="#072420" stroke-linecap="round" stroke-linejoin="round" stroke-miterlimit="10" stroke-width="1.2"/>
            </g>
          </g>
        </g>
        <g id="Grupo_1179260" data-name="Grupo 1179260" transform="translate(9.068 9.939)">
          <g id="Grupo_1179258" data-name="Grupo 1179258" transform="translate(0 2.963)">
            <path id="Trazado_1000159" data-name="Trazado 1000159" d="M144.828,409.96a24.777,24.777,0,0,0-1.88-4.95c-1.243-2.355-2.251-4.022-4.9-3.408s-5.184,1.852-7.1,7.668-2.319,13.078-1.9,15.971.832,7.509,5.485,6.013,3.524-3.528,9.032-4.492,6.284-4.42,5.251-6.513S144.815,412.846,144.828,409.96Z" transform="translate(-128.902 -398.428)" fill="#3d998b"/>
            <path id="Trazado_1000160" data-name="Trazado 1000160" d="M175.914,411s-.411-4.616-.65-6.811.363-3.639.365-5.4,1.275-3.388,3.971-3.745,7.571,2.022,10.468,6.915,5.263,9.238,5.9,12.135,1.289,5.273-2.18,7.027-5.232-1.669-8.075-.934-8.141,1.962-9.954-.849S176.13,413.371,175.914,411Z" transform="translate(-153.325 -395.002)" fill="#3d998b"/>
          </g>
          <g id="Grupo_1179259" data-name="Grupo 1179259" transform="translate(1.333)">
            <path id="Trazado_1000161" data-name="Trazado 1000161" d="M167.862,411.414c.658.54,1.925.265,3.132-.042a7.551,7.551,0,0,1-2.758.017c-.8-.318-.51-.911-1.627-.807a5.534,5.534,0,0,1-2.57-.3,5.08,5.08,0,0,1-.4-1.958c0-.1,0-.186,0-.267a3.673,3.673,0,0,1,.569-.13c.636-.073,1.372-.394,1.9.4.473.716,1.067.487,1.911-.057-.365.213-1,.488-1.411.124-.6-.535-.572-1.057-1.556-1.007a4.6,4.6,0,0,1-1.595-.053,8.026,8.026,0,0,1-.511-.9c-.411-.915-1.669-.986-2.095-1.833a2.733,2.733,0,0,0-.44-.679,7.917,7.917,0,0,0,1.252-1.856,2.053,2.053,0,0,1,2.789-.72,2.519,2.519,0,0,0,2.306-.12c-1.691.524-2.2-.56-3.541-.615a1.653,1.653,0,0,0-1.439.7,2.874,2.874,0,0,0-.728-1.6c-.509-.61-.222-.72.354-1.614a1.4,1.4,0,0,0,.053-1.588c.159,1.162-.636,1.752-1.051,2.445s.417.8.727,1.7.042,1.413-.718,2.1a2.631,2.631,0,0,0-.661.821,3.3,3.3,0,0,0-.905-.011,2.319,2.319,0,0,1-1.8-.935,5.559,5.559,0,0,0,.34-1.8,3.107,3.107,0,0,0-.163-.687c.078-.271.19-.643.288-.9.171-.447.736-.321,1.26-.9a.952.952,0,0,0,.276-1.055c-.176,1.008-.713,1.235-1.54,1.544-.449.168-.614.376-.671.532a1.566,1.566,0,0,0-.517-.516c-.54-.289-.986-.164-.866-.688a6.359,6.359,0,0,0-.216-1.969,1.948,1.948,0,0,1,.541-1.5c-1.2.836-.831,1.6-.7,2.51s-.167.963,0,1.378.546-.071,1.386.966a3.091,3.091,0,0,1,.176,2.648,1.523,1.523,0,0,0-.325-.3,14.427,14.427,0,0,0-3.153-.22c-1.8-.1-2.573-1.639-2.982-3.135s-1.621-8.419-1.815-9.331-2.386-.317-2.76.074.512,3.328,1.109,6.146a30.564,30.564,0,0,1,.666,4.677,3.388,3.388,0,0,1-2.347,3.1,4,4,0,0,0-.809-.519,1.653,1.653,0,0,0-.532-1.438c-.856-.833-1.267-.514-1.4-1.437a2.6,2.6,0,0,0-1.547-2.343,3.341,3.341,0,0,1,1.184,1.835c.148,1.207.174,1.245.8,1.632a1.8,1.8,0,0,1,.95,1.524,8.314,8.314,0,0,0-2.8-.41c-2.092.009-3.016-1.888-2.644-1.037.01.023.021.046.032.069.383.809,1.148,1.287,2.825,1.245a6.355,6.355,0,0,1,3.265,1.146,40.363,40.363,0,0,0-3.853,2.1,3.221,3.221,0,0,0-.427.259,11.792,11.792,0,0,0-1.1-.641q-.162-.084-.332-.154a4.575,4.575,0,0,0,.045-.826c-.02-.7-.787-1.047-1.579-1.577a1.982,1.982,0,0,1-.807-1.5c-.223.557-.158,1.406,1.13,2.232.935.6.768,1.2.606,1.49a4.378,4.378,0,0,0-2.375.282c-1.541.554-1.765,1.4-1.765,1.4,1.224-1.1.736-.709,2.642-1.243A3.079,3.079,0,0,1,139.6,406.3a4.6,4.6,0,0,0-.477,1.225,4.5,4.5,0,0,0-2.258-.193c-1.345.246-1.6.436-1.993.9s-1.191.347-1.725.488a2.207,2.207,0,0,0-1.417,1.034s1.208-1,2-.9a1.739,1.739,0,0,0,1.681-.48,2.827,2.827,0,0,1,3.28.053l-.039.057a3.191,3.191,0,0,0-.314.562,5.9,5.9,0,0,0-1.337,1.017c-.59.624-.706,1.076-1.344,1.336a4.2,4.2,0,0,0-1.809,1.163,16.366,16.366,0,0,1-1.473,1.417,5.984,5.984,0,0,0,1.594-1.152,4.453,4.453,0,0,1,1.981-1.108,3.642,3.642,0,0,1-1.723,2.811,3.273,3.273,0,0,0-1.507,1.825,7.7,7.7,0,0,1,2.013-1.918,5.09,5.09,0,0,0,2.019-3.167,3.776,3.776,0,0,1,1.411-1.653,9.754,9.754,0,0,0,.2,2.641,7.18,7.18,0,0,1,.1,2.353,2.713,2.713,0,0,1-1.806,1.267c-.966.148-1.232.569-1.8,1.333s-2.323,1.013-2.323,1.013a3.88,3.88,0,0,0,3.009-1.311c.532-.743.941-.775,1.809-.862a1.29,1.29,0,0,0,.672-.268c-.084.4-.077.776-.248,1.4-.259.951-.887,1.367-1.963,1.994s-.876,1.128-.876,1.128c.128-.777.877-.827,1.621-1.351a4.12,4.12,0,0,0,1.559-1.508c.138.145.368.448.2.713-.231.365-.556.561-.39,1.075a2.111,2.111,0,0,1-.216,2.127c-.62.608-.911.941-.911.941a3.064,3.064,0,0,0,1.365-1.268,3.3,3.3,0,0,0,.094-1.854c-.044-.587.032-.465.348-.91s-.223-1.272-.4-1.305c.123-.633.528-1.3.774-2.35.047-.2.079-.346.1-.465a2.65,2.65,0,0,1,1.167,1.467c.12.853-.942,2.052,2.133,2.881,0,0-1.562-.647-1.7-1.3s.21-1.516-.184-2.391a3.107,3.107,0,0,0-1.415-1.292,21.6,21.6,0,0,1-.182-2.161c-.1-2.134.206-2.531.825-3.431a2.821,2.821,0,0,0,.9,1.566c.86.56,1.653,1.046,1.624,1.582s-1.331,1.406-1.123,2.343.68,1.052,1.368,1.558.9.687,1.009,1.274a2.494,2.494,0,0,0-1.083-1.677c-1.023-.76-1.159-1.008-.61-1.854s1.27-1.05.832-2.161c0,0,1.441.181,1.95,2.671s1.274,2.134,1.274,2.134-.631.2-.833-1.2-.055-2.472-1.556-3.575-2.36-1.261-2.841-2.408a6.9,6.9,0,0,1-.37-1.1l.074-.126a3.816,3.816,0,0,1,2.3-1.8,1.3,1.3,0,0,1,.64.859c.174.8.529.822.568,1.331.038.493-.907,1.266-.456,1.982-.066-.133-.136-.442.309-.858.6-.562.908-1.056.646-1.4a.64.64,0,0,1,.613.591c.08.588-.039.674.6.9s.884.226.953.687c0,0,.281-.424-.549-.8-.665-.3-.634.035-.645-.615s.063-.842-.778-1.148a1.238,1.238,0,0,1-.964-1.273,1.028,1.028,0,0,0-.163-.488c.3-.083.6-.166.89-.269,1.373-.488,2.825-.688,3.406-1.505a3.069,3.069,0,0,1,2.921-.9,7.9,7.9,0,0,0,3.024.4c1.165-.143,1.938-.209,2.382.592a1.954,1.954,0,0,0,.911.682c-.509.013-1.077.125-1.164.548-.162.79-.735.521-.808,1.008s.363.307-.007,1.049-.781.86-.213,1.4a.492.492,0,0,1,.082-.732c.418-.378.752-.627.608-1.217s.133-.655.646-1.007.25-.706.664-.71c.243,0,1.027.089,1.632.166a5.282,5.282,0,0,1,.727.249c.3.163.679.5,1.286.849a1.736,1.736,0,0,1-.552,1.04c-.512.526-1.029,1.016-1.031,1.487-.426.026-1.635.177-1.609,1.047.031,1.056.458,1.222-.227,1.72a.937.937,0,0,0,.648-.994c-.04-.81-.143-1.079.421-1.253a3.6,3.6,0,0,1,.9-.134,1.014,1.014,0,0,0,.137.16c.676.637,1.521,1.2,1.281,2.262s-1.048,2.171.616,2.786c0,0-.911-.637-.665-1.37s.745-1.155.543-2.065a3.792,3.792,0,0,0-1.177-2.095.252.252,0,0,1-.094-.349c.47-.446.979-.042,1.1.5s.91.336.91.336c-.786.043-.617-.318-.838-.929-.139-.386-.527-.359-.795-.294a5.582,5.582,0,0,0,.837-.756,1.688,1.688,0,0,0,.347-.727c.1.041.2.081.3.12.989.369,1.431,1.559,1.673,2.721-.4.323-1.505,1.3-1.481,2.08.031.956.463,1.249.758,2.171s.037.7.251,1.374.676.536,1.368.768a3.045,3.045,0,0,1,1.2.856,2.11,2.11,0,0,0-1.334-1.177c-1.012-.3-.819-.137-.848-.792a7.266,7.266,0,0,0-.686-2.084c-.228-.546-.448-.765.034-1.384a6.3,6.3,0,0,1,.892-.913c0,.029.009.059.013.087.2,1.384.759,2.078,1.958,2.267s1.721.675,2.4,2.015,2.571.735,2.571.735c-1.837.465-2.105-.411-2.344-1.272s-1.948-1.624-2.856-2a1.7,1.7,0,0,1-.75-.727,2.5,2.5,0,0,0,1.6.2C167.118,410.7,167.2,410.875,167.862,411.414Z" transform="translate(-131.735 -388.705)" fill="#dbfdd9"/>
            <path id="Trazado_1000162" data-name="Trazado 1000162" d="M208.83,430.057a2.852,2.852,0,0,0,.282-.186C209.015,429.937,208.922,430,208.83,430.057Z" transform="translate(-172.549 -410.498)" fill="#f0f0f0"/>
            <path id="Trazado_1000163" data-name="Trazado 1000163" d="M156.546,432.542a.336.336,0,0,0,.046.072C156.574,432.59,156.561,432.566,156.546,432.542Z" transform="translate(-144.87 -411.912)" fill="#f0f0f0"/>
          </g>
        </g>
      </g>
      <g id="Grupo_1179262" data-name="Grupo 1179262" transform="translate(19.836 97.882)">
        <path id="Trazado_1000164" data-name="Trazado 1000164" d="M731.51,211.644a1.126,1.126,0,0,1-1.084-.526c-.1-.157-.233-.295-.335-.452a1.789,1.789,0,0,1-.269-1.256,1.447,1.447,0,0,1,.929-1.306,1.747,1.747,0,0,1,1.768.3,1.91,1.91,0,0,1,.078,2.906A1.368,1.368,0,0,1,731.51,211.644Z" transform="translate(-406.195 -207.994)" fill="#edb44e"/>
        <path id="Trazado_1000165" data-name="Trazado 1000165" d="M727.869,481.682a1.126,1.126,0,0,1-1.084-.526c-.1-.157-.233-.295-.335-.452a1.788,1.788,0,0,1-.269-1.256,1.447,1.447,0,0,1,.929-1.306,1.747,1.747,0,0,1,1.768.3,1.91,1.91,0,0,1,.078,2.906A1.365,1.365,0,0,1,727.869,481.682Z" transform="translate(-404.268 -350.953)" fill="#edb44e"/>
        <path id="Trazado_1000166" data-name="Trazado 1000166" d="M244.73,445.064a1.126,1.126,0,0,1-1.084-.526c-.1-.157-.233-.295-.335-.452a1.789,1.789,0,0,1-.269-1.256,1.447,1.447,0,0,1,.928-1.306,1.747,1.747,0,0,1,1.769.3,1.91,1.91,0,0,1,.078,2.906A1.366,1.366,0,0,1,244.73,445.064Z" transform="translate(-148.493 -331.567)" fill="#edb44e"/>
        <path id="Trazado_1000167" data-name="Trazado 1000167" d="M43.858,479.2a1.126,1.126,0,0,1-1.084-.526c-.1-.157-.233-.295-.335-.452a1.789,1.789,0,0,1-.269-1.256,1.447,1.447,0,0,1,.928-1.306,1.747,1.747,0,0,1,1.769.3,1.91,1.91,0,0,1,.078,2.906A1.368,1.368,0,0,1,43.858,479.2Z" transform="translate(-42.15 -349.637)" fill="#edb44e"/>
      </g>
    </g>
  </g>
</svg>
