<svg xmlns="http://www.w3.org/2000/svg" xmlns:xlink="http://www.w3.org/1999/xlink" width="396" height="164.593" viewBox="0 0 396 164.593">
  <defs>
    <clipPath id="clip-path">
      <path id="Trazado_1003032" data-name="Trazado 1003032" d="M1015.88,492.644a1.169,1.169,0,0,1-1.045-.62c-.024-.037-.021-.083.018-.087,0,0,.618-.032,1.015-.068.414-.037,1.021-.148,1.021-.148.038,0,.061.04.033.107A1.328,1.328,0,0,1,1015.88,492.644Z" transform="translate(-1014.819 -491.722)"/>
    </clipPath>
  </defs>
  <g id="_10640715_19007392" data-name="10640715_19007392" transform="translate(0 0.002)">
    <g id="Grupo_1179908" data-name="Grupo 1179908" transform="translate(0 130.407)">
      <rect id="Rectángulo_455768" data-name="Rectángulo 455768" width="396" height="34.184" fill="#8eb5e3"/>
      <path id="Trazado_1002830" data-name="Trazado 1002830" d="M396,1035.291v-.258H0v.258H17.364l-4.507,7.765H0v.258H80.511L76,1051.08H0v.258H123.694l-4.507,7.766H0v.258H176l-2.2,3.935h.25l2.2-3.935h85.634l-2.2,3.935h.25l2.2-3.935h119.54l-2.2,3.935h.25l2.2-3.935H396v-.258H325.115l4.507-7.766H396v-.258H329.528l-.007-.006,0,.006H281.932l4.507-7.766H396v-.258H375.054l4.507-7.765Zm-136.484,0-4.507,7.765H218.786l4.507-7.765Zm-69.191,0h32.715l-4.507,7.765H169.379l4.507-7.765Zm-16.692,0-4.507,7.765H99l4.507-7.765Zm-160.521,7.766,4.507-7.766h85.631l-4.507,7.766H13.111Zm72.773,8.023H76.257l4.507-7.766H166.4l-4.507,7.766H123.854l-.007-.006,0,.006Zm104.44,8.024H119.44l4.507-7.766h85.631l-4.507,7.766Zm139.044-7.766-4.507,7.766H205.325l4.507-7.766H329.369Zm-47.69-.258H209.738l-.007-.006,0,.006H162.142l4.507-7.766H286.185Zm93.121-8.023H255.263l4.507-7.766H379.307Z" transform="translate(0 -1029.111)" fill="#fff"/>
    </g>
    <rect id="Rectángulo_455769" data-name="Rectángulo 455769" width="396" height="130.408" transform="translate(0 -0.002)" fill="#e6eef5"/>
    <g id="Grupo_1179909" data-name="Grupo 1179909" transform="translate(242.179 105.776)">
      <rect id="Rectángulo_455770" data-name="Rectángulo 455770" width="153.82" height="24.263" transform="translate(0.001)" fill="#9cd2ff"/>
      <path id="Trazado_1002831" data-name="Trazado 1002831" d="M1992.475,809.247v-.415h-5.755v-5.754h-.415v5.754h-5.754v-5.754h-.415v5.754h-5.755v-5.754h-.415v5.754h-5.755v-5.754h-.415v5.754h-5.755v-5.754h-.415v5.754h-5.755v-5.754h-.415v5.754H1949.7v-5.754h-.415v5.754h-5.755v-5.754h-.415v5.754h-5.755v-5.754h-.415v5.754H1931.2v-5.754h-.415v5.754h-5.755v-5.754h-.415v5.754h-5.755v-5.754h-.415v5.754h-5.755v-5.754h-.415v5.754h-5.755v-5.754h-.415v5.754h-5.755v-5.754h-.415v5.754h-5.755v-5.754h-.415v5.754h-5.755v-5.754h-.415v5.754h-5.755v-5.754h-.415v5.754h-5.755v-5.754h-.415v5.754H1869.5v-5.754h-.415v5.754h-5.755v-5.754h-.415v5.754h-5.755v-5.754h-.415v5.754h-5.755v-5.754h-.415v5.754h-5.754v-5.754h-.415v5.754h-5.755v.415h5.755V815h-5.755v.415h5.755v5.755h-5.755v.415h5.755v5.755h.415v-5.755h5.754v5.755h.415v-5.755h5.755v5.755h.415v-5.755h5.755v5.755h.415v-5.755h5.755v5.755h.415v-5.755h5.755v5.755h.415v-5.755h5.755v5.755h.415v-5.755h5.755v5.755h.415v-5.755h5.755v5.755h.415v-5.755h5.755v5.755h.415v-5.755h5.755v5.755h.415v-5.755h5.755v5.755h.415v-5.755h5.755v5.755h.415v-5.755h5.755v5.755h.415v-5.755h5.755v5.755h.415v-5.755h5.755v5.755h.415v-5.755h5.755v5.755h.415v-5.755h5.755v5.755h.415v-5.755h5.755v5.755h.415v-5.755h5.755v5.755h.415v-5.755h5.755v5.755h.415v-5.755h5.755v5.755h.415v-5.755h5.755v5.755h.415v-5.755h5.754v5.755h.415v-5.755h5.755v-.415h-5.755v-5.755h5.755V815h-5.755v-5.755Zm-12.339,0V815h-5.755v-5.755Zm-6.168,0V815h-5.755v-5.755Zm-6.169,0V815h-5.755v-5.755Zm-6.17,0V815h-5.755v-5.755Zm-6.169,0V815H1949.7v-5.755Zm-6.169,0V815h-5.755v-5.755Zm-6.17,0V815h-5.755v-5.755Zm-6.17,0V815H1931.2v-5.755Zm-6.168,0V815h-5.755v-5.755Zm-6.17,0V815h-5.754v-5.755Zm-6.169,0V815h-5.755v-5.755Zm-6.169,0V815h-5.755v-5.755Zm-6.17,0V815h-5.755v-5.755Zm-6.17,0V815h-5.755v-5.755Zm-6.169,0V815h-5.755v-5.755Zm-6.168,0V815h-5.755v-5.755Zm-6.169,0V815h-5.755v-5.755Zm-6.169,0V815H1869.5v-5.755Zm-6.17,0V815h-5.755v-5.755Zm-6.17,0V815h-5.754v-5.755Zm-6.169,0V815h-5.755v-5.755Zm-11.924,0h5.755V815h-5.755Zm0,11.924v-5.755h5.755v5.755Zm6.17,0v-5.755h5.755v5.755Zm6.17,0v-5.755h5.754v5.755Zm6.169,0v-5.755h5.755v5.755Zm6.17,0v-5.755h5.755v5.755Zm6.169,0v-5.755h5.755v5.755Zm6.168,0v-5.755h5.755v5.755Zm6.17,0v-5.755h5.755v5.755Zm6.169,0v-5.755h5.755v5.755Zm6.17,0v-5.755h5.755v5.755Zm6.169,0v-5.755h5.755v5.755Zm6.17,0v-5.755h5.755v5.755Zm6.17,0v-5.755h5.754v5.755Zm6.169,0v-5.755h5.755v5.755Zm6.168,0v-5.755h5.755v5.755Zm6.17,0v-5.755h5.755v5.755Zm6.169,0v-5.755h5.755v5.755Zm6.169,0v-5.755h5.755v5.755Zm6.17,0v-5.755h5.755v5.755Zm6.169,0v-5.755h5.755v5.755Zm6.17,0v-5.755h5.755v5.755Zm6.168,0v-5.755h5.755v5.755Zm11.924,0h-5.755v-5.755h5.755Zm0-6.169h-5.755v-5.755h5.755Z" transform="translate(-1838.655 -803.078)" fill="#d6e7fd"/>
    </g>
    <g id="Grupo_1179911" data-name="Grupo 1179911" transform="translate(11.102 38.581)">
      <rect id="Rectángulo_455771" data-name="Rectángulo 455771" width="89.965" height="68.52" fill="#fff"/>
      <rect id="Rectángulo_455772" data-name="Rectángulo 455772" width="86.038" height="64.304" transform="translate(88.003 66.399) rotate(180)" fill="#8fcbea"/>
      <g id="Grupo_1179910" data-name="Grupo 1179910" transform="translate(41.539 27.101)" opacity="0.52">
        <path id="Trazado_1002832" data-name="Trazado 1002832" d="M440.6,505.321q-.141-.433-.288-.843c-.564-1.8-2.057-5.706-4.4-5.8-.039,0-.078,0-.117,0h-.032c-.039,0-.078,0-.117,0-2.345.09-3.838,4-4.4,5.8q-.147.411-.288.843c-1.151-1.546-3.229-2.936-5.155-2.157-2.332.943-4.351,6.065-3.146,11.236,0,0-2.143-1.207-3.353,0-1.186,1.185-.641,3.27-.221,4.927-1.311-1.114-3.7-2.273-5.244-1.646-1.952.794-2.048,5.839-2.015,6.85-1.151-1.546-3.229-2.936-5.155-2.157-2.332.943-2.7,6.543-1.494,11.715,0,0-3.322-1.216-4.446-.095-1.235,1.232-1.174,2.517-.9,3.983h46.3V503.164A8.41,8.41,0,0,0,440.6,505.321Z" transform="translate(-399.656 -498.682)" fill="#b0e1f9"/>
      </g>
      <path id="Trazado_1002833" data-name="Trazado 1002833" d="M99.2,498.619c3.733.511,5.984,7.682,5.984,7.682.566-1.65,1.917-4.366,4.272-4.448.039,0,.079,0,.118,0h.033c.039,0,.079,0,.118,0,2.355.082,3.854,3.67,4.42,5.32q.148.377.289.774c1.156-1.419,3.243-2.695,5.176-1.98,2.342.866,2.71,6.006,1.5,10.753,0,0,3.378-1.153,4.464-.087,3.368,3.306-2.649,10.046-2.649,10.046,4.447-.409,7.2.6,7.736,2.742.771,3.093-2.108,7.485-8.721,8.5H99.2Z" transform="translate(-97.239 -471.526)" fill="#b0e1f9" opacity="0.52"/>
      <path id="Trazado_1002834" data-name="Trazado 1002834" d="M152.255,373.136h32.987l-56.291-64.3H99.2Z" transform="translate(-97.239 -306.737)" fill="#b0e1f9" opacity="0.52"/>
      <path id="Trazado_1002835" data-name="Trazado 1002835" d="M503.151,351.991V308.832H465.339Z" transform="translate(-415.148 -306.737)" fill="#b0e1f9" opacity="0.52"/>
      <rect id="Rectángulo_455773" data-name="Rectángulo 455773" width="0.819" height="65.42" transform="translate(49.372 2.095)" fill="#fff"/>
    </g>
    <g id="Grupo_1179912" data-name="Grupo 1179912" transform="translate(84.366 38.581)">
      <path id="Trazado_1002836" data-name="Trazado 1002836" d="M641.275,371.324h13.78a.759.759,0,0,0,.759-.759V292.927h-15.3v77.638A.759.759,0,0,0,641.275,371.324Z" transform="translate(-640.516 -292.927)" fill="#46c8bb"/>
      <rect id="Rectángulo_455774" data-name="Rectángulo 455774" width="0.283" height="78.397" transform="translate(13.411)" fill="#4ab1a6"/>
      <rect id="Rectángulo_455775" data-name="Rectángulo 455775" width="0.283" height="78.397" transform="translate(10.975)" fill="#4ab1a6"/>
      <rect id="Rectángulo_455776" data-name="Rectángulo 455776" width="0.283" height="78.397" transform="translate(8.561)" fill="#4ab1a6"/>
      <rect id="Rectángulo_455777" data-name="Rectángulo 455777" width="0.283" height="78.397" transform="translate(6.125)" fill="#4ab1a6"/>
      <rect id="Rectángulo_455778" data-name="Rectángulo 455778" width="0.283" height="78.397" transform="translate(3.545)" fill="#4ab1a6"/>
    </g>
    <g id="Grupo_1179914" data-name="Grupo 1179914" transform="translate(111.99 38.581)">
      <rect id="Rectángulo_455779" data-name="Rectángulo 455779" width="89.965" height="68.52" fill="#fff"/>
      <rect id="Rectángulo_455780" data-name="Rectángulo 455780" width="86.038" height="64.304" transform="translate(88.003 66.399) rotate(180)" fill="#8fcbea"/>
      <g id="Grupo_1179913" data-name="Grupo 1179913" transform="translate(58.724 41.635)" opacity="0.52">
        <path id="Trazado_1002837" data-name="Trazado 1002837" d="M1321.876,613.212q-.089-.273-.182-.531c-.355-1.133-1.3-3.6-2.774-3.652h-.168c-1.478.057-2.418,2.519-2.774,3.652q-.093.259-.182.531c-.726-.974-2.035-1.85-3.249-1.359-1.47.595-2.742,3.822-1.982,7.08,0,0-1.35-.761-2.113,0-.748.747-.4,2.061-.139,3.105-.826-.7-2.333-1.432-3.3-1.037-1.23.5-1.291,3.68-1.27,4.317-.726-.974-2.035-1.85-3.249-1.359-1.47.594-1.7,4.123-.941,7.382,0,0-2.094-.766-2.8-.06a2.484,2.484,0,0,0-.57,2.51h29.178V611.853A5.3,5.3,0,0,0,1321.876,613.212Z" transform="translate(-1296.078 -609.029)" fill="#b0e1f9"/>
      </g>
      <path id="Trazado_1002838" data-name="Trazado 1002838" d="M865.16,424.166c4.665.638,7.477,9.6,7.477,9.6.707-2.061,2.4-5.455,5.337-5.557.049,0,.1,0,.147,0h.041c.049,0,.1,0,.147,0,2.942.1,4.815,4.586,5.522,6.647q.184.471.362.967c1.445-1.773,4.052-3.367,6.468-2.474,2.926,1.082,3.387,7.5,1.874,13.436,0,0,4.221-1.441,5.578-.109,4.208,4.13-3.309,12.553-3.309,12.553,5.557-.511,9,.746,9.667,3.427.963,3.864-2.634,9.353-10.9,10.625H865.16Z" transform="translate(-863.195 -406.88)" fill="#b0e1f9" opacity="0.52"/>
      <path id="Trazado_1002839" data-name="Trazado 1002839" d="M918.211,373.136H951.2l-56.291-64.3H865.16Z" transform="translate(-863.195 -306.737)" fill="#b0e1f9" opacity="0.52"/>
      <path id="Trazado_1002840" data-name="Trazado 1002840" d="M1269.112,351.991V308.832H1231.3Z" transform="translate(-1181.109 -306.737)" fill="#b0e1f9" opacity="0.52"/>
      <rect id="Rectángulo_455781" data-name="Rectángulo 455781" width="0.819" height="65.42" transform="translate(49.372 2.095)" fill="#fff"/>
    </g>
    <g id="Grupo_1179915" data-name="Grupo 1179915" transform="translate(180.743 38.581)">
      <path id="Trazado_1002841" data-name="Trazado 1002841" d="M1372.983,371.324h13.78a.759.759,0,0,0,.759-.759V292.927h-15.3v77.638A.759.759,0,0,0,1372.983,371.324Z" transform="translate(-1372.224 -292.927)" fill="#46c8bb"/>
      <rect id="Rectángulo_455782" data-name="Rectángulo 455782" width="0.283" height="78.397" transform="translate(13.411)" fill="#4ab1a6"/>
      <rect id="Rectángulo_455783" data-name="Rectángulo 455783" width="0.283" height="78.397" transform="translate(10.975)" fill="#4ab1a6"/>
      <rect id="Rectángulo_455784" data-name="Rectángulo 455784" width="0.283" height="78.397" transform="translate(8.561)" fill="#4ab1a6"/>
      <rect id="Rectángulo_455785" data-name="Rectángulo 455785" width="0.283" height="78.397" transform="translate(6.124)" fill="#4ab1a6"/>
      <rect id="Rectángulo_455786" data-name="Rectángulo 455786" width="0.283" height="78.397" transform="translate(3.545)" fill="#4ab1a6"/>
    </g>
    <g id="Grupo_1179916" data-name="Grupo 1179916" transform="translate(195.072 38.581)">
      <path id="Trazado_1002842" data-name="Trazado 1002842" d="M1481.774,371.324h13.78a.759.759,0,0,0,.759-.759V292.927h-15.3v77.638A.759.759,0,0,0,1481.774,371.324Z" transform="translate(-1481.014 -292.927)" fill="#46c8bb"/>
      <rect id="Rectángulo_455787" data-name="Rectángulo 455787" width="0.283" height="78.397" transform="translate(13.411)" fill="#4ab1a6"/>
      <rect id="Rectángulo_455788" data-name="Rectángulo 455788" width="0.283" height="78.397" transform="translate(10.974)" fill="#4ab1a6"/>
      <rect id="Rectángulo_455789" data-name="Rectángulo 455789" width="0.283" height="78.397" transform="translate(8.561)" fill="#4ab1a6"/>
      <rect id="Rectángulo_455790" data-name="Rectángulo 455790" width="0.283" height="78.397" transform="translate(6.124)" fill="#4ab1a6"/>
      <rect id="Rectángulo_455791" data-name="Rectángulo 455791" width="0.283" height="78.397" transform="translate(3.545)" fill="#4ab1a6"/>
    </g>
    <g id="Grupo_1179919" data-name="Grupo 1179919" transform="translate(20.171 101.341)">
      <g id="Grupo_1179918" data-name="Grupo 1179918">
        <g id="Grupo_1179917" data-name="Grupo 1179917">
          <rect id="Rectángulo_455792" data-name="Rectángulo 455792" width="35.011" height="4.621" transform="translate(2.188 23.105)" fill="#b5897f"/>
          <path id="Trazado_1002843" data-name="Trazado 1002843" d="M158.977,857.833a.763.763,0,0,0-.753-.719H154.58a.773.773,0,0,0-.063,1.538l.086,0-1.459,28.5H154.6l1.735-16.944h1.912V858.654A.754.754,0,0,0,158.977,857.833Z" transform="translate(-153.144 -845.561)" fill="#be9488"/>
          <path id="Trazado_1002844" data-name="Trazado 1002844" d="M162.877,857.114h-3.644a.773.773,0,0,0-.063,1.538l.086,0H162.9a.754.754,0,0,0,.728-.821A.763.763,0,0,0,162.877,857.114Z" transform="translate(-157.797 -845.561)" fill="#be9488"/>
          <path id="Trazado_1002845" data-name="Trazado 1002845" d="M413.708,887.151l-1.459-28.5.086,0a.773.773,0,0,0-.063-1.538h-3.645a.763.763,0,0,0-.753.719.754.754,0,0,0,.728.821v11.553h1.912l1.735,16.944Z" transform="translate(-374.321 -845.561)" fill="#be9488"/>
          <path id="Trazado_1002846" data-name="Trazado 1002846" d="M412.272,857.114h-3.645a.763.763,0,0,0-.753.719.754.754,0,0,0,.728.821h3.647l.086,0A.773.773,0,0,0,412.272,857.114Z" transform="translate(-374.321 -845.561)" fill="#be9488"/>
          <path id="Trazado_1002847" data-name="Trazado 1002847" d="M193.114,793.489h28.892c0-10.873-1.354-16.64-2.406-20.5l-.013-.048c-.024-.088-.048-.174-.071-.258a4.364,4.364,0,0,0-4.148-3.274H199.752a4.364,4.364,0,0,0-4.148,3.274c-.024.084-.047.171-.071.258l-.013.048C194.468,776.848,193.114,782.616,193.114,793.489Z" transform="translate(-187.849 -769.405)" fill="#f9c777"/>
          <path id="Trazado_1002848" data-name="Trazado 1002848" d="M203.308,915.9H171.215a1.5,1.5,0,0,1-1.459-1.54v-1.9a1.522,1.522,0,0,1,1.142-1.5c1.933-.452,6.63-1.212,16.363-1.212s14.43.76,16.363,1.212a1.521,1.521,0,0,1,1.142,1.5v1.9A1.5,1.5,0,0,1,203.308,915.9Z" transform="translate(-167.568 -891.255)" fill="#f4ba64"/>
        </g>
        <path id="Trazado_1002849" data-name="Trazado 1002849" d="M167.695,869.313h-3.673l.026-.5h3.647Z" transform="translate(-162.589 -855.716)" fill="#b5897f"/>
        <path id="Trazado_1002850" data-name="Trazado 1002850" d="M417.083,869.313H413.41v-.5h3.647Z" transform="translate(-379.129 -855.716)" fill="#b5897f"/>
      </g>
    </g>
    <g id="Grupo_1179920" data-name="Grupo 1179920" transform="translate(233.754 -0.002)">
      <rect id="Rectángulo_455793" data-name="Rectángulo 455793" width="5.258" height="156.598" transform="translate(0 0)" fill="#fff"/>
      <path id="Trazado_1002851" data-name="Trazado 1002851" d="M1822.592,129.813,1814.61,156.6V0h7.982Z" transform="translate(-1809.352 0.002)" fill="#d1e4f2"/>
    </g>
    <g id="Grupo_1179936" data-name="Grupo 1179936" transform="translate(346.563 48.123)">
      <g id="Grupo_1179935" data-name="Grupo 1179935">
        <path id="Trazado_1002852" data-name="Trazado 1002852" d="M2635.99,619.629c-1.53-.712-3.458-.96-3.9-.611-1.2.947-1.144,4.32-.427,4.662a1.812,1.812,0,0,0,1.575.19c.443-.249.576-.28.931-.476a2.68,2.68,0,0,1,1.978.078,6,6,0,0,0,.112-2.185A7.959,7.959,0,0,0,2635.99,619.629Z" transform="translate(-2631.151 -585.473)" fill="#e89f89"/>
        <g id="Grupo_1179923" data-name="Grupo 1179923" transform="translate(6.184 46.268)">
          <g id="Grupo_1179921" data-name="Grupo 1179921" transform="translate(18.517 47.317)">
            <path id="Trazado_1002853" data-name="Trazado 1002853" d="M2857.842,1075.88l-3.372,1.2,1.8,4.486,2.986-1.129Z" transform="translate(-2849.756 -1075.88)" fill="#e89f89"/>
            <path id="Trazado_1002854" data-name="Trazado 1002854" d="M2829.307,1104.943l-.357-1a3.678,3.678,0,0,0-.445-.867l-.388-.56h0l-.059-.085a.256.256,0,0,0-.45.053l-.084.216a1.75,1.75,0,0,1-2.358.745h0l-.046-.362a.908.908,0,0,0-.622-.751.282.282,0,0,0-.32.116l-1.042,1.632-.037.06-.046.072-.029.044,0,.007c-.012.019-.409.575-.419.588s-.246.3-.26.317l-.031.036-.052.059-.016.018-.117.129-.022.024c-.019.021-.309.316-.371.374l-.022.021-.089.082-.078.071c-.077.069-.247.213-.253.217l-.074.06-.018.015-.076.061a8.637,8.637,0,0,1-.793.553l-1.088.671a1.175,1.175,0,0,0-.491,1.394l0,.011.017.041a1.68,1.68,0,0,0,.441.611l.018.025.009,0a1.577,1.577,0,0,0,1.444.329c.037-.01.073-.022.109-.034l8.205-2.913a.871.871,0,0,0,.639-1.013c-.014-.069-.069-.157-.134-.144l-.067-.423A2.7,2.7,0,0,0,2829.307,1104.943Z" transform="translate(-2818.681 -1098.834)" fill="#2f2627"/>
          </g>
          <g id="Grupo_1179922" data-name="Grupo 1179922" transform="translate(0 48.336)">
            <path id="Trazado_1002855" data-name="Trazado 1002855" d="M2737.557,1083.62l-3.577,0,.2,4.83,3.192-.064Z" transform="translate(-2726.62 -1083.62)" fill="#e89f89"/>
            <path id="Trazado_1002856" data-name="Trazado 1002856" d="M2689.391,1106.569V1105.5a3.687,3.687,0,0,0-.129-.966l-.179-.658h0l-.027-.1a.256.256,0,0,0-.441-.1l-.152.176a1.75,1.75,0,0,1-2.472-.087h0l.078-.357a.909.909,0,0,0-.334-.916.283.283,0,0,0-.341,0l-1.528,1.19-.055.044-.067.052-.042.032-.007.005c-.018.014-.578.405-.592.414l-.351.212-.042.023-.069.039-.021.011-.154.083-.028.015c-.025.013-.4.195-.475.228l-.028.013-.111.048-.1.041c-.1.039-.3.117-.311.12l-.09.032-.022.008-.092.031a8.6,8.6,0,0,1-.933.256l-1.25.268a1.175,1.175,0,0,0-.929,1.149v.012l0,.044a1.677,1.677,0,0,0,.211.723l.008.03h.009a1.577,1.577,0,0,0,1.25.793c.038,0,.075,0,.114,0h8.707a.87.87,0,0,0,.94-.741c.01-.07-.012-.171-.078-.18l.078-.421A2.8,2.8,0,0,0,2689.391,1106.569Z" transform="translate(-2678.102 -1099.962)" fill="#2f2627"/>
          </g>
          <path id="Trazado_1002857" data-name="Trazado 1002857" d="M2703.311,718.165c-.064,2.647,1.875,9.433,3.78,21.541,2.312,14.7,4.787,25.126,4.787,25.126a14.581,14.581,0,0,1-6.422,1.25c-4.094-6.578-12.139-35.233-12.139-35.233-.551.088-.525,8.466,1.06,17.2,1.275,7.027.426,14.011.69,17.863,0,0-4.016.939-6.154.056,0,0-6.932-32.016-4.583-46.018C2685.368,713.755,2703.311,718.165,2703.311,718.165Z" transform="translate(-2683.087 -716.644)" fill="#1e2144"/>
        </g>
        <g id="Grupo_1179925" data-name="Grupo 1179925" transform="translate(6.737)">
          <g id="Grupo_1179924" data-name="Grupo 1179924">
            <path id="Trazado_1002858" data-name="Trazado 1002858" d="M2720.37,459.26c-.82.3-3.444,1.316-4.364.242l.471-6.6,4.754.531a7.631,7.631,0,0,0,.214,2.788A31.125,31.125,0,0,1,2720.37,459.26Z" transform="translate(-2711.566 -441.371)" fill="#e89f89"/>
            <path id="Trazado_1002859" data-name="Trazado 1002859" d="M2692.235,407.887a2.563,2.563,0,0,1-1.049-1.537c0-.015-1.6-5.671-3.681-5.793-2.469-.145-3.56.56-3.935,2.963a2.856,2.856,0,0,1-1.182,1.867.319.319,0,0,0,.263.536l.36.006a.152.152,0,0,1,.149.148c.072,2.3.844,4.1,3.241,4.368A6.723,6.723,0,0,0,2692.235,407.887Z" transform="translate(-2682.299 -395.907)" fill="#e89f89"/>
            <path id="Trazado_1002860" data-name="Trazado 1002860" d="M2693.416,365.387c.909.122,2.108,1.307,3.539,1.331,1.117.019,3.929.57,4.857,2.02,2.326,3.632.776,9.318-2.313,8.97-.5-.057-.872-2.075-2.216-2.7-.545-.253-.949-1.312-.949-1.312-2.415-.554-1.441-2.781-3.829-3.171-.041-.011-.1,0-.123-.03C2689.295,366.274,2692.227,365.227,2693.416,365.387Z" transform="translate(-2689.865 -365.371)" fill="#905756"/>
            <path id="Trazado_1002861" data-name="Trazado 1002861" d="M2732.478,425.31a.935.935,0,1,1-.808-1.139A.99.99,0,0,1,2732.478,425.31Z" transform="translate(-2724.259 -416.422)" fill="#e89f89"/>
            <path id="Trazado_1002862" data-name="Trazado 1002862" d="M2698.063,430.319a.215.215,0,1,0,.061-.3A.216.216,0,0,0,2698.063,430.319Z" transform="translate(-2695.956 -421.475)" fill="#2f2627"/>
            <path id="Trazado_1002863" data-name="Trazado 1002863" d="M2695.8,421.638a5.082,5.082,0,0,0-1.68-.121c-.246.015-.314-.52-.019-.578a3.842,3.842,0,0,1,1.843.325C2696.243,421.407,2696.1,421.71,2695.8,421.638Z" transform="translate(-2692.373 -413.597)" fill="#905756"/>
            <path id="Trazado_1002864" data-name="Trazado 1002864" d="M2735.685,428.688a.055.055,0,0,0-.07-.034.766.766,0,0,0-.328.281.91.91,0,0,0-.117.457c0,.07.107.062.109-.008a.873.873,0,0,1,.067-.322h0l.022,0,.042.009.011,0,.016.007.033.017h0l0,0,.01.008.019.018,0,0,.008.012.007.01,0,.005.009.021,0,.013v0c0,.009,0,.017,0,.026a.106.106,0,0,1,0,.02s0,0,0,0,0,0,0,.007,0,.009,0,.014,0,.016-.005.023l0,.011,0,0-.011.024-.013.023c.007-.013,0,0,0,0l-.008.01-.019.021-.009.009c.011-.011,0,0,0,0a.055.055,0,0,0,.061.091.334.334,0,0,0,.1-.123.291.291,0,0,0-.01-.269.3.3,0,0,0-.212-.133.646.646,0,0,1,.248-.2A.057.057,0,0,0,2735.685,428.688Z" transform="translate(-2728.207 -420.315)" fill="#e2795c"/>
            <path id="Trazado_1002865" data-name="Trazado 1002865" d="M2717.43,461.805l.066-.924s1.185.047,3.286-2.3A3.494,3.494,0,0,1,2717.43,461.805Z" transform="translate(-2712.803 -446.304)" fill="#e2795c" opacity="0.4"/>
            <path id="Trazado_1002866" data-name="Trazado 1002866" d="M2690.1,451.694c.011.05.034.151.047.2.005.021.015.062.026.1l.02.072c.89.059,1.173-.768,1.015-.673A2.2,2.2,0,0,1,2690.1,451.694Z" transform="translate(-2689.073 -440.054)" fill="#e2795c"/>
          </g>
        </g>
        <path id="Trazado_1002867" data-name="Trazado 1002867" d="M2666.767,515s4.067.735,8.816-2.729c4.833-3.525,11.02-.945,11.02-.945-.079-10.639,2.322-20.966-5.2-29.795-3.059-3.593-4.863-3.507-5.307-3.4-10.868,2.558-7.412,17.087-7.34,19.029a15.777,15.777,0,0,0-4.2.052s-1.171,3.1.285,5.051a25.891,25.891,0,0,0,3.409.563S2666.793,505.736,2666.767,515Z" transform="translate(-2659.776 -463.246)" fill="#42498d"/>
        <g id="Grupo_1179926" data-name="Grupo 1179926" transform="translate(18.064 14.347)">
          <path id="Trazado_1002868" data-name="Trazado 1002868" d="M2777.677,474.628s-3.777-1.259-2.751,5.645c.424,2.856,2.143,6.109,5.03,6.109a4.966,4.966,0,0,0,2.372-.656c1.169.108,3.359-.119,4.087-1.6.612-1.246-.116-3.6-.331-5.221C2785.712,476.092,2781.193,473.33,2777.677,474.628Z" transform="translate(-2773.899 -474.298)" fill="#fefffe"/>
          <path id="Trazado_1002869" data-name="Trazado 1002869" d="M2798.31,554.2l.54,3.194c.354,1.248.844,1.8,2.76,1.532,1.254-.174,1.3-.676,2.212-1.517a12.571,12.571,0,0,1-1.1-5.448Z" transform="translate(-2794.356 -541.732)" fill="#e89f89"/>
          <path id="Trazado_1002870" data-name="Trazado 1002870" d="M2798.59,560.076l.15.889c3.789-.163,3.98-2.493,3.98-2.493C2801.927,558.629,2798.59,560.076,2798.59,560.076Z" transform="translate(-2794.6 -547.385)" fill="#e2795c" opacity="0.4"/>
          <path id="Trazado_1002871" data-name="Trazado 1002871" d="M2776.554,503.308a1.857,1.857,0,0,0-.222-.141c-.189-.074.08-.373.08-.581,0-2.656-1.639-4.916-3.654-4.81-2.388.126-3.361.92-3.463,3.269a2.758,2.758,0,0,1-.935,1.921.308.308,0,0,0,.31.487l.347-.033a.147.147,0,0,1,.159.126c.316,2.2,1.3,4.3,3.582,3.849,2.892-.571,3.49-.992,3.936-1.674C2776.694,505.722,2776.578,503.921,2776.554,503.308Z" transform="translate(-2768.295 -494.681)" fill="#e89f89"/>
          <path id="Trazado_1002872" data-name="Trazado 1002872" d="M2783.183,529.5a.2.2,0,1,1-.026-.288A.2.2,0,0,1,2783.183,529.5Z" transform="translate(-2780.907 -521.941)" fill="#2f2627"/>
          <path id="Trazado_1002873" data-name="Trazado 1002873" d="M2775.925,495.232c-.2,1.743,5.252.22,7.077,4.1.185.392.768-.32,1.1-.738.757-.961-.327-3.939-2.532-5C2779.614,492.656,2776.031,494.294,2775.925,495.232Z" transform="translate(-2774.915 -490.808)" fill="#fefffe"/>
          <path id="Trazado_1002874" data-name="Trazado 1002874" d="M2822.472,525.089a.979.979,0,1,1-.972-1.09A1.036,1.036,0,0,1,2822.472,525.089Z" transform="translate(-2813.648 -517.453)" fill="#e89f89"/>
          <path id="Trazado_1002875" data-name="Trazado 1002875" d="M2780.779,522.208a4.553,4.553,0,0,0-1.535-.192c-.1.005-.165-.335-.027-.378a2.591,2.591,0,0,1,1.443.237C2780.922,522,2781.049,522.28,2780.779,522.208Z" transform="translate(-2777.71 -515.369)" fill="#fefffe"/>
          <path id="Trazado_1002876" data-name="Trazado 1002876" d="M2826.531,528.4a.055.055,0,0,0-.068-.039.77.77,0,0,0-.352.259.92.92,0,0,0-.153.452c-.008.071.1.07.111,0a.885.885,0,0,1,.093-.32h0l.022,0a.354.354,0,0,1,.041.012l.011,0,.016.008c.012.006.022.013.033.02h0l0,0,.01.009.018.02,0,0,.007.012.006.011,0,.005c0,.007.005.015.008.022s0,.009,0,.013a0,0,0,0,1,0,0c0,.009,0,.018,0,.026a.149.149,0,0,1,0,.02s0,0,0,0a.038.038,0,0,1,0,.007l0,.014a.161.161,0,0,1-.008.023l0,.011,0,0a.187.187,0,0,1-.013.023l-.015.022c.009-.013,0,0,0,0l-.009.009-.021.02-.01.008c.012-.01,0,0,0,0a.058.058,0,0,0-.021.076.056.056,0,0,0,.076.021.338.338,0,0,0,.109-.117.294.294,0,0,0,.011-.272.307.307,0,0,0-.2-.15.652.652,0,0,1,.265-.186A.057.057,0,0,0,2826.531,528.4Z" transform="translate(-2818.363 -521.235)" fill="#e2795c"/>
        </g>
        <g id="Grupo_1179928" data-name="Grupo 1179928" transform="translate(18.136 76.381)">
          <g id="Grupo_1179927" data-name="Grupo 1179927" transform="translate(10.243)">
            <path id="Trazado_1002877" data-name="Trazado 1002877" d="M2877.6,945.689l-5.713-.421c-.462,3.583,1.884,12.945,2.441,17.2.337,2.576,1.092,7.165-1.007,8.536,0,0-.477,1.691,3.1.573,1.743-.545,1.95-1.08,1.95-1.08S2880.4,951.726,2877.6,945.689Z" transform="translate(-2868.507 -945.268)" fill="#e89f89"/>
            <path id="Trazado_1002878" data-name="Trazado 1002878" d="M2856.637,1134.714l-.133-.257-1.659.663a10.547,10.547,0,0,1-2.726.685h0a.6.6,0,0,1-.58-.32l-.259-.469a.285.285,0,0,0-.044-.06.3.3,0,0,0-.408-.011h0a6.03,6.03,0,0,1-3.335,1.391h-.012a.834.834,0,0,0-.872.957l.049.636h0l.017.224a.573.573,0,0,0,.46.531,13.564,13.564,0,0,0,3.284.148l5.8-.443a.416.416,0,0,0,.372-.455l-.02-.252.043-.079A4.036,4.036,0,0,0,2856.637,1134.714Z" transform="translate(-2846.605 -1109.538)" fill="#e6e4e7"/>
          </g>
          <path id="Trazado_1002879" data-name="Trazado 1002879" d="M2799.823,946.029l-5.713-.421c-.462,3.583,1.755,12.9,2.313,17.159.337,2.576,1.221,7.21-.879,8.58,0,0-.477,1.691,3.1.573,1.744-.545,1.95-1.08,1.95-1.08S2802.619,952.066,2799.823,946.029Z" transform="translate(-2790.727 -945.563)" fill="#e89f89"/>
          <path id="Trazado_1002880" data-name="Trazado 1002880" d="M2778.85,1137.941a4.037,4.037,0,0,0,.025-2.889l-.133-.257-1.658.663a10.544,10.544,0,0,1-2.726.685h0a.594.594,0,0,1-.58-.32l-.258-.469a.3.3,0,0,0-.045-.06.3.3,0,0,0-.408-.011h0a6.03,6.03,0,0,1-3.335,1.391h-.012a.834.834,0,0,0-.873.957l.049.636h0l.017.224a.573.573,0,0,0,.46.531,13.57,13.57,0,0,0,3.284.148l5.8-.443a.416.416,0,0,0,.372-.455l-.019-.252h0Z" transform="translate(-2768.842 -1109.831)" fill="#e6e4e7"/>
        </g>
        <path id="Trazado_1002881" data-name="Trazado 1002881" d="M2695.113,614.477a4.07,4.07,0,0,0-3.868-1.04c-.3.081-1.363.457-1.427,1.007-.072.628,1.7.508,2.423,1.459a13.059,13.059,0,0,0,1.883-.708A5.783,5.783,0,0,0,2695.113,614.477Z" transform="translate(-2682.089 -580.636)" fill="#e89f89"/>
        <path id="Trazado_1002882" data-name="Trazado 1002882" d="M2723.6,566.872c-3.126.478-4.185,7.425-4.185,7.425-.131.905-1.2,2.786-2.873,2.676-1.954-.128-5.707-2.912-5.707-2.912a4.989,4.989,0,0,0-3.534,1.629c4.788,9.642,10.815,7.974,10.815,7.974-1.1,11.466-2.125,36.129-2.125,36.129,4.278,5.9,21.725,1.574,21.725,1.574-1.128-7.084.237-15.15-.184-22.549-.148-2.609-1.286-5.682-1.758-8.91,0,0,1.781-1.613,1.6-3.306-.446-4.2-3.174-9.97-4.932-13.119C2731.382,571.593,2727.933,566.209,2723.6,566.872Z" transform="translate(-2697.268 -540.282)" fill="#46c8bb"/>
        <g id="Grupo_1179929" data-name="Grupo 1179929" transform="translate(19.788 19.978)" opacity="0.45">
          <path id="Trazado_1002883" data-name="Trazado 1002883" d="M2782.514,517.49a2.254,2.254,0,0,0-1.087-.347c-.059,0-.059-.1,0-.092a2.351,2.351,0,0,1,1.134.36c.049.032,0,.112-.047.08Z" transform="translate(-2781.382 -517.05)" fill="#d87b61"/>
        </g>
        <g id="Grupo_1179930" data-name="Grupo 1179930" transform="translate(13.295 56.264)">
          <path id="Trazado_1002884" data-name="Trazado 1002884" d="M2748.114,794.025a.516.516,0,0,0-.411-.6l-4.312-.817V792.6l-.269-.051a.759.759,0,0,0-.886.6l-9.149,48.23,1.047.123,8.97-47.391a.5.5,0,0,1,.588-.4l3.818.723a.516.516,0,0,0,.6-.411Z" transform="translate(-2732.956 -792.536)" fill="#e6e4e7"/>
          <path id="Trazado_1002885" data-name="Trazado 1002885" d="M2733.143,1161.033l-.963-.179a.114.114,0,0,1-.091-.133l.128-.687a.114.114,0,0,1,.133-.091l.964.179a.114.114,0,0,1,.091.133l-.127.687A.114.114,0,0,1,2733.143,1161.033Z" transform="translate(-2732.086 -1111.548)" fill="#2f2627"/>
        </g>
        <path id="Trazado_1002886" data-name="Trazado 1002886" d="M2812.372,758.451a4.247,4.247,0,0,1,3.027,1.821c-.381.734-1.2.73-2.25,2.489a10.766,10.766,0,0,1-1.06,1.829c-.521.634-.976,1.188-1.607,1.224-1.11.064-2.364-1.5-2.158-2.789a2.2,2.2,0,0,1,.593-1.12c.9-1.02,1.652-.864,2.409-1.7A5.464,5.464,0,0,0,2812.372,758.451Z" transform="translate(-2784.968 -706.676)" fill="#e89f89"/>
        <g id="Grupo_1179931" data-name="Grupo 1179931" transform="translate(30.582 49.654)">
          <path id="Trazado_1002887" data-name="Trazado 1002887" d="M2863.415,746.441a44.4,44.4,0,0,0,7.716-3.969.067.067,0,0,0-.067-.115,44.224,44.224,0,0,1-7.684,3.955c-.081.029-.046.158.035.128Z" transform="translate(-2863.333 -742.347)" fill="#fff" opacity="0.4"/>
        </g>
        <g id="Grupo_1179932" data-name="Grupo 1179932" transform="translate(20.912 35.113)">
          <path id="Trazado_1002888" data-name="Trazado 1002888" d="M2790.856,632a38.154,38.154,0,0,0-.939,8.1.067.067,0,0,0,.133,0,37.967,37.967,0,0,1,.935-8.068c.02-.083-.108-.119-.128-.035Z" transform="translate(-2789.917 -631.953)" fill="#fff" opacity="0.4"/>
        </g>
        <path id="Trazado_1002889" data-name="Trazado 1002889" d="M2847.636,618a5.958,5.958,0,0,0-1.716-1.117,5.268,5.268,0,0,0-2.106-.239,4.079,4.079,0,0,0-.162-.69,23.223,23.223,0,0,0-1.878-3.922,12.4,12.4,0,0,1-1.569-4.389,6.7,6.7,0,0,1,.056-2.857,2.389,2.389,0,0,1,2.065-1.488c.085-.006.086-.139,0-.133a2.714,2.714,0,0,0-1.787.883,2.96,2.96,0,0,0-.58,2.065,11.26,11.26,0,0,0,1.013,4.633c.636,1.383,1.469,2.665,2.092,4.055a11.515,11.515,0,0,1,.425,1.084,2.816,2.816,0,0,1,.19,1.366,4.273,4.273,0,0,1-.465,1.163,10.455,10.455,0,0,1-.629,1.085c-.918,1.366-2.285,2.4-2.979,3.922-.035.077.08.145.115.067a18.57,18.57,0,0,1,2.627-3.438,10.475,10.475,0,0,0,1.174-1.96,2.933,2.933,0,0,0,.309-.972s0-.008,0-.012a4.527,4.527,0,0,1,1.3,2.61c.011.084.14.049.128-.035a4.643,4.643,0,0,0-1.416-2.747s-.01,0-.015-.006c0-.05,0-.1,0-.151a5.253,5.253,0,0,1,1.991.21,5.656,5.656,0,0,1,1.72,1.107C2847.606,618.15,2847.7,618.056,2847.636,618Z" transform="translate(-2812.144 -571.843)" fill="#fff" opacity="0.4"/>
        <path id="Trazado_1002890" data-name="Trazado 1002890" d="M2764.781,644.892a.07.07,0,0,0-.1-.075.051.051,0,0,0-.04,0,3.956,3.956,0,0,0-1.866,2.144c-.039.076.077.144.115.067a3.907,3.907,0,0,1,1.747-2.064,14.262,14.262,0,0,0-.166,3.982c.009.084.142.085.133,0A14.193,14.193,0,0,1,2764.781,644.892Z" transform="translate(-2745.431 -608.003)" fill="#fff" opacity="0.4"/>
        <g id="Grupo_1179933" data-name="Grupo 1179933" transform="translate(8.533 39.411)" opacity="0.4">
          <path id="Trazado_1002891" data-name="Trazado 1002891" d="M2696,664.824c.669.045,1.34.044,2.01.033a9.1,9.1,0,0,0,1.881-.145c.084-.019.048-.147-.035-.128a9.26,9.26,0,0,1-1.921.142c-.645.01-1.29.009-1.934-.034-.085-.006-.084.127,0,.133Z" transform="translate(-2695.936 -664.581)" fill="#fff"/>
        </g>
        <path id="Trazado_1002892" data-name="Trazado 1002892" d="M2731.741,518.685a5.12,5.12,0,0,0-1.38-.314,11.1,11.1,0,0,0-1.321-.08q-.434-2.772-.868-5.545a25.661,25.661,0,0,1-.344-3.069,18.046,18.046,0,0,1,.133-2.929,16.4,16.4,0,0,1,.295-1.667,2.286,2.286,0,0,1,.653-1.276c.065-.056-.03-.15-.094-.094a3.807,3.807,0,0,0-.885,2.346,18.172,18.172,0,0,0-.246,3.025,39.848,39.848,0,0,0,.725,6.029q.249,1.589.5,3.178c-.058,0-.116,0-.175,0a12.71,12.71,0,0,0-3.094.494.067.067,0,0,0,.036.128,12.607,12.607,0,0,1,2.974-.487,11.112,11.112,0,0,1,1.464.054,5.414,5.414,0,0,1,1.562.325C2731.752,518.833,2731.82,518.718,2731.741,518.685Z" transform="translate(-2713.152 -485.475)" fill="#fff" opacity="0.4"/>
        <g id="Grupo_1179934" data-name="Grupo 1179934" transform="translate(13.891 54.524)" opacity="0.5">
          <path id="Trazado_1002893" data-name="Trazado 1002893" d="M2739.163,785.134c-.468-.941-.887-1.9-1.288-2.874-.394-.953-.821-1.9-1.129-2.887-.026-.081-.154-.047-.128.036.317,1.012.757,1.986,1.162,2.964.4.956.81,1.9,1.269,2.828.039.077.153.009.115-.067Z" transform="translate(-2736.614 -779.327)" fill="#2f2627"/>
        </g>
      </g>
      <path id="Trazado_1002894" data-name="Trazado 1002894" d="M2775.99,546.933c.011.05.034.151.047.2.006.021.015.062.026.1l.02.072c.679,0,.788-.47.61-.421A2.483,2.483,0,0,1,2775.99,546.933Z" transform="translate(-2756.912 -522.971)" fill="#e2795c"/>
    </g>
    <g id="Grupo_1179956" data-name="Grupo 1179956" transform="translate(285.435 59.583)">
      <g id="Grupo_1179937" data-name="Grupo 1179937" transform="translate(28.728 38.605)">
        <path id="Trazado_1002895" data-name="Trazado 1002895" d="M2477.563,815.156l-4.3.383-1.188-13.363h0a4.322,4.322,0,0,1,4.688,3.922Z" transform="translate(-2460.625 -794.691)" fill="#db5a5a"/>
        <path id="Trazado_1002896" data-name="Trazado 1002896" d="M2630.56,1068.26a2.784,2.784,0,1,1,2.783,2.783A2.787,2.787,0,0,1,2630.56,1068.26Zm.777,0a2.006,2.006,0,1,0,2.006-2.006A2.009,2.009,0,0,0,2631.337,1068.26Z" transform="translate(-2598.238 -1023.327)" fill="#f1f1f1"/>
        <rect id="Rectángulo_455794" data-name="Rectángulo 455794" width="21.27" height="9.19" transform="translate(12.223 21.015) rotate(-5.077)" fill="#db5a5a"/>
        <path id="Trazado_1002897" data-name="Trazado 1002897" d="M2385.17,913.489a14.335,14.335,0,1,1,14.336,14.335A14.352,14.352,0,0,1,2385.17,913.489Zm.907,0a13.429,13.429,0,1,0,13.429-13.429A13.444,13.444,0,0,0,2386.077,913.489Z" transform="translate(-2385.17 -878.911)" fill="#5c4d55"/>
        <path id="Trazado_1002898" data-name="Trazado 1002898" d="M2618.93,1058.263a4.3,4.3,0,1,1,4.3,4.3A4.3,4.3,0,0,1,2618.93,1058.263Zm.906,0a3.392,3.392,0,1,0,3.392-3.392A3.4,3.4,0,0,0,2619.836,1058.263Z" transform="translate(-2588.14 -1013.331)" fill="#5c4d55"/>
        <path id="Trazado_1002899" data-name="Trazado 1002899" d="M2397.57,924.253a12.7,12.7,0,1,1,12.7,12.7A12.717,12.717,0,0,1,2397.57,924.253Zm.906,0a11.8,11.8,0,1,0,11.8-11.8A11.809,11.809,0,0,0,2398.476,924.253Z" transform="translate(-2395.937 -889.675)" fill="#f1f1f1"/>
        <path id="Trazado_1002900" data-name="Trazado 1002900" d="M2458.037,786.652a.673.673,0,0,0-.871-.293l-5.774,2.482-5.637-12.54a.755.755,0,0,0-.987-.384l-3.889,1.674-1.422-15.989a.914.914,0,0,0-.991-.83l-.38.034-18.607,1.654-1.43-16.086a.991.991,0,0,0-1.073-.9l-6.858.593a.648.648,0,0,0-.588.7h0a.648.648,0,0,0,.7.588l5.777-.513a.777.777,0,0,1,.843.705l3.04,34.207a.667.667,0,0,0,.642.618.648.648,0,0,0,.652-.705l-1.593-17.919,17.862-1.588a.748.748,0,0,1,.811.679l2.471,27.8a.727.727,0,0,0,.708.648h0a.586.586,0,0,0,.593-.648L2441,778.949l3.305-1.421a.539.539,0,0,1,.7.274l5.436,12.092a.721.721,0,0,0,.953.362l.416-.187,5.9-2.535A.648.648,0,0,0,2458.037,786.652Z" transform="translate(-2406.32 -745.47)" fill="#e36767"/>
      </g>
      <g id="Grupo_1179955" data-name="Grupo 1179955" transform="translate(0)">
        <g id="Grupo_1179941" data-name="Grupo 1179941" transform="translate(7.068 77.791)">
          <path id="Trazado_1002901" data-name="Trazado 1002901" d="M2257.19,1043l3.143-.03-.217,4.846-2.716.1Z" transform="translate(-2252.386 -1042.97)" fill="#393047"/>
          <path id="Trazado_1002902" data-name="Trazado 1002902" d="M2228.513,1068.23c1.376.049.9,3.73.417,4.12a9.636,9.636,0,0,1-2.472.908,12.752,12.752,0,0,1-2.947.525c-1.916.146-2.612.044-2.769-.8-.374-2.008,4.319-5.239,4.924-4.863l.339.143a3.626,3.626,0,0,0,1.448.222A1.769,1.769,0,0,0,2228.513,1068.23Z" transform="translate(-2220.721 -1064.786)" fill="#46c8bb"/>
          <g id="Grupo_1179938" data-name="Grupo 1179938" transform="translate(7.232 4.283)" opacity="0.4">
            <path id="Trazado_1002903" data-name="Trazado 1002903" d="M2275.883,1075.545a2.475,2.475,0,0,1-.253,2.351c-.029.054.053.1.082.048a3.294,3.294,0,0,0,.262-2.425.048.048,0,0,0-.092.025Z" transform="translate(-2275.624 -1075.485)" fill="#46c8bb" opacity="0.8"/>
          </g>
          <g id="Grupo_1179939" data-name="Grupo 1179939" transform="translate(5.947 4.129)" opacity="0.4">
            <path id="Trazado_1002904" data-name="Trazado 1002904" d="M2266.559,1074.364a1.722,1.722,0,0,1-.673,1.683c-.042.045.025.112.067.067a2.583,2.583,0,0,0,.7-1.751.048.048,0,0,0-.1,0Z" transform="translate(-2265.873 -1074.318)" fill="#46c8bb" opacity="0.8"/>
          </g>
          <g id="Grupo_1179940" data-name="Grupo 1179940" transform="translate(3.399 3.685)" opacity="0.4">
            <path id="Trazado_1002905" data-name="Trazado 1002905" d="M2248.124,1070.951a1.228,1.228,0,0,0-.46.269,4.772,4.772,0,0,0-.429.375,4.84,4.84,0,0,0-.7.878c-.033.052.05.1.083.048a4.7,4.7,0,0,1,.735-.773c.122-.122.184-.3.319-.411a1.28,1.28,0,0,1,.481-.294c.059-.013.034-.1-.025-.092Z" transform="translate(-2246.524 -1070.95)" fill="#46c8bb" opacity="0.8"/>
          </g>
        </g>
        <g id="Grupo_1179945" data-name="Grupo 1179945" transform="translate(17.486 77.791)">
          <path id="Trazado_1002906" data-name="Trazado 1002906" d="M2308.653,1043l-3.143-.03.218,4.846,2.715.1Z" transform="translate(-2304.76 -1042.97)" fill="#393047"/>
          <path id="Trazado_1002907" data-name="Trazado 1002907" d="M2300.72,1068.23c-1.376.049-.9,3.73-.416,4.12a9.641,9.641,0,0,0,2.472.908,12.756,12.756,0,0,0,2.947.525c1.916.146,2.612.044,2.768-.8.373-2.008-4.319-5.239-4.924-4.863l-.339.143a3.627,3.627,0,0,1-1.448.222A1.77,1.77,0,0,1,2300.72,1068.23Z" transform="translate(-2299.816 -1064.786)" fill="#46c8bb"/>
          <g id="Grupo_1179942" data-name="Grupo 1179942" transform="translate(0.993 4.283)" opacity="0.4">
            <path id="Trazado_1002908" data-name="Trazado 1002908" d="M2307.569,1075.545a3.194,3.194,0,0,0,.253,2.351c.029.054-.054.1-.083.048a3.3,3.3,0,0,1-.262-2.425.048.048,0,0,1,.092.025Z" transform="translate(-2307.356 -1075.485)" fill="#46c8bb" opacity="0.8"/>
          </g>
          <g id="Grupo_1179943" data-name="Grupo 1179943" transform="translate(1.968 4.129)" opacity="0.4">
            <path id="Trazado_1002909" data-name="Trazado 1002909" d="M2314.851,1074.364a2.485,2.485,0,0,0,.673,1.683c.042.045-.025.112-.067.067a2.583,2.583,0,0,1-.7-1.751.048.048,0,0,1,.1,0Z" transform="translate(-2314.756 -1074.318)" fill="#46c8bb" opacity="0.8"/>
          </g>
          <g id="Grupo_1179944" data-name="Grupo 1179944" transform="translate(3.638 3.685)" opacity="0.4">
            <path id="Trazado_1002910" data-name="Trazado 1002910" d="M2327.5,1070.951a1.225,1.225,0,0,1,.46.269,4.775,4.775,0,0,1,.429.375,4.849,4.849,0,0,1,.7.878c.033.052-.05.1-.082.048a4.74,4.74,0,0,0-.669-.84,4.814,4.814,0,0,0-.385-.345,1.285,1.285,0,0,0-.481-.294c-.06-.013-.034-.1.025-.092Z" transform="translate(-2327.438 -1070.95)" fill="#46c8bb" opacity="0.8"/>
          </g>
        </g>
        <path id="Trazado_1002911" data-name="Trazado 1002911" d="M2228.854,798.766c-.852,5.008.316,7.5,1.176,16.532,1.052,11.055,1.277,18.37,1.277,18.37a9.27,9.27,0,0,0,4.944.026c1.137-11.894-.741-31.657.422-31.657s1.073,31.785,1.073,31.785a15.661,15.661,0,0,0,4.8.051c.894-6.107.9-8.195.817-19.163-.051-6.847,1.291-9.919,1.329-15.892Z" transform="translate(-2220.458 -753.141)" fill="#f8e9e2"/>
        <path id="Trazado_1002912" data-name="Trazado 1002912" d="M2347.082,608.342a14.673,14.673,0,0,1-2.359,0c-1.075-.145-1.383,2.893-1.383,2.893-.174,1.406,1.508,6.109,2.854,8.734.424.827,5.584,9.53,6.6,8.428a5.084,5.084,0,0,1,1.817-1.2c.574-.242,2.169.721,2.224-.065.057-.809-1.2-2.1-2.091-1.917a15.22,15.22,0,0,0-2.052.739c-1.987-2.2-3.954-7.932-4.2-8.5C2348.093,616.545,2348.028,610.7,2347.082,608.342Z" transform="translate(-2320.111 -587.794)" fill="#e89f89"/>
        <path id="Trazado_1002913" data-name="Trazado 1002913" d="M2214.153,562.265c-1.118.238-4.881.92-6.949,3.862-.347.493-1.9,3.935-1.9,3.935.675,1.269,4.28,1.84,4.28,1.84.824,2.2.477,5-1.009,12.762-.982,5.13-1.188,7.755-.933,9.569a33.847,33.847,0,0,0,8.943,1,29.6,29.6,0,0,0,8.6-1c.057-1.693-.13-5.325-.735-12.417-.486-5.7-.575-7.224.051-10.052,0,0,1.935.366,3.679-2.072,0,0-2.315-5.953-8.09-7.427Z" transform="translate(-2200.264 -547.79)" fill="#8eb5e3"/>
        <path id="Trazado_1002914" data-name="Trazado 1002914" d="M2272.51,562.264c0,1.138,1.512,4.641,2.969,4.641,1.418,0,2.969-3.227,2.969-4.643Z" transform="translate(-2258.621 -547.789)" fill="#f1f8ff"/>
        <path id="Trazado_1002915" data-name="Trazado 1002915" d="M2265.39,459.934s-.047,2.163-1.7,2.391c-.225.031-6.862.059-7.113,0-1.451-.339-1.657-2.494-1.657-2.494.348-1.343-.325-2.6.076-4.088a4.446,4.446,0,0,1,5.4-3.249.243.243,0,0,0,.093,0,4.074,4.074,0,0,1,4.742,2.8C2265.777,456.9,2265.107,458.135,2265.39,459.934Z" transform="translate(-2243.303 -452.373)" fill="#905756"/>
        <path id="Trazado_1002916" data-name="Trazado 1002916" d="M2278.351,540.9l.091-.062s-.5-.2-.662-.285a.848.848,0,0,1-.438-.765v-2.166l-3.726-.033,0,2.189a.857.857,0,0,1-.452.772c-.161.08-.658.29-.658.29h0a4.224,4.224,0,0,0,2.481.805h.973A4.222,4.222,0,0,0,2278.351,540.9Z" transform="translate(-2258.615 -526.366)" fill="#e89f89"/>
        <path id="Trazado_1002917" data-name="Trazado 1002917" d="M2284.655,538.773a4.059,4.059,0,0,1-3.726.1V537.8l3.728-.005Z" transform="translate(-2265.931 -526.544)" fill="#e2795c" opacity="0.4"/>
        <path id="Trazado_1002918" data-name="Trazado 1002918" d="M2264.9,463.513c-.031,0-.061,0-.091,0V461.88a4.243,4.243,0,0,0-4.271-4.215h0a4.243,4.243,0,0,0-4.271,4.215v1.634l-.038,0a.915.915,0,1,0,0,1.831c.023,0,.046,0,.068,0,.665,2.115,2.611,3.908,4.238,3.908h0c2.13,0,3.771-1.813,4.243-3.914a.955.955,0,0,0,.12.009.915.915,0,1,0,0-1.831Z" transform="translate(-2243.68 -456.969)" fill="#e89f89"/>
        <path id="Trazado_1002919" data-name="Trazado 1002919" d="M2280.943,506.578a.229.229,0,1,1-.229-.226A.227.227,0,0,1,2280.943,506.578Z" transform="translate(-2265.546 -499.242)" fill="#3d3028"/>
        <path id="Trazado_1002920" data-name="Trazado 1002920" d="M2307.7,506.578a.229.229,0,1,1-.229-.226A.227.227,0,0,1,2307.7,506.578Z" transform="translate(-2288.781 -499.242)" fill="#3d3028"/>
        <path id="Trazado_1002921" data-name="Trazado 1002921" d="M2303.348,494.34c-.079-.087-.071-.222.186-.336a2.367,2.367,0,0,1,1.048-.09c.705.109.958.415.8.376a3.488,3.488,0,0,0-1.2-.053C2303.871,494.271,2303.435,494.435,2303.348,494.34Z" transform="translate(-2285.359 -488.424)" fill="#905756"/>
        <path id="Trazado_1002922" data-name="Trazado 1002922" d="M2330.106,507.1a.216.216,0,0,0-.141-.169.28.28,0,0,0-.1-.015.526.526,0,0,1,.167-.2.045.045,0,0,0,.016-.06.044.044,0,0,0-.06-.016.619.619,0,0,0-.217.275.741.741,0,0,0-.023.383.044.044,0,0,0,.054.031.045.045,0,0,0,.031-.054.7.7,0,0,1,0-.269h.068l.026.006.013,0h0l.022.012.009.006c.009.006,0,0,0,0l.016.016s.009.012,0,0l.006.008.011.019c0,.005,0,.008,0,0l0,.01.006.021v.008a.01.01,0,0,1,0,0c0,.007,0,.015,0,.022v.022l0,.011a.177.177,0,0,1-.007.025s0,.012,0,0l-.005.012a.238.238,0,0,1-.012.021l-.006.009,0,.005a.044.044,0,0,0,.062.062A.265.265,0,0,0,2330.106,507.1Z" transform="translate(-2308.305 -499.486)" fill="#e2795c"/>
        <path id="Trazado_1002923" data-name="Trazado 1002923" d="M2258.69,506.915a.619.619,0,0,0-.218-.275.044.044,0,0,0-.06.016.045.045,0,0,0,.016.06.532.532,0,0,1,.167.2.246.246,0,0,0-.191.073.235.235,0,0,0-.049.212.266.266,0,0,0,.059.113.044.044,0,0,0,.062,0,.045.045,0,0,0,0-.062s-.01-.012,0,0l-.006-.008-.012-.02,0-.009s0-.014,0,0c0-.007-.005-.013-.007-.02a.2.2,0,0,1-.005-.021.021.021,0,0,0,0-.005v-.008a.175.175,0,0,1,0-.02s0-.007,0-.011a.03.03,0,0,0,0,0c0-.013.007-.026.01-.039h0l0-.01.01-.016,0,0,.007-.007.008-.008,0,0,.019-.012.01-.005,0,0h0l.03-.009.014,0h.064a.712.712,0,0,1,0,.269.044.044,0,1,0,.084.023A.744.744,0,0,0,2258.69,506.915Z" transform="translate(-2246.324 -499.486)" fill="#e2795c"/>
        <g id="Grupo_1179946" data-name="Grupo 1179946" transform="translate(16.645 7.529)">
          <path id="Trazado_1002924" data-name="Trazado 1002924" d="M2293.673,509.563c-.039.178-.09.353-.142.528a2.189,2.189,0,0,0-.094.381.251.251,0,0,0,.058.222.337.337,0,0,0,.267.058.529.529,0,0,0,.363-.251c.03-.047-.045-.091-.076-.044a.426.426,0,0,1-.365.213c-.086,0-.159-.033-.164-.127a1.206,1.206,0,0,1,.081-.382c.056-.19.113-.38.156-.574.012-.055-.073-.078-.084-.024Z" transform="translate(-2293.434 -509.532)" fill="#e2795c"/>
        </g>
        <path id="Trazado_1002925" data-name="Trazado 1002925" d="M2264.979,454.063c-3.862.932-2.955,6.131-2.955,6.131.379-1.489,4.613-4.734,4.65-4.7,1.58,1.5,3.6,2.76,3.891,4.7C2270.566,460.2,2271.658,452.451,2264.979,454.063Z" transform="translate(-2249.436 -453.649)" fill="#905756"/>
        <path id="Trazado_1002926" data-name="Trazado 1002926" d="M2289.293,526.928a1.41,1.41,0,0,1-1.016-.315c-.021-.024-.02-.046.018-.046,0,0,.616.08,1,.081a9,9,0,0,0,.992-.081c.037,0,.042.017.023.042A1.31,1.31,0,0,1,2289.293,526.928Z" transform="translate(-2272.299 -516.795)" fill="#e2795c"/>
        <path id="Trazado_1002927" data-name="Trazado 1002927" d="M2275.348,494.453c.07-.094.047-.228-.22-.314a2.371,2.371,0,0,0-1.052.021c-.689.183-.909.514-.757.458a3.493,3.493,0,0,1,1.188-.179C2274.822,494.44,2275.272,494.557,2275.348,494.453Z" transform="translate(-2259.283 -488.594)" fill="#905756"/>
        <path id="Trazado_1002928" data-name="Trazado 1002928" d="M2311.771,538.314c-.64,1.827-.5,2.8-.825,2.836-.441.045-1.419-1.684-1.111-3.333.244-1.3,1.127-1.7.957-2.76-.127-.806-1.578-.993-1.578-2.521,0,0,0-.061.007-.161a4.354,4.354,0,0,0,.87-.661,5.083,5.083,0,0,0,.638-.76c.292.138-.423.747.85,1.938,1.086,1.018,1.37,1.189,1.523,2.031C2313.282,535.9,2312.468,536.324,2311.771,538.314Z" transform="translate(-2290.491 -520.603)" fill="#905756"/>
        <rect id="Rectángulo_455795" data-name="Rectángulo 455795" width="14.18" height="9.338" transform="translate(0 37.999) rotate(-6.453)" fill="#ce4a49"/>
        <path id="Trazado_1002929" data-name="Trazado 1002929" d="M2198.237,626.242c-.627,1.134-1.572,5.817-1.764,8.339-.307,4.026,1.917,10.118,1.955,11.779a10.348,10.348,0,0,0-.422,1.923,3.086,3.086,0,0,0,.326,1.859c.287.486,2.44.524,2.836.211.166-.131.38-.373.313-.619a.948.948,0,0,1-.734-.4c-.25-.4-.1-1.068.1-1.083.166-.013.191,1.213.742,1.045.418-.127-.8-2.578-1.035-3.622-.509-2.275-1.284-7.493-.786-10.533.556-3.39,1.782-5.449,2.121-7.691a15.671,15.671,0,0,1-1.837-.429A12.713,12.713,0,0,1,2198.237,626.242Z" transform="translate(-2192.574 -603.341)" fill="#e89f89"/>
        <g id="Grupo_1179947" data-name="Grupo 1179947" transform="translate(9.27 18.196)" opacity="0.4">
          <path id="Trazado_1002930" data-name="Trazado 1002930" d="M2237.578,596.234a13.005,13.005,0,0,1,1.23-5.608c.037-.078-.08-.147-.117-.068a13.159,13.159,0,0,0-1.249,5.676.068.068,0,0,0,.135,0Z" transform="translate(-2237.443 -590.523)" fill="#fff"/>
        </g>
        <g id="Grupo_1179948" data-name="Grupo 1179948" transform="translate(22.541 19.468)" opacity="0.4">
          <path id="Trazado_1002931" data-name="Trazado 1002931" d="M2339.571,604.151a16.583,16.583,0,0,1-1.24-3.917c-.015-.085-.149-.066-.134.019a16.734,16.734,0,0,0,1.249,3.95c.036.079.16.026.125-.053Z" transform="translate(-2338.196 -600.179)" fill="#fff"/>
        </g>
        <g id="Grupo_1179949" data-name="Grupo 1179949" transform="translate(15.203 44.621)" opacity="0.4">
          <path id="Trazado_1002932" data-name="Trazado 1002932" d="M2282.547,791.814a21.2,21.2,0,0,0,7.088-.537.068.068,0,0,0-.036-.13,21.092,21.092,0,0,1-7.052.532c-.086-.007-.086.129,0,.135Z" transform="translate(-2282.483 -791.144)" fill="#fff"/>
        </g>
        <path id="Trazado_1002933" data-name="Trazado 1002933" d="M2318.561,637.169q-1.663-.019-3.325,0c-.006,0-.009,0-.014.006a.061.061,0,0,0-.063.064c0,.24.009.479.013.719a.068.068,0,0,0,.135,0q-.006-.327-.012-.654,1.633-.015,3.266,0A.068.068,0,0,0,2318.561,637.169Z" transform="translate(-2295.652 -612.82)" fill="#fff" opacity="0.4"/>
        <g id="Grupo_1179950" data-name="Grupo 1179950" transform="translate(10.959 78.852)">
          <path id="Trazado_1002934" data-name="Trazado 1002934" d="M2250.316,1051.159a11.036,11.036,0,0,0,3.822.238c.086-.012.049-.142-.036-.13a10.848,10.848,0,0,1-3.75-.238c-.086-.019-.121.112-.036.13Z" transform="translate(-2250.267 -1051.027)" fill="#ebccc6"/>
        </g>
        <g id="Grupo_1179951" data-name="Grupo 1179951" transform="translate(17.442 79.077)">
          <path id="Trazado_1002935" data-name="Trazado 1002935" d="M2299.531,1052.869a3.4,3.4,0,0,0,.891.187c.327.037.654.073.982.1a7.292,7.292,0,0,0,1.937-.075c.085-.016.049-.146-.036-.13a7.169,7.169,0,0,1-1.9.071c-.3-.023-.607-.056-.909-.09a3.519,3.519,0,0,1-.928-.19c-.081-.032-.116.1-.036.13Z" transform="translate(-2299.486 -1052.734)" fill="#ebccc6"/>
        </g>
        <g id="Grupo_1179952" data-name="Grupo 1179952" transform="translate(20.682 57.459)">
          <path id="Trazado_1002936" data-name="Trazado 1002936" d="M2324.219,908.377c.171-5.122.387-10.246.319-15.373q-.029-2.168-.131-4.333c0-.086-.14-.087-.135,0,.244,5.089.131,10.182-.037,15.271q-.073,2.217-.151,4.435a.068.068,0,0,0,.135,0Z" transform="translate(-2324.083 -888.606)" fill="#ebccc6"/>
        </g>
        <g id="Grupo_1179953" data-name="Grupo 1179953" transform="translate(12.114 57.458)">
          <path id="Trazado_1002937" data-name="Trazado 1002937" d="M2259.374,908.376c-.2-5.122-.22-10.248-.2-15.373q.007-2.167.017-4.333a.068.068,0,0,0-.135,0c-.02,5.086-.054,10.173.054,15.258q.047,2.224.133,4.448c0,.087.138.087.135,0Z" transform="translate(-2259.03 -888.605)" fill="#ebccc6"/>
        </g>
        <g id="Grupo_1179954" data-name="Grupo 1179954" transform="translate(12.107 31.292)" opacity="0.4">
          <path id="Trazado_1002938" data-name="Trazado 1002938" d="M2259.079,691.078a8.375,8.375,0,0,1,4.22-.994,6.306,6.306,0,0,1,3.753,1.245c.069.053.136-.064.068-.117a6.427,6.427,0,0,0-3.821-1.264,8.486,8.486,0,0,0-4.288,1.012.068.068,0,0,0,.068.117Z" transform="translate(-2258.979 -689.948)" fill="#fff"/>
        </g>
      </g>
    </g>
    <g id="Grupo_1179973" data-name="Grupo 1179973" transform="translate(254.491 56.374)">
      <path id="Trazado_1002939" data-name="Trazado 1002939" d="M2093.089,692.086c.876,1.407-.04,3.729-.04,3.729-2.19,1.19-7.63.234-7.9-.586-.125-.383-.353-6.144.475-5.563C2087.951,691.3,2093.089,692.086,2093.089,692.086Z" transform="translate(-2064.886 -655.166)" fill="#fff"/>
      <g id="Grupo_1179959" data-name="Grupo 1179959" transform="translate(7.391 92.332)">
        <path id="Trazado_1002940" data-name="Trazado 1002940" d="M1994.678,1129.022l-4.111-.015.3,5.263a2.5,2.5,0,0,0,2.583.817,3.482,3.482,0,0,0,2.181-1.271h0A13.737,13.737,0,0,1,1994.678,1129.022Z" transform="translate(-1990.26 -1129.007)" fill="#ce8570"/>
        <g id="Grupo_1179958" data-name="Grupo 1179958" transform="translate(0 3.499)">
          <g id="Grupo_1179957" data-name="Grupo 1179957">
            <path id="Trazado_1002941" data-name="Trazado 1002941" d="M2001.285,1159.584a.782.782,0,0,0-.186-.381,1.1,1.1,0,0,0-.779-.383c-.881-.052-3.457-.319-4.381-1.495l0,0a14.732,14.732,0,0,0-1.774-1.562,1.111,1.111,0,0,0-1.715.737,4.96,4.96,0,0,1-3.662-.159c-1.089,1.393-.221,3.5-.22,3.5h.01a.121.121,0,0,0-.1.126l.014.972a.15.15,0,0,0,.141.156h2.75a.238.238,0,0,0,.178-.083l.149-.168a22.293,22.293,0,0,0,9.281-.311c.206-.061.3-.326.3-.561v-.385h0v0Z" transform="translate(-1988.236 -1155.575)" fill="#1e2144"/>
            <path id="Trazado_1002942" data-name="Trazado 1002942" d="M2085.27,1186.04Z" transform="translate(-2072.489 -1182.027)" fill="#4d3932"/>
          </g>
        </g>
      </g>
      <g id="Grupo_1179962" data-name="Grupo 1179962" transform="translate(16.255 91.755)">
        <path id="Trazado_1002943" data-name="Trazado 1002943" d="M2061.978,1124.642l-4.111-.015.3,5.263a2.5,2.5,0,0,0,2.583.818,3.482,3.482,0,0,0,2.181-1.271h0A13.768,13.768,0,0,1,2061.978,1124.642Z" transform="translate(-2057.56 -1124.627)" fill="#ce8570"/>
        <g id="Grupo_1179961" data-name="Grupo 1179961" transform="translate(0 3.5)">
          <g id="Grupo_1179960" data-name="Grupo 1179960">
            <path id="Trazado_1002944" data-name="Trazado 1002944" d="M2068.584,1155.2a.781.781,0,0,0-.185-.381,1.094,1.094,0,0,0-.779-.383c-.881-.052-3.457-.319-4.381-1.495l0,0a14.7,14.7,0,0,0-1.774-1.562,1.112,1.112,0,0,0-1.716.737,4.96,4.96,0,0,1-3.662-.159c-1.089,1.393-.221,3.5-.22,3.5h.011a.121.121,0,0,0-.1.126l.014.971a.151.151,0,0,0,.141.156h2.75a.237.237,0,0,0,.178-.083l.149-.168a22.289,22.289,0,0,0,9.281-.311c.206-.061.3-.326.3-.56v-.385h0v0Z" transform="translate(-2055.536 -1151.196)" fill="#1e2144"/>
            <path id="Trazado_1002945" data-name="Trazado 1002945" d="M2152.57,1181.65Z" transform="translate(-2139.789 -1177.639)" fill="#4d3932"/>
          </g>
        </g>
      </g>
      <path id="Trazado_1002946" data-name="Trazado 1002946" d="M1986.689,921.327c-1.115,4.9-.369,29-.369,29a12.445,12.445,0,0,1-6.689.345,107.4,107.4,0,0,1-.885-19.939c-.69,2.734-1.252,20.545-1.252,20.545a14.441,14.441,0,0,1-6.623.4c-.08-3.385-2.145-4.551-1.752-17.533.261-8.617,1.365-9.559,1.706-12.3Z" transform="translate(-1964.204 -856.349)" fill="#1e2144"/>
      <path id="Trazado_1002947" data-name="Trazado 1002947" d="M2134.247,692.188c.528,1.3,2.183,2.276,4.448.975,2-1.149,3.509-3.318,3.091-4-.736-1.2-2.767-1.63-5-.726S2133.719,690.883,2134.247,692.188Z" transform="translate(-2107.49 -653.716)" fill="#aa7063"/>
      <g id="Grupo_1179964" data-name="Grupo 1179964" transform="translate(7.671)">
        <path id="Trazado_1002948" data-name="Trazado 1002948" d="M2012.553,523.161l-.133-3.3-.132-4.41-5.255.368a37.129,37.129,0,0,1-2.034,5.6C2004.149,523.038,2011.51,524.339,2012.553,523.161Z" transform="translate(-2003.012 -503.934)" fill="#aa7063"/>
        <path id="Trazado_1002949" data-name="Trazado 1002949" d="M2018.67,465.732a1.905,1.905,0,0,0,1.663-1.262c0-.016,1.575-6.547,3.874-6.587,2.723-.047,3.892.779,4.195,3.439a3.142,3.142,0,0,0,1.215,2.108.352.352,0,0,1-.313.578l-.4-.01a.167.167,0,0,0-.171.156c-.184,2.526-1.116,4.472-3.764,4.658A7.4,7.4,0,0,1,2018.67,465.732Z" transform="translate(-2014.942 -453.947)" fill="#aa7063"/>
        <path id="Trazado_1002950" data-name="Trazado 1002950" d="M2003.338,429.2c-.711-.052-.555-.914-1.872-.792a7.036,7.036,0,0,1-3.76-.18c-2.855-.862-2.751,1.071-5.436,2-1.178.408-2.651,3-1.471,4.445,1.128,1.385-.406,2.772,1.23,3.389,1.8.678,1.539,1.934,2.3,2.043,0,0,.6.04,2.642-2.77.389-.536,1.1-1.4,1.1-1.4.625,1.568,2.714.259,1.968-1.228-.432-.862,1.323-1.957,2.389-2.087.045-.01.1-.05.136-.027C2005.212,434.125,2005.465,429.352,2003.338,429.2Z" transform="translate(-1990.366 -428.01)" fill="#382b2a"/>
        <path id="Trazado_1002951" data-name="Trazado 1002951" d="M2034.05,484.221a1.03,1.03,0,1,0,.94-1.216A1.09,1.09,0,0,0,2034.05,484.221Z" transform="translate(-2028.293 -475.759)" fill="#aa7063"/>
        <path id="Trazado_1002952" data-name="Trazado 1002952" d="M2071.634,480.4a4.753,4.753,0,0,1,1.643-.3c.255-.015.262-.473-.049-.5a3.572,3.572,0,0,0-1.791.473C2071.143,480.267,2071.329,480.517,2071.634,480.4Z" transform="translate(-2060.63 -472.799)" fill="#382b2a"/>
        <g id="Grupo_1179963" data-name="Grupo 1179963" transform="translate(6.591 7.889)" opacity="0.5">
          <path id="Trazado_1002953" data-name="Trazado 1002953" d="M2040.408,487.944a.061.061,0,0,1,.078-.034.844.844,0,0,1,.348.325,1,1,0,0,1,.108.508c0,.078-.121.063-.12-.014a.948.948,0,0,0-.059-.358h0l-.024,0-.046.008-.012,0-.019.006a.389.389,0,0,0-.038.018h0l0,0-.012.009-.022.019,0,0-.01.012-.008.011,0,.005c0,.008-.008.015-.01.023l0,.014v0c0,.009,0,.019,0,.028a.141.141,0,0,0,0,.022s0,0,0,0,0,.005,0,.008,0,.01,0,.015a.235.235,0,0,0,0,.026l0,.012v.005l.011.027.014.026c-.007-.015,0,0,0,0l.008.011.02.024.01.01c-.012-.012,0,0,0,0a.062.062,0,0,1,.013.084.061.061,0,0,1-.084.013.359.359,0,0,1-.1-.14.319.319,0,0,1,.023-.3.333.333,0,0,1,.239-.137.716.716,0,0,0-.263-.235A.061.061,0,0,1,2040.408,487.944Z" transform="translate(-2040.403 -487.904)" fill="#aa7063" opacity="0.6"/>
        </g>
        <path id="Trazado_1002954" data-name="Trazado 1002954" d="M2038.075,526.5l-.027-.9s-2.948-.709-3.566-2.333C2034.481,523.272,2034.437,525.878,2038.075,526.5Z" transform="translate(-2028.671 -510.724)" fill="#aa7063" opacity="0.3"/>
        <path id="Trazado_1002955" data-name="Trazado 1002955" d="M2089.6,517.385c-.014.055-.044.164-.06.218-.007.023-.02.067-.033.106s-.025.078-.025.078c-.387-.045-.533-.353-.347-.433A1.018,1.018,0,0,1,2089.6,517.385Z" transform="translate(-2076.056 -505.569)" fill="#ce8570" opacity="0.5"/>
        <path id="Trazado_1002956" data-name="Trazado 1002956" d="M2081.76,492.192a.255.255,0,1,0,.255-.255A.255.255,0,0,0,2081.76,492.192Z" transform="translate(-2069.722 -483.517)" fill="#382b2a"/>
      </g>
      <path id="Trazado_1002957" data-name="Trazado 1002957" d="M2017.136,558.626c-.31-4.273.166-9.271-1.248-13.591a36.007,36.007,0,0,0-2.429-6.212,13.444,13.444,0,0,0-1.155-1.911c-1.338-1.775-4.23-3.021-5.145-3.383a.544.544,0,0,0-.552.084,1.8,1.8,0,0,0-.634,1.268c6.077,6.225,5.694,14.4,6.994,16.843A58.183,58.183,0,0,0,2017.136,558.626Z" transform="translate(-1996.247 -519.596)" fill="#abd0fc"/>
      <path id="Trazado_1002958" data-name="Trazado 1002958" d="M1941.852,544.055s-3.655,1.365-5.4,4.1c-3.6,5.635-4.911,14.971-4.088,19.8.446,2.617,3.577,3.471,3.577,3.471.77,6.676.3,14.314-.378,24.707,0,0,13.757,3.8,19.132-.139,0,0-.626-18.615-1.679-28.2-.01-.093-.014-.038-1.115-2.867C1945.175,547.663,1945.425,547.4,1941.852,544.055Z" transform="translate(-1932.125 -528.77)" fill="#fff"/>
      <g id="Grupo_1179965" data-name="Grupo 1179965" transform="translate(3.836 41.763)">
        <path id="Trazado_1002959" data-name="Trazado 1002959" d="M1975.312,745.222a16.479,16.479,0,0,1-6.84,1.29,39.576,39.576,0,0,1-7.164-.4c-.1-.017-.057-.167.042-.151a39.241,39.241,0,0,0,6.969.4,16.514,16.514,0,0,0,6.915-1.271c.091-.042.17.092.079.135Z" transform="translate(-1961.252 -745.079)" fill="#e5e5e5"/>
      </g>
      <g id="Grupo_1179966" data-name="Grupo 1179966" transform="translate(7.232 18.529)">
        <path id="Trazado_1002960" data-name="Trazado 1002960" d="M1987.321,568.7a9.242,9.242,0,0,1,2.238,6.062,21.616,21.616,0,0,1-.91,7.08,22.57,22.57,0,0,1-1.475,3.7c-.045.09-.18.011-.135-.079a22.266,22.266,0,0,0,2.329-8.45c.2-2.862-.091-6.023-2.157-8.206-.069-.073.04-.183.11-.11Z" transform="translate(-1987.03 -568.681)" fill="#e5e5e5"/>
      </g>
      <g id="Grupo_1179967" data-name="Grupo 1179967" transform="translate(7.233 35.264)">
        <path id="Trazado_1002961" data-name="Trazado 1002961" d="M1996.411,697.468a12.89,12.89,0,0,0-2.166-.561q-1.186-.241-2.379-.447c-.785-.136-1.572-.255-2.36-.374a11.129,11.129,0,0,0-2.4-.176c-.1.007-.1-.149,0-.156a20.342,20.342,0,0,1,4.647.53q1.193.2,2.38.443a13.67,13.67,0,0,1,2.314.591c.093.036.052.187-.042.15Z" transform="translate(-1987.036 -695.737)" fill="#e5e5e5"/>
      </g>
      <g id="Grupo_1179968" data-name="Grupo 1179968" transform="translate(4.31 35.284)">
        <path id="Trazado_1002962" data-name="Trazado 1002962" d="M1967.827,696.035a5.741,5.741,0,0,0-2.827,3.3c-.033.094-.184.053-.15-.042a5.9,5.9,0,0,1,2.9-3.4c.091-.044.17.09.079.135Z" transform="translate(-1964.844 -695.892)" fill="#e5e5e5"/>
      </g>
      <g id="Grupo_1179969" data-name="Grupo 1179969" transform="translate(14.595 36.623)">
        <path id="Trazado_1002963" data-name="Trazado 1002963" d="M2043.72,706.171a6.212,6.212,0,0,0-.406,4.4.078.078,0,0,1-.15.042,6.377,6.377,0,0,1,.422-4.525c.044-.09.178-.011.135.079Z" transform="translate(-2042.93 -706.053)" fill="#e5e5e5"/>
      </g>
      <g id="Grupo_1179970" data-name="Grupo 1179970" transform="translate(14.472 69.084)" opacity="0.4">
        <path id="Trazado_1002964" data-name="Trazado 1002964" d="M2042.961,952.6a44.7,44.7,0,0,0-.808,5.1c-.01.1-.166.1-.156,0a44.986,44.986,0,0,1,.814-5.145c.021-.1.171-.057.15.042Z" transform="translate(-2041.997 -952.504)" fill="#fff"/>
      </g>
      <g id="Grupo_1179971" data-name="Grupo 1179971" transform="translate(12.339 18.084)" opacity="0.4">
        <path id="Trazado_1002965" data-name="Trazado 1002965" d="M2030.63,566.613a7.8,7.8,0,0,0-.924,1.991.079.079,0,0,1-.15,0,4.6,4.6,0,0,0-1.576-1.834,11.543,11.543,0,0,0-2.139-1.325c-.091-.044-.012-.178.079-.135a11.706,11.706,0,0,1,2.235,1.4,4.629,4.629,0,0,1,1.552,1.852h-.15a7.955,7.955,0,0,1,.939-2.028c.054-.084.19-.006.135.079Z" transform="translate(-2025.801 -565.302)" fill="#fff"/>
      </g>
      <g id="Grupo_1179972" data-name="Grupo 1179972" transform="translate(16.332 98.321)" opacity="0.4">
        <path id="Trazado_1002966" data-name="Trazado 1002966" d="M2060.079,1176.607a1,1,0,0,0-.37-1.1,2.188,2.188,0,0,0-1.045-.347,23.747,23.747,0,0,1-2.485-.531c-.1-.023-.056-.173.042-.15l1.521.359c.457.108.929.132,1.383.244a1.288,1.288,0,0,1,1.105,1.566.078.078,0,0,1-.15-.042Z" transform="translate(-2056.123 -1174.477)" fill="#fff"/>
      </g>
      <rect id="Rectángulo_455796" data-name="Rectángulo 455796" width="2.986" height="0.796" transform="matrix(-0.988, 0.156, -0.156, -0.988, 14.674, 28.218)" fill="#abd0fc"/>
      <path id="Trazado_1002967" data-name="Trazado 1002967" d="M2071.4,666.968l-7.092-3.345-11.563,7.193,5.914,4.579Z" transform="translate(-2036.862 -632.589)" fill="#4d538c"/>
      <path id="Trazado_1002968" data-name="Trazado 1002968" d="M2073.145,671.345,2066.052,668l-11.562,7.193,5.914,4.579Z" transform="translate(-2038.373 -636.39)" fill="#e38567"/>
      <path id="Trazado_1002969" data-name="Trazado 1002969" d="M2055.158,692.45a3.168,3.168,0,0,0-.684,2.13,2.531,2.531,0,0,0,1.045,2.124c1.085.7,3.163.211,3.581.166,3.4-.367,6.259-4.1,5.6-4.752-.969-.959-3.683,1.882-4.5.916-.5-.6,1.354-2.635.524-3.079-.306-.164-.922.893-2.356,1.659C2056.838,692.433,2056.054,692.1,2055.158,692.45Z" transform="translate(-2038.357 -655.438)" fill="#aa7063"/>
    </g>
    <g id="Grupo_1179992" data-name="Grupo 1179992" transform="translate(200.452 89.183)">
      <ellipse id="Elipse_13781" data-name="Elipse 13781" cx="1.438" cy="1.674" rx="1.438" ry="1.674" transform="translate(23.129 46.979)" fill="#161b43"/>
      <ellipse id="Elipse_13782" data-name="Elipse 13782" cx="1.438" cy="1.674" rx="1.438" ry="1.674" transform="translate(0.961 46.979)" fill="#161b43"/>
      <g id="Grupo_1179974" data-name="Grupo 1179974" transform="translate(0 16.079)">
        <rect id="Rectángulo_455797" data-name="Rectángulo 455797" width="26.971" height="32.31" fill="#fff"/>
        <rect id="Rectángulo_455798" data-name="Rectángulo 455798" width="6.972" height="0.782" transform="translate(10 5.319)" fill="#58afdc"/>
        <rect id="Rectángulo_455799" data-name="Rectángulo 455799" width="6.972" height="0.782" transform="translate(10 15.341)" fill="#58afdc"/>
        <rect id="Rectángulo_455800" data-name="Rectángulo 455800" width="6.972" height="0.782" transform="translate(10 26.142)" fill="#58afdc"/>
        <rect id="Rectángulo_455801" data-name="Rectángulo 455801" width="26.971" height="0.195" transform="translate(0 10.524)" fill="#58afdc"/>
        <rect id="Rectángulo_455802" data-name="Rectángulo 455802" width="26.971" height="0.195" transform="translate(0 21.636)" fill="#58afdc"/>
      </g>
      <g id="Grupo_1179987" data-name="Grupo 1179987" transform="translate(1.974 4.415)">
        <path id="Trazado_1002970" data-name="Trazado 1002970" d="M1555.452,723.643h0v-.8h-5.027v.8h0a.6.6,0,0,0-.6.6v8.446a.2.2,0,0,0,.2.2h5.832a.2.2,0,0,0,.2-.2v-8.446A.6.6,0,0,0,1555.452,723.643Z" transform="translate(-1548.112 -721.23)" fill="#58afdc"/>
        <path id="Trazado_1002971" data-name="Trazado 1002971" d="M1541.427,750.321h-4.34a.243.243,0,0,0-.243.243v.712a.251.251,0,0,0,.251.251h4.324a.251.251,0,0,0,.251-.251v-.712A.243.243,0,0,0,1541.427,750.321Z" transform="translate(-1536.844 -745.092)" fill="#42498d"/>
        <g id="Grupo_1179975" data-name="Grupo 1179975" transform="translate(0.403 6.435)">
          <rect id="Rectángulo_455803" data-name="Rectángulo 455803" width="4.022" height="0.804" transform="translate(0 4.424)" fill="#ce4a49"/>
          <path id="Trazado_1002972" data-name="Trazado 1002972" d="M1543.921,759.481H1539.9v.8h4.021Z" transform="translate(-1539.9 -759.481)" fill="#ce4a49"/>
        </g>
        <path id="Trazado_1002973" data-name="Trazado 1002973" d="M1543.917,765.588H1539.9v3.62h4.022Zm-1.005,2.212h-.6v.6h-.8v-.6h-.6V767h.6v-.6h.8v.6h.6Z" transform="translate(-1539.493 -758.349)" fill="#ffe4d0"/>
        <path id="Trazado_1002974" data-name="Trazado 1002974" d="M1557.382,710.625h-4.908a.361.361,0,0,0-.361.361v.982a.266.266,0,0,0,.266.266h5.1a.265.265,0,0,0,.266-.266v-.982A.362.362,0,0,0,1557.382,710.625Z" transform="translate(-1550.102 -710.625)" fill="#42498d"/>
        <path id="Trazado_1002975" data-name="Trazado 1002975" d="M1556.775,739.716h.572a.248.248,0,0,1,.232.23v.172h2.413v-2.011h-4.826v1.609h1.609Z" transform="translate(-1552.753 -734.487)" fill="#ffe4d0"/>
        <path id="Trazado_1002976" data-name="Trazado 1002976" d="M1548.938,771.695h-.8v.6h-.6v.8h.6v.6h.8v-.6h.6v-.8h-.6Z" transform="translate(-1546.122 -763.651)" fill="#58afdc"/>
        <g id="Grupo_1179976" data-name="Grupo 1179976" transform="translate(0.604 5.229)" opacity="0.14">
          <rect id="Rectángulo_455804" data-name="Rectángulo 455804" width="0.201" height="1.207"/>
        </g>
        <g id="Grupo_1179977" data-name="Grupo 1179977" transform="translate(1.407 5.229)" opacity="0.14">
          <rect id="Rectángulo_455805" data-name="Rectángulo 455805" width="0.201" height="1.207"/>
        </g>
        <g id="Grupo_1179978" data-name="Grupo 1179978" transform="translate(2.212 5.229)" opacity="0.14">
          <rect id="Rectángulo_455806" data-name="Rectángulo 455806" width="0.201" height="1.207"/>
        </g>
        <g id="Grupo_1179979" data-name="Grupo 1179979" transform="translate(3.017 5.229)" opacity="0.14">
          <rect id="Rectángulo_455807" data-name="Rectángulo 455807" width="0.201" height="1.207"/>
        </g>
        <g id="Grupo_1179980" data-name="Grupo 1179980" transform="translate(3.821 5.229)" opacity="0.14">
          <rect id="Rectángulo_455808" data-name="Rectángulo 455808" width="0.201" height="1.207"/>
        </g>
        <g id="Grupo_1179981" data-name="Grupo 1179981" transform="translate(2.614)" opacity="0.14">
          <rect id="Rectángulo_455809" data-name="Rectángulo 455809" width="0.201" height="1.609"/>
        </g>
        <g id="Grupo_1179982" data-name="Grupo 1179982" transform="translate(3.419)" opacity="0.14">
          <rect id="Rectángulo_455810" data-name="Rectángulo 455810" width="0.201" height="1.609"/>
        </g>
        <g id="Grupo_1179983" data-name="Grupo 1179983" transform="translate(4.224)" opacity="0.14">
          <rect id="Rectángulo_455811" data-name="Rectángulo 455811" width="0.201" height="1.609"/>
        </g>
        <g id="Grupo_1179984" data-name="Grupo 1179984" transform="translate(5.027)" opacity="0.14">
          <rect id="Rectángulo_455812" data-name="Rectángulo 455812" width="0.201" height="1.609"/>
        </g>
        <g id="Grupo_1179985" data-name="Grupo 1179985" transform="translate(5.832)" opacity="0.14">
          <rect id="Rectángulo_455813" data-name="Rectángulo 455813" width="0.201" height="1.609"/>
        </g>
        <g id="Grupo_1179986" data-name="Grupo 1179986" transform="translate(6.637)" opacity="0.14">
          <rect id="Rectángulo_455814" data-name="Rectángulo 455814" width="0.201" height="1.609"/>
        </g>
      </g>
      <g id="Grupo_1179990" data-name="Grupo 1179990" transform="translate(13.408)">
        <g id="Grupo_1179989" data-name="Grupo 1179989">
          <path id="Trazado_1002977" data-name="Trazado 1002977" d="M1664.633,677.1a30.7,30.7,0,0,0-1.2,6.55c.08,2.98.586,3.144.586,3.144h1.222s.507-.164.586-3.144A30.683,30.683,0,0,0,1664.633,677.1Z" transform="translate(-1658.194 -677.103)" fill="#46c8bb"/>
          <path id="Trazado_1002978" data-name="Trazado 1002978" d="M1654.858,684.371a12.561,12.561,0,0,0-2.742,3.829.707.707,0,1,1-.842,0,12.557,12.557,0,0,0-2.742-3.829s1.815,5.065.579,8.737h2.515c.024-.123.047-.256.069-.393.022.137.045.27.069.393h2.515C1653.043,689.436,1654.858,684.371,1654.858,684.371Z" transform="translate(-1645.255 -683.414)" fill="#4ab1a6"/>
          <path id="Trazado_1002979" data-name="Trazado 1002979" d="M1683.644,726.356c.153-2.069,2.552-3.693,2.552-3.693a7.437,7.437,0,0,0-3.342,1.352,4.557,4.557,0,0,0-1.4,2.341Z" transform="translate(-1673.837 -716.662)" fill="#4ab1a6"/>
          <path id="Trazado_1002980" data-name="Trazado 1002980" d="M1627.068,717.708c-.2-2.768-3.414-4.941-3.414-4.941a8.225,8.225,0,0,1,5.065,4.941Z" transform="translate(-1623.654 -708.069)" fill="#4ab1a6"/>
          <path id="Trazado_1002981" data-name="Trazado 1002981" d="M1633.825,700.177a2.41,2.41,0,1,1-4.56,0,10.853,10.853,0,0,0-3.939-1.855s4.013,2.8,4.335,6.9h3.767c.322-4.094,4.335-6.9,4.335-6.9A10.861,10.861,0,0,0,1633.825,700.177Z" transform="translate(-1625.106 -695.527)" fill="#46c8bb"/>
          <path id="Trazado_1002982" data-name="Trazado 1002982" d="M1645.247,755l-1.525-6.357a.163.163,0,0,1,.158-.2h7.594a.163.163,0,0,1,.158.2L1650.108,755a.163.163,0,0,1-.158.125h-4.544A.162.162,0,0,1,1645.247,755Z" transform="translate(-1641.074 -739.041)" fill="#58afdc"/>
          <g id="Grupo_1179988" data-name="Grupo 1179988" transform="translate(6.399 7.812)">
            <path id="Trazado_1002983" data-name="Trazado 1002983" d="M1672.25,736.508a4.524,4.524,0,0,1,.555,1.479c.019.078.139.045.12-.033a4.623,4.623,0,0,0-.567-1.508c-.045-.066-.152,0-.108.063Z" transform="translate(-1672.239 -736.416)" fill="#4ab1a6"/>
          </g>
        </g>
        <path id="Trazado_1002984" data-name="Trazado 1002984" d="M1653.084,758.938H1645.9l-.093-.389h7.368Z" transform="translate(-1642.892 -747.821)" fill="#161b43"/>
        <path id="Trazado_1002985" data-name="Trazado 1002985" d="M1655.037,769.987h-6.483l-.094-.389h6.67Z" transform="translate(-1645.193 -757.415)" fill="#161b43"/>
      </g>
      <g id="Grupo_1179991" data-name="Grupo 1179991" transform="translate(12.488 10.789)">
        <path id="Trazado_1002986" data-name="Trazado 1002986" d="M1641.7,763.764h-.315a.162.162,0,0,0-.154.166l-.009.613a.177.177,0,0,0,.044.121.147.147,0,0,0,.109.05h.387a.5.5,0,0,1,0,1h-.471a.16.16,0,0,0-.152.148l-.068.613a.18.18,0,0,0,.037.132.148.148,0,0,0,.115.057h.476a1.458,1.458,0,0,0,0-2.9Z" transform="translate(-1637.856 -763.139)" fill="#ce4a49"/>
        <path id="Trazado_1002987" data-name="Trazado 1002987" d="M1620.02,763.423q-.032.169-.067.338c-.024.114-.049.228-.074.342l-.017.075a.157.157,0,0,1-.149.128h-2.493a.157.157,0,0,1-.149-.128l-.017-.075q-.038-.169-.073-.342t-.064-.338a18.924,18.924,0,0,1-.218-4.248.161.161,0,0,1,.153-.16h3.331a.161.161,0,0,1,.154.162A19.032,19.032,0,0,1,1620.02,763.423Z" transform="translate(-1616.667 -759.016)" fill="#ce4a49"/>
        <path id="Trazado_1002988" data-name="Trazado 1002988" d="M1621.663,792.478q-.032.169-.067.338h-2.973q-.034-.168-.064-.338Z" transform="translate(-1618.311 -788.07)" fill="#fff"/>
      </g>
    </g>
    <g id="Grupo_1179999" data-name="Grupo 1179999" transform="translate(63.887 82.592)">
      <path id="Trazado_1002989" data-name="Trazado 1002989" d="M909.143,761.367H873.01a1.054,1.054,0,0,0-1.053,1.054v13.923h1.816V764.119a.936.936,0,0,1,.936-.936h33.5a.936.936,0,0,1,.936.936v12.225h1.816V762.42a1.054,1.054,0,0,0-1.054-1.054Z" transform="translate(-820.994 -743.677)" fill="#fff"/>
      <g id="Grupo_1179998" data-name="Grupo 1179998">
        <rect id="Rectángulo_455815" data-name="Rectángulo 455815" width="23.959" height="1.211" transform="matrix(0.757, -0.654, 0.654, 0.757, 0.548, 33.94)" fill="#fff"/>
        <g id="Grupo_1179994" data-name="Grupo 1179994" transform="translate(108.874 42.031)">
          <g id="Grupo_1179993" data-name="Grupo 1179993" transform="translate(0 15.649)">
            <circle id="Elipse_13783" data-name="Elipse 13783" cx="3.352" cy="3.352" r="3.352" transform="translate(0 6.524) rotate(-76.714)" fill="#161b43"/>
            <circle id="Elipse_13784" data-name="Elipse 13784" cx="1.73" cy="1.73" r="1.73" transform="translate(2.301 2.286)" fill="#42498d"/>
          </g>
          <path id="Trazado_1002990" data-name="Trazado 1002990" d="M1336.244,965.829h0a.908.908,0,0,1-.908-.908V946.163h1.816v18.758A.907.907,0,0,1,1336.244,965.829Z" transform="translate(-1332.213 -946.163)" fill="#cad1d9"/>
        </g>
        <g id="Grupo_1179995" data-name="Grupo 1179995" transform="translate(11.799 56.497)">
          <circle id="Elipse_13785" data-name="Elipse 13785" cx="3.352" cy="3.352" r="3.352" transform="translate(0 4.18) rotate(-38.573)" fill="#161b43"/>
          <circle id="Elipse_13786" data-name="Elipse 13786" cx="1.73" cy="1.73" r="1.73" transform="translate(2.986 2.976)" fill="#42498d"/>
        </g>
        <path id="Trazado_1002991" data-name="Trazado 1002991" d="M604.437,962.08h0a.908.908,0,0,1-.908-.908V942.414h1.816v18.758A.907.907,0,0,1,604.437,962.08Z" transform="translate(-587.922 -900.877)" fill="#cad1d9"/>
        <g id="Grupo_1179996" data-name="Grupo 1179996" transform="translate(2.499 59.4)">
          <circle id="Elipse_13787" data-name="Elipse 13787" cx="3.725" cy="3.725" r="3.725" fill="#161b43"/>
          <circle id="Elipse_13788" data-name="Elipse 13788" cx="1.923" cy="1.923" r="1.923" transform="translate(1.802 1.802)" fill="#42498d"/>
        </g>
        <g id="Grupo_1179997" data-name="Grupo 1179997" transform="translate(120.966 59.4)">
          <circle id="Elipse_13789" data-name="Elipse 13789" cx="3.725" cy="3.725" r="3.725" fill="#161b43"/>
          <circle id="Elipse_13790" data-name="Elipse 13790" cx="1.923" cy="1.923" r="1.923" transform="translate(1.802 1.802)" fill="#42498d"/>
        </g>
        <path id="Trazado_1002992" data-name="Trazado 1002992" d="M614.178,724.362v26.125a.544.544,0,0,1-.544.544H487.366a.51.51,0,0,1-.51-.51V724.362a.908.908,0,0,0-.908-.908h0a.908.908,0,0,0-.908.908V751.03h0a1.816,1.816,0,0,0,1.816,1.816h3.5v20.379a.908.908,0,0,0,.908.908h0a.908.908,0,0,0,.908-.908V752.846H608.823v20.341a.933.933,0,0,0,.88.945.908.908,0,0,0,.936-.907V752.846h3.538a1.816,1.816,0,0,0,1.816-1.816h0V724.362a.908.908,0,0,0-.908-.908h0A.907.907,0,0,0,614.178,724.362Z" transform="translate(-485.04 -710.758)" fill="#fff"/>
        <path id="Trazado_1002993" data-name="Trazado 1002993" d="M547.633,658.781l-25.37-30.194a4.276,4.276,0,0,0-6.025-.523h0a4.276,4.276,0,0,0-.523,6.025l27.933,33.245h95.77a.523.523,0,0,0,.523-.523v-8.03Z" transform="translate(-510.803 -627.062)" fill="#42498d"/>
        <path id="Trazado_1002994" data-name="Trazado 1002994" d="M882.158,821.922H846.025a1.053,1.053,0,0,0-1.053,1.053V836.9h1.816V824.674a.936.936,0,0,1,.936-.936h33.5a.936.936,0,0,1,.936.936V836.9h1.816V822.975a1.053,1.053,0,0,0-1.054-1.053Z" transform="translate(-797.563 -796.256)" fill="#fff"/>
      </g>
      <rect id="Rectángulo_455816" data-name="Rectángulo 455816" width="11.154" height="23.76" transform="translate(92.695 17.125)" fill="#fff"/>
      <path id="Trazado_1002995" data-name="Trazado 1002995" d="M1199.933,932.535h-11a.05.05,0,0,1-.05-.05h0a.05.05,0,0,1,.05-.05h11a.05.05,0,0,1,.05.05h0A.051.051,0,0,1,1199.933,932.535Z" transform="translate(-1096.177 -892.213)" fill="#cad1d9"/>
      <path id="Trazado_1002996" data-name="Trazado 1002996" d="M1129.1,932.535h-1.694a.05.05,0,0,1-.05-.05h0a.05.05,0,0,1,.05-.05h1.694a.05.05,0,0,1,.05.05h0A.05.05,0,0,1,1129.1,932.535Z" transform="translate(-1042.754 -892.213)" fill="#cad1d9"/>
      <path id="Trazado_1002997" data-name="Trazado 1002997" d="M846.808,932.535h-1.694a.05.05,0,0,1-.05-.05h0a.05.05,0,0,1,.05-.05h1.694a.05.05,0,0,1,.05.05h0A.05.05,0,0,1,846.808,932.535Z" transform="translate(-797.643 -892.213)" fill="#cad1d9"/>
      <path id="Trazado_1002998" data-name="Trazado 1002998" d="M527.228,946.331h-1.694a.05.05,0,0,1-.05-.05h0a.05.05,0,0,1,.05-.05h1.694a.05.05,0,0,1,.05.05h0A.05.05,0,0,1,527.228,946.331Z" transform="translate(-520.157 -904.191)" fill="#cad1d9"/>
      <path id="Trazado_1002999" data-name="Trazado 1002999" d="M857.4,946.3h-.594a.05.05,0,0,1-.05-.05h0a.05.05,0,0,1,.05-.05h.594a.05.05,0,0,1,.05.05h0A.05.05,0,0,1,857.4,946.3Z" transform="translate(-807.796 -904.16)" fill="#cad1d9"/>
      <path id="Trazado_1003000" data-name="Trazado 1003000" d="M1426.651,946.27h-1.694a.05.05,0,0,1-.05-.05h0a.05.05,0,0,1,.05-.05h1.694a.05.05,0,0,1,.05.05h0A.05.05,0,0,1,1426.651,946.27Z" transform="translate(-1301.112 -904.138)" fill="#cad1d9"/>
    </g>
    <path id="Trazado_1003001" data-name="Trazado 1003001" d="M268.779,15.567V.017h-.471v15.55H233.815V.017h-.471v15.55h-9.2v4.876h53.123V15.567Z" transform="translate(-194.618 -0.016)" fill="#fff"/>
    <path id="Trazado_1003002" data-name="Trazado 1003002" d="M1073.988,15.567V.017h-.471v15.55h-34.492V.017h-.472v15.55h-9.2v4.876h53.124V15.567Z" transform="translate(-893.769 -0.016)" fill="#fff"/>
    <path id="Trazado_1003003" data-name="Trazado 1003003" d="M2263.287,15.567V.017h-.47v15.55h-34.492V.017h-.471v15.55h-9.2v4.876h53.124V15.567Z" transform="translate(-1926.419 -0.016)" fill="#fff"/>
    <g id="Grupo_1180000" data-name="Grupo 1180000" transform="translate(319.324 61.511)">
      <path id="Trazado_1003004" data-name="Trazado 1003004" d="M2449.713,482.632h-24.134a1.235,1.235,0,0,1-1.235-1.235v-13.15a1.235,1.235,0,0,1,1.235-1.235h24.134a1.235,1.235,0,0,1,1.235,1.235V481.4A1.235,1.235,0,0,1,2449.713,482.632Z" transform="translate(-2424.344 -467.012)" fill="#9cd2ff"/>
      <path id="Trazado_1003005" data-name="Trazado 1003005" d="M2537.88,513.675h-8.728a.157.157,0,0,1-.157-.157v-.011a.157.157,0,0,1,.157-.157h8.728a.157.157,0,0,1,.157.157v.011A.158.158,0,0,1,2537.88,513.675Z" transform="translate(-2515.211 -507.246)" fill="#fff" opacity="0.5"/>
      <path id="Trazado_1003006" data-name="Trazado 1003006" d="M2537.88,526.633h-8.728a.157.157,0,0,1-.157-.157v-.012a.157.157,0,0,1,.157-.157h8.728a.157.157,0,0,1,.157.157v.012A.158.158,0,0,1,2537.88,526.633Z" transform="translate(-2515.211 -518.497)" fill="#fff" opacity="0.5"/>
      <path id="Trazado_1003007" data-name="Trazado 1003007" d="M2534.349,540.337h-5.2a.157.157,0,0,1-.157-.157v-.011a.157.157,0,0,1,.157-.157h5.2a.157.157,0,0,1,.157.157v.011A.158.158,0,0,1,2534.349,540.337Z" transform="translate(-2515.208 -530.396)" fill="#fff" opacity="0.5"/>
      <path id="Trazado_1003008" data-name="Trazado 1003008" d="M2449.319,501.029a3.712,3.712,0,0,1-.476-2.529c.4-1.738,1.959-1.536,2.469-1.974a1.112,1.112,0,0,0,.36-.917.063.063,0,0,1,.063-.066h.779a.063.063,0,0,1,.063.055,1.706,1.706,0,0,1-.979,1.778.056.056,0,0,0-.005.1,1.647,1.647,0,0,1,.776,1.147c.042.275.012.556.03.834a1.107,1.107,0,0,0,.3.759,1.874,1.874,0,0,0,1.253.275,2.4,2.4,0,0,1,2.094,1.538,2.671,2.671,0,0,1,.052,1.57.063.063,0,0,1-.062.047h-.736a.063.063,0,0,1-.061-.081,2.977,2.977,0,0,0,.086-.406,1.381,1.381,0,0,0-1.378-1.692c-.8.056-.867,1.023-2.123,1.023a2.94,2.94,0,0,1-2.5-1.462Z" transform="translate(-2445.56 -491.785)" fill="#fff" opacity="0.5"/>
      <path id="Trazado_1003009" data-name="Trazado 1003009" d="M2538.329,499.936H2529.6a.157.157,0,0,1-.157-.157v-.011a.157.157,0,0,1,.157-.157h8.728a.157.157,0,0,1,.157.157v.011A.157.157,0,0,1,2538.329,499.936Z" transform="translate(-2515.6 -495.316)" fill="#fff" opacity="0.5"/>
    </g>
    <g id="Grupo_1180003" data-name="Grupo 1180003" transform="translate(308.329 39.322)">
      <path id="Trazado_1003010" data-name="Trazado 1003010" d="M2341.567,298.554h12.095a.694.694,0,0,1,.694.694v16.215a.694.694,0,0,1-.694.694h-12.095a.694.694,0,0,1-.694-.694V299.248A.694.694,0,0,1,2341.567,298.554Z" transform="translate(-2340.874 -298.554)" fill="#9cd2ff"/>
      <g id="Grupo_1180001" data-name="Grupo 1180001" transform="translate(1.124 1.64)">
        <path id="Trazado_1003011" data-name="Trazado 1003011" d="M2356.482,312.034h-.858v-.858a.172.172,0,0,0-.171-.171h-1.281a.171.171,0,0,0-.171.171v.858h-.858a.171.171,0,0,0-.171.171v1.281a.171.171,0,0,0,.171.171H2354v.858a.171.171,0,0,0,.171.171h1.281a.172.172,0,0,0,.172-.171v-.858h.858a.171.171,0,0,0,.171-.171v-1.281A.172.172,0,0,0,2356.482,312.034Z" transform="translate(-2352.501 -311.005)" fill="#fff" opacity="0.5"/>
        <path id="Trazado_1003012" data-name="Trazado 1003012" d="M2349.688,349.733h10.673a.281.281,0,0,1,.281.281h0a.281.281,0,0,1-.281.281h-10.673a.281.281,0,0,1-.281-.281h0A.281.281,0,0,1,2349.688,349.733Z" transform="translate(-2349.407 -344.632)" fill="#fff" opacity="0.5"/>
      </g>
      <g id="Grupo_1180002" data-name="Grupo 1180002" transform="translate(2.06 1.872)">
        <path id="Trazado_1003013" data-name="Trazado 1003013" d="M2356.747,371.413h8.9a.234.234,0,0,1,.234.234h0a.234.234,0,0,1-.234.234h-8.9a.234.234,0,0,1-.234-.234h0A.234.234,0,0,1,2356.747,371.413Z" transform="translate(-2356.513 -363.689)" fill="#fff" opacity="0.5"/>
        <path id="Trazado_1003014" data-name="Trazado 1003014" d="M2406.507,312.77h3.23a.234.234,0,0,1,.234.234h0a.234.234,0,0,1-.234.234h-3.23a.234.234,0,0,1-.234-.234h0A.234.234,0,0,1,2406.507,312.77Z" transform="translate(-2399.719 -312.77)" fill="#fff" opacity="0.5"/>
        <path id="Trazado_1003015" data-name="Trazado 1003015" d="M2406.507,324.144h3.23a.234.234,0,0,1,.234.234h0a.234.234,0,0,1-.234.234h-3.23a.234.234,0,0,1-.234-.234h0A.234.234,0,0,1,2406.507,324.144Z" transform="translate(-2399.719 -322.646)" fill="#fff" opacity="0.5"/>
        <path id="Trazado_1003016" data-name="Trazado 1003016" d="M2356.747,383.735h8.9a.234.234,0,0,1,.234.234h0a.234.234,0,0,1-.234.234h-8.9a.234.234,0,0,1-.234-.234h0A.234.234,0,0,1,2356.747,383.735Z" transform="translate(-2356.513 -374.388)" fill="#fff" opacity="0.5"/>
        <path id="Trazado_1003017" data-name="Trazado 1003017" d="M2356.747,396.054h4.167a.234.234,0,0,1,.234.234h0a.234.234,0,0,1-.234.234h-4.167a.234.234,0,0,1-.234-.234h0A.234.234,0,0,1,2356.747,396.054Z" transform="translate(-2356.513 -385.084)" fill="#fff" opacity="0.5"/>
      </g>
    </g>
    <g id="Grupo_1180021" data-name="Grupo 1180021" transform="translate(119.575 53.882)">
      <g id="Grupo_1180020" data-name="Grupo 1180020">
        <g id="Grupo_1180005" data-name="Grupo 1180005" transform="translate(7.3 61.634)">
          <path id="Trazado_1003018" data-name="Trazado 1003018" d="M983.027,877.019c.015,3.149.382,7.748.768,12.212.562,6.5,1.026,10.9,1.455,15.134a7.692,7.692,0,0,1-1.486,3.4,19.828,19.828,0,0,1-1.616,1.813s1.255,1.5,2.415.789c1.006-.62,3.78-3.042,4.189-3.963a2.358,2.358,0,0,0-.052-1.69c.554-3.259,1.874-9.12.754-14.779-.818-4.136.09-8.69-.751-12.507Z" transform="translate(-979.658 -877.019)" fill="#ffb296"/>
          <g id="Grupo_1180004" data-name="Grupo 1180004" transform="translate(0 27.679)">
            <path id="Trazado_1003019" data-name="Trazado 1003019" d="M972.761,1094.752h-.985l.075-3.9a7.992,7.992,0,0,0-2.946,2.463,3.171,3.171,0,0,1-2.648,1.437h0a3.024,3.024,0,0,1-.361-.02,12.785,12.785,0,0,1-1.9-.345c-.964-.335-.929-.8-.261-1.261.25-.2,2-1.09,2-1.09s1.19.674,1.947.109a20.793,20.793,0,0,0,4.607-4.987,1.936,1.936,0,0,1,.2.117,2.375,2.375,0,0,1,1.106,2.455,26.035,26.035,0,0,0-.834,4.512v.509Z" transform="translate(-963.249 -1087.158)" fill="#161b43"/>
          </g>
        </g>
        <g id="Grupo_1180007" data-name="Grupo 1180007" transform="translate(14.555 61.985)">
          <path id="Trazado_1003020" data-name="Trazado 1003020" d="M1038.109,879.683c.015,3.149.381,7.748.768,12.212.562,6.5,1.026,10.9,1.455,15.134a7.692,7.692,0,0,1-1.486,3.4,19.831,19.831,0,0,1-1.616,1.813s1.255,1.5,2.415.789c1.006-.62,3.78-3.042,4.189-3.963a2.358,2.358,0,0,0-.052-1.69c.554-3.259,1.874-9.12.754-14.779-.818-4.136.09-8.69-.751-12.507Z" transform="translate(-1034.74 -879.683)" fill="#ffb296"/>
          <g id="Grupo_1180006" data-name="Grupo 1180006" transform="translate(0 27.678)">
            <path id="Trazado_1003021" data-name="Trazado 1003021" d="M1027.842,1097.411h-.985l.075-3.9a7.991,7.991,0,0,0-2.945,2.462,3.171,3.171,0,0,1-2.648,1.437h0a3.023,3.023,0,0,1-.361-.02,12.769,12.769,0,0,1-1.9-.345c-.964-.335-.929-.8-.261-1.261.25-.2,2-1.09,2-1.09s1.19.674,1.947.109a20.793,20.793,0,0,0,4.607-4.987,1.918,1.918,0,0,1,.2.117,2.375,2.375,0,0,1,1.106,2.455,26.024,26.024,0,0,0-.834,4.512v.509Z" transform="translate(-1018.329 -1089.817)" fill="#161b43"/>
          </g>
        </g>
        <path id="Trazado_1003022" data-name="Trazado 1003022" d="M982.877,528.624a22.762,22.762,0,0,1,3.377-.34,15.056,15.056,0,0,1,3.634.5c.31.2.411,3.722.512,5.645.162,3.065,6,26.022,5.218,52.207,0,0-11.123,1.82-18.444.081C977.174,586.719,977.538,532.345,982.877,528.624Z" transform="translate(-968.04 -512.583)" fill="#58afdc"/>
        <path id="Trazado_1003023" data-name="Trazado 1003023" d="M992.3,453.8c-.593-1.947.537-12.013,1.6-12.332,1.623-.486,3.575,11.63,3.575,11.63C993.489,453.316,992.895,455.754,992.3,453.8Z" transform="translate(-981.031 -437.192)" fill="#161b43"/>
        <path id="Trazado_1003024" data-name="Trazado 1003024" d="M1007.8,435l-.289-4.04a8.279,8.279,0,0,0,1.691-4.1c.124-3.377-1.755-6.423-4.454-6.762-3.106-.391-5,1.99-5.52,5.329s1.721,7.061,3.774,7.009v3.111C1003.242,436.825,1008.088,436.31,1007.8,435Z" transform="translate(-987.124 -418.609)" fill="#ffb296"/>
        <path id="Trazado_1003025" data-name="Trazado 1003025" d="M1003.58,460.771c.1-.134.011-.269-.263-.344a2.375,2.375,0,0,0-.813-.049c-.476.051-.847.477-.713.44a2.793,2.793,0,0,1,1.043-.113C1003.154,460.712,1003.513,460.862,1003.58,460.771Z" transform="translate(-989.391 -453.61)" fill="#161b43"/>
        <path id="Trazado_1003026" data-name="Trazado 1003026" d="M1028.39,502.945v-.538a4.867,4.867,0,0,0,3.718-1.765C1031.35,501.955,1030.492,503.067,1028.39,502.945Z" transform="translate(-1012.51 -488.583)" fill="#e68770" opacity="0.2"/>
        <path id="Trazado_1003027" data-name="Trazado 1003027" d="M991.569,409.884a.282.282,0,0,1-.121.03A2.809,2.809,0,0,0,989,411.3c-1.329,1.77-3.119,12.011-.857,15.573,0,0-.12-12.169,1.321-13.462.831-1.389,2.065-1.495,2.1-1.4.907,2.682,3.6,3.935,5.257,4.591a4.608,4.608,0,0,1,.418,2.067,15.187,15.187,0,0,0,.034,6.35l1.039.223,3.521,1.061a55.083,55.083,0,0,0-1.271-12.482A6.167,6.167,0,0,0,991.569,409.884Z" transform="translate(-976.628 -409.089)" fill="#161b43"/>
        <path id="Trazado_1003028" data-name="Trazado 1003028" d="M1059.2,465.9a1.143,1.143,0,1,1-1.008-1.263A1.143,1.143,0,0,1,1059.2,465.9Z" transform="translate(-1037.285 -457.312)" fill="#ffb296"/>
        <path id="Trazado_1003029" data-name="Trazado 1003029" d="M1027.69,460.963c-.1-.135-.011-.269.277-.342a2.619,2.619,0,0,1,.855-.046c.5.053.89.48.749.442a3.081,3.081,0,0,0-1.1-.117C1028.136,460.906,1027.76,461.054,1027.69,460.963Z" transform="translate(-1011.866 -453.78)" fill="#161b43"/>
        <path id="Trazado_1003030" data-name="Trazado 1003030" d="M1064.163,470.134a.369.369,0,0,0-.282-.116.788.788,0,0,1,.255-.3.068.068,0,0,0,.026-.091.067.067,0,0,0-.091-.026.933.933,0,0,0-.335.406,1.11,1.11,0,0,0-.045.573c.012.085.142.051.13-.033a1.053,1.053,0,0,1,.013-.4h.029l.052,0,.013,0,.021,0c.015,0,.029.009.044.014h0l0,0,.014.008.027.018,0,0,.012.012.01.011,0,.005c.005.008.01.016.015.024l.007.015v0c0,.01.007.02.009.03a.167.167,0,0,1,0,.021.013.013,0,0,0,0,0s0,.005,0,.008,0,.011,0,.017,0,.02,0,.029l0,.014v.006c0,.01,0,.021-.008.031s-.008.02-.011.03c.006-.018,0,0,0,0l-.007.013a.337.337,0,0,1-.019.029l-.009.012c.011-.015,0,0,0,0a.068.068,0,0,0,0,.094.067.067,0,0,0,.094,0,.4.4,0,0,0,.092-.168A.355.355,0,0,0,1064.163,470.134Zm-.237.02Z" transform="translate(-1043.146 -461.627)" fill="#e68770" opacity="0.2"/>
        <g id="Grupo_1180010" data-name="Grupo 1180010" transform="translate(14.093 10.884)">
          <g id="Grupo_1180008" data-name="Grupo 1180008" clip-path="url(#clip-path)">
            <path id="Trazado_1003031" data-name="Trazado 1003031" d="M1015.88,492.644a1.169,1.169,0,0,1-1.045-.62c-.024-.037-.021-.083.018-.087,0,0,.618-.032,1.015-.068.414-.037,1.021-.148,1.021-.148.038,0,.061.04.033.107A1.328,1.328,0,0,1,1015.88,492.644Z" transform="translate(-1014.819 -491.722)" fill="#bb4753"/>
          </g>
          <g id="Grupo_1180009" data-name="Grupo 1180009" clip-path="url(#clip-path)">
            <path id="Trazado_1003033" data-name="Trazado 1003033" d="M1016.549,491.266c.171.089-.477.355-1.08.424a1.536,1.536,0,0,1-1.061-.224Z" transform="translate(-1014.461 -491.326)" fill="#fff"/>
          </g>
        </g>
        <path id="Trazado_1003035" data-name="Trazado 1003035" d="M1030.371,471.086a.216.216,0,1,0,.191-.239A.216.216,0,0,0,1030.371,471.086Z" transform="translate(-1014.229 -462.711)" fill="#161b43"/>
        <path id="Trazado_1003036" data-name="Trazado 1003036" d="M1009.251,471.349a.216.216,0,1,0,.191-.239A.216.216,0,0,0,1009.251,471.349Z" transform="translate(-995.89 -462.94)" fill="#161b43"/>
        <path id="Trazado_1003037" data-name="Trazado 1003037" d="M1056.489,532.1s4.683.964,6.579,2.946c1.645,1.719,4.206,13,2,17.2a3.529,3.529,0,0,1-3.289,1.6c1.354,4.714,1.24,23.292,1.24,23.292a23.288,23.288,0,0,1-7.7.079c-.364-4.328-.468-9.132-1.267-28.114C1053.623,539.018,1053.847,536.149,1056.489,532.1Z" transform="translate(-1034.641 -515.901)" fill="#fff"/>
        <path id="Trazado_1003038" data-name="Trazado 1003038" d="M931.984,530.876s-4.126.076-5.7,1.633c-2.124,2.1-1.132,5.661-2.009,6.672a26.892,26.892,0,0,1-5.7,4.227,4.527,4.527,0,0,0,1.046,3.074c2.407.564,7.459-2.07,7.459-2.07-.432,7.523-1.606,31.23-1.606,31.23,1.8.846,5.7.374,5.7.374.728-6.862-.774-17.5-.314-28.907C931.2,538.5,931.23,533.572,931.984,530.876Z" transform="translate(-917.147 -514.835)" fill="#fff"/>
        <path id="Trazado_1003039" data-name="Trazado 1003039" d="M1007.071,615.672l-.029-.026a.227.227,0,0,1-.02-.321l3.416-3.877a.227.227,0,0,1,.321-.02l.029.025a.227.227,0,0,1,.02.321l-3.416,3.877A.228.228,0,0,1,1007.071,615.672Z" transform="translate(-993.907 -584.727)" fill="#161b43"/>
        <path id="Trazado_1003040" data-name="Trazado 1003040" d="M1008.759,632.853c-.608-1.364.814-2.6,3.018-2.745,2.529-.164,8.476,2.107,11.75,4.793,1.726,1.416.66,4.383-1.516,4.027-3.2-.524-4.578-4.533-9.157-5.99C1011.378,632.469,1009.2,633.846,1008.759,632.853Z" transform="translate(-995.342 -600.989)" fill="#ffb296"/>
        <g id="Grupo_1180013" data-name="Grupo 1180013" transform="translate(17.503 15.562)">
          <path id="Trazado_1003041" data-name="Trazado 1003041" d="M1064.436,531.625l.574-3.161a.728.728,0,0,0-.585-.845l-.036-.006-.027-.375a1.143,1.143,0,0,1,.13.016,1.1,1.1,0,0,1,.884,1.277l-.574,3.161Z" transform="translate(-1061.246 -527.238)" fill="#161b43"/>
          <g id="Grupo_1180011" data-name="Grupo 1180011" transform="translate(0 4.805)">
            <path id="Trazado_1003042" data-name="Trazado 1003042" d="M1043.1,564.068l-.121-.35a2.459,2.459,0,0,0-1.819,1.942l-.44,2.426a.515.515,0,0,0,.414.6l.379.069.066-.365-.378-.069a.143.143,0,0,1-.115-.166l.441-2.426A2.091,2.091,0,0,1,1043.1,564.068Z" transform="translate(-1040.712 -563.718)" fill="#161b43"/>
            <path id="Trazado_1003043" data-name="Trazado 1003043" d="M1071.111,571.364l.44-2.426a2.459,2.459,0,0,0-1.02-2.458l-.238.287a2.166,2.166,0,0,1,.882,2.165l-.43,2.366a.143.143,0,0,1-.166.115l-.379-.069-.066.365.379.069A.515.515,0,0,0,1071.111,571.364Z" transform="translate(-1066.259 -566.116)" fill="#161b43"/>
          </g>
          <g id="Grupo_1180012" data-name="Grupo 1180012" transform="translate(0.781 4.196)">
            <path id="Trazado_1003044" data-name="Trazado 1003044" d="M1059.947,559.991a2.477,2.477,0,0,0-.647-.305.061.061,0,0,1-.043-.07l.08-.44-.457-.083-.08.44a.061.061,0,0,1-.065.05,2.482,2.482,0,0,0-.713.058.059.059,0,0,0-.043.076l.108.33a.056.056,0,0,0,.066.037,2.024,2.024,0,0,1,.788-.012c.063.011.126.026.189.043a1.949,1.949,0,0,1,.536.244.057.057,0,0,0,.076-.011l.218-.272A.06.06,0,0,0,1059.947,559.991Z" transform="translate(-1056.483 -559.093)" fill="#42498d"/>
            <path id="Trazado_1003045" data-name="Trazado 1003045" d="M1047.076,599.4c-.1.057-.436-.171-.436-.171l.066-.363s.392-.1.468-.007A.514.514,0,0,1,1047.076,599.4Z" transform="translate(-1046.64 -593.586)" fill="#42498d"/>
            <path id="Trazado_1003046" data-name="Trazado 1003046" d="M1066.534,602.089c.1-.057.436.171.436.171l-.066.363s-.392.1-.468.007A.514.514,0,0,1,1066.534,602.089Z" transform="translate(-1063.793 -596.417)" fill="#42498d"/>
          </g>
        </g>
        <g id="Grupo_1180014" data-name="Grupo 1180014" transform="translate(12.301 15.404)">
          <path id="Trazado_1003047" data-name="Trazado 1003047" d="M1013.337,526.5a1,1,0,0,0-1.235.615l-.656,2.008-.392-.128.656-2.008a1.34,1.34,0,0,1,1.627-.9Z" transform="translate(-1009.758 -526.038)" fill="#161b43"/>
          <path id="Trazado_1003048" data-name="Trazado 1003048" d="M1002.6,546.823a1.238,1.238,0,1,0,.932,1.836A1.233,1.233,0,0,0,1002.6,546.823Z" transform="translate(-1001.213 -544.077)" fill="#161b43"/>
        </g>
        <g id="Grupo_1180015" data-name="Grupo 1180015" transform="translate(24.665 24.546)">
          <path id="Trazado_1003049" data-name="Trazado 1003049" d="M1095.085,595.522a41.708,41.708,0,0,1,.4,7.177c0,.077.117.077.119,0a41.892,41.892,0,0,0-.407-7.209c-.011-.076-.125-.043-.115.032Z" transform="translate(-1095.085 -595.447)" fill="#5daad3"/>
        </g>
        <g id="Grupo_1180016" data-name="Grupo 1180016" transform="translate(28.357 32.838)">
          <path id="Trazado_1003050" data-name="Trazado 1003050" d="M1123.137,658.5a8.927,8.927,0,0,1,.959.9,1.172,1.172,0,0,1,.418,1.1c-.008.222-.005.445-.011.667a2.443,2.443,0,0,1-.345,1.359c-.043.063.06.123.1.06a2.422,2.422,0,0,0,.358-1.3c.01-.251.006-.5.014-.753a1.993,1.993,0,0,0,0-.442,1.593,1.593,0,0,0-.38-.69,8.1,8.1,0,0,0-1.028-.977c-.059-.049-.143.035-.084.084Z" transform="translate(-1123.117 -658.401)" fill="#5daad3"/>
        </g>
        <g id="Grupo_1180017" data-name="Grupo 1180017" transform="translate(23.027 25.455)">
          <path id="Trazado_1003051" data-name="Trazado 1003051" d="M1082.673,602.461a4.841,4.841,0,0,1,1.314,1.742,6.114,6.114,0,0,1,.71,2.233c.007.076.126.076.119,0a6.268,6.268,0,0,0-.726-2.293,4.956,4.956,0,0,0-1.357-1.785c-.062-.046-.121.058-.06.1Z" transform="translate(-1082.647 -602.347)" fill="#5daad3"/>
        </g>
        <path id="Trazado_1003052" data-name="Trazado 1003052" d="M1062.787,672.853a.313.313,0,1,1-.313-.314A.313.313,0,0,1,1062.787,672.853Z" transform="translate(-1041.832 -637.838)" fill="#58afdc"/>
        <path id="Trazado_1003053" data-name="Trazado 1003053" d="M1067.657,706.477a.314.314,0,1,1-.313-.313A.314.314,0,0,1,1067.657,706.477Z" transform="translate(-1046.06 -667.034)" fill="#58afdc"/>
        <path id="Trazado_1003054" data-name="Trazado 1003054" d="M1070.037,741.177a.313.313,0,1,1-.313-.313A.313.313,0,0,1,1070.037,741.177Z" transform="translate(-1048.127 -697.164)" fill="#58afdc"/>
        <path id="Trazado_1003055" data-name="Trazado 1003055" d="M1059.007,621.037a.313.313,0,1,1,.428-.115A.314.314,0,0,1,1059.007,621.037Z" transform="translate(-1038.958 -592.612)" fill="#58afdc"/>
        <path id="Trazado_1003056" data-name="Trazado 1003056" d="M996.842,464.52c0,.036,0,.069,0,.088a.234.234,0,0,0,.069.19.2.2,0,0,1,.026.033.28.28,0,0,1,.032.1c.132.815.162.926.5,1.106a2.012,2.012,0,0,0,.82.144,2.064,2.064,0,0,0,.939-.2c.451-.24.619-1.067.626-1.1,0-.011.015-.109.21-.109h.013c.206,0,.219.1.22.1.008.042.176.869.627,1.108a2.067,2.067,0,0,0,.939.2,2.01,2.01,0,0,0,.821-.144c.335-.18.365-.291.5-1.106a.278.278,0,0,1,.032-.1.209.209,0,0,1,.026-.033.234.234,0,0,0,.068-.176l2.159-.487a.093.093,0,0,0,.069-.11l-.007-.033a.09.09,0,0,0-.108-.071l-2.11.476c0-.011,0-.021,0-.029a.269.269,0,0,0-.227-.244,5.887,5.887,0,0,0-1.6-.081l-.031,0a2.089,2.089,0,0,0-.786.146c-.054.025-.11.053-.16.079a1.442,1.442,0,0,1-.283.111l-.08.017a.443.443,0,0,1-.14,0l-.08-.017a1.437,1.437,0,0,1-.283-.111c-.049-.026-.105-.054-.16-.079a2.089,2.089,0,0,0-.787-.146l-.031,0a5.892,5.892,0,0,0-1.6.082.268.268,0,0,0-.225.244C996.839,464.4,996.841,464.465,996.842,464.52Zm3.742.067c.025-.064.168-.254,1.049-.306.155-.009.286-.014.4-.014.52,0,.685.1.784.249a.924.924,0,0,1,.1.406.986.986,0,0,1-.413.917,1.6,1.6,0,0,1-.666.131,1.153,1.153,0,0,1-1.029-.446A1.227,1.227,0,0,1,1000.583,464.587Zm-3.351.335a.918.918,0,0,1,.1-.406c.1-.153.264-.249.784-.249.115,0,.246,0,.4.014.882.052,1.024.242,1.046.3a1.216,1.216,0,0,1-.223.944,1.152,1.152,0,0,1-1.029.446,1.6,1.6,0,0,1-.666-.131A.987.987,0,0,1,997.232,464.922Z" transform="translate(-985.116 -456.698)" fill="#42498d"/>
        <g id="Grupo_1180019" data-name="Grupo 1180019" transform="translate(0 20.209)">
          <path id="Trazado_1003057" data-name="Trazado 1003057" d="M924.618,587.232H912.884l-2.377-15.742h11.711Z" transform="translate(-910.154 -570.308)" fill="#ce4a49"/>
          <path id="Trazado_1003058" data-name="Trazado 1003058" d="M908.619,621.722c-.593.194-.881.924-.771,1.827.2,1.643,1.3,2.312,2.047,2.08.621-.193.92-1.322.715-2.179C910.368,622.432,909.339,621.487,908.619,621.722Z" transform="translate(-907.825 -613.892)" fill="#ffb296"/>
          <path id="Trazado_1003059" data-name="Trazado 1003059" d="M943.553,570.061h-3.682a.146.146,0,0,1-.143-.118l-.185-.953a.146.146,0,0,1,.143-.174h3.682a.146.146,0,0,1,.143.118l.185.953A.146.146,0,0,1,943.553,570.061Z" transform="translate(-935.363 -567.986)" fill="#161b43"/>
          <g id="Grupo_1180018" data-name="Grupo 1180018" transform="translate(5.351)">
            <path id="Trazado_1003060" data-name="Trazado 1003060" d="M948.452,563.347a.83.83,0,1,1,.83.83A.831.831,0,0,1,948.452,563.347Zm.292,0a.538.538,0,1,0,.538-.538A.539.539,0,0,0,948.744,563.347Z" transform="translate(-948.452 -562.517)" fill="#161b43"/>
          </g>
        </g>
      </g>
    </g>
  </g>
</svg>
