<svg xmlns="http://www.w3.org/2000/svg" width="128" height="128" viewBox="0 0 128 128">
  <g id="Grupo_1177482" data-name="Grupo 1177482" transform="translate(-383.746 -8399.517)">
    <path id="Trazado_997401" data-name="Trazado 997401" d="M64,0A64,64,0,1,1,0,64,64,64,0,0,1,64,0Z" transform="translate(383.746 8399.517)" fill="#565097"/>
    <g id="Grupo_1178697" data-name="Grupo 1178697" transform="translate(412.746 8397.843)">
      <g id="Grupo_1178696" data-name="Grupo 1178696" transform="translate(0 36.674)">
        <path id="Trazado_999349" data-name="Trazado 999349" d="M18.292,36.674a18.294,18.294,0,0,0-4.631,35.991v7.419H12.65a4.631,4.631,0,1,0,0,9.262h1.011v2.418a4.631,4.631,0,1,0,9.262,0V89.346h1.011a4.631,4.631,0,1,0,0-9.262H22.923v-1.2a1.023,1.023,0,0,0-2.046,0v1.553a1.7,1.7,0,0,0,1.7,1.7h1.362a2.585,2.585,0,1,1,0,5.169H22.573a1.7,1.7,0,0,0-1.7,1.7v2.769a2.585,2.585,0,0,1-5.169,0V89a1.7,1.7,0,0,0-1.7-1.7H12.65a2.585,2.585,0,1,1,0-5.169h1.362a1.7,1.7,0,0,0,1.7-1.7V71.856a1.023,1.023,0,0,0-.81-1,16.241,16.241,0,1,1,6.79,0,1.023,1.023,0,0,0-.81,1V74.22a1.023,1.023,0,1,0,2.046,0V72.665a18.294,18.294,0,0,0-4.631-35.991Z" transform="translate(0 -36.674)" fill="#fff5c1"/>
        <path id="Trazado_999350" data-name="Trazado 999350" d="M73.033,98.234A11.473,11.473,0,1,0,61.56,109.707,11.486,11.486,0,0,0,73.033,98.234ZM61.56,107.66a9.426,9.426,0,1,1,9.426-9.426A9.437,9.437,0,0,1,61.56,107.66Z" transform="translate(-43.268 -79.942)" fill="#fff5c1"/>
        <path id="Trazado_999351" data-name="Trazado 999351" d="M293.378,268.176A11.473,11.473,0,1,0,304.851,256.7,11.486,11.486,0,0,0,293.378,268.176Zm11.473-9.426a9.426,9.426,0,1,1-9.426,9.426A9.437,9.437,0,0,1,304.851,258.749Z" transform="translate(-253.436 -226.747)" fill="#fff5c1"/>
        <path id="Trazado_999352" data-name="Trazado 999352" d="M275.738,72.307a18.37,18.37,0,0,0-9.526-6.115V58.363a4.634,4.634,0,0,0,3.694-7.89l-6.232-6.232a2.96,2.96,0,0,0-4.186,0l-1.55,1.55a1.023,1.023,0,0,0,1.447,1.447l1.55-1.55a.914.914,0,0,1,1.292,0l6.232,6.232a2.585,2.585,0,0,1-2.861,4.2,1.023,1.023,0,0,0-1.432.938V67a1.023,1.023,0,0,0,.811,1,16.241,16.241,0,1,1-6.791,0,1.023,1.023,0,0,0,.81-1V57.054a1.023,1.023,0,0,0-1.432-.938,2.585,2.585,0,0,1-2.861-4.2l1.373-1.374a1.023,1.023,0,0,0-1.447-1.447l-1.373,1.374a4.634,4.634,0,0,0,3.694,7.89v7.829a18.3,18.3,0,1,0,18.788,6.115Z" transform="translate(-210.166 -42.462)" fill="#fff5c1"/>
      </g>
    </g>
  </g>
</svg>
