<svg xmlns="http://www.w3.org/2000/svg" width="40" height="33.984" viewBox="0 0 40 33.984">
  <g id="Grupo_1179268" data-name="Grupo 1179268" transform="translate(0 -38.502)">
    <path id="Trazado_1000187" data-name="Trazado 1000187" d="M38.242,38.5H1.758A1.76,1.76,0,0,0,0,40.26V42.6H1.172V40.26a.587.587,0,0,1,.586-.586H38.242a.587.587,0,0,1,.586.586V63.7a.587.587,0,0,1-.586.586H1.758a.587.587,0,0,1-.586-.586V43.775H0V63.7a1.76,1.76,0,0,0,1.758,1.758H17.614a4.107,4.107,0,0,1-4.059,3.516h-2.93a1.76,1.76,0,0,0-1.758,1.758v1.758H24.1V71.314H10.039v-.586a.587.587,0,0,1,.586-.586h18.75a.587.587,0,0,1,.586.586v.586H27.617v1.172h3.516V70.728a1.76,1.76,0,0,0-1.758-1.758h-2.93a4.107,4.107,0,0,1-4.059-3.516H38.242A1.76,1.76,0,0,0,40,63.7V40.26A1.76,1.76,0,0,0,38.242,38.5ZM23.136,68.97H16.864a5.27,5.27,0,0,0,1.931-3.516h2.411a5.27,5.27,0,0,0,1.931,3.516Z" fill="#3e5d56"/>
    <path id="Trazado_1000188" data-name="Trazado 1000188" d="M30,68.5V90.767H65.313V68.5ZM64.141,89.595H31.172V69.673H64.141Z" transform="translate(-27.656 -27.655)" fill="#3e5d56"/>
    <path id="Trazado_1000189" data-name="Trazado 1000189" d="M323.5,458.5h1.172v1.172H323.5Z" transform="translate(-298.229 -387.186)" fill="#3e5d56"/>
    <path id="Trazado_1000190" data-name="Trazado 1000190" d="M95.344,127.147l.181.059.181-.059a8.315,8.315,0,0,0,3.436-2.176,5.41,5.41,0,0,0,1.609-3.69,3.156,3.156,0,0,0-1.9-3.043,3.233,3.233,0,0,0-3.327.8,3.233,3.233,0,0,0-3.327-.8,3.157,3.157,0,0,0-1.9,3.043,5.41,5.41,0,0,0,1.609,3.69A8.317,8.317,0,0,0,95.344,127.147Zm.181-1.176a6.864,6.864,0,0,1-3.5-2.768h1.184l.652-.412,1.173,1.136,1.145-.724h2.836A6.864,6.864,0,0,1,95.525,125.971Zm-2.907-6.639a1.585,1.585,0,0,1,.572-.106,2.675,2.675,0,0,1,1.9,1.03l.435.483.435-.483a2.292,2.292,0,0,1,2.472-.924,1.976,1.976,0,0,1,1.148,1.949,3.4,3.4,0,0,1-.085.749h-3.65l-.652.412-1.173-1.137-1.145.724H91.556a3.4,3.4,0,0,1-.085-.749A1.977,1.977,0,0,1,92.619,119.332Z" transform="translate(-83.244 -73.338)" fill="#3e5d56"/>
    <path id="Trazado_1000191" data-name="Trazado 1000191" d="M257.306,206.433h12.3V207.6h-12.3Z" transform="translate(-237.204 -154.811)" fill="#3e5d56"/>
    <path id="Trazado_1000192" data-name="Trazado 1000192" d="M257.306,131.434h12.3v1.172h-12.3Z" transform="translate(-237.204 -85.672)" fill="#3e5d56"/>
    <path id="Trazado_1000193" data-name="Trazado 1000193" d="M257.306,168.934h12.3v1.172h-12.3Z" transform="translate(-237.204 -120.242)" fill="#3e5d56"/>
    <path id="Trazado_1000194" data-name="Trazado 1000194" d="M97.2,288.932h9.375V290.1H97.2Z" transform="translate(-89.604 -230.865)" fill="#3e5d56"/>
    <path id="Trazado_1000195" data-name="Trazado 1000195" d="M97.2,251.433h9.375V252.6H97.2Z" transform="translate(-89.604 -196.296)" fill="#3e5d56"/>
    <path id="Trazado_1000196" data-name="Trazado 1000196" d="M269.61,253.191h-1.172v1.172h-1.611v-2.93h-1.172v2.93h-1.611V252.6h-1.172v1.758H261.26v-1.172h-1.172v1.172h-1.611v-2.93H257.3v4.1h12.3Z" transform="translate(-237.203 -196.296)" fill="#3e5d56"/>
    <path id="Trazado_1000197" data-name="Trazado 1000197" d="M437,128.5h1.172v1.172H437Z" transform="translate(-402.861 -82.968)" fill="#3e5d56"/>
    <path id="Trazado_1000198" data-name="Trazado 1000198" d="M437,98.5h1.172v1.172H437Z" transform="translate(-402.861 -55.312)" fill="#3e5d56"/>
  </g>
</svg>
