<svg xmlns="http://www.w3.org/2000/svg" width="128" height="128" viewBox="0 0 128 128">
  <g id="Grupo_1177483" data-name="Grupo 1177483" transform="translate(-383.746 -8400)">
    <circle id="Elipse_13609" data-name="Elipse 13609" cx="64" cy="64" r="64" transform="translate(383.746 8400)" fill="#565097"/>
    <g id="Grupo_1178704" data-name="Grupo 1178704" transform="translate(413.206 8364.916)">
      <g id="Grupo_1178699" data-name="Grupo 1178699" transform="translate(59.018 102.055)">
        <g id="Grupo_1178698" data-name="Grupo 1178698">
          <path id="Trazado_999353" data-name="Trazado 999353" d="M439.847,278.545A1.355,1.355,0,0,0,437.7,280.2a10.16,10.16,0,0,1,2.129,6.257,1.354,1.354,0,1,0,2.709,0A12.847,12.847,0,0,0,439.847,278.545Z" transform="translate(-437.419 -278.017)" fill="#fff5c1"/>
        </g>
      </g>
      <g id="Grupo_1178701" data-name="Grupo 1178701" transform="translate(0 74.611)">
        <g id="Grupo_1178700" data-name="Grupo 1178700">
          <path id="Trazado_999354" data-name="Trazado 999354" d="M56.894,93.495a10.323,10.323,0,1,0-11.525,0,17.846,17.846,0,0,0-5.541,3.063,7.617,7.617,0,0,0-10.575,0,17.857,17.857,0,0,0-5.542-3.063,10.322,10.322,0,1,0-11.525,0A17.979,17.979,0,0,0,0,110.459c0,.012,0,.023,0,.035,0,2.08,1.182,5.149,6.811,7.961a51.884,51.884,0,0,0,15.942,4.355,93.2,93.2,0,0,0,23.575,0,51.879,51.879,0,0,0,15.941-4.355c5.629-2.812,6.811-5.881,6.811-7.961A17.979,17.979,0,0,0,56.894,93.495ZM43.52,84.934a7.614,7.614,0,1,1,7.614,7.612A7.622,7.622,0,0,1,43.52,84.934ZM30.5,99.246a4.919,4.919,0,0,1,8.084,0h0a4.92,4.92,0,1,1-8.085,0ZM10.335,84.934a7.613,7.613,0,1,1,7.612,7.612A7.622,7.622,0,0,1,10.335,84.934Zm11.242,34.972a47,47,0,0,1-13.555-3.875c-3.416-1.706-5.3-3.666-5.312-5.521,0-.005,0-.011,0-.016A15.238,15.238,0,0,1,27.661,98.752a7.626,7.626,0,0,0,2.012,9.169A12.984,12.984,0,0,0,21.577,119.907Zm23.22.363a90.9,90.9,0,0,1-20.512,0v-.333a10.256,10.256,0,0,1,20.512,0Zm16.262-4.238a46.985,46.985,0,0,1-13.553,3.875,12.984,12.984,0,0,0-8.1-11.985,7.624,7.624,0,0,0,2.012-9.169,15.238,15.238,0,0,1,24.951,11.742C66.372,112.354,64.485,114.32,61.059,116.031Z" transform="translate(0 -74.611)" fill="#fff5c1"/>
        </g>
      </g>
      <g id="Grupo_1178703" data-name="Grupo 1178703" transform="translate(56.078 99.401)">
        <g id="Grupo_1178702" data-name="Grupo 1178702">
          <path id="Trazado_999355" data-name="Trazado 999355" d="M416.939,258.344a1.355,1.355,0,0,0,0,2.709A1.355,1.355,0,0,0,416.939,258.344Z" transform="translate(-415.63 -258.344)" fill="#fff5c1"/>
        </g>
      </g>
    </g>
  </g>
</svg>
