<svg xmlns="http://www.w3.org/2000/svg" width="40" height="41.153" viewBox="0 0 40 41.153">
  <g id="Grupo_1179269" data-name="Grupo 1179269" transform="translate(-7.173)">
    <path id="Trazado_1000199" data-name="Trazado 1000199" d="M44.762,183.44v-3.69c0-2.234-1.955-3.218-3.659-3.827l-3.443-1.229-.06-.6c-.047-.466.083-.674.771-1.234a6.634,6.634,0,0,0,2.326-3.466h.634a1.716,1.716,0,0,0,1.67-1.6l.127-.981a2.021,2.021,0,0,0-.405-1.621,1.521,1.521,0,0,0-1.163-.509h-.737v-.667a5.065,5.065,0,0,0-1.788-3.943,6.862,6.862,0,0,0-8.346,0,5.065,5.065,0,0,0-1.788,3.943v.667h-.737A1.52,1.52,0,0,0,27,165.19a2.021,2.021,0,0,0-.406,1.621l.127.981a1.716,1.716,0,0,0,1.67,1.6h.634a6.634,6.634,0,0,0,2.326,3.466c.688.561.817.768.771,1.234l-.06.6-3.443,1.229a7.648,7.648,0,0,0-2.55,1.377A7.318,7.318,0,0,0,24,176.24l-3.014-1.076-.118-1.178a4.425,4.425,0,0,0,1.771-2.34h.956a1.592,1.592,0,0,0,1.551-1.5l.109-1.206a1.414,1.414,0,0,0-.377-1.09,1.593,1.593,0,0,0-1.081-.513v-.828a5.362,5.362,0,0,0-5.356-5.356,5.3,5.3,0,0,0-3.255,1.109l.735.956a4.1,4.1,0,0,1,2.52-.859,4.155,4.155,0,0,1,4.151,4.151v.823H18.25a.6.6,0,0,1-.6-.6H16.442a.6.6,0,0,1-.6.6H14.285v-.823a4.1,4.1,0,0,1,.861-2.523l-.955-.736a5.3,5.3,0,0,0-1.112,3.258v.828A1.593,1.593,0,0,0,12,167.85a1.414,1.414,0,0,0-.377,1.09l.109,1.206a1.592,1.592,0,0,0,1.551,1.5h.956a4.424,4.424,0,0,0,1.771,2.34l-.118,1.178-3.014,1.076c-.9.321-3.291,1.175-3.291,3.459v3.741H7.173v3.617H36.021v-1.206H30.083v-4.293H28.878v4.293H26.165v-6.1c0-1.171.855-1.976,2.859-2.691l3.5-1.249a4.653,4.653,0,0,0,2.338.453,4.654,4.654,0,0,0,2.338-.453l3.5,1.249c2,.715,2.859,1.52,2.859,2.691v6.1H40.843v-4.293H39.638v4.293H37.226v1.206h9.946V183.44Zm-19.442-5.2a3.164,3.164,0,0,0-.36,1.506v3.691H21.023v-6.981l2.568.917A6.336,6.336,0,0,1,25.319,178.243Zm-8.265,5.2v-6.472l1.382,1.259,1.382-1.259v6.472Zm7-14.608-.109,1.206a.4.4,0,0,1-.35.4h-.752c0-.042,0-.085,0-.127v-1.774H23.7a.4.4,0,0,1,.284.125A.218.218,0,0,1,24.05,168.832ZM13.281,170.44a.4.4,0,0,1-.35-.4l-.109-1.206a.218.218,0,0,1,.066-.168.4.4,0,0,1,.284-.125h.858v1.774c0,.043,0,.085,0,.127Zm1.955-.127v-1.774h.6a1.8,1.8,0,0,0,1.206-.462,1.8,1.8,0,0,0,1.206.462h3.386v1.774a3.2,3.2,0,1,1-6.4,0Zm3.2,4.406a4.391,4.391,0,0,0,1.271-.188l.083.832L18.436,176.6l-1.354-1.234.083-.831a4.389,4.389,0,0,0,1.271.188ZM10.79,179.7c0-1.005.745-1.7,2.491-2.324l2.568-.917v6.981H10.79Zm-2.411,6.152v-1.206H24.96v1.206Zm33.18-19.964a.31.31,0,0,1,.257.1.9.9,0,0,1,.115.671l-.127.981c-.026.2-.156.546-.474.546h-.508v-2.3h.737Zm-13.641,1.75-.127-.981a.9.9,0,0,1,.116-.671.31.31,0,0,1,.257-.1H28.9v2.3h-.508C28.073,168.183,27.944,167.84,27.917,167.637Zm2.188.728v-4.351c0-2.445,1.955-4.153,4.755-4.153s4.755,1.708,4.755,4.153v4.351a4.994,4.994,0,0,1-1.935,3.5,6.421,6.421,0,0,1-2.82.451,6.42,6.42,0,0,1-2.82-.451,4.994,4.994,0,0,1-1.935-3.5Zm3.154,6.471.063-.625a2.241,2.241,0,0,0-.047-.773,15.641,15.641,0,0,0,3.172,0,2.243,2.243,0,0,0-.047.773l.063.625a4.166,4.166,0,0,1-1.6.221A4.165,4.165,0,0,1,33.259,174.835Zm12.708,11.016H44.762v-1.206h1.206Z" transform="translate(0 -145.904)" fill="#3e5d56"/>
    <path id="Trazado_1000200" data-name="Trazado 1000200" d="M377.455,207.515h1.206v1.206h-1.206Z" transform="translate(-340.52 -190.836)" fill="#3e5d56"/>
    <path id="Trazado_1000201" data-name="Trazado 1000201" d="M347.456,192.515h1.206v1.206h-1.206Z" transform="translate(-312.932 -177.041)" fill="#3e5d56"/>
    <path id="Trazado_1000202" data-name="Trazado 1000202" d="M127.164,14.49a7.2,7.2,0,0,0,3.962-1.179h2.1v-2.1a7.245,7.245,0,1,0-6.066,3.283Zm0-13.284a6.039,6.039,0,0,1,4.967,9.474l-.107.155V12.1h-1.271l-.155.107a6.039,6.039,0,1,1-3.434-11.007Z" transform="translate(-103.684)" fill="#3e5d56"/>
    <path id="Trazado_1000203" data-name="Trazado 1000203" d="M170.313,55.52h3.617V54.013h1.507V50.4H173.93V48.889h-3.617V50.4h-1.507v3.617h1.507Zm-.3-2.713V51.6h1.507V50.095h1.206V51.6h1.507v1.206h-1.507v1.507h-1.206V52.807Z" transform="translate(-148.641 -44.959)" fill="#3e5d56"/>
  </g>
</svg>
