<svg xmlns="http://www.w3.org/2000/svg" width="130" height="130" viewBox="0 0 130 130">
  <g id="Grupo_1177869" data-name="Grupo 1177869" transform="translate(-383.746 -8400)">
    <circle id="Elipse_13609" data-name="Elipse 13609" cx="65" cy="65" r="65" transform="translate(383.746 8400)" fill="#fff5c1"/>
    <g id="Grupo_1178331" data-name="Grupo 1178331" transform="translate(413.746 8414.466)">
      <g id="Grupo_1178329" data-name="Grupo 1178329" transform="translate(55 42.795)">
        <path id="Trazado_998706" data-name="Trazado 998706" d="M401.5,229h2.055v2.055H401.5Z" transform="translate(-401.5 -224.89)" fill="#773b3d"/>
        <path id="Trazado_998707" data-name="Trazado 998707" d="M401.5,199h2.055v2.055H401.5Z" transform="translate(-401.5 -199)" fill="#773b3d"/>
      </g>
      <g id="Grupo_1178330" data-name="Grupo 1178330" transform="translate(0 18)">
        <path id="Trazado_998708" data-name="Trazado 998708" d="M59.658,18v2.055h8.288v7.26H2.055v-7.26H57.6V18H0V77.932a5.143,5.143,0,0,0,5.137,5.137h7.945V81.014H5.137a3.086,3.086,0,0,1-3.082-3.082V29.37h65.89V77.932a3.086,3.086,0,0,1-3.082,3.082H15.137v2.055H64.863A5.143,5.143,0,0,0,70,77.932V18Z" transform="translate(0 -18)" fill="#773b3d"/>
        <path id="Trazado_998709" data-name="Trazado 998709" d="M73.5,52h2.055v2.055H73.5Z" transform="translate(-63.432 -47.342)" fill="#773b3d"/>
        <path id="Trazado_998710" data-name="Trazado 998710" d="M43.5,52h2.055v2.055H43.5Z" transform="translate(-37.541 -47.342)" fill="#773b3d"/>
        <path id="Trazado_998711" data-name="Trazado 998711" d="M103.5,52h2.055v2.055H103.5Z" transform="translate(-89.322 -47.342)" fill="#773b3d"/>
        <path id="Trazado_998712" data-name="Trazado 998712" d="M46.767,302.925A3.771,3.771,0,0,0,43,306.692v2.4H61.493v-2.4a3.771,3.771,0,0,0-3.767-3.767H56.151v-2.161a6.506,6.506,0,0,0-1.164-12.907H50.808v-1.37H48.753V284.5H46.7v1.986H44.644v8.082H46.7v1.986h2.055v-1.986h2.055v-4.658h4.178a4.452,4.452,0,0,1,.613,8.861,3.079,3.079,0,0,0-5.093.043h-6.48v2.055h5.959v2.055Zm1.986-10.411H46.7v-3.973h2.055Zm8.973,12.466a1.714,1.714,0,0,1,1.712,1.712v.342H45.055v-.342a1.714,1.714,0,0,1,1.712-1.712Zm-5.685-4.452a1.027,1.027,0,1,1,2.055,0v2.4H52.041Z" transform="translate(-37.11 -247.993)" fill="#773b3d"/>
        <path id="Trazado_998713" data-name="Trazado 998713" d="M250.589,259v9.589h-2.055V259H241v19.932a3.767,3.767,0,0,0,7.534,0v-8.288h2.055v8.288a3.767,3.767,0,0,0,7.534,0v-8.288h2.055v8.288a3.767,3.767,0,0,0,7.534,0V259h-7.534v9.589h-2.055V259Zm-4.11,2.055v4.794h-3.425v-4.794Zm-1.712,19.589a1.714,1.714,0,0,1-1.712-1.712V267.9h3.425v11.027A1.714,1.714,0,0,1,244.767,280.644Zm19.178,0a1.714,1.714,0,0,1-1.712-1.712v-12.4h3.425v12.4A1.714,1.714,0,0,1,263.945,280.644Zm1.712-19.589v3.425h-3.425v-3.425Zm-9.589,0v10.274h-3.425V261.055Zm-1.712,19.589a1.714,1.714,0,0,1-1.712-1.712v-5.548h3.425v5.548A1.714,1.714,0,0,1,254.356,280.644Z" transform="translate(-207.986 -225.986)" fill="#773b3d"/>
        <path id="Trazado_998714" data-name="Trazado 998714" d="M202.11,122v4.11H198v7.534h4.11v4.11h7.534v-4.11h4.11V126.11h-4.11V122Zm9.589,6.164v3.425h-4.11v4.11h-3.425v-4.11h-4.11v-3.425h4.11v-4.11h3.425v4.11Z" transform="translate(-170.877 -107.753)" fill="#773b3d"/>
        <path id="Trazado_998715" data-name="Trazado 998715" d="M205,296.5v19.863a3.086,3.086,0,0,0,3.082,3.082h29.863a3.086,3.086,0,0,0,3.082-3.082V296.5h-2.055v19.863a1.028,1.028,0,0,1-1.027,1.027H208.082a1.028,1.028,0,0,1-1.027-1.027V296.5Z" transform="translate(-176.918 -258.349)" fill="#773b3d"/>
      </g>
    </g>
  </g>
</svg>
