<svg xmlns="http://www.w3.org/2000/svg" width="35.726" height="40" viewBox="0 0 35.726 40">
  <g id="Grupo_1179288" data-name="Grupo 1179288" transform="translate(-27.352)">
    <g id="Grupo_1179287" data-name="Grupo 1179287" transform="translate(27.352)">
      <g id="Grupo_1179271" data-name="Grupo 1179271" transform="translate(26.742 6.403)">
        <g id="Grupo_1179270" data-name="Grupo 1179270">
          <path id="Trazado_1000204" data-name="Trazado 1000204" d="M370.436,88.861a.781.781,0,0,1-.781-.781V82.737a.781.781,0,1,1,1.563,0v5.342A.781.781,0,0,1,370.436,88.861Z" transform="translate(-369.655 -81.956)" fill="#3e5d56"/>
        </g>
      </g>
      <g id="Grupo_1179273" data-name="Grupo 1179273" transform="translate(26.739 3.889)">
        <g id="Grupo_1179272" data-name="Grupo 1179272">
          <circle id="Elipse_13725" data-name="Elipse 13725" cx="0.781" cy="0.781" r="0.781" fill="#3e5d56"/>
        </g>
      </g>
      <g id="Grupo_1179276" data-name="Grupo 1179276" transform="translate(0)">
        <path id="Trazado_1000205" data-name="Trazado 1000205" d="M63.078,8.208a8.2,8.2,0,0,0-13.19-6.516H30.2a2.846,2.846,0,0,0-2.843,2.843v28.42A2.847,2.847,0,0,0,30.2,35.8h2.479v1.359A2.847,2.847,0,0,0,35.517,40H55.944a2.846,2.846,0,0,0,2.843-2.843V26.321a.781.781,0,0,0-1.563,0V37.157a1.282,1.282,0,0,1-1.281,1.281H35.517a1.282,1.282,0,0,1-1.281-1.281V35.8H50.622a2.847,2.847,0,0,0,2.843-2.843V16.294a8.236,8.236,0,0,0,3.76-.223v3.186a.781.781,0,1,0,1.562,0V15.419a8.215,8.215,0,0,0,4.291-7.212ZM51.9,32.954a1.282,1.282,0,0,1-1.281,1.281H30.2a1.282,1.282,0,0,1-1.281-1.281V4.534A1.282,1.282,0,0,1,30.2,3.254H48.334a8.165,8.165,0,0,0-1.66,4.607H33.37a.781.781,0,0,0-.781.781v3.3a.781.781,0,0,0,.781.781H47.448a.778.778,0,0,0,.473-.159,8.254,8.254,0,0,0,3.983,3.3ZM46.666,9.423V11.16H34.151V9.423Zm8.206,5.429a6.645,6.645,0,1,1,6.644-6.645A6.652,6.652,0,0,1,54.872,14.853Z" transform="translate(-27.352)" fill="#3e5d56"/>
        <g id="Grupo_1179275" data-name="Grupo 1179275" transform="translate(29.874 21.995)">
          <g id="Grupo_1179274" data-name="Grupo 1179274">
            <path id="Trazado_1000206" data-name="Trazado 1000206" d="M410.521,283.1a.781.781,0,1,1,.761-.6A.789.789,0,0,1,410.521,283.1Z" transform="translate(-409.742 -281.541)" fill="#3e5d56"/>
          </g>
        </g>
      </g>
      <g id="Grupo_1179286" data-name="Grupo 1179286" transform="translate(5.236 15.44)">
        <g id="Grupo_1179285" data-name="Grupo 1179285">
          <g id="Grupo_1179278" data-name="Grupo 1179278">
            <g id="Grupo_1179277" data-name="Grupo 1179277">
              <path id="Trazado_1000207" data-name="Trazado 1000207" d="M109.236,199.2H95.158a.781.781,0,0,1,0-1.563h14.078a.781.781,0,0,1,0,1.563Z" transform="translate(-94.377 -197.633)" fill="#3e5d56"/>
            </g>
          </g>
          <g id="Grupo_1179280" data-name="Grupo 1179280" transform="translate(0 3.705)">
            <g id="Grupo_1179279" data-name="Grupo 1179279">
              <path id="Trazado_1000208" data-name="Trazado 1000208" d="M109.236,246.625H95.158a.781.781,0,0,1,0-1.562h14.078a.781.781,0,1,1,0,1.563Z" transform="translate(-94.377 -245.063)" fill="#3e5d56"/>
            </g>
          </g>
          <g id="Grupo_1179282" data-name="Grupo 1179282" transform="translate(0 7.411)">
            <g id="Grupo_1179281" data-name="Grupo 1179281">
              <path id="Trazado_1000209" data-name="Trazado 1000209" d="M109.236,294.056H95.158a.781.781,0,0,1,0-1.562h14.078a.781.781,0,1,1,0,1.563Z" transform="translate(-94.377 -292.493)" fill="#3e5d56"/>
            </g>
          </g>
          <g id="Grupo_1179284" data-name="Grupo 1179284" transform="translate(0 11.116)">
            <g id="Grupo_1179283" data-name="Grupo 1179283">
              <path id="Trazado_1000210" data-name="Trazado 1000210" d="M109.236,341.486H95.158a.781.781,0,0,1,0-1.562h14.078a.781.781,0,1,1,0,1.563Z" transform="translate(-94.377 -339.923)" fill="#3e5d56"/>
            </g>
          </g>
        </g>
      </g>
    </g>
  </g>
</svg>
