<svg xmlns="http://www.w3.org/2000/svg" width="128" height="128" viewBox="0 0 128 128">
  <g id="Grupo_1177484" data-name="Grupo 1177484" transform="translate(-381.746 -8401.517)">
    <path id="Trazado_997402" data-name="Trazado 997402" d="M64,0A64,64,0,1,1,0,64,64,64,0,0,1,64,0Z" transform="translate(381.746 8401.517)" fill="#565097"/>
    <g id="Grupo_1178705" data-name="Grupo 1178705" transform="translate(403.746 8368.726)">
      <path id="Trazado_999357" data-name="Trazado 999357" d="M401.905,232.571a1.23,1.23,0,0,0,1.23-1.23v-1.286a1.231,1.231,0,0,0-.153-2.452h-1.078a1.23,1.23,0,0,0-1.23,1.23v2.507A1.23,1.23,0,0,0,401.905,232.571Z" transform="translate(-334.939 -135.265)" fill="#fff5c1"/>
      <path id="Trazado_999358" data-name="Trazado 999358" d="M316.536,230.056v1.286a1.23,1.23,0,0,0,2.461,0v-2.507a1.23,1.23,0,0,0-1.23-1.23h-1.078a1.231,1.231,0,0,0-.153,2.452Z" transform="translate(-263.703 -135.266)" fill="#fff5c1"/>
      <path id="Trazado_999359" data-name="Trazado 999359" d="M78.905,96.3a5.7,5.7,0,0,0-.887-6.214,1.223,1.223,0,0,0,.225-.708c0-3.634.181-5.79-.912-8.916a1.231,1.231,0,0,0-2.323.812c.894,2.555.774,4.327.774,6.873H68.2a6.464,6.464,0,0,1-6.457-6.457,1.23,1.23,0,0,0-2.461,0,6.464,6.464,0,0,1-6.457,6.457h-7.58V85.851A13.884,13.884,0,0,1,59.115,71.983a.169.169,0,0,1,.169.169,1.23,1.23,0,0,0,2.461,0,.169.169,0,0,1,.169-.169,13.873,13.873,0,0,1,10.457,4.759,1.23,1.23,0,1,0,1.855-1.617,16.333,16.333,0,0,0-12.312-5.6,2.614,2.614,0,0,0-1.4.4,2.614,2.614,0,0,0-1.4-.4A16.348,16.348,0,0,0,42.786,85.852v3.523a1.225,1.225,0,0,0,.225.708,5.725,5.725,0,0,0-.995,1.587,6.221,6.221,0,0,0-2.43-4.451V82.531A16.757,16.757,0,0,0,22.848,65.793,32.587,32.587,0,0,0,18.305,66,13.977,13.977,0,0,0,7.652,72.322L3.946,71.138a1.231,1.231,0,0,0-1.6,1.113c-.018.371-.389,8.611,1.114,14.35A6.246,6.246,0,0,0,5.433,98.382a15.98,15.98,0,0,0,7.37,10.093H10.214A7.724,7.724,0,0,0,2.5,116.19v10.783a1.23,1.23,0,0,0,1.23,1.23H5.773a1.23,1.23,0,1,0,0-2.461H4.959V116.19a5.26,5.26,0,0,1,5.254-5.254h3.58a7.352,7.352,0,0,0,14.5,0h3.58a5.26,5.26,0,0,1,5.255,5.254v9.552H11.515a1.23,1.23,0,1,0,0,2.461H38.356a1.23,1.23,0,0,0,1.23-1.23V116.19a7.672,7.672,0,0,0-.567-2.9H41a9.147,9.147,0,0,0,3.5-.693,7.47,7.47,0,0,0-1.2,4.07v10.3a1.23,1.23,0,0,0,1.23,1.23H76.589a1.23,1.23,0,0,0,1.23-1.23v-10.3a7.471,7.471,0,0,0-1.174-4.026,9.147,9.147,0,0,0,3.387.649H82.77a1.23,1.23,0,0,0,1.23-1.23v-7.536A9.26,9.26,0,0,0,78.905,96.3ZM52.827,90.6a8.922,8.922,0,0,0,7.687-4.4A8.922,8.922,0,0,0,68.2,90.6h5.53a3.257,3.257,0,1,1-.131,6.512,1.227,1.227,0,0,0-1.266,1.026,12,12,0,0,1-22.226,3.983,1.232,1.232,0,0,0-.07-.148,11.91,11.91,0,0,1-1.135-2.833c-.005-.02-.009-.04-.014-.059-.07-.278-.136-.572-.2-.942a1.23,1.23,0,0,0-1.266-1.026A3.257,3.257,0,1,1,47.3,90.6c.045,0,.089,0,.134,0a1.221,1.221,0,0,0,.155,0h5.241Zm7.707,25.169a4.251,4.251,0,0,1-4.246-4.246v-1.559a14.5,14.5,0,0,0,8.492-.012v1.572a4.251,4.251,0,0,1-4.028,4.241Q60.645,115.774,60.535,115.774Zm-9.726-6.622h0a7.485,7.485,0,0,0-2.411.4,9.159,9.159,0,0,0,1.591-3.511,14.284,14.284,0,0,0,3.841,2.916v.2Zm16.433-.216a14.329,14.329,0,0,0,3.8-2.9,9.157,9.157,0,0,0,1.565,3.474c-1.4-.454-2.138-.363-5.365-.363v-.216ZM4.76,73.982l3.069.981a1.231,1.231,0,0,0,1.451-.577A11.526,11.526,0,0,1,18.5,68.455a30.912,30.912,0,0,1,4.351-.2A14.293,14.293,0,0,1,37.126,82.531v3.554c-1.075-.231-.735-.139-17.611-.139a8.236,8.236,0,0,1-8.074-6.64,1.232,1.232,0,0,0-2.106-.6,16.02,16.02,0,0,0-3.69,6.478,54.419,54.419,0,0,1-.884-11.2ZM7.665,97a1.231,1.231,0,0,0-1.213-1.028H6.4c-.051,0-.1,0-.155,0a3.785,3.785,0,0,1-.137-7.568h.015c.092,0,.183,0,.274,0h.017A1.229,1.229,0,0,0,7.665,87.38a13.418,13.418,0,0,1,1.716-4.673q.183-.307.383-.6a10.715,10.715,0,0,0,9.751,6.3H35.97a3.826,3.826,0,0,1,1.756.527l.029.015a3.787,3.787,0,0,1-1.963,7.024c-.052,0-.1,0-.155,0A1.233,1.233,0,0,0,34.375,97a13.544,13.544,0,0,1-26.71,0Zm13.131,17.6a4.9,4.9,0,0,1-4.617-4.382c0-.018,0-.036,0-.054q-.007-.08-.012-.16a16.105,16.105,0,0,0,9.764-.015A4.9,4.9,0,0,1,20.8,114.594Zm11.076-6.119H29.237a15.979,15.979,0,0,0,7.369-10.093,6.264,6.264,0,0,0,5-3.921,5.671,5.671,0,0,0,.513,1.836,9.259,9.259,0,0,0-5.095,8.229v5.932A7.684,7.684,0,0,0,31.871,108.475Zm7.619,2.357v-6.306a6.781,6.781,0,0,1,4.187-6.237,5.768,5.768,0,0,0,2.786,1.231,14.559,14.559,0,0,0,1.272,3.368v1.2A6.746,6.746,0,0,1,41,110.831H39.49Zm35.868,14.911H45.753V116.67a5.063,5.063,0,0,1,5.057-5.057h3.018a6.707,6.707,0,0,0,13.413,0H70.3a5.063,5.063,0,0,1,5.057,5.057v9.073Zm6.181-14.911H80.033a6.746,6.746,0,0,1-6.739-6.739v-1.2a14.553,14.553,0,0,0,1.272-3.368,5.713,5.713,0,0,0,2.667-1.141c.039-.03.08-.059.118-.09a6.781,6.781,0,0,1,4.188,6.237Z" fill="#fff5c1"/>
      <path id="Trazado_999361" data-name="Trazado 999361" d="M77.9,217.564a1.23,1.23,0,0,0-1.23,1.23v2.72a1.23,1.23,0,0,0,2.461,0v-2.72A1.231,1.231,0,0,0,77.9,217.564Z" transform="translate(-64.09 -126.873)" fill="#fff5c1"/>
      <path id="Trazado_999362" data-name="Trazado 999362" d="M165.8,222.745a1.23,1.23,0,0,0,1.23-1.23v-2.72a1.23,1.23,0,0,0-2.461,0v2.72A1.23,1.23,0,0,0,165.8,222.745Z" transform="translate(-137.572 -126.873)" fill="#fff5c1"/>
    </g>
  </g>
</svg>
