<svg xmlns="http://www.w3.org/2000/svg" width="29.297" height="40" viewBox="0 0 29.297 40">
  <g id="Grupo_1179289" data-name="Grupo 1179289" transform="translate(-68.5)">
    <path id="Trazado_1000211" data-name="Trazado 1000211" d="M96.039,3.516H90.665a1.761,1.761,0,0,0-1.657-1.172H86.019a2.93,2.93,0,0,0-5.742,0H77.289a1.761,1.761,0,0,0-1.657,1.172H70.258A1.76,1.76,0,0,0,68.5,5.273V38.242A1.76,1.76,0,0,0,70.258,40H90.18V38.828H70.258a.587.587,0,0,1-.586-.586V5.273a.587.587,0,0,1,.586-.586h5.274V5.859H70.844V9.375h1.172V7.031h3.616A1.76,1.76,0,0,0,77.289,8.2H89.008a1.76,1.76,0,0,0,1.657-1.172h3.616V31.8H89.594v4.688H72.016V10.547H70.844V37.656H90.422l5.031-5.031V5.859H90.766V4.688h5.274a.587.587,0,0,1,.586.586V38.242a.587.587,0,0,1-.586.586H93.7V40h2.344A1.76,1.76,0,0,0,97.8,38.242V5.273A1.76,1.76,0,0,0,96.039,3.516ZM93.453,32.969l-2.687,2.687V32.969ZM89.594,6.445a.587.587,0,0,1-.586.586H77.289a.587.587,0,0,1-.586-.586V4.1a.587.587,0,0,1,.586-.586h4.1V2.93a1.758,1.758,0,0,1,3.516,0v.586h4.1a.587.587,0,0,1,.586.586V6.445Z" fill="#3e5d56"/>
    <path id="Trazado_1000212" data-name="Trazado 1000212" d="M361,497h1.172v1.172H361Z" transform="translate(-269.648 -458.172)" fill="#3e5d56"/>
    <path id="Trazado_1000213" data-name="Trazado 1000213" d="M198.344,127.5v2.344H196v4.688h2.344v2.344h4.688v-2.344h2.344v-4.687h-2.344V127.5Zm5.859,3.516v2.344h-2.344V135.7h-2.344v-2.344h-2.344v-2.344h2.344v-2.344h2.344v2.344Z" transform="translate(-117.539 -117.539)" fill="#3e5d56"/>
    <path id="Trazado_1000214" data-name="Trazado 1000214" d="M143.5,341.014h3.516V337.5H143.5Zm1.172-2.344h1.172v1.172h-1.172Z" transform="translate(-69.141 -311.131)" fill="#3e5d56"/>
    <path id="Trazado_1000215" data-name="Trazado 1000215" d="M218.5,285h11.719v1.172H218.5Z" transform="translate(-138.28 -262.733)" fill="#3e5d56"/>
    <path id="Trazado_1000216" data-name="Trazado 1000216" d="M147.016,270H143.5v3.516h3.516Zm-1.172,2.344h-1.172v-1.172h1.172Z" transform="translate(-69.141 -248.905)" fill="#3e5d56"/>
    <path id="Trazado_1000217" data-name="Trazado 1000217" d="M218.5,420h8.2v1.172h-8.2Z" transform="translate(-138.28 -387.185)" fill="#3e5d56"/>
    <path id="Trazado_1000218" data-name="Trazado 1000218" d="M218.5,352.5h11.719v1.172H218.5Z" transform="translate(-138.28 -324.959)" fill="#3e5d56"/>
    <path id="Trazado_1000219" data-name="Trazado 1000219" d="M143.5,408.513h3.516V405H143.5Zm1.172-2.344h1.172v1.172h-1.172Z" transform="translate(-69.141 -373.357)" fill="#3e5d56"/>
    <path id="Trazado_1000220" data-name="Trazado 1000220" d="M368.5,140.112h1.172v1.172H368.5Z" transform="translate(-276.563 -129.166)" fill="#3e5d56"/>
    <path id="Trazado_1000221" data-name="Trazado 1000221" d="M368.5,110.112h1.172v1.172H368.5Z" transform="translate(-276.563 -101.509)" fill="#3e5d56"/>
  </g>
</svg>
