<svg xmlns="http://www.w3.org/2000/svg" width="100" height="100" viewBox="0 0 100 100">
  <g id="Grupo_1180675" data-name="Grupo 1180675" transform="translate(-490.496 -4501)">
    <circle id="Elipse_13670" data-name="Elipse 13670" cx="50" cy="50" r="50" transform="translate(490.496 4501)" fill="#bbded6"/>
    <g id="Grupo_1180674" data-name="Grupo 1180674" transform="translate(508.496 4519)">
      <g id="Grupo_1180672" data-name="Grupo 1180672">
        <g id="Grupo_1180667" data-name="Grupo 1180667">
          <path id="Trazado_1004972" data-name="Trazado 1004972" d="M50.66,10a4,4,0,0,1-2.83-1.17L46,7H43a3.992,3.992,0,0,1-3.87-3H17V54H53V10Z" fill="#e6e9ed"/>
        </g>
        <g id="Grupo_1180668" data-name="Grupo 1180668">
          <path id="Trazado_1004973" data-name="Trazado 1004973" d="M21,8H37V20H21Z" fill="#b4dd7f"/>
        </g>
        <g id="Grupo_1180669" data-name="Grupo 1180669">
          <path id="Trazado_1004974" data-name="Trazado 1004974" d="M33,36H49V50H33Z" fill="#fcd770"/>
        </g>
        <g id="Grupo_1180670" data-name="Grupo 1180670">
          <path id="Trazado_1004975" data-name="Trazado 1004975" d="M30,58a2.015,2.015,0,0,1,2,2,2.006,2.006,0,0,1-2,2H10.89a8.081,8.081,0,0,1-3.58-.84L3,59H2V44H3l3.48-2.32A9.951,9.951,0,0,1,12.03,40H24a1,1,0,0,1,1,1,4,4,0,0,1-4,4H17v9H32a2.006,2.006,0,0,1,2,2,2.015,2.015,0,0,1-2,2Z" fill="#f0d0b4"/>
        </g>
        <g id="Grupo_1180671" data-name="Grupo 1180671">
          <path id="Trazado_1004976" data-name="Trazado 1004976" d="M62,6V20H61l-4.31,2.16a8.081,8.081,0,0,1-3.58.84H53V10H50.66a4,4,0,0,1-2.83-1.17L46,7H43a3.992,3.992,0,0,1-3.87-3A3.657,3.657,0,0,1,39,3a1,1,0,0,1,1-1H51.97a9.951,9.951,0,0,1,5.55,1.68L61,6Z" fill="#f0d0b4"/>
        </g>
      </g>
      <g id="Grupo_1180673" data-name="Grupo 1180673">
        <path id="Trazado_1004977" data-name="Trazado 1004977" d="M61.3,5,58.074,2.848A10.96,10.96,0,0,0,51.973,1H40a2,2,0,0,0-2,2H16V39H12.027a10.964,10.964,0,0,0-6.1,1.848L2.7,43H1V60H2.764l4.1,2.05a9.05,9.05,0,0,0,4.025.95H30a2.99,2.99,0,0,0,2.78-4.116A2.95,2.95,0,0,0,34.816,55H54V23.956a9.058,9.058,0,0,0,3.137-.906l4.1-2.05H63V5ZM33,56a1,1,0,0,1-1,1H20v2H30a1,1,0,0,1,0,2H10.889a7.031,7.031,0,0,1-3.131-.739L3.236,58H3V45h.3l3.732-2.488A8.973,8.973,0,0,1,12.027,41H24a3,3,0,0,1-3,3H16.586l-1.535,1.535A4.97,4.97,0,0,1,11.515,47H11v2h.515A6.946,6.946,0,0,0,16,47.371V55H32A1,1,0,0,1,33,56Zm19-3H18V46h3a5.006,5.006,0,0,0,5-5,2,2,0,0,0-2-2H18V5H38.424A5,5,0,0,0,43,8h2.586l1.535,1.536A4.968,4.968,0,0,0,50.657,11H52Zm9-34h-.236l-4.521,2.261A7.022,7.022,0,0,1,54,21.943V9H50.658a2.982,2.982,0,0,1-2.122-.878L46.414,6H43a3,3,0,0,1-3-3H51.973a8.971,8.971,0,0,1,4.992,1.512L60.7,7H61Z"/>
        <path id="Trazado_1004978" data-name="Trazado 1004978" d="M32,51H50V35H32Zm2-14H48V49H34Z"/>
        <path id="Trazado_1004979" data-name="Trazado 1004979" d="M39,44.586l-1.293-1.293-1.414,1.414L39,47.414l7.707-7.707-1.414-1.414Z"/>
        <path id="Trazado_1004980" data-name="Trazado 1004980" d="M20,49H30v2H20Z"/>
        <path id="Trazado_1004981" data-name="Trazado 1004981" d="M28,45h2v2H28Z"/>
        <path id="Trazado_1004982" data-name="Trazado 1004982" d="M28,41h2v2H28Z"/>
        <path id="Trazado_1004983" data-name="Trazado 1004983" d="M38,7H20V21H38ZM36,19H22V9H36Z"/>
        <path id="Trazado_1004984" data-name="Trazado 1004984" d="M40,19H50v2H40Z"/>
        <path id="Trazado_1004985" data-name="Trazado 1004985" d="M40,15H50v2H40Z"/>
        <path id="Trazado_1004986" data-name="Trazado 1004986" d="M40,11h2v2H40Z"/>
        <path id="Trazado_1004987" data-name="Trazado 1004987" d="M44,11h6v2H44Z"/>
        <path id="Trazado_1004988" data-name="Trazado 1004988" d="M20,23h2v2H20Z"/>
        <path id="Trazado_1004989" data-name="Trazado 1004989" d="M24,23H50v2H24Z"/>
        <path id="Trazado_1004990" data-name="Trazado 1004990" d="M20,27H50v2H20Z"/>
        <path id="Trazado_1004991" data-name="Trazado 1004991" d="M20,31h2v2H20Z"/>
        <path id="Trazado_1004992" data-name="Trazado 1004992" d="M28,31h2v2H28Z"/>
        <path id="Trazado_1004993" data-name="Trazado 1004993" d="M24,31h2v2H24Z"/>
        <path id="Trazado_1004994" data-name="Trazado 1004994" d="M32,31H50v2H32Z"/>
        <path id="Trazado_1004995" data-name="Trazado 1004995" d="M20,35H30v2H20Z"/>
      </g>
    </g>
  </g>
</svg>
