<svg xmlns="http://www.w3.org/2000/svg" width="130" height="130" viewBox="0 0 130 130">
  <g id="Grupo_1177873" data-name="Grupo 1177873" transform="translate(-383.746 -8400)">
    <circle id="Elipse_13609" data-name="Elipse 13609" cx="65" cy="65" r="65" transform="translate(383.746 8400)" fill="#fff5c1"/>
    <g id="Grupo_1178334" data-name="Grupo 1178334" transform="translate(380.666 8430)">
      <path id="Trazado_998722" data-name="Trazado 998722" d="M93.74,8.2V4.1h-4.1V0H38.319V6.152H40.37v-4.1H87.587V51.543h-8.2v8.2H40.37V8.2H38.319V61.8h4.1v4.1h4.1V70H85.536V67.949H48.573V65.9H93.74V10.254H95.79v57.7h-4.1V70h6.152V8.2Zm-7.6,45.391-4.7,4.7v-4.7Zm5.552,10.254H44.471V61.8H80.834l8.8-8.8V6.152h2.051Z" fill="#773b3d"/>
      <path id="Trazado_998723" data-name="Trazado 998723" d="M398.681,497h2.051v2.051h-2.051Z" transform="translate(-311.094 -429.051)" fill="#773b3d"/>
      <path id="Trazado_998724" data-name="Trazado 998724" d="M184.076,45v3.076H181v6.152h3.076V57.3h6.152V54.229H193.3V48.076h-3.076V45Zm7.178,5.127v2.051h-3.076v3.076h-2.051V52.178h-3.076V50.127h3.076V47.051h2.051v3.076Z" transform="translate(-123.174 -38.848)" fill="#773b3d"/>
      <path id="Trazado_998725" data-name="Trazado 998725" d="M166,167h23.584v2.051H166Z" transform="translate(-110.225 -144.171)" fill="#773b3d"/>
      <path id="Trazado_998726" data-name="Trazado 998726" d="M106,278.154h6.152V272H106Zm2.051-4.1H110.1V276.1h-2.051Z" transform="translate(-58.428 -234.814)" fill="#773b3d"/>
      <path id="Trazado_998727" data-name="Trazado 998727" d="M106,218.155h6.152V212H106Zm2.051-4.1H110.1V216.1h-2.051Z" transform="translate(-58.428 -183.018)" fill="#773b3d"/>
      <path id="Trazado_998728" data-name="Trazado 998728" d="M106,338.153h6.152V332H106Zm2.051-4.1H110.1V336.1h-2.051Z" transform="translate(-58.428 -286.61)" fill="#773b3d"/>
      <path id="Trazado_998729" data-name="Trazado 998729" d="M166,227h23.584v2.051H166Z" transform="translate(-110.225 -195.967)" fill="#773b3d"/>
      <path id="Trazado_998730" data-name="Trazado 998730" d="M112.152,152H106v6.152h6.152Zm-2.051,4.1h-2.051v-2.051H110.1Z" transform="translate(-58.428 -131.221)" fill="#773b3d"/>
      <path id="Trazado_998731" data-name="Trazado 998731" d="M166,287h23.584v2.051H166Z" transform="translate(-110.225 -247.763)" fill="#773b3d"/>
      <path id="Trazado_998732" data-name="Trazado 998732" d="M166,347h23.584v2.051H166Z" transform="translate(-110.225 -299.559)" fill="#773b3d"/>
      <path id="Trazado_998733" data-name="Trazado 998733" d="M368.682,30h2.051v2.051h-2.051Z" transform="translate(-285.196 -25.898)" fill="#773b3d"/>
      <path id="Trazado_998734" data-name="Trazado 998734" d="M368.682,60h2.051v2.051h-2.051Z" transform="translate(-285.196 -51.797)" fill="#773b3d"/>
    </g>
  </g>
</svg>
