<svg xmlns="http://www.w3.org/2000/svg" width="32.639" height="40" viewBox="0 0 32.639 40">
  <g id="Grupo_1179290" data-name="Grupo 1179290" transform="translate(-47.11 0.001)">
    <path id="Trazado_1000222" data-name="Trazado 1000222" d="M58.083,258.336H54.617v-5.757a.586.586,0,0,0-.586-.586H48.285c0-.023,0-.045,0-.068V238.7a.586.586,0,1,0-1.172,0v13.229a2.151,2.151,0,0,0,.633,1.53l5.41,5.417a2.15,2.15,0,0,0,1.533.635h3.4a.586.586,0,0,0,0-1.172Zm-4.638-.83-4.336-4.342h4.336Z" transform="translate(0 -219.509)" fill="#3e5d56"/>
    <path id="Trazado_1000223" data-name="Trazado 1000223" d="M79.163,23.582A.586.586,0,0,0,79.749,23V21.484A1.683,1.683,0,0,0,78.068,19.8h-.3V18.1a5.242,5.242,0,0,0-2.418-4.414v-9.3a.926.926,0,0,0-.925-.925H66.675a1.716,1.716,0,0,0-1.508-.9H62.611a2.5,2.5,0,1,0-5,0H55.055a1.715,1.715,0,0,0-1.508.9H50.274a.926.926,0,0,0-.925.925V5.7H48.035a.926.926,0,0,0-.925.926v9.828a.586.586,0,0,0,1.172,0V6.871h5.059v.3a.888.888,0,0,0,.887.887h2.927a.586.586,0,0,0,0-1.172H54.513V4.276a.543.543,0,0,1,.542-.543H65.167a.544.544,0,0,1,.543.543V6.89H59.889a.586.586,0,0,0,0,1.172h6.105a.889.889,0,0,0,.887-.887v-.3h5.059V12.89a5.207,5.207,0,0,0-2.24.8v-.941a.9.9,0,0,0-.9-.9H51.051a.9.9,0,0,0-.9.9v3.64a.9.9,0,0,0,.9.9h16.3a5.258,5.258,0,0,0-.063.812v1.7h-.3A1.683,1.683,0,0,0,65.3,21.484v8.568a1.683,1.683,0,0,0,1.681,1.681h4.956v7.094H60.817a.586.586,0,1,0,0,1.172h11.37a.927.927,0,0,0,.926-.925V37.76h1.313a.926.926,0,0,0,.925-.925v-5.1h2.716a1.683,1.683,0,0,0,1.681-1.681V25.73a.586.586,0,1,0-1.172,0v4.322a.51.51,0,0,1-.509.509H76.628A2.077,2.077,0,0,0,75.1,28.6l-.9-.247v-.789a2.825,2.825,0,0,0,.946-2.105v-.567a2.628,2.628,0,0,0-5.256,0v.567a2.825,2.825,0,0,0,.946,2.105v.789l-.9.247a2.077,2.077,0,0,0-1.524,1.964h-1.44a.51.51,0,0,1-.509-.509V21.484a.51.51,0,0,1,.509-.509H78.068a.51.51,0,0,1,.509.509V23a.586.586,0,0,0,.586.586ZM53.341,5.7H50.52V4.632h2.821Zm5.443-3.138V2.5a1.328,1.328,0,1,1,2.655.062Zm15.4,34.028H73.113V31.733H74.18v4.855Zm-3.109-11.7a1.456,1.456,0,0,1,2.912,0v.567a1.651,1.651,0,0,1-.834,1.433l-.255.145a.747.747,0,0,1-.734,0l-.255-.145h0a1.651,1.651,0,0,1-.834-1.433v-.567Zm-1.205,5.068a.908.908,0,0,1,.4-.229l1.022-.282a1,1,0,0,0,.733-.963v-.25a1.914,1.914,0,0,0,1.021,0v.25a1,1,0,0,0,.733.964l1.022.282a.9.9,0,0,1,.663.834H69.6A.912.912,0,0,1,69.866,29.956ZM66.882,5.7V4.632h7.3v8.492a5.2,5.2,0,0,0-1.067-.235V6.625a.926.926,0,0,0-.925-.925ZM51.321,16.115v-3.1H68.53V14.7s0,.006,0,.009a5.25,5.25,0,0,0-.855,1.4ZM71.941,19.8H70.7V18.1a1.833,1.833,0,0,1,1.244-1.734V19.8Zm2.416,0H73.113V16.365A1.833,1.833,0,0,1,74.357,18.1Zm2.241,0h-1.07V18.1a3,3,0,1,0-6,0v1.7H68.456V18.1a4.071,4.071,0,0,1,8.142,0v1.7Z" transform="translate(0)" fill="#3e5d56"/>
    <path id="Trazado_1000224" data-name="Trazado 1000224" d="M177.676,403.926l.476.817a1.075,1.075,0,0,0,.932.538h0a1.074,1.074,0,0,0,.931-.53l.732-1.23.328.507a2.688,2.688,0,0,0,3.843.711l.291-.213a.586.586,0,0,0-.691-.946l-.291.213a1.516,1.516,0,0,1-2.167-.4l-.606-.937a.855.855,0,0,0-1.452.027l-.917,1.542-.476-.816a.979.979,0,0,0-1.081-.454l-1.108.28q-.029-.116-.063-.231a2.057,2.057,0,0,0-3.313-.968l-.15.129a.586.586,0,0,0,.765.888l.15-.129a.885.885,0,0,1,1.426.416q.029.1.052.191a4.485,4.485,0,0,0-2.347,1.773,1.6,1.6,0,0,0,.726,2.369,1.764,1.764,0,0,0,2.17-.71,4.878,4.878,0,0,0,.726-2.556Zm-2.833,2.222a.6.6,0,0,1-.732.24.426.426,0,0,1-.194-.631,3.316,3.316,0,0,1,1.461-1.209A3.7,3.7,0,0,1,174.843,406.148Z" transform="translate(-115.753 -369.983)" fill="#3e5d56"/>
    <path id="Trazado_1000225" data-name="Trazado 1000225" d="M185.8,349.44h-5.153a.586.586,0,0,0,0,1.172H185.8a.586.586,0,1,0,0-1.172Z" transform="translate(-122.56 -322.141)" fill="#3e5d56"/>
    <path id="Trazado_1000226" data-name="Trazado 1000226" d="M88.78,350.612h4.447a.586.586,0,0,0,0-1.172H88.78a.586.586,0,0,0,0,1.172Z" transform="translate(-37.874 -322.141)" fill="#3e5d56"/>
    <path id="Trazado_1000227" data-name="Trazado 1000227" d="M88.78,305.528h12.33a.586.586,0,0,0,0-1.172H88.78a.586.586,0,0,0,0,1.172Z" transform="translate(-37.874 -280.579)" fill="#3e5d56"/>
    <path id="Trazado_1000228" data-name="Trazado 1000228" d="M88.78,260.445h4.569a.586.586,0,0,0,0-1.172H88.78a.586.586,0,0,0,0,1.172Z" transform="translate(-37.874 -239.018)" fill="#3e5d56"/>
  </g>
</svg>
