<svg xmlns="http://www.w3.org/2000/svg" xmlns:xlink="http://www.w3.org/1999/xlink" width="396" height="174.009" viewBox="0 0 396 174.009">
  <defs>
    <clipPath id="clip-path">
      <rect id="Rectángulo_455365" data-name="Rectángulo 455365" width="366.433" height="174.009" fill="none"/>
    </clipPath>
    <clipPath id="clip-path-2">
      <rect id="Rectángulo_455364" data-name="Rectángulo 455364" width="366.433" height="174.008" fill="none"/>
    </clipPath>
    <clipPath id="clip-path-3">
      <rect id="Rectángulo_455329" data-name="Rectángulo 455329" width="35.278" height="77.851" fill="none"/>
    </clipPath>
    <clipPath id="clip-path-4">
      <rect id="Rectángulo_455331" data-name="Rectángulo 455331" width="15.168" height="73.222" fill="none"/>
    </clipPath>
    <clipPath id="clip-path-5">
      <rect id="Rectángulo_455332" data-name="Rectángulo 455332" width="7.06" height="3.164" fill="none"/>
    </clipPath>
    <clipPath id="clip-path-6">
      <rect id="Rectángulo_455333" data-name="Rectángulo 455333" width="6.673" height="3.55" fill="none"/>
    </clipPath>
    <clipPath id="clip-path-7">
      <rect id="Rectángulo_455334" data-name="Rectángulo 455334" width="7.06" height="3.163" fill="none"/>
    </clipPath>
    <clipPath id="clip-path-8">
      <rect id="Rectángulo_455335" data-name="Rectángulo 455335" width="6.673" height="3.551" fill="none"/>
    </clipPath>
    <clipPath id="clip-path-17">
      <rect id="Rectángulo_455344" data-name="Rectángulo 455344" width="6.66" height="3.644" fill="none"/>
    </clipPath>
    <clipPath id="clip-path-18">
      <rect id="Rectángulo_455345" data-name="Rectángulo 455345" width="7.076" height="3.227" fill="none"/>
    </clipPath>
    <clipPath id="clip-path-19">
      <rect id="Rectángulo_455346" data-name="Rectángulo 455346" width="6.66" height="3.645" fill="none"/>
    </clipPath>
    <clipPath id="clip-path-20">
      <rect id="Rectángulo_455347" data-name="Rectángulo 455347" width="7.076" height="3.229" fill="none"/>
    </clipPath>
    <clipPath id="clip-path-21">
      <rect id="Rectángulo_455348" data-name="Rectángulo 455348" width="6.661" height="3.644" fill="none"/>
    </clipPath>
    <clipPath id="clip-path-24">
      <rect id="Rectángulo_455351" data-name="Rectángulo 455351" width="7.076" height="3.228" fill="none"/>
    </clipPath>
    <clipPath id="clip-path-29">
      <rect id="Rectángulo_455360" data-name="Rectángulo 455360" width="51.844" height="53.708" fill="none"/>
    </clipPath>
    <clipPath id="clip-path-30">
      <rect id="Rectángulo_455363" data-name="Rectángulo 455363" width="2.906" height="2.906" fill="none"/>
    </clipPath>
  </defs>
  <g id="Grupo_1178798" data-name="Grupo 1178798" transform="translate(-1018.34 -5995.991)">
    <path id="Rectángulo_455088" data-name="Rectángulo 455088" d="M20,0H376a20,20,0,0,1,20,20V147a0,0,0,0,1,0,0H0a0,0,0,0,1,0,0V20A20,20,0,0,1,20,0Z" transform="translate(1018.34 6023)" fill="#ffe1db"/>
    <g id="Grupo_1178797" data-name="Grupo 1178797" transform="translate(1033.34 5995.991)">
      <g id="Grupo_1178796" data-name="Grupo 1178796" clip-path="url(#clip-path)">
        <g id="Grupo_1178795" data-name="Grupo 1178795" transform="translate(0 0)">
          <g id="Grupo_1178794" data-name="Grupo 1178794" clip-path="url(#clip-path-2)">
            <path id="Trazado_999364" data-name="Trazado 999364" d="M377.151,161.171l-34,6.439a5.891,5.891,0,0,1-6.884-4.692l-11.94-63.05a5.891,5.891,0,0,1,4.692-6.884l34-6.439a5.891,5.891,0,0,1,6.884,4.692l11.94,63.05a5.891,5.891,0,0,1-4.692,6.884" transform="translate(-284.269 -75.79)" fill="#f47458"/>
            <g id="Grupo_1178712" data-name="Grupo 1178712" transform="translate(62.404 10.626)" opacity="0.3" style="mix-blend-mode: multiply;isolation: isolate">
              <g id="Grupo_1178711" data-name="Grupo 1178711">
                <g id="Grupo_1178710" data-name="Grupo 1178710" clip-path="url(#clip-path-3)">
                  <path id="Trazado_999365" data-name="Trazado 999365" d="M522.934,86.324l-16.518,3.128,14.132,74.626,16.518-3.128a5.8,5.8,0,0,0,4.521-6.846L529.645,91.043a5.8,5.8,0,0,0-6.711-4.719" transform="translate(-506.416 -86.227)" fill="#f47458"/>
                </g>
              </g>
            </g>
            <g id="Grupo_1178715" data-name="Grupo 1178715" transform="translate(61.231 14.677)" opacity="0.5" style="mix-blend-mode: multiply;isolation: isolate">
              <g id="Grupo_1178714" data-name="Grupo 1178714">
                <g id="Grupo_1178713" data-name="Grupo 1178713" clip-path="url(#clip-path-4)">
                  <rect id="Rectángulo_455330" data-name="Rectángulo 455330" width="1.374" height="74.263" transform="matrix(0.983, -0.186, 0.186, 0.983, 0.001, 0.255)" fill="#f47458"/>
                </g>
              </g>
            </g>
            <path id="Trazado_999366" data-name="Trazado 999366" d="M563.19,179.771l-4.288.779a2.385,2.385,0,1,0,.852,4.693l4.288-.779Z" transform="translate(-488.313 -157.619)" fill="#fae0b2"/>
            <path id="Trazado_999367" data-name="Trazado 999367" d="M607.636,173.956l.852,4.693,4.288-.779a2.385,2.385,0,1,0-.852-4.693Z" transform="translate(-532.759 -151.804)" fill="#50bfa5"/>
            <g id="Grupo_1178718" data-name="Grupo 1178718" transform="translate(68.669 24.498)" opacity="0.3" style="mix-blend-mode: multiply;isolation: isolate">
              <g id="Grupo_1178717" data-name="Grupo 1178717">
                <g id="Grupo_1178716" data-name="Grupo 1178716" clip-path="url(#clip-path-5)">
                  <path id="Trazado_999368" data-name="Trazado 999368" d="M563.892,198.813l-6.634,1.2a2.385,2.385,0,0,0,2.773,1.92l4.288-.778Z" transform="translate(-557.258 -198.813)" fill="#9bc1f9"/>
                </g>
              </g>
            </g>
            <g id="Grupo_1178721" data-name="Grupo 1178721" transform="translate(75.303 23.294)" opacity="0.3" style="mix-blend-mode: multiply;isolation: isolate">
              <g id="Grupo_1178720" data-name="Grupo 1178720">
                <g id="Grupo_1178719" data-name="Grupo 1178719" clip-path="url(#clip-path-6)">
                  <path id="Trazado_999369" data-name="Trazado 999369" d="M617.727,189.038l-6.634,1.2.426,2.346,4.288-.779a2.385,2.385,0,0,0,1.92-2.772" transform="translate(-611.093 -189.038)" fill="#f47458"/>
                </g>
              </g>
            </g>
            <path id="Trazado_999370" data-name="Trazado 999370" d="M579.643,266.655l-4.288.779a2.385,2.385,0,1,0,.852,4.693l4.288-.778Z" transform="translate(-502.739 -233.796)" fill="#fae0b2"/>
            <path id="Trazado_999371" data-name="Trazado 999371" d="M624.089,260.84l.852,4.693,4.288-.779a2.385,2.385,0,1,0-.852-4.693Z" transform="translate(-547.185 -227.981)" fill="#50bfa5"/>
            <g id="Grupo_1178724" data-name="Grupo 1178724" transform="translate(70.696 35.205)" opacity="0.3" style="mix-blend-mode: multiply;isolation: isolate">
              <g id="Grupo_1178723" data-name="Grupo 1178723">
                <g id="Grupo_1178722" data-name="Grupo 1178722" clip-path="url(#clip-path-7)">
                  <path id="Trazado_999372" data-name="Trazado 999372" d="M580.345,285.7l-6.634,1.2a2.385,2.385,0,0,0,2.772,1.92l4.288-.778Z" transform="translate(-573.711 -285.697)" fill="#9bc1f9"/>
                </g>
              </g>
            </g>
            <g id="Grupo_1178727" data-name="Grupo 1178727" transform="translate(77.33 34)" opacity="0.3" style="mix-blend-mode: multiply;isolation: isolate">
              <g id="Grupo_1178726" data-name="Grupo 1178726">
                <g id="Grupo_1178725" data-name="Grupo 1178725" clip-path="url(#clip-path-8)">
                  <path id="Trazado_999373" data-name="Trazado 999373" d="M634.181,275.921l-6.634,1.2.426,2.346,4.288-.779a2.385,2.385,0,0,0,1.92-2.772" transform="translate(-627.547 -275.921)" fill="#f47458"/>
                </g>
              </g>
            </g>
            <path id="Trazado_999374" data-name="Trazado 999374" d="M596.1,353.539l-4.287.779a2.385,2.385,0,0,0,.852,4.693l4.288-.779Z" transform="translate(-517.165 -309.974)" fill="#fae0b2"/>
            <path id="Trazado_999375" data-name="Trazado 999375" d="M640.543,347.724l.852,4.693,4.288-.778a2.385,2.385,0,0,0-.852-4.693Z" transform="translate(-561.611 -304.159)" fill="#50bfa5"/>
            <g id="Grupo_1178730" data-name="Grupo 1178730" transform="translate(72.724 45.911)" opacity="0.3" style="mix-blend-mode: multiply;isolation: isolate">
              <g id="Grupo_1178729" data-name="Grupo 1178729">
                <g id="Grupo_1178728" data-name="Grupo 1178728" clip-path="url(#clip-path-5)">
                  <path id="Trazado_999376" data-name="Trazado 999376" d="M596.8,372.58l-6.634,1.2a2.385,2.385,0,0,0,2.772,1.92l4.288-.779Z" transform="translate(-590.165 -372.58)" fill="#9bc1f9"/>
                </g>
              </g>
            </g>
            <g id="Grupo_1178733" data-name="Grupo 1178733" transform="translate(79.358 44.707)" opacity="0.3" style="mix-blend-mode: multiply;isolation: isolate">
              <g id="Grupo_1178732" data-name="Grupo 1178732">
                <g id="Grupo_1178731" data-name="Grupo 1178731" clip-path="url(#clip-path-6)">
                  <path id="Trazado_999377" data-name="Trazado 999377" d="M650.635,362.8l-6.634,1.2.426,2.346,4.288-.778a2.385,2.385,0,0,0,1.92-2.773" transform="translate(-644.001 -362.806)" fill="#f47458"/>
                </g>
              </g>
            </g>
            <path id="Trazado_999378" data-name="Trazado 999378" d="M612.551,440.423l-4.288.779a2.385,2.385,0,1,0,.852,4.693l4.288-.779Z" transform="translate(-531.592 -386.152)" fill="#fae0b2"/>
            <path id="Trazado_999379" data-name="Trazado 999379" d="M657,434.608l.852,4.693,4.287-.779a2.385,2.385,0,1,0-.852-4.693Z" transform="translate(-576.038 -380.336)" fill="#50bfa5"/>
            <g id="Grupo_1178736" data-name="Grupo 1178736" transform="translate(74.751 56.618)" opacity="0.3" style="mix-blend-mode: multiply;isolation: isolate">
              <g id="Grupo_1178735" data-name="Grupo 1178735">
                <g id="Grupo_1178734" data-name="Grupo 1178734" clip-path="url(#clip-path-5)">
                  <path id="Trazado_999380" data-name="Trazado 999380" d="M613.253,459.465l-6.634,1.2a2.385,2.385,0,0,0,2.773,1.92l4.288-.778Z" transform="translate(-606.619 -459.465)" fill="#9bc1f9"/>
                </g>
              </g>
            </g>
            <g id="Grupo_1178739" data-name="Grupo 1178739" transform="translate(81.385 55.413)" opacity="0.3" style="mix-blend-mode: multiply;isolation: isolate">
              <g id="Grupo_1178738" data-name="Grupo 1178738">
                <g id="Grupo_1178737" data-name="Grupo 1178737" clip-path="url(#clip-path-8)">
                  <path id="Trazado_999381" data-name="Trazado 999381" d="M667.089,449.689l-6.634,1.2.426,2.346,4.288-.779a2.385,2.385,0,0,0,1.92-2.772" transform="translate(-660.455 -449.689)" fill="#f47458"/>
                </g>
              </g>
            </g>
            <path id="Trazado_999382" data-name="Trazado 999382" d="M629,527.307l-4.288.779a2.385,2.385,0,1,0,.852,4.693l4.288-.778Z" transform="translate(-546.018 -462.329)" fill="#fae0b2"/>
            <path id="Trazado_999383" data-name="Trazado 999383" d="M673.451,521.492l.852,4.693,4.287-.778a2.385,2.385,0,0,0,1.92-2.772h0a2.385,2.385,0,0,0-2.772-1.92Z" transform="translate(-590.464 -456.514)" fill="#50bfa5"/>
            <g id="Grupo_1178742" data-name="Grupo 1178742" transform="translate(76.779 67.324)" opacity="0.3" style="mix-blend-mode: multiply;isolation: isolate">
              <g id="Grupo_1178741" data-name="Grupo 1178741">
                <g id="Grupo_1178740" data-name="Grupo 1178740" clip-path="url(#clip-path-5)">
                  <path id="Trazado_999384" data-name="Trazado 999384" d="M629.706,546.349l-6.634,1.2a2.385,2.385,0,0,0,2.773,1.92l4.288-.778Z" transform="translate(-623.072 -546.349)" fill="#9bc1f9"/>
                </g>
              </g>
            </g>
            <g id="Grupo_1178745" data-name="Grupo 1178745" transform="translate(83.413 66.12)" opacity="0.3" style="mix-blend-mode: multiply;isolation: isolate">
              <g id="Grupo_1178744" data-name="Grupo 1178744">
                <g id="Grupo_1178743" data-name="Grupo 1178743" clip-path="url(#clip-path-8)">
                  <path id="Trazado_999385" data-name="Trazado 999385" d="M683.542,536.574l-6.634,1.2.426,2.346,4.288-.778a2.385,2.385,0,0,0,1.92-2.772" transform="translate(-676.908 -536.574)" fill="#f47458"/>
                </g>
              </g>
            </g>
            <path id="Trazado_999386" data-name="Trazado 999386" d="M645.459,614.191l-4.288.779a2.385,2.385,0,0,0-1.92,2.772h0a2.385,2.385,0,0,0,2.773,1.92l4.288-.779Z" transform="translate(-560.445 -538.507)" fill="#fae0b2"/>
            <path id="Trazado_999387" data-name="Trazado 999387" d="M689.905,608.375l.852,4.693,4.288-.779a2.385,2.385,0,0,0-.852-4.693Z" transform="translate(-604.891 -532.691)" fill="#50bfa5"/>
            <g id="Grupo_1178748" data-name="Grupo 1178748" transform="translate(78.806 78.031)" opacity="0.3" style="mix-blend-mode: multiply;isolation: isolate">
              <g id="Grupo_1178747" data-name="Grupo 1178747">
                <g id="Grupo_1178746" data-name="Grupo 1178746" clip-path="url(#clip-path-5)">
                  <path id="Trazado_999388" data-name="Trazado 999388" d="M646.16,633.233l-6.634,1.2a2.385,2.385,0,0,0,2.772,1.92l4.288-.778Z" transform="translate(-639.526 -633.233)" fill="#9bc1f9"/>
                </g>
              </g>
            </g>
            <g id="Grupo_1178751" data-name="Grupo 1178751" transform="translate(85.44 76.826)" opacity="0.3" style="mix-blend-mode: multiply;isolation: isolate">
              <g id="Grupo_1178750" data-name="Grupo 1178750">
                <g id="Grupo_1178749" data-name="Grupo 1178749" clip-path="url(#clip-path-8)">
                  <path id="Trazado_999389" data-name="Trazado 999389" d="M700,623.457l-6.634,1.2.426,2.347,4.288-.779a2.385,2.385,0,0,0,1.92-2.772" transform="translate(-693.363 -623.457)" fill="#f47458"/>
                </g>
              </g>
            </g>
            <path id="Trazado_999390" data-name="Trazado 999390" d="M424.839,208.066l4.275-.843a2.385,2.385,0,0,1,.923,4.68l-4.275.843Z" transform="translate(-372.488 -181.648)" fill="#fae0b2"/>
            <path id="Trazado_999391" data-name="Trazado 999391" d="M380.731,214.389l.923,4.68-4.275.843a2.385,2.385,0,1,1-.923-4.679Z" transform="translate(-328.38 -187.971)" fill="#50bfa5"/>
            <g id="Grupo_1178754" data-name="Grupo 1178754" transform="translate(52.813 27.453)" opacity="0.3" style="mix-blend-mode: multiply;isolation: isolate">
              <g id="Grupo_1178753" data-name="Grupo 1178753">
                <g id="Grupo_1178752" data-name="Grupo 1178752" clip-path="url(#clip-path-17)">
                  <path id="Trazado_999392" data-name="Trazado 999392" d="M428.584,224.094l6.615-1.3a2.385,2.385,0,0,1-1.878,2.8l-4.275.843Z" transform="translate(-428.584 -222.79)" fill="#9bc1f9"/>
                </g>
              </g>
            </g>
            <g id="Grupo_1178757" data-name="Grupo 1178757" transform="translate(46.198 28.758)" opacity="0.3" style="mix-blend-mode: multiply;isolation: isolate">
              <g id="Grupo_1178756" data-name="Grupo 1178756">
                <g id="Grupo_1178755" data-name="Grupo 1178755" clip-path="url(#clip-path-18)">
                  <path id="Trazado_999393" data-name="Trazado 999393" d="M374.9,234.68l6.615-1.3.461,2.34-4.275.843a2.385,2.385,0,0,1-2.8-1.878" transform="translate(-374.902 -233.376)" fill="#f47458"/>
                </g>
              </g>
            </g>
            <path id="Trazado_999394" data-name="Trazado 999394" d="M441.293,294.95l4.275-.843a2.385,2.385,0,0,1,.923,4.679l-4.275.843Z" transform="translate(-386.914 -257.826)" fill="#fae0b2"/>
            <path id="Trazado_999395" data-name="Trazado 999395" d="M397.185,301.272l.923,4.679-4.275.843a2.385,2.385,0,1,1-.923-4.679Z" transform="translate(-342.806 -264.148)" fill="#50bfa5"/>
            <g id="Grupo_1178760" data-name="Grupo 1178760" transform="translate(54.84 38.159)" opacity="0.3" style="mix-blend-mode: multiply;isolation: isolate">
              <g id="Grupo_1178759" data-name="Grupo 1178759">
                <g id="Grupo_1178758" data-name="Grupo 1178758" clip-path="url(#clip-path-19)">
                  <path id="Trazado_999396" data-name="Trazado 999396" d="M445.038,310.978l6.615-1.3a2.384,2.384,0,0,1-1.878,2.8l-4.275.843Z" transform="translate(-445.038 -309.674)" fill="#9bc1f9"/>
                </g>
              </g>
            </g>
            <g id="Grupo_1178763" data-name="Grupo 1178763" transform="translate(48.225 39.464)" opacity="0.3" style="mix-blend-mode: multiply;isolation: isolate">
              <g id="Grupo_1178762" data-name="Grupo 1178762">
                <g id="Grupo_1178761" data-name="Grupo 1178761" clip-path="url(#clip-path-20)">
                  <path id="Trazado_999397" data-name="Trazado 999397" d="M391.355,321.564l6.615-1.3.461,2.34-4.275.843a2.385,2.385,0,0,1-2.8-1.878" transform="translate(-391.355 -320.26)" fill="#f47458"/>
                </g>
              </g>
            </g>
            <path id="Trazado_999398" data-name="Trazado 999398" d="M457.747,381.834l4.275-.843a2.385,2.385,0,0,1,.923,4.68l-4.275.843Z" transform="translate(-401.341 -334.003)" fill="#fae0b2"/>
            <path id="Trazado_999399" data-name="Trazado 999399" d="M413.639,388.157l.923,4.68-4.275.843a2.385,2.385,0,0,1-.923-4.68Z" transform="translate(-357.232 -340.326)" fill="#50bfa5"/>
            <g id="Grupo_1178766" data-name="Grupo 1178766" transform="translate(56.868 48.866)" opacity="0.3" style="mix-blend-mode: multiply;isolation: isolate">
              <g id="Grupo_1178765" data-name="Grupo 1178765">
                <g id="Grupo_1178764" data-name="Grupo 1178764" clip-path="url(#clip-path-21)">
                  <path id="Trazado_999400" data-name="Trazado 999400" d="M461.491,397.862l6.615-1.3a2.385,2.385,0,0,1-1.878,2.8l-4.275.843Z" transform="translate(-461.491 -396.558)" fill="#9bc1f9"/>
                </g>
              </g>
            </g>
            <g id="Grupo_1178769" data-name="Grupo 1178769" transform="translate(50.253 50.17)" opacity="0.3" style="mix-blend-mode: multiply;isolation: isolate">
              <g id="Grupo_1178768" data-name="Grupo 1178768">
                <g id="Grupo_1178767" data-name="Grupo 1178767" clip-path="url(#clip-path-20)">
                  <path id="Trazado_999401" data-name="Trazado 999401" d="M407.809,408.448l6.615-1.3.461,2.34-4.276.843a2.385,2.385,0,0,1-2.8-1.878" transform="translate(-407.809 -407.143)" fill="#f47458"/>
                </g>
              </g>
            </g>
            <path id="Trazado_999402" data-name="Trazado 999402" d="M474.2,468.717l4.275-.843a2.385,2.385,0,0,1,.923,4.68l-4.275.843Z" transform="translate(-415.767 -410.18)" fill="#fae0b2"/>
            <path id="Trazado_999403" data-name="Trazado 999403" d="M430.093,475.04l.923,4.68-4.275.843a2.385,2.385,0,0,1-.923-4.679Z" transform="translate(-371.659 -416.503)" fill="#50bfa5"/>
            <g id="Grupo_1178772" data-name="Grupo 1178772" transform="translate(58.895 59.572)" opacity="0.3" style="mix-blend-mode: multiply;isolation: isolate">
              <g id="Grupo_1178771" data-name="Grupo 1178771">
                <g id="Grupo_1178770" data-name="Grupo 1178770" clip-path="url(#clip-path-21)">
                  <path id="Trazado_999404" data-name="Trazado 999404" d="M477.945,484.746l6.615-1.3a2.385,2.385,0,0,1-1.878,2.8l-4.275.843Z" transform="translate(-477.945 -483.442)" fill="#9bc1f9"/>
                </g>
              </g>
            </g>
            <g id="Grupo_1178775" data-name="Grupo 1178775" transform="translate(52.28 60.877)" opacity="0.3" style="mix-blend-mode: multiply;isolation: isolate">
              <g id="Grupo_1178774" data-name="Grupo 1178774">
                <g id="Grupo_1178773" data-name="Grupo 1178773" clip-path="url(#clip-path-24)">
                  <path id="Trazado_999405" data-name="Trazado 999405" d="M424.263,495.332l6.615-1.3.461,2.34-4.275.843a2.385,2.385,0,0,1-2.8-1.878" transform="translate(-424.263 -494.028)" fill="#f47458"/>
                </g>
              </g>
            </g>
            <path id="Trazado_999406" data-name="Trazado 999406" d="M490.655,555.6l4.275-.843a2.385,2.385,0,1,1,.923,4.679l-4.275.843Z" transform="translate(-430.194 -486.359)" fill="#fae0b2"/>
            <path id="Trazado_999407" data-name="Trazado 999407" d="M446.546,561.924l.923,4.68-4.275.843a2.385,2.385,0,0,1-2.8-1.878h0a2.385,2.385,0,0,1,1.878-2.8Z" transform="translate(-386.085 -492.681)" fill="#f47458"/>
            <g id="Grupo_1178778" data-name="Grupo 1178778" transform="translate(60.923 70.279)" opacity="0.3" style="mix-blend-mode: multiply;isolation: isolate">
              <g id="Grupo_1178777" data-name="Grupo 1178777">
                <g id="Grupo_1178776" data-name="Grupo 1178776" clip-path="url(#clip-path-17)">
                  <path id="Trazado_999408" data-name="Trazado 999408" d="M494.4,571.63l6.615-1.3a2.385,2.385,0,0,1-1.878,2.8l-4.275.843Z" transform="translate(-494.399 -570.326)" fill="#9bc1f9"/>
                </g>
              </g>
            </g>
            <g id="Grupo_1178781" data-name="Grupo 1178781" transform="translate(54.308 71.583)" opacity="0.3" style="mix-blend-mode: multiply;isolation: isolate">
              <g id="Grupo_1178780" data-name="Grupo 1178780">
                <g id="Grupo_1178779" data-name="Grupo 1178779" clip-path="url(#clip-path-24)">
                  <path id="Trazado_999409" data-name="Trazado 999409" d="M440.717,582.215l6.615-1.3.461,2.34-4.275.843a2.385,2.385,0,0,1-2.8-1.879" transform="translate(-440.717 -580.911)" fill="#f47458"/>
                </g>
              </g>
            </g>
            <path id="Trazado_999410" data-name="Trazado 999410" d="M507.108,642.486l4.275-.843a2.385,2.385,0,1,1,.923,4.679l-4.275.843Z" transform="translate(-444.619 -562.536)" fill="#fae0b2"/>
            <path id="Trazado_999411" data-name="Trazado 999411" d="M463,648.809l.923,4.679-4.275.843a2.385,2.385,0,0,1-.923-4.679Z" transform="translate(-400.511 -568.859)" fill="#f47458"/>
            <g id="Grupo_1178784" data-name="Grupo 1178784" transform="translate(62.95 80.985)" opacity="0.3" style="mix-blend-mode: multiply;isolation: isolate">
              <g id="Grupo_1178783" data-name="Grupo 1178783">
                <g id="Grupo_1178782" data-name="Grupo 1178782" clip-path="url(#clip-path-21)">
                  <path id="Trazado_999412" data-name="Trazado 999412" d="M510.852,658.513l6.615-1.3a2.385,2.385,0,0,1-1.878,2.8l-4.275.843Z" transform="translate(-510.852 -657.209)" fill="#9bc1f9"/>
                </g>
              </g>
            </g>
            <g id="Grupo_1178787" data-name="Grupo 1178787" transform="translate(56.335 82.289)" opacity="0.3" style="mix-blend-mode: multiply;isolation: isolate">
              <g id="Grupo_1178786" data-name="Grupo 1178786">
                <g id="Grupo_1178785" data-name="Grupo 1178785" clip-path="url(#clip-path-24)">
                  <path id="Trazado_999413" data-name="Trazado 999413" d="M457.17,669.1l6.615-1.3.461,2.34-4.275.843a2.385,2.385,0,0,1-2.8-1.878" transform="translate(-457.17 -667.795)" fill="#f47458"/>
                </g>
              </g>
            </g>
            <path id="Trazado_999414" data-name="Trazado 999414" d="M101.574,259.407l-12.33,10.586a2.564,2.564,0,0,0-.275,3.616l6.655,7.751a2.564,2.564,0,0,0,3.616.275l12.33-10.586a2.564,2.564,0,0,0,.275-3.616l-6.655-7.752a2.564,2.564,0,0,0-3.616-.275" transform="translate(-77.463 -226.899)" fill="#f47458"/>
            <path id="Trazado_999415" data-name="Trazado 999415" d="M118.567,371.626h0a.69.69,0,0,1-.972-.074l-6.4-7.456a.69.69,0,1,1,1.046-.9l6.4,7.456a.69.69,0,0,1-.074.973" transform="translate(-97.345 -318.232)" fill="#b75742"/>
            <path id="Trazado_999416" data-name="Trazado 999416" d="M141.39,352.03h0a.689.689,0,0,1-.972-.074l-6.4-7.456a.69.69,0,1,1,1.046-.9l6.4,7.456a.69.69,0,0,1-.074.973" transform="translate(-117.356 -301.05)" fill="#b75742"/>
            <path id="Trazado_999417" data-name="Trazado 999417" d="M164.214,332.435h0a.69.69,0,0,1-.972-.074l-6.4-7.456a.69.69,0,1,1,1.047-.9l6.4,7.456a.69.69,0,0,1-.074.973" transform="translate(-137.367 -283.87)" fill="#b75742"/>
            <path id="Trazado_999418" data-name="Trazado 999418" d="M187.038,312.839h0a.69.69,0,0,1-.973-.074l-6.4-7.456a.69.69,0,0,1,1.047-.9l6.4,7.456a.69.69,0,0,1-.074.972" transform="translate(-157.378 -266.688)" fill="#b75742"/>
            <path id="Trazado_999419" data-name="Trazado 999419" d="M209.862,293.243h0a.69.69,0,0,1-.973-.074l-6.4-7.456a.69.69,0,1,1,1.047-.9l6.4,7.456a.69.69,0,0,1-.074.973" transform="translate(-177.39 -249.507)" fill="#b75742"/>
            <path id="Trazado_999420" data-name="Trazado 999420" d="M427.036,638.229l-23.215,19.932a.944.944,0,0,1-1.331-.1l-.371-.432a.944.944,0,0,1,.1-1.331l23.215-19.932a.944.944,0,0,1,1.331.1l.371.432a.944.944,0,0,1-.1,1.331" transform="translate(-352.368 -557.749)" fill="#fae0b2"/>
            <path id="Trazado_999421" data-name="Trazado 999421" d="M136.332,296.844l-1.455,1.25-1.356-1.579a.776.776,0,0,1,.083-1.094.776.776,0,0,0,.083-1.094l-2.112-2.459a.776.776,0,0,0-1.094-.083l-22.7,19.486a.776.776,0,0,0-.083,1.094l2.112,2.459a.776.776,0,0,0,1.094.083.776.776,0,0,1,1.094.083l1.356,1.579-1.455,1.249a5.711,5.711,0,0,0-.613,8.053l25.018,29.139a5.711,5.711,0,0,0,8.054.613l24.429-20.974a5.711,5.711,0,0,0,.613-8.054l-25.018-29.139a5.711,5.711,0,0,0-8.053-.613" transform="translate(-94.267 -255.664)" fill="#f7cc7f"/>
            <path id="Trazado_999422" data-name="Trazado 999422" d="M234.043,414.971l-22.126,19a3,3,0,0,1-4.237-.322l-10.125-11.792a3,3,0,0,1,.322-4.237l22.126-19a3,3,0,0,1,4.237.322l10.124,11.792a3,3,0,0,1-.322,4.237" transform="translate(-172.575 -348.864)" fill="#fff"/>
            <path id="Trazado_999423" data-name="Trazado 999423" d="M231.377,567.235l-.985.845-2.881-.965a5.664,5.664,0,0,0-.719-.2,2.359,2.359,0,0,0-.585-.049,1.422,1.422,0,0,0-.5.116,1.871,1.871,0,0,0-.465.3l-.679.583,2.579,3-.827.71-6.062-7.061,2.107-1.809a3.959,3.959,0,0,1,.954-.618,2.521,2.521,0,0,1,.982-.231,2.158,2.158,0,0,1,.956.2,2.572,2.572,0,0,1,.871.685,2.618,2.618,0,0,1,.47.772,2.328,2.328,0,0,1,.156.82,2.518,2.518,0,0,1-.139.834,3.309,3.309,0,0,1-.421.819l.017.02a1.971,1.971,0,0,1,.462-.084,2.235,2.235,0,0,1,.454.025,4.184,4.184,0,0,1,.5.112q.266.076.607.184Zm-9.654-2.677,2.2,2.56,1.123-.964a2.245,2.245,0,0,0,.493-.586,1.75,1.75,0,0,0,.225-.659,1.6,1.6,0,0,0-.067-.686,1.891,1.891,0,0,0-.38-.662,1.46,1.46,0,0,0-1.126-.569,2.078,2.078,0,0,0-1.334.594Z" transform="translate(-193.112 -492.625)" fill="#b75742"/>
            <path id="Trazado_999424" data-name="Trazado 999424" d="M283.732,507.875l-1.009.867-3.946-1.308a3.181,3.181,0,0,1-.463-.21l-.02.017q.048.155.133.493l.647,4.141-1.014.871-.685-5.579-5.191-1.642,1.014-.871,3.573,1.243a6.563,6.563,0,0,1,.674.277l.02-.017a7.156,7.156,0,0,1-.164-.749l-.612-3.751.95-.816.785,5.408Z" transform="translate(-238.645 -439.124)" fill="#b75742"/>
            <rect id="Rectángulo_455356" data-name="Rectángulo 455356" width="13.205" height="0.903" transform="matrix(0.76, -0.65, 0.65, 0.76, 40.015, 60.842)" fill="#9bc1f9"/>
            <rect id="Rectángulo_455357" data-name="Rectángulo 455357" width="13.205" height="0.903" transform="matrix(0.76, -0.65, 0.65, 0.76, 42.938, 64.246)" fill="#9bc1f9"/>
            <rect id="Rectángulo_455358" data-name="Rectángulo 455358" width="13.205" height="0.903" transform="translate(45.86 67.65) rotate(-40.545)" fill="#9bc1f9"/>
            <rect id="Rectángulo_455359" data-name="Rectángulo 455359" width="30.184" height="0.903" transform="translate(35.881 82.092) rotate(-40.545)" fill="#9bc1f9"/>
            <path id="Trazado_999425" data-name="Trazado 999425" d="M110.611,315.065,133.8,295.151a.775.775,0,0,0-.118-.824l-2.112-2.459a.776.776,0,0,0-1.094-.083l-22.7,19.486a.776.776,0,0,0-.083,1.094l2.112,2.459a.776.776,0,0,0,.8.241" transform="translate(-94.266 -255.665)" fill="#fae0b2"/>
            <g id="Grupo_1178790" data-name="Grupo 1178790" transform="translate(24.671 35.932)" opacity="0.5" style="mix-blend-mode: multiply;isolation: isolate">
              <g id="Grupo_1178789" data-name="Grupo 1178789">
                <g id="Grupo_1178788" data-name="Grupo 1178788" clip-path="url(#clip-path-29)">
                  <path id="Trazado_999426" data-name="Trazado 999426" d="M217.6,296.844l-1.455,1.25-1.356-1.579a.776.776,0,0,1,.083-1.094.776.776,0,0,0,.083-1.094l-2.112-2.459a.776.776,0,0,0-1.094-.083l-11.544,9.912L237.651,345.3l12.411-10.656a5.711,5.711,0,0,0,.613-8.054l-25.018-29.139a5.711,5.711,0,0,0-8.053-.613" transform="translate(-200.209 -291.596)" fill="#f7cc7f"/>
                </g>
              </g>
            </g>
            <path id="Trazado_999427" data-name="Trazado 999427" d="M66.862,746.3s-24.731,12.589-32.42,12.185-4.213-5.661-4.213-5.661-15.3,2.429-18.009-1.545S16.3,745.2,16.3,745.2-.712,741.4.024,737.744c1.371-6.806,20.34-3.613,20.34-3.613s-7.084-2.934-4.3-6.249c4.191-5,17.494,5.28,17.494,5.28s-4.722-4.448-.695-6.339c7.226-3.393,34,19.479,34,19.479" transform="translate(-0.001 -636.958)" fill="#81b4da"/>
            <path id="Trazado_999428" data-name="Trazado 999428" d="M31.789,705.631c-3.2,1.437-1.043,6.86-1.043,6.86s-10.331-8.108-14.522-3.108c-2.779,3.315,4.3,6.249,4.3,6.249S1.56,712.439.189,719.245l66.636,8.371c-3.126-2.629-28.7-24.832-35.036-21.985" transform="translate(-0.166 -618.459)" fill="#d2e7f3"/>
            <path id="Trazado_999429" data-name="Trazado 999429" d="M218.788,882.3S208.626,900.123,203.666,903s-4.928-1.819-4.928-1.819-8.557,7.733-11.861,6.354.044-5.4.044-5.4-12.126,4.485-13.151,1.907c-1.911-4.8,11.218-10.518,11.218-10.518s-5.611,1.048-5.224-2.149c.583-4.821,13.057-3.815,13.057-3.815s-2.339-1.232-.6-4.048c3.128-5.053,26.563-1.208,26.563-1.208" transform="translate(-152.191 -772.355)" fill="#81b4da"/>
            <path id="Trazado_999430" data-name="Trazado 999430" d="M190.678,876.293c-1.743,2.816,2.035,5.291,2.035,5.291s-14.119-2.085-14.7,2.736c-.386,3.2,5.812,3.706,5.812,3.706s-12.071,5.239-10.161,10.041l44.965-21.856c-3.018-.37-25.027-4.637-27.949.082" transform="translate(-152.083 -766.378)" fill="#d2e7f3"/>
            <path id="Trazado_999431" data-name="Trazado 999431" d="M2505.48,839.9s30.127-19.34,34.686-28.166-3.559-8.378-3.559-8.378,12.672-15.458,10.01-21.061-9.433.578-9.433.578,6.85-21.415,2.3-22.976c-8.472-2.907-17.272,20.3-17.272,20.3s1.347-9.8-4.155-8.864c-8.3,1.411-5.515,22.92-5.515,22.92s-1.877-8.155-6.607-4.9c-8.485,5.836-.456,50.553-.456,50.553" transform="translate(-2193.726 -666.033)" fill="#81b4da"/>
            <path id="Trazado_999432" data-name="Trazado 999432" d="M2494.285,786.214c3.683-2.625,8.318,3.306,8.318,3.306s-2.3-16.785,6-18.2c5.5-.936,4.155,8.864,4.155,8.864s8.8-23.2,17.272-20.3l-34.081,79.657c-.892-5.193-8.958-48.134-1.661-53.335" transform="translate(-2184.269 -666.033)" fill="#d2e7f3"/>
            <path id="Trazado_999433" data-name="Trazado 999433" d="M2529.163,1148.786s26.442,1.052,32.975-2.414,1.375-6.635,1.375-6.635,14.309-4.082,15.057-8.639-5.934-3.637-5.934-3.637,13.191-10.206,11.07-13.09c-3.95-5.371-19.174,5.091-19.174,5.091s4.98-5.424,1.218-7.185c-5.675-2.656-13.1,11.682-13.1,11.682s.25-3.4-4.023-3.417c-7.667-.028-19.468,28.244-19.468,28.244" transform="translate(-2217.504 -974.927)" fill="#81b4da"/>
            <path id="Trazado_999434" data-name="Trazado 999434" d="M2547.6,1100.378c4.272.016,4.4,5.842,4.4,5.842s7.364-16.876,13.038-14.22c3.763,1.761.085,8.892.085,8.892s13.98-9.632,17.93-4.26l-54.635,34.278c1.657-3.555,12.022-30.557,19.184-30.531" transform="translate(-2216.852 -957.188)" fill="#d2e7f3"/>
            <path id="Trazado_999435" data-name="Trazado 999435" d="M565.451,194.338c7.951-33.724,19.1-103.186,5.8-112.935-17.665-12.948-31.86,8.632-45.739-8.505-6.053-7.474-6.588-10.825-19.1-16.918-17.575-8.559-30.822-.181-49.141-15.326C420.475,10.237,324.7,18.587,325.82,74.615c.6,29.95-26.038,20.632-25.539,47.792.151,8.2,14.615,17.138-3.47,37.449-8.861,9.952-8.584,23.377-6,34.483Z" transform="translate(-253.595 -20.393)" fill="#eafcfc"/>
            <path id="Trazado_999436" data-name="Trazado 999436" d="M1902.164,1092.231c-.333-.708,3.177-1.671,3.291-2.434s-4.593-.333-4.828-.968c-.435-1.17,5.124-.788,4.958-1.339s-5.879-1.228-5.376-2.255,5.851,1.32,5.937.649-5.169-1.735-5.227-3.18c-.031-.772,8.75,2.959,9.669,2.442s-1.453-3.915-.742-4.529,3.793,6.492,4.35,6.7,12.6,3.85,16.7,4.454c.346-1.387,3.427-9.021,3.723-10.33,2.405,1.362,5.47-.277,7.933.936-1.24,4.371-4.022,18.766-5.134,19.414-3.386,1.974-21.2-7.437-24.146-9.1s-4.453-.871-6.373-1.3-4.4,1.546-4.735.838" transform="translate(-1666.027 -947.424)" fill="#f7a491"/>
            <path id="Trazado_999437" data-name="Trazado 999437" d="M1110.945,695.414c.927-8.758-4.065-16.842-12.283-19.234a18.473,18.473,0,0,0-6.646-12.579c-7.377-5.911-20.189-8.247-24.272.655-6.151,4.272-10.486,12.615-7.821,19.544-5.667,7.049-2.094,18.4,7.67,22.946.582,7.206,5.186,13.96,11.916,16.383a43.063,43.063,0,0,1,4.467,1.654c-.439-.331,6.141,13.212,21.5,5.153,15.678-8.224,16.983-27.035,5.464-34.523" transform="translate(-926.944 -577.23)" fill="#355389"/>
            <path id="Trazado_999438" data-name="Trazado 999438" d="M1382.383,1143.348c.474-.732-3.271-2.415-3.283-3.285s5.135.423,5.491-.245c.655-1.231-5.558-1.765-5.293-2.352s6.693-.353,6.289-1.587-6.676.461-6.671-.3,5.983-1.042,6.261-2.645c.149-.856-10.129,1.788-11.072,1.052s2.191-4.117,1.494-4.927-5.171,7.189-5.818,7.324-14.584,3.926-19.212,3.891c-.177-1.608-2.114-10.4-2.248-11.909-2.866,1.1-5.794.735-8.7,1.663.723,5.092,4.285,18.1,5.421,19.015,3.457,2.788,21.463-5.757,24.971-7.106s5.061-.2,7.25-.343,4.646,2.487,5.119,1.754" transform="translate(-1174.545 -989.321)" fill="#f48c7f"/>
            <path id="Trazado_999439" data-name="Trazado 999439" d="M1281,971.1c7.9,2.678,11.6,21.593,11.6,21.593s-12.392,3.46-15.567,1.645c0,0-3.6-15.975-4.9-15.417Z" transform="translate(-1115.381 -851.435)" fill="#eab054"/>
            <path id="Trazado_999440" data-name="Trazado 999440" d="M1120.432,1006.728h28.943c.28-3.389,1.522-28.761,1.628-30.516.28-12.281-1.337-22.26-4.373-23.541a92.22,92.22,0,0,0-8.83-2.844h0c-3.289-.024-13.391,1.649-17.946,2.621-.824.176-1.6,4.174-1.6,4.174l.992,14.493c4.317,20.229,1.875,32.758,1.185,35.614" transform="translate(-980.457 -832.783)" fill="#f7cc7f"/>
            <path id="Trazado_999441" data-name="Trazado 999441" d="M1205.022,860.158s1.406,7.275,1.125,10.145,1.073,12.119,7.147,12.149,1.153-11.759.581-14.571-.708-11.517-.708-11.517Z" transform="translate(-1056.532 -750.838)" fill="#f7a491"/>
            <path id="Trazado_999442" data-name="Trazado 999442" d="M1213.292,860.732c-.095-2.381-.126-4.368-.126-4.368l-8.146,3.794s.288,1.488.577,3.383a7.113,7.113,0,0,0,7.694-2.81" transform="translate(-1056.531 -750.838)" fill="#f47458"/>
            <path id="Trazado_999443" data-name="Trazado 999443" d="M1174.29,714.715a10.091,10.091,0,0,0-5.807,3.882c-2.279,3.219-4.111,12.873,2.842,17.66s12.719-1.423,13.035-7.672-.723-14.639-10.07-13.871" transform="translate(-1022.697 -626.6)" fill="#f7a491"/>
            <path id="Trazado_999444" data-name="Trazado 999444" d="M1300.521,787.478c-.661,1.487-1.9,2.38-2.766,1.994s-1.032-1.9-.37-3.389,1.9-2.38,2.766-1.994,1.032,1.9.37,3.389" transform="translate(-1137.159 -687.39)" fill="#f7a491"/>
            <path id="Trazado_999445" data-name="Trazado 999445" d="M1147.365,713.627s-4.821,9.846-8.773,10.6-4.076,5.79-4.076,5.79.506-11.624,4.275-14.159a15.46,15.46,0,0,1,8.574-2.229" transform="translate(-994.714 -625.68)" fill="#355389"/>
            <path id="Trazado_999446" data-name="Trazado 999446" d="M1149.828,799.485c.457,1.644-.072,3.227-1.183,3.536s-2.382-.773-2.84-2.416.072-3.227,1.183-3.536,2.382.772,2.84,2.416" transform="translate(-1004.468 -698.804)" fill="#f7a491"/>
            <path id="Trazado_999447" data-name="Trazado 999447" d="M1093.208,970.544c-6.744,4.226-8.52,23.375-8.52,23.375s12.8,1.309,15.621-1.017c0,0-1.067-16.385.3-16.054Z" transform="translate(-951.026 -850.948)" fill="#f7cc7f"/>
            <path id="Trazado_999448" data-name="Trazado 999448" d="M1240.1,856.364l-5.5.608a2.445,2.445,0,0,0,2.792,1.918c2.961-.239,2.713-2.527,2.713-2.527" transform="translate(-1082.463 -750.838)" fill="#fff"/>
            <path id="Trazado_999449" data-name="Trazado 999449" d="M800.471,981.638s-10.912-6.61-14.48-11.713,1.95-2.057,7.155-3.932c1.971-.71.437-12.488,4.583-8.975,6.8,5.763,13,17.841,13,17.841Z" transform="translate(-688.141 -838.517)" fill="#d66350"/>
            <path id="Trazado_999450" data-name="Trazado 999450" d="M735.226,793.661s-.029.328-.084.888c-.262,2.683-1.393,11.608-2.461,14.128-1.291,3.044,6.338,11.736,12.809,10.034,1.926-.507-2.392-8.386-2.293-9.269.188-1.69.442-4,.7-6.359.146-1.333.294-2.685.433-3.956.4-3.61.717-6.563.717-6.563Z" transform="translate(-642.269 -694.9)" fill="#f7a491"/>
            <path id="Trazado_999451" data-name="Trazado 999451" d="M656.142,985.831c-.186-10.579-.559-28.7-.966-31.751-.582-4.356-6.924-21.845-8.427-23.65s-15.2-4.207-15.2-4.207-11.639-1.809-16.7,4.693c-2.957,3.8-2.451,37.826-2,54.915Z" transform="translate(-537.028 -811.886)" fill="#f47458"/>
            <path id="Trazado_999452" data-name="Trazado 999452" d="M906.141,891.476a5.7,5.7,0,0,1,6.9,1.876c3.05,3.78,1.6,3.551,3.093,5.444s4.741,1.105,5.093,4.263-1.067,3.813-1.067,3.813a5.408,5.408,0,0,1,.415,5c-1.192,2.69-4.623,5.275-7.737,5.267,0,0-4.336,3.047-9.1,2.367s-3.151-.859-5.045-.648-7.306-1.814-6.886-5.7c0,0-3.534-3.359-.844-6.725s2.92-6.506,4.22-10.771,8.738-4.934,10.952-4.187" transform="translate(-780.292 -781.203)" fill="#184655"/>
            <path id="Trazado_999453" data-name="Trazado 999453" d="M752.2,798.161c.054-.559.083-.888.083-.888l9.822-1.1s-.322,2.953-.717,6.563c-.138,1.263-.285,2.608-.431,3.933a9.263,9.263,0,0,1-4.9-1.944,12.438,12.438,0,0,1-4.018-4.976c.068-.632.122-1.175.163-1.592" transform="translate(-659.368 -698.067)" fill="#f47458"/>
            <path id="Trazado_999454" data-name="Trazado 999454" d="M955.9,1102.524l-4.749,2.424,1.254,9.065,5.311.316Z" transform="translate(-833.941 -966.665)" fill="#89a6e5"/>
            <path id="Trazado_999455" data-name="Trazado 999455" d="M1013.744,1044.6s.654,5.587.174,6.158a2.052,2.052,0,0,0-.25,2.777c.89,1.269,4.174.125,5.673-.775a7.425,7.425,0,0,0,2.29-2.314l-1.552-8.8Z" transform="translate(-888.372 -913.284)" fill="#f7a491"/>
            <path id="Trazado_999456" data-name="Trazado 999456" d="M966.106,1140.61a26.065,26.065,0,0,0-.991-9.922c-2.251-7.09-3.076-11.394-3.3-14.024-2.779-11.03-5.719-14.078-5.719-14.078-2.461-.019-6.945.272-6.945.272s-4.741-.316-7.707-.334c-1.681-.01-7.7,29.406-6.661,38.086Z" transform="translate(-819.484 -966.665)" fill="#9bc1f9"/>
            <path id="Trazado_999457" data-name="Trazado 999457" d="M1024.631,1046.654l-.884-5.013-6.334,2.958a10,10,0,0,1,.153,1.536c.032.485,3.439,2.4,7.065.519" transform="translate(-892.041 -913.284)" fill="#f47458"/>
            <path id="Trazado_999458" data-name="Trazado 999458" d="M705.494,1163.994l10.976-2.231s2.643,9.082,3.149,10.062c0,0,20.635-.237,28.789-1.226l2.981,5.909c-1.577.233-2.9.305-3.667.453-1.5.289-25.38,5.217-25.38,5.217s-9.621,1.547-10.726.153-6.121-18.338-6.121-18.338" transform="translate(-618.559 -1018.604)" fill="#f7a491"/>
            <path id="Trazado_999459" data-name="Trazado 999459" d="M622.418,972.644s-12.244-22.544-13-29.119,5.264-14.274,11.042-13.288S636,965.487,636,965.487Z" transform="translate(-534.261 -815.533)" fill="#d66350"/>
            <path id="Trazado_999460" data-name="Trazado 999460" d="M961.513,987.1s-.525-3.267-2.471-2.4.144,5.649,1.8,5.3.673-2.9.673-2.9" transform="translate(-840.175 -863.229)" fill="#f7a491"/>
            <path id="Trazado_999461" data-name="Trazado 999461" d="M975.781,912.2a6,6,0,0,1,5.037,1.854c1.888,2.276,4.424,9.1,2.3,14.235s-5.662,4.325-7.12,3.991-4.351-1.113-6.259-5.482-2.025-14.656,6.044-14.6" transform="translate(-849.299 -799.767)" fill="#f7a491"/>
            <path id="Trazado_999462" data-name="Trazado 999462" d="M747.725,624.477c-.284-.161-5.042,15.261-1.732,20.275s10.932,7.746,14.322,4.8c3.749-3.261,6.421-20.244.894-25.755s-13.484.683-13.484.683" transform="translate(-653.044 -544.923)" fill="#f7a491"/>
            <path id="Trazado_999463" data-name="Trazado 999463" d="M710.529,568.3a17.659,17.659,0,0,0-10.011,3.689c-2.244-.107-5.439.61-9.382,5.21-4.848,5.656-3.205,13.092.647,17.249s3.936,7.63,3.936,7.63a41.319,41.319,0,0,0,1.592-6.18,9.533,9.533,0,0,0-.233-3.012c-.683-2.461,2.919-3.419,4.174-5.162.967-1.342,1.56-4.683,3.1-6.91l1.668-1.619s3.545-1.918,6.5-.717,4.438-10.408-1.994-10.177" transform="translate(-603.345 -498.272)" fill="#0e2e35"/>
            <path id="Trazado_999464" data-name="Trazado 999464" d="M759.862,721.355c-.289,1.93-1.427,3.36-2.541,3.194s-1.784-1.866-1.495-3.8,1.427-3.36,2.542-3.194,1.784,1.866,1.495,3.8" transform="translate(-662.63 -629.125)" fill="#f7a491"/>
            <path id="Trazado_999465" data-name="Trazado 999465" d="M836.158,793.42l6.133.7a2.7,2.7,0,0,1-3.113,2.084c-3.3-.28-3.02-2.783-3.02-2.783" transform="translate(-733.117 -695.65)" fill="#fff"/>
            <rect id="Rectángulo_455361" data-name="Rectángulo 455361" width="4.269" height="9.696" transform="translate(115.553 163.925) rotate(-53.653)" fill="#466eb6"/>
            <path id="Trazado_999466" data-name="Trazado 999466" d="M927.444,1291.7l-.316.112.019.186-.211.074.019.186-.21.075.019.186-.21.075.019.186-.21.074.019.186-.21.075.019.186-.21.074.019.186-.21.075.019.186-.21.074.019.186-.21.075.019.186-.21.075.019.186-.21.074.019.186-.21.074.019.186-.211.074.019.186-.21.075.019.186-.21.075.03.3-.009.013h.011v.009l.026-.009,1.015-.014.588.433,2.53-3.438-.588-.433-.4-.874-.01.013Z" transform="translate(-810.36 -1132.531)" fill="#13375b"/>
            <path id="Trazado_999467" data-name="Trazado 999467" d="M1005.176,1349.56l-.983-.143-.551-.405-2.53,3.438.551.405.318.995v.028h.009l0,.01.01-.013.3-.056,0-.226.188-.034,0-.226.188-.034,0-.227.188-.034,0-.226.188-.034,0-.226.188-.034,0-.227.188-.034,0-.226.188-.034,0-.226.188-.034,0-.226.188-.034,0-.227.188-.034,0-.227.188-.034,0-.227.188-.034,0-.227.188-.034,0-.226.188-.034,0-.226.188-.034.006-.34-.022,0Z" transform="translate(-877.749 -1182.779)" fill="#13375b"/>
            <rect id="Rectángulo_455362" data-name="Rectángulo 455362" width="2.465" height="7.528" transform="matrix(0.593, -0.805, 0.805, 0.593, 116.951, 163.834)" fill="#50bfa5"/>
            <path id="Trazado_999468" data-name="Trazado 999468" d="M937.734,1305.817l1.4-.09,1.461-1.986-.329-1.362Z" transform="translate(-822.181 -1141.892)" fill="#355389"/>
            <path id="Trazado_999469" data-name="Trazado 999469" d="M998.633,1352.451l-.348-1.375,1.461-1.985,1.417-.078Z" transform="translate(-875.27 -1182.779)" fill="#355389"/>
            <path id="Trazado_999470" data-name="Trazado 999470" d="M1029,1025.961l4.862-.8a2.154,2.154,0,0,1-1.937,2.278c-2.595.5-2.925-1.479-2.925-1.479" transform="translate(-902.198 -898.837)" fill="#fff"/>
            <path id="Trazado_999471" data-name="Trazado 999471" d="M1068.832,1175.564c-1.062.609-3.139,1.762-3.234,1.511-.082-.217,1.369-1,2.975-2.223l-.546-1.495c-.409.255-.833.454-1.193.685a16.106,16.106,0,0,1-1.845,1.14c-.006-.08-.317-.1.2-.572s1.72-1.185,2.59-1.937c-.188-.514-.378-1.031-.565-1.54-.1.094-.157.154-.157.154s-2.7,1.69-2.955,1.292c-.1-.165,1.344-1.349,2.627-2.767-.224-.608-.437-1.183-.63-1.7-.216.21-.425.409-.553.518-.422.363-1.77,1.347-1.77,1.347s-4.854,3.2-5.061,2.8a2.955,2.955,0,0,1-.118-1.927c.23-.307.948-.633,1.178-.941a1.012,1.012,0,0,0-.086-1.254c-.355-.332-2.037.7-2.037.7a6.059,6.059,0,0,0-1.878,1.849,25.922,25.922,0,0,0-2.029,4.965l2.858,5.926c1.093-.22,3.38-.687,4.963-1.056a17.832,17.832,0,0,0,4.517-2.2,18.068,18.068,0,0,0,3.195-2.053c-.135-.369-.283-.777-.442-1.212" transform="translate(-923.894 -1024.168)" fill="#f8a492"/>
            <path id="Trazado_999472" data-name="Trazado 999472" d="M975.686,1181.549s1.866,5.605,1.954,6.289c0,0-10.032,6.429-14.582,8.823-.059.022-.118.045-.178.066-.1.035-.205.115-.316.038-.5-.342-2.291-1.363-3.081-1.771a1.684,1.684,0,0,0-.7-.186l-1.557-.069.768.765a.64.64,0,0,1,.018.88l0,.005a2.97,2.97,0,0,1-.85.574,3.5,3.5,0,0,0-1.068.928.866.866,0,0,0,.069,1.167,2.966,2.966,0,0,1,.581.686c.187.455,2.939,3.59,3.731,3.372a12.071,12.071,0,0,0,2.546-1.752,3.786,3.786,0,0,1,1.348-.84,2.441,2.441,0,0,0,.3-.135h0c3.476-1.482,15.247-6.264,15.247-6.264s5.494-2.621,5.567-3.729-3.364-11.6-3.364-11.6Z" transform="translate(-838.105 -1033.541)" fill="#f48c7f"/>
            <path id="Trazado_999473" data-name="Trazado 999473" d="M1092.284,1115.467s-8.925,3.24-11.225,3.083c0,0-3-11.219-3.161-11.921-.737-3.177.783-5.05,2.129-5.806,6.184-3.471,12.256,14.644,12.256,14.644" transform="translate(-944.905 -964.786)" fill="#89a6e5"/>
            <path id="Trazado_999474" data-name="Trazado 999474" d="M2147.348,663.883c3.832-1.642,8.121-3.307,12.05-1.912,2.475.879,4.379,2.846,6.188,4.75,1.983,2.087,4.089,4.462,4.138,7.34a10.517,10.517,0,0,1-.678,3.428,19.831,19.831,0,0,1-2.983,6.114c-2.275,2.911-5.77,4.638-9.329,5.632-3.149.879-3.931.569-7.2.428-2.205-.1-5.7-3.6-7.132-5.28-2.275-2.67-2.077-14.239.323-17.156a12.582,12.582,0,0,1,2.554-2.217,20.533,20.533,0,0,1,2.028-1.225c.014.035.027.068.039.1" transform="translate(-1877.003 -579.942)" fill="#13375b"/>
            <path id="Trazado_999475" data-name="Trazado 999475" d="M2168.989,1001.821c-.7-3.7-2.466-13.335-2.469-17.253,0-4.9,4.868-34.43.855-37.752s-15.365-2.495-15.365-2.495-8.327,3.718-9.419,5.26-5.043,15.943-5.223,19.464c-.157,3.088.908,26.952,1.173,32.775Z" transform="translate(-1873.974 -827.877)" fill="#94dcf0"/>
            <path id="Trazado_999476" data-name="Trazado 999476" d="M2225.673,846.371s.046.26.13.7c.4,2.127,1.934,9.181,2.972,11.121,1.254,2.344-4.292,9.819-9.63,8.907-1.589-.272,1.283-7.168,1.142-7.867-.27-1.338-.575-2.863-.949-4.734-.211-1.055-.425-2.126-.626-3.132-.571-2.858-1.037-5.2-1.037-5.2Z" transform="translate(-1944.4 -741.904)" fill="#f7a491"/>
            <path id="Trazado_999477" data-name="Trazado 999477" d="M2225.8,847.076c-.083-.443-.13-.7-.13-.7l-8-.2s.465,2.338,1.037,5.2c.2,1,.412,2.064.622,3.114a7.529,7.529,0,0,0,3.819-1.893,9.979,9.979,0,0,0,2.893-4.255c-.1-.5-.181-.931-.243-1.261" transform="translate(-1944.4 -741.904)" fill="#f47458"/>
            <path id="Trazado_999478" data-name="Trazado 999478" d="M2183.576,696.783a7.256,7.256,0,0,1,6.134,2.592c2.363,3.023,4.91,12.37-.96,17.452s-11.671-.671-12.531-6.77-1.194-13.495,7.358-13.275" transform="translate(-1907.686 -610.903)" fill="#f7a491"/>
            <path id="Trazado_999479" data-name="Trazado 999479" d="M2235.474,688.154s5.037,8.889,8.64,9.3,4.076,5.134,4.076,5.134-1.288-10.884-4.855-12.983a13.381,13.381,0,0,0-7.861-1.451" transform="translate(-1960.005 -603.273)" fill="#13375b"/>
            <path id="Trazado_999480" data-name="Trazado 999480" d="M2295.081,765.207c-.334,1.571.3,3.036,1.412,3.273s2.288-.844,2.622-2.415-.3-3.036-1.412-3.273-2.288.844-2.622,2.415" transform="translate(-2012.189 -668.767)" fill="#f7a491"/>
            <path id="Trazado_999481" data-name="Trazado 999481" d="M2229.617,943.732l2.637,1.34-5.491,4.856.907.433-9.035,5.119Z" transform="translate(-1945.242 -827.44)" fill="#c5eff9"/>
            <path id="Trazado_999482" data-name="Trazado 999482" d="M2214.409,952.169l-3.1,1.655,1.271,1.228-1.6.486.945,7.34Z" transform="translate(-1938.522 -834.838)" fill="#c5eff9"/>
            <path id="Trazado_999483" data-name="Trazado 999483" d="M2222.164,1004.654a3.507,3.507,0,0,1-2.526-.53l-1,4.306Z" transform="translate(-1945.242 -880.39)" fill="#13375b"/>
            <path id="Trazado_999484" data-name="Trazado 999484" d="M2129.121,1100.414l-22.915,3.352a1.26,1.26,0,0,0-1.064,1.43l4.472,30.571a1.261,1.261,0,0,0,1.43,1.065l22.915-3.352a1.26,1.26,0,0,0,1.065-1.429l-4.472-30.571a1.26,1.26,0,0,0-1.43-1.065" transform="translate(-1845.722 -964.803)" fill="#184655"/>
            <path id="Trazado_999485" data-name="Trazado 999485" d="M2161.114,1100.548a.256.256,0,0,1,.216-.29l9.558-1.4a.256.256,0,0,1,.29.216l.145.994-10.063,1.472Z" transform="translate(-1894.806 -963.45)" fill="#13375b"/>
            <path id="Trazado_999486" data-name="Trazado 999486" d="M2189.674,1096.363a1.523,1.523,0,1,0,1.287-1.728,1.524,1.524,0,0,0-1.287,1.728m.541-.079a.977.977,0,1,1,1.108.825.977.977,0,0,1-1.108-.825" transform="translate(-1919.835 -959.734)" fill="#13375b"/>
            <path id="Trazado_999487" data-name="Trazado 999487" d="M2161.234,1108.916a.256.256,0,0,0-.12.255l.146.994,10.063-1.472a1.259,1.259,0,0,1-1.064,1.428l-7.571,1.108a1.259,1.259,0,0,1-1.428-1.064l-.146-.994a.256.256,0,0,1,.12-.255" transform="translate(-1894.806 -972.073)" fill="#355389"/>
            <path id="Trazado_999488" data-name="Trazado 999488" d="M2158.063,1187.273l-8.3.849s.135,7.047-.007,7.857c0,0-14.2,3.936-20.132,5,0,0-2.7-1.531-3.795-2.018a26.517,26.517,0,0,0-4.681-1.1c-.65-.085-.428.627.13.876a5.4,5.4,0,0,1,2.411,1.762,4.509,4.509,0,0,1-1.792-.148c-.62-.276-1.474-.861-1.488-1.165s-.155-1.035-.358-.995c-.052.01-.121.25-.191.5s-.136.483-.194.724c-.1.432-.224,1.063-.271,1.347a19.58,19.58,0,0,0,.345,3.066c.1,1.157.432,1.672,1.043,1.967a15.115,15.115,0,0,0,3.569.721,24,24,0,0,0,6.552-.648c1.133-.127,19.212-1.92,19.212-1.92s7.187-1.034,7.664-2.271.285-14.4.285-14.4" transform="translate(-1858.213 -1040.97)" fill="#f7a491"/>
            <path id="Trazado_999489" data-name="Trazado 999489" d="M2323.367,960.024s2.621,1.242,4.924,6.609c2.189,5.1,2.832,30.552,2.832,30.552l-8.685-1.447-4.414-11.867a21.765,21.765,0,0,1,2.25-21.645c1.222-1.673,2.349-2.684,3.093-2.2" transform="translate(-2030.729 -841.619)" fill="#81b4da"/>
            <path id="Trazado_999490" data-name="Trazado 999490" d="M2217.6,827.943l-5.794.64a2.574,2.574,0,0,0,2.938,2.019c3.117-.252,2.856-2.659,2.856-2.659" transform="translate(-1939.25 -725.919)" fill="#fff"/>
            <path id="Trazado_999491" data-name="Trazado 999491" d="M1365.617,15.473h-5.83V10.74h-4.733V4.91h4.733V.177h5.83V4.91h4.733v5.83h-4.733Zm-5.048-.782h4.265V9.958h4.733V5.692h-4.733V.959h-4.265V5.692h-4.733V9.958h4.733Z" transform="translate(-1188.076 -0.155)" fill="#50bfa5"/>
            <path id="Trazado_999492" data-name="Trazado 999492" d="M2462.939,733.12h-5.83v-4.733h-4.733v-5.83h4.733v-4.733h5.83v4.733h4.733v5.83h-4.733Zm-5.047-.783h4.265V727.6h4.733V723.34h-4.733v-4.733h-4.265v4.733h-4.733V727.6h4.733Z" transform="translate(-2150.179 -629.37)" fill="#50bfa5"/>
            <path id="Trazado_999493" data-name="Trazado 999493" d="M1739.972,857.214h-4.662v-3.785h-3.785v-4.662h3.785v-3.785h4.662v3.785h3.785v4.662h-3.785Zm-4.036-.626h3.411V852.8h3.785v-3.411h-3.785v-3.785h-3.411v3.785h-3.785V852.8h3.785Z" transform="translate(-1518.156 -740.858)" fill="#50bfa5"/>
            <path id="Trazado_999494" data-name="Trazado 999494" d="M1507.929,407.477h-2.653v-2.154h-2.154V402.67h2.154v-2.154h2.653v2.154h2.154v2.653h-2.154Zm-2.3-.356h1.941v-2.154h2.154v-1.941h-2.154v-2.154h-1.941v2.154h-2.154v1.941h2.154Z" transform="translate(-1317.898 -351.162)" fill="#f47458"/>
            <path id="Trazado_999495" data-name="Trazado 999495" d="M438.879,1180.763l-4.657.3-.243-3.781-3.78.243-.3-4.657,3.78-.243-.243-3.781,4.657-.3.243,3.78,3.781-.243.3,4.657-3.781.243Zm-4.072-.365,3.407-.219-.243-3.781,3.781-.243-.219-3.407-3.781.243-.243-3.781-3.407.219.244,3.781-3.781.243.219,3.407,3.781-.244Z" transform="translate(-376.923 -1024.55)" fill="#f47458"/>
            <path id="Trazado_999496" data-name="Trazado 999496" d="M2486.354,1022.984a2.214,2.214,0,1,1,2.214-2.214,2.216,2.216,0,0,1-2.214,2.214m0-3.866a1.652,1.652,0,1,0,1.652,1.652,1.654,1.654,0,0,0-1.652-1.652" transform="translate(-2178.029 -893.045)" fill="#f7cc7f"/>
            <path id="Trazado_999497" data-name="Trazado 999497" d="M1066.907,6.485a3.242,3.242,0,1,1,3.242-3.242,3.245,3.245,0,0,1-3.242,3.242m0-5.661a2.419,2.419,0,1,0,2.419,2.419,2.422,2.422,0,0,0-2.419-2.419" transform="translate(-932.594 -0.002)" fill="#f47458"/>
            <path id="Trazado_999498" data-name="Trazado 999498" d="M485.615,825.614a2.154,2.154,0,1,1,2.154-2.154,2.157,2.157,0,0,1-2.154,2.154m0-3.762a1.608,1.608,0,1,0,1.608,1.608,1.61,1.61,0,0,0-1.608-1.608" transform="translate(-423.886 -720.099)" fill="#81b4da"/>
            <g id="Grupo_1178793" data-name="Grupo 1178793" transform="translate(88.817 35.723)" opacity="0.5" style="mix-blend-mode: multiply;isolation: isolate">
              <g id="Grupo_1178792" data-name="Grupo 1178792">
                <g id="Grupo_1178791" data-name="Grupo 1178791" clip-path="url(#clip-path-30)">
                  <path id="Trazado_999499" data-name="Trazado 999499" d="M722.217,292.805a1.453,1.453,0,1,1,1.453-1.453,1.455,1.455,0,0,1-1.453,1.453m0-2.538a1.085,1.085,0,1,0,1.085,1.085,1.086,1.086,0,0,0-1.085-1.085" transform="translate(-720.764 -289.899)" fill="#f47458"/>
                </g>
              </g>
            </g>
            <path id="Trazado_999500" data-name="Trazado 999500" d="M1286.743,570.646a2.419,2.419,0,1,1,2.42-2.419,2.422,2.422,0,0,1-2.42,2.419m0-4.225a1.806,1.806,0,1,0,1.806,1.806,1.808,1.808,0,0,0-1.806-1.806" transform="translate(-1126.062 -496.085)" fill="#f7cc7f"/>
            <path id="Trazado_999501" data-name="Trazado 999501" d="M1855.244,1291.717a3.242,3.242,0,1,1,3.242-3.242,3.245,3.245,0,0,1-3.242,3.242m0-5.661a2.419,2.419,0,1,0,2.419,2.419,2.422,2.422,0,0,0-2.419-2.419" transform="translate(-1623.787 -1126.859)" fill="#f47458"/>
            <path id="Trazado_999502" data-name="Trazado 999502" d="M1744.81,207.715h-56.772a5.022,5.022,0,0,0-5.013,5.03v33.188a5.022,5.022,0,0,0,5.013,5.03h39.724c2.554,3.576,7.184,9.979,7.593,9.979.383,0-.354-6.048-.873-9.979h10.328a5.022,5.022,0,0,0,5.013-5.03V212.745a5.022,5.022,0,0,0-5.013-5.03" transform="translate(-1475.633 -182.119)" fill="#f7cc7f"/>
            <path id="Trazado_999503" data-name="Trazado 999503" d="M1682.911,380.446a19.071,19.071,0,1,0,19.071-19.071,19.07,19.07,0,0,0-19.071,19.071" transform="translate(-1475.533 -316.844)" fill="#fae0b2"/>
            <path id="Trazado_999504" data-name="Trazado 999504" d="M1682.957,389.393a19.779,19.779,0,1,1,13.986,5.793,19.649,19.649,0,0,1-13.986-5.793m-4.377-13.986a18.362,18.362,0,1,0,18.362-18.363,18.383,18.383,0,0,0-18.362,18.363" transform="translate(-1470.494 -311.806)" fill="#f7cc7f"/>
            <path id="Trazado_999505" data-name="Trazado 999505" d="M1746.54,457.8c4.983-3.468,7.333,3.551,7.333,3.551s2.35-7.019,7.333-3.551c4.728,3.29-.517,12.807-7.333,16.112-6.817-3.3-12.061-12.821-7.333-16.112" transform="translate(-1529.73 -400.548)" fill="#d66350"/>
            <path id="Trazado_999506" data-name="Trazado 999506" d="M1791.825,490.431l1.077-6.611h2.985l.512,3.66,2.094-7.62,1.957,4.84h2.943v-.464h-2.631l-2.353-5.821-1.863,6.777-.257-1.836h-3.783l-.7,4.3-1.659-9.423-1.385,5.625h-7.5v.464h7.861l.946-3.843Z" transform="translate(-1561.767 -419.303)" fill="#fff"/>
            <path id="Trazado_999507" data-name="Trazado 999507" d="M2043.355,139.555a21.8,21.8,0,1,1-21.8-21.8,21.8,21.8,0,0,1,21.8,21.8" transform="translate(-1753.337 -103.247)" fill="#fae0b2"/>
            <path id="Trazado_999508" data-name="Trazado 999508" d="M2015.8,156.4a22.608,22.608,0,1,1,15.986-6.622A22.46,22.46,0,0,1,2015.8,156.4m0-43.6a20.989,20.989,0,1,0,20.989,20.989,21.013,21.013,0,0,0-20.989-20.989" transform="translate(-1747.578 -97.488)" fill="#f7cc7f"/>
            <path id="Trazado_999509" data-name="Trazado 999509" d="M2078.392,255.433c-1.919-3.967-3.56-7.741-3.5-12.009a5.219,5.219,0,0,1,5.128-5.543c7.154-.512,14.313-.2,21.472-.059,1.322.026,1.107.861.828,1.614-.8,2.142-2.323,3.823-3.612,5.663-2.125,3.035-5.262,3.567-8.582,3.78a32.471,32.471,0,0,0-3.567.2,10.631,10.631,0,0,0-7.128,4.741c-.308.445-.589.909-1.043,1.613" transform="translate(-1819.213 -208.321)" fill="#d66350"/>
            <path id="Trazado_999510" data-name="Trazado 999510" d="M2143.511,340.268c-4.106,3.708-8.691,6.375-14.285,6.971-.878.094-.933-.243-.563-.916a9.817,9.817,0,0,1,8.129-5.56c2.228-.172,4.47-.147,6.719-.494" transform="translate(-1866.167 -298.338)" fill="#d66350"/>
            <path id="Trazado_999511" data-name="Trazado 999511" d="M2159.969,189.917l-3.1,9.127,2.508-.468-2.835,6.487,7.489-8.082-3.067-.346,4.421-5.623Z" transform="translate(-1890.804 -166.515)" fill="#fff"/>
            <path id="Trazado_999512" data-name="Trazado 999512" d="M1646.816,108.039a14.009,14.009,0,1,0,14.009-14.009,14.009,14.009,0,0,0-14.009,14.009" transform="translate(-1443.886 -82.443)" fill="#fae0b2"/>
            <path id="Trazado_999513" data-name="Trazado 999513" d="M1646.85,114.611a14.529,14.529,0,1,1,10.274,4.255,14.435,14.435,0,0,1-10.274-4.255m-3.215-10.274a13.489,13.489,0,1,0,13.489-13.489,13.5,13.5,0,0,0-13.489,13.489" transform="translate(-1440.184 -78.742)" fill="#f7cc7f"/>
            <path id="Trazado_999514" data-name="Trazado 999514" d="M1688.448,144.569a8.894,8.894,0,1,0,8.894-8.893,8.894,8.894,0,0,0-8.894,8.893" transform="translate(-1480.387 -118.957)" fill="#fff"/>
            <path id="Trazado_999515" data-name="Trazado 999515" d="M1695.191,150.481a8.063,8.063,0,1,0,8.062-8.063,8.062,8.062,0,0,0-8.062,8.063" transform="translate(-1486.3 -124.869)" fill="#d66350"/>
            <path id="Trazado_999516" data-name="Trazado 999516" d="M1721.4,164.068l1.622-.017.047,4.587,4.588.011,0,1.622-4.567-.011.047,4.567-1.622.017-.047-4.587-4.588-.011,0-1.623,4.567.011Z" transform="translate(-1505.31 -143.836)" fill="#fff"/>
            <path id="Trazado_999517" data-name="Trazado 999517" d="M821.711,250.128h52.4a3.283,3.283,0,0,1,3.278,3.289v21.7a3.283,3.283,0,0,1-3.278,3.289H832.857c-1.67,2.338-4.7,6.525-4.964,6.525-.25,0,.231-3.954.571-6.525h-6.753a3.283,3.283,0,0,1-3.278-3.289v-21.7a3.283,3.283,0,0,1,3.278-3.289" transform="translate(-717.581 -219.306)" fill="#81b4da"/>
            <path id="Trazado_999518" data-name="Trazado 999518" d="M871.633,314.47h31.984a.334.334,0,0,0,.334-.334v-.764a.334.334,0,0,0-.334-.334H871.633a.334.334,0,0,0-.334.334v.764a.334.334,0,0,0,.334.334" transform="translate(-763.932 -274.463)" fill="#fff"/>
            <path id="Trazado_999519" data-name="Trazado 999519" d="M870.783,405.283h46.462a.334.334,0,0,0,.334-.334v-.765a.334.334,0,0,0-.334-.334H870.783a.334.334,0,0,0-.334.334v.765a.334.334,0,0,0,.334.334" transform="translate(-763.187 -354.085)" fill="#fff"/>
            <path id="Trazado_999520" data-name="Trazado 999520" d="M1064.24,359.876h22.623a.334.334,0,0,0,.334-.334v-.764a.334.334,0,0,0-.334-.334H1064.24a.334.334,0,0,0-.334.334v.764a.334.334,0,0,0,.334.334" transform="translate(-932.805 -314.274)" fill="#fff"/>
            <path id="Trazado_999521" data-name="Trazado 999521" d="M870.783,359.876h20.7a.334.334,0,0,0,.334-.334v-.764a.334.334,0,0,0-.334-.334h-20.7a.334.334,0,0,0-.334.334v.764a.334.334,0,0,0,.334.334" transform="translate(-763.187 -314.274)" fill="#fff"/>
            <path id="Trazado_999522" data-name="Trazado 999522" d="M1162.928,314.47h10.462a.334.334,0,0,0,.334-.334v-.764a.334.334,0,0,0-.334-.334h-10.462a.334.334,0,0,0-.334.334v.764a.334.334,0,0,0,.334.334" transform="translate(-1019.332 -274.463)" fill="#fff"/>
          </g>
        </g>
      </g>
    </g>
  </g>
</svg>
