<svg id="Grupo_1179291" data-name="Grupo 1179291" xmlns="http://www.w3.org/2000/svg" width="40" height="40" viewBox="0 0 40 40">
  <path id="Trazado_1000229" data-name="Trazado 1000229" d="M422,497h1.172v1.172H422Z" transform="translate(-389.031 -458.172)" fill="#3e5d56"/>
  <path id="Trazado_1000230" data-name="Trazado 1000230" d="M40,16.563V13.175l-9.375-2.344V4.587A1.761,1.761,0,0,0,31.8,2.93V1.758A1.76,1.76,0,0,0,30.039,0H9.961A1.76,1.76,0,0,0,8.2,1.758V2.93A1.761,1.761,0,0,0,9.375,4.587v6.245L5.7,11.75l.284,1.137,3.391-.848v3.351h-8.2v-1.3l3.675-.919-.284-1.137L0,13.175v3.387H1.172V38.828H0V40H31.8V38.828H30.625V37.656h5.859V31.8H30.625V30.625h5.859V24.766H30.625V23.594h5.859V17.735H30.625V16.563h7.031V38.828H35.313V40H40V38.828H38.828V16.563ZM9.375,22.422H4.688V18.906H9.375ZM29.453,4.688V22.422H10.547V4.688ZM9.375,1.758a.587.587,0,0,1,.586-.586H30.039a.587.587,0,0,1,.586.586V2.93a.587.587,0,0,1-.586.586H9.961a.587.587,0,0,1-.586-.586ZM2.344,38.828V16.563H9.375v1.172H3.516v5.859H9.375v1.172H3.516v5.859H9.375V31.8H3.516v5.859H9.375v1.172ZM9.375,25.938v3.516H4.688V25.938Zm0,7.031v3.516H4.688V32.969Zm11.211,3.516V29.453H24.1v7.031Zm-5.859-8.2V27.109H25.273v1.172Zm4.688,1.172v7.031H15.9V29.453Zm7.031,8.2v1.172H13.555V37.656Zm1.172,1.172V36.484H25.273V29.453h1.172V25.938H13.555v3.516h1.172v7.031H12.383v2.344H10.547V23.594H29.453V38.828Zm7.7-5.859v3.516H30.625V32.969Zm0-7.031v3.516H30.625V25.938Zm0-7.031v3.516H30.625V18.906ZM30.625,12.04l8.2,2.051v1.3h-8.2Z" fill="#3e5d56"/>
  <path id="Trazado_1000231" data-name="Trazado 1000231" d="M198.344,120.532v2.344h4.688v-2.344h2.344v-4.687h-2.344V113.5h-4.687v2.344H196v4.688Zm-1.172-3.516h2.344v-2.344h2.344v2.344H204.2v2.344h-2.344V121.7h-2.344V119.36h-2.344Z" transform="translate(-180.688 -104.634)" fill="#3e5d56"/>
  <path id="Trazado_1000232" data-name="Trazado 1000232" d="M347,105h1.172v1.172H347Z" transform="translate(-319.891 -96.798)" fill="#3e5d56"/>
  <path id="Trazado_1000233" data-name="Trazado 1000233" d="M347,75h1.172v1.172H347Z" transform="translate(-319.891 -69.142)" fill="#3e5d56"/>
</svg>
