<svg xmlns="http://www.w3.org/2000/svg" width="130" height="130" viewBox="0 0 130 130">
  <g id="Grupo_1177872" data-name="Grupo 1177872" transform="translate(-383.746 -8400)">
    <circle id="Elipse_13609" data-name="Elipse 13609" cx="65" cy="65" r="65" transform="translate(383.746 8400)" fill="#fff5c1"/>
    <g id="Grupo_1178336" data-name="Grupo 1178336" transform="translate(413.753 8429.997)">
      <path id="Trazado_998736" data-name="Trazado 998736" d="M288.1,377H260.76a3.765,3.765,0,0,0-3.76,3.76V391.7a3.765,3.765,0,0,0,3.76,3.76H288.1a3.765,3.765,0,0,0,3.76-3.76V380.76A3.765,3.765,0,0,0,288.1,377Zm1.709,14.7a1.712,1.712,0,0,1-1.709,1.709H260.76a1.712,1.712,0,0,1-1.709-1.709V380.76a1.712,1.712,0,0,1,1.709-1.709H288.1a1.712,1.712,0,0,1,1.709,1.709Z" transform="translate(-221.87 -325.458)" fill="#773b3d"/>
      <path id="Trazado_998737" data-name="Trazado 998737" d="M316.267,457H293.025a1.025,1.025,0,0,0,0,2.051h23.242a1.025,1.025,0,0,0,0-2.051Z" transform="translate(-252.085 -394.52)" fill="#773b3d"/>
      <path id="Trazado_998738" data-name="Trazado 998738" d="M360.8,417h-16.19a1.025,1.025,0,0,0,0,2.051H360.8a1.025,1.025,0,0,0,0-2.051Z" transform="translate(-296.613 -359.989)" fill="#773b3d"/>
      <path id="Trazado_998739" data-name="Trazado 998739" d="M293.025,419.051h3.544a1.025,1.025,0,0,0,0-2.051h-3.544a1.025,1.025,0,0,0,0,2.051Z" transform="translate(-252.085 -359.989)" fill="#773b3d"/>
      <path id="Trazado_998740" data-name="Trazado 998740" d="M45.726,48.547A24.269,24.269,0,1,0,34.693,2.659,3.767,3.767,0,0,0,31.1,0H3.754A3.765,3.765,0,0,0-.006,3.76V14.7a3.765,3.765,0,0,0,3.76,3.76H22.168a24.247,24.247,0,0,0,1.155,15.162L20.832,36.11a3.764,3.764,0,0,0,0,5.317l1.446,1.451-3.753,3.752-.962-.965a3.08,3.08,0,0,0-4.35,0l-2.419,2.416a1.024,1.024,0,0,0,0,1.449l1.691,1.693L1.3,62.414A4.447,4.447,0,0,0,7.585,68.7L18.778,57.51,20.465,59.2a1.023,1.023,0,0,0,1.449,0L24.33,56.78a3.08,3.08,0,0,0,0-4.35l-.967-.967,3.753-3.749,1.452,1.446a3.764,3.764,0,0,0,5.317,0l2.476-2.479a24.227,24.227,0,0,0,9.365,1.865ZM30.01,18.457H31.1a3.765,3.765,0,0,0,3.76-3.76V11.525a16.671,16.671,0,1,1-4.847,6.932ZM2.045,14.7V3.76A1.712,1.712,0,0,1,3.754,2.051H31.1A1.712,1.712,0,0,1,32.806,3.76V14.7A1.712,1.712,0,0,1,31.1,16.406H3.754A1.712,1.712,0,0,1,2.045,14.7Zm25.794,3.76a18.81,18.81,0,1,0,7.018-9.531V4.9A22.221,22.221,0,1,1,24.285,18.457ZM6.129,67.247a2.392,2.392,0,1,1-3.382-3.382L13.939,52.67l3.384,3.384ZM22.88,55.329l-1.7,1.691-8.213-8.213,1.691-1.7a1.025,1.025,0,0,1,1.451,0l6.766,6.766A1.025,1.025,0,0,1,22.88,55.329Zm-.967-5.317-1.933-1.933,3.752-3.752,1.933,1.933Zm10.519-2.3a1.708,1.708,0,0,1-2.416,0l-7.738-7.738a1.708,1.708,0,0,1,0-2.416l1.969-1.97A24.418,24.418,0,0,0,34.389,45.751Z" transform="translate(0)" fill="#773b3d"/>
      <path id="Trazado_998741" data-name="Trazado 998741" d="M59.267,80H36.025a1.025,1.025,0,1,0,0,2.051H59.267a1.025,1.025,0,1,0,0-2.051Z" transform="translate(-30.221 -69.063)" fill="#773b3d"/>
      <path id="Trazado_998742" data-name="Trazado 998742" d="M103.8,40H87.605a1.025,1.025,0,1,0,0,2.051H103.8a1.025,1.025,0,1,0,0-2.051Z" transform="translate(-74.749 -34.531)" fill="#773b3d"/>
      <path id="Trazado_998743" data-name="Trazado 998743" d="M36.025,42.051h3.544a1.025,1.025,0,1,0,0-2.051H36.025a1.025,1.025,0,1,0,0,2.051Z" transform="translate(-30.221 -34.531)" fill="#773b3d"/>
      <path id="Trazado_998744" data-name="Trazado 998744" d="M249.4,124.683a3.35,3.35,0,0,0,4.863,0L266.372,111.9a3.35,3.35,0,1,0-4.864-4.607l-9.68,10.217-4.05-4.275a3.35,3.35,0,0,0-4.864,4.607Zm-4.94-10.088a1.288,1.288,0,0,1,.891-.355h.037a1.3,1.3,0,0,1,.908.41l4.795,5.059a1.027,1.027,0,0,0,1.489,0l10.423-11a1.3,1.3,0,0,1,1.887,1.786l-12.112,12.783a1.3,1.3,0,0,1-1.885,0l-6.483-6.836a1.3,1.3,0,0,1,.051-1.836Z" transform="translate(-208.918 -91.721)" fill="#773b3d"/>
    </g>
  </g>
</svg>
