<svg xmlns="http://www.w3.org/2000/svg" width="261.91" height="163.789" viewBox="0 0 261.91 163.789">
  <g id="Grupo_1180770" data-name="Grupo 1180770" transform="translate(-1018 -5594)">
    <rect id="Rectángulo_455257" data-name="Rectángulo 455257" width="261.91" height="163.789" transform="translate(1018 5594)" fill="#bbded6"/>
    <g id="_10888319_4584502" data-name="10888319_4584502" transform="translate(956.735 5576.239)">
      <g id="OBJECTS" transform="translate(74.624 19.465)">
        <g id="Grupo_1180769" data-name="Grupo 1180769" transform="translate(0)">
          <g id="Grupo_1180720" data-name="Grupo 1180720">
            <path id="Trazado_1005045" data-name="Trazado 1005045" d="M117,181.549H273.153c7.72-6.3,12.284-16.533,10.3-26.633-.969-4.943-3.389-9.545-3.968-14.57a17.535,17.535,0,0,1,3.164-12c4.713-6.948,11.978-11.623,17.294-18.05a53.4,53.4,0,0,0,9.83-47.912C305.11,46.1,291.7,33.2,275.762,27.916a55.684,55.684,0,0,0-26.346-1.828C244,26.913,238.647,28.154,233.2,28.8a45.985,45.985,0,0,1-16.588-.966c-5.013-1.233-9.848-3.069-14.763-4.627a77.694,77.694,0,0,0-15.187-3.3,75.931,75.931,0,0,0-29.171,2.514A74.362,74.362,0,0,0,115.2,54.577c-5.035,8.139-7.991,17.007-10.287,26.249-2.441,9.829-4.533,19.957-9.693,28.8-4.93,8.45-11.84,15.6-16.337,24.324-3.837,7.44-5.938,16.9-2.584,24.911C83.115,175.13,104.51,172.333,117,181.549Z" transform="translate(-74.624 -19.465)" fill="#d6ebff"/>
            <path id="Trazado_1005046" data-name="Trazado 1005046" d="M159.855,202.109c7.363,3.252,15.852,3.94,20.589,11.266a50.955,50.955,0,0,1,4.1,8.484H277.8c9.3-4.712,18.029-10.772,23.176-19.877,4.364-7.719,4.934-16.6,6.234-25.188,1.275-8.423,4.367-16.118,7.916-23.81,3.449-7.475,7.171-14.99,8.808-23.118A36.916,36.916,0,0,0,284.343,85.12c-8.126.717-15.187,4.437-22.333,8.075-7.329,3.731-14.913,6.973-23.291,5.274-7.917-1.606-14.885-6.061-22.339-8.967-7.386-2.881-15.156-3.887-22.9-1.838a33.958,33.958,0,0,0-25.39,33.486,36.593,36.593,0,0,0,2.3,11.437c1.47,4.134,3.4,8.2,4.139,12.556,1.59,9.43-4.87,16.076-11.523,21.676-5.944,5-12.412,10.345-13.861,18.427C147.7,193.3,152.887,199.031,159.855,202.109Z" transform="translate(-120.325 -59.775)" fill="#b6dcff"/>
          </g>
          <path id="Trazado_1005047" data-name="Trazado 1005047" d="M303.429,216.609l2.871-23.986a1.585,1.585,0,0,1,1.568-1.4c6.9-.034,14.833-1.519,22.949-3.267a.948.948,0,0,0,.739-1.054l-1.232-9.032,2.367-2.914a.526.526,0,0,0,.037-.621,9.543,9.543,0,0,0-2.833-2.7.273.273,0,0,1,.059-.484,13.477,13.477,0,0,0,3.9-2.051.629.629,0,0,0,.213-.409l.313-2.661a.483.483,0,0,0-.442-.539,9.671,9.671,0,0,1-2.872-.53.822.822,0,0,1-.494-.649l-.661-5.039a1.026,1.026,0,0,1,.5-1.016,80.219,80.219,0,0,0,8.936-6.348.726.726,0,0,0,.222-.829l-1.133-2.9a1.128,1.128,0,0,0-1.05-.718H335.36a.37.37,0,0,1-.324-.192l-7.709-14.025a1.765,1.765,0,0,1,.054-1.8,28.491,28.491,0,0,0,3.243-7.335,8.1,8.1,0,0,0,.19-3.743c-1.029-5.511-4.672-22.228-12.155-29.836-9.032-9.182-43.88-23.182-68.718-5.871s-20.272,47.544-12.043,63.8a93.6,93.6,0,0,0,14.819,21.31,10.223,10.223,0,0,1,2.349,9.829l-10.745,37h59.109Z" transform="translate(-171.06 -54.525)" fill="#b1a3cc"/>
          <g id="Grupo_1180722" data-name="Grupo 1180722" transform="translate(166.155 63.58)">
            <path id="Trazado_1005048" data-name="Trazado 1005048" d="M537.127,184.738A17.5,17.5,0,0,0,519.59,202.2c0,.541.029,1.076.077,1.6l-13.13,6.668,14.012-2.581a17.523,17.523,0,1,0,16.579-23.154Z" transform="translate(-506.536 -184.738)" fill="#fff"/>
            <g id="Grupo_1180721" data-name="Grupo 1180721" transform="translate(20.389 4.89)">
              <path id="Trazado_1005049" data-name="Trazado 1005049" d="M572.463,197.45a59.354,59.354,0,0,1-12.926,3.628l1.047,14.954c1.094,2.764,3.432,4.865,6.54,6.555v0h.006l.005,0v0c3.526-.283,6.516-1.253,8.638-3.335l7.029-13.241A59.308,59.308,0,0,1,572.463,197.45Z" transform="translate(-559.537 -197.45)" fill="#f6d430"/>
              <path id="Trazado_1005050" data-name="Trazado 1005050" d="M577.522,231.239,584.551,218q-.806-.526-1.583-1.072l-20.589,11.2c1.112,2.711,3.427,4.78,6.494,6.448v0h.006l.005,0v0C572.41,234.291,575.4,233.321,577.522,231.239Z" transform="translate(-561.286 -209.434)" fill="#e2bd23"/>
              <path id="Trazado_1005051" data-name="Trazado 1005051" d="M582.861,208.188a59.688,59.688,0,0,1-8.583-7.159l-.229-.23-.3.117a59.7,59.7,0,0,1-10.751,3.057l-.437.081.965,13.789.034.077c.914,2.122,2.723,3.931,5.531,5.532l.138.079.158-.016c3.216-.323,5.6-1.242,7.3-2.809l.062-.057,6.481-12.209Zm-6.914,11.843A6.419,6.419,0,0,1,564.5,217.6l-.892-12.734a60.561,60.561,0,0,0,10.189-2.909,60.567,60.567,0,0,0,8.131,6.8Z" transform="translate(-561.395 -199.511)" fill="#ffe67b"/>
              <path id="Trazado_1005052" data-name="Trazado 1005052" d="M583.777,212.782a61.238,61.238,0,0,1-6.523-5.486l-.179-.173-.234.085a61.3,61.3,0,0,1-8.188,2.365l-.338.073.805,11.5.005.078.035.07A9.989,9.989,0,0,0,573.1,225.2l.121.074.14-.019a9.987,9.987,0,0,0,5.19-1.969l.06-.05,5.44-10.248Zm-5.79,9.938a4.55,4.55,0,0,1-8.078-1.714l-.751-10.728a61.913,61.913,0,0,0,7.723-2.237,61.921,61.921,0,0,0,6.149,5.181Z" transform="translate(-564.938 -203.402)" fill="#ffe67b"/>
            </g>
          </g>
          <g id="Grupo_1180728" data-name="Grupo 1180728" transform="translate(2.006 69.957)">
            <path id="Trazado_1005053" data-name="Trazado 1005053" d="M136.54,247.279l-13.577-13.653a19.582,19.582,0,0,0,3.542-11.185c0-11.667-10.446-21.125-23.333-21.125s-23.333,9.458-23.333,21.125,10.446,21.125,23.333,21.125a24.866,24.866,0,0,0,13.943-4.186Z" transform="translate(-79.839 -201.316)" fill="#fff"/>
            <g id="Grupo_1180727" data-name="Grupo 1180727" transform="translate(6.405 2.795)">
              <g id="Grupo_1180725" data-name="Grupo 1180725" transform="translate(6.599 5.661)">
                <path id="Trazado_1005054" data-name="Trazado 1005054" d="M120.462,223.575a9.034,9.034,0,0,0,.935,17.7l5.392,9.736,5.413-2.366-3.13-9.938a9.028,9.028,0,0,0-8.61-15.132Z" transform="translate(-113.644 -223.296)" fill="#f6d430"/>
                <path id="Trazado_1005055" data-name="Trazado 1005055" d="M132.473,236.776a.152.152,0,0,0-.178.043l-1.177,1.428-1.3-.355a.154.154,0,0,0-.175.075l-.851,1.581L127.5,238.9a.153.153,0,0,0-.2.054l-.742,1.152-1.683-.13a.153.153,0,0,0-.124.256l2.521,2.734,6.306,12.743.274-.135-6.316-12.763a.154.154,0,0,0-.025-.036l-2.273-2.464,1.387.107a.153.153,0,0,0,.14-.07l.717-1.113,1.3.653a.153.153,0,0,0,.2-.064l.864-1.6,1.283.349a.152.152,0,0,0,.158-.05l.9-1.094-.317,2.449a.154.154,0,0,0,0,.061l4.186,14.965.294-.082-4.177-14.935.381-2.944A.15.15,0,0,0,132.473,236.776Z" transform="translate(-120.454 -231.582)" fill="#401d82"/>
                <path id="Trazado_1005056" data-name="Trazado 1005056" d="M140.422,258.711l.287-.1-4.1-11.286a.153.153,0,0,0-.189-.093l-1.448.456a.152.152,0,0,0-.094.207l5,11.316.279-.124-4.93-11.16,1.146-.361Z" transform="translate(-126.699 -238.017)" fill="#401d82"/>
                <g id="Grupo_1180724" data-name="Grupo 1180724" transform="translate(8.596 16.78)">
                  <path id="Trazado_1005057" data-name="Trazado 1005057" d="M135.988,270.531l7.838-3.617,2.9,9.211-6.278,2.6Z" transform="translate(-135.988 -266.914)" fill="#7a4495"/>
                  <g id="Grupo_1180723" data-name="Grupo 1180723" transform="translate(1.249 0.578)">
                    <path id="Trazado_1005058" data-name="Trazado 1005058" d="M148.166,282.285l-8.15.551.214.394,7.553-.511-6.054,3.265.272.5c4.142-.742,6.124-1.114,7.072-1.319l-.122-.386c-1.291.261-4,.76-6.315,1.177l5.715-3.082Z" transform="translate(-139.716 -276.95)" fill="#401d82"/>
                    <path id="Trazado_1005059" data-name="Trazado 1005059" d="M146.006,268.416l-6.771,5.335.2.362,6.7-5.282Z" transform="translate(-139.235 -268.416)" fill="#401d82"/>
                  </g>
                </g>
              </g>
              <g id="Grupo_1180726" data-name="Grupo 1180726">
                <path id="Trazado_1005060" data-name="Trazado 1005060" d="M118.011,212.353l2.007,3.111.853-.351-1.43-3.663Z" transform="translate(-109.732 -210.346)" fill="#ffe67b"/>
                <path id="Trazado_1005061" data-name="Trazado 1005061" d="M139.235,212.6h.867l.9-4.014h-1.77Z" transform="translate(-122.791 -208.581)" fill="#ffe67b"/>
                <path id="Trazado_1005062" data-name="Trazado 1005062" d="M155.358,213.2l-2.835,4.278.622.518,4.316-3.462Z" transform="translate(-130.967 -211.424)" fill="#ffe67b"/>
                <path id="Trazado_1005063" data-name="Trazado 1005063" d="M104.146,229.822l-5.018-2.459-.552,2.459,5.068.7Z" transform="translate(-97.773 -220.138)" fill="#ffe67b"/>
                <path id="Trazado_1005064" data-name="Trazado 1005064" d="M101.808,250.711l-5.319,1.254,1.054,2.609,4.516-3.049Z" transform="translate(-96.489 -234.504)" fill="#ffe67b"/>
                <path id="Trazado_1005065" data-name="Trazado 1005065" d="M108.88,271.654l2.509,1.5,1.4-5.33-.556-.372Z" transform="translate(-104.113 -244.803)" fill="#ffe67b"/>
                <path id="Trazado_1005066" data-name="Trazado 1005066" d="M167.249,229.244l-5.365,2.467.262.823,6.2-1Z" transform="translate(-136.727 -221.295)" fill="#ffe67b"/>
                <path id="Trazado_1005067" data-name="Trazado 1005067" d="M164.3,251.92l-.149.783,6.1,2.3.556-2.856Z" transform="translate(-138.119 -235.248)" fill="#ffe67b"/>
              </g>
            </g>
          </g>
          <g id="Grupo_1180732" data-name="Grupo 1180732" transform="translate(15.048 119.72)">
            <g id="Grupo_1180729" data-name="Grupo 1180729" transform="translate(38.68)">
              <path id="Trazado_1005068" data-name="Trazado 1005068" d="M223.792,373.035h3.925c-1.056-6.014-4.786-27.431-5.367-33.042-.677-6.548-1.957-10.086-5.344-9.183s-3.613,9.333-.677,19.344C218.5,357.57,222.083,368.083,223.792,373.035Z" transform="translate(-214.285 -330.671)" fill="#216838"/>
              <path id="Trazado_1005069" data-name="Trazado 1005069" d="M225.128,372.5l2.083-2.3-.084-.481-2.087,2.3-.529-2.892,2.019-2.86-.092-.536-2.023,2.866-.8-4.382,1.991-3.355-.1-.586-2,3.365-.869-4.749,2.129-3q-.045-.27-.09-.538l-2.137,3.007-.856-4.678,2.268-2.739-.082-.5L221.6,353.2l-.691-3.777,2.268-3.412c-.029-.191-.058-.379-.086-.566l-2.281,3.432-.6-3.27,2.4-3.471q-.04-.294-.075-.567l-2.422,3.5-.729-3.987,2.626-3.722q-.043-.275-.09-.54l-2.634,3.733-.812-4.442,1.819-4.1a4.068,4.068,0,0,0-.27-.34l-1.672,3.769-.853-4.664c-.123.018-.249.042-.377.073l.855,4.673-2.842-2.8q-.084.184-.159.384l3.121,3.081.816,4.462-4.623-2.89c0,.149,0,.3,0,.455L219,341.156l.736,4.023-5.156-3.065c.021.161.043.324.067.487l5.181,3.079.612,3.346-5.1-2.62c.036.162.074.326.112.49l5.071,2.608.687,3.755-4.814-2.793.159.537,4.746,2.753.857,4.685-4.156-2.736.184.582,4.068,2.677.881,4.814-3.2-2.076.193.584,3.1,2.013.8,4.372-2.28-1.539.2.6,2.174,1.468.527,2.883-1.491-.8.184.534,1.4.746.1.53h.391Z" transform="translate(-214.285 -330.735)" fill="#b2d855"/>
            </g>
            <g id="Grupo_1180730" data-name="Grupo 1180730" transform="translate(26.807 3.019)">
              <path id="Trazado_1005070" data-name="Trazado 1005070" d="M194.7,377.863h3.863c-.895-4.336-4.533-21.884-6.046-28-1.731-7-4.29-12.494-7.452-11.14s-.979,9.86,0,13.1C185.849,354.4,192.162,371.143,194.7,377.863Z" transform="translate(-183.421 -338.517)" fill="#216838"/>
              <path id="Trazado_1005071" data-name="Trazado 1005071" d="M198.081,375.287l-1.453,1.98-.7-2.4,1.5-2.736-.121-.58-1.528,2.794-1.1-3.765,1.749-3.217-.123-.581-1.78,3.273-1.173-4.013,1.838-4.494-.143-.666-1.868,4.567-1.335-4.566,2.269-4.291-.128-.58-2.3,4.341-1.008-3.446,2.6-4.024c-.041-.18-.081-.35-.12-.522l-2.622,4.059-1.072-3.666,2.707-4.374c-.047-.168-.094-.335-.142-.5l-2.71,4.379-1.062-3.632,2.524-4.453c-.061-.154-.123-.3-.186-.452L188.1,348.11l-1.315-4.5,1.978-3.216q-.128-.166-.257-.317l-1.867,3.035-1.25-4.277c-.078.025-.156.052-.235.085-.043.018-.082.043-.123.064l1.216,4.159-2.633-1.685q-.032.205-.055.422l2.852,1.825,1.3,4.456-4.013-2.57q.034.252.073.5l4.1,2.629,1.058,3.619-4.33-2.28c.045.172.089.342.133.5l4.347,2.289,1.041,3.563-4.52-3.046c.066.19.137.392.214.608L190.3,357l1,3.437-4.05-2.508.215.586,4,2.475,1.36,4.653-3.408-1.87.206.552,3.355,1.841,1.188,4.062L191.4,369.07l.186.494,2.717,1.135,1.115,3.813-2.337-.974.187.495,2.289.954.707,2.421-1.948-.6.172.455,1.906.584.061.21h.4l-.1-.326,1.422-1.938C198.152,375.631,198.117,375.46,198.081,375.287Z" transform="translate(-183.509 -338.713)" fill="#b2d855"/>
            </g>
            <path id="Trazado_1005072" data-name="Trazado 1005072" d="M113.855,418.289h24.382v-.007a21.8,21.8,0,0,0-.556-2.576,23.148,23.148,0,0,0-1.946-4.839,9.623,9.623,0,0,0-3-3.8,3.982,3.982,0,0,0-4.482-.04,3.866,3.866,0,0,0-.6.564c-.1-.227-.207-.452-.329-.668a5.241,5.241,0,0,0-3.121-2.571,3.887,3.887,0,0,0-3.61.846c-1.218,1.149-.894,2.726-.554,4.187.16.685.332,1.368.51,2.048a2.761,2.761,0,0,0-1.5,0,3.291,3.291,0,0,0-2.272,2.571s0,.01,0,.014a2.137,2.137,0,0,0-.3-.062,2.267,2.267,0,0,0-2.364,1.286,4.792,4.792,0,0,0-.324,2.542C113.8,417.956,113.826,418.123,113.855,418.289Z" transform="translate(-113.739 -375.925)" fill="#b2d855"/>
            <g id="Grupo_1180731" data-name="Grupo 1180731" transform="translate(5.532 16.655)">
              <path id="Trazado_1005073" data-name="Trazado 1005073" d="M144.484,399.673h5.957c-1.81-3.628-9.2-19.606-11.442-22.429-3.161-3.989-7.527-4.24-9.935-1.292s.175,8.27,3.35,11.861C134.663,390.357,140.921,396.317,144.484,399.673Z" transform="translate(-128.118 -373.964)" fill="#216838"/>
              <path id="Trazado_1005074" data-name="Trazado 1005074" d="M147.558,399.16l.873-3.611-.263-.549-.908,3.754-1.219-1.665h0l-.05-.069c-.012-.368.212-2.757.491-5.527l-.322-.666c-.348,3.406-.481,4.978-.522,5.711l-3.218-4.4,1.142-6.606-.29-.578-1.167,6.753-2.356-3.218,1.96-6.579c-.086-.164-.172-.328-.257-.486l-1.989,6.675-2.79-3.811,2.29-7.036q-.144-.179-.291-.349l-2.279,7-2.8-3.827.642-5.939c-.127-.024-.254-.045-.38-.06l-.6,5.539-3.277-4.477c-.1.079-.2.162-.294.249l3.286,4.489-4.825-.669q.009.194.03.392l5.111.709,2.787,3.807-6.428-.2c.07.131.143.262.217.392l6.5.2,2.768,3.781-6.923-.668c.074.087.148.173.224.258l.147.164,6.856.662,2.418,3.3-5.155.25.374.367,5.053-.245,3.272,4.47c-.839-.148-2.865-.575-5.04-1.046l.538.515c3.234.7,4.376.911,4.8.94l1.233,1.684-3.836-.534.481.456,3.672.511.266.363h.476Z" transform="translate(-128.133 -374.035)" fill="#b2d855"/>
            </g>
            <path id="Trazado_1005075" data-name="Trazado 1005075" d="M188.887,402.853c.073-.944.106-1.892.132-2.832.048-1.77.051-3.541-.012-5.31a9.441,9.441,0,0,0-.777-4.429,3.078,3.078,0,0,0-5.27-.465c-.494-2.288-1.381-4.56-3.629-5.614a4.519,4.519,0,0,0-4.145.1,4.6,4.6,0,0,0-2.016,3.121,9.032,9.032,0,0,0-.16,1.349c-.345-.636-.725-1.248-1.1-1.83a23.9,23.9,0,0,0-3.885-4.569c-1.449-1.33-3.2-2.818-5.2-3.166a5.824,5.824,0,0,0-5.244,2.011,10.109,10.109,0,0,0-2.152,4.411,12.876,12.876,0,0,0-1.579-1.835c-1.189-1.134-2.925-1.943-4.524-1.134a4.317,4.317,0,0,0-2.111,4.187,29.2,29.2,0,0,0,1.084,5.871c.426,1.691.946,3.348,1.524,4.989a4.473,4.473,0,0,0-4.771,1.85,5.552,5.552,0,0,0-.711,3.3Z" transform="translate(-132.562 -360.488)" fill="#145436"/>
            <path id="Trazado_1005076" data-name="Trazado 1005076" d="M221.185,421.558c.007-.038.015-.08.022-.117a8.518,8.518,0,0,0,.143-1.836,5.152,5.152,0,0,0-1.067-3.348,2.715,2.715,0,0,0-3.3-.555c-.085.047-.166.1-.247.152.106-.4.211-.809.312-1.213.381-1.542.514-3.36-.931-4.406a4.342,4.342,0,0,0-4.3-.258,10.473,10.473,0,0,0-3.722,3.651c-.167.235-.324.477-.485.716a2.6,2.6,0,0,0-1.189-1.053,3.957,3.957,0,0,0-3.836.556,8.028,8.028,0,0,0-2.365,2.961c-.106.211-.2.428-.29.647a3.983,3.983,0,0,0-.78-.277,3.849,3.849,0,0,0-2.9.46,3.917,3.917,0,0,0-1.6,3.921h26.539Z" transform="translate(-163.498 -379.194)" fill="#b2d855"/>
          </g>
          <g id="Grupo_1180753" data-name="Grupo 1180753" transform="translate(68.789 29.79)">
            <g id="Grupo_1180734" data-name="Grupo 1180734">
              <path id="Trazado_1005077" data-name="Trazado 1005077" d="M334.06,121.931a10.243,10.243,0,0,0-4.814-4.886,10.053,10.053,0,0,0-1.186-.477c1.074-3.769.373-8.29-2.922-10.618a6.561,6.561,0,0,0-4.735-1.159c-.684-3.773-3.281-7.29-7.276-7.82a7.311,7.311,0,0,0-6,1.835,6.808,6.808,0,0,0-1.7,2.433,9,9,0,0,0-.508,3.518q.013.573.049,1.15a12.015,12.015,0,0,0-4.615-2.215,11.967,11.967,0,0,0-7.008-4.909,11.423,11.423,0,0,0-10.263,2.6c-.307.273-.6.564-.884.866a9.872,9.872,0,0,0-7.529-.929,11.434,11.434,0,0,0-6.109,3.751,10.321,10.321,0,0,0-2.087,7.479c.04.46.1.917.185,1.371l-.163-.017a9.252,9.252,0,0,0-3.354.279,9.924,9.924,0,0,0-5.262,3.562,11.4,11.4,0,0,0-.545,12.489,8.52,8.52,0,0,0-.719.6,10.575,10.575,0,0,0-3.164,8.341,11.4,11.4,0,0,0,3.9,8.156,8.5,8.5,0,0,0,7.874,1.044c1.285,2.534,4.471,4.02,7.194,4.577a8.894,8.894,0,0,0,5.882-.652,8.786,8.786,0,0,0,2.624-2.071,10.314,10.314,0,0,0,7.433,3.124c4.41-.021,8.7-2.463,11.617-5.662.1-.113.2-.232.3-.348a10.41,10.41,0,0,0,4.076-.166,8.894,8.894,0,0,0,6.3-6.044c.228.092.455.179.681.257a12.318,12.318,0,0,0,4.8.659,6.362,6.362,0,0,0,4.033-1.478,4.514,4.514,0,0,0,1.2-4.089c-.017-.1-.043-.187-.064-.281a13.568,13.568,0,0,0,2.191.011,15.115,15.115,0,0,0,4.142-.892,4.077,4.077,0,0,0,2.621-2.379,4.131,4.131,0,0,0,.172-.771,5.427,5.427,0,0,0,4.1-3.5A8.941,8.941,0,0,0,334.06,121.931Z" transform="translate(-253.438 -96.903)" fill="#fb8ea4"/>
              <g id="Grupo_1180733" data-name="Grupo 1180733" transform="translate(1.68 6.359)">
                <path id="Trazado_1005078" data-name="Trazado 1005078" d="M347.624,128.278a12.521,12.521,0,0,1-.379-8.157c1.314-4.919,7.094-7.046,10.585-6.64,3.714.434,4.856,2.323,4.9,2.4l-.665.388c-.008-.014-1.026-1.641-4.327-2.027-3.221-.377-8.549,1.569-9.752,6.074a11.987,11.987,0,0,0,.33,7.627Z" transform="translate(-312.541 -113.432)" fill="#ed4082"/>
                <path id="Trazado_1005079" data-name="Trazado 1005079" d="M369.314,159.608l-.382-.667c.158-.091,3.864-2.282,1.952-6.014s-6.716-1.529-6.92-1.433l-.517.243-.031-.571c-.016-.3-.461-7.391-6.288-7.765-5.869-.386-7.6,5.213-7.614,5.27l-.2.684-.461-.546a8.327,8.327,0,0,0-8.6-2.374c-5.2,1.56-5.445,5.671-5.447,5.713l-.769-.035c0-.047.279-4.7,5.994-6.414A9.162,9.162,0,0,1,349,147.866a8.167,8.167,0,0,1,8.179-5.233c5.526.355,6.716,6.166,6.952,7.966,1.429-.52,5.581-1.649,7.438,1.977C373.817,156.966,369.359,159.582,369.314,159.608Z" transform="translate(-304.711 -131.386)" fill="#ed4082"/>
                <path id="Trazado_1005080" data-name="Trazado 1005080" d="M390.415,185.357l-.626-.447a7.075,7.075,0,0,0,1.2-4.282c-.235-2.149-2.825-3.25-2.851-3.261l-.423-.176.246-.387c.023-.037,2.32-3.7.613-6.1s-5.757-1.213-5.8-1.2l-.22-.737c.188-.056,4.628-1.349,6.646,1.493,1.676,2.361.217,5.513-.374,6.59.834.439,2.7,1.64,2.926,3.7A7.741,7.741,0,0,1,390.415,185.357Z" transform="translate(-334.562 -147.267)" fill="#ed4082"/>
                <path id="Trazado_1005081" data-name="Trazado 1005081" d="M394.209,125.291a4.2,4.2,0,0,0-4.308-3.411,3.337,3.337,0,0,0-3.511,3.332l-.769.009a4.128,4.128,0,0,1,4.249-4.11,4.671,4.671,0,0,1,4.484,2.5,20.621,20.621,0,0,1,.617-2.472c.922-2.984,4.563-4.628,6.734-4.8a5.566,5.566,0,0,1,2.9.226l-.384.667.192-.334-.181.34a5.592,5.592,0,0,0-2.462-.132c-2.038.161-5.278,1.731-6.06,4.26a12.189,12.189,0,0,0-.736,3.821Z" transform="translate(-336.451 -115.192)" fill="#ed4082"/>
                <path id="Trazado_1005082" data-name="Trazado 1005082" d="M287.615,193.833l-.357-.681c.032-.017,3.207-1.717,2.872-4.2a7.185,7.185,0,0,0-2.907-4.323l-.217-.145.055-.256c.014-.065,1.37-6.6-3.271-9.058-4.668-2.477-9.53,1.862-9.578,1.906l-.368.334-.232-.44c-.022-.042-2.249-4.19-5.533-3.557a6.825,6.825,0,0,0-4.7,3.535l-.7-.314a7.477,7.477,0,0,1,5.259-3.977c3.213-.613,5.422,2.417,6.124,3.55,1.281-1,5.73-4.03,10.093-1.717,4.6,2.442,3.919,8.356,3.708,9.65a7.7,7.7,0,0,1,3.034,4.71C291.3,191.866,287.766,193.754,287.615,193.833Z" transform="translate(-260.802 -149.823)" fill="#ed4082"/>
                <path id="Trazado_1005083" data-name="Trazado 1005083" d="M301.285,134.967h-.068c-4.916,0-6.346,4.292-6.75,6.356-.944-1.326-3.035-3.485-6.2-2.55-3.583,1.058-3.346,5.541-2.72,7.764l.741-.208c-.016-.057-1.553-5.71,2.2-6.818,3.8-1.12,5.784,2.911,5.867,3.083l.347-.166.384.02c.015-.275.429-6.711,6.136-6.711h.062c5.787.047,6.489,6.177,6.516,6.438l.765-.078C308.554,142.026,307.766,135.02,301.285,134.967Z" transform="translate(-274.648 -126.683)" fill="#ed4082"/>
                <path id="Trazado_1005084" data-name="Trazado 1005084" d="M308.592,122.736c-.017-.065-1.636-6.554,3.98-8.144,5.553-1.573,8.529,3.859,8.558,3.914l-.678.363c-.109-.2-2.717-4.937-7.67-3.537-4.889,1.384-3.507,6.973-3.445,7.21Z" transform="translate(-288.914 -113.97)" fill="#ed4082"/>
                <path id="Trazado_1005085" data-name="Trazado 1005085" d="M276.422,205.154c-.034.056-3.427,5.634-8.106,4.45-4.639-1.174-3.934-9.282-3.926-9.364l-.766-.072c-.023.25-.384,4.394,1.148,7.363a4.783,4.783,0,0,1-3.524-.175c-2.178-.93-2.676-4.16-2.681-4.193l-.761.111c.022.15.562,3.689,3.14,4.79a5.879,5.879,0,0,0,2.32.49,5.183,5.183,0,0,0,1.9-.35,4.956,4.956,0,0,0,2.962,2.147,6.235,6.235,0,0,0,1.535.194c4.387,0,7.286-4.771,7.42-5Z" transform="translate(-257.806 -166.801)" fill="#ed4082"/>
                <path id="Trazado_1005086" data-name="Trazado 1005086" d="M435.468,157.943a3.647,3.647,0,0,0-2.457-3.031,6.94,6.94,0,0,0-.3-4.26c-2.019-5.452-9.654-4.282-9.731-4.27l.123.76c.071-.012,7.085-1.088,8.886,3.777a5.991,5.991,0,0,1-2.369,7.392l.392.662a7.443,7.443,0,0,0,2.756-3.327,2.836,2.836,0,0,1,1.935,2.393c.27,2.144-2.087,4.087-2.11,4.106l.484.6C433.19,162.653,435.792,160.514,435.468,157.943Z" transform="translate(-359.439 -133.637)" fill="#ed4082"/>
                <path id="Trazado_1005087" data-name="Trazado 1005087" d="M343.808,176.91c-3.889,0-8.121-4.543-8.336-4.776l.566-.521c.059.064,5.973,6.414,9.731,3.959s1.033-8.26,1-8.318l.694-.332c.031.065,3.031,6.478-1.278,9.294A4.268,4.268,0,0,1,343.808,176.91Z" transform="translate(-305.594 -146.344)" fill="#ed4082"/>
                <path id="Trazado_1005088" data-name="Trazado 1005088" d="M354.921,195.552c0,.049-.5,4.882-3.159,5.352-2.322.41-4.411-2.324-4.956-3.106,2.479-2.921,1.262-7.372,1.247-7.423l-.74.21c.015.053,1.458,5.354-2.264,7.732a4.839,4.839,0,0,1-6.417-.772l-.293.249-.375.085c.01.044.986,4.474-.965,6.281a3.877,3.877,0,0,1-4.218.689l-.339.691a5.032,5.032,0,0,0,1.995.408,4.432,4.432,0,0,0,3.085-1.224c1.634-1.513,1.56-4.366,1.371-5.929a5.717,5.717,0,0,0,3.375,1.181,5.875,5.875,0,0,0,3.2-1.013,6.08,6.08,0,0,0,.8-.607c.664.935,2.615,3.356,5.021,3.356a3.531,3.531,0,0,0,.617-.054c3.237-.571,3.77-5.814,3.791-6.037Z" transform="translate(-303.73 -160.776)" fill="#ed4082"/>
              </g>
            </g>
            <g id="Grupo_1180752" data-name="Grupo 1180752" transform="translate(17.273 0.191)">
              <g id="Grupo_1180739" data-name="Grupo 1180739" transform="translate(27.018)">
                <g id="Grupo_1180735" data-name="Grupo 1180735" transform="translate(4.735)">
                  <path id="Trazado_1005089" data-name="Trazado 1005089" d="M392.55,100.309c-.335-1.531-2.051-3.84-7.129-2.516s-4.524,5.432-4.524,5.432l.619,6.645,12.3-.935S393.056,102.619,392.55,100.309Zm-8.653,7.769-.366-5.02a3.957,3.957,0,0,1,2.677-4.1c3-1,4.02.743,4.219,1.9.3,1.745.751,6.517.751,6.517Z" transform="translate(-380.879 -97.399)" fill="#7a4495"/>
                  <path id="Trazado_1005090" data-name="Trazado 1005090" d="M381.884,120.284l12.3-.935s-.31-2.566-.667-5.026l-2.3.306c.179,1.637.323,3.156.323,3.156l-7.281.706-.212-2.908-2.575.343Z" transform="translate(-381.248 -107.813)" fill="#401d82"/>
                </g>
                <path id="Trazado_1005091" data-name="Trazado 1005091" d="M374.386,121.416l18.563-1.32,4.492,19.635-22.527,2.808Z" transform="translate(-372.149 -111.365)" fill="#7a4495"/>
                <g id="Grupo_1180736" data-name="Grupo 1180736" transform="translate(18.554 7.874)">
                  <path id="Trazado_1005092" data-name="Trazado 1005092" d="M416.8,118.725l3.833,20.336,2.661.312,3.369-1.246-4.785-19.883-3.076-.375Z" transform="translate(-416.802 -117.868)" fill="#7a4495"/>
                  <path id="Trazado_1005093" data-name="Trazado 1005093" d="M416.8,118.725l3.833,20.336,2.661.312-4.492-21.5Z" transform="translate(-416.802 -117.868)" fill="#401d82"/>
                </g>
                <g id="Grupo_1180737" data-name="Grupo 1180737" transform="translate(0 9.199)">
                  <path id="Trazado_1005094" data-name="Trazado 1005094" d="M372.493,121.9l.83,21.648-2.93,1.065-1.823-1.065.9-21.49,1.969-.742Z" transform="translate(-368.571 -121.311)" fill="#7a4495"/>
                  <path id="Trazado_1005095" data-name="Trazado 1005095" d="M375.409,121.9l-1.058-.584-1.042,23.3,2.929-1.065Z" transform="translate(-371.487 -121.311)" fill="#401d82"/>
                </g>
                <g id="Grupo_1180738" data-name="Grupo 1180738" transform="translate(9.427 13.608)">
                  <path id="Trazado_1005096" data-name="Trazado 1005096" d="M399.518,143.324l-2.466-6.473a2.1,2.1,0,0,0,.98-2.038,2.519,2.519,0,0,0-2.769-2.029,2.242,2.242,0,0,0-2.168,2.451,2.429,2.429,0,0,0,1.981,1.973l-.783,6.935Z" transform="translate(-393.076 -132.773)" fill="#01265a"/>
                  <path id="Trazado_1005097" data-name="Trazado 1005097" d="M395.039,144.027l.769-6.818a2.428,2.428,0,0,1-1.981-1.973,2.223,2.223,0,0,1,2.042-2.429,2.767,2.767,0,0,0-.607-.023,2.242,2.242,0,0,0-2.168,2.451,2.429,2.429,0,0,0,1.981,1.973l-.783,6.935Z" transform="translate(-393.076 -132.775)" fill="#401d82"/>
                </g>
              </g>
              <g id="Grupo_1180744" data-name="Grupo 1180744" transform="translate(22.095 50.589)">
                <g id="Grupo_1180741" data-name="Grupo 1180741" transform="translate(4.052 5.871)">
                  <path id="Trazado_1005098" data-name="Trazado 1005098" d="M366.306,245.455l30.571-1.291.6,40.794-26.494,3.387Z" transform="translate(-366.306 -244.164)" fill="#e9f4ff"/>
                  <g id="Grupo_1180740" data-name="Grupo 1180740" transform="translate(4.679 2.684)">
                    <path id="Trazado_1005099" data-name="Trazado 1005099" d="M388.969,252.146v.978l19.92-.226v-1.756Z" transform="translate(-384.93 -251.142)" fill="#401d82"/>
                    <path id="Trazado_1005100" data-name="Trazado 1005100" d="M416.36,263.042v.753l8.781-.377-.2-1.254Z" transform="translate(-401.783 -257.924)" fill="#401d82"/>
                    <path id="Trazado_1005101" data-name="Trazado 1005101" d="M408.164,279.025l8.831-.8v-1.254l-8.981.1Z" transform="translate(-396.648 -267.033)" fill="#401d82"/>
                    <path id="Trazado_1005102" data-name="Trazado 1005102" d="M400.773,292.49l-22.3,1.355.276,2.145,22.229-2.145Z" transform="translate(-378.469 -276.584)" fill="#401d82"/>
                    <path id="Trazado_1005103" data-name="Trazado 1005103" d="M405.157,302.924l-21.275,1.405v1.1l21.275-.2Z" transform="translate(-381.8 -283.004)" fill="#401d82"/>
                    <path id="Trazado_1005104" data-name="Trazado 1005104" d="M421.369,314.352V313.1l-11.139.552v1.4Z" transform="translate(-398.012 -289.264)" fill="#401d82"/>
                    <path id="Trazado_1005105" data-name="Trazado 1005105" d="M414.016,325.059V323.4l-16.308,1.4.188,1.756Z" transform="translate(-390.307 -295.604)" fill="#401d82"/>
                    <path id="Trazado_1005106" data-name="Trazado 1005106" d="M410.23,338.333v1.606l11.741-.8-.251-1.254Z" transform="translate(-398.012 -304.513)" fill="#401d82"/>
                    <path id="Trazado_1005107" data-name="Trazado 1005107" d="M381.4,336.5l9.082-.251V334.49l-9.082.552Z" transform="translate(-380.275 -302.426)" fill="#401d82"/>
                  </g>
                  <path id="Trazado_1005108" data-name="Trazado 1005108" d="M404.963,345.03c-9.922-1.435-19.026-2.669-25.415-3.236a36.953,36.953,0,0,1-1.079,6.623Z" transform="translate(-373.79 -304.236)" fill="#c4e3ff"/>
                </g>
                <g id="Grupo_1180743" data-name="Grupo 1180743">
                  <path id="Trazado_1005109" data-name="Trazado 1005109" d="M355.773,230.86l3.236,39.967,24.989-.6L381.59,228.9Z" transform="translate(-355.773 -228.903)" fill="#fff"/>
                  <g id="Grupo_1180742" data-name="Grupo 1180742" transform="translate(3.236 4.215)">
                    <path id="Trazado_1005110" data-name="Trazado 1005110" d="M364.186,241.515v1.43l21.3-1.731v-1.355Z" transform="translate(-364.186 -239.859)" fill="#401d82"/>
                    <path id="Trazado_1005111" data-name="Trazado 1005111" d="M385.366,256.294l-20.4.9v1.363l20.4-.427Z" transform="translate(-364.668 -249.971)" fill="#401d82"/>
                    <path id="Trazado_1005112" data-name="Trazado 1005112" d="M376.941,269.533h-11.19l.214,1.355,10.976-.677Z" transform="translate(-365.149 -258.117)" fill="#401d82"/>
                    <path id="Trazado_1005113" data-name="Trazado 1005113" d="M397.909,269.649h6.975V268.62l-7.175.351Z" transform="translate(-384.812 -257.556)" fill="#401d82"/>
                    <path id="Trazado_1005114" data-name="Trazado 1005114" d="M382.311,277.979l-14.958.7.162,1.655,14.8-1.4Z" transform="translate(-366.135 -263.314)" fill="#401d82"/>
                    <path id="Trazado_1005115" data-name="Trazado 1005115" d="M382.838,289.521l13.523-.251v-1.605l-13.523.953Z" transform="translate(-375.663 -269.274)" fill="#401d82"/>
                    <path id="Trazado_1005116" data-name="Trazado 1005116" d="M388.014,297.707l-18.741.8.251,1.656,18.49-1.255Z" transform="translate(-367.316 -275.453)" fill="#401d82"/>
                    <path id="Trazado_1005117" data-name="Trazado 1005117" d="M382.968,310.359l-10.907.2v1.4l10.907-.7Z" transform="translate(-369.031 -283.238)" fill="#401d82"/>
                    <path id="Trazado_1005118" data-name="Trazado 1005118" d="M376.838,320.122v1.2h16.433l-.326-1.706Z" transform="translate(-371.971 -288.936)" fill="#401d82"/>
                  </g>
                  <path id="Trazado_1005119" data-name="Trazado 1005119" d="M364.186,327.448c8.719-1.9,16.865-3.968,23.283-6.523a26.4,26.4,0,0,1,1.706,5.921Z" transform="translate(-360.95 -285.524)" fill="#d2e9ff"/>
                </g>
              </g>
              <g id="Grupo_1180751" data-name="Grupo 1180751" transform="translate(0 26.911)">
                <g id="Grupo_1180746" data-name="Grupo 1180746">
                  <path id="Trazado_1005120" data-name="Trazado 1005120" d="M338.5,191.787a17.389,17.389,0,0,1-17.283,15.8c-.522,0-1.05-.024-1.58-.072A17.366,17.366,0,1,1,338.5,191.787Z" transform="translate(-301.723 -170.735)" fill="#b6dcff"/>
                  <g id="Grupo_1180745" data-name="Grupo 1180745" transform="translate(3.353 6.066)">
                    <path id="Trazado_1005121" data-name="Trazado 1005121" d="M309.117,199.067a18.1,18.1,0,0,0-2.061,4.327l2.973,1.279a18.541,18.541,0,0,1,1.154-4.262Z" transform="translate(-307.056 -192.932)" fill="#d7ecff"/>
                    <path id="Trazado_1005122" data-name="Trazado 1005122" d="M321.409,183.12a20.782,20.782,0,0,0-5.032,4.125l1.515,1.355a16.752,16.752,0,0,1,4.044-4.69Z" transform="translate(-312.791 -183.12)" fill="#d7ecff"/>
                  </g>
                  <path id="Trazado_1005123" data-name="Trazado 1005123" d="M319.58,171.322a19.481,19.481,0,1,0-3.518,38.8q.893.081,1.773.081a19.482,19.482,0,0,0,1.745-38.884Zm15.536,20.969a17.389,17.389,0,0,1-17.283,15.8c-.522,0-1.05-.024-1.58-.072a17.366,17.366,0,1,1,18.863-15.726Z" transform="translate(-298.339 -169.745)" fill="#d7ecff"/>
                  <path id="Trazado_1005124" data-name="Trazado 1005124" d="M319.58,167.433a19.481,19.481,0,1,0-3.518,38.8q.893.081,1.773.081a19.482,19.482,0,0,0,1.745-38.884Zm15.536,20.97a17.389,17.389,0,0,1-17.283,15.8c-.522,0-1.05-.024-1.58-.072A17.366,17.366,0,1,1,335.116,188.4Z" transform="translate(-298.339 -167.352)" fill="#fff"/>
                </g>
                <g id="Grupo_1180747" data-name="Grupo 1180747" transform="translate(2.549 3.044)">
                  <circle id="Elipse_13819" data-name="Elipse 13819" cx="12.911" cy="12.911" r="12.911" transform="translate(0 14.556) rotate(-34.311)" fill="#ba2b7a"/>
                  <path id="Trazado_1005125" data-name="Trazado 1005125" d="M336.455,193.967a10.824,10.824,0,1,0,8.434,12.774A10.837,10.837,0,0,0,336.455,193.967Zm-4.064,19.858a9.446,9.446,0,1,1,11.148-7.361A9.456,9.456,0,0,1,332.391,213.825Z" transform="translate(-316.345 -186.636)" fill="#fff"/>
                  <text id="C" transform="matrix(0.98, 0.2, -0.2, 0.98, 10.587, 21.006)" fill="#fff" font-size="15" font-family="SegoeUI-Bold, Segoe UI" font-weight="700"><tspan x="0" y="0">C</tspan></text>
                </g>
                <g id="Grupo_1180748" data-name="Grupo 1180748" transform="translate(11.444 39.63)">
                  <path id="Trazado_1005126" data-name="Trazado 1005126" d="M333.17,270.369l-5.084,31.671,3.465.494,4-32.165Z" transform="translate(-328.086 -270.369)" fill="#fff"/>
                  <path id="Trazado_1005127" data-name="Trazado 1005127" d="M330.631,317.777l3.231.6,1.556-12.519-3,.773Z" transform="translate(-329.652 -292.205)" fill="#d7ecff"/>
                </g>
                <g id="Grupo_1180750" data-name="Grupo 1180750" transform="translate(9.475 55.014)">
                  <path id="Trazado_1005128" data-name="Trazado 1005128" d="M326.18,310.66l-3.211,21.326,7.025.953,1.706-22.58Z" transform="translate(-322.969 -310.359)" fill="#7a4495"/>
                  <g id="Grupo_1180749" data-name="Grupo 1180749" transform="translate(0.284 1.211)">
                    <path id="Trazado_1005129" data-name="Trazado 1005129" d="M334.038,332.883,328,332.092l-.1.685,6.093.8Z" transform="translate(-326.283 -324.942)" fill="#401d82"/>
                    <path id="Trazado_1005130" data-name="Trazado 1005130" d="M332.947,340.62l.053-.7-6.416.584-.106.705Z" transform="translate(-325.412 -329.758)" fill="#401d82"/>
                    <path id="Trazado_1005131" data-name="Trazado 1005131" d="M324.429,355.772h6.817l.052-.693h-6.765Z" transform="translate(-324.152 -339.086)" fill="#401d82"/>
                    <path id="Trazado_1005132" data-name="Trazado 1005132" d="M328.732,326.833l6.009-.225.052-.695-5.957.222Z" transform="translate(-326.799 -321.141)" fill="#401d82"/>
                    <path id="Trazado_1005133" data-name="Trazado 1005133" d="M330.524,314.186l-.107.71,5.721-.685.053-.7Z" transform="translate(-327.836 -313.507)" fill="#401d82"/>
                    <path id="Trazado_1005134" data-name="Trazado 1005134" d="M329.937,319.206l-.1.685,5.707.985.052-.693Z" transform="translate(-327.477 -317.014)" fill="#401d82"/>
                    <path id="Trazado_1005135" data-name="Trazado 1005135" d="M325.626,347.837l-.1.684,6.529,1.033.053-.693Z" transform="translate(-324.825 -334.63)" fill="#401d82"/>
                    <path id="Trazado_1005136" data-name="Trazado 1005136" d="M330.578,361.7l-6.766-1.82-.1.689,6.817,1.834Z" transform="translate(-323.708 -342.039)" fill="#401d82"/>
                  </g>
                </g>
              </g>
            </g>
          </g>
          <g id="Grupo_1180764" data-name="Grupo 1180764" transform="translate(159.564 14.937)">
            <path id="Trazado_1005137" data-name="Trazado 1005137" d="M512.886,58.294c-12.969,0-23.483,8.93-23.483,19.946,0,7.734,5.186,14.434,12.762,17.744l-8.321,14.17,14.917-12.281a27.669,27.669,0,0,0,4.126.313c12.969,0,23.483-8.93,23.483-19.946S525.856,58.294,512.886,58.294Z" transform="translate(-489.403 -58.294)" fill="#fff"/>
            <g id="Grupo_1180763" data-name="Grupo 1180763" transform="translate(9.752 2.958)">
              <g id="Grupo_1180755" data-name="Grupo 1180755" transform="translate(17.734 10.128)">
                <path id="Trazado_1005138" data-name="Trazado 1005138" d="M573.905,92.309,569.284,99.6l.233.146,4.188-6.707-.183,7.342.275.007Z" transform="translate(-566.041 -92.309)" fill="#ba2b7a"/>
                <g id="Grupo_1180754" data-name="Grupo 1180754" transform="translate(0 6.444)">
                  <path id="Trazado_1005139" data-name="Trazado 1005139" d="M564.916,115.671a4.756,4.756,0,0,1-3.987-5.4l9.677,1.837A4.756,4.756,0,0,1,564.916,115.671Z" transform="translate(-560.853 -109.802)" fill="#f8dd59"/>
                  <path id="Trazado_1005140" data-name="Trazado 1005140" d="M562.544,110.573a4.869,4.869,0,0,0,4.042,4.261,5.208,5.208,0,0,0,2.388-.1,5.071,5.071,0,0,1-4.058.936,4.756,4.756,0,0,1-3.987-5.4Z" transform="translate(-560.853 -109.802)" fill="#f6d430"/>
                  <path id="Trazado_1005141" data-name="Trazado 1005141" d="M570.719,111.36c.109-.571-1.97-1.445-4.642-1.952s-4.927-.455-5.035.115,1.97,1.445,4.642,1.952S570.611,111.931,570.719,111.36Z" transform="translate(-560.967 -109.059)" fill="#ffe67b"/>
                  <path id="Trazado_1005142" data-name="Trazado 1005142" d="M570.924,111.563c.091-.478-1.851-1.248-4.337-1.719s-4.575-.467-4.666.011,1.851,1.248,4.337,1.719S570.833,112.041,570.924,111.563Z" transform="translate(-561.508 -109.326)" fill="#e2bd23"/>
                </g>
                <path id="Trazado_1005143" data-name="Trazado 1005143" d="M570.046,92.309l-7.035,8.271.174.148,6.72-7.921.752,9.115.228-.019Z" transform="translate(-562.181 -92.309)" fill="#ed4082"/>
              </g>
              <g id="Grupo_1180757" data-name="Grupo 1180757" transform="translate(0 7.982)">
                <path id="Trazado_1005144" data-name="Trazado 1005144" d="M521.471,86.73,520,95.13l.271.046,1.295-7.649,3.106,7.48.254-.106Z" transform="translate(-517.982 -86.73)" fill="#ba2b7a"/>
                <g id="Grupo_1180756" data-name="Grupo 1180756" transform="translate(0 7.324)">
                  <path id="Trazado_1005145" data-name="Trazado 1005145" d="M519.572,112.9a4.756,4.756,0,0,0,5.03-4.451l-9.847-.229A4.756,4.756,0,0,0,519.572,112.9Z" transform="translate(-514.754 -107.277)" fill="#f8dd59"/>
                  <path id="Trazado_1005146" data-name="Trazado 1005146" d="M524.632,108.716a4.869,4.869,0,0,1-4.844,3.321,5.2,5.2,0,0,1-2.315-.6,5.069,5.069,0,0,0,3.772,1.765,4.756,4.756,0,0,0,5.03-4.451Z" transform="translate(-516.427 -107.582)" fill="#f6d430"/>
                  <path id="Trazado_1005147" data-name="Trazado 1005147" d="M514.757,106.711c.013-.581,2.229-1,4.948-.937s4.913.586,4.9,1.166-2.229,1-4.948.937S514.743,107.292,514.757,106.711Z" transform="translate(-514.756 -105.767)" fill="#ffe67b"/>
                  <path id="Trazado_1005148" data-name="Trazado 1005148" d="M515.649,106.992c.011-.486,2.071-.832,4.6-.774s4.571.5,4.56.987-2.071.832-4.6.774S515.637,107.478,515.649,106.992Z" transform="translate(-515.305 -106.041)" fill="#e2bd23"/>
                </g>
                <path id="Trazado_1005149" data-name="Trazado 1005149" d="M519.809,86.95,517.258,96.1l.22.061,2.4-8.621,4.929,8.755.2-.112Z" transform="translate(-516.295 -86.865)" fill="#ed4082"/>
              </g>
              <g id="Grupo_1180758" data-name="Grupo 1180758" transform="translate(1.136 3.551)">
                <path id="Trazado_1005150" data-name="Trazado 1005150" d="M543.977,82.48a47.387,47.387,0,0,1-12.035-6.946l-.4-.32-.466.23h0a53.163,53.163,0,0,1-13.365,4.681l.086.542A54.143,54.143,0,0,0,531.334,77.2a48.606,48.606,0,0,0,12.455,5.815Z" transform="translate(-517.708 -75.214)" fill="#7a4495"/>
                <path id="Trazado_1005151" data-name="Trazado 1005151" d="M546.722,78c.731-.256,1.459-.521,2.18-.806.555.364,1.12.713,1.689,1.053l.5-1.515c-.536-.39-1.065-.788-1.582-1.2l-.4-.32-.466.23h0c-.783.395-1.579.766-2.381,1.124Z" transform="translate(-535.276 -75.213)" fill="#401d82"/>
              </g>
              <g id="Grupo_1180762" data-name="Grupo 1180762" transform="translate(4.524)">
                <g id="Grupo_1180759" data-name="Grupo 1180759" transform="translate(6.97)">
                  <path id="Trazado_1005152" data-name="Trazado 1005152" d="M548.925,66.075l-1.041-.093L544.632,95.5l2.23.2Z" transform="translate(-544.632 -65.982)" fill="#7a4495"/>
                  <path id="Trazado_1005153" data-name="Trazado 1005153" d="M546.957,137.5l.207-2.963-2.139.2-.281,2.552Z" transform="translate(-544.701 -108.163)" fill="#401d82"/>
                  <path id="Trazado_1005154" data-name="Trazado 1005154" d="M553.359,69.5a1.651,1.651,0,0,0-.686-.1,1.671,1.671,0,0,0-.416.086l-.268,2.431a1.648,1.648,0,0,0,.858.174,1.715,1.715,0,0,0,.337-.058Z" transform="translate(-549.159 -68.079)" fill="#401d82"/>
                </g>
                <g id="Grupo_1180760" data-name="Grupo 1180760" transform="translate(4.509 27.256)">
                  <path id="Trazado_1005155" data-name="Trazado 1005155" d="M538.236,138.8l.821-1.964,5.864.437.309,2.23Z" transform="translate(-538.236 -136.832)" fill="#7a4495"/>
                  <path id="Trazado_1005156" data-name="Trazado 1005156" d="M538.236,141.179l6.994.7-.144-1.042-6.652-.136Z" transform="translate(-538.236 -139.215)" fill="#401d82"/>
                </g>
                <path id="Trazado_1005157" data-name="Trazado 1005157" d="M540.842,142.4l-6.314-.687-6.429-.578-1.585,1.716,7.848.705,7.848.706Z" transform="translate(-526.514 -112.226)" fill="#7a4495"/>
                <g id="Grupo_1180761" data-name="Grupo 1180761" transform="translate(9.135 0.997)">
                  <path id="Trazado_1005158" data-name="Trazado 1005158" d="M550.261,69.918a1.42,1.42,0,1,1,1.488,1.16A1.339,1.339,0,0,1,550.261,69.918Z" transform="translate(-550.259 -68.573)" fill="#f8dd59"/>
                  <path id="Trazado_1005159" data-name="Trazado 1005159" d="M553.127,70.409a1.158,1.158,0,0,0-.348-.743,1.056,1.056,0,0,1,.029.164,1.339,1.339,0,0,1-1.327,1.342,1.468,1.468,0,0,1-1.14-.417,1.361,1.361,0,0,0,1.459,1A1.339,1.339,0,0,0,553.127,70.409Z" transform="translate(-550.309 -69.246)" fill="#f6d430"/>
                </g>
              </g>
            </g>
          </g>
          <g id="Grupo_1180768" data-name="Grupo 1180768" transform="translate(140.429 109.352)">
            <g id="Grupo_1180766" data-name="Grupo 1180766" transform="translate(34.296 18.518)">
              <path id="Trazado_1005160" data-name="Trazado 1005160" d="M528.814,386.07h1.564c1.312-3.279,6.569-16.343,8.581-20.172,2.307-4.389,4.591-12.344,2.258-13.7s-6.4,1.279-8.279,8.182C531.276,366.477,529.262,382.424,528.814,386.07Z" transform="translate(-528.814 -351.856)" fill="#216838"/>
              <g id="Grupo_1180765" data-name="Grupo 1180765" transform="translate(0 0.043)">
                <path id="Trazado_1005161" data-name="Trazado 1005161" d="M542.55,356.524q.031-.231.053-.454l-3.225,1.576,1.842-5.588a2.552,2.552,0,0,0-.375-.091l-1.807,5.479-1.62-4.219q-.154.132-.306.278l1.735,4.519-1.069,3.241-2.289-5.735q-.126.2-.25.412l2.351,5.891-1.456,4.416-2.688-5.944c-.013.048-.028.1-.042.144-.038.14-.077.292-.116.442l2.667,5.9-1.131,3.43-2.411-5.283c-.041.217-.082.434-.124.657l2.357,5.164-1.143,3.468-1.877-4.795q-.061.372-.121.747l1.809,4.62-1.552,4.708-1.176-3.225c-.039.272-.077.542-.115.809l1.1,3.006-.984,2.986-.714-1.563c-.032.245-.064.486-.094.719l.631,1.381-.831,2.519h.4l.788-2.39,1.266-.57.209-.516-1.311.59,1-3.03,1.712-.991.24-.583-1.77,1.024,1.566-4.751,2.3-1.3c.082-.194.164-.388.246-.58l-2.365,1.333,1.158-3.513,3.09-2.136q.16-.354.312-.683l-3.2,2.214,1.1-3.342,3.385-1.5q.129-.261.256-.534l-3.478,1.54,1.473-4.467,3.881-2.129q.073-.259.142-.516l-3.846,2.11,1.078-3.268Z" transform="translate(-529.285 -351.967)" fill="#b2d855"/>
                <path id="Trazado_1005162" data-name="Trazado 1005162" d="M531.711,440.336h.449l.115-.286Z" transform="translate(-530.596 -406.164)" fill="#aaa"/>
                <path id="Trazado_1005163" data-name="Trazado 1005163" d="M528.818,440.715l0,.03h.025Z" transform="translate(-528.814 -406.574)" fill="#aaa"/>
              </g>
            </g>
            <g id="Grupo_1180767" data-name="Grupo 1180767" transform="translate(21.467)">
              <path id="Trazado_1005164" data-name="Trazado 1005164" d="M501.74,356.452c1.372-4.63,5.952-20.135,8.931-30.784,3.538-12.645,4.441-21.526,2.258-21.9s-4.064,1.505-7.752,10.236c-3.35,7.93-8.748,37.155-9.711,42.451Z" transform="translate(-495.466 -303.721)" fill="#216838"/>
              <path id="Trazado_1005165" data-name="Trazado 1005165" d="M515.284,309.718q.025-.271.045-.532l-3.166,2.571,2.228-7.917a.812.812,0,0,0-.162-.05q-.108-.018-.215-.029l-2.237,7.951-1.962-4.6q-.119.2-.242.413l2.038,4.774-2.32,8.244-2.784-6.59-.03.07c-.058.137-.117.282-.176.432l2.823,6.681-1.81,6.433-3.269-5.73-.138.534,3.261,5.715-2.2,7.826-2.849-6.061q-.069.305-.138.612l2.828,6.016-1.458,5.18-2.882-4.185-.109.521,2.855,4.145-1.818,6.46-2.11-5.332-.138.7,2.076,5.247-1.671,5.937-1.857-3.689-.117.622L499.4,355.7l-.218.775h.4l.188-.669,4.217-2.53.161-.545-4.226,2.535,1.671-5.937,4.352-2.707.162-.554-4.36,2.712,1.844-6.555,4.659-3.513.179-.617-4.666,3.518,1.412-5.019,4.415-2.521.152-.53-4.418,2.523,2.215-7.874,4.476-2.661c.05-.18.1-.357.148-.535l-4.473,2.658,1.8-6.412,4.4-3.175c.042-.19.081-.375.122-.562l-4.35,3.141,2.321-8.248Z" transform="translate(-496.766 -303.746)" fill="#b2d855"/>
            </g>
            <path id="Trazado_1005166" data-name="Trazado 1005166" d="M440.774,408.465h18.874c.253-1.583.332-3.21.43-4.8a57.341,57.341,0,0,0,.087-6.288c-.051-1.05-.142-2.1-.289-3.144a6.846,6.846,0,0,0-.783-2.571,3.66,3.66,0,0,0-4.451-1.528,5.046,5.046,0,0,0-2.32,1.7,7.657,7.657,0,0,0-.625.952c-.081-.2-.165-.393-.24-.572a13.691,13.691,0,0,0-1.244-2.375,3.493,3.493,0,0,0-1.83-1.478,3,3,0,0,0-2.432.383,5.829,5.829,0,0,0-2.361,4.263,26.2,26.2,0,0,0,.167,5.9c.008.1.017.207.025.31a2.275,2.275,0,0,0-1.677-.211c-1.458.391-2.136,1.97-2.354,3.33a10.407,10.407,0,0,0,.538,4.69C440.439,407.515,440.6,407.99,440.774,408.465Z" transform="translate(-439.662 -355.733)" fill="#b2d855"/>
            <path id="Trazado_1005167" data-name="Trazado 1005167" d="M515.111,407.271a6.875,6.875,0,0,0,.178-.786c.4-2.531-1.078-5.346-3.85-5.469a3.556,3.556,0,0,0-.708.046c.227-.441.445-.884.668-1.309q.936-1.78,1.8-3.6c.559-1.178,1.1-2.365,1.6-3.571a6.34,6.34,0,0,0,.622-3.467,3.453,3.453,0,0,0-1.866-2.488,4.568,4.568,0,0,0-3.2-.054,18.585,18.585,0,0,0-5.823,3.255,21.3,21.3,0,0,0-3.507,3.516,4.6,4.6,0,0,0-1.108-1.842,6.133,6.133,0,0,0-4.947-1.632c-3.672.334-6.8,3.18-9.027,5.923A22.582,22.582,0,0,0,484,398.6c-.034-.284-.066-.567-.1-.85a25.2,25.2,0,0,0-.43-3.2,2.116,2.116,0,0,0-1.795-1.627,3.858,3.858,0,0,0-2.619.8,16,16,0,0,0-3.782,4,20.182,20.182,0,0,0-2.523,4.932,18.169,18.169,0,0,0-.982,4.615h43.341Z" transform="translate(-459.418 -354.539)" fill="#145436"/>
            <path id="Trazado_1005168" data-name="Trazado 1005168" d="M536.005,422.667a6.457,6.457,0,0,0-1.615-3.739,5.473,5.473,0,0,0-3.651-1.809,5.123,5.123,0,0,0-1.957.23c0-.16,0-.32,0-.479a9.2,9.2,0,0,0-.893-3.928,2.761,2.761,0,0,0-3.169-1.518,6.354,6.354,0,0,0-3.156,2.333c-.206.258-.4.53-.585.811a4.248,4.248,0,0,0-.408-.542,3.753,3.753,0,0,0-4.233-1.038c-2.916,1.1-4.6,4.254-5.095,7.166a14.166,14.166,0,0,0-.193,2.514Z" transform="translate(-483.584 -369.935)" fill="#b2d855"/>
          </g>
        </g>
      </g>
    </g>
  </g>
</svg>
