<svg xmlns="http://www.w3.org/2000/svg" width="34.839" height="40" viewBox="0 0 34.839 40">
  <g id="Grupo_1180772" data-name="Grupo 1180772" transform="translate(-5 -1)">
    <path id="Trazado_1005229" data-name="Trazado 1005229" d="M32.069,33.077a13.3,13.3,0,0,0,5.588-10.923,13.465,13.465,0,0,0-4.112-9.727,12.217,12.217,0,0,0-9.073-3.412c-6.368.311-11.621,5.769-11.959,12.424a13.254,13.254,0,0,0,5.594,11.654.911.911,0,0,1,.356.747V35.1a1.283,1.283,0,0,0-.484,1v1.29a1.292,1.292,0,0,0,1.29,1.29v.645a1.932,1.932,0,0,0,1.29,1.817v.334a2.287,2.287,0,0,0,2.193,2.366H27.4a2.287,2.287,0,0,0,2.193-2.366v-.334a1.932,1.932,0,0,0,1.29-1.817v-.645a1.292,1.292,0,0,0,1.29-1.29V36.1a1.283,1.283,0,0,0-.484-1V33.882a.983.983,0,0,1,.379-.806ZM13.8,21.5A11.672,11.672,0,0,1,24.536,10.3a10.9,10.9,0,0,1,8.12,3.057,12.169,12.169,0,0,1,3.711,8.793,12.01,12.01,0,0,1-5.038,9.866,2.259,2.259,0,0,0-.929,1.863v.924H19.754V33.84a2.187,2.187,0,0,0-.908-1.806A11.972,11.972,0,0,1,13.8,21.5ZM27.4,42.549H22.754a1,1,0,0,1-.9-1.075v-.215H28.3v.215a1,1,0,0,1-.9,1.075Zm2.193-3.226a.646.646,0,0,1-.645.645H21.206a.646.646,0,0,1-.645-.645v-.645h9.032ZM19.27,37.387V36.1H30.883v1.29Z" transform="translate(-2.657 -2.839)" fill="#3e5d56"/>
    <path id="Trazado_1005230" data-name="Trazado 1005230" d="M31,1h1.29V4.226H31Z" transform="translate(-9.226)" fill="#3e5d56"/>
    <path id="Trazado_1005231" data-name="Trazado 1005231" d="M54,27h3.226v1.29H54Z" transform="translate(-17.387 -9.226)" fill="#3e5d56"/>
    <path id="Trazado_1005232" data-name="Trazado 1005232" d="M5,27H8.226v1.29H5Z" transform="translate(0 -9.226)" fill="#3e5d56"/>
    <path id="Trazado_1005233" data-name="Trazado 1005233" d="M0,0H1.29V3.226H0Z" transform="translate(9.645 6.56) rotate(-45)" fill="#3e5d56"/>
    <path id="Trazado_1005234" data-name="Trazado 1005234" d="M0,0H3.226V1.29H0Z" transform="translate(31.995 7.927) rotate(-45)" fill="#3e5d56"/>
    <path id="Trazado_1005235" data-name="Trazado 1005235" d="M25.874,31.43a.643.643,0,0,0,.158-.423V17.766a.643.643,0,0,0-.158-.423A4.036,4.036,0,0,0,22.806,16a3.667,3.667,0,0,0-3.871,3.41,2.6,2.6,0,0,0,.025.357A3.327,3.327,0,0,0,17,22.728a3.11,3.11,0,0,0,.684,1.935A3.11,3.11,0,0,0,17,26.6a3.35,3.35,0,0,0,1.941,2.957,3.7,3.7,0,0,0,3.865,3.218,4.036,4.036,0,0,0,3.068-1.344ZM20.251,29.5l.81-.521h1.1v-1.29h-1.29a.646.646,0,0,0-.349.1l-.974.627A2.081,2.081,0,0,1,18.29,26.6,1.928,1.928,0,0,1,19,25.149c.015-.013.021-.032.034-.046h1.841v-1.29H18.664a1.827,1.827,0,0,1-.374-1.085,2.081,2.081,0,0,1,1.325-1.84l.8.8a.645.645,0,0,0,.456.189h1.29v-1.29H21.138l-.874-.874a1.47,1.47,0,0,1-.038-.3,2.388,2.388,0,0,1,2.581-2.12,2.8,2.8,0,0,1,1.935.734V30.75a2.8,2.8,0,0,1-1.935.734A2.411,2.411,0,0,1,20.251,29.5Z" transform="translate(-4.258 -5.322)" fill="#3e5d56"/>
    <path id="Trazado_1005236" data-name="Trazado 1005236" d="M33.577,32.733a7.364,7.364,0,0,0,.772.041h.1a7.547,7.547,0,0,0,2.02-.314.645.645,0,0,0,.463-.619v-.934a.379.379,0,0,1,.166-.338,6.338,6.338,0,0,0,.963-.59.256.256,0,0,1,.285.006l.76.467a.647.647,0,0,0,.8-.1,8.506,8.506,0,0,0,2.1-3.87.646.646,0,0,0-.289-.7l-.956-.587a6.831,6.831,0,0,0,0-1.6L41.724,23a.644.644,0,0,0,.289-.7,8.507,8.507,0,0,0-2.1-3.872.644.644,0,0,0-.8-.1l-.764.469a.257.257,0,0,1-.285.006,6.322,6.322,0,0,0-.963-.59.379.379,0,0,1-.167-.338v-.937a.645.645,0,0,0-.463-.619A7.491,7.491,0,0,0,34.248,16c-.226,0-.45.017-.671.041a.645.645,0,0,0-.577.641v4.905a.645.645,0,0,0,.833.617,1.772,1.772,0,0,1,.516-.077,2.276,2.276,0,0,1,0,4.516,1.772,1.772,0,0,1-.516-.077.645.645,0,0,0-.833.617v4.906a.645.645,0,0,0,.577.641Zm.713-4.8h.059a3.428,3.428,0,0,0,3.284-3.548,3.428,3.428,0,0,0-3.284-3.548H34.29V17.29a6.474,6.474,0,0,1,1.354.14v.436a1.66,1.66,0,0,0,.883,1.494,5.039,5.039,0,0,1,.768.471,1.538,1.538,0,0,0,1.729.057l.3-.186a7.229,7.229,0,0,1,1.309,2.45l-.9.556a.644.644,0,0,0-.3.66,5.694,5.694,0,0,1,0,2.039.646.646,0,0,0,.3.66l.905.556a7.212,7.212,0,0,1-1.312,2.447l-.3-.184a1.539,1.539,0,0,0-1.729.058,5.055,5.055,0,0,1-.768.471,1.66,1.66,0,0,0-.883,1.493v.433a6.069,6.069,0,0,1-1.211.142H34.29Z" transform="translate(-9.935 -5.323)" fill="#3e5d56"/>
    <path id="Trazado_1005237" data-name="Trazado 1005237" d="M26,23.11h1.29V24.4H26Z" transform="translate(-7.452 -7.845)" fill="#3e5d56"/>
    <path id="Trazado_1005238" data-name="Trazado 1005238" d="M26,34.11h1.29V35.4H26Z" transform="translate(-7.452 -11.749)" fill="#3e5d56"/>
    <path id="Trazado_1005239" data-name="Trazado 1005239" d="M24,28.11h1.29V29.4H24Z" transform="translate(-6.742 -9.62)" fill="#3e5d56"/>
  </g>
</svg>
