<svg id="Grupo_1179295" data-name="Grupo 1179295" xmlns="http://www.w3.org/2000/svg" width="40" height="40" viewBox="0 0 40 40">
  <path id="Trazado_1000251" data-name="Trazado 1000251" d="M168.925,464.936a.586.586,0,0,0-.586.586v2.505a.586.586,0,0,0,1.172,0v-2.505A.586.586,0,0,0,168.925,464.936Z" transform="translate(-155.187 -428.613)" fill="#3e5d56"/>
  <path id="Trazado_1000252" data-name="Trazado 1000252" d="M139.008,209.208l-2.1-.763,1.107-.553a1.845,1.845,0,0,0,.882-2.4,7.686,7.686,0,0,1-.576-3.128v-3.758a6.229,6.229,0,0,0-6.222-6.222H129.6a6.229,6.229,0,0,0-6.222,6.222v3.758a7.686,7.686,0,0,1-.576,3.128,1.845,1.845,0,0,0,.882,2.4l1.107.553-2.1.763a3.729,3.729,0,0,0-2.447,3.493v4.069a.586.586,0,0,0,1.172,0V212.7a2.553,2.553,0,0,1,1.676-2.392l1.275-.464a7.453,7.453,0,0,0,1.727,2.045.586.586,0,1,0,.746-.9,6.291,6.291,0,0,1-1.351-1.55l1.606-.584a1.844,1.844,0,0,0,1.21-1.728V206.1a5.576,5.576,0,0,0,5.091,0v1.031a1.844,1.844,0,0,0,1.21,1.728l1.607.584a6.313,6.313,0,0,1-7.08,2.753.586.586,0,0,0-.319,1.128,7.485,7.485,0,0,0,8.519-3.473l1.276.464a2.553,2.553,0,0,1,1.676,2.392v4.07a.586.586,0,0,0,1.172,0V212.7A3.73,3.73,0,0,0,139.008,209.208Zm-14.462-10.6a5.056,5.056,0,0,1,5.05-5.05H132.1a5.056,5.056,0,0,1,5.05,5.05v.611a6.137,6.137,0,0,1-3.718-1.924q.47-.357.928-.747a.586.586,0,1,0-.763-.89,25.353,25.353,0,0,1-9.053,4.694v-1.744Zm2.586,8.517a.669.669,0,0,1-.439.626l-.389.141-2.1-1.05a.684.684,0,0,1-.335-.873,8.861,8.861,0,0,0,.677-3.6v-.795c.188-.05.429-.117.713-.2a5.584,5.584,0,0,0,1.872,3.923v1.833Zm3.717-1.587a4.429,4.429,0,0,1-4.424-4.424v-.126a26.933,26.933,0,0,0,6.052-3.006,6.747,6.747,0,0,0,2.8,1.96v1.172A4.429,4.429,0,0,1,130.849,205.539Zm4.545,2.355-.389-.141a.669.669,0,0,1-.439-.626v-1.833a5.583,5.583,0,0,0,1.879-4.178v-.826c.269.058.509.094.707.118v1.961a8.861,8.861,0,0,0,.677,3.6.684.684,0,0,1-.335.873Z" transform="translate(-110.849 -177.357)" fill="#3e5d56"/>
  <path id="Trazado_1000253" data-name="Trazado 1000253" d="M329.247,464.936a.586.586,0,0,0-.586.586v2.505a.586.586,0,0,0,1.172,0v-2.505A.586.586,0,0,0,329.247,464.936Z" transform="translate(-302.984 -428.613)" fill="#3e5d56"/>
  <path id="Trazado_1000254" data-name="Trazado 1000254" d="M226.917,304.613a2.467,2.467,0,0,0-2.465,2.465.586.586,0,0,0,.586.586H228.8a.586.586,0,0,0,.586-.586A2.468,2.468,0,0,0,226.917,304.613Zm-1.152,1.879a1.293,1.293,0,0,1,2.3,0Z" transform="translate(-206.917 -280.815)" fill="#3e5d56"/>
  <path id="Trazado_1000255" data-name="Trazado 1000255" d="M38.378,15.868,35.429,14.8a.669.669,0,0,1-.439-.626v-.8a3.674,3.674,0,0,0,1.253-2.768V8.1a2.467,2.467,0,0,0-2.465-2.465H31.273A2.468,2.468,0,0,0,28.808,8.1v2.505a3.674,3.674,0,0,0,1.253,2.768v.8a.669.669,0,0,1-.439.626l-1.253.455a.667.667,0,0,1-.894-.626V12.548a2.472,2.472,0,0,0-1.622-2.316L22.9,9.16a.669.669,0,0,1-.439-.626v-.8A3.674,3.674,0,0,0,23.717,4.97V2.465A2.467,2.467,0,0,0,21.253,0H18.748a2.467,2.467,0,0,0-2.465,2.465V4.97a3.674,3.674,0,0,0,1.253,2.768v.8a.669.669,0,0,1-.439.626l-2.949,1.072a2.472,2.472,0,0,0-1.622,2.316v2.077a.667.667,0,0,1-.894.626L10.378,14.8a.669.669,0,0,1-.439-.626v-.8a3.674,3.674,0,0,0,1.253-2.768V8.1A2.468,2.468,0,0,0,8.727,5.636H6.222A2.467,2.467,0,0,0,3.758,8.1v2.505A3.674,3.674,0,0,0,5.01,13.374v.8a.669.669,0,0,1-.439.626L1.622,15.868A2.472,2.472,0,0,0,0,18.185v9.331a.586.586,0,1,0,1.172,0V18.185a1.3,1.3,0,0,1,.851-1.215L4.972,15.9a1.844,1.844,0,0,0,1.21-1.728V13.1a.586.586,0,0,0-.233-.467,2.522,2.522,0,0,1-1.02-2.023V8.1A1.294,1.294,0,0,1,6.222,6.808H8.727A1.294,1.294,0,0,1,10.02,8.1v2.505A2.522,2.522,0,0,1,9,12.629a.586.586,0,0,0-.233.467v1.073A1.844,1.844,0,0,0,9.978,15.9l1.253.455A1.838,1.838,0,0,0,13.7,14.625V12.548a1.3,1.3,0,0,1,.851-1.215L17.5,10.261a1.844,1.844,0,0,0,1.21-1.728V7.461a.586.586,0,0,0-.233-.467,2.523,2.523,0,0,1-1.02-2.023V2.465a1.294,1.294,0,0,1,1.293-1.293h2.505a1.294,1.294,0,0,1,1.293,1.293V4.97a2.523,2.523,0,0,1-1.02,2.023.586.586,0,0,0-.233.467V8.533a1.844,1.844,0,0,0,1.21,1.728l2.949,1.072a1.3,1.3,0,0,1,.851,1.215v2.077a1.838,1.838,0,0,0,2.467,1.728l1.253-.455a1.844,1.844,0,0,0,1.21-1.728V13.1A.586.586,0,0,0,31,12.63a2.523,2.523,0,0,1-1.02-2.023V8.1a1.294,1.294,0,0,1,1.293-1.293h2.505A1.294,1.294,0,0,1,35.071,8.1v2.505a2.522,2.522,0,0,1-1.02,2.023.586.586,0,0,0-.233.467V14.17a1.844,1.844,0,0,0,1.21,1.728l2.949,1.072a1.3,1.3,0,0,1,.851,1.215v9.331a.586.586,0,1,0,1.172,0V18.185a2.472,2.472,0,0,0-1.622-2.316Z" fill="#3e5d56"/>
</svg>
