<svg xmlns="http://www.w3.org/2000/svg" width="39.101" height="40.248" viewBox="0 0 39.101 40.248">
  <g id="outline" transform="translate(-5.411 -4.621)">
    <path id="Trazado_998747" data-name="Trazado 998747" d="M42.513,16.7H38.19V15.417a4.717,4.717,0,0,0,1.6.29,4.614,4.614,0,0,0,1.881-.4,4.7,4.7,0,0,0,2.737-3.784.734.734,0,0,0-.3-.675,4.7,4.7,0,0,0-4.643-.493A4.637,4.637,0,0,0,37.456,12.1a4.645,4.645,0,0,0-2.006-1.743,4.7,4.7,0,0,0-4.643.493.734.734,0,0,0-.3.675,4.7,4.7,0,0,0,2.736,3.784,4.608,4.608,0,0,0,1.881.4,4.733,4.733,0,0,0,1.6-.29V16.7H26.633V10.228a4.721,4.721,0,0,0,1.6.29,4.625,4.625,0,0,0,1.881-.4A4.7,4.7,0,0,0,32.85,6.335a.734.734,0,0,0-.3-.675,4.7,4.7,0,0,0-4.643-.493A4.63,4.63,0,0,0,25.9,6.91a4.636,4.636,0,0,0-2.006-1.742,4.7,4.7,0,0,0-4.643.493.734.734,0,0,0-.3.675,4.7,4.7,0,0,0,2.736,3.784,4.609,4.609,0,0,0,1.881.4,4.712,4.712,0,0,0,1.6-.291V16.7H15.078V15.417a4.729,4.729,0,0,0,1.6.291,4.614,4.614,0,0,0,1.881-.4A4.7,4.7,0,0,0,21.3,11.525a.734.734,0,0,0-.3-.675,4.7,4.7,0,0,0-4.643-.493A4.637,4.637,0,0,0,14.346,12.1a4.645,4.645,0,0,0-2.006-1.743A4.7,4.7,0,0,0,7.7,10.85a.734.734,0,0,0-.3.675,4.7,4.7,0,0,0,2.736,3.784,4.608,4.608,0,0,0,1.881.4,4.725,4.725,0,0,0,1.6-.29V16.7H9.858a.734.734,0,0,0-.728.637,16.444,16.444,0,0,0-.162,2.2v2.2l-3.081,4.73a2.27,2.27,0,0,0,.945,3.3l2.21,1.028.875,4.984a5.281,5.281,0,0,0,5.208,4.372h4.051a1.129,1.129,0,0,1,1.1.9l.654,3.147a.735.735,0,0,0,.719.585H37.257a.735.735,0,0,0,.719-.883l-1-4.807a7.611,7.611,0,0,1,.952-5.522l3.045-5a16.853,16.853,0,0,0,2.264-11.228.734.734,0,0,0-.726-.626Zm-2.454-5a3.167,3.167,0,0,1,2.81.107,3.181,3.181,0,0,1-4.607,2.055,3.168,3.168,0,0,1,1.8-2.162Zm-6.221,2.27a3.168,3.168,0,0,1-1.8-2.162,3.181,3.181,0,0,1,4.607,2.054A3.162,3.162,0,0,1,33.838,13.967ZM28.5,6.508a3.167,3.167,0,0,1,2.81.107,3.18,3.18,0,0,1-4.607,2.054A3.167,3.167,0,0,1,28.5,6.508Zm-6.219,2.27a3.168,3.168,0,0,1-1.8-2.163,3.181,3.181,0,0,1,4.606,2.054,3.158,3.158,0,0,1-2.809.109ZM16.949,11.7a3.167,3.167,0,0,1,2.81.107,3.181,3.181,0,0,1-4.607,2.055A3.168,3.168,0,0,1,16.949,11.7Zm-6.221,2.27a3.168,3.168,0,0,1-1.8-2.162,3.181,3.181,0,0,1,4.607,2.054A3.162,3.162,0,0,1,10.728,13.967ZM39.72,27.79l-3.045,5a9.076,9.076,0,0,0-1.136,6.584l.815,3.924H22.249l-.532-2.561a2.6,2.6,0,0,0-2.54-2.066H15.125a3.813,3.813,0,0,1-3.761-3.158l-.941-5.362a.735.735,0,0,0-.413-.538L7.451,28.424a.8.8,0,0,1-.334-1.163l3.2-4.913a.738.738,0,0,0,.119-.4V19.533a13.241,13.241,0,0,1,.074-1.364H41.866A15.382,15.382,0,0,1,39.72,27.79ZM17.7,21.482a.734.734,0,0,1-.129,1.03,4.256,4.256,0,0,1-5.089,0,.734.734,0,0,1,.9-1.159,2.866,2.866,0,0,0,3.285,0A.735.735,0,0,1,17.7,21.482Z" transform="translate(0 0)" fill="#3e5d56" stroke="#3e5d56" stroke-width="0.2"/>
  </g>
</svg>
