<svg xmlns="http://www.w3.org/2000/svg" width="128" height="128" viewBox="0 0 128 128">
  <g id="Grupo_1177482" data-name="Grupo 1177482" transform="translate(-383.457 -8400.273)">
    <path id="Trazado_997401" data-name="Trazado 997401" d="M64,0A64,64,0,1,1,0,64,64,64,0,0,1,64,0Z" transform="translate(383.457 8400.273)" fill="#565097"/>
    <g id="Layer_35" transform="translate(408.567 8425.626)">
      <g id="Grupo_1179051" data-name="Grupo 1179051" transform="translate(6.8 5)">
        <g id="Grupo_1179050" data-name="Grupo 1179050">
          <path id="Trazado_999904" data-name="Trazado 999904" d="M52.992,69.717,41.108,74.053a5.006,5.006,0,0,0-4.26-5.456l-2.766-.523A8.231,8.231,0,0,1,30.643,66.8a10.673,10.673,0,0,0-11.436.374l-.972.673V66.728a1.15,1.15,0,0,0-1.121-1.121H7.921A1.15,1.15,0,0,0,6.8,66.728V86.236a1.15,1.15,0,0,0,1.121,1.121h9.194a1.15,1.15,0,0,0,1.121-1.121v-.673l10.09,1.57a37.007,37.007,0,0,0,3.812.3c4.485,0,7.773-1.271,11.735-3.588l14.575-6.8a3.62,3.62,0,0,0,1.644-4.858c-.9-2.093-3.513-3.812-7.1-2.467Zm-37,15.547H9.042V68h6.951Zm41.483-10.24L42.9,81.9a.073.073,0,0,0-.075.075c-5.382,3.065-8.67,3.812-14.2,3.065L18.236,83.47V70.764l2.242-1.644a8.546,8.546,0,0,1,9.044-.224,12.228,12.228,0,0,0,4.186,1.495l2.766.523a2.745,2.745,0,0,1,2.392,3.065,3.4,3.4,0,0,1-.6,1.42,2.531,2.531,0,0,1-2.392.972L29.522,75.4a1.131,1.131,0,1,0-.3,2.242l6.353.972a2.543,2.543,0,0,0,.747.075,4.661,4.661,0,0,0,3.513-1.57L53.814,71.81c2.392-.9,3.737.149,4.26,1.271.149.523.3,1.57-.6,1.943Z" transform="translate(-6.8 -20.237)" fill="#fff5c1"/>
          <path id="Trazado_999905" data-name="Trazado 999905" d="M75.288,30.488,72,28.844a13.7,13.7,0,0,0,2.766-12.856A15.528,15.528,0,0,0,64,5.374c-4.485-1.121-8.969.3-12.557,4.036l-1.42,1.42L48.6,9.41c-3.588-3.737-8.072-5.157-12.632-4.036A15.528,15.528,0,0,0,25.209,15.988a13.931,13.931,0,0,0,3.662,13.9L47.408,49.1a3.613,3.613,0,0,0,5.232,0l4.784-5.008c2.168,3.363,5.157,5.755,7.624,6.428a.825.825,0,0,0,.6,0c4.186-1.2,10.24-7.624,10.24-15.024V31.385a.971.971,0,0,0-.6-.9ZM51,47.53a1.359,1.359,0,0,1-2.018,0L30.516,28.32a11.744,11.744,0,0,1-3.139-11.66A13.315,13.315,0,0,1,36.5,7.541c3.737-.9,7.474.3,10.464,3.438L49.127,13.3a1.173,1.173,0,0,0,1.644,0l2.168-2.317C55.929,7.84,59.666,6.644,63.4,7.541A13.453,13.453,0,0,1,72.6,16.585a11.442,11.442,0,0,1-2.691,11.137L65.721,25.63a1.274,1.274,0,0,0-1.046,0l-9.493,4.784a1.166,1.166,0,0,0-.6.972V35.5a14.89,14.89,0,0,0,1.57,6.5ZM73.643,35.571c0,6.279-5.232,11.66-8.371,12.781-3.065-1.121-8.3-6.5-8.3-12.781V32.207l8.371-4.186,8.371,4.186Z" transform="translate(-11.307 -5)" fill="#fff5c1"/>
          <path id="Trazado_999906" data-name="Trazado 999906" d="M75.18,47.809a1.115,1.115,0,0,0-1.42,1.719L76,51.4a1.328,1.328,0,0,0,.747.3h.075a.92.92,0,0,0,.747-.374l4.186-4.933a1.115,1.115,0,1,0-1.719-1.42L76.6,49.08Z" transform="translate(-23.607 -14.996)" fill="#fff5c1"/>
        </g>
      </g>
    </g>
  </g>
</svg>
