<svg xmlns="http://www.w3.org/2000/svg" width="84" height="84" viewBox="0 0 84 84">
  <g id="Grupo_1179541" data-name="Grupo 1179541" transform="translate(-186.34 -1000)">
    <rect id="Rectángulo_455161" data-name="Rectángulo 455161" width="84" height="84" rx="10" transform="translate(186.34 1000)" fill="#bbded6"/>
    <g id="Grupo_1179540" data-name="Grupo 1179540" transform="translate(186.063 1010.515)">
      <g id="Grupo_1179538" data-name="Grupo 1179538" transform="translate(13.227 0.922)">
        <g id="Grupo_1179532" data-name="Grupo 1179532" transform="translate(23.342)">
          <path id="Trazado_1000523" data-name="Trazado 1000523" d="M240.8,46.216l-31.212-.01,2.385-6.031-2.385-5.12V7.869a.369.369,0,0,1,.369-.369h28.875l1.414,1.211a.369.369,0,0,1,.369.369Z" transform="translate(-209.591 -7.5)" fill="#ffcd5f"/>
          <path id="Trazado_1000524" data-name="Trazado 1000524" d="M450.564,7.869V46.216h-3.2V7.5h2.829A.368.368,0,0,1,450.564,7.869Z" transform="translate(-418.122 -7.5)" fill="#feba48"/>
        </g>
        <g id="Grupo_1179533" data-name="Grupo 1179533" transform="translate(20.946 25.809)">
          <path id="Trazado_1000525" data-name="Trazado 1000525" d="M210.113,239.234h31.9v6.312h-31.9Z" transform="translate(-207.653 -236.542)" fill="#f4f4f4"/>
          <path id="Trazado_1000526" data-name="Trazado 1000526" d="M439.243,239.234h3.721v6.312h-3.721Z" transform="translate(-408.602 -236.542)" fill="#e5eaea"/>
          <path id="Trazado_1000527" data-name="Trazado 1000527" d="M224.087,228.405l-4.6.634-13.733,1.047-13.794-1.047a1.845,1.845,0,1,1,0-3.69h31.619v-4.317H192.009a1.879,1.879,0,0,1-1.895-1.756,1.845,1.845,0,0,1,1.843-1.934H218.9l6.519.685c1.019,0,1.143.846,1.143,1.865l-.631,6.668A1.845,1.845,0,0,1,224.087,228.405Z" transform="translate(-190.112 -217.343)" fill="#91d183"/>
          <path id="Trazado_1000528" data-name="Trazado 1000528" d="M432.558,219.188v8.007a1.845,1.845,0,0,1-1.845,1.845l-2.337.862-4.182-.862a1.845,1.845,0,0,0,1.845-1.845V225.35h2.351a.478.478,0,0,0,.478-.478v-3.361a.478.478,0,0,0-.478-.478H426.04v-1.845a1.846,1.846,0,0,0-1.845-1.845h6.518A1.845,1.845,0,0,1,432.558,219.188Z" transform="translate(-395.405 -217.343)" fill="#5dc462"/>
        </g>
        <g id="Grupo_1179535" data-name="Grupo 1179535" transform="translate(9.064 37.506)">
          <path id="Trazado_1000529" data-name="Trazado 1000529" d="M111.126,333.615h43.69v6.72h-43.69Z" transform="translate(-108.958 -331.012)" fill="#f4f4f4"/>
          <path id="Trazado_1000530" data-name="Trazado 1000530" d="M435.666,333.619h4.493v6.72h-4.493Z" transform="translate(-393.583 -331.015)" fill="#e5eaea"/>
          <path id="Trazado_1000531" data-name="Trazado 1000531" d="M95.345,312.452h39.023l6.246.276a1.423,1.423,0,0,1,1.615,1.479c.05,1.059-.566,1.577-1.615,1.577l-5.021.357H99.121l-.776-.352-.909.352a.246.246,0,0,0-.246.246v4.055a.246.246,0,0,0,.246.246h38.157l4.923.282a1.53,1.53,0,0,1,1.713,1.516,1.658,1.658,0,0,1-1.817,1.725l-4.653.167-14.551,1.048-25.862-1.048a1.845,1.845,0,0,1-1.845-1.845V314.3A1.845,1.845,0,0,1,95.345,312.452Z" transform="translate(-93.5 -312.452)" fill="#fe819c"/>
          <g id="Grupo_1179534" data-name="Grupo 1179534" transform="translate(40.198)">
            <path id="Trazado_1000532" data-name="Trazado 1000532" d="M429.175,314.205a1.844,1.844,0,0,1-1.842,1.933h-5.1v-1.933a1.879,1.879,0,0,0-1.894-1.756h6.941A1.879,1.879,0,0,1,429.175,314.205Z" transform="translate(-420.34 -312.449)" fill="#fc7085"/>
            <path id="Trazado_1000533" data-name="Trazado 1000533" d="M429.175,381.352a1.844,1.844,0,0,0-1.842-1.933h-5.1v1.933a1.879,1.879,0,0,1-1.894,1.756l3.324.7,3.617-.7A1.879,1.879,0,0,0,429.175,381.352Z" transform="translate(-420.34 -371.182)" fill="#fc7085"/>
          </g>
        </g>
        <g id="Grupo_1179536" data-name="Grupo 1179536" transform="translate(13.733 49.43)">
          <path id="Trazado_1000534" data-name="Trazado 1000534" d="M151.464,431.287h39.114V437.6H151.464Z" transform="translate(-149.004 -428.595)" fill="#f4f4f4"/>
          <path id="Trazado_1000535" data-name="Trazado 1000535" d="M439.243,431.288h3.721V437.6h-3.721Z" transform="translate(-401.389 -428.596)" fill="#e5eaea"/>
          <path id="Trazado_1000536" data-name="Trazado 1000536" d="M172.652,420.46l-4.6.634H134.373s-2.86-.763-2.907-1.756a1.845,1.845,0,0,1,1.843-1.934h38.832v-4.317h-38.78a1.879,1.879,0,0,1-1.895-1.756,1.845,1.845,0,0,1,1.843-1.934h34.158l6.519.685c1.019,0,1.143.846,1.143,1.865l-.631,6.668A1.845,1.845,0,0,1,172.652,420.46Z" transform="translate(-131.464 -409.397)" fill="#e07a69"/>
          <path id="Trazado_1000537" data-name="Trazado 1000537" d="M432.558,411.242v8.007a1.845,1.845,0,0,1-1.845,1.845H424.2a1.845,1.845,0,0,0,1.845-1.845V417.4h2.351a.478.478,0,0,0,.478-.478v-3.361a.478.478,0,0,0-.478-.478H426.04v-1.845A1.846,1.846,0,0,0,424.2,409.4h6.518A1.845,1.845,0,0,1,432.558,411.242Z" transform="translate(-388.192 -409.397)" fill="#d16752"/>
        </g>
        <g id="Grupo_1179537" data-name="Grupo 1179537" transform="translate(0 11.155)">
          <path id="Trazado_1000538" data-name="Trazado 1000538" d="M47.831,474.922l-3.4.3H34.563a1.629,1.629,0,0,1-1.624-1.624v-.441a1.629,1.629,0,0,1,1.624-1.624l6.6-.416,5.728.416c.894,0,2.381.731,2.381,1.624v.441C49.272,474.493,48.724,474.922,47.831,474.922Z" transform="translate(-31.324 -425.253)" fill="gray"/>
          <path id="Trazado_1000539" data-name="Trazado 1000539" d="M129.832,474.027v.44a1.629,1.629,0,0,1-1.625,1.625h-3.773a1.629,1.629,0,0,0,1.625-1.625v-.44a1.629,1.629,0,0,0-1.625-1.625l2.25-.294,1.524.294A1.629,1.629,0,0,1,129.832,474.027Z" transform="translate(-111.565 -426.121)" fill="#686868"/>
          <path id="Trazado_1000540" data-name="Trazado 1000540" d="M81.629,98.215l-2.7.806A15.4,15.4,0,0,0,67.966,114.66a5.61,5.61,0,0,1,.32,1.012l.078.618a3.1,3.1,0,0,0,2.124,2.7,3.88,3.88,0,0,0,2.741.1h.013a4.532,4.532,0,0,0,3.078-3.109,3.882,3.882,0,0,0,.176-1.6l.117-1.521-.093-.944a14.543,14.543,0,0,1,3.869-11.386L82,98.813A.364.364,0,0,0,81.629,98.215Z" transform="translate(-62.02 -98.199)" fill="#f4f4f4"/>
          <path id="Trazado_1000541" data-name="Trazado 1000541" d="M76.98,219.454a3.87,3.87,0,0,1-.2,1.216,5.328,5.328,0,0,1-3.361,3.381l-.013,0a3.881,3.881,0,0,1-5.088-3.191l-.078-.618c-.045-.349-.076-.7-.1-1.048a4.761,4.761,0,0,0,4.988,1.252l.016-.006a6.533,6.533,0,0,0,3.643-3.047l.166,1.673C76.973,219.2,76.98,219.327,76.98,219.454Z" transform="translate(-62.202 -202.738)" fill="#e5eaea"/>
          <path id="Trazado_1000542" data-name="Trazado 1000542" d="M36.787,336.969l-1.964-1.216a.985.985,0,0,1-.173-.12,2.431,2.431,0,0,1-1.4-2.2V331H26.236v2.431a2.431,2.431,0,0,1-1.562,2.27l-2.5.955a3.69,3.69,0,0,0-2.372,3.446v4.857a3.69,3.69,0,0,0,3.69,3.69h9.518l2.359-.268a3.69,3.69,0,0,0,3.69-3.69l.1-4.279A3.69,3.69,0,0,0,36.787,336.969Z" transform="translate(-19.804 -302.37)" fill="#999"/>
          <path id="Trazado_1000543" data-name="Trazado 1000543" d="M128.843,373.122v4.857a3.689,3.689,0,0,1-3.69,3.69h-3.69a3.689,3.689,0,0,0,3.69-3.69v-6.2a4.3,4.3,0,0,0-1.347-3.125c.054.026.109.049.166.071l2.5.954A3.689,3.689,0,0,1,128.843,373.122Z" transform="translate(-108.961 -335.387)" fill="gray"/>
          <circle id="Elipse_13739" data-name="Elipse 13739" cx="2.904" cy="2.904" r="2.904" transform="translate(7.037 36.186)" fill="#f4f4f4"/>
          <path id="Trazado_1000544" data-name="Trazado 1000544" d="M54.28,303.369l-2.524-.222H44.834a2.416,2.416,0,0,0,0,4.832h6.83l2.639-.245a2.041,2.041,0,0,0,2.2-2.171A2.076,2.076,0,0,0,54.28,303.369Z" transform="translate(-39.637 -277.94)" fill="gray"/>
          <path id="Trazado_1000545" data-name="Trazado 1000545" d="M120.036,305.565a2.415,2.415,0,0,1-2.416,2.416h-3.027a2.416,2.416,0,1,0,0-4.831h3.027a2.415,2.415,0,0,1,2.416,2.416Z" transform="translate(-102.936 -277.943)" fill="#686868"/>
        </g>
      </g>
      <g id="Grupo_1179539" data-name="Grupo 1179539" transform="translate(12.305 0)">
        <path id="Trazado_1000546" data-name="Trazado 1000546" d="M246.064,105.846a3,3,0,0,0,2.187.936,3.04,3.04,0,0,0,2.4-1.18l3.153-4.1a.206.206,0,0,1,.369.124l0,.529a4.678,4.678,0,0,0,4.665,4.631h.977a.922.922,0,0,0,0-1.845h-.977a2.828,2.828,0,0,1-2.82-2.8l0-.529a2.051,2.051,0,0,0-3.677-1.234l-3.153,4.1a1.183,1.183,0,0,1-.933.459,1.176,1.176,0,0,1-1.175-1.232l.167-3.5a2.117,2.117,0,0,0-3.815-1.362l-4.088,5.511a1.455,1.455,0,0,1-2.483-.244l-.715-1.508a.922.922,0,0,0-1.667.79l.715,1.508a3.3,3.3,0,0,0,5.631.553l4.088-5.511a.272.272,0,0,1,.491.175l-.167,3.5a3,3,0,0,0,.831,2.229Z" transform="translate(-207.073 -85.931)"/>
        <path id="Trazado_1000547" data-name="Trazado 1000547" d="M71.485,46.387a2.779,2.779,0,0,0-1.692-.838v-2.51a2.777,2.777,0,0,0,2.453-2.607,2.741,2.741,0,0,0-.7-1.975,2.754,2.754,0,0,0,.7-1.842V28.389a2.769,2.769,0,0,0-2.377-2.737V10.238a.922.922,0,1,0-1.845,0V25.624H37.553V1.845H68.028V5.933a.922.922,0,1,0,1.845,0V1.292A1.293,1.293,0,0,0,68.581,0H37a1.294,1.294,0,0,0-1.292,1.292V25.649a2.777,2.777,0,0,0-2.454,2.607,2.743,2.743,0,0,0,.761,2.041,2.779,2.779,0,0,0,1.692.839v2.739a2.76,2.76,0,0,0-2.3,3.66H30.4a3.327,3.327,0,0,0-2.508-1.14H23.977v-2.15A6.226,6.226,0,0,0,28.821,30.1a4.731,4.731,0,0,0,.216-1.961l-.256-2.589a13.46,13.46,0,0,1,3.58-10.538l1.593-1.7a1.282,1.282,0,0,0-1.3-2.106l-2.668.8a16.149,16.149,0,0,0-9.4,7.464.922.922,0,1,0,1.6.915,14.338,14.338,0,0,1,1.236-1.822,14.59,14.59,0,0,1,7.76-4.989,15.606,15.606,0,0,0-3.787,6.679,15.253,15.253,0,0,0-.45,5.479l.256,2.589a2.9,2.9,0,0,1-.133,1.2,4.387,4.387,0,0,1-3.157,2.864l-.121-1.741a18.168,18.168,0,0,1,1.451-8.456.922.922,0,1,0-1.692-.734,20.02,20.02,0,0,0-1.6,9.319l.093,1.336a2.924,2.924,0,0,1-1.551-2.221l-.077-.611a14.251,14.251,0,0,1,.279-5.124.922.922,0,0,0-1.794-.429,16.094,16.094,0,0,0-.315,5.785l.077.611a4.812,4.812,0,0,0,3.471,3.993v2.281H18.418a3.335,3.335,0,1,0,0,6.67h.311a1.6,1.6,0,0,1-.967,1.507l-2.494.954a4.633,4.633,0,0,0-2.962,4.3v4.85a4.606,4.606,0,0,0,2.078,3.848,2.531,2.531,0,0,0-.464,1.461v.436a2.55,2.55,0,0,0,2.547,2.547h53.02a2.768,2.768,0,0,0,2.765-2.765V51.981a2.753,2.753,0,0,0-.71-1.847,2.749,2.749,0,0,0-.054-3.746ZM70.4,48.341a.958.958,0,0,1-.971.874H33.962a4.616,4.616,0,0,0-.673-1.84h36.2a.92.92,0,0,1,.919.966ZM27.582,43.064H67.948v2.467H31.057s-2.46-.941-2.507-.959a1.612,1.612,0,0,1-.967-1.507ZM35.35,37.25a.915.915,0,0,1-.253-.681.958.958,0,0,1,.971-.874H67.642a.922.922,0,0,0,.922-.922V30.232a.922.922,0,0,0-.922-.922H61.914a.922.922,0,0,0,0,1.845H66.72v2.7H37.553v-2.7H57.609a.922.922,0,0,0,0-1.845H36.016a.92.92,0,0,1-.919-.966.958.958,0,0,1,.971-.874H69.485a.921.921,0,0,1,.92.92v8.226a.921.921,0,0,1-.92.92H36.016A.913.913,0,0,1,35.35,37.25Zm34.134,2.13a.92.92,0,0,1,.919.965.958.958,0,0,1-.971.874H30.875a3.313,3.313,0,0,0,.353-1.49,3.355,3.355,0,0,0-.018-.35H69.485Zm-52.557.35a1.492,1.492,0,0,1,1.49-1.49h9.476a1.49,1.49,0,1,1,0,2.98H18.418a1.492,1.492,0,0,1-1.49-1.49Zm-2.778,10.1a2.778,2.778,0,0,1,1.776-2.58l2.494-.954a3.449,3.449,0,0,0,2.153-3.23h5.164a3.454,3.454,0,0,0,2.153,3.23l2.494.954a2.778,2.778,0,0,1,1.776,2.58v4.85A2.765,2.765,0,0,1,29.4,57.442H16.912a2.766,2.766,0,0,1-2.762-2.762Zm1.613,10.6v-.436a.7.7,0,0,1,.7-.7H29.846a.7.7,0,0,1,.7.7v.436a.7.7,0,0,1-.7.7H16.465a.7.7,0,0,1-.7-.7ZM70.4,60.206a.921.921,0,0,1-.92.92H32.292a2.536,2.536,0,0,0,.1-.7v-.436a2.532,2.532,0,0,0-.1-.7h35.35a.922.922,0,0,0,.922-.922V53.823a.922.922,0,0,0-.922-.922H44.429a.922.922,0,1,0,0,1.845H66.72v2.7H33.083a4.582,4.582,0,0,0,.921-2.7h6.121a.922.922,0,1,0,0-1.845H34.006v-1.84H69.485a.921.921,0,0,1,.92.92Z" transform="translate(-12.305 0)"/>
        <path id="Trazado_1000548" data-name="Trazado 1000548" d="M73.268,392.712a3.823,3.823,0,1,0-3.823-3.823A3.827,3.827,0,0,0,73.268,392.712Zm0-5.8a1.978,1.978,0,1,1-1.978,1.978A1.98,1.98,0,0,1,73.268,386.912Z" transform="translate(-62.417 -337.707)"/>
        <path id="Trazado_1000549" data-name="Trazado 1000549" d="M298.291,44.669a.922.922,0,0,0,0-1.845H286.582a.922.922,0,0,0,0,1.845Z" transform="translate(-252.04 -37.557)"/>
      </g>
    </g>
  </g>
</svg>
