<svg xmlns="http://www.w3.org/2000/svg" width="396" height="159.854" viewBox="0 0 396 159.854">
  <g id="Grupo_1179438" data-name="Grupo 1179438" transform="translate(-185.711 -7629)">
    <path id="Rectángulo_455143" data-name="Rectángulo 455143" d="M20,0H376a20,20,0,0,1,20,20V130a0,0,0,0,1,0,0H0a0,0,0,0,1,0,0V20A20,20,0,0,1,20,0Z" transform="translate(185.711 7651)" fill="#e3f1ee"/>
    <g id="_7474280_3658474" data-name="7474280_3658474" transform="translate(206.182 7565.725)">
      <g id="OBJECTS" transform="translate(30.357 63.275)">
        <g id="Grupo_1179437" data-name="Grupo 1179437" transform="translate(0)">
          <g id="Grupo_1179312" data-name="Grupo 1179312">
            <path id="Trazado_1000256" data-name="Trazado 1000256" d="M69.713,210.366s-25.114-15.3-32.757-39.387-4.913-65.538,37.4-76.888S134.68,126.7,134.68,126.7s-2.722-13.024,11.742-11.977c0,0-13.375-31.44,23.65-46.724,39.676-16.378,64.636,12.7,72.083,43.067,0,0,60.677-25.645,61.768,27.063,0,0,14.74-6.91,20.473,10.888s-13.376,63.658-17.47,65.841S69.713,210.366,69.713,210.366Z" transform="translate(-32.221 -63.275)" fill="#f4f4f4"/>
            <g id="Grupo_1179311" data-name="Grupo 1179311" transform="translate(0 7.838)">
              <g id="Grupo_1179296" data-name="Grupo 1179296" transform="translate(10.462 54.386)">
                <circle id="Elipse_13726" data-name="Elipse 13726" cx="6.044" cy="6.044" r="6.044" transform="translate(0 10.009) rotate(-55.903)" fill="none" stroke="silver" stroke-miterlimit="10" stroke-width="1"/>
                <path id="Trazado_1000257" data-name="Trazado 1000257" d="M71.716,218.923l-9.658,7.069a6.075,6.075,0,0,0,1.243,1.6l9.467-7.2A6.051,6.051,0,0,0,71.716,218.923Z" transform="translate(-58.994 -214.739)" fill="none" stroke="silver" stroke-miterlimit="10" stroke-width="1"/>
              </g>
              <g id="Grupo_1179297" data-name="Grupo 1179297" transform="translate(190.434 4.338)">
                <circle id="Elipse_13727" data-name="Elipse 13727" cx="5.064" cy="5.064" r="5.064" transform="matrix(0.16, -0.987, 0.987, 0.16, 0, 9.997)" fill="none" stroke="silver" stroke-miterlimit="10" stroke-width="1"/>
                <path id="Trazado_1000258" data-name="Trazado 1000258" d="M487.935,97.157l-8.092,5.923a5.082,5.082,0,0,0,1.041,1.339l7.932-6.033A5.061,5.061,0,0,0,487.935,97.157Z" transform="translate(-478.502 -94.877)" fill="none" stroke="silver" stroke-miterlimit="10" stroke-width="1"/>
              </g>
              <g id="Grupo_1179298" data-name="Grupo 1179298" transform="translate(283.112 103.395)">
                <circle id="Elipse_13728" data-name="Elipse 13728" cx="4.398" cy="4.398" r="4.398" fill="none" stroke="silver" stroke-miterlimit="10" stroke-width="1"/>
                <path id="Trazado_1000259" data-name="Trazado 1000259" d="M702.171,327.108l-7.028,5.144a4.42,4.42,0,0,0,.9,1.163l6.889-5.24A4.421,4.421,0,0,0,702.171,327.108Z" transform="translate(-694.622 -325.776)" fill="none" stroke="silver" stroke-miterlimit="10" stroke-width="1"/>
              </g>
              <path id="Trazado_1000260" data-name="Trazado 1000260" d="M627.608,199.78h-3.34v-3.34a.935.935,0,1,0-1.87,0v3.34h-3.34a.935.935,0,0,0-.935.935h0a.935.935,0,0,0,.935.935h3.34v3.34a.935.935,0,1,0,1.87,0v-3.34h3.34a.935.935,0,0,0,.935-.935h0A.935.935,0,0,0,627.608,199.78Z" transform="translate(-367.35 -146.926)" fill="silver"/>
              <g id="Grupo_1179301" data-name="Grupo 1179301" transform="translate(112.425)">
                <g id="Grupo_1179299" data-name="Grupo 1179299">
                  <path id="Trazado_1000261" data-name="Trazado 1000261" d="M312.868,108.3h-15.7a3.3,3.3,0,0,1-3.3-3.3V96.049a3.3,3.3,0,0,1,3.3-3.3h15.7a3.3,3.3,0,0,1,3.3,3.3V105A3.3,3.3,0,0,1,312.868,108.3Z" transform="translate(-293.861 -88.009)" fill="none" stroke="silver" stroke-miterlimit="10" stroke-width="1"/>
                  <path id="Trazado_1000262" data-name="Trazado 1000262" d="M308.541,86.381a4.231,4.231,0,0,1,8.328,0h1.27a5.485,5.485,0,0,0-10.868,0Z" transform="translate(-301.55 -81.645)" fill="silver"/>
                </g>
                <g id="Grupo_1179300" data-name="Grupo 1179300" transform="translate(6.113 7.479)">
                  <circle id="Elipse_13729" data-name="Elipse 13729" cx="4.185" cy="4.185" r="4.185" transform="translate(0 8.145) rotate(-76.661)" fill="#f4f4f4" stroke="silver" stroke-miterlimit="10" stroke-width="1"/>
                  <path id="Trazado_1000263" data-name="Trazado 1000263" d="M318.68,107.12h-1.624V105.5a.455.455,0,1,0-.91,0v1.624h-1.624a.455.455,0,0,0-.455.455h0a.455.455,0,0,0,.455.455h1.624v1.624a.455.455,0,1,0,.91,0V108.03h1.624a.455.455,0,0,0,.455-.455h0A.455.455,0,0,0,318.68,107.12Z" transform="translate(-311.559 -102.538)" fill="silver"/>
                </g>
              </g>
              <g id="Grupo_1179304" data-name="Grupo 1179304" transform="translate(252.722 73.515)">
                <g id="Grupo_1179302" data-name="Grupo 1179302">
                  <path id="Trazado_1000264" data-name="Trazado 1000264" d="M641.7,280.61H626a3.3,3.3,0,0,1-3.3-3.3v-8.952a3.3,3.3,0,0,1,3.3-3.3h15.7a3.3,3.3,0,0,1,3.3,3.3v8.952A3.3,3.3,0,0,1,641.7,280.61Z" transform="translate(-622.693 -260.314)" fill="none" stroke="silver" stroke-miterlimit="10" stroke-width="1"/>
                  <path id="Trazado_1000265" data-name="Trazado 1000265" d="M637.373,258.686a4.231,4.231,0,0,1,8.328,0h1.27a5.485,5.485,0,0,0-10.868,0Z" transform="translate(-630.382 -253.95)" fill="silver"/>
                </g>
                <g id="Grupo_1179303" data-name="Grupo 1179303" transform="translate(6.97 8.33)">
                  <circle id="Elipse_13730" data-name="Elipse 13730" cx="4.185" cy="4.185" r="4.185" fill="#f4f4f4" stroke="silver" stroke-miterlimit="10" stroke-width="1"/>
                  <path id="Trazado_1000266" data-name="Trazado 1000266" d="M647.512,279.425h-1.624V277.8a.455.455,0,0,0-.91,0v1.624h-1.624a.455.455,0,0,0-.455.455h0a.455.455,0,0,0,.455.455h1.624v1.624a.455.455,0,1,0,.91,0v-1.624h1.624a.455.455,0,0,0,.455-.455h0A.455.455,0,0,0,647.512,279.425Z" transform="translate(-641.248 -275.694)" fill="silver"/>
                </g>
              </g>
              <path id="Trazado_1000267" data-name="Trazado 1000267" d="M273.589,245.325h-3.042v-3.042a.852.852,0,1,0-1.7,0v3.042H265.8a.852.852,0,0,0-.852.852h0a.852.852,0,0,0,.852.852h3.042v3.042a.852.852,0,1,0,1.7,0v-3.042h3.042a.852.852,0,0,0,.852-.852h0A.852.852,0,0,0,273.589,245.325Z" transform="translate(-164.861 -173.258)" fill="silver"/>
              <path id="Trazado_1000268" data-name="Trazado 1000268" d="M115.529,153.815H113.3v-2.23a.624.624,0,1,0-1.248,0v2.23h-2.23a.624.624,0,0,0-.624.624h0a.624.624,0,0,0,.624.624h2.23v2.23a.624.624,0,1,0,1.248,0v-2.23h2.23a.624.624,0,0,0,.624-.624h0A.624.624,0,0,0,115.529,153.815Z" transform="translate(-75.559 -121.387)" fill="silver"/>
              <path id="Trazado_1000269" data-name="Trazado 1000269" d="M129.172,230.67H126.4v-2.776a.777.777,0,1,0-1.554,0v2.776h-2.776a.777.777,0,0,0-.777.777h0a.777.777,0,0,0,.777.777h2.776V235a.777.777,0,1,0,1.554,0v-2.776h2.776a.777.777,0,0,0,.777-.777h0A.777.777,0,0,0,129.172,230.67Z" transform="translate(-82.493 -165.051)" fill="silver"/>
              <path id="Trazado_1000270" data-name="Trazado 1000270" d="M421.829,113.678h-2.283V111.4a.639.639,0,0,0-1.278,0v2.283h-2.283a.639.639,0,0,0-.639.639h0a.639.639,0,0,0,.639.639h2.283v2.283a.639.639,0,1,0,1.278,0v-2.283h2.283a.639.639,0,0,0,.639-.639h0A.639.639,0,0,0,421.829,113.678Z" transform="translate(-251.089 -98.336)" fill="silver"/>
              <path id="Trazado_1000271" data-name="Trazado 1000271" d="M452.912,219.49s-11.705-8.714-8.128-13,8.632,1.939,8.632,1.939,2.738-4.79,6.533-2.586C465.567,209.1,452.912,219.49,452.912,219.49Z" transform="translate(-267.577 -152.36)" fill="none" stroke="silver" stroke-miterlimit="10" stroke-width="1"/>
              <g id="Grupo_1179307" data-name="Grupo 1179307" transform="translate(115.585 46.15)">
                <g id="Grupo_1179305" data-name="Grupo 1179305" transform="translate(1.133 1.39)">
                  <path id="Trazado_1000272" data-name="Trazado 1000272" d="M313.3,202.446h0a2.52,2.52,0,0,1-3.563,0l-5.074-5.074a2.52,2.52,0,0,1,0-3.563h0a2.52,2.52,0,0,1,3.563,0l5.074,5.074A2.52,2.52,0,0,1,313.3,202.446Z" transform="translate(-303.924 -193.07)" fill="#f4f4f4" stroke="silver" stroke-miterlimit="10" stroke-width="1"/>
                  <path id="Trazado_1000273" data-name="Trazado 1000273" d="M311.6,204.31l2.629,2.629a2.389,2.389,0,0,0,3.378,0l.185-.185a2.388,2.388,0,0,0,0-3.378l-2.629-2.629Z" transform="translate(-308.324 -197.472)" fill="silver"/>
                </g>
                <g id="Grupo_1179306" data-name="Grupo 1179306">
                  <path id="Trazado_1000274" data-name="Trazado 1000274" d="M303.787,202.028h0a2.52,2.52,0,0,1-2.52-2.52v-7.176a2.52,2.52,0,0,1,2.52-2.52h0a2.52,2.52,0,0,1,2.52,2.52v7.176A2.52,2.52,0,0,1,303.787,202.028Z" transform="translate(-301.267 -189.812)" fill="#f4f4f4" stroke="silver" stroke-miterlimit="10" stroke-width="1"/>
                  <path id="Trazado_1000275" data-name="Trazado 1000275" d="M301.268,204.128v3.719a2.389,2.389,0,0,0,2.389,2.389h.262a2.389,2.389,0,0,0,2.389-2.389v-3.719Z" transform="translate(-301.268 -198.02)" fill="silver"/>
                </g>
              </g>
              <g id="Grupo_1179310" data-name="Grupo 1179310" transform="translate(0 85.147)">
                <g id="Grupo_1179308" data-name="Grupo 1179308" transform="translate(1.616 2.51)">
                  <path id="Trazado_1000276" data-name="Trazado 1000276" d="M44.315,294.622h0a2.414,2.414,0,0,1-3.344.687l-5.741-3.783a2.414,2.414,0,0,1-.687-3.344h0a2.414,2.414,0,0,1,3.344-.687l5.741,3.783A2.414,2.414,0,0,1,44.315,294.622Z" transform="translate(-34.145 -287.097)" fill="#f4f4f4" stroke="silver" stroke-miterlimit="10" stroke-width="1"/>
                  <path id="Trazado_1000277" data-name="Trazado 1000277" d="M43.417,296.5l2.975,1.96a2.289,2.289,0,0,0,3.17-.651l.138-.209a2.289,2.289,0,0,0-.652-3.17l-2.975-1.96Z" transform="translate(-39.461 -290.174)" fill="silver"/>
                </g>
                <g id="Grupo_1179309" data-name="Grupo 1179309">
                  <path id="Trazado_1000278" data-name="Trazado 1000278" d="M32.772,292.917h0a2.414,2.414,0,0,1-2.414-2.414v-6.875a2.414,2.414,0,0,1,2.414-2.414h0a2.414,2.414,0,0,1,2.414,2.414V290.5A2.414,2.414,0,0,1,32.772,292.917Z" transform="translate(-30.358 -281.214)" fill="#f4f4f4" stroke="silver" stroke-miterlimit="10" stroke-width="1"/>
                  <path id="Trazado_1000279" data-name="Trazado 1000279" d="M30.357,294.928v3.563a2.289,2.289,0,0,0,2.289,2.289H32.9a2.289,2.289,0,0,0,2.289-2.289v-3.563Z" transform="translate(-30.357 -289.077)" fill="silver"/>
                </g>
              </g>
            </g>
          </g>
          <g id="Grupo_1179436" data-name="Grupo 1179436" transform="translate(4.478 26.766)">
            <g id="Grupo_1179314" data-name="Grupo 1179314" transform="translate(0 124.638)">
              <g id="Grupo_1179313" data-name="Grupo 1179313">
                <path id="Trazado_1000280" data-name="Trazado 1000280" d="M41.11,418.706H318.715c3.749,0,7.506.073,11.253,0,.164,0,.328,0,.492,0a.267.267,0,0,0,0-.533H52.855c-3.749,0-7.506-.073-11.253,0-.164,0-.328,0-.492,0a.267.267,0,0,0,0,.533Z" transform="translate(-40.852 -418.14)" fill="#262433"/>
              </g>
            </g>
            <g id="Grupo_1179435" data-name="Grupo 1179435" transform="translate(10.218)">
              <g id="Grupo_1179351" data-name="Grupo 1179351" transform="translate(0 8.221)">
                <g id="Grupo_1179315" data-name="Grupo 1179315" transform="translate(0 38.578)">
                  <path id="Trazado_1000281" data-name="Trazado 1000281" d="M92.037,313.837c1.911-22.686,6.768-67.543,15.926-78.139,0,0-28.191,11.323-38.564,50.813-3.263,12.422-4.472,21.168-4.6,27.325H92.037Z" transform="translate(-64.801 -235.698)" fill="#fff" stroke="#262433" stroke-miterlimit="10" stroke-width="1"/>
                  <path id="Trazado_1000282" data-name="Trazado 1000282" d="M247.367,313.837c-.126-6.157-1.335-14.9-4.6-27.326C232.4,247.021,204.2,235.7,204.2,235.7c9.158,10.6,14.015,55.452,15.926,78.139Z" transform="translate(-144.728 -235.698)" fill="#fff" stroke="#262433" stroke-miterlimit="10" stroke-width="1"/>
                </g>
                <g id="Grupo_1179320" data-name="Grupo 1179320" transform="translate(17.812 36.125)">
                  <path id="Trazado_1000283" data-name="Trazado 1000283" d="M174.111,310.54q.019-1.3.02-2.6c0-43.073-15.129-77.991-33.791-77.991s-33.791,34.918-33.791,77.991q0,1.306.021,2.6Z" transform="translate(-106.549 -229.948)" fill="#032ff2" stroke="#262433" stroke-miterlimit="10" stroke-width="1"/>
                  <g id="Grupo_1179319" data-name="Grupo 1179319" transform="translate(0 5.494)">
                    <g id="Grupo_1179317" data-name="Grupo 1179317" transform="translate(0 0.07)">
                      <path id="Trazado_1000284" data-name="Trazado 1000284" d="M127.787,242.989c-12.445,11.5-21.237,39.593-21.237,72.427q0,1.306.021,2.6h20.838Z" transform="translate(-106.55 -242.989)" fill="#fff" stroke="#262433" stroke-miterlimit="10" stroke-width="1"/>
                      <g id="Grupo_1179316" data-name="Grupo 1179316" transform="translate(9.624)">
                        <path id="Trazado_1000285" data-name="Trazado 1000285" d="M140.721,242.989a33.057,33.057,0,0,0-2.551,2.651l-9.062,26.581,5.459,1.183,1.126,44.614h4.649Z" transform="translate(-129.108 -242.989)" fill="#f4f4f4" stroke="#262433" stroke-miterlimit="10" stroke-width="1"/>
                      </g>
                    </g>
                    <g id="Grupo_1179318" data-name="Grupo 1179318" transform="translate(46.271)">
                      <path id="Trazado_1000286" data-name="Trazado 1000286" d="M219.361,319.5h18.552q.019-1.3.02-2.6c0-31.829-8.262-59.2-20.105-71.324Z" transform="translate(-216.622 -244.402)" fill="#fff" stroke="#262433" stroke-miterlimit="10" stroke-width="1"/>
                      <path id="Trazado_1000287" data-name="Trazado 1000287" d="M215,242.825v75.1h4.755l1.126-44.614,5.459-1.183-9.28-27.22C216.386,244.162,215.7,243.466,215,242.825Z" transform="translate(-215.001 -242.825)" fill="#f4f4f4" stroke="#262433" stroke-miterlimit="10" stroke-width="1"/>
                    </g>
                  </g>
                </g>
                <g id="Grupo_1179330" data-name="Grupo 1179330" transform="translate(30.543 34.041)">
                  <g id="Grupo_1179322" data-name="Grupo 1179322" transform="translate(2.399)">
                    <g id="Grupo_1179321" data-name="Grupo 1179321">
                      <path id="Trazado_1000288" data-name="Trazado 1000288" d="M178.285,247.524a32.911,32.911,0,0,0-4.769-14.116,18.2,18.2,0,0,0-9.3-7.731,13.171,13.171,0,0,0-10.73,1.279,21.51,21.51,0,0,0-8.1,9.382,36.412,36.412,0,0,0-3.361,16.718.534.534,0,0,0,1.067,0,36.3,36.3,0,0,1,2.48-14.52,22.422,22.422,0,0,1,7.129-9.783,12.488,12.488,0,0,1,9.955-2.39,15.771,15.771,0,0,1,9.128,6.405,30.917,30.917,0,0,1,5.436,14.757c.077.673,1.145.681,1.066,0Z" transform="translate(-142.011 -225.065)" fill="#262433"/>
                    </g>
                  </g>
                  <g id="Grupo_1179323" data-name="Grupo 1179323" transform="translate(0 27.585)">
                    <ellipse id="Elipse_13731" data-name="Elipse 13731" cx="3.703" cy="3.658" rx="3.703" ry="3.658" fill="silver" stroke="#262433" stroke-miterlimit="10" stroke-width="1"/>
                    <path id="Trazado_1000289" data-name="Trazado 1000289" d="M140.389,295.643a2,2,0,1,0,2-1.972A1.984,1.984,0,0,0,140.389,295.643Z" transform="translate(-138.682 -291.985)" fill="#f4f4f4" stroke="#262433" stroke-miterlimit="10" stroke-width="1"/>
                  </g>
                  <g id="Grupo_1179329" data-name="Grupo 1179329" transform="translate(29.762 22.281)">
                    <g id="Grupo_1179325" data-name="Grupo 1179325" transform="translate(1.705)">
                      <g id="Grupo_1179324" data-name="Grupo 1179324">
                        <path id="Trazado_1000290" data-name="Trazado 1000290" d="M223.283,291.089a16.767,16.767,0,0,0-.2-7.94,9.023,9.023,0,0,0-3.223-5.033,4.614,4.614,0,0,0-4.833-.275,8.866,8.866,0,0,0-3.732,4.622,16.658,16.658,0,0,0-.9,9.017c.113.675,1.141.389,1.029-.284a15.826,15.826,0,0,1,.519-7.4,9.223,9.223,0,0,1,2.932-4.592,3.653,3.653,0,0,1,4.064-.406,7.152,7.152,0,0,1,2.934,4.047,15.345,15.345,0,0,1,.385,7.964c-.138.67.89.957,1.028.284Z" transform="translate(-210.143 -277.287)" fill="#262433"/>
                      </g>
                    </g>
                    <g id="Grupo_1179328" data-name="Grupo 1179328" transform="translate(0 13.039)">
                      <g id="Grupo_1179326" data-name="Grupo 1179326" transform="translate(2.236)">
                        <path id="Trazado_1000291" data-name="Trazado 1000291" d="M224.418,318.186s-2.8,3.233-7.159.539-5.539-7.879-5.872-10.877" transform="translate(-211.387 -307.848)" fill="none" stroke="#262433" stroke-miterlimit="10" stroke-width="1"/>
                        <path id="Trazado_1000292" data-name="Trazado 1000292" d="M240.581,329.732a.9.9,0,1,0,.9-.89A.9.9,0,0,0,240.581,329.732Z" transform="translate(-228.125 -319.885)" fill="#fff" stroke="#262433" stroke-miterlimit="10" stroke-width="1"/>
                      </g>
                      <g id="Grupo_1179327" data-name="Grupo 1179327" transform="translate(0 0.119)">
                        <path id="Trazado_1000293" data-name="Trazado 1000293" d="M209.007,318.3s2.753,3.269,7.152.63,5.642-7.807,6.014-10.8" transform="translate(-207.786 -308.128)" fill="none" stroke="#262433" stroke-miterlimit="10" stroke-width="1"/>
                        <path id="Trazado_1000294" data-name="Trazado 1000294" d="M207.949,329.621a.9.9,0,1,1-.89-.9A.9.9,0,0,1,207.949,329.621Z" transform="translate(-206.146 -319.934)" fill="#fff" stroke="#262433" stroke-miterlimit="10" stroke-width="1"/>
                      </g>
                    </g>
                  </g>
                </g>
                <g id="Grupo_1179350" data-name="Grupo 1179350" transform="translate(33.613)">
                  <path id="Trazado_1000295" data-name="Trazado 1000295" d="M167.671,145.7s-12.885-3.743-20.164,11.116c-5.588,11.407-3.894,19.386-2.805,22.478a2.13,2.13,0,0,0,1.928,1.462l30.191.855a2.132,2.132,0,0,0,2.092-1.627C180.611,173.66,185.245,151.3,167.671,145.7Z" transform="translate(-143.583 -145.278)" fill="#262433"/>
                  <g id="Grupo_1179345" data-name="Grupo 1179345" transform="translate(5.455 2.886)">
                    <path id="Trazado_1000296" data-name="Trazado 1000296" d="M156.369,189.042a4.585,4.585,0,1,0,4.584-4.547A4.566,4.566,0,0,0,156.369,189.042Z" transform="translate(-156.369 -170.649)" fill="none" stroke="#262433" stroke-miterlimit="10" stroke-width="2"/>
                    <path id="Trazado_1000297" data-name="Trazado 1000297" d="M178.88,162.082h-5.758c-3.828,0-6.96,3.566-6.96,7.925v8.926c0,.252.013.5.033.746a3.54,3.54,0,0,0-.1.817V185.4a3.448,3.448,0,0,0-.069.64l-.059,6.225a20.989,20.989,0,0,0-5.171,2.488l10.488,9.867,8.562-10.872a19.655,19.655,0,0,0-4.314-1.721c.012-.119.018-.24.018-.363v-4.809h3.33c3.828,0,6.96-3.566,6.96-7.925v-8.926C185.84,165.648,182.708,162.082,178.88,162.082Z" transform="translate(-158.907 -157.798)" fill="#f4f4f4" stroke="#262433" stroke-miterlimit="10" stroke-width="1"/>
                    <g id="Grupo_1179339" data-name="Grupo 1179339" transform="translate(14.694 12.185)">
                      <g id="Grupo_1179331" data-name="Grupo 1179331" transform="translate(0.716 1.641)">
                        <circle id="Elipse_13732" data-name="Elipse 13732" cx="1.298" cy="1.298" r="1.298" fill="#262433"/>
                        <path id="Trazado_1000298" data-name="Trazado 1000298" d="M212.4,185.557a1.108,1.108,0,1,0,1.108-1.108A1.108,1.108,0,0,0,212.4,185.557Z" transform="translate(-203.906 -184.449)" fill="#262433"/>
                      </g>
                      <g id="Grupo_1179333" data-name="Grupo 1179333" transform="translate(6.901 1.939)">
                        <line id="Línea_3295" data-name="Línea 3295" x1="0.042" y2="4.487" transform="translate(0.266 0.257)" fill="#262433"/>
                        <g id="Grupo_1179332" data-name="Grupo 1179332">
                          <path id="Trazado_1000299" data-name="Trazado 1000299" d="M207.025,185.405q-.019,1.961-.037,3.922,0,.282-.005.564a.267.267,0,0,0,.533,0q.019-1.961.037-3.922,0-.282.005-.564a.267.267,0,0,0-.533,0Z" transform="translate(-206.983 -185.148)" fill="#262433"/>
                        </g>
                      </g>
                      <g id="Grupo_1179338" data-name="Grupo 1179338">
                        <g id="Grupo_1179335" data-name="Grupo 1179335">
                          <line id="Línea_3296" data-name="Línea 3296" y1="0.649" x2="1.65" transform="translate(0.268 0.271)" fill="#262433"/>
                          <g id="Grupo_1179334" data-name="Grupo 1179334">
                            <path id="Trazado_1000300" data-name="Trazado 1000300" d="M191.148,181.779l1.442-.567.208-.082a.274.274,0,0,0,.186-.328.269.269,0,0,0-.328-.186l-1.442.567-.208.082a.274.274,0,0,0-.186.328.269.269,0,0,0,.328.186Z" transform="translate(-190.809 -180.602)" fill="#262433"/>
                          </g>
                        </g>
                        <g id="Grupo_1179337" data-name="Grupo 1179337" transform="translate(9.169 0.306)">
                          <line id="Línea_3297" data-name="Línea 3297" y1="0.046" x2="1.772" transform="translate(0.267 0.267)" fill="#262433"/>
                          <g id="Grupo_1179336" data-name="Grupo 1179336">
                            <path id="Trazado_1000301" data-name="Trazado 1000301" d="M212.566,181.9l1.549-.04.223-.006a.267.267,0,1,0,0-.533l-1.549.04-.223.006a.267.267,0,0,0,0,.533Z" transform="translate(-212.299 -181.319)" fill="#262433"/>
                          </g>
                        </g>
                      </g>
                    </g>
                    <path id="Trazado_1000302" data-name="Trazado 1000302" d="M186.008,163.641a16.061,16.061,0,0,1-8.1-6.409s-2.738,7.21-11.738,11.264c-11.779,5.306-5.886-9.132-2.625-12.863S183.46,147.262,186.008,163.641Z" transform="translate(-157.967 -152.042)" fill="#262433"/>
                    <g id="Grupo_1179342" data-name="Grupo 1179342" transform="translate(0 13.846)">
                      <path id="Trazado_1000303" data-name="Trazado 1000303" d="M156.369,189.042a4.585,4.585,0,1,0,4.584-4.547A4.566,4.566,0,0,0,156.369,189.042Z" transform="translate(-156.369 -184.495)" fill="#f4f4f4"/>
                      <g id="Grupo_1179341" data-name="Grupo 1179341" transform="translate(3.801 2.083)">
                        <g id="Grupo_1179340" data-name="Grupo 1179340">
                          <path id="Trazado_1000304" data-name="Trazado 1000304" d="M168.835,192.441a2.881,2.881,0,0,0-1.48-2.8,3.417,3.417,0,0,0-1.783-.239.3.3,0,0,0-.294.294.3.3,0,0,0,.294.294,3.061,3.061,0,0,1,1.428.135.342.342,0,0,1,.084.035c.04.02.08.039.119.061a2.1,2.1,0,0,1,.237.152c-.05-.037.044.037.056.046.03.026.06.053.089.082a2.169,2.169,0,0,1,.173.192c-.045-.056.025.035.036.05.021.031.042.062.062.094a2.4,2.4,0,0,1,.118.212c.017.035.034.072.05.108s-.026-.067,0,0c.006.016.013.032.019.049.028.073.054.148.076.224a3.429,3.429,0,0,1,.09.386c0,.028.009.057.014.085.014.084-.006-.062,0,.019.006.054.012.108.016.163a2.618,2.618,0,0,1,.007.361c-.025.378.563.376.587,0Z" transform="translate(-165.278 -189.378)" fill="#262433"/>
                        </g>
                      </g>
                    </g>
                    <g id="Grupo_1179344" data-name="Grupo 1179344" transform="translate(1.608 34.823)">
                      <g id="Grupo_1179343" data-name="Grupo 1179343">
                        <path id="Trazado_1000305" data-name="Trazado 1000305" d="M160.138,235.975l11.2,11.865,9.683-12.136a21.478,21.478,0,0,0-4.006-2.044l-5.715,8.427-7.508-8.116A22.257,22.257,0,0,0,160.138,235.975Z" transform="translate(-160.138 -233.661)" fill="#8ca7f4" stroke="#262433" stroke-miterlimit="10" stroke-width="1"/>
                      </g>
                    </g>
                  </g>
                  <path id="Trazado_1000306" data-name="Trazado 1000306" d="M195.842,193.489c-3.89-2.237-5.6.208-9.759,1.457-2.62.786-3.925-.077-4.533-.824a.356.356,0,0,0-.634.167,37.984,37.984,0,0,0-.318,5.885c.043,1.885,3.455,3.193,6.3,4.294v-.124h3.33c3.828,0,6.96-3.566,6.96-7.925v-2.111C196.809,194.064,196.369,193.792,195.842,193.489Z" transform="translate(-164.8 -172.399)" fill="#fff" stroke="#262433" stroke-miterlimit="10" stroke-width="1"/>
                  <g id="Grupo_1179347" data-name="Grupo 1179347" transform="translate(13.891 18.399)">
                    <g id="Grupo_1179346" data-name="Grupo 1179346">
                      <path id="Trazado_1000307" data-name="Trazado 1000307" d="M176.181,188.8l1.831,2.446.261.349a.275.275,0,0,0,.365.1.268.268,0,0,0,.1-.365l-1.831-2.446-.261-.349a.275.275,0,0,0-.365-.1.269.269,0,0,0-.1.365Z" transform="translate(-176.142 -188.401)" fill="#262433"/>
                    </g>
                  </g>
                  <g id="Grupo_1179349" data-name="Grupo 1179349" transform="translate(12.464 23.128)">
                    <g id="Grupo_1179348" data-name="Grupo 1179348">
                      <path id="Trazado_1000308" data-name="Trazado 1000308" d="M173.247,203.363l2.761-2.994.389-.422c.233-.252-.144-.63-.377-.377l-2.761,2.994-.389.422c-.233.252.144.63.377.377Z" transform="translate(-172.797 -199.487)" fill="#262433"/>
                    </g>
                  </g>
                </g>
              </g>
              <g id="Grupo_1179399" data-name="Grupo 1179399" transform="translate(156.683 4.049)">
                <g id="Grupo_1179395" data-name="Grupo 1179395">
                  <g id="Grupo_1179352" data-name="Grupo 1179352" transform="translate(0 40.974)">
                    <path id="Trazado_1000309" data-name="Trazado 1000309" d="M432.038,313.837c.126-6.157,1.335-14.9,4.6-27.326C447.009,247.021,475.2,235.7,475.2,235.7c-9.158,10.6-14.015,55.452-15.926,78.139Z" transform="translate(-432.038 -233.923)" fill="#fff" stroke="#262433" stroke-miterlimit="10" stroke-width="1"/>
                    <path id="Trazado_1000310" data-name="Trazado 1000310" d="M618.638,307.768c1.736-5.057,1.232-11.932-2.549-20.867-18.653-44.085-53.967-55.363-53.967-55.363l1,56.592Z" transform="translate(-506.621 -231.537)" fill="#fff" stroke="#262433" stroke-miterlimit="10" stroke-width="1"/>
                  </g>
                  <g id="Grupo_1179357" data-name="Grupo 1179357" transform="translate(17.244 40.296)">
                    <path id="Trazado_1000311" data-name="Trazado 1000311" d="M540.016,310.54q.019-1.3.021-2.6c0-43.073-15.129-77.991-33.791-77.991s-33.791,34.918-33.791,77.991q0,1.306.02,2.6Z" transform="translate(-472.454 -229.948)" fill="#032ff2" stroke="#262433" stroke-miterlimit="10" stroke-width="1"/>
                    <g id="Grupo_1179356" data-name="Grupo 1179356" transform="translate(0 5.494)">
                      <g id="Grupo_1179354" data-name="Grupo 1179354" transform="translate(46.345 0.07)">
                        <path id="Trazado_1000312" data-name="Trazado 1000312" d="M581.08,242.989c12.446,11.5,21.237,39.593,21.237,72.427q0,1.306-.02,2.6H581.458Z" transform="translate(-581.08 -242.989)" fill="#fff" stroke="#262433" stroke-miterlimit="10" stroke-width="1"/>
                        <g id="Grupo_1179353" data-name="Grupo 1179353">
                          <path id="Trazado_1000313" data-name="Trazado 1000313" d="M581.08,242.989a33.046,33.046,0,0,1,2.551,2.651l9.062,26.581-5.459,1.183-1.126,44.614h-4.649Z" transform="translate(-581.08 -242.989)" fill="#f4f4f4" stroke="#262433" stroke-miterlimit="10" stroke-width="1"/>
                        </g>
                      </g>
                      <g id="Grupo_1179355" data-name="Grupo 1179355">
                        <path id="Trazado_1000314" data-name="Trazado 1000314" d="M491.027,319.5H472.475q-.019-1.3-.021-2.6c0-31.829,8.262-59.2,20.105-71.324Z" transform="translate(-472.455 -244.402)" fill="#fff" stroke="#262433" stroke-miterlimit="10" stroke-width="1"/>
                        <path id="Trazado_1000315" data-name="Trazado 1000315" d="M507.167,242.825v75.1h-4.755l-1.126-44.614-5.459-1.183,9.28-27.22C505.782,244.162,506.468,243.466,507.167,242.825Z" transform="translate(-485.855 -242.825)" fill="#f4f4f4" stroke="#262433" stroke-miterlimit="10" stroke-width="1"/>
                      </g>
                    </g>
                  </g>
                  <g id="Grupo_1179367" data-name="Grupo 1179367" transform="translate(25.839 38.21)">
                    <g id="Grupo_1179359" data-name="Grupo 1179359" transform="translate(7.579)">
                      <g id="Grupo_1179358" data-name="Grupo 1179358">
                        <path id="Trazado_1000316" data-name="Trazado 1000316" d="M511.435,247.521a31.809,31.809,0,0,1,4.545-13.455c2.067-3.239,5.015-6.152,8.738-7.363a12.147,12.147,0,0,1,10.116,1.3,20.773,20.773,0,0,1,7.577,9.008,35.319,35.319,0,0,1,3.151,16.046.534.534,0,0,0,1.067,0,36.976,36.976,0,0,0-2.691-15.225,23.283,23.283,0,0,0-7.646-10.144,13.466,13.466,0,0,0-10.576-2.352c-3.994.847-7.292,3.57-9.682,6.782a31.9,31.9,0,0,0-5.665,15.409c-.078.681.989.675,1.067,0Z" transform="translate(-510.364 -225.059)" fill="#262433"/>
                      </g>
                    </g>
                    <g id="Grupo_1179360" data-name="Grupo 1179360" transform="translate(38.85 27.588)">
                      <ellipse id="Elipse_13733" data-name="Elipse 13733" cx="3.703" cy="3.658" rx="3.703" ry="3.658" fill="silver" stroke="#262433" stroke-miterlimit="10" stroke-width="1"/>
                      <ellipse id="Elipse_13734" data-name="Elipse 13734" cx="1.996" cy="1.972" rx="1.996" ry="1.972" transform="translate(1.707 1.686)" fill="#f4f4f4" stroke="#262433" stroke-miterlimit="10" stroke-width="1"/>
                    </g>
                    <g id="Grupo_1179366" data-name="Grupo 1179366" transform="translate(0 22.283)">
                      <g id="Grupo_1179362" data-name="Grupo 1179362" transform="translate(1.266)">
                        <g id="Grupo_1179361" data-name="Grupo 1179361">
                          <path id="Trazado_1000317" data-name="Trazado 1000317" d="M496.979,290.805a15.62,15.62,0,0,1,.158-7.222,8.191,8.191,0,0,1,2.682-4.48,3.584,3.584,0,0,1,4.052-.23,8.119,8.119,0,0,1,3.157,4.163,15.665,15.665,0,0,1,.786,8.159c-.113.672.915.96,1.029.284a16.967,16.967,0,0,0-.57-8.125,10.1,10.1,0,0,0-3.469-5.146,4.681,4.681,0,0,0-4.846-.441,7.9,7.9,0,0,0-3.521,4.5,16.284,16.284,0,0,0-.486,8.818c.139.672,1.167.387,1.029-.284Z" transform="translate(-495.567 -277.287)" fill="#262433"/>
                        </g>
                      </g>
                      <g id="Grupo_1179365" data-name="Grupo 1179365" transform="translate(0 13.039)">
                        <g id="Grupo_1179363" data-name="Grupo 1179363">
                          <path id="Trazado_1000318" data-name="Trazado 1000318" d="M495.477,318.186s2.8,3.233,7.159.539,5.539-7.879,5.872-10.877" transform="translate(-494.25 -307.848)" fill="none" stroke="#262433" stroke-miterlimit="10" stroke-width="1"/>
                          <ellipse id="Elipse_13735" data-name="Elipse 13735" cx="0.902" cy="0.89" rx="0.902" ry="0.89" transform="translate(0 8.957)" fill="#fff" stroke="#262433" stroke-miterlimit="10" stroke-width="1"/>
                        </g>
                        <g id="Grupo_1179364" data-name="Grupo 1179364" transform="translate(2.109 0.119)">
                          <path id="Trazado_1000319" data-name="Trazado 1000319" d="M510.707,318.3s-2.753,3.269-7.152.63-5.642-7.807-6.014-10.8" transform="translate(-497.542 -308.128)" fill="none" stroke="#262433" stroke-miterlimit="10" stroke-width="1"/>
                          <path id="Trazado_1000320" data-name="Trazado 1000320" d="M527.035,329.621a.9.9,0,1,0,.89-.9A.9.9,0,0,0,527.035,329.621Z" transform="translate(-514.452 -319.934)" fill="#fff" stroke="#262433" stroke-miterlimit="10" stroke-width="1"/>
                        </g>
                      </g>
                    </g>
                  </g>
                  <g id="Grupo_1179394" data-name="Grupo 1179394" transform="translate(28.785)">
                    <path id="Trazado_1000321" data-name="Trazado 1000321" d="M553.639,191.593s4.823-.091,5.642-2.093.455-6.915.455-6.915a9.333,9.333,0,0,0,4.549-2.024c1.911-1.706,2.275-7.347,0-9.076s-6.278.819-6.551,1.274S553.639,191.593,553.639,191.593Z" transform="translate(-530.542 -155.791)" fill="#262433"/>
                    <g id="Grupo_1179382" data-name="Grupo 1179382">
                      <path id="Trazado_1000322" data-name="Trazado 1000322" d="M568.716,189.042a4.585,4.585,0,1,1-4.584-4.547A4.566,4.566,0,0,1,568.716,189.042Z" transform="translate(-533.93 -163.592)" fill="none" stroke="#262433" stroke-miterlimit="10" stroke-width="2"/>
                      <path id="Trazado_1000323" data-name="Trazado 1000323" d="M524.871,162.082h5.759c3.828,0,6.96,3.566,6.96,7.925v8.926c0,.252-.013.5-.033.746a3.539,3.539,0,0,1,.1.817V185.4a3.488,3.488,0,0,1,.069.64l.059,6.225a20.99,20.99,0,0,1,5.172,2.488l-10.488,9.867L523.9,193.75a19.655,19.655,0,0,1,4.314-1.721c-.012-.119-.018-.24-.018-.363v-4.809h-3.33c-3.828,0-6.96-3.566-6.96-7.925v-8.926C517.911,165.648,521.043,162.082,524.871,162.082Z" transform="translate(-510.058 -150.741)" fill="#f4f4f4" stroke="#262433" stroke-miterlimit="10" stroke-width="1"/>
                      <g id="Grupo_1179376" data-name="Grupo 1179376" transform="translate(8.618 18.38)">
                        <g id="Grupo_1179368" data-name="Grupo 1179368" transform="translate(0.045 2.503)">
                          <path id="Trazado_1000324" data-name="Trazado 1000324" d="M541.431,185.747a1.3,1.3,0,1,1-1.3-1.3A1.3,1.3,0,0,1,541.431,185.747Z" transform="translate(-530.717 -184.449)" fill="#262433"/>
                          <path id="Trazado_1000325" data-name="Trazado 1000325" d="M522.024,185.557a1.108,1.108,0,1,1-1.108-1.108A1.108,1.108,0,0,1,522.024,185.557Z" transform="translate(-519.808 -184.449)" fill="#262433"/>
                        </g>
                        <g id="Grupo_1179370" data-name="Grupo 1179370" transform="translate(3.999 2.801)">
                          <line id="Línea_3298" data-name="Línea 3298" x2="0.042" y2="4.487" transform="translate(0.267 0.258)" fill="#262433"/>
                          <g id="Grupo_1179369" data-name="Grupo 1179369">
                            <path id="Trazado_1000326" data-name="Trazado 1000326" d="M529.075,185.4q.018,1.961.037,3.922,0,.282.005.564a.267.267,0,0,0,.533,0q-.018-1.961-.037-3.922l-.005-.564a.267.267,0,0,0-.533,0Z" transform="translate(-529.075 -185.147)" fill="#262433"/>
                          </g>
                        </g>
                        <g id="Grupo_1179375" data-name="Grupo 1179375">
                          <g id="Grupo_1179372" data-name="Grupo 1179372" transform="translate(9.25)">
                            <line id="Línea_3299" data-name="Línea 3299" x1="1.733" y1="0.371" transform="translate(0.264 0.264)" fill="#262433"/>
                            <g id="Grupo_1179371" data-name="Grupo 1179371">
                              <path id="Trazado_1000327" data-name="Trazado 1000327" d="M543.452,178.959l-1.517-.325-.216-.046a.267.267,0,0,0-.142.515l1.517.325.216.046a.267.267,0,0,0,.142-.515Z" transform="translate(-541.383 -178.582)" fill="#262433"/>
                            </g>
                          </g>
                          <g id="Grupo_1179374" data-name="Grupo 1179374" transform="translate(0 1.168)">
                            <line id="Línea_3300" data-name="Línea 3300" x1="1.772" y1="0.046" transform="translate(0.267 0.267)" fill="#262433"/>
                            <g id="Grupo_1179373" data-name="Grupo 1179373">
                              <path id="Trazado_1000328" data-name="Trazado 1000328" d="M521.742,181.365l-1.549-.04-.223-.006a.269.269,0,0,0-.267.267.272.272,0,0,0,.267.267l1.549.04.223.006a.269.269,0,0,0,.267-.267.272.272,0,0,0-.267-.267Z" transform="translate(-519.702 -181.319)" fill="#262433"/>
                            </g>
                          </g>
                        </g>
                      </g>
                      <path id="Trazado_1000329" data-name="Trazado 1000329" d="M528.624,158.981s-1.932,2.481-3.178-1.71c-.776-2.608-.469-3.1-3.2-2.886s-4.732-2.513-4.913-4.018-8.007,8.868-15.1,1.816,1.365-15.514,6.187-16.515,9.1,2.73,9.736,5c0,0,3.094-4.641,10.282-1.274s3.913,10.919,3.731,12.784S529.228,158.646,528.624,158.981Z" transform="translate(-499.504 -135.502)" fill="#262433"/>
                      <g id="Grupo_1179379" data-name="Grupo 1179379" transform="translate(25.617 20.903)">
                        <path id="Trazado_1000330" data-name="Trazado 1000330" d="M568.716,189.042a4.585,4.585,0,1,1-4.584-4.547A4.566,4.566,0,0,1,568.716,189.042Z" transform="translate(-559.547 -184.495)" fill="#f4f4f4"/>
                        <g id="Grupo_1179378" data-name="Grupo 1179378" transform="translate(1.808 2.085)">
                          <g id="Grupo_1179377" data-name="Grupo 1179377">
                            <path id="Trazado_1000331" data-name="Trazado 1000331" d="M564.376,192.444a2.431,2.431,0,0,1,0-.3c0-.046.006-.091.011-.137,0-.025.005-.05.008-.076.011-.1-.008.043,0-.035.021-.126.044-.252.077-.376.017-.064.036-.128.057-.192.012-.036.025-.072.038-.107s.053-.127.022-.057a2.493,2.493,0,0,1,.235-.423c.012-.017.081-.105.036-.05.024-.03.049-.06.075-.089a2,2,0,0,1,.186-.184c.014-.012.107-.084.056-.046.034-.025.068-.049.1-.072a2.188,2.188,0,0,1,.253-.141s.078-.035.04-.019c-.022.009.059-.023.07-.027.055-.02.111-.038.167-.054a3.113,3.113,0,0,1,.326-.071,3.8,3.8,0,0,1,.908,0,.3.3,0,0,0,.294-.294.3.3,0,0,0-.294-.294,2.869,2.869,0,0,0-2.586.857,3.212,3.212,0,0,0-.667,1.779,2.722,2.722,0,0,0-.011.4c.023.375.611.378.587,0Z" transform="translate(-563.786 -189.382)" fill="#262433"/>
                          </g>
                        </g>
                      </g>
                      <g id="Grupo_1179381" data-name="Grupo 1179381" transform="translate(12.296 41.88)">
                        <g id="Grupo_1179380" data-name="Grupo 1179380">
                          <path id="Trazado_1000332" data-name="Trazado 1000332" d="M549.206,235.975l-11.2,11.865L528.324,235.7a21.48,21.48,0,0,1,4.006-2.044l5.715,8.427,7.508-8.116A22.253,22.253,0,0,1,549.206,235.975Z" transform="translate(-528.324 -233.661)" fill="#8ca7f4" stroke="#262433" stroke-miterlimit="10" stroke-width="1"/>
                        </g>
                      </g>
                    </g>
                    <path id="Trazado_1000333" data-name="Trazado 1000333" d="M519.257,193.489c3.89-2.237,5.6.208,9.759,1.457,2.62.786,3.925-.077,4.533-.824a.356.356,0,0,1,.634.167,37.986,37.986,0,0,1,.318,5.885c-.043,1.885-3.455,3.193-6.3,4.294v-.124h-3.33c-3.828,0-6.96-3.566-6.96-7.925v-2.111C518.29,194.064,518.731,193.792,519.257,193.489Z" transform="translate(-510.058 -168.228)" fill="#fff" stroke="#262433" stroke-miterlimit="10" stroke-width="1"/>
                    <g id="Grupo_1179384" data-name="Grupo 1179384" transform="translate(23.72 22.569)">
                      <g id="Grupo_1179383" data-name="Grupo 1179383">
                        <path id="Trazado_1000334" data-name="Trazado 1000334" d="M557.23,188.532l-1.831,2.446-.261.349a.269.269,0,0,0,.1.365.273.273,0,0,0,.365-.1l1.831-2.446.261-.349a.268.268,0,0,0-.1-.365.273.273,0,0,0-.365.1Z" transform="translate(-555.099 -188.4)" fill="#262433"/>
                      </g>
                    </g>
                    <g id="Grupo_1179386" data-name="Grupo 1179386" transform="translate(24.105 27.3)">
                      <g id="Grupo_1179385" data-name="Grupo 1179385">
                        <path id="Trazado_1000335" data-name="Trazado 1000335" d="M559.6,202.986l-2.76-2.994-.389-.422c-.233-.253-.61.125-.377.377l2.761,2.994.389.422c.233.253.609-.125.377-.377Z" transform="translate(-556.002 -199.487)" fill="#262433"/>
                      </g>
                    </g>
                    <g id="Grupo_1179393" data-name="Grupo 1179393" transform="translate(3.454 16.122)">
                      <g id="Grupo_1179388" data-name="Grupo 1179388" transform="translate(10.376)">
                        <g id="Grupo_1179387" data-name="Grupo 1179387">
                          <path id="Trazado_1000336" data-name="Trazado 1000336" d="M541.428,179.143a5.42,5.42,0,0,1-2.95,5.01,4.129,4.129,0,0,1-5.006-1.628,6.133,6.133,0,0,1-.363-6.158,4.314,4.314,0,0,1,4.687-2.458c2.347.546,3.606,2.979,3.633,5.234a.267.267,0,0,0,.533,0,5.933,5.933,0,0,0-3.335-5.522,4.652,4.652,0,0,0-5.534,1.757,6.66,6.66,0,0,0-.444,6.81,4.844,4.844,0,0,0,5.289,2.7c2.578-.6,3.994-3.263,4.024-5.747A.267.267,0,0,0,541.428,179.143Z" transform="translate(-531.92 -173.289)" fill="#262433"/>
                        </g>
                      </g>
                      <g id="Grupo_1179390" data-name="Grupo 1179390" transform="translate(0 0.001)">
                        <g id="Grupo_1179389" data-name="Grupo 1179389">
                          <path id="Trazado_1000337" data-name="Trazado 1000337" d="M515.9,178.938c-.022,1.849-.778,3.95-2.543,4.811a3.408,3.408,0,0,1-4.36-1.6,6.408,6.408,0,0,1-.308-5.842c.715-1.555,2.277-2.866,4.08-2.4,2.152.56,3.108,3.013,3.132,5.028a.267.267,0,0,0,.533,0c-.024-2.074-.919-4.413-2.922-5.326a3.912,3.912,0,0,0-4.859,1.665,6.928,6.928,0,0,0-.423,6.562,4.2,4.2,0,0,0,4.621,2.658c2.424-.582,3.557-3.29,3.584-5.558A.267.267,0,0,0,515.9,178.938Z" transform="translate(-507.6 -173.292)" fill="#262433"/>
                        </g>
                      </g>
                      <g id="Grupo_1179392" data-name="Grupo 1179392" transform="translate(8.299 5.644)">
                        <g id="Grupo_1179391" data-name="Grupo 1179391">
                          <path id="Trazado_1000338" data-name="Trazado 1000338" d="M527.39,187.211c.061-.024.125-.043.189-.061s.141-.036.212-.05l.128-.023c.02,0,.069-.009.021,0l.085-.009a2.623,2.623,0,0,1,.312-.012,1.757,1.757,0,0,1,.291.028,1.4,1.4,0,0,1,.612.257.276.276,0,0,0,.377,0,.268.268,0,0,0,0-.377,2.2,2.2,0,0,0-1.542-.433,2.926,2.926,0,0,0-.826.17.275.275,0,0,0-.186.328.269.269,0,0,0,.328.186Z" transform="translate(-527.052 -186.518)" fill="#262433"/>
                        </g>
                      </g>
                    </g>
                  </g>
                </g>
                <g id="Grupo_1179398" data-name="Grupo 1179398" transform="translate(31.217 66.171)">
                  <path id="Trazado_1000339" data-name="Trazado 1000339" d="M545.2,345.849l-25.245-5.98a6.23,6.23,0,0,1-4.626-7.5l8.759-36.98a6.23,6.23,0,0,1,7.5-4.626l25.245,5.98a6.23,6.23,0,0,1,4.626,7.5l-8.759,36.98A6.23,6.23,0,0,1,545.2,345.849Z" transform="translate(-510.914 -290.595)" fill="#262433"/>
                  <g id="Grupo_1179397" data-name="Grupo 1179397" transform="translate(0 16.654)">
                    <path id="Trazado_1000340" data-name="Trazado 1000340" d="M530.532,356.367s-22.373-11.875-24.947-16.226,8.787,3.835,8.787,3.835-8.493-5.111-7.668-7.28,9.677,4.685,9.677,4.685-9.36-6.525-8.187-8.114,10.213,5.654,10.213,5.654-9.6-6.526-8.262-8.412,10.513,5.557,10.513,5.557-5.087-5.377-3.562-6.366,9.587,8.3,20.484,13.935S530.532,356.367,530.532,356.367Z" transform="translate(-505.205 -329.629)" fill="#f4f4f4" stroke="#262433" stroke-miterlimit="10" stroke-width="1"/>
                    <g id="Grupo_1179396" data-name="Grupo 1179396" transform="translate(22.701 11.888)">
                      <path id="Trazado_1000341" data-name="Trazado 1000341" d="M602.635,365.987c-22.02-4.732-34.632-8.493-34.632-8.493l-9.59,16.865c19.654,23.294,73.162,26.384,55.55-15.241Z" transform="translate(-558.413 -357.493)" fill="#fff"/>
                      <path id="Trazado_1000342" data-name="Trazado 1000342" d="M613.963,359.117c17.612,41.625-35.9,38.535-55.55,15.241L568,357.493s12.976,4.126,34.632,8.493" transform="translate(-558.413 -357.493)" fill="none" stroke="#262433" stroke-miterlimit="10" stroke-width="1"/>
                      <path id="Trazado_1000343" data-name="Trazado 1000343" d="M573.01,358.962c-3.041-.936-5.007-1.469-5.007-1.469l-9.59,16.865a39.958,39.958,0,0,0,4.715,4.7Z" transform="translate(-558.413 -357.493)" fill="#fff" stroke="#262433" stroke-miterlimit="10" stroke-width="1"/>
                    </g>
                  </g>
                </g>
              </g>
              <g id="Grupo_1179434" data-name="Grupo 1179434" transform="translate(71.344)">
                <g id="Grupo_1179404" data-name="Grupo 1179404" transform="translate(0 45.024)">
                  <g id="Grupo_1179401" data-name="Grupo 1179401" transform="translate(68.705)">
                    <path id="Trazado_1000344" data-name="Trazado 1000344" d="M453.387,301.533a33.663,33.663,0,0,1-9.674,14.8,71.39,71.39,0,0,1-5.757,4.786h-30q.943-.4,1.881-.8,1.467-.637,2.919-1.311a105.509,105.509,0,0,0,15.308-8.766q1.873-1.316,3.654-2.758a39.218,39.218,0,0,0,5.528-5.789,22.16,22.16,0,0,0,1.782-3.255,16.1,16.1,0,0,0,.525-2.2,14.51,14.51,0,0,0-.073-1.827,18.98,18.98,0,0,0-.948-2.849,35.921,35.921,0,0,0-3.911-5.907,95.019,95.019,0,0,0-14.542-13.3c-1.317-1.009-2.654-1.991-4-2.961-5.08-3.582-10.319-6.936-15.66-10.112l-.073-.043L410.709,248.4q7.984,4.907,15.574,10.4a125.419,125.419,0,0,1,13.965,11.5,79.841,79.841,0,0,1,6.642,7.346,37.055,37.055,0,0,1,6.088,10.686,26.825,26.825,0,0,1,1.084,4.926,14.426,14.426,0,0,1,.1,3.247A24.01,24.01,0,0,1,453.387,301.533Z" transform="translate(-397.233 -241.203)" fill="#f4f4f4" stroke="#262433" stroke-miterlimit="10" stroke-width="1"/>
                    <g id="Grupo_1179400" data-name="Grupo 1179400">
                      <path id="Trazado_1000345" data-name="Trazado 1000345" d="M393.051,231.538s27.289,4.613,50.582,30.693l-16.924,16.435-19.836-11.215Z" transform="translate(-393.051 -231.538)" fill="#032ff2" stroke="#262433" stroke-miterlimit="10" stroke-width="1"/>
                      <path id="Trazado_1000346" data-name="Trazado 1000346" d="M478.549,294.618q1.786,1.812,3.549,3.78l-16.924,16.435-5.034-2.846Z" transform="translate(-431.516 -267.705)" fill="#8ca7f4" stroke="#262433" stroke-miterlimit="10" stroke-width="1"/>
                    </g>
                  </g>
                  <g id="Grupo_1179403" data-name="Grupo 1179403">
                    <path id="Trazado_1000347" data-name="Trazado 1000347" d="M232.841,301.533a33.663,33.663,0,0,0,9.674,14.8,71.39,71.39,0,0,0,5.757,4.786h30q-.943-.4-1.881-.8-1.467-.637-2.919-1.311a105.507,105.507,0,0,1-15.308-8.766q-1.873-1.316-3.654-2.758a39.218,39.218,0,0,1-5.528-5.789,22.157,22.157,0,0,1-1.782-3.255,16.1,16.1,0,0,1-.525-2.2,14.5,14.5,0,0,1,.073-1.827,18.984,18.984,0,0,1,.948-2.849,35.921,35.921,0,0,1,3.911-5.907,95.017,95.017,0,0,1,14.542-13.3c1.317-1.009,2.653-1.991,4-2.961,5.08-3.582,10.319-6.936,15.66-10.112l.073-.043L275.518,248.4q-7.984,4.907-15.574,10.4a125.422,125.422,0,0,0-13.965,11.5,79.855,79.855,0,0,0-6.642,7.346,37.045,37.045,0,0,0-6.089,10.686,26.825,26.825,0,0,0-1.084,4.926,14.428,14.428,0,0,0-.1,3.247A24.039,24.039,0,0,0,232.841,301.533Z" transform="translate(-232.018 -241.203)" fill="#f4f4f4" stroke="#262433" stroke-miterlimit="10" stroke-width="1"/>
                    <g id="Grupo_1179402" data-name="Grupo 1179402" transform="translate(6.394)">
                      <path id="Trazado_1000348" data-name="Trazado 1000348" d="M297.586,231.538S270.3,236.151,247,262.231l16.924,16.435,19.836-11.215Z" transform="translate(-247.004 -231.538)" fill="#032ff2" stroke="#262433" stroke-miterlimit="10" stroke-width="1"/>
                      <path id="Trazado_1000349" data-name="Trazado 1000349" d="M250.554,294.618q-1.786,1.812-3.549,3.78l16.924,16.435,5.034-2.846Z" transform="translate(-247.005 -267.705)" fill="#8ca7f4" stroke="#262433" stroke-miterlimit="10" stroke-width="1"/>
                    </g>
                  </g>
                </g>
                <g id="Grupo_1179406" data-name="Grupo 1179406" transform="translate(28.162 44.203)">
                  <path id="Trazado_1000350" data-name="Trazado 1000350" d="M365.537,310.348q.067-2.386.07-4.808c0-41.933-15.129-75.926-33.791-75.926s-33.791,33.994-33.791,75.926q0,2.423.07,4.808Z" transform="translate(-298.024 -229.614)" fill="#032ff2" stroke="#262433" stroke-miterlimit="10" stroke-width="1"/>
                  <g id="Grupo_1179405" data-name="Grupo 1179405" transform="translate(7.034 34.938)">
                    <path id="Trazado_1000351" data-name="Trazado 1000351" d="M314.511,311.5v9.684a5.057,5.057,0,0,0,5.057,5.057h3.668a5.057,5.057,0,0,0,5.057-5.057V311.5Z" transform="translate(-314.511 -311.502)" fill="#032ff2" stroke="#262433" stroke-miterlimit="10" stroke-width="1"/>
                    <rect id="Rectángulo_455391" data-name="Rectángulo 455391" width="13.782" height="3.594" fill="#8ca7f4" stroke="#262433" stroke-miterlimit="10" stroke-width="1"/>
                  </g>
                </g>
                <g id="Grupo_1179416" data-name="Grupo 1179416" transform="translate(37.541 42.098)">
                  <g id="Grupo_1179408" data-name="Grupo 1179408" transform="translate(6.33)">
                    <g id="Grupo_1179407" data-name="Grupo 1179407">
                      <path id="Trazado_1000352" data-name="Trazado 1000352" d="M335.914,247.411a32.428,32.428,0,0,1,4.557-13.643c2.065-3.267,5.012-6.227,8.76-7.449a12.013,12.013,0,0,1,10.033,1.292,20.907,20.907,0,0,1,7.613,9.122,36.117,36.117,0,0,1,3.165,16.276.534.534,0,0,0,1.067,0,37.753,37.753,0,0,0-2.708-15.452,23.565,23.565,0,0,0-7.585-10.192,13.352,13.352,0,0,0-10.656-2.4c-3.992.869-7.271,3.624-9.643,6.85a32.506,32.506,0,0,0-5.669,15.6c-.078.681.989.676,1.066,0Z" transform="translate(-334.843 -224.68)" fill="#262433"/>
                    </g>
                  </g>
                  <g id="Grupo_1179409" data-name="Grupo 1179409" transform="translate(36.501 26.83)">
                    <circle id="Elipse_13736" data-name="Elipse 13736" cx="3.703" cy="3.703" r="3.703" transform="matrix(0.931, -0.365, 0.365, 0.931, 0, 2.703)" fill="silver" stroke="#262433" stroke-miterlimit="10" stroke-width="1"/>
                    <path id="Trazado_1000353" data-name="Trazado 1000353" d="M416.131,296.117a2,2,0,1,1-2-2A2,2,0,0,1,416.131,296.117Z" transform="translate(-409.332 -291.324)" fill="#f4f4f4" stroke="#262433" stroke-miterlimit="10" stroke-width="1"/>
                  </g>
                  <g id="Grupo_1179415" data-name="Grupo 1179415" transform="translate(0 22.122)">
                    <g id="Grupo_1179411" data-name="Grupo 1179411" transform="translate(1.267)">
                      <g id="Grupo_1179410" data-name="Grupo 1179410">
                        <path id="Trazado_1000354" data-name="Trazado 1000354" d="M324.389,290.221a16.05,16.05,0,0,1,.126-7.2,8.381,8.381,0,0,1,2.739-4.684,3.544,3.544,0,0,1,4.011-.23,8.223,8.223,0,0,1,3.2,4.282,16.063,16.063,0,0,1,.769,8.224c-.111.672.916.96,1.029.284a17.363,17.363,0,0,0-.557-8.187,10.222,10.222,0,0,0-3.512-5.271,4.635,4.635,0,0,0-4.906-.384,8.1,8.1,0,0,0-3.461,4.571,16.691,16.691,0,0,0-.467,8.875c.137.672,1.165.388,1.028-.283Z" transform="translate(-322.977 -276.528)" fill="#262433"/>
                      </g>
                    </g>
                    <g id="Grupo_1179414" data-name="Grupo 1179414" transform="translate(0 13.206)">
                      <g id="Grupo_1179412" data-name="Grupo 1179412">
                        <path id="Trazado_1000355" data-name="Trazado 1000355" d="M322.886,317.954s2.8,3.276,7.166.546,5.544-7.982,5.877-11.02" transform="translate(-321.658 -307.48)" fill="none" stroke="#262433" stroke-miterlimit="10" stroke-width="1"/>
                        <path id="Trazado_1000356" data-name="Trazado 1000356" d="M321.811,329.651a.9.9,0,1,1-.9-.9A.9.9,0,0,1,321.811,329.651Z" transform="translate(-320.007 -319.675)" fill="#fff" stroke="#262433" stroke-miterlimit="10" stroke-width="1"/>
                      </g>
                      <g id="Grupo_1179413" data-name="Grupo 1179413" transform="translate(2.11 0.12)">
                        <path id="Trazado_1000357" data-name="Trazado 1000357" d="M338.129,318.067s-2.755,3.312-7.158.639-5.647-7.91-6.019-10.943" transform="translate(-324.952 -307.762)" fill="none" stroke="#262433" stroke-miterlimit="10" stroke-width="1"/>
                        <path id="Trazado_1000358" data-name="Trazado 1000358" d="M354.472,329.539a.9.9,0,1,0,.89-.914A.9.9,0,0,0,354.472,329.539Z" transform="translate(-341.877 -319.724)" fill="#fff" stroke="#262433" stroke-miterlimit="10" stroke-width="1"/>
                      </g>
                    </g>
                  </g>
                </g>
                <g id="Grupo_1179433" data-name="Grupo 1179433" transform="translate(45.277)">
                  <g id="Grupo_1179417" data-name="Grupo 1179417" transform="translate(6.478 35.008)">
                    <path id="Trazado_1000359" data-name="Trazado 1000359" d="M364,230.586l8.2-11.005a18.223,18.223,0,0,0-4.2-1.763l.054-5.958a3.758,3.758,0,0,0-3.713-3.781l-1.6-.015a3.758,3.758,0,0,0-3.781,3.713l-.057,6.3a19.664,19.664,0,0,0-4.953,2.518Z" transform="translate(-353.683 -208.064)" fill="#f4f4f4" stroke="#262433" stroke-miterlimit="10" stroke-width="1"/>
                    <path id="Trazado_1000360" data-name="Trazado 1000360" d="M353.322,234.722l10.726,12.011,9.274-12.285a20.2,20.2,0,0,0-3.836-2.069l-5.474,8.531-7.19-8.216A20.96,20.96,0,0,0,353.322,234.722Z" transform="translate(-353.322 -222.005)" fill="#8ca7f4" stroke="#262433" stroke-miterlimit="10" stroke-width="1"/>
                  </g>
                  <g id="Grupo_1179432" data-name="Grupo 1179432">
                    <path id="Trazado_1000361" data-name="Trazado 1000361" d="M370.166,163.152a13.667,13.667,0,0,0,1.934-10.866c-1.553-6.254-13.2-9.5-14.593-9.117a58.885,58.885,0,0,1-6.715.653s-6.375-.023-7.2,6.239,1.972,13.594,2.179,14.595S366.22,170.109,370.166,163.152Z" transform="translate(-341.178 -135.83)" fill="#262433"/>
                    <g id="Grupo_1179422" data-name="Grupo 1179422" transform="translate(0 25.819)">
                      <g id="Grupo_1179419" data-name="Grupo 1179419" transform="translate(26.375)">
                        <path id="Trazado_1000362" data-name="Trazado 1000362" d="M406.712,189.774a3.378,3.378,0,1,1-3.478-3.246A3.364,3.364,0,0,1,406.712,189.774Z" transform="translate(-399.958 -186.526)" fill="#f4f4f4" stroke="#262433" stroke-miterlimit="10" stroke-width="1"/>
                        <g id="Grupo_1179418" data-name="Grupo 1179418" transform="translate(1.3 1.492)">
                          <path id="Trazado_1000363" data-name="Trazado 1000363" d="M403.531,192.379a1.8,1.8,0,0,1,0-.215c0-.077.007-.154.016-.231,0-.032-.006-.086,0,0a.353.353,0,0,1,.011-.07c.009-.051.019-.1.031-.153a2.3,2.3,0,0,1,.1-.308c.026-.068-.022.044.01-.023.011-.023.022-.047.034-.07a1.733,1.733,0,0,1,.1-.166c.015-.023.031-.045.047-.067.042-.06-.028.029.02-.026a1.847,1.847,0,0,1,.141-.148l.067-.057c.044-.039-.035.025,0,0l.037-.026a1.513,1.513,0,0,1,.186-.111l.044-.021.036-.016c-.032.013-.033.014-.006,0s.078-.029.119-.042a2,2,0,0,1,.263-.063c.006,0,.085-.013.026-.005l.075-.009c.052-.005.1-.009.156-.011a3.374,3.374,0,0,1,.372.008.261.261,0,1,0,0-.521,2.158,2.158,0,0,0-1.952.741,2.383,2.383,0,0,0-.436,1.317,2.019,2.019,0,0,0,0,.291.26.26,0,1,0,.521,0Z" transform="translate(-403.004 -190.022)" fill="#0c0c0c"/>
                        </g>
                      </g>
                      <g id="Grupo_1179421" data-name="Grupo 1179421" transform="translate(0 0.27)">
                        <path id="Trazado_1000364" data-name="Trazado 1000364" d="M338.141,190.613a3.378,3.378,0,1,0,3.274-3.452A3.364,3.364,0,0,0,338.141,190.613Z" transform="translate(-338.139 -187.16)" fill="#f4f4f4" stroke="#262433" stroke-miterlimit="10" stroke-width="1"/>
                        <g id="Grupo_1179420" data-name="Grupo 1179420" transform="translate(2.709 1.492)">
                          <path id="Trazado_1000365" data-name="Trazado 1000365" d="M347.258,192.9a2.165,2.165,0,0,0-1.236-2.1,2.626,2.626,0,0,0-1.343-.109.262.262,0,0,0-.182.321.268.268,0,0,0,.321.182,2.06,2.06,0,0,1,.977.075c.017.006.112.045.055.02l.092.044a1.724,1.724,0,0,1,.182.111c.061.042-.02-.021.035.027.023.02.046.039.068.06.045.043.086.089.127.135l.027.034c-.04-.049-.017-.023-.009-.012s.033.046.049.07a1.712,1.712,0,0,1,.093.158c.012.024.025.048.036.073s.043.1.013.026c.02.05.04.1.057.153a2.39,2.39,0,0,1,.075.283c.009.041.016.083.022.125s.029.084,0,0a.269.269,0,0,1,.007.059,1.94,1.94,0,0,1,.013.264c-.011.337.51.336.521,0Z" transform="translate(-344.489 -190.658)" fill="#0c0c0c"/>
                        </g>
                      </g>
                    </g>
                    <path id="Trazado_1000366" data-name="Trazado 1000366" d="M351.8,172.645a7.774,7.774,0,0,0,7.829,7.672l5.842-.059a7.774,7.774,0,0,0,7.672-7.829l-.129-12.765a7.774,7.774,0,0,0-7.829-7.672l-5.842.059a7.774,7.774,0,0,0-7.672,7.829Z" transform="translate(-345.898 -140.907)" fill="#f4f4f4" stroke="#262433" stroke-miterlimit="10" stroke-width="1"/>
                    <g id="Grupo_1179431" data-name="Grupo 1179431" transform="translate(8.318 21.879)">
                      <g id="Grupo_1179424" data-name="Grupo 1179424" transform="translate(8.926 2.546)">
                        <line id="Línea_3301" data-name="Línea 3301" x1="0.042" y2="4.487" transform="translate(0.266 0.258)" fill="#262433"/>
                        <g id="Grupo_1179423" data-name="Grupo 1179423">
                          <path id="Trazado_1000367" data-name="Trazado 1000367" d="M378.6,183.516q-.019,1.961-.037,3.922,0,.282-.005.564a.267.267,0,0,0,.533,0q.019-1.961.037-3.922,0-.282.005-.564a.267.267,0,0,0-.533,0Z" transform="translate(-378.556 -183.258)" fill="#262433"/>
                        </g>
                      </g>
                      <g id="Grupo_1179429" data-name="Grupo 1179429">
                        <g id="Grupo_1179426" data-name="Grupo 1179426">
                          <line id="Línea_3302" data-name="Línea 3302" y1="0.648" x2="1.65" transform="translate(0.269 0.272)" fill="#262433"/>
                          <g id="Grupo_1179425" data-name="Grupo 1179425">
                            <path id="Trazado_1000368" data-name="Trazado 1000368" d="M357.975,178.467l1.442-.567.208-.082a.274.274,0,0,0,.186-.328.27.27,0,0,0-.328-.186l-1.442.567-.208.082a.274.274,0,0,0-.186.328.27.27,0,0,0,.328.186Z" transform="translate(-357.636 -177.29)" fill="#262433"/>
                          </g>
                        </g>
                        <g id="Grupo_1179428" data-name="Grupo 1179428" transform="translate(13.953 0.63)">
                          <line id="Línea_3303" data-name="Línea 3303" y1="0.046" x2="1.772" transform="translate(0.267 0.267)" fill="#262433"/>
                          <g id="Grupo_1179427" data-name="Grupo 1179427">
                            <path id="Trazado_1000369" data-name="Trazado 1000369" d="M390.606,179.346l1.549-.04.223-.006a.267.267,0,1,0,0-.533l-1.549.04-.223.006a.267.267,0,1,0,0,.533Z" transform="translate(-390.339 -178.767)" fill="#262433"/>
                          </g>
                        </g>
                      </g>
                      <g id="Grupo_1179430" data-name="Grupo 1179430" transform="translate(0.784 1.807)">
                        <path id="Trazado_1000370" data-name="Trazado 1000370" d="M390.145,182.815a1.236,1.236,0,1,0,1.183-1.287A1.236,1.236,0,0,0,390.145,182.815Z" transform="translate(-377.058 -181.526)" fill="#0c0c0c"/>
                        <path id="Trazado_1000371" data-name="Trazado 1000371" d="M359.475,182.815a1.236,1.236,0,1,0,1.183-1.287A1.236,1.236,0,0,0,359.475,182.815Z" transform="translate(-359.474 -181.526)" fill="#0c0c0c"/>
                      </g>
                    </g>
                    <path id="Trazado_1000372" data-name="Trazado 1000372" d="M373.25,190.867c-1.745,1.5-4.691,2.549-6.7-.234-1.7-2.358-4.749-2.581-8.036.212-2.845,2.416-6.018.3-6.609-.137l.031,3.045a7.774,7.774,0,0,0,7.829,7.672l5.842-.059a7.774,7.774,0,0,0,7.672-7.829Z" transform="translate(-346.031 -162.015)" fill="#fff" stroke="#262433" stroke-miterlimit="10" stroke-width="1"/>
                    <path id="Trazado_1000373" data-name="Trazado 1000373" d="M346.868,139.276c.747-1.044,3.4-2.779,5.467-3.692-.431-9.613,25.289-15.057,19.883-1.2,0,0,8.494-3.613,9.918.641,3.466,10.349-21.262,13.6-28.258,4.415-1.469.548-3.276,1.605-3.634,3.548-.621,3.375-1.491,10.837-1.491,10.837a19.6,19.6,0,0,0-1.116-3.307C346.937,149.007,345.79,140.784,346.868,139.276Z" transform="translate(-342.891 -126.01)" fill="#262433"/>
                  </g>
                </g>
              </g>
            </g>
          </g>
        </g>
      </g>
    </g>
  </g>
</svg>
