<svg xmlns="http://www.w3.org/2000/svg" width="40" height="47.141" viewBox="0 0 40 47.141">
  <path id="Trazado_1005240" data-name="Trazado 1005240" d="M50.536,33.218h9.972a.737.737,0,1,1,0,1.475H50.536a.737.737,0,1,1,0-1.475Zm9.972,3.291H50.536a.737.737,0,1,0,0,1.475h9.972a.737.737,0,0,0,0-1.475ZM46.983,29.52a2.126,2.126,0,0,1-.085-2.061l3.637-7.567V16.177a1.1,1.1,0,0,1-.937-1.089V13.393a1.1,1.1,0,0,1,1.1-1.1h4.721a1.1,1.1,0,0,1,1.1,1.1v1.694a1.1,1.1,0,0,1-.937,1.089v3.715l1.627,3.384c.01.018.018.037.027.056l1.982,4.126a2.126,2.126,0,0,1-.084,2.062,1.939,1.939,0,0,1-1.682.9H48.666a1.939,1.939,0,0,1-1.682-.9Zm4.09-14.8h3.977v-.95H51.073Zm-.66,8.834a26.924,26.924,0,0,0,5.06-.493l-1.287-2.679a.738.738,0,0,1-.073-.319V16.19h-2.1v3.869a.738.738,0,0,1-.073.319Zm-2.182,5.184a.477.477,0,0,0,.435.214h8.793a.477.477,0,0,0,.435-.214.665.665,0,0,0,0-.639l-1.756-3.652-.132.022a31.421,31.421,0,0,1-5.267.564q-.5,0-1.023-.03l-1.489,3.1a.663.663,0,0,0,0,.638Zm-2.617,5.958h1.871a.737.737,0,1,0,0-1.475H45.614a.737.737,0,0,0,0,1.475Zm25.321-3.261a7.082,7.082,0,1,1,5.009-8.673,7.044,7.044,0,0,1-5.009,8.673Zm3.583-8.291a5.592,5.592,0,0,0-6.867-3.965h0a5.607,5.607,0,1,0,6.867,3.965Zm2.787,20.106a3.094,3.094,0,0,1-5.978,1.6l-1.811-6.762a1.281,1.281,0,0,1,.734-1.508l-.623-2.327c-.169.009-.339.015-.508.015a9.624,9.624,0,0,1-1.766-.165v7.533a2.714,2.714,0,0,1-2.711,2.711H41.481a2.714,2.714,0,0,1-2.711-2.711V7.546a2.714,2.714,0,0,1,2.711-2.711h4.191A2.278,2.278,0,0,1,47.629,3.69h1.283a4.177,4.177,0,0,1,8.3,0H58.5a2.275,2.275,0,0,1,1.956,1.145h4.191a2.714,2.714,0,0,1,2.711,2.711v7.535a9.669,9.669,0,0,1,6.584,17.884c-.151.087-.3.168-.458.247l.624,2.333a1.28,1.28,0,0,1,1.389.937ZM60.789,7.876h3.076a.737.737,0,0,1,.737.737v7.421a9.667,9.667,0,0,1,1.276-.559V7.546A1.237,1.237,0,0,0,64.643,6.31H60.79V7.876Zm-13.981.177a.876.876,0,0,0,.821.92H58.5a.886.886,0,0,0,.818-.92V6.084a.885.885,0,0,0-.818-.92H56.532a.737.737,0,0,1-.737-.737,2.741,2.741,0,1,0-5.465,0,.737.737,0,0,1-.737.737H47.629a.876.876,0,0,0-.821.92V8.052ZM43,9.351v30.48H63.127V32.2a9.677,9.677,0,0,1,0-15.212V9.351H60.421a2.27,2.27,0,0,1-1.925,1.1H47.629a2.273,2.273,0,0,1-1.927-1.1ZM65.879,41.633V33.707a9.782,9.782,0,0,1-1.276-.554v7.415a.738.738,0,0,1-.737.737H42.258a.737.737,0,0,1-.737-.737V8.613a.737.737,0,0,1,.737-.737h3.076V6.31H41.481a1.237,1.237,0,0,0-1.236,1.236V41.633a1.237,1.237,0,0,0,1.236,1.236H64.642a1.238,1.238,0,0,0,1.236-1.236ZM73.2,31.688a8.2,8.2,0,1,0-4.082,1.1,8.206,8.206,0,0,0,4.082-1.1Zm-1.094,2.1a9.589,9.589,0,0,1-1.005.271l.569,2.126,1.005-.269Zm3.775,9.843L74.12,37.052l-.342.091-.008,0h-.006l-2.417.646-.006,0h0l-.345.092,1.761,6.575a1.619,1.619,0,1,0,3.129-.836ZM45.614,37.983h1.871a.737.737,0,0,0,0-1.475H45.614a.737.737,0,0,0,0,1.475Z" transform="translate(-38.77)" fill="#3e5d56"/>
</svg>
