<svg xmlns="http://www.w3.org/2000/svg" width="36.574" height="40" viewBox="0 0 36.574 40">
  <g id="Human_Resource" data-name="Human Resource" transform="translate(-6.462 -4.069)">
    <path id="Trazado_1005241" data-name="Trazado 1005241" d="M30.762,10.315a3.123,3.123,0,1,1,3.123-3.123,3.123,3.123,0,0,1-3.123,3.123Zm0-4.814a1.691,1.691,0,1,0,1.691,1.691A1.691,1.691,0,0,0,30.762,5.5Z" transform="translate(-6.013 0)" fill="#3e5d56"/>
    <path id="Trazado_1005242" data-name="Trazado 1005242" d="M40.926,12.566a2.71,2.71,0,1,1,2.71-2.71A2.71,2.71,0,0,1,40.926,12.566Zm0-3.987A1.278,1.278,0,1,0,42.2,9.856a1.278,1.278,0,0,0-1.278-1.278Z" transform="translate(-9.016 -0.874)" fill="#3e5d56"/>
    <path id="Trazado_1005243" data-name="Trazado 1005243" d="M20.926,12.566a2.71,2.71,0,1,1,2.71-2.71,2.71,2.71,0,0,1-2.71,2.71Zm0-3.987A1.278,1.278,0,1,0,22.2,9.856a1.278,1.278,0,0,0-1.278-1.278Z" transform="translate(-3.337 -0.874)" fill="#3e5d56"/>
    <path id="Trazado_1005244" data-name="Trazado 1005244" d="M36.938,15.322H32.549a1.71,1.71,0,0,0-.459.068,2.008,2.008,0,0,0-1.858-1.305h-5.3a2.008,2.008,0,0,0-1.859,1.305,1.711,1.711,0,0,0-.459-.068H18.228a1.816,1.816,0,0,0-1.784,1.843v4.572c0,.632.463.978.932,1.473V29.28A1.237,1.237,0,0,0,18.6,30.528h3.651a1.236,1.236,0,0,0,1.221-1.249V23.211l.2-.214.383.4v7.386a1.345,1.345,0,0,0,1.326,1.36h4.407a1.345,1.345,0,0,0,1.326-1.36V23.4l.383-.4.2.214V29.28a1.236,1.236,0,0,0,1.221,1.249h3.651A1.237,1.237,0,0,0,37.79,29.28V23.211c.469-.5.932-.841.932-1.473V17.165A1.816,1.816,0,0,0,36.938,15.322Zm-14.9,7.807V29.1H18.808V23.129c0-.633-.464-.979-.932-1.473v-4.49a.386.386,0,0,1,.352-.411h4.389a.353.353,0,0,1,.312.233V21.7C22.479,22.172,22.037,22.5,22.037,23.129Zm7.643.233v7.352H25.486V23.362c0-.728-.587-1.151-1.125-1.719v-5.48a.613.613,0,0,1,.573-.645h5.3a.613.613,0,0,1,.573.645v5.48C30.267,22.211,29.68,22.634,29.68,23.362Zm7.61-1.706c-.468.494-.932.84-.932,1.473V29.1H33.129V23.129c0-.63-.443-.957-.893-1.432V16.987a.353.353,0,0,1,.312-.233h4.389a.386.386,0,0,1,.352.411Z" transform="translate(-2.834 -2.844)" fill="#3e5d56"/>
    <path id="Trazado_1005245" data-name="Trazado 1005245" d="M50.34,24.894a1.19,1.19,0,0,0-1.7-.838,4.9,4.9,0,0,0-2.574,6.084.928.928,0,0,1-.015.66l-.611,1.447a2.428,2.428,0,0,0-1.32.622l-2.572,2.392a.466.466,0,0,1-.3.125,5.987,5.987,0,0,0-5.4,4.044,2.816,2.816,0,0,0-.182.986l-.02,3.857h-.476a.716.716,0,0,0-.716.716v4a.716.716,0,0,0,.716.716h9.687a.716.716,0,0,0,.716-.716v-4a.716.716,0,0,0-.716-.716H44.19a.908.908,0,0,1,.268-.566l5.222-5.025a3.311,3.311,0,0,0,.984-1.945A37.559,37.559,0,0,0,50.34,24.894ZM44.149,48.277H35.894V45.706h8.255Zm5.095-11.726a1.872,1.872,0,0,1-.557,1.1l-5.222,5.026a2.334,2.334,0,0,0-.719,1.6H37.083V40.268a4.6,4.6,0,0,1,4.236-3.451,1.9,1.9,0,0,0,1.207-.507L45.1,33.919a1.016,1.016,0,0,1,1.1-.182c.405.17.256.8-.036,1.12L42.95,38.409a.716.716,0,1,0,1.063.96l3.209-3.553a2.112,2.112,0,0,0-.327-3.325l.479-1.134a2.36,2.36,0,0,0,.051-1.678,3.445,3.445,0,0,1,1.569-4.187,36.135,36.135,0,0,1,.25,11.059Z" transform="translate(-7.95 -5.64)" fill="#3e5d56"/>
    <path id="Trazado_1005246" data-name="Trazado 1005246" d="M6.784,36.738a3.311,3.311,0,0,0,.984,1.945l5.222,5.025a.908.908,0,0,1,.268.566h-.675a.716.716,0,0,0-.716.716v4a.716.716,0,0,0,.716.716H22.27a.716.716,0,0,0,.716-.716v-4a.716.716,0,0,0-.716-.716h-.476l-.02-3.857a2.816,2.816,0,0,0-.182-.986,5.987,5.987,0,0,0-5.4-4.044.466.466,0,0,1-.3-.125L13.325,32.87a2.428,2.428,0,0,0-1.32-.622L11.394,30.8a.928.928,0,0,1-.015-.66A4.9,4.9,0,0,0,8.8,24.055a1.19,1.19,0,0,0-1.7.838,37.556,37.556,0,0,0-.324,11.844ZM13.3,45.706h8.255v2.571H13.3ZM8.454,25.492a3.445,3.445,0,0,1,1.569,4.187,2.36,2.36,0,0,0,.051,1.678l.479,1.134a2.112,2.112,0,0,0-.327,3.325l3.209,3.553a.716.716,0,1,0,1.063-.96l-3.209-3.553c-.292-.324-.442-.949-.036-1.12a1.016,1.016,0,0,1,1.1.182c2.709,2.519,2.878,2.857,3.779,2.9a4.6,4.6,0,0,1,4.236,3.451v4.006H14.7a2.334,2.334,0,0,0-.719-1.6L8.761,37.651a1.872,1.872,0,0,1-.557-1.1,36.136,36.136,0,0,1,.25-11.059Z" transform="translate(0 -5.64)" fill="#3e5d56"/>
  </g>
</svg>
