<svg xmlns="http://www.w3.org/2000/svg" width="84" height="84" viewBox="0 0 84 84">
  <g id="Grupo_1180058" data-name="Grupo 1180058" transform="translate(-207.273 -8211)">
    <rect id="Rectángulo_455208" data-name="Rectángulo 455208" width="84" height="84" rx="10" transform="translate(207.273 8211)" fill="#99bfb7"/>
    <g id="Grupo_1180057" data-name="Grupo 1180057" transform="translate(156.388 8222)">
      <g id="Grupo_1180055" data-name="Grupo 1180055" transform="translate(70.933 0.912)">
        <g id="Grupo_1180053" data-name="Grupo 1180053" transform="translate(0)">
          <path id="Trazado_1003328" data-name="Trazado 1003328" d="M136.072,49.079c2.078,3.441,11.442,6.223,17.3,6.223v5.192a10.692,10.692,0,0,1-3.335,7.086h3.7a3.658,3.658,0,0,0,3.647-3.647V51.156c0-5.758-3.477-11.656-8.547-13.655l-.912,7.295H135.161l-.912-7.295c-5.07,2-8.547,7.9-8.547,13.655V63.933a3.658,3.658,0,0,0,3.647,3.647h3.7a10.692,10.692,0,0,1-3.335-7.086V55.3A6.672,6.672,0,0,1,136.072,49.079Z" transform="translate(-119.964 -33.854)" fill="#b0c5e0" fill-rule="evenodd"/>
          <path id="Trazado_1003329" data-name="Trazado 1003329" d="M166.746,154.374a10.508,10.508,0,0,0,7.622,0c3.934-1.5,8.014-5.866,8.014-10.221V138.96c-5.854,0-15.219-2.782-17.3-6.223-2.694,0-6.355,2.549-6.355,6.223v5.192C158.731,148.507,162.812,152.87,166.746,154.374Z" transform="translate(-148.978 -117.511)" fill="#fbf2e2" fill-rule="evenodd"/>
          <path id="Trazado_1003330" data-name="Trazado 1003330" d="M196.71,18.442h12.766l.912-7.295c.249-1.99-1.641-3.647-3.647-3.647h-7.295c-2.006,0-3.931,1.661-3.647,3.647Z" transform="translate(-181.514 -7.5)" fill="#9ce3bf" fill-rule="evenodd"/>
          <path id="Trazado_1003331" data-name="Trazado 1003331" d="M223.428,311.419a10.647,10.647,0,0,1-3.811-.72l-.7,4.023,1.342,7.034h6.332l1.342-7.034-.7-4.022a10.655,10.655,0,0,1-3.811.72Z" transform="translate(-201.849 -273.837)" fill="#fbf2e2" fill-rule="evenodd"/>
          <path id="Trazado_1003332" data-name="Trazado 1003332" d="M236.293,401.643h-6.332l1.342,7.034h3.647Z" transform="translate(-211.548 -353.724)" fill="#52cd8d" fill-rule="evenodd"/>
          <path id="Trazado_1003333" data-name="Trazado 1003333" d="M98.264,357.853,95.58,343.785l-9.163,3.669c-5.324,2.132-6.2,3.685-7,9.364l-.912,6.506h43.158l-.912-6.506c-.8-5.68-1.673-7.232-7-9.364l-9.163-3.669-2.684,14.068Z" transform="translate(-78.509 -302.9)" fill="#9ce3bf" fill-rule="evenodd"/>
          <path id="Trazado_1003334" data-name="Trazado 1003334" d="M85.362,377.6c-4.39,1.928-5.2,3.641-5.941,8.923l-.912,6.506h2.736l1.094-8.147C82.851,381.064,83.429,379.113,85.362,377.6Z" transform="translate(-78.509 -332.601)" fill="#52cd8d" fill-rule="evenodd"/>
          <path id="Trazado_1003335" data-name="Trazado 1003335" d="M222.239,311.35a10.872,10.872,0,0,1-2.622-.651l-.7,4.023,1.342,7.034Z" transform="translate(-201.849 -273.837)" fill="#f7e0ba" fill-rule="evenodd"/>
          <path id="Trazado_1003336" data-name="Trazado 1003336" d="M166.746,163.648a10.521,10.521,0,0,0,5.179.625c-4.981-.662-10.458-5.68-10.458-10.846V143.295a6.151,6.151,0,0,0-2.736,4.939v5.192C158.731,157.782,162.812,162.145,166.746,163.648Z" transform="translate(-148.978 -126.785)" fill="#f7e0ba" fill-rule="evenodd"/>
          <path id="Trazado_1003337" data-name="Trazado 1003337" d="M196.71,18.442h2.736l-.912-7.295c-.284-1.986,1.641-3.647,3.647-3.647h-2.736c-2.006,0-3.931,1.661-3.647,3.647Z" transform="translate(-181.514 -7.5)" fill="#52cd8d" fill-rule="evenodd"/>
          <path id="Trazado_1003338" data-name="Trazado 1003338" d="M134.248,37.5c-5.07,2-8.547,7.9-8.547,13.655V63.932a3.658,3.658,0,0,0,3.647,3.647h2.736a3.658,3.658,0,0,1-3.647-3.647V51.155A18.864,18.864,0,0,1,134.248,37.5Z" transform="translate(-119.963 -33.853)" fill="#7094c6" fill-rule="evenodd"/>
        </g>
        <g id="Grupo_1180054" data-name="Grupo 1180054" transform="translate(28.476 45.06)">
          <path id="Trazado_1003339" data-name="Trazado 1003339" d="M317.807,381.85l-1.693-.678.678-1.693,1.693.678Zm-3.386-1.356-1.693-.678.678-1.693,1.693.678Z" transform="translate(-312.728 -378.123)" fill="#fff"/>
        </g>
      </g>
      <g id="Grupo_1180056" data-name="Grupo 1180056" transform="translate(69.885 0)">
        <path id="Trazado_1003340" data-name="Trazado 1003340" d="M104.517,53.98v6.444H95.248v1.824H115.14L114.083,54.7c-.825-5.883-1.859-7.8-7.56-10.084l-8.69-3.48-.487-2.812a14.272,14.272,0,0,0,4.036-2.777h3.326a4.564,4.564,0,0,0,4.559-4.559V18.214c0-6.081-3.554-11.957-8.534-14.249A3.944,3.944,0,0,0,99.722,1.6,4.817,4.817,0,0,0,96.16,0H88.865A4.816,4.816,0,0,0,85.3,1.6a3.943,3.943,0,0,0-1.01,2.362A13.875,13.875,0,0,0,78.7,8.833L80.2,9.862a12.32,12.32,0,0,1,4.263-3.949l.857,6.852H99.7l.856-6.849a12.674,12.674,0,0,1,4.649,4.538,15.038,15.038,0,0,1,2.237,7.759V30.992a2.739,2.739,0,0,1-2.736,2.736H102.97a10.777,10.777,0,0,0,2.28-6.174v-6.1h-.912a33.123,33.123,0,0,1-9.773-1.773c-3.451-1.165-5.909-2.627-6.743-4.009l-.266-.44h-.515c-3.36,0-7.267,3.117-7.267,7.135v5.192a10.777,10.777,0,0,0,2.28,6.174H80.318a2.739,2.739,0,0,1-2.736-2.736V18.214a14.871,14.871,0,0,1,1.737-6.881l-1.614-.848a16.7,16.7,0,0,0-1.946,7.729V30.992a4.564,4.564,0,0,0,4.559,4.559h3.326a14.274,14.274,0,0,0,4.036,2.777l-.487,2.812-8.69,3.48c-5.7,2.283-6.736,4.2-7.56,10.084l-1.057,7.544H89.777V60.424H80.508V53.98H78.684v6.444h-6.7l.766-5.467c.742-5.294,1.378-6.62,6.432-8.644l8.136-3.258,2.618,13.722H95.09l2.618-13.722,8.136,3.258c5.054,2.024,5.69,3.351,6.432,8.644l.766,5.468h-6.7V53.98ZM98.9,4.446l-.812,6.5H86.935l-.812-6.5A2.066,2.066,0,0,1,86.67,2.81a3.009,3.009,0,0,1,2.195-.986H96.16a3.008,3.008,0,0,1,2.195.987A2.067,2.067,0,0,1,98.9,4.446ZM81.6,27.553V22.361c0-2.975,2.844-5.017,4.985-5.282,2.729,3.539,11.368,5.923,16.843,6.172v4.3a10.109,10.109,0,0,1-3.208,6.583,10.339,10.339,0,0,1-15.412,0A10.11,10.11,0,0,1,81.6,27.553ZM92.512,39.406a11.292,11.292,0,0,0,3.092-.439l.489,2.822-1.17,6.13H90.1l-1.17-6.13.489-2.822a11.289,11.289,0,0,0,3.093.439ZM91.443,54.953l-.994-5.21h4.127l-.994,5.21Z" transform="translate(-69.885 0)"/>
        <path id="Trazado_1003341" data-name="Trazado 1003341" d="M248.5,497h1.824v1.824H248.5Z" transform="translate(-226.784 -436.576)"/>
        <path id="Trazado_1003342" data-name="Trazado 1003342" d="M237.147,30h-1.824v1.824H233.5v1.824h1.824v1.824h1.824V33.647h1.824V31.824h-1.824Z" transform="translate(-213.608 -26.353)"/>
      </g>
    </g>
  </g>
</svg>
