<svg xmlns="http://www.w3.org/2000/svg" width="80" height="80" viewBox="0 0 80 80">
  <g id="Grupo_1179445" data-name="Grupo 1179445" transform="translate(-527.711 -8985)">
    <rect id="Rectángulo_455052" data-name="Rectángulo 455052" width="80" height="80" rx="10" transform="translate(527.711 8985)" fill="#99bfb7"/>
    <g id="Artboard461" transform="translate(521.41 8986.888)">
      <g id="Grupo_1179444" data-name="Grupo 1179444" transform="translate(16.363 7)">
        <g id="Grupo_1179443" data-name="Grupo 1179443" transform="translate(1.002 8.545)">
          <g id="Grupo_1179439" data-name="Grupo 1179439">
            <path id="Trazado_1000374" data-name="Trazado 1000374" d="M182.494,376.9h18.189v10.359H182.494Z" transform="translate(-162.654 -339.044)" fill="#a79ba7" fill-rule="evenodd"/>
            <path id="Trazado_1000375" data-name="Trazado 1000375" d="M316.228,376.9h1.411v10.359h-1.411Z" transform="translate(-279.611 -339.044)" fill="#837683" fill-rule="evenodd"/>
            <path id="Trazado_1000376" data-name="Trazado 1000376" d="M98.287,452.409h39.32v-3.031c0-1.665-1.709-3.032-3.794-3.032H102.081c-2.088,0-3.794,1.367-3.794,3.032Z" transform="translate(-89.011 -399.774)" fill="#eceff1" fill-rule="evenodd"/>
            <path id="Trazado_1000377" data-name="Trazado 1000377" d="M98.287,456.626h39.32v-3.031a2.892,2.892,0,0,0-1.531-2.427,2.5,2.5,0,0,1,.325,1.224v3.031H98.287Z" transform="translate(-89.011 -403.991)" fill="#d1d1d6" fill-rule="evenodd"/>
            <path id="Trazado_1000378" data-name="Trazado 1000378" d="M28.8,75.111H77.771a4.463,4.463,0,0,1,4.45,4.45v30.605a4.463,4.463,0,0,1-4.45,4.45H28.8a4.46,4.46,0,0,1-4.446-4.45V79.561A4.46,4.46,0,0,1,28.8,75.111Z" transform="translate(-24.35 -75.111)" fill="#eceff1" fill-rule="evenodd"/>
            <path id="Trazado_1000379" data-name="Trazado 1000379" d="M85.542,81.186a4.453,4.453,0,0,1,1.969,3.688v30.605a4.463,4.463,0,0,1-4.45,4.45H34.086a4.463,4.463,0,0,1-3.688-1.965,4.432,4.432,0,0,0,2.481.759H81.854a4.46,4.46,0,0,0,4.45-4.446V83.667a4.408,4.408,0,0,0-.762-2.481Z" transform="translate(-29.639 -80.424)" fill="#d1d1d6" fill-rule="evenodd"/>
            <path id="Trazado_1000380" data-name="Trazado 1000380" d="M54.609,104.778h49.2a.617.617,0,0,1,.615.615V133.1H53.99V105.393a.618.618,0,0,1,.619-.615Z" transform="translate(-50.272 -101.056)" fill="#d8ecfe" fill-rule="evenodd"/>
            <path id="Trazado_1000381" data-name="Trazado 1000381" d="M431.846,104.778h2.413a.617.617,0,0,1,.615.615V133.1h-2.409V105.393A.62.62,0,0,0,431.846,104.778Z" transform="translate(-380.725 -101.056)" fill="#c4e2ff" fill-rule="evenodd"/>
          </g>
          <g id="Grupo_1179440" data-name="Grupo 1179440" transform="translate(27.186 7.966)">
            <path id="Trazado_1000382" data-name="Trazado 1000382" d="M264.075,139.753a1.144,1.144,0,0,0-1.144-1.144H242.2a1.144,1.144,0,0,0-1.144,1.144V157.76A1.144,1.144,0,0,0,242.2,158.9h20.734a1.144,1.144,0,0,0,1.144-1.144Z" transform="translate(-241.053 -138.609)" fill="#6cf5c2" fill-rule="evenodd"/>
            <path id="Trazado_1000383" data-name="Trazado 1000383" d="M243.452,138.609a1.144,1.144,0,0,0-1.144,1.144V157.76a1.144,1.144,0,0,0,1.144,1.144H242.2a1.144,1.144,0,0,1-1.144-1.144V139.753a1.144,1.144,0,0,1,1.144-1.144Z" transform="translate(-241.053 -138.609)" fill="#00e499" fill-rule="evenodd"/>
          </g>
          <g id="Grupo_1179441" data-name="Grupo 1179441" transform="translate(7.031 6.739)">
            <path id="Trazado_1000384" data-name="Trazado 1000384" d="M88.521,145.075a8.123,8.123,0,1,0-8.123-8.122A8.138,8.138,0,0,0,88.521,145.075Z" transform="translate(-80.398 -128.83)" fill="#837683" fill-rule="evenodd"/>
            <path id="Trazado_1000385" data-name="Trazado 1000385" d="M146.791,136.953a8.122,8.122,0,0,1-7.4,8.09q.357.032.722.032a8.158,8.158,0,0,0,1.163-.083l.146-.022a8.123,8.123,0,0,0-1.309-16.141q-.365,0-.722.032A8.123,8.123,0,0,1,146.791,136.953Z" transform="translate(-131.989 -128.83)" fill="#685e68" fill-rule="evenodd"/>
            <path id="Trazado_1000386" data-name="Trazado 1000386" d="M105.83,199.82a5.675,5.675,0,0,0-5.64,5.063,8.12,8.12,0,0,0,11.279,0A5.673,5.673,0,0,0,105.83,199.82Z" transform="translate(-97.707 -190.914)" fill="#8ac9fe" fill-rule="evenodd"/>
            <path id="Trazado_1000387" data-name="Trazado 1000387" d="M139.4,199.866c3.376.429,4.736,2.984,5.049,6.045a8.064,8.064,0,0,0,1.311-1.028,5.673,5.673,0,0,0-5.639-5.063A5.581,5.581,0,0,0,139.4,199.866Z" transform="translate(-131.996 -190.914)" fill="#60b7ff" fill-rule="evenodd"/>
            <path id="Trazado_1000388" data-name="Trazado 1000388" d="M125.158,156.421a2.868,2.868,0,1,0-2.867-2.868A2.874,2.874,0,0,0,125.158,156.421Z" transform="translate(-117.035 -147.944)" fill="#f6dccd" fill-rule="evenodd"/>
            <path id="Trazado_1000389" data-name="Trazado 1000389" d="M144.78,153.554a2.868,2.868,0,0,1-2.507,2.846,2.976,2.976,0,0,0,.361.022,2.868,2.868,0,1,0,0-5.735,2.976,2.976,0,0,0-.361.022A2.868,2.868,0,0,1,144.78,153.554Z" transform="translate(-134.511 -147.944)" fill="#f1cbbc" fill-rule="evenodd"/>
          </g>
          <g id="Grupo_1179442" data-name="Grupo 1179442" transform="translate(5.295 36.607)">
            <path id="Trazado_1000390" data-name="Trazado 1000390" d="M67.449,366.911H79.4a.892.892,0,0,1,.891.891v9.5a.891.891,0,0,1-.891.891H67.449a.893.893,0,0,1-.893-.891v-9.5A.894.894,0,0,1,67.449,366.911Z" transform="translate(-66.556 -366.911)" fill="#ffe177" fill-rule="evenodd"/>
            <path id="Trazado_1000391" data-name="Trazado 1000391" d="M68.905,378.195H67.449a.893.893,0,0,1-.893-.891v-9.5a.894.894,0,0,1,.893-.891h1.456a.894.894,0,0,0-.893.891v9.5A.893.893,0,0,0,68.905,378.195Z" transform="translate(-66.556 -366.911)" fill="#ffd064" fill-rule="evenodd"/>
          </g>
        </g>
        <path id="Trazado_1000392" data-name="Trazado 1000392" d="M21.215,56.062a5.474,5.474,0,0,1-4.852-5.42v-30.6a5.471,5.471,0,0,1,5.454-5.454H37.531a1,1,0,0,1,0,2.007H21.817a3.457,3.457,0,0,0-3.446,3.446v30.6a3.46,3.46,0,0,0,2.845,3.393V52.42a1.958,1.958,0,0,1,1.954-1.952h.16V49.289a6.2,6.2,0,0,1,.038-.688H21.086a1,1,0,0,1-1-1V19.928a1.622,1.622,0,0,1,1.624-1.62H41.243a1,1,0,0,1,0,2.007H22.09V46.594h1.86a6.193,6.193,0,0,1,11.159,0h35.4V20.315H51.361a1,1,0,0,1,0-2.007H70.9a1.623,1.623,0,0,1,1.62,1.62V47.6a1,1,0,0,1-1,1H35.69a6.2,6.2,0,0,1,.038.688v1.179h.162a1.955,1.955,0,0,1,1.952,1.952v1.668H70.785a3.457,3.457,0,0,0,3.446-3.446v-30.6a3.457,3.457,0,0,0-3.446-3.446H55.072a1,1,0,1,1,0-2.007H70.785a5.471,5.471,0,0,1,5.454,5.454v30.6a5.471,5.471,0,0,1-5.454,5.454H56.4v5.062h5.767c2.692,0,4.8,1.882,4.8,4.032v3.032a1,1,0,0,1-1,1H26.643a1,1,0,0,1-1-1V65.189a3.433,3.433,0,0,1,.073-.7H23.169a1.955,1.955,0,0,1-1.954-1.952Zm16.523,7.1a1.953,1.953,0,0,1-1.847,1.32H27.829a1.491,1.491,0,0,0-.182.7v2.028H64.958V65.189c0-1.183-1.309-2.024-2.79-2.024Zm-4.017-12.7V49.289a4.192,4.192,0,1,0-8.384,0v1.179Zm20.672,5.627H38.212v5.062H54.393ZM23.222,62.477H35.835v-10H23.222Zm6.308-8.609a1.851,1.851,0,0,1,.97,3.426v2.821a.97.97,0,0,1-1.941,0V57.294a1.85,1.85,0,0,1,.97-3.426Zm14.1-36.82a1,1,0,0,1-1.482-1.354,5.536,5.536,0,0,1,8.3,0,1,1,0,0,1-1.482,1.354,3.53,3.53,0,0,0-5.336,0Zm9.02-3.767a1,1,0,0,1-1.482,1.354,6.459,6.459,0,0,0-9.741,0,1,1,0,0,1-1.482-1.354,8.465,8.465,0,0,1,12.7,0ZM39.227,12.225a1,1,0,0,1-1.482-1.354,11.391,11.391,0,0,1,17.112,0,1,1,0,1,1-1.482,1.353,9.385,9.385,0,0,0-14.147,0ZM46.3,17.737a1.32,1.32,0,1,1-1.32,1.32A1.32,1.32,0,0,1,46.3,17.737ZM32.519,21.322a9.127,9.127,0,1,1-9.127,9.127,9.126,9.126,0,0,1,9.127-9.127ZM38.6,34.152a7.119,7.119,0,1,0-12.163,0A6.7,6.7,0,0,1,29.6,30.9a3.872,3.872,0,1,1,5.84,0A6.7,6.7,0,0,1,38.6,34.152ZM27.958,35.915a7.121,7.121,0,0,0,9.124,0,4.668,4.668,0,0,0-9.124,0Zm4.562-5.686a1.865,1.865,0,1,0-1.865-1.865A1.87,1.87,0,0,0,32.519,30.229Zm36.057-6.676V43.847a1,1,0,0,1-1,1H44.551a1,1,0,0,1-1-1V23.553a1,1,0,0,1,1-1H67.573a1,1,0,0,1,1,1Zm-2.007,1H45.555V42.844H66.57Zm-19.092,5.99a1,1,0,0,1,0-2.007h11.13a1,1,0,0,1,0,2.007Zm0-2.907a1,1,0,0,1,0-2.007h11.13a1,1,0,0,1,0,2.007Zm6.108,8.72a1,1,0,0,1,0-2.007h11.13a1,1,0,1,1,0,2.007Zm-6.108-2.907a1,1,0,1,1,0-2.007h11.13a1,1,0,0,1,0,2.007Zm6.108,8.72a1,1,0,0,1,0-2.007h11.13a1,1,0,1,1,0,2.007Zm0-2.907a1,1,0,1,1,0-2.007h11.13a1,1,0,1,1,0,2.007Z" transform="translate(-16.363 -7)" fill-rule="evenodd"/>
      </g>
    </g>
  </g>
</svg>
