<svg xmlns="http://www.w3.org/2000/svg" width="188" height="130" viewBox="0 0 188 130">
  <g id="Grupo_1180771" data-name="Grupo 1180771" transform="translate(-290.496 -6136)">
    <rect id="Rectángulo_455190" data-name="Rectángulo 455190" width="188" height="130" rx="10" transform="translate(290.496 6136)" fill="#99bfb7"/>
    <g id="_386218842_5f7b46aa-6a20-448b-80f2-2cb3f76e0b28" data-name="386218842_5f7b46aa-6a20-448b-80f2-2cb3f76e0b28" transform="translate(112.493 5515.148)">
      <path id="Trazado_1005170" data-name="Trazado 1005170" d="M933.288,937.7c0-.522-.149-1.9.155-2.271.248-.3,1.513-.253,1.893-.236a1.546,1.546,0,0,1,1.08.3,8.62,8.62,0,0,1,.08,2.167c.716.246,1.4.544,2.092.852.36-.356.9-.878,1.436-.862a1.681,1.681,0,0,1,1.09.732,12.4,12.4,0,0,1,.987,1.23,8.429,8.429,0,0,1-1.044,1.363,9.043,9.043,0,0,1,.788,2.062c.527,0,1.7-.14,2.124.158a5.225,5.225,0,0,1-.011,2.941c-.42.307-1.4.107-1.931.136a18.648,18.648,0,0,1-.731,2.343,8.372,8.372,0,0,1,.787,1.235,20.727,20.727,0,0,1-2.295,2.257,13.237,13.237,0,0,1-1.29-1.11,7.515,7.515,0,0,1-2.123.82,4.885,4.885,0,0,1-.215,1.783,5.487,5.487,0,0,1-2.772.062c-.15-.039-.178-.04-.244-.179a5.318,5.318,0,0,1-.057-1.656,21.56,21.56,0,0,1-2.111-.95,2.221,2.221,0,0,1-1.172.835,6.373,6.373,0,0,1-1.964-1.946.587.587,0,0,1-.123-.409,5.691,5.691,0,0,1,.947-.971,12.005,12.005,0,0,1-.787-2.295c-.478-.013-1.508.114-1.852-.2a4.646,4.646,0,0,1-.109-2.8c.395-.348,1.472-.194,1.99-.181a18.578,18.578,0,0,0,.834-2.271l-.135-.19a3.4,3.4,0,0,1-.553-.482.8.8,0,0,1-.225-.578c.092-.595,1.283-1.674,1.8-1.965a.3.3,0,0,1,.314-.036c.468.139.991.874,1.3,1.237A5.064,5.064,0,0,1,933.288,937.7Z" transform="translate(-695.722 -290.617)" fill="#151413"/>
      <path id="Trazado_1005171" data-name="Trazado 1005171" d="M955.163,958.932c.543-.01,1.09.011,1.634.02q-.03,1.114-.026,2.228a12.1,12.1,0,0,1,3.2,1.236,9.337,9.337,0,0,0,1.06-1.266,11.5,11.5,0,0,0,1.187,1.25c-.378.449-.75.9-1.1,1.372a10.346,10.346,0,0,1,1.356,2.91q.941,0,1.88.055c.045.526.028,1.06.027,1.587l-1.869.074a18.042,18.042,0,0,1-1.083,3.15c.227.312.476.614.714.918a8.432,8.432,0,0,1-1.27,1.517c-.38-.386-.765-.755-1.175-1.109a8.2,8.2,0,0,1-1.458.726,8.472,8.472,0,0,0-1.247.475c-.436.252-.216,1.067-.342,1.479-.053.173-.111.168-.266.235l-1.446.025a9.057,9.057,0,0,0-.01-1.3.712.712,0,0,0-.082-.245c-.207-.24-2.241-1.226-2.783-1.6q-.5.5-.986,1.022c-.46-.422-.89-.879-1.328-1.324a7.582,7.582,0,0,1,1.033-1.035,26.415,26.415,0,0,1-1.3-3.255q-.882.062-1.765.105c-.026-.534-.015-1.073-.02-1.607.677.011,1.349.052,2.027.047a5.741,5.741,0,0,1,1.171-3,8.059,8.059,0,0,0-1.163-1.39l1.149-1.132q.713.707,1.453,1.387a5.774,5.774,0,0,1,2.771-1.311C955.161,960.432,955.15,959.677,955.163,958.932Z" transform="translate(-716.82 -313.45)" fill="#6cc6d8"/>
      <path id="Trazado_1005172" data-name="Trazado 1005172" d="M1052.206,1072.783a4.522,4.522,0,0,1,2.806.79c.058.039.115.08.171.122s.111.085.165.13.106.091.158.138.1.1.151.146.1.1.143.153.092.106.135.16.086.11.127.167.081.114.119.173.075.118.11.179.069.122.1.184.063.125.092.189.056.128.082.193.05.131.073.2.043.133.063.2.037.135.052.2.03.137.042.206a4.478,4.478,0,0,1-.777,3.34,4.611,4.611,0,0,1-3.178,1.871,4.791,4.791,0,0,1-3.077-.858,4.386,4.386,0,0,1-1.678-2.951,4.172,4.172,0,0,1,.847-3.158A4.777,4.777,0,0,1,1052.206,1072.783Z" transform="translate(-813.279 -422.889)" fill="#151413"/>
      <path id="Trazado_1005173" data-name="Trazado 1005173" d="M1071.659,1095.363a3.612,3.612,0,0,1,2.4.468,3.788,3.788,0,0,1,1.668,2.317q.018.083.032.167t.024.169q.01.085.015.17c0,.057.006.114.007.17s0,.114,0,.171-.005.114-.01.17-.01.113-.018.17-.016.113-.026.168-.022.112-.035.167-.027.11-.043.165-.032.109-.051.163-.038.107-.059.16-.043.105-.066.157-.048.1-.074.154-.053.1-.082.15-.058.1-.089.146a3.671,3.671,0,0,1-2.439,1.6,3.938,3.938,0,0,1-2.2-.349q-.081-.042-.159-.087t-.154-.1c-.051-.033-.1-.067-.15-.1s-.1-.072-.144-.11-.094-.077-.139-.117-.089-.082-.133-.124-.085-.086-.126-.13-.081-.09-.12-.136-.076-.094-.113-.142-.071-.1-.105-.148-.066-.1-.1-.153-.061-.1-.09-.158-.056-.107-.082-.162-.051-.11-.074-.166-.045-.112-.065-.169-.039-.114-.057-.172-.033-.113-.048-.171-.028-.115-.039-.173-.021-.116-.03-.175-.016-.117-.021-.176-.01-.118-.012-.177,0-.118,0-.177,0-.118.006-.177.009-.118.015-.177.015-.117.024-.176.021-.117.033-.174.027-.115.042-.172.032-.114.051-.17.038-.112.059-.167.044-.11.068-.164.049-.107.076-.16.055-.1.084-.156A3.9,3.9,0,0,1,1071.659,1095.363Z" transform="translate(-833.088 -444.57)" fill="#fefefe"/>
      <path id="Trazado_1005174" data-name="Trazado 1005174" d="M2606.273,938.24c.5,0,2.229-.223,2.554.139.361.4.241,1.626.248,2.159a12.37,12.37,0,0,1,2.119.9,5.123,5.123,0,0,1,1.34-1.122.878.878,0,0,1,.524.275c.427.356,1.537,1.322,1.575,1.888a6.3,6.3,0,0,1-1.047,1.261q.452,1.091.866,2.2a3.2,3.2,0,0,1,2.046.1,1.428,1.428,0,0,1,.206.58,4.5,4.5,0,0,1-.166,2.437,6.7,6.7,0,0,1-1.766.076c-.244.707-.575,1.379-.818,2.087.214.346.947,1.038,1.007,1.372.034.185-.392.646-.525.8-.313.355-1.176,1.394-1.6,1.418a6.008,6.008,0,0,1-1.216-1.062c-.735.335-1.45.649-2.217.913a5.035,5.035,0,0,1-.223,1.85.825.825,0,0,1-.586.2c-.562.022-1.99.238-2.364-.187s-.253-1.264-.244-1.8a11.15,11.15,0,0,1-2.359-1.034c-.328.308-.773.983-1.218,1.058a2.8,2.8,0,0,1-.732-.459c-.45-.366-1.611-1.3-1.675-1.886a4.416,4.416,0,0,1,1.062-1.2c-.309-.658-.611-1.312-.875-1.99a12.321,12.321,0,0,1-1.564-.278c-.117-.043-.179-.061-.233-.178a5.178,5.178,0,0,1,.01-2.681c.379-.325,1.425-.217,1.93-.224a7.511,7.511,0,0,1,.842-2,7.776,7.776,0,0,1-1.114-1.629c.656-.66,1.25-1.394,1.956-2,.593.383,1.117.88,1.709,1.274a7.921,7.921,0,0,1,2.2-.984C2605.927,939.893,2605.792,938.713,2606.273,938.24Z" transform="translate(-2303.418 -293.497)" fill="#151413"/>
      <path id="Trazado_1005175" data-name="Trazado 1005175" d="M2629.114,961.419c.529-.012,1.055,0,1.584.016l.006,1.856c.8.569,2.135.949,3.075,1.489a7.709,7.709,0,0,1,1.247-1.215c.389.381.758.768,1.114,1.179a16.545,16.545,0,0,0-1.206,1.259,19.732,19.732,0,0,1,1.3,2.978c.68.075,1.375.054,2.06.121.042.466.006.96,0,1.429a5.571,5.571,0,0,1-1.877-.034,11.292,11.292,0,0,1-1.092,3.2c.326.517.748.988,1.1,1.489a12.449,12.449,0,0,0-1.276,1.034c-.38-.378-.744-.77-1.108-1.163a14.521,14.521,0,0,1-1.77.987c-.378.159-1.123.2-1.381.482-.218.239-.131,1.345-.129,1.7l-1.616.044-.02-1.813a20.844,20.844,0,0,1-3.239-1.319,8.075,8.075,0,0,0-1.13,1.1,11.275,11.275,0,0,1-1.419-1.38,8.439,8.439,0,0,0,1.017-1.323,8.58,8.58,0,0,1-1.083-2.758c-.6-.061-1.188-.134-1.78-.253l-.013-1.531,1.833.01a8.287,8.287,0,0,1,1.229-2.888q-.576-.638-1.115-1.307c.332-.417.729-.793,1.1-1.176a13.537,13.537,0,0,0,1.525,1.3,7.685,7.685,0,0,1,3.019-1.577C2629.137,962.719,2629.106,962.057,2629.114,961.419Z" transform="translate(-2325.782 -315.839)" fill="#e47ea2"/>
      <path id="Trazado_1005176" data-name="Trazado 1005176" d="M2726.052,1073.754a4.465,4.465,0,0,1,2.846.552q.1.058.189.12c.062.041.123.084.183.129s.118.091.176.138.114.1.169.146.109.1.162.154.1.107.154.162.1.112.146.169.093.117.137.176.087.121.129.183.081.125.119.189.075.129.11.194.069.132.1.2.062.135.091.2.055.139.08.209.049.141.07.212.041.143.059.215a4.3,4.3,0,0,1-.57,3.268,4.379,4.379,0,0,1-2.955,1.89,4.822,4.822,0,0,1-2.969-.556,4.389,4.389,0,0,1-1.977-2.7q-.025-.1-.045-.2c-.013-.069-.025-.137-.035-.207s-.018-.138-.025-.208-.011-.139-.014-.209,0-.14,0-.209,0-.14.006-.21.01-.139.017-.209.016-.139.027-.208.023-.138.037-.206.03-.137.047-.2.037-.135.057-.2.043-.133.068-.2.05-.131.077-.195.056-.128.086-.191.062-.125.1-.187.069-.122.105-.181A4.617,4.617,0,0,1,2726.052,1073.754Z" transform="translate(-2422.772 -423.797)" fill="#151413"/>
      <path id="Trazado_1005177" data-name="Trazado 1005177" d="M2746.024,1094.3a4,4,0,0,1,2.2.611c.05.033.1.067.147.1s.1.072.141.109.092.077.136.117.087.081.13.123.083.085.123.13.079.089.116.136.074.094.109.142.069.1.1.147.064.1.094.152.059.1.087.156.053.106.078.161.048.109.07.165.042.111.062.168.037.114.052.171.031.115.044.173.025.117.035.175a3.411,3.411,0,0,1-.57,2.628,3.7,3.7,0,0,1-2.662,1.437q-.154.005-.307,0c-.1,0-.2-.013-.306-.026s-.2-.03-.3-.051-.2-.046-.3-.074-.2-.062-.292-.1-.19-.077-.282-.121-.184-.092-.272-.143-.175-.106-.26-.165q-.073-.05-.143-.1t-.138-.111c-.045-.038-.089-.078-.132-.118s-.085-.082-.126-.125-.081-.087-.119-.131-.076-.09-.112-.137-.071-.094-.1-.143-.066-.1-.1-.148-.061-.1-.09-.153-.056-.1-.082-.157-.05-.107-.074-.161-.045-.109-.065-.165-.039-.111-.057-.168-.034-.113-.048-.171-.028-.115-.04-.173-.021-.116-.03-.175-.013-.111-.018-.167-.008-.112-.01-.168,0-.112,0-.168,0-.112.007-.168.009-.112.015-.167.014-.111.024-.167.02-.11.031-.165.025-.109.04-.163.03-.108.047-.161.036-.106.056-.159.041-.1.063-.156.046-.1.071-.152.051-.1.078-.149.056-.1.085-.145.061-.094.093-.141.065-.091.1-.136A3.838,3.838,0,0,1,2746.024,1094.3Z" transform="translate(-2442.318 -443.578)" fill="#fefefe"/>
      <path id="Trazado_1005178" data-name="Trazado 1005178" d="M1512.344,632.956a16.436,16.436,0,0,1,4.86.2,19.813,19.813,0,0,1,12.789,8.284q.135.194.266.392t.256.4q.125.2.246.4t.236.41q.116.206.226.416t.216.421q.105.212.206.426t.2.431q.095.217.185.436t.174.44q.084.221.163.445t.152.448q.073.225.141.452t.13.455q.062.228.119.458t.108.461q.051.231.1.464t.085.466q.04.233.074.468t.063.469q.029.235.051.471t.04.472q.017.236.028.473t.017.473q.005.237.005.473t-.006.474q-.006.237-.018.473t-.03.473q-.017.236-.041.472t-.053.47q-.029.235-.064.469t-.075.467a19.624,19.624,0,0,1-9.729,13.986,21.654,21.654,0,0,1-2.194,1.088,12.453,12.453,0,0,0-2.228,1c-1.038.732-2.168.5-3.381.468q-1.872-.033-3.745-.005a13.667,13.667,0,0,1-2.6-.081c-.625-.118-.944-.546-1.475-.822-.627-.327-1.336-.538-1.983-.837a21.785,21.785,0,0,1-4.658-2.926,19.35,19.35,0,0,1-6.89-13.332q-.02-.246-.035-.492t-.022-.492q-.008-.246-.01-.493t0-.493q0-.247.014-.493t.026-.492q.016-.246.038-.492t.05-.491q.028-.245.062-.489t.074-.488q.04-.243.086-.486t.1-.483q.052-.241.109-.481t.121-.478q.063-.238.132-.475t.144-.471q.075-.235.156-.468t.167-.464q.086-.231.178-.46t.19-.455q.1-.226.2-.45t.212-.445q.109-.221.223-.44t.233-.435q.119-.216.244-.429t.254-.422q.13-.21.264-.416t.274-.41q.14-.2.285-.4t.294-.4q.15-.2.3-.388t.313-.381A19.828,19.828,0,0,1,1512.344,632.956Z" transform="translate(-1242.188 0)" fill="#151413"/>
      <path id="Trazado_1005179" data-name="Trazado 1005179" d="M2091.92,1067.93c2.4,1.324,4.764,2.7,7.143,4.061l-.192.757c-.57-.154-6.7-3.719-7.122-4.077A1.715,1.715,0,0,1,2091.92,1067.93Z" transform="translate(-1816.559 -418.229)" fill="#f8b755"/>
      <path id="Trazado_1005180" data-name="Trazado 1005180" d="M1728.976,1072.09a1.59,1.59,0,0,1,.418.705c-.98.493-1.927,1.087-2.882,1.629q-2.087,1.176-4.2,2.31l-.087-.031a1.391,1.391,0,0,1-.273-.679C1724.2,1074.586,1726.662,1073.428,1728.976,1072.09Z" transform="translate(-1461.09 -422.228)" fill="#f8b755"/>
      <path id="Trazado_1005181" data-name="Trazado 1005181" d="M2273.371,1160.37l.068.1a6.394,6.394,0,0,1-.337,1.342c.335.443.778.777,1.1,1.235a1.414,1.414,0,0,0-.256.193,2.006,2.006,0,0,0-.275,1.553c-.429-.313-.836-.64-1.24-.986l-.172-.1a7.265,7.265,0,0,0-1.656.5,12.491,12.491,0,0,0,1.109-3.261C2272.273,1160.773,2272.826,1160.589,2273.371,1160.37Z" transform="translate(-1988.494 -507.089)" fill="#257f9e"/>
      <path id="Trazado_1005182" data-name="Trazado 1005182" d="M1866.9,1609.717c3.166-.118,6.621-.016,9.81.016l-.034.025a.67.67,0,0,1,.278.026,1.627,1.627,0,0,1-.257.641,1.877,1.877,0,0,1-.293.132c-.548.178-7.324.128-8.36.06a1.606,1.606,0,0,1-.673-.145A1,1,0,0,1,1866.9,1609.717Z" transform="translate(-1600.422 -938.982)" fill="#6cc6d8"/>
      <path id="Trazado_1005183" data-name="Trazado 1005183" d="M1622.173,1156.56a7.087,7.087,0,0,0,1.757.652c.382,1.159.857,2.272,1.331,3.4-.379-.131-.773-.23-1.159-.34-.222.09-.44.193-.658.292l-1.178.724a13.04,13.04,0,0,1-.065-1.542,9.714,9.714,0,0,0-1.3-.273,4.81,4.81,0,0,1,1.559-1.083C1622.353,1157.781,1622.227,1157.174,1622.173,1156.56Z" transform="translate(-1363.954 -503.427)" fill="#257f9e"/>
      <path id="Trazado_1005184" data-name="Trazado 1005184" d="M1898.41,1517.81l7.638.012c.006.908.041,1.828-.017,2.734-2.534.062-5.077.006-7.611-.022Z" transform="translate(-1630.712 -850.687)" fill="#6cc6d8"/>
      <path id="Trazado_1005185" data-name="Trazado 1005185" d="M1979.7,1145.62a1.384,1.384,0,0,1,.595.059,7.373,7.373,0,0,1,.549,2.855c.188,2.408.086,4.876.076,7.292a26.306,26.306,0,0,1-.017,3.141c-.156.164-.182.135-.412.149l-1.278-.012.01-5.836A39.928,39.928,0,0,1,1979.7,1145.62Z" transform="translate(-1708.388 -492.906)" fill="#f8b755"/>
      <path id="Trazado_1005186" data-name="Trazado 1005186" d="M1929.348,978.712a3.256,3.256,0,0,1,1.809.386,3,3,0,0,1,1.442,1.837,2.8,2.8,0,0,1-.421,2.195,2.915,2.915,0,0,1-1.974,1.241,2.975,2.975,0,0,1-1.775-.328q-.066-.036-.129-.075c-.042-.026-.084-.053-.125-.082s-.081-.058-.121-.088-.078-.062-.116-.094-.075-.065-.112-.1-.072-.069-.106-.1-.068-.073-.1-.11-.064-.076-.1-.115-.061-.079-.089-.12-.057-.082-.083-.124-.052-.085-.077-.128-.048-.087-.07-.132-.043-.09-.064-.135-.039-.092-.057-.138-.034-.094-.05-.141-.03-.1-.043-.143-.023-.087-.033-.13-.019-.088-.026-.132-.014-.089-.02-.133-.01-.089-.013-.134,0-.09-.006-.135,0-.09,0-.135,0-.09.008-.135.008-.089.014-.134.013-.089.021-.133.018-.088.028-.132.022-.087.035-.13.027-.086.041-.128.031-.084.048-.126.035-.083.054-.123.039-.081.06-.12.043-.079.066-.117A3.117,3.117,0,0,1,1929.348,978.712Z" transform="translate(-1658.092 -332.463)" fill="#6cc6d8"/>
      <path id="Trazado_1005187" data-name="Trazado 1005187" d="M1983.335,1003.3a1.215,1.215,0,0,1,.465.558,3.548,3.548,0,0,1,.157,2.492c-.135.28-.348.331-.622.418a1.507,1.507,0,0,1-.673-1.016A3.467,3.467,0,0,1,1983.335,1003.3Z" transform="translate(-1711.667 -356.102)" fill="#311613"/>
      <path id="Trazado_1005188" data-name="Trazado 1005188" d="M1534.141,657.265a10.647,10.647,0,0,1,1.63-.07q.335,0,.67.013t.669.037q.334.025.667.061t.664.086q.331.049.661.109t.656.134q.327.073.651.157t.645.181q.321.1.638.2t.63.227q.313.119.622.25t.612.272q.3.142.6.294t.591.316q.293.163.579.337t.567.357a19.2,19.2,0,0,1,8.21,12q.044.231.083.463t.072.465q.033.233.061.467t.049.468q.022.234.038.469t.027.47q.011.235.015.47t0,.47q0,.235-.007.47t-.018.47q-.012.235-.03.469t-.041.469q-.023.234-.052.467t-.063.466q-.034.233-.075.465t-.086.462q-.045.231-.1.46t-.108.458q-.057.228-.119.455t-.13.452q-.068.225-.141.449t-.151.445q-.079.222-.162.442t-.172.438q-.089.218-.183.433t-.193.429q-.1.213-.2.424t-.214.419q-.109.208-.224.414t-.234.408q-.119.2-.243.4t-.253.4a19.216,19.216,0,0,1-7.605,6.5,8.4,8.4,0,0,1-1.961.807c-.2-.158-.075-.486-.263-.7a4.12,4.12,0,0,0-1.216-.056,9.521,9.521,0,0,1,.049-2.483c.048-.113.333-.151.452-.186a.575.575,0,0,0,.18-.391.506.506,0,0,0-.148-.289c-.528-.483-2.535-.237-3.285-.222q-.056-3.133-.038-6.267c.007-1.5.089-3.046-.053-4.542a22.329,22.329,0,0,0-.516-2.83,3.535,3.535,0,0,0,1.982-1.389c2.37,1.472,4.874,2.85,7.341,4.153a10.865,10.865,0,0,0-.8,2.256c0,.2.028.222.167.345a4.958,4.958,0,0,0,2.144-.437,11.974,11.974,0,0,0,2.08,1.161,6.108,6.108,0,0,0,.2-1.8c.453-.174.9-.194,1.228-.6.007-.15.021-.2-.079-.321-.323-.405-1.182-.992-1.674-1.565a6.254,6.254,0,0,0,.64-1.661.488.488,0,0,0-.127-.451c-.562-.184-2.173.653-2.8.9q-2.348-1.438-4.735-2.809a28.792,28.792,0,0,0-2.816-1.546,4.492,4.492,0,0,0-2.276-3.054,4.435,4.435,0,0,0-.6-.212,3.535,3.535,0,0,0-2.8.4,4.372,4.372,0,0,0-1.915,3,55.044,55.044,0,0,0-5.639,3.021c-.7.4-1.4.833-2.142,1.164a12.549,12.549,0,0,0-2.346-.95c-.208,0-.226.039-.356.183a3.913,3.913,0,0,0,.285,1.9c-.413.506-1.654,1.416-1.727,1.894.275.461,1.091.579,1.583.718a4.479,4.479,0,0,0,.151,1.607.478.478,0,0,0,.357.312,6.232,6.232,0,0,0,1.93-1.1,6.591,6.591,0,0,0,1.891.5.474.474,0,0,0,.4-.181c.108-.5-.68-2.145-.871-2.714,2.578-1.137,4.966-2.73,7.5-3.974a3.76,3.76,0,0,0,1.617,1.208,30.233,30.233,0,0,0-.523,7.5l-.008,6.161a13.613,13.613,0,0,0-3.405.132.617.617,0,0,0-.4.429c.043.212.031.24.191.379a1.563,1.563,0,0,1,.464.105,11.125,11.125,0,0,1,.063,2.58,3.55,3.55,0,0,0-.93,0,.621.621,0,0,0-.436.326c-.09.158-.019.093-.175.179-1.637-.308-4.2-2.05-5.534-3.091a18.514,18.514,0,0,1-6.794-12.4,18.958,18.958,0,0,1,16.972-20.972Z" transform="translate(-1264.116 -23.4)" fill="#fefefe"/>
      <path id="Trazado_1005189" data-name="Trazado 1005189" d="M1906.5,757.668a3.838,3.838,0,0,1,2.261.405,3.709,3.709,0,0,1,1.772,2.346q.021.088.038.176t.03.178q.013.089.021.179t.012.18q0,.09,0,.18t0,.181c0,.06-.008.12-.014.18s-.014.12-.022.179-.019.119-.031.178-.025.118-.04.176-.031.116-.048.174-.036.115-.057.171-.042.113-.065.169-.047.111-.073.165-.053.108-.081.162-.058.106-.089.157a3.59,3.59,0,0,1-2.435,1.617,4.054,4.054,0,0,1-2.559-.393,3.38,3.38,0,0,1-1.675-2.149,3.685,3.685,0,0,1,3.055-4.612Z" transform="translate(-1635.438 -119.96)" fill="#151413"/>
      <path id="Trazado_1005190" data-name="Trazado 1005190" d="M1927.006,779.391a3.03,3.03,0,0,1,1.583.259q.065.032.128.068t.125.075q.061.039.12.081c.04.028.078.057.116.087s.075.061.111.093.072.065.107.1.069.068.1.1.065.072.1.109.061.075.09.114.057.078.084.118.053.081.078.122.049.083.072.126.044.086.065.13.04.088.058.133.036.09.052.136.031.092.044.138a2.869,2.869,0,0,1-.2,2.164,2.915,2.915,0,0,1-2.028,1.372,3.23,3.23,0,0,1-1.865-.3q-.059-.03-.117-.063c-.038-.022-.076-.045-.114-.07s-.074-.049-.109-.075-.071-.053-.106-.081-.068-.057-.1-.086-.065-.06-.1-.091-.062-.063-.092-.1-.059-.066-.087-.1-.055-.069-.081-.105-.052-.072-.076-.109-.048-.075-.07-.113-.044-.077-.064-.117-.04-.079-.058-.12-.035-.081-.052-.123-.031-.083-.045-.125-.027-.084-.039-.127-.025-.093-.036-.14-.021-.094-.029-.142-.016-.1-.022-.143-.011-.1-.014-.144-.006-.1-.007-.144,0-.1,0-.145,0-.1.007-.144.009-.1.015-.144.013-.1.022-.143.018-.095.029-.142.023-.094.036-.14.028-.092.043-.138.032-.091.05-.136.037-.089.057-.133.042-.087.064-.13.046-.085.071-.127A3.138,3.138,0,0,1,1927.006,779.391Z" transform="translate(-1655.82 -140.856)" fill="#f8b755"/>
      <path id="Trazado_1005191" data-name="Trazado 1005191" d="M220.936,1487.045c4.443-.52,10.061,1.447,13.563,4.185a20.449,20.449,0,0,1,7.785,14.072q.025.233.045.467t.034.468q.014.234.022.469t.011.469q0,.234,0,.469t-.012.469q-.009.234-.024.468t-.035.468q-.02.233-.046.467t-.058.465q-.032.233-.069.464t-.08.462q-.043.23-.092.46t-.1.458q-.054.228-.114.455t-.125.452q-.065.225-.136.449t-.147.445q-.076.222-.158.442t-.169.438q-.087.218-.179.433t-.19.429q-.1.213-.2.424t-.211.419q-.108.208-.221.414t-.231.408q-.118.2-.241.4t-.25.4q-.127.2-.26.39t-.269.384q-.137.19-.279.377t-.288.37a20.594,20.594,0,0,1-9.817,6.743,26.342,26.342,0,0,1-4.778.92,21.058,21.058,0,0,1-14.413-4.652,20.43,20.43,0,0,1-7.133-13.673q-.02-.246-.034-.491t-.021-.492q-.008-.246-.009-.492t0-.493q0-.246.015-.492t.027-.492q.017-.246.039-.491t.051-.49q.029-.244.063-.489t.075-.487q.041-.243.087-.485t.1-.482q.053-.241.111-.48t.123-.477q.064-.238.134-.474t.146-.47q.076-.234.158-.466t.169-.463q.087-.23.18-.458t.192-.454q.1-.226.2-.449t.214-.444q.11-.22.225-.438t.235-.433q.12-.215.246-.427t.256-.42q.131-.209.267-.414t.277-.407q.141-.2.287-.4t.3-.393q.151-.195.306-.386t.316-.378A19.994,19.994,0,0,1,220.936,1487.045Z" transform="translate(0 -821.033)" fill="#151413"/>
      <path id="Trazado_1005192" data-name="Trazado 1005192" d="M658.24,2192.281a8.284,8.284,0,0,0,5.294,0c0,.563.163,1.758-.206,2.179a5.829,5.829,0,0,1-2.223.709,3.876,3.876,0,0,1-2.945-1.071C658.164,2193.487,658.19,2192.888,658.24,2192.281Z" transform="translate(-438.492 -1499.037)" fill="#f9e0df"/>
      <path id="Trazado_1005193" data-name="Trazado 1005193" d="M519.427,1662.77c1.892-.363,3.647.565,5.439.941a11.44,11.44,0,0,0,2.5.159c.042.8-.2,3.1.309,3.643.324.348.821.57,1.049,1,.485.913.288,3.265-.033,4.246-.256.782-.654.986-1.347,1.338a7.879,7.879,0,0,0-.191-2.993c-.164-.321-.491-.222-.764-.1-2.214.991-4.022,1.5-6.42.76a7.515,7.515,0,0,1-2.843-1.718c-.414-.405-1.159-1.426-1.63-1.627a.74.74,0,0,0-.689.007.369.369,0,0,0-.184.259c-.214.838-.148,1.754-.359,2.6-.227.906-.671,1.73-.861,2.651a8.769,8.769,0,0,1-.889-2.193c-.311-1.135-.657-2.928-.015-3.995a2.233,2.233,0,0,1,1.592-1,6.9,6.9,0,0,1,1.031-2.1A6.245,6.245,0,0,1,519.427,1662.77Z" transform="translate(-298.128 -989.955)" fill="#f8b755"/>
      <path id="Trazado_1005194" data-name="Trazado 1005194" d="M513.1,1840.73a10.481,10.481,0,0,1,1.007,1.047,8.293,8.293,0,0,0,2.738,1.826c2.539,1.067,4.82.58,7.274-.413a19.231,19.231,0,0,0,.065,2.755.709.709,0,0,0,.314.537,9.659,9.659,0,0,0,1.266-.548.909.909,0,0,1,.794.009.725.725,0,0,1,.2.58,2.338,2.338,0,0,1-.845,1.8c-.327-.052-.661-.07-.991-.1a8.889,8.889,0,0,1-2.436,3.912,6.67,6.67,0,0,1-2.226,1.364,6.542,6.542,0,0,1-4.838-.3,7.87,7.87,0,0,1-4.022-5.016,6.785,6.785,0,0,1-.75-.1,1.475,1.475,0,0,1-.889-.791,2.035,2.035,0,0,1,.319-1.468c.717-.356,1,.951,1.629,1.073a.807.807,0,0,0,.181-.122c.36-.354.141-1.384.2-1.86a11.423,11.423,0,0,1,.6-1.934A9.372,9.372,0,0,0,513.1,1840.73Z" transform="translate(-295.829 -1161.102)" fill="#f9e0df"/>
      <path id="Trazado_1005195" data-name="Trazado 1005195" d="M648.355,1970.34a.947.947,0,0,1,.591.253.526.526,0,0,1,.12.488c-.078.312-.3.438-.564.582a1.109,1.109,0,0,1-.6-.368.46.46,0,0,1-.079-.337C647.873,1970.64,648.107,1970.5,648.355,1970.34Z" transform="translate(-428.546 -1285.693)" fill="#151413"/>
      <path id="Trazado_1005196" data-name="Trazado 1005196" d="M770.31,1966.07a1.1,1.1,0,0,1,.695.368.527.527,0,0,1,.092.474.964.964,0,0,1-.463.509,1.043,1.043,0,0,1-.754-.261.6.6,0,0,1-.1-.343C769.809,1966.469,770.059,1966.276,770.31,1966.07Z" transform="translate(-545.792 -1281.588)" fill="#151413"/>
      <path id="Trazado_1005197" data-name="Trazado 1005197" d="M679.422,2086.6c.382.012.8.409,1.153.57.742.335,1.269-.224,1.958-.415a.445.445,0,0,1,.436.061c.077.278-.056.454-.186.693a2.644,2.644,0,0,1-1,.526,3.2,3.2,0,0,1-2.275-.267.674.674,0,0,1-.335-.523A.905.905,0,0,1,679.422,2086.6Z" transform="translate(-458.69 -1397.45)" fill="#151413"/>
      <path id="Trazado_1005198" data-name="Trazado 1005198" d="M417.3,2252.265a.664.664,0,0,1,.393.031,5.345,5.345,0,0,1,.462.435,4.508,4.508,0,0,0,2.266,1.086,4.723,4.723,0,0,0,2.949-.483c.3-.194.546-.463.825-.682a1.63,1.63,0,0,1,1.315-.288,12.324,12.324,0,0,1,7.771,4.921,19.444,19.444,0,0,1-7.6,3.825,21.176,21.176,0,0,1-4.035.6,18.913,18.913,0,0,1-12.9-4.394l.076-.1A12.981,12.981,0,0,1,417.3,2252.265Z" transform="translate(-198.732 -1556.687)" fill="#6cc6d8"/>
      <path id="Trazado_1005199" data-name="Trazado 1005199" d="M245.553,1512.5a13.016,13.016,0,0,1,2.967.017,19.333,19.333,0,0,1,17.694,21.026,18.714,18.714,0,0,1-6.1,11.991,3.863,3.863,0,0,0-.259-.4,13.358,13.358,0,0,0-9.089-5.066l-.025-1.706a10.18,10.18,0,0,0,3.856-4.641,2.744,2.744,0,0,0,1.519-1,2.713,2.713,0,0,0,.489-1.961,1.73,1.73,0,0,0-.73-1.225,8.329,8.329,0,0,0,.628-5.124,2.739,2.739,0,0,0-1.476-2.026,19.276,19.276,0,0,0-.095-3.7.412.412,0,0,0-.295-.176c-.818-.153-1.736.042-2.587-.094-1.138-.182-2.189-.693-3.316-.936a9.126,9.126,0,0,0-5.448.577,5.739,5.739,0,0,0-3.087,3.252,3.686,3.686,0,0,0-1.85,1.588c-.976,1.882-.084,4.537.508,6.424a2.067,2.067,0,0,0-.717.769,2.267,2.267,0,0,0-.194,1.825,2.987,2.987,0,0,0,1.8,1.669,8.711,8.711,0,0,0,3.939,4.7,15.71,15.71,0,0,1-.121,1.661c-3.795.859-7.2,2.191-9.449,5.581a18.718,18.718,0,0,1-6.176-12.241q-.023-.229-.041-.459t-.03-.46q-.012-.23-.019-.461t-.007-.461q0-.231,0-.461t.016-.461q.011-.23.027-.46t.038-.46q.022-.229.05-.458t.061-.457q.033-.228.072-.455t.084-.453q.045-.226.095-.451t.106-.449q.056-.224.117-.446t.128-.443q.067-.221.139-.44t.15-.436q.077-.217.16-.432t.171-.428q.088-.213.181-.424t.192-.419q.1-.208.2-.414t.212-.409q.109-.2.222-.4t.232-.4q.119-.2.242-.392t.252-.386q.128-.192.261-.38t.271-.374q.138-.185.28-.367t.289-.36A19.289,19.289,0,0,1,245.553,1512.5Z" transform="translate(-24.843 -845.51)" fill="#fefefe"/>
      <path id="Trazado_1005200" data-name="Trazado 1005200" d="M2763.725,1482.574l.061-.009c4.755-.564,10.4,1.436,14.079,4.336q.2.158.395.32t.386.33q.191.167.378.339t.37.348q.182.177.361.357t.352.366q.174.185.343.375t.333.383q.164.194.324.391t.314.4q.155.2.3.407t.294.414q.145.209.284.421t.274.428q.134.216.263.434t.252.441q.123.222.241.447t.23.453q.112.228.219.458t.208.464q.1.233.2.469t.185.473q.089.238.173.478t.161.482q.077.242.149.485t.137.489q.065.245.125.492t.113.5q.053.248.1.5t.088.5q.041.251.076.5t.063.5q.029.241.053.483t.041.484q.018.242.029.485t.017.485q.005.243,0,.486c0,.162,0,.324-.007.486s-.011.324-.019.485-.019.323-.031.485-.026.323-.043.484-.035.322-.055.483-.043.321-.067.481-.051.32-.079.479-.058.318-.09.477-.066.317-.1.475-.074.315-.114.472-.082.313-.125.469-.089.311-.137.466-.1.309-.149.463-.1.307-.16.459-.112.3-.171.455-.12.3-.182.45-.127.3-.194.446-.134.295-.2.441-.142.291-.215.436-.149.288-.226.43-.156.284-.236.425-.163.28-.247.418-.17.276-.257.412-.177.271-.267.406-.183.267-.277.4-.19.263-.287.392-.2.258-.3.385a20.7,20.7,0,0,1-14.41,7.523,21.561,21.561,0,0,1-14.889-4.667q-.189-.154-.375-.312t-.366-.322c-.121-.109-.24-.219-.359-.331s-.235-.225-.351-.34-.229-.23-.342-.348-.224-.236-.333-.356-.218-.242-.324-.365-.212-.247-.315-.372-.206-.252-.306-.38-.2-.257-.3-.388-.193-.262-.287-.395-.186-.267-.277-.4-.179-.271-.267-.408-.173-.276-.256-.415-.166-.28-.246-.421-.159-.284-.236-.427-.152-.287-.225-.433-.145-.291-.214-.438-.137-.295-.2-.444-.13-.3-.192-.448-.122-.3-.181-.453-.115-.3-.17-.458-.107-.307-.158-.461-.1-.309-.147-.465-.092-.312-.135-.469-.084-.314-.124-.472-.077-.316-.112-.475-.069-.318-.1-.478-.061-.319-.088-.48-.053-.321-.076-.482-.045-.322-.064-.484-.037-.323-.053-.485-.03-.328-.042-.492-.021-.328-.03-.492-.013-.329-.017-.493-.005-.329-.005-.493,0-.329.007-.493.01-.329.019-.493.019-.328.031-.492.027-.328.043-.491.035-.327.056-.49.043-.326.067-.489.051-.325.08-.487.059-.323.092-.484.067-.322.1-.482.075-.32.116-.479.083-.318.127-.476.091-.316.139-.473.1-.314.151-.47.106-.311.162-.466.114-.308.174-.462.121-.305.185-.457.129-.3.2-.453.136-.3.207-.447.144-.3.219-.442.151-.292.229-.437.158-.288.24-.431.165-.284.25-.425.172-.28.261-.418.179-.276.271-.412.186-.271.281-.405.192-.266.291-.4.2-.262.3-.391.206-.257.311-.383.22-.264.333-.394.227-.258.343-.386.233-.253.352-.377.24-.247.361-.368.246-.241.37-.359.251-.235.379-.35.257-.229.388-.34.262-.222.4-.331.268-.215.4-.321.273-.209.412-.311.278-.2.42-.3.283-.2.427-.29.288-.188.434-.279.292-.181.44-.268.3-.174.447-.258.3-.166.453-.246.305-.159.459-.235.309-.151.465-.224.312-.143.47-.212.316-.136.475-.2.319-.128.48-.189.322-.12.485-.177.325-.112.489-.165.328-.1.493-.153.33-.1.5-.14.333-.087.5-.128.335-.079.5-.115.336-.071.505-.1.338-.062.508-.091.34-.054.51-.078.341-.046.512-.065S2763.554,1482.59,2763.725,1482.574Z" transform="translate(-2444.415 -816.716)" fill="#151413"/>
      <path id="Trazado_1005201" data-name="Trazado 1005201" d="M3479.977,1969.28a1.468,1.468,0,0,1,.827.347,1.19,1.19,0,0,1,.164.184c.024.033.046.068.066.1a1.22,1.22,0,0,1,.055.11,1.132,1.132,0,0,1,.043.116,1.187,1.187,0,0,1,.03.119,1.137,1.137,0,0,1,.017.122,1.154,1.154,0,0,1,0,.123,1.322,1.322,0,0,1-.525,1.023,3.976,3.976,0,0,1-.9.354C3479.878,1971.017,3479.855,1970.145,3479.977,1969.28Z" transform="translate(-3150.824 -1284.674)" fill="#fefefe"/>
      <path id="Trazado_1005202" data-name="Trazado 1005202" d="M3030.785,1971.35c.474.461.333,1.885.424,2.549a3.155,3.155,0,0,1-1.212-.115,1.559,1.559,0,0,1-.7-1.046,1.088,1.088,0,0,1,.228-.822A1.651,1.651,0,0,1,3030.785,1971.35Z" transform="translate(-2717.799 -1286.664)" fill="#fefefe"/>
      <path id="Trazado_1005203" data-name="Trazado 1005203" d="M3181.121,2253.738a4.155,4.155,0,0,1-.982,1.595,4.073,4.073,0,0,1-2.887,1.013,4.663,4.663,0,0,1-3.294-1.333c-.369-.381-.935-1.042-.852-1.616.033-.228.146-.26.317-.385l.07.017a8.883,8.883,0,0,1,1.512.752,5.3,5.3,0,0,0,5.15.158c.082-.044.162-.092.243-.137A.818.818,0,0,1,3181.121,2253.738Z" transform="translate(-2856.036 -1557.418)" fill="#f7dcbf"/>
      <path id="Trazado_1005204" data-name="Trazado 1005204" d="M3182.651,2210.983a6.109,6.109,0,0,0,5.38-.076,3.422,3.422,0,0,0,.165.872c.177.4,1.06.875,1.1,1.167a1.513,1.513,0,0,1-.089.317.815.815,0,0,0-.723.064c-.081.046-.161.093-.243.137a5.3,5.3,0,0,1-5.15-.158,8.846,8.846,0,0,0-1.511-.752l-.07-.017A3.707,3.707,0,0,0,3182.651,2210.983Z" transform="translate(-2864.121 -1516.944)" fill="#e1a986"/>
      <path id="Trazado_1005205" data-name="Trazado 1005205" d="M2940.77,2285.71l.042-.081c1.227-2.226,2.924-3.048,5.28-3.705.478,1.6,1.784,6.533,2.565,7.655l-.063.2A20.447,20.447,0,0,1,2940.77,2285.71Z" transform="translate(-2632.706 -1585.211)" fill="#6bcdbc"/>
      <path id="Trazado_1005206" data-name="Trazado 1005206" d="M2951.744,2049.6c.023.016.047.032.071.047a2.662,2.662,0,0,0,2.128.2,11.448,11.448,0,0,0,4.123,5.651,4.47,4.47,0,0,1-.239.612c-.465.9-1.784,1.161-2.668,1.4a11.483,11.483,0,0,1-1.411.177,6.537,6.537,0,0,1-5-1.873c.064-.041.129-.082.192-.125C2950.884,2054.327,2951.375,2051.79,2951.744,2049.6Z" transform="translate(-2640.371 -1361.884)" fill="#ef805e"/>
      <path id="Trazado_1005207" data-name="Trazado 1005207" d="M3375.791,2039.08a4.181,4.181,0,0,1,.319,1.144,10.117,10.117,0,0,0,3.55,5.749,16.952,16.952,0,0,1-5.75,1.551,7.011,7.011,0,0,1-.99-.145c-.813-.184-2.448-.491-2.883-1.255a.871.871,0,0,1,.059-.934,7.038,7.038,0,0,1,1.268-1.127,8.869,8.869,0,0,0,2.71-4.367A2.316,2.316,0,0,0,3375.791,2039.08Z" transform="translate(-3045.245 -1351.771)" fill="#ef805e"/>
      <path id="Trazado_1005208" data-name="Trazado 1005208" d="M3113.573,2265.79l1.794.448-.989,4.205a18.612,18.612,0,0,0-.552,2.46.927.927,0,0,0,.081.588c.066.107.063.071.207.091a.712.712,0,0,0,.449-.429c.143-.39.18-.849.288-1.257.478-1.811.844-3.649,1.317-5.46,1.682.435,4.031.989,4.984,2.617a1.414,1.414,0,0,1,.164,1.157c-.285.72-3.351,2.421-4.058,2.77a17.162,17.162,0,0,1-2.01.836,20.855,20.855,0,0,1-11.855.457l.063-.2c.181-.119.336-.2.422-.407a11.787,11.787,0,0,0-.723-2.775c-.466-1.518-.97-3.029-1.35-4.571.64-.153,1.287-.294,1.915-.49a4.846,4.846,0,0,0,2.4,3.073,5.783,5.783,0,0,0,4.291.384q.11-.033.219-.072c.073-.026.144-.053.215-.083s.141-.06.21-.093.138-.068.205-.1.134-.074.2-.114.13-.081.194-.124.126-.088.187-.134.121-.094.18-.143.116-.1.173-.153.111-.106.164-.161.105-.111.156-.169.1-.117.147-.177.094-.122.138-.184.087-.126.129-.191.08-.13.118-.2.074-.134.108-.2A6.423,6.423,0,0,0,3113.573,2265.79Z" transform="translate(-2787.503 -1569.701)" fill="#6cc6d8"/>
      <path id="Trazado_1005209" data-name="Trazado 1005209" d="M3046.407,1694.3a7.857,7.857,0,0,1,4.243.641,9.664,9.664,0,0,1,5.022,5.758c.243.677.968,3.187.7,3.77-.419-.236-.4-.3-.91-.3-.113-.225-.13-.355-.365-.484a5.575,5.575,0,0,0-1.465-.3,9.067,9.067,0,0,1-2.577-.953,10.411,10.411,0,0,1-2.95-2.663,1.355,1.355,0,0,0-.241-.226c-.554.073-1.4,1.3-1.874,1.695a7.264,7.264,0,0,1-1.1.721,12,12,0,0,1-3.857,1.4,9.73,9.73,0,0,0-1.518.272c-.325.119-.532.418-.863.546a.559.559,0,0,1-.517-.023.593.593,0,0,1-.188-.387,4.476,4.476,0,0,1,.28-1.43,13.023,13.023,0,0,1,2.375-4.953A8.261,8.261,0,0,1,3046.407,1694.3Z" transform="translate(-2726.11 -1020.271)" fill="#ef805e"/>
      <path id="Trazado_1005210" data-name="Trazado 1005210" d="M3100.8,1862.92a11.541,11.541,0,0,0,6.71,3.767c-.323,3.26-.547,5.259-3.094,7.641a5.879,5.879,0,0,1-4.529,1.841,6.837,6.837,0,0,1-3.5-1.632c-2.562-2.191-3.037-4.8-3.287-8A11.991,11.991,0,0,0,3100.8,1862.92Z" transform="translate(-2779.142 -1182.433)" fill="#f7dcbf"/>
      <path id="Trazado_1005211" data-name="Trazado 1005211" d="M3205.024,2083.048c.75-.009,1.285.849,1.942,1.179a2.837,2.837,0,0,0,2.6-.18c.427-.329.617-.752,1.165-.927.187.032.2.025.32.166a.684.684,0,0,1-.09.539,3.254,3.254,0,0,1-1.2,1.084,4.176,4.176,0,0,1-3.208.123,2.591,2.591,0,0,1-1.563-1.266A.828.828,0,0,1,3205.024,2083.048Z" transform="translate(-2886.629 -1394.036)" fill="#151413"/>
      <path id="Trazado_1005212" data-name="Trazado 1005212" d="M2786.561,1510.346q.337-.017.674-.009.237,0,.474.012t.474.024q.236.015.473.036t.472.047c.157.018.314.037.47.059s.313.045.469.071.312.053.467.082.31.061.465.094.309.068.462.105.307.076.46.117.3.083.457.128.3.091.453.139.3.1.449.151.3.106.446.161.3.113.442.172.292.12.438.183.289.128.432.194.286.135.428.2.283.142.422.215.279.149.417.226.275.156.411.236.271.162.405.246.267.169.4.256.263.175.393.266.258.182.386.275.254.188.379.285.249.195.372.294.244.2.365.3.239.207.356.312.234.213.349.321.229.218.341.33.223.224.333.338.225.233.335.351.219.238.326.36.213.244.317.368.207.249.308.375.2.254.3.383.194.259.289.39.188.264.279.4.181.268.269.4.174.273.259.411.167.277.249.417.16.281.238.423.154.285.228.429.146.288.217.434.139.292.206.439.132.3.2.444.125.3.184.449.117.3.173.454.109.3.161.458.1.307.15.462.094.31.139.465.086.312.127.469.079.314.115.472.071.316.1.474.063.318.091.477.055.319.08.479.047.32.068.481.039.321.056.482.031.322.044.483.023.323.032.484.015.323.02.485.007.323.008.485,0,.324,0,.485-.008.3-.015.455-.016.3-.026.455-.023.3-.037.454-.031.3-.049.453-.038.3-.06.452-.045.3-.07.45-.053.3-.082.448-.06.3-.092.446-.067.3-.1.444-.074.294-.114.441-.082.293-.125.438-.089.291-.135.435-.1.288-.146.432-.1.286-.157.428-.11.283-.167.424-.117.281-.177.42-.123.278-.188.415-.13.274-.2.41-.137.271-.208.406-.144.268-.218.4-.15.264-.227.395-.156.26-.237.389-.163.256-.246.383-.169.253-.256.377-.175.248-.265.371-.181.244-.273.364-.187.239-.283.357-.192.235-.291.35-.2.23-.3.343-.2.225-.308.336-.209.22-.316.328-.215.215-.324.32q-.07-.277-.166-.546c-.609-1.657-2.212-2.179-3.646-2.864l-.137-.066a20.282,20.282,0,0,0,4.721-1.606c.131-.1.113-.129.126-.284a.892.892,0,0,0-.051-.359c-.171-.414-1.309-1.221-1.663-1.613q-.205-.228-.392-.472t-.354-.5q-.167-.257-.314-.527t-.272-.55c-2.175-4.824-.238-9.184-4.065-13.845a9.19,9.19,0,0,0-6.4-3.473,11.126,11.126,0,0,0-3.484.306c-3.711.984-6.1,4.244-7.1,7.81-.27.967-.369,1.94-.544,2.924-.116.657-.279,1.31-.361,1.972a18.166,18.166,0,0,1-.547,4.138,6.089,6.089,0,0,1-1.456,2.511c-.342.322-1.163.59-1.354,1-.039.085-.016.084.029.18.518,1.1,2.847,2.152,3.963,2.506a8.938,8.938,0,0,0-3.842,3.373,18.964,18.964,0,0,1-5.967-12.846,19.551,19.551,0,0,1,19.175-20.138Z" transform="translate(-2466.023 -843.502)" fill="#fefefe"/>
      <path id="Trazado_1005213" data-name="Trazado 1005213" d="M1123.56,1865.315a2.33,2.33,0,0,1,1.339.257,2.459,2.459,0,0,1,1.077,1.658c1.778.088,3.578.044,5.358.044l8.757,0,19.8.066a2.362,2.362,0,0,1,.919-1.357,1.87,1.87,0,0,1,.168-.1c.058-.03.117-.057.177-.082a1.9,1.9,0,0,1,.184-.063q.094-.027.19-.044t.193-.025a1.927,1.927,0,0,1,.2-.005q.1,0,.194.015a1.89,1.89,0,0,1,.192.034q.1.022.192.053t.186.072a1.968,1.968,0,0,1,.178.091q.087.049.168.107t.156.124c.05.044.1.09.144.139s.089.1.129.153.078.108.113.165a2.045,2.045,0,0,1,.252,1.519,2.069,2.069,0,0,1-1.119,1.329c1.278,2.168,2.341,4.452,3.524,6.672l7.5,14.148a11.064,11.064,0,0,1,2.969.1c.1.073.158.347.182.469.115.6.215,2.974-.1,3.423a1.993,1.993,0,0,1-.831.113,9.746,9.746,0,0,1-2.112,2.927c-2.668,2.513-6.362,2.936-9.858,2.812q.031.814.046,1.63a21.937,21.937,0,0,1-6.5,16.135c-.168.173-.343.333-.525.491a21.231,21.231,0,0,1-15.766,5.154q-.255-.02-.509-.046t-.508-.059q-.254-.032-.506-.071t-.5-.083q-.252-.045-.5-.1t-.5-.108q-.249-.057-.5-.12t-.494-.132q-.246-.07-.49-.145t-.487-.156q-.243-.081-.483-.168t-.479-.18q-.238-.093-.474-.192t-.469-.2q-.233-.1-.464-.215t-.459-.226q-.228-.116-.453-.237t-.447-.248q-.222-.127-.441-.259t-.434-.27q-.216-.137-.428-.28t-.421-.291q-.209-.148-.413-.3t-.406-.311q-.2-.158-.4-.321t-.39-.33q-.193-.167-.382-.34t-.374-.349q-.185-.177-.365-.358t-.356-.367q-.176-.186-.347-.375t-.338-.384a22.073,22.073,0,0,1-5.006-16.288,30.962,30.962,0,0,1-4.521-.1c-3.641-.5-6.066-2.914-8.177-5.716a1.373,1.373,0,0,1-.753-.264c-.342-.541-.139-2.928-.1-3.675a31.7,31.7,0,0,1,3.722-.015c.419-.881.943-1.739,1.409-2.6q1.446-2.663,2.862-5.343l4.273-8.008c.872-1.641,1.672-3.333,2.638-4.921a2.533,2.533,0,0,1-1.319-1.358,2,2,0,0,1,.054-1.547A2.4,2.4,0,0,1,1123.56,1865.315Z" transform="translate(-871.261 -1184.73)" fill="#151413"/>
      <path id="Trazado_1005214" data-name="Trazado 1005214" d="M1484.435,1888.289a1.7,1.7,0,0,1,.528,0,1.25,1.25,0,0,1,.721.518,1.159,1.159,0,0,1,.061.1,1.1,1.1,0,0,1,.05.109,1.153,1.153,0,0,1,.038.114,1.125,1.125,0,0,1,.025.117q.009.059.012.119a1.134,1.134,0,0,1-.013.24,1.065,1.065,0,0,1-.025.117,1.227,1.227,0,0,1-.657.75,1.978,1.978,0,0,1-.475.045,1.028,1.028,0,0,1-.7-.341,1.1,1.1,0,0,1-.221-.816A1.49,1.49,0,0,1,1484.435,1888.289Z" transform="translate(-1232.126 -1206.801)" fill="#6cc6d8"/>
      <path id="Trazado_1005215" data-name="Trazado 1005215" d="M2464.786,1896.015a1.752,1.752,0,0,1,.775.046,1.337,1.337,0,0,1,.687.713c.014.035.027.071.038.108a1.1,1.1,0,0,1,.027.111c.007.038.012.075.016.114a1.115,1.115,0,0,1,0,.228,1.124,1.124,0,0,1-.019.113,1.019,1.019,0,0,1-.03.11c-.012.036-.026.072-.041.107a1.025,1.025,0,0,1-.649.547,1.471,1.471,0,0,1-1.164-.335.948.948,0,0,1-.294-.749A1.612,1.612,0,0,1,2464.786,1896.015Z" transform="translate(-2174.523 -1214.226)" fill="#6cc6d8"/>
      <path id="Trazado_1005216" data-name="Trazado 1005216" d="M1922.975,2872.6a5.069,5.069,0,0,0,4.266.161,17.914,17.914,0,0,0,.057,1.878c.217.134.45.245.676.362a3.744,3.744,0,0,1-1.09,1.978,3.186,3.186,0,0,1-.907.518,2.665,2.665,0,0,1-2.089-.1,3.787,3.787,0,0,1-1.813-2.3,1.828,1.828,0,0,0,.665-.37C1923.149,2874.269,1922.973,2873.185,1922.975,2872.6Z" transform="translate(-1653.46 -2153.012)" fill="#b09a85"/>
      <path id="Trazado_1005217" data-name="Trazado 1005217" d="M1133.52,2534.63l15.672.016-.8,1.479-.226.482c-4.867-.106-9.755.056-14.624.052Z" transform="translate(-895.443 -1828.13)" fill="#ef805e"/>
      <path id="Trazado_1005218" data-name="Trazado 1005218" d="M2469.37,2534.353c4.959.041,9.922-.094,14.881-.043a17.257,17.257,0,0,1,.027,2.272c-4.579.13-9.171.076-13.752.1Q2469.969,2535.5,2469.37,2534.353Z" transform="translate(-2179.561 -1827.811)" fill="#ef805e"/>
      <path id="Trazado_1005219" data-name="Trazado 1005219" d="M2511.37,2618.249c4.028-.072,8.068.009,12.1,0a10.356,10.356,0,0,1-2.229,2.616c-2.678,1.908-5.536,2.138-8.72,2.134A42.3,42.3,0,0,0,2511.37,2618.249Z" transform="translate(-2219.935 -1908.482)" fill="#6bcdbc"/>
      <path id="Trazado_1005220" data-name="Trazado 1005220" d="M1162.73,2609.74c4.324.093,8.646-.027,12.969.028a37.445,37.445,0,0,0-1.02,3.676l-.236,1.282a33.627,33.627,0,0,1-4.5-.1C1166.824,2614.224,1164.576,2612.135,1162.73,2609.74Z" transform="translate(-923.522 -1900.332)" fill="#6bcdbc"/>
      <path id="Trazado_1005221" data-name="Trazado 1005221" d="M1823.531,2515.723c.267-.019.3.08.435.277,2.137,3.039,5.724,4.475,9.192,5.363a5.5,5.5,0,0,0,.345,1.4,9.158,9.158,0,0,1-4.56,5.735,6.685,6.685,0,0,1-1.1.455,5.324,5.324,0,0,1-4.21-.746,7.67,7.67,0,0,1-3.821-4.583,7.545,7.545,0,0,1,.45-5.818A4.809,4.809,0,0,1,1823.531,2515.723Z" transform="translate(-1554.801 -1809.954)" fill="#b09a85"/>
      <path id="Trazado_1005222" data-name="Trazado 1005222" d="M1970.692,2763.333a1.811,1.811,0,0,1,1.216.182,1.108,1.108,0,0,1,.522.769.575.575,0,0,1-.223.459c-.2.175-.525.107-.77.086-.487.042-1.165.157-1.541-.256a.484.484,0,0,1-.141-.419A1.746,1.746,0,0,1,1970.692,2763.333Z" transform="translate(-1699.295 -2047.956)" fill="#151413"/>
      <path id="Trazado_1005223" data-name="Trazado 1005223" d="M1771.209,2369.013a8.55,8.55,0,0,1,1.3-.024,10.407,10.407,0,0,1,6.831,3.242,9.438,9.438,0,0,1,1.973,6.721,9.736,9.736,0,0,1-3.184,6.451c.344-.673.707-1.339,1.038-2.018a4.421,4.421,0,0,0,.068-3.81c-3.62-1.143-5.461-1.377-8.425-4.136a19.328,19.328,0,0,1-1.555-1.911,20.959,20.959,0,0,0-2.614,1.061,4.973,4.973,0,0,0-2.532,3.409c-.833,2.78.119,5.037,1.426,7.446a7.625,7.625,0,0,1-2.913-5.211,11.627,11.627,0,0,1,2.137-8.263A9.222,9.222,0,0,1,1771.209,2369.013Z" transform="translate(-1500.121 -1668.891)" fill="#4a64a7"/>
      <path id="Trazado_1005224" data-name="Trazado 1005224" d="M1245.045,1981.85a40.388,40.388,0,0,1,2.411,4.541l5.2,9.648c-2.539,1.385-4.441,4.045-6.144,6.326q-2.25-.052-4.5-.057l-7.81-.019c2.412-4.311,4.672-8.712,6.985-13.077C1242.473,1986.788,1243.969,1984.373,1245.045,1981.85Z" transform="translate(-992.227 -1296.757)" fill="#fefefe"/>
      <path id="Trazado_1005225" data-name="Trazado 1005225" d="M2302.143,1975.44a.826.826,0,0,1,.286.329c.475.838.886,1.727,1.329,2.583q1.422,2.754,2.879,5.49l4.09,7.75c.813,1.516,1.714,3,2.45,4.555l-7.167-.016-5.026,0a22.125,22.125,0,0,0-6.142-6.2c.607-1.534,1.461-3.059,2.173-4.553q1.507-3.206,3.131-6.355A34.981,34.981,0,0,1,2302.143,1975.44Z" transform="translate(-2011.792 -1290.595)" fill="#fefefe"/>
      <path id="Trazado_1005226" data-name="Trazado 1005226" d="M1718.742,2939.74c2.1.791,4.556.983,6.218,2.646,1.7,1.7,1.621,3.781,1.615,6.013q-.008,1.8.009,3.6a20.757,20.757,0,0,1-2.443,1.406l.005-7.474h-1.028l-.017,8.015a14.615,14.615,0,0,1-2.868.948,21.28,21.28,0,0,1-11.168-.3c-.658-.2-1.3-.452-1.944-.7l.013-8.023-1,0,.008,7.5a18.735,18.735,0,0,1-2.486-1.451c-.044-2.252-.324-6.425.741-8.382,1.393-2.562,4.2-2.944,6.733-3.689a6.966,6.966,0,0,0,.539,1.207,4.146,4.146,0,0,0,2.565,2,3.693,3.693,0,0,0,2.76-.49A4.125,4.125,0,0,0,1718.742,2939.74Z" transform="translate(-1443.439 -2217.552)" fill="#e47ea2"/>
      <path id="Trazado_1005227" data-name="Trazado 1005227" d="M1537,1940.24l33.933.062.7.964c-2.073,4.085-4.283,8.117-6.164,12.3q-.456,1-.975,1.978a35.171,35.171,0,0,0-5.337-2.37c-5.8-1.719-10.55-.507-15.686,2.289a20.794,20.794,0,0,1-1.154-2.058c-.914-1.671-1.785-3.358-2.67-5.045-1.209-2.3-2.7-4.723-3.722-7.087l.663-.377A1.326,1.326,0,0,1,1537,1940.24Z" transform="translate(-1282.269 -1256.758)" fill="#fefefe"/>
      <path id="Trazado_1005228" data-name="Trazado 1005228" d="M1502.3,2278.23a19.4,19.4,0,0,1,1.943.092,21.308,21.308,0,0,1,14.174,8.132q.156.2.307.4t.3.406q.146.205.287.413t.277.42q.136.212.267.427t.256.434q.126.218.245.439t.234.446q.114.224.223.451t.212.457q.1.23.2.462t.189.466q.092.234.178.471t.166.475q.08.238.154.479t.143.483q.068.242.13.486t.118.489q.057.245.106.492t.094.494q.044.248.082.5t.07.5q.032.25.057.5t.045.5q.019.25.033.5t.02.5q.007.252.008.5t0,.5q-.005.252-.017.5t-.029.5q-.018.251-.042.5t-.054.5a20.433,20.433,0,0,1-7.612,13.8c-.005-2.523.35-6.022-.932-8.232-1.734-2.989-5.358-3.514-8.421-4.326-.033-.606-.026-1.215-.031-1.822a21.446,21.446,0,0,0,4.038-2.271,10.659,10.659,0,0,0,.964-14.57,11.006,11.006,0,0,0-7.5-3.323,11.285,11.285,0,0,0-4.816.8,9.309,9.309,0,0,0-5.041,5.264,11.88,11.88,0,0,0-.234,8.478c1.253,2.975,3.563,4.392,6.43,5.555.028.6.014,1.2.018,1.8-2.561.752-5.578,1.19-7.5,3.195-1.738,1.814-1.859,3.722-1.834,6.1q.017,1.653.051,3.3-.542-.424-1.058-.88-.186-.168-.367-.34t-.359-.349q-.177-.176-.35-.358t-.341-.366q-.168-.185-.332-.375t-.322-.383q-.159-.193-.312-.391t-.3-.4q-.149-.2-.293-.405t-.283-.413q-.139-.208-.272-.419t-.262-.426q-.128-.215-.251-.433t-.24-.439q-.118-.22-.23-.444t-.219-.45q-.106-.226-.207-.455t-.2-.46q-.1-.231-.185-.465t-.173-.469q-.083-.235-.161-.474t-.149-.478q-.072-.239-.138-.481t-.126-.484q-.06-.243-.113-.487t-.1-.49q-.048-.246-.089-.492t-.077-.494q-.035-.248-.065-.5t-.052-.5c-.016-.167-.029-.333-.04-.5s-.021-.333-.028-.5a21.578,21.578,0,0,1,5.766-15.458A19.837,19.837,0,0,1,1502.3,2278.23Z" transform="translate(-1230.942 -1581.66)" fill="#fefefe"/>
    </g>
  </g>
</svg>
