<svg xmlns="http://www.w3.org/2000/svg" width="84" height="84" viewBox="0 0 84 84">
  <g id="Grupo_1180060" data-name="Grupo 1180060" transform="translate(-207.273 -8211)">
    <rect id="Rectángulo_455208" data-name="Rectángulo 455208" width="84" height="84" rx="10" transform="translate(207.273 8211)" fill="#99bfb7"/>
    <g id="Medical_Team" data-name="Medical Team" transform="translate(217.61 8217.286)">
      <path id="Trazado_1003343" data-name="Trazado 1003343" d="M69.227,25.61h4.2a4.618,4.618,0,0,1,4.618,4.618v7.078a6.234,6.234,0,0,1-6.234,6.234H70.784a6.234,6.234,0,0,1-6.234-6.234V30.261a4.618,4.618,0,0,1,4.618-4.618Z" transform="translate(-21.97 -4.666)" fill="#fff"/>
      <path id="Trazado_1003344" data-name="Trazado 1003344" d="M71.536,43.876H70.461A6.9,6.9,0,0,1,63.6,36.983V29.937a5.317,5.317,0,0,1,5.277-5.277H73.1a5.317,5.317,0,0,1,5.277,5.277v7.045a6.9,6.9,0,0,1-6.841,6.894ZM68.9,25.946A3.958,3.958,0,0,0,64.939,29.9v7.078a5.581,5.581,0,0,0,5.521,5.574h1.049a5.581,5.581,0,0,0,5.574-5.574V29.937a3.991,3.991,0,0,0-3.958-3.958Z" transform="translate(-21.647 -4.343)" fill="#302d3d"/>
      <path id="Trazado_1003345" data-name="Trazado 1003345" d="M81.309,74.653c-1.524-8.866-1.484-9.618-2.474-11.445a9.9,9.9,0,0,0-7.817-4.928H65.582a9.05,9.05,0,0,0-2.421.33,9.552,9.552,0,0,0-2.744,1.253,9.123,9.123,0,0,0-4.176,6.208L54.77,74.646Z" transform="translate(-18.641 -15.784)" fill="#49d293"/>
      <path id="Trazado_1003346" data-name="Trazado 1003346" d="M62.613,73.372a2.441,2.441,0,0,1-2.4-2.85l.455-2.639a7.019,7.019,0,0,1,6.755-5.614H72.7a6.544,6.544,0,0,1,3.041.95,6.7,6.7,0,0,1,2.639,2.639,6.531,6.531,0,0,1,.706,2.032l.455,2.639a2.428,2.428,0,0,1-2.395,2.85Z" transform="translate(-20.482 -17.142)" fill="#6cf5cf"/>
      <path id="Trazado_1003347" data-name="Trazado 1003347" d="M80.957,74.966H54.4a.66.66,0,0,1-.66-.772l1.478-8.576A10.232,10.232,0,0,1,65.23,57.26h5.482a10.555,10.555,0,0,1,8.345,5.277c1.049,1.926.983,2.527,2.553,11.65a.66.66,0,0,1-.653.778ZM55.183,73.646H80.172l-1.319-7.811a8.49,8.49,0,0,0-3.892-5.772,8.939,8.939,0,0,0-2.579-1.181,8.51,8.51,0,0,0-2.249-.3h-5.4A9.235,9.235,0,0,0,57.479,63.2c-.93,1.643-.864,2.1-2.3,10.449Z" transform="translate(-18.289 -15.437)" fill="#302d3d"/>
      <path id="Trazado_1003348" data-name="Trazado 1003348" d="M63.259,79.21l-.449,2.566" transform="translate(-21.378 -22.907)" fill="#fff"/>
      <path id="Trazado_1003349" data-name="Trazado 1003349" d="M62.464,82.083a.66.66,0,0,1-.66-.778l.455-2.586a.659.659,0,0,1,1.3.224l-.442,2.566a.66.66,0,0,1-.653.574Z" transform="translate(-21.032 -22.555)" fill="#302d3d"/>
      <path id="Trazado_1003350" data-name="Trazado 1003350" d="M86.477,80.486,85.6,75.42" transform="translate(-29.134 -21.618)" fill="#fff"/>
      <path id="Trazado_1003351" data-name="Trazado 1003351" d="M86.129,80.8a.66.66,0,0,1-.66-.548l-.884-5.066a.669.669,0,0,1,1.319-.224l.884,5.06a.66.66,0,0,1-.66.778Z" transform="translate(-28.785 -21.272)" fill="#302d3d"/>
      <path id="Trazado_1003352" data-name="Trazado 1003352" d="M70.79,58.6l2.691,9.7,2.691-9.7Z" transform="translate(-24.093 -15.893)" fill="#85c2ff"/>
      <path id="Trazado_1003353" data-name="Trazado 1003353" d="M72.509,68.141l-2.691-9.7a.66.66,0,0,1,.66-.838h5.39a.66.66,0,0,1,.66.838l-2.751,9.7a.66.66,0,0,1-1.267,0Zm-1.194-9.235,1.827,6.6,1.827-6.6Z" transform="translate(-23.754 -15.553)" fill="#302d3d"/>
      <path id="Trazado_1003354" data-name="Trazado 1003354" d="M76.223,56.6a3.3,3.3,0,0,1-5.383,0V52.71h5.383Z" transform="translate(-24.111 -13.889)" fill="#fb9c88"/>
      <path id="Trazado_1003355" data-name="Trazado 1003355" d="M69.935,56.638c-.172-.244-.119-.112-.119-4.268a.66.66,0,0,1,.66-.66h5.4a.66.66,0,0,1,.66.66c0,4.156.053,4.024-.119,4.268a3.958,3.958,0,0,1-6.478,0Zm1.2-.6a2.639,2.639,0,0,0,4.064,0V53.029H71.116Z" transform="translate(-23.759 -13.548)" fill="#302d3d"/>
      <rect id="Rectángulo_455835" data-name="Rectángulo 455835" width="18.016" height="2.909" rx="1.455" transform="translate(40.383 30.806)" fill="#fb9c88"/>
      <path id="Trazado_1003356" data-name="Trazado 1003356" d="M77.495,43.819H62.388a2.118,2.118,0,0,1,0-4.229H77.495a2.118,2.118,0,0,1,0,4.229ZM62.388,40.909a.8.8,0,0,0,0,1.59H77.495a.8.8,0,0,0,0-1.59Z" transform="translate(-20.554 -9.424)" fill="#302d3d"/>
      <path id="Trazado_1003357" data-name="Trazado 1003357" d="M71.385,46.521a6.748,6.748,0,0,1-6.755-6.755v-5.99A3.866,3.866,0,0,1,68.5,29.91h5.779a3.866,3.866,0,0,1,3.866,3.866v5.99a6.748,6.748,0,0,1-6.755,6.755Z" transform="translate(-21.997 -6.129)" fill="#fbc4ab"/>
      <path id="Trazado_1003358" data-name="Trazado 1003358" d="M78.14,36.566v-2.79a3.866,3.866,0,0,0-3.866-3.866H68.5a3.866,3.866,0,0,0-3.866,3.866v2.79Z" transform="translate(-21.997 -6.129)" fill="#fb9c88"/>
      <path id="Trazado_1003359" data-name="Trazado 1003359" d="M71.045,46.84a7.421,7.421,0,0,1-7.415-7.415v-5.99a4.532,4.532,0,0,1,4.525-4.525h5.779a4.532,4.532,0,0,1,4.525,4.525v5.99a7.421,7.421,0,0,1-7.415,7.415ZM68.155,30.229a3.213,3.213,0,0,0-3.206,3.206v5.99a6.1,6.1,0,1,0,12.191,0v-5.99a3.213,3.213,0,0,0-3.206-3.206Z" transform="translate(-21.657 -5.789)" fill="#302d3d"/>
      <path id="Trazado_1003360" data-name="Trazado 1003360" d="M75.729,49.32a2.691,2.691,0,0,1-3.549,0" transform="translate(-24.567 -12.735)" fill="#fff"/>
      <path id="Trazado_1003361" data-name="Trazado 1003361" d="M71.4,49.482a.662.662,0,1,1,.871-1,2.091,2.091,0,0,0,2.678,0,.662.662,0,1,1,.871,1,3.371,3.371,0,0,1-4.42,0Z" transform="translate(-24.225 -12.395)" fill="#302d3d"/>
      <path id="Trazado_1003362" data-name="Trazado 1003362" d="M78.59,42.926a.66.66,0,0,1-.66-.66v-.3a.66.66,0,1,1,1.319,0v.3A.66.66,0,0,1,78.59,42.926Z" transform="translate(-26.523 -10.009)" fill="#302d3d"/>
      <path id="Trazado_1003363" data-name="Trazado 1003363" d="M78.942,40.179H77.55a.66.66,0,0,1,0-1.319h1.392a.66.66,0,1,1,0,1.319Z" transform="translate(-26.169 -9.175)" fill="#302d3d"/>
      <path id="Trazado_1003364" data-name="Trazado 1003364" d="M70.47,42.926a.66.66,0,0,1-.66-.66v-.3a.66.66,0,0,1,1.319,0v.3A.66.66,0,0,1,70.47,42.926Z" transform="translate(-23.76 -10.009)" fill="#302d3d"/>
      <path id="Trazado_1003365" data-name="Trazado 1003365" d="M70.805,40.179H69.44a.66.66,0,0,1,0-1.319h1.366a.66.66,0,1,1,0,1.319Z" transform="translate(-23.409 -9.175)" fill="#302d3d"/>
      <path id="Trazado_1003366" data-name="Trazado 1003366" d="M78.11,32.939V30.65a5.04,5.04,0,0,0-5.04-5.04H69.633A5.04,5.04,0,0,0,64.6,30.65v2.289Z" transform="translate(-21.987 -4.666)" fill="#49d293"/>
      <path id="Trazado_1003367" data-name="Trazado 1003367" d="M77.77,33.258H64.26a.66.66,0,0,1-.66-.66V30.31a5.7,5.7,0,0,1,5.693-5.7H72.73a5.706,5.706,0,0,1,5.7,5.7V32.6A.66.66,0,0,1,77.77,33.258Zm-12.85-1.319H77.11V30.31a4.387,4.387,0,0,0-4.38-4.38H69.293a4.38,4.38,0,0,0-4.374,4.38Z" transform="translate(-21.647 -4.326)" fill="#302d3d"/>
      <path id="Trazado_1003368" data-name="Trazado 1003368" d="M64.6,33.62H78.11v2.045H64.6Z" transform="translate(-21.987 -7.392)" fill="#49d293"/>
      <path id="Trazado_1003369" data-name="Trazado 1003369" d="M77.77,35.984H64.26a.66.66,0,0,1-.66-.66V33.28a.66.66,0,0,1,.66-.66H77.77a.66.66,0,0,1,.66.66v2.045A.66.66,0,0,1,77.77,35.984Zm-12.85-1.319H77.11v-.726H64.919Z" transform="translate(-21.647 -7.052)" fill="#302d3d"/>
      <path id="Trazado_1003370" data-name="Trazado 1003370" d="M74.5,30.365a.66.66,0,0,1-.66-.66V28.07a.66.66,0,1,1,1.319,0v1.636A.66.66,0,0,1,74.5,30.365Z" transform="translate(-25.131 -5.278)" fill="#302d3d"/>
      <path id="Trazado_1003371" data-name="Trazado 1003371" d="M74.9,29.969H73.26a.66.66,0,1,1,0-1.319H74.9a.66.66,0,1,1,0,1.319Z" transform="translate(-24.709 -5.7)" fill="#302d3d"/>
      <path id="Trazado_1003372" data-name="Trazado 1003372" d="M74.53,80.088a.66.66,0,0,1-.66-.66V72.97a.66.66,0,0,1,1.319,0v6.458A.66.66,0,0,1,74.53,80.088Z" transform="translate(-25.142 -20.559)" fill="#302d3d"/>
      <path id="Trazado_1003373" data-name="Trazado 1003373" d="M27.888,72.785c-.5-7.547-.4-8.78-1.319-11a10.317,10.317,0,0,0-7.8-6.049.752.752,0,0,1-.66-.752V52.79H10.783v2.19a.765.765,0,0,1-.66.759,10.265,10.265,0,0,0-7.8,6.043c-.937,2.2-.8,3.206-1.319,11Z" transform="translate(-0.342 -13.916)" fill="#67b8ff"/>
      <path id="Trazado_1003374" data-name="Trazado 1003374" d="M26.281,67.975a7.956,7.956,0,0,0-4.545-6.808c-1.128-.574-1.893-.27-2.949-.825a6.432,6.432,0,0,0-5.653,0,3.688,3.688,0,0,1-1.055.356,7.672,7.672,0,0,0-6.412,7.058l-.158,2.421a2.17,2.17,0,0,0,2.164,2.315H24.3a2.17,2.17,0,0,0,2.164-2.315Z" transform="translate(-1.874 -16.264)" fill="#cae9ff"/>
      <path id="Trazado_1003375" data-name="Trazado 1003375" d="M27.546,73.1H.658A.66.66,0,0,1,0,72.378l.5-7.527A10.97,10.97,0,0,1,9.735,54.745c.112,0,.079,0,.079-2.3a.66.66,0,0,1,.66-.66H17.8a.66.66,0,0,1,.66.66c0,2.3-.033,2.276.079,2.3A10.957,10.957,0,0,1,27.7,65.063l.5,7.316a.66.66,0,0,1-.66.726ZM1.364,71.785H26.84l-.442-6.6a9.658,9.658,0,0,0-8.107-9.143A1.412,1.412,0,0,1,17.1,54.64v-1.53h-6v1.53a1.431,1.431,0,0,1-1.207,1.412,9.638,9.638,0,0,0-8.074,8.892Z" transform="translate(0 -13.576)" fill="#302d3d"/>
      <path id="Trazado_1003376" data-name="Trazado 1003376" d="M8.827,74.11,8.51,80.04" transform="translate(-2.898 -21.172)" fill="#fff"/>
      <path id="Trazado_1003377" data-name="Trazado 1003377" d="M8.169,80.336a.66.66,0,0,1-.66-.7L7.826,73.7a.66.66,0,1,1,1.319.04l-.317,5.937A.66.66,0,0,1,8.169,80.336Z" transform="translate(-2.557 -20.808)" fill="#302d3d"/>
      <path id="Trazado_1003378" data-name="Trazado 1003378" d="M34.144,81.14l-.2-3.8" transform="translate(-11.552 -22.271)" fill="#fff"/>
      <path id="Trazado_1003379" data-name="Trazado 1003379" d="M33.824,81.46a.66.66,0,0,1-.66-.627L33,77.04a.661.661,0,1,1,1.319-.073l.165,3.767a.66.66,0,0,1-.66.726Z" transform="translate(-11.232 -21.932)" fill="#302d3d"/>
      <rect id="Rectángulo_455836" data-name="Rectángulo 455836" width="18.016" height="2.909" rx="1.455" transform="translate(5.098 30.806)" fill="#fb9c88"/>
      <path id="Trazado_1003380" data-name="Trazado 1003380" d="M24,43.819H8.9a2.118,2.118,0,0,1,0-4.229H24a2.118,2.118,0,0,1,0,4.229ZM8.9,40.89a.8.8,0,0,0,0,1.59H24a.8.8,0,0,0,0-1.59Z" transform="translate(-2.35 -9.424)" fill="#302d3d"/>
      <path id="Trazado_1003381" data-name="Trazado 1003381" d="M21.9,58.1l-1.069.653L19.76,58.1V53.09H21.9Z" transform="translate(-6.727 -14.018)" fill="#fb9c88"/>
      <path id="Trazado_1003382" data-name="Trazado 1003382" d="M19.077,58.324a.66.66,0,0,1-.317-.567V52.75a.66.66,0,0,1,.66-.66h2.137a.66.66,0,0,1,.66.66v5.007a.66.66,0,0,1-.317.567C20.238,59.287,20.726,59.32,19.077,58.324Zm1-.937.409.251.409-.251V53.429h-.818Z" transform="translate(-6.386 -13.678)" fill="#302d3d"/>
      <path id="Trazado_1003383" data-name="Trazado 1003383" d="M15.784,23.75H20a4.618,4.618,0,0,1,4.618,4.618v8.305a6.234,6.234,0,0,1-6.234,6.234H17.374a6.234,6.234,0,0,1-6.234-6.234V28.394a4.618,4.618,0,0,1,4.618-4.618Z" transform="translate(-3.793 -4.033)" fill="#67b8ff"/>
      <path id="Trazado_1003384" data-name="Trazado 1003384" d="M15.784,28.09H20a4.618,4.618,0,0,1,4.618,4.618v5.409a6.234,6.234,0,0,1-6.234,6.234H17.374a6.234,6.234,0,0,1-6.234-6.234V32.708a4.618,4.618,0,0,1,4.618-4.618Z" transform="translate(-3.793 -5.51)" fill="#4977dc"/>
      <path id="Trazado_1003385" data-name="Trazado 1003385" d="M18.076,43.24H17.034a6.9,6.9,0,0,1-6.894-6.894V28.067a5.277,5.277,0,0,1,5.277-5.277h4.222a5.277,5.277,0,0,1,5.277,5.277v8.279a6.9,6.9,0,0,1-6.841,6.894ZM15.437,24.109a3.958,3.958,0,0,0-3.958,3.958v8.279a5.581,5.581,0,0,0,5.574,5.574H18.1a5.581,5.581,0,0,0,5.574-5.574V28.067a3.958,3.958,0,0,0-3.958-3.958Z" transform="translate(-3.453 -3.706)" fill="#302d3d"/>
      <path id="Trazado_1003386" data-name="Trazado 1003386" d="M24.65,37.88v2.883a6.755,6.755,0,0,1-13.51,0V37.88a5.06,5.06,0,0,1,5.053-5.06h3.43a5.06,5.06,0,0,1,5.027,5.06Z" transform="translate(-3.793 -7.12)" fill="#fbc4ab"/>
      <path id="Trazado_1003387" data-name="Trazado 1003387" d="M24.65,37.88v1.1a3,3,0,0,1-2.263-1.59c-.495-.963-2.718-1.154-4.492-1.154s-4,.2-4.492,1.168a3.008,3.008,0,0,1-2.263,1.59V37.88a5.06,5.06,0,0,1,5.053-5.06h3.43a5.06,5.06,0,0,1,5.027,5.06Z" transform="translate(-3.793 -7.12)" fill="#fb9c88"/>
      <path id="Trazado_1003388" data-name="Trazado 1003388" d="M17.555,47.83a7.421,7.421,0,0,1-7.415-7.415V37.533a5.719,5.719,0,0,1,5.713-5.713h3.43A5.719,5.719,0,0,1,25,37.533v2.883a7.421,7.421,0,0,1-7.441,7.415Zm-1.7-14.691a4.4,4.4,0,0,0-4.393,4.393v2.883a6.1,6.1,0,0,0,12.191,0V37.533a4.4,4.4,0,0,0-4.367-4.393Z" transform="translate(-3.453 -6.779)" fill="#302d3d"/>
      <path id="Trazado_1003389" data-name="Trazado 1003389" d="M21.04,28.415a.66.66,0,0,1-.66-.66V26.12a.66.66,0,0,1,1.319,0v1.636A.66.66,0,0,1,21.04,28.415Z" transform="translate(-6.938 -4.615)" fill="#302d3d"/>
      <path id="Trazado_1003390" data-name="Trazado 1003390" d="M21.436,28.019H19.8a.66.66,0,0,1,0-1.319h1.636a.66.66,0,0,1,0,1.319Z" transform="translate(-6.516 -5.037)" fill="#302d3d"/>
      <path id="Trazado_1003391" data-name="Trazado 1003391" d="M22.239,49.32a2.691,2.691,0,0,1-3.549,0" transform="translate(-6.362 -12.735)" fill="#fff"/>
      <path id="Trazado_1003392" data-name="Trazado 1003392" d="M17.881,49.476a.659.659,0,1,1,.864-1,2.111,2.111,0,0,0,2.691,0,.66.66,0,1,1,.864,1,3.371,3.371,0,0,1-4.42,0Z" transform="translate(-6.009 -12.39)" fill="#302d3d"/>
      <path id="Trazado_1003393" data-name="Trazado 1003393" d="M25.1,42.926a.66.66,0,0,1-.66-.66v-.3a.66.66,0,1,1,1.319,0v.3A.66.66,0,0,1,25.1,42.926Z" transform="translate(-8.319 -10.009)" fill="#302d3d"/>
      <path id="Trazado_1003394" data-name="Trazado 1003394" d="M25.425,40.179H24.06a.66.66,0,0,1,0-1.319h1.366a.66.66,0,0,1,0,1.319Z" transform="translate(-7.965 -9.175)" fill="#302d3d"/>
      <path id="Trazado_1003395" data-name="Trazado 1003395" d="M16.98,42.926a.66.66,0,0,1-.66-.66v-.3a.66.66,0,0,1,1.319,0v.3A.66.66,0,0,1,16.98,42.926Z" transform="translate(-5.556 -10.009)" fill="#302d3d"/>
      <path id="Trazado_1003396" data-name="Trazado 1003396" d="M17.315,40.179H15.95a.66.66,0,0,1,0-1.319h1.366a.66.66,0,1,1,0,1.319Z" transform="translate(-5.205 -9.175)" fill="#302d3d"/>
      <path id="Trazado_1003397" data-name="Trazado 1003397" d="M21.04,76.126a.66.66,0,0,1-.66-.66V61.33a.66.66,0,1,1,1.319,0V75.466A.66.66,0,0,1,21.04,76.126Z" transform="translate(-6.938 -16.598)" fill="#302d3d"/>
      <circle id="Elipse_13794" data-name="Elipse 13794" cx="1.939" cy="1.939" r="1.939" transform="translate(15.877 49.858)" fill="#f74867"/>
      <path id="Trazado_1003398" data-name="Trazado 1003398" d="M25.656,73.638a2.6,2.6,0,1,1,2.593-2.6A2.6,2.6,0,0,1,25.656,73.638Zm0-3.879a1.28,1.28,0,1,0,1.273,1.28,1.28,1.28,0,0,0-1.273-1.28Z" transform="translate(-7.846 -19.242)" fill="#302d3d"/>
      <path id="Trazado_1003399" data-name="Trazado 1003399" d="M55.182,70.532,52.22,53.974a9.156,9.156,0,0,0-1-2.856,9.842,9.842,0,0,0-8.351-4.948H37.971a9.625,9.625,0,0,0-9.354,7.8L25.51,70.532Z" transform="translate(-8.683 -11.663)" fill="#e6e7e8"/>
      <path id="Trazado_1003400" data-name="Trazado 1003400" d="M33.313,69.237a2.289,2.289,0,0,1-2.243-2.7l2.019-10.759a6.419,6.419,0,0,1,2.982-4.453,6.689,6.689,0,0,1,3.78-1.2h4.895a6.491,6.491,0,0,1,3.417.97,7.2,7.2,0,0,1,1.57,1.181,6.557,6.557,0,0,1,1.775,3.463l1.933,10.8a2.289,2.289,0,0,1-2.249,2.685Z" transform="translate(-10.563 -13.007)" fill="#fff"/>
      <path id="Trazado_1003401" data-name="Trazado 1003401" d="M54.829,70.834H25.143a.66.66,0,0,1-.66-.785l3.1-16.584A10.284,10.284,0,0,1,37.618,45.12h4.895a10.284,10.284,0,0,1,10.014,8.351l2.969,16.584a.66.66,0,0,1-.666.778Zm-28.88-1.319h28.1L51.207,53.7a8.477,8.477,0,0,0-3.885-5.772,8.628,8.628,0,0,0-4.816-1.491H37.618a8.51,8.51,0,0,0-4.459,1.24,8.714,8.714,0,0,0-3.3,3.338c-.924,1.669-.706,1.359-3.912,18.5Z" transform="translate(-8.33 -11.306)" fill="#302d3d"/>
      <path id="Trazado_1003402" data-name="Trazado 1003402" d="M44.03,46.47l2.691,9.7,2.691-9.7Z" transform="translate(-14.986 -11.765)" fill="#85c2ff"/>
      <path id="Trazado_1003403" data-name="Trazado 1003403" d="M45.739,56.011l-2.691-9.7a.66.66,0,0,1,.66-.838H49.09a.66.66,0,0,1,.66.838l-2.738,9.7a.66.66,0,0,1-1.273,0Zm-1.187-9.235,1.827,6.6,1.821-6.6Z" transform="translate(-14.643 -11.425)" fill="#302d3d"/>
      <path id="Trazado_1003404" data-name="Trazado 1003404" d="M49.413,44.465a3.3,3.3,0,0,1-5.383,0V40.58h5.383Z" transform="translate(-14.986 -9.761)" fill="#fb9c88"/>
      <path id="Trazado_1003405" data-name="Trazado 1003405" d="M43.145,44.508c-.172-.244-.119-.112-.119-4.268a.66.66,0,0,1,.66-.66h5.383a.66.66,0,0,1,.66.66c0,4.156.046,4.024-.119,4.268a3.958,3.958,0,0,1-6.465,0Zm1.181-.607a2.639,2.639,0,0,0,4.064,0v-3H44.326Z" transform="translate(-14.642 -9.42)" fill="#302d3d"/>
      <path id="Trazado_1003406" data-name="Trazado 1003406" d="M35.64,12.9H42.8a4.176,4.176,0,0,1,4.176,4.176v6.062H37.546a1.906,1.906,0,0,1-1.906-1.906V12.9Z" transform="translate(-12.131 -0.34)" fill="#52527b"/>
      <path id="Trazado_1003407" data-name="Trazado 1003407" d="M46.639,23.464H37.206a2.573,2.573,0,0,1-2.566-2.573V12.56a.66.66,0,0,1,.66-.66h7.157A4.842,4.842,0,0,1,47.3,16.742V22.8a.66.66,0,0,1-.66.66ZM35.959,13.219v7.672a1.253,1.253,0,0,0,1.247,1.253H45.98v-5.4a3.529,3.529,0,0,0-3.523-3.523Z" transform="translate(-11.791 0)" fill="#302d3d"/>
      <path id="Trazado_1003408" data-name="Trazado 1003408" d="M55.073,12.9h.4a2.54,2.54,0,0,1,2.54,2.54v7.7H54.321a1.491,1.491,0,0,1-1.491-1.491V15.143A2.243,2.243,0,0,1,55.073,12.9Z" transform="translate(-17.981 -0.34)" fill="#52527b"/>
      <path id="Trazado_1003409" data-name="Trazado 1003409" d="M57.675,23.464H53.981a2.157,2.157,0,0,1-2.151-2.151V14.8a2.909,2.909,0,0,1,2.9-2.9h.4a3.206,3.206,0,0,1,3.2,3.206v7.7a.66.66,0,0,1-.66.66ZM54.733,13.219A1.583,1.583,0,0,0,53.149,14.8v6.511a.831.831,0,0,0,.831.831h3.034V15.106a1.887,1.887,0,0,0-1.88-1.887Z" transform="translate(-17.641)" fill="#302d3d"/>
      <rect id="Rectángulo_455837" data-name="Rectángulo 455837" width="18.016" height="2.909" rx="1.455" transform="translate(22.724 22.804)" fill="#fbc4ab"/>
      <path id="Trazado_1003410" data-name="Trazado 1003410" d="M50.677,31.652H35.571a2.111,2.111,0,0,1,0-4.222H50.677a2.111,2.111,0,1,1,0,4.222Zm-15.107-2.9a.792.792,0,0,0,0,1.583H50.677a.792.792,0,1,0,0-1.583Z" transform="translate(-11.389 -5.285)" fill="#302d3d"/>
      <path id="Trazado_1003411" data-name="Trazado 1003411" d="M51.375,24.4V27.5a6.762,6.762,0,1,1-13.517,0V24.4a6.762,6.762,0,1,1,13.517,0Z" transform="translate(-12.885 -1.882)" fill="#fb9c88"/>
      <path id="Trazado_1003412" data-name="Trazado 1003412" d="M51.375,27.891v.957a6.762,6.762,0,1,1-13.517,0v-.957a6.762,6.762,0,0,1,13.517,0Z" transform="translate(-12.885 -3.213)" fill="#fbc4ab"/>
      <path id="Trazado_1003413" data-name="Trazado 1003413" d="M44.281,34.84A7.428,7.428,0,0,1,36.86,27.4V24.285a7.421,7.421,0,0,1,14.836,0v3.1a7.421,7.421,0,0,1-7.415,7.454Zm0-16.611a6.109,6.109,0,0,0-6.1,6.056v3.1a6.1,6.1,0,0,0,12.2,0v-3.1a6.109,6.109,0,0,0-6.1-6.082Z" transform="translate(-12.546 -1.765)" fill="#302d3d"/>
      <path id="Trazado_1003414" data-name="Trazado 1003414" d="M48.966,37.19a2.718,2.718,0,0,1-3.556,0" transform="translate(-15.456 -8.607)" fill="#fff"/>
      <path id="Trazado_1003415" data-name="Trazado 1003415" d="M44.651,37.345a.66.66,0,0,1,.864-1,2.091,2.091,0,0,0,2.685,0,.674.674,0,0,1,.864,1.036,3.364,3.364,0,0,1-4.413-.04Z" transform="translate(-15.125 -8.267)" fill="#302d3d"/>
      <path id="Trazado_1003416" data-name="Trazado 1003416" d="M51.82,30.8a.66.66,0,0,1-.66-.66v-.3a.66.66,0,0,1,1.319,0v.3A.66.66,0,0,1,51.82,30.8Z" transform="translate(-17.413 -5.881)" fill="#302d3d"/>
      <path id="Trazado_1003417" data-name="Trazado 1003417" d="M52.155,28.049H50.79a.66.66,0,1,1,0-1.319h1.366a.66.66,0,0,1,0,1.319Z" transform="translate(-17.062 -5.047)" fill="#302d3d"/>
      <path id="Trazado_1003418" data-name="Trazado 1003418" d="M43.71,30.8a.66.66,0,0,1-.66-.66v-.3a.66.66,0,0,1,1.319,0v.3A.66.66,0,0,1,43.71,30.8Z" transform="translate(-14.653 -5.881)" fill="#302d3d"/>
      <path id="Trazado_1003419" data-name="Trazado 1003419" d="M44.038,28.049H42.66a.66.66,0,0,1,0-1.319h1.366a.66.66,0,0,1,0,1.319Z" transform="translate(-14.295 -5.047)" fill="#302d3d"/>
      <path id="Trazado_1003420" data-name="Trazado 1003420" d="M43.166,16.65a3.754,3.754,0,0,1,0,5.277L39.61,18.372" transform="translate(-13.482 -1.617)" fill="#52527b"/>
      <g id="Grupo_1180061" data-name="Grupo 1180061" transform="translate(22.235 14.373)">
        <path id="Trazado_1003421" data-name="Trazado 1003421" d="M42.337,22.075l-3.556-3.556a.66.66,0,1,1,.937-.93l3.034,3.034a3.087,3.087,0,0,0-.416-3.846.66.66,0,0,1,.93-.937,4.407,4.407,0,0,1,0,6.234A.66.66,0,0,1,42.337,22.075Z" transform="translate(-35.37 -15.649)" fill="#302d3d"/>
        <path id="Trazado_1003422" data-name="Trazado 1003422" d="M60.315,77.113a.66.66,0,0,1-.66-.554L57.676,64.335a.667.667,0,1,1,1.319-.2c.343,2.2-.059-.277,1.979,12.211a.66.66,0,0,1-.66.765Z" transform="translate(-41.863 -31.958)" fill="#302d3d"/>
        <path id="Trazado_1003423" data-name="Trazado 1003423" d="M34.376,77.113a.66.66,0,0,1-.66-.759l1.847-12.217a.667.667,0,0,1,1.319.2c-.191,1.227.092-.66-1.847,12.217a.66.66,0,0,1-.66.561Z" transform="translate(-33.709 -31.958)" fill="#302d3d"/>
        <path id="Trazado_1003424" data-name="Trazado 1003424" d="M38.86,51.452a.66.66,0,0,1-.66-.66,6.518,6.518,0,0,1,3.542-5.825.66.66,0,0,1,.6,1.174,5.2,5.2,0,0,0-2.823,4.618.66.66,0,0,1-.66.693Z" transform="translate(-35.237 -25.605)" fill="#302d3d"/>
        <path id="Trazado_1003425" data-name="Trazado 1003425" d="M55.008,51.448a.66.66,0,0,1-.66-.66,5.192,5.192,0,0,0-2.843-4.618.677.677,0,0,1,.614-1.207,6.511,6.511,0,0,1,3.549,5.825A.66.66,0,0,1,55.008,51.448Z" transform="translate(-39.644 -25.602)" fill="#302d3d"/>
        <path id="Trazado_1003426" data-name="Trazado 1003426" d="M57.465,56.458a.66.66,0,0,1-.66-.66V54.4a.251.251,0,0,0-.257-.251H55.1a.251.251,0,0,0-.257.251v1.4a.66.66,0,0,1-1.319,0V54.4A1.577,1.577,0,0,1,55.1,52.83h1.451a1.577,1.577,0,0,1,1.577,1.57v1.4A.66.66,0,0,1,57.465,56.458Z" transform="translate(-40.451 -28.303)" fill="#302d3d"/>
        <path id="Trazado_1003427" data-name="Trazado 1003427" d="M38.07,57.21a2.19,2.19,0,1,1,2.19-2.19,2.19,2.19,0,0,1-2.19,2.19Zm0-3.061a.871.871,0,1,0,.871.871A.871.871,0,0,0,38.07,54.149Z" transform="translate(-34.448 -28.303)" fill="#302d3d"/>
      </g>
      <path id="Trazado_1003428" data-name="Trazado 1003428" d="M10.9,36.059c.726-1.392,2.454-2.223,6.254-2.223s5.535.844,6.254,2.236a1.029,1.029,0,0,0,.91.548,1.1,1.1,0,0,0,.9-1.616C23.5,31.58,19.064,31.58,17.151,31.58s-6.346,0-8.068,3.424a1.1,1.1,0,0,0,.9,1.616,1.022,1.022,0,0,0,.91-.561Z" transform="translate(-3.049 -6.698)" fill="#f74867"/>
      <path id="Trazado_1003429" data-name="Trazado 1003429" d="M13.081,34.075a1.121,1.121,0,0,0-1.636-.99A5.436,5.436,0,0,0,9.084,35.46a1.1,1.1,0,0,0,.9,1.616,1.022,1.022,0,0,0,.91-.548,3.3,3.3,0,0,1,1.544-1.451,1.121,1.121,0,0,0,.64-1Z" transform="translate(-3.049 -7.167)" fill="#b62a53"/>
      <path id="Trazado_1003430" data-name="Trazado 1003430" d="M31.439,35.4a5.482,5.482,0,0,0-2.553-2.474,1.115,1.115,0,1,0-.95,2.012,3.358,3.358,0,0,1,1.689,1.524,1.022,1.022,0,0,0,.91.548,1.1,1.1,0,0,0,.9-1.61Z" transform="translate(-9.269 -7.109)" fill="#b62a53"/>
      <path id="Trazado_1003431" data-name="Trazado 1003431" d="M23.976,36.926a1.689,1.689,0,0,1-1.478-.9c-.435-.8-1.478-1.867-5.686-1.867s-5.277,1.069-5.667,1.88a1.689,1.689,0,0,1-1.5.9,1.761,1.761,0,0,1-1.491-2.573c1.906-3.787,6.636-3.787,8.655-3.787s6.748,0,8.655,3.787a1.761,1.761,0,0,1-1.491,2.56Zm-7.164-4.09c3.754,0,5.937.825,6.841,2.593a.363.363,0,0,0,.323.191.449.449,0,0,0,.317-.66C22.749,31.9,18.587,31.9,16.812,31.9s-5.937,0-7.481,3.061a.455.455,0,0,0,.317.66.363.363,0,0,0,.323-.191C10.888,33.647,13.059,32.836,16.812,32.836Z" transform="translate(-2.71 -6.357)" fill="#302d3d"/>
    </g>
  </g>
</svg>
