<svg xmlns="http://www.w3.org/2000/svg" width="84" height="84" viewBox="0 0 84 84">
  <g id="Grupo_1180308" data-name="Grupo 1180308" transform="translate(-310.273 -10160)">
    <rect id="Rectángulo_455225" data-name="Rectángulo 455225" width="84" height="84" rx="10" transform="translate(310.273 10160)" fill="#99bfb7"/>
    <g id="Grupo_1180307" data-name="Grupo 1180307" transform="translate(320.273 10169.998)">
      <g id="Grupo_1180304" data-name="Grupo 1180304" transform="translate(1 1.002)">
        <g id="Grupo_1180303" data-name="Grupo 1180303">
          <path id="Trazado_1004068" data-name="Trazado 1004068" d="M300.611,46.016c2.286-11.04-2.683-18.994-12.592-18.994s-14.878,7.954-12.592,18.994Z" transform="translate(-241.517 -24.644)" fill="#dfaa88"/>
          <path id="Trazado_1004069" data-name="Trazado 1004069" d="M17.457,29.7c-4.844-7.968,1.367-20.066,8.492-21.446,5.929-1.149,8.3,1.975,8.3,1.975s1.325-.421,4.67.773c5.995,2.14,8.579,10.757,3.955,17.724l-.244.38Z" transform="translate(-14.771 -8)" fill="#888089"/>
          <path id="Trazado_1004070" data-name="Trazado 1004070" d="M312.085,101.767a30.26,30.26,0,0,1-9.7,8.416v3.894a9.7,9.7,0,1,0,19.407,0v-3.894c-4.4-1.242-9.7-8.416-9.7-8.416Z" transform="translate(-265.584 -90.046)" fill="#ffd6bd"/>
          <path id="Trazado_1004071" data-name="Trazado 1004071" d="M312.085,191.959a9.709,9.709,0,0,1-9.7-9.715v2.25a9.7,9.7,0,1,0,19.407,0v-2.25A9.709,9.709,0,0,1,312.085,191.959Z" transform="translate(-265.583 -160.463)" fill="#f9c6aa"/>
          <g id="Grupo_1180301" data-name="Grupo 1180301" transform="translate(31.006 33.732)">
            <g id="Grupo_1180300" data-name="Grupo 1180300">
              <g id="Grupo_1180299" data-name="Grupo 1180299">
                <g id="Grupo_1180298" data-name="Grupo 1180298">
                  <path id="Trazado_1004072" data-name="Trazado 1004072" d="M287.037,306.122H256.045V289.811A11.957,11.957,0,0,1,268,277.854h7.077a11.957,11.957,0,0,1,11.957,11.957v16.311Z" transform="translate(-256.045 -277.854)" fill="#ff748f"/>
                </g>
              </g>
            </g>
          </g>
          <path id="Trazado_1004073" data-name="Trazado 1004073" d="M256.045,486h30.992v2.25H256.045Z" transform="translate(-225.039 -426.25)" fill="#ff577f"/>
          <path id="Trazado_1004074" data-name="Trazado 1004074" d="M66.219,101.767c-4.517,5.915-11.824,6.663-11.824,6.663v5.646a9.7,9.7,0,1,0,19.407,0v-5.645C69.4,107.19,66.219,101.767,66.219,101.767Z" transform="translate(-48.596 -90.046)" fill="#ffd6bd"/>
          <path id="Trazado_1004075" data-name="Trazado 1004075" d="M64.1,191.959a9.709,9.709,0,0,1-9.7-9.715v2.25a9.7,9.7,0,1,0,19.407,0v-2.25A9.709,9.709,0,0,1,64.1,191.959Z" transform="translate(-48.596 -160.463)" fill="#f9c6aa"/>
          <path id="Trazado_1004076" data-name="Trazado 1004076" d="M39.006,306.219H8V289.928a11.963,11.963,0,0,1,11.963-11.963h7.08a11.963,11.963,0,0,1,11.963,11.963Z" transform="translate(-8 -244.219)" fill="#92e8ff"/>
          <path id="Trazado_1004077" data-name="Trazado 1004077" d="M8,486H39.006v2.25H8Z" transform="translate(-8 -426.25)" fill="#79dbf2"/>
          <path id="Trazado_1004078" data-name="Trazado 1004078" d="M29.405,172.868v-3.894a3.239,3.239,0,1,0,.325,6.394A9.733,9.733,0,0,1,29.405,172.868Z" transform="translate(-23.606 -148.837)" fill="#edbca4"/>
          <path id="Trazado_1004079" data-name="Trazado 1004079" d="M207.709,168.957a3.25,3.25,0,0,0-.335.017v3.894a9.74,9.74,0,0,1-.325,2.5,3.239,3.239,0,1,0,.66-6.411Z" transform="translate(-182.168 -148.837)" fill="#edbca4"/>
          <path id="Trazado_1004080" data-name="Trazado 1004080" d="M29.07,187.987a3.237,3.237,0,0,1-3.035-2.114,3.238,3.238,0,0,0,3.694,4.3,9.719,9.719,0,0,1-.32-2.2A3.239,3.239,0,0,1,29.07,187.987Z" transform="translate(-23.605 -163.639)" fill="#eaab92"/>
          <path id="Trazado_1004081" data-name="Trazado 1004081" d="M207.709,187.987a3.242,3.242,0,0,1-.34-.018,9.733,9.733,0,0,1-.32,2.2,3.241,3.241,0,0,0,3.694-4.3A3.237,3.237,0,0,1,207.709,187.987Z" transform="translate(-182.168 -163.639)" fill="#eaab92"/>
          <g id="Grupo_1180302" data-name="Grupo 1180302" transform="translate(11.522 20.12)">
            <path id="Trazado_1004082" data-name="Trazado 1004082" d="M108.136,277.854s.182,4.753-3.979,4.753-3.979-4.753-3.979-4.753Z" transform="translate(-100.177 -264.242)" fill="#edbca4"/>
            <path id="Trazado_1004083" data-name="Trazado 1004083" d="M277.39,172.868v-3.894a3.239,3.239,0,1,0,.325,6.394A9.743,9.743,0,0,1,277.39,172.868Z" transform="translate(-252.115 -168.957)" fill="#edbca4"/>
            <path id="Trazado_1004084" data-name="Trazado 1004084" d="M455.695,168.957a3.251,3.251,0,0,0-.335.017v3.894a9.735,9.735,0,0,1-.325,2.5,3.239,3.239,0,1,0,.66-6.411Z" transform="translate(-410.678 -168.957)" fill="#edbca4"/>
          </g>
          <path id="Trazado_1004085" data-name="Trazado 1004085" d="M277.057,187.987a3.237,3.237,0,0,1-3.035-2.114,3.238,3.238,0,0,0,3.694,4.3,9.731,9.731,0,0,1-.32-2.2A3.242,3.242,0,0,1,277.057,187.987Z" transform="translate(-240.593 -163.639)" fill="#eaab92"/>
          <path id="Trazado_1004086" data-name="Trazado 1004086" d="M455.7,187.987a3.241,3.241,0,0,1-.339-.018,9.735,9.735,0,0,1-.32,2.2,3.241,3.241,0,0,0,3.694-4.3A3.237,3.237,0,0,1,455.7,187.987Z" transform="translate(-399.156 -163.639)" fill="#eaab92"/>
          <path id="Trazado_1004087" data-name="Trazado 1004087" d="M263.218,198.045a3.237,3.237,0,0,1-3.9-3.172c-4.232,3.239-.667,9.9-.667,9.9,4.962-2.687,4.562-6.729,4.562-6.729Z" transform="translate(-226.095 -171.514)" fill="#dfaa88"/>
          <path id="Trazado_1004088" data-name="Trazado 1004088" d="M266.543,220.247a3.241,3.241,0,0,1-.66.068c-.1,0-.2-.005-.293-.014a11.891,11.891,0,0,1-4.539,4.315,13.741,13.741,0,0,0,.929,2.361C266.943,224.289,266.543,220.247,266.543,220.247Z" transform="translate(-229.42 -193.716)" fill="#d99b74"/>
          <path id="Trazado_1004089" data-name="Trazado 1004089" d="M454.982,198.045a3.237,3.237,0,0,0,3.9-3.172c4.232,3.239.667,9.9.667,9.9-4.962-2.687-4.562-6.729-4.562-6.729Z" transform="translate(-399.102 -171.514)" fill="#dfaa88"/>
          <path id="Trazado_1004090" data-name="Trazado 1004090" d="M455.934,220.3c-.1.009-.194.014-.293.014a3.239,3.239,0,0,1-.66-.068s-.4,4.042,4.562,6.729a13.743,13.743,0,0,0,.929-2.361A11.89,11.89,0,0,1,455.934,220.3Z" transform="translate(-399.102 -193.716)" fill="#d99b74"/>
          <path id="Trazado_1004091" data-name="Trazado 1004091" d="M353.807,282.865l-2.16-5.011h7.091l-2.16,5.011A1.508,1.508,0,0,1,353.807,282.865Z" transform="translate(-308.691 -244.122)" fill="#edbca4"/>
          <path id="Trazado_1004092" data-name="Trazado 1004092" d="M8,416.035h6.124v11H8Z" transform="translate(-8 -365.031)" fill="#edbca4"/>
          <path id="Trazado_1004093" data-name="Trazado 1004093" d="M207.049,416.035h6.124v11h-6.124Z" transform="translate(-182.168 -365.031)" fill="#edbca4"/>
          <path id="Trazado_1004094" data-name="Trazado 1004094" d="M256.045,416.035h6.124v11h-6.124Z" transform="translate(-225.039 -365.031)" fill="#ffd6bd"/>
          <path id="Trazado_1004095" data-name="Trazado 1004095" d="M455,416.035h6.124v11H455Z" transform="translate(-399.128 -365.031)" fill="#ffd6bd"/>
          <path id="Trazado_1004096" data-name="Trazado 1004096" d="M256.045,486h6.125v2.25h-6.125Z" transform="translate(-225.039 -426.25)" fill="#f9c6aa"/>
          <path id="Trazado_1004097" data-name="Trazado 1004097" d="M455,486h6.125v2.25H455Z" transform="translate(-399.128 -426.25)" fill="#f9c6aa"/>
          <path id="Trazado_1004098" data-name="Trazado 1004098" d="M207.049,486h6.125v2.25h-6.125Z" transform="translate(-182.168 -426.25)" fill="#eaab92"/>
          <path id="Trazado_1004099" data-name="Trazado 1004099" d="M8,486h6.124v2.25H8Z" transform="translate(-8 -426.25)" fill="#eaab92"/>
        </g>
      </g>
      <g id="Grupo_1180306" data-name="Grupo 1180306" transform="translate(0 0.002)">
        <g id="Grupo_1180305" data-name="Grupo 1180305" transform="translate(0 0)">
          <path id="Trazado_1004100" data-name="Trazado 1004100" d="M87.519,168.692a.939.939,0,0,0-.939.939v2.182a.939.939,0,1,0,1.879,0v-2.182A.939.939,0,0,0,87.519,168.692Z" transform="translate(-75.757 -147.606)"/>
          <path id="Trazado_1004101" data-name="Trazado 1004101" d="M162.9,172.752a.939.939,0,0,0,.939-.939V169.63a.939.939,0,0,0-1.879,0v2.182A.939.939,0,0,0,162.9,172.752Z" transform="translate(-141.716 -147.605)"/>
          <path id="Trazado_1004102" data-name="Trazado 1004102" d="M113.329,218.648a.939.939,0,0,0-1.738-.715c0,.005-.27.548-1.256.548s-1.254-.543-1.256-.548a.939.939,0,0,0-1.738.715,3.473,3.473,0,0,0,5.987,0Z" transform="translate(-93.862 -190.183)"/>
          <path id="Trazado_1004103" data-name="Trazado 1004103" d="M336,168.692a.939.939,0,0,0-.939.939v2.182a.939.939,0,1,0,1.879,0v-2.182A.939.939,0,0,0,336,168.692Z" transform="translate(-293.179 -147.606)"/>
          <path id="Trazado_1004104" data-name="Trazado 1004104" d="M411.382,168.692a.939.939,0,0,0-.939.939v2.182a.939.939,0,1,0,1.879,0v-2.182A.939.939,0,0,0,411.382,168.692Z" transform="translate(-359.138 -147.606)"/>
          <path id="Trazado_1004105" data-name="Trazado 1004105" d="M361.3,217.422a.94.94,0,0,0-1.226.512c0,.005-.27.548-1.256.548s-1.254-.543-1.256-.548a.939.939,0,0,0-1.738.715,3.473,3.473,0,0,0,5.987,0A.94.94,0,0,0,361.3,217.422Z" transform="translate(-311.284 -190.183)"/>
          <path id="Trazado_1004106" data-name="Trazado 1004106" d="M53.3,33.992a10.754,10.754,0,0,0,3.322-3.4,9.6,9.6,0,0,0,4.432,4.5.945.945,0,0,0,1.275-.383,14.843,14.843,0,0,0,1.353-4.024c.508-2.9-.162-5.243-1.937-6.8a4.158,4.158,0,0,0-.6-1.732c1.179-6.1.218-11.437-2.723-15.049-2.512-3.085-6.278-4.716-10.892-4.716S39.154,4.016,36.641,7.1c-2.941,3.612-3.9,8.945-2.723,15.049a4.16,4.16,0,0,0-.6,1.731c-1.775,1.561-2.445,3.9-1.937,6.8a14.843,14.843,0,0,0,1.353,4.024.945.945,0,0,0,1.275.383,9.6,9.6,0,0,0,4.432-4.5,10.685,10.685,0,0,0,3.324,3.4,12.878,12.878,0,0,0-4.253,1.543.939.939,0,1,0,.943,1.625A11.024,11.024,0,0,1,43.371,35.7l1.912,4.434a2.451,2.451,0,0,0,4.5,0L51.7,35.7A11.055,11.055,0,0,1,62.121,46.721v4.386H57.866V45.952a.939.939,0,0,0-1.879,0V62.124H39.08V52.1c0-.018,0-.035,0-.053s0-.036,0-.053V45.952a.939.939,0,0,0-1.879,0v5.155H32.946V46.72a11.019,11.019,0,0,1,2.827-7.378.939.939,0,0,0-1.4-1.256A12.9,12.9,0,0,0,32,41.9,12.968,12.968,0,0,0,22.218,34a10.721,10.721,0,0,0,4.321-5.472,4.183,4.183,0,0,0,3.473-6.5,14.2,14.2,0,0,0,1.734-12.2,10.5,10.5,0,0,0-6.29-6.767,11.772,11.772,0,0,0-4.648-.89c-.966-.92-3.721-2.893-8.848-1.9a10.79,10.79,0,0,0-4.881,2.5A.939.939,0,1,0,8.3,4.2a8.92,8.92,0,0,1,4.014-2.084c5.231-1.013,7.315,1.524,7.4,1.625a.868.868,0,0,0,1.017.332c.148-.028,1.373-.213,4.095.758a8.642,8.642,0,0,1,5.139,5.59,12.465,12.465,0,0,1-1.348,10.3,4.148,4.148,0,0,0-1.481-.515v-.842a.939.939,0,0,0-.684-.9c-3.974-1.121-6.994-6.167-7.043-6.249a.939.939,0,0,0-1.557-.095c-4.213,5.517-11.129,6.3-11.2,6.312a.939.939,0,0,0-.844.934v.844a4.159,4.159,0,0,0-1.969.846c-1.588-3.623-1.521-9.092,2.1-14.225A.939.939,0,1,0,4.412,5.743,19.077,19.077,0,0,0,1.1,14.19a13.9,13.9,0,0,0,1.465,8.525,4.185,4.185,0,0,0,3.842,5.817A10.721,10.721,0,0,0,10.726,34,12.946,12.946,0,0,0,0,46.74v8.715a.939.939,0,1,0,1.879,0v-2.47H6.137v9.138H1.879V59.212a.939.939,0,1,0-1.879,0v3.851A.939.939,0,0,0,.939,64H63.061A.939.939,0,0,0,64,63.063V46.72A12.941,12.941,0,0,0,53.3,33.992Zm8.007-7.731c1.291,2.163.374,5.171-.227,6.658a6.746,6.746,0,0,1-3.15-4.4A4.188,4.188,0,0,0,61.308,26.261Zm-3.23.339A10.723,10.723,0,0,0,58.2,25.02v-2.9a2.305,2.305,0,0,1-.118,4.477Zm-21.088,0a2.305,2.305,0,0,1-.119-4.477v2.9A10.724,10.724,0,0,0,36.99,26.6Zm-3,6.318c-.6-1.487-1.517-4.5-.227-6.658a4.187,4.187,0,0,0,3.376,2.256A6.744,6.744,0,0,1,33.986,32.919Zm3.623-12.754c-.044,0-.089,0-.133,0a4.151,4.151,0,0,0-1.912.465c-.747-5.051.135-9.391,2.536-12.339,2.143-2.632,5.406-4.024,9.435-4.024s7.292,1.391,9.435,4.024c2.4,2.948,3.282,7.289,2.535,12.34a4.151,4.151,0,0,0-1.913-.465c-.075,0-.151,0-.226.006-1.617-.509-3.663-2.013-5.932-4.368a42.014,42.014,0,0,1-3.145-3.672.94.94,0,0,0-.748-.381h-.007a.94.94,0,0,0-.747.369A30.274,30.274,0,0,1,37.609,20.165ZM48.059,39.388a.572.572,0,0,1-1.051,0l-1.6-3.709h4.25ZM47.533,33.8A8.787,8.787,0,0,1,38.75,25.02V21.685a31.785,31.785,0,0,0,8.777-7.479c1.56,1.936,5.282,6.205,8.79,7.584V25.02A8.787,8.787,0,0,1,47.533,33.8Zm-18.7-9.454A2.309,2.309,0,0,1,27.018,26.6a10.72,10.72,0,0,0,.118-1.581v-2.9A2.308,2.308,0,0,1,28.834,24.347Zm-24.721,0a2.308,2.308,0,0,1,1.7-2.223v2.9A10.72,10.72,0,0,0,5.929,26.6a2.309,2.309,0,0,1-1.816-2.254Zm3.577.673V20.169a19.668,19.668,0,0,0,10.822-5.906c1.152,1.626,3.59,4.593,6.745,5.78v4.977a8.783,8.783,0,1,1-17.567,0ZM19.447,35.693a3.959,3.959,0,0,1-.925,2.1,2.687,2.687,0,0,1-2.049.767A2.689,2.689,0,0,1,14.43,37.8a3.943,3.943,0,0,1-.932-2.109ZM31.068,62.124H26.81V52.985h4.258Zm0-11.017H26.81V45.972a.939.939,0,0,0-1.879,0V62.124H8.015V45.972a.939.939,0,0,0-1.879,0v5.135H1.879V46.74a11.063,11.063,0,0,1,9.733-10.968A5.949,5.949,0,0,0,13.07,39.1a4.526,4.526,0,0,0,3.4,1.343,4.526,4.526,0,0,0,3.4-1.343,5.949,5.949,0,0,0,1.458-3.327A11.063,11.063,0,0,1,31.067,46.74v4.367ZM37.2,62.124H32.946V52.985H37.2Zm24.92,0H57.866V52.985h4.255Z" transform="translate(0 -0.002)"/>
        </g>
      </g>
    </g>
  </g>
</svg>
