<svg xmlns="http://www.w3.org/2000/svg" width="40" height="38.189" viewBox="0 0 40 38.189">
  <g id="Grupo_1178338" data-name="Grupo 1178338" transform="translate(0.001 -11.587)">
    <path id="Trazado_998748" data-name="Trazado 998748" d="M192.78,185.021V181.03a3.712,3.712,0,0,0-2.694-3.564,4.233,4.233,0,1,0-6.32,0,3.712,3.712,0,0,0-2.694,3.564v3.991a1.527,1.527,0,0,0,1.526,1.526h8.656A1.527,1.527,0,0,0,192.78,185.021Zm-5.854-13.039a2.671,2.671,0,1,1-2.671,2.671A2.674,2.674,0,0,1,186.926,171.982Zm4.291,13h-8.582V181.03a2.146,2.146,0,0,1,2.143-2.143h4.3a2.146,2.146,0,0,1,2.143,2.143v3.955Z" transform="translate(-166.926 -146.424)" fill="#3e5d56"/>
    <path id="Trazado_998749" data-name="Trazado 998749" d="M39.92,30.447a1.585,1.585,0,0,0-1.287-1.085L37.5,29.2A17.741,17.741,0,0,0,24.772,14.976,1.584,1.584,0,0,0,23.524,14l-1.447-.21-.647-1.311a1.595,1.595,0,0,0-2.86,0l-.647,1.311L16.475,14a1.584,1.584,0,0,0-1.248.978A17.741,17.741,0,0,0,2.5,29.2l-1.137.165a1.595,1.595,0,0,0-.884,2.72L1.529,33.1l-.247,1.441a1.6,1.6,0,0,0,1.531,1.865,17.732,17.732,0,0,0,34.372,0,1.6,1.6,0,0,0,1.531-1.865L38.47,33.1l1.047-1.021a1.585,1.585,0,0,0,.4-1.635ZM24.408,16.718a1.623,1.623,0,0,0,.156-.177A16.206,16.206,0,0,1,35.349,26.97a1.627,1.627,0,0,0-.241-.018,1.583,1.583,0,0,0-1.267.627,14.6,14.6,0,0,0-10.452-9.671l-.029-.168Zm-7.734-1.152c.006-.019.013-.02.026-.022l1.854-.269a.781.781,0,0,0,.588-.427l.829-1.68c.006-.012.009-.018.029-.018s.023.006.029.018l.829,1.68a.781.781,0,0,0,.588.427l1.854.269c.013,0,.02,0,.026.022a.025.025,0,0,1-.008.033l-1.341,1.307a.781.781,0,0,0-.225.691l.317,1.846a.032.032,0,0,1-.047.034l-1.658-.872a.781.781,0,0,0-.727,0l-1.658.872a.032.032,0,0,1-.047-.034l.317-1.846a.781.781,0,0,0-.225-.691L16.682,15.6a.025.025,0,0,1-.008-.033Zm-8.731,5.72a16.1,16.1,0,0,1,7.492-4.744,1.622,1.622,0,0,0,.156.177l1.047,1.021-.029.168A14.6,14.6,0,0,0,6.158,27.578a1.583,1.583,0,0,0-1.267-.627,1.617,1.617,0,0,0-.241.018,16.093,16.093,0,0,1,3.293-5.684Zm-6.37,9.678a.025.025,0,0,1-.008-.033c.006-.019.013-.02.026-.022l1.854-.269a.781.781,0,0,0,.588-.427l.829-1.68c.006-.012.009-.018.029-.018s.023.006.029.018l.829,1.68a.781.781,0,0,0,.588.427l1.854.269c.013,0,.02,0,.026.022a.025.025,0,0,1-.008.033L6.867,32.271a.781.781,0,0,0-.225.691l.307,1.792a.777.777,0,0,0-.3-.052l-1.391-.731a.781.781,0,0,0-.727,0l-1.658.872a.032.032,0,0,1-.047-.034l.317-1.846a.781.781,0,0,0-.225-.691ZM30.268,44.534a16.168,16.168,0,0,1-25.98-8.673l.6-.317,1.152.605a14.56,14.56,0,0,0,10.274,9.975.781.781,0,0,0,.4-1.511A13,13,0,0,1,7.7,36.208a1.634,1.634,0,0,0,.165-.1,1.585,1.585,0,0,0,.634-1.56L8.252,33.1,9.3,32.082a1.595,1.595,0,0,0-.884-2.72L7.332,29.2a13.026,13.026,0,0,1,9.042-9.618,1.595,1.595,0,0,0,2.331,1.274L20,20.181l1.294.68a1.595,1.595,0,0,0,2.331-1.274A13.027,13.027,0,0,1,32.667,29.2l-1.083.157a1.595,1.595,0,0,0-.884,2.72L31.748,33.1,31.5,34.544a1.585,1.585,0,0,0,.634,1.56,1.618,1.618,0,0,0,.165.1,13,13,0,0,1-9.012,8.405.781.781,0,1,0,.4,1.511A14.559,14.559,0,0,0,33.957,36.15l1.151-.605.6.316a16.223,16.223,0,0,1-5.443,8.673Zm8.158-13.571-1.341,1.307a.781.781,0,0,0-.225.691l.317,1.846a.032.032,0,0,1-.047.034l-1.658-.872a.781.781,0,0,0-.727,0l-1.379.725a.777.777,0,0,0-.315.053l.306-1.786a.781.781,0,0,0-.225-.691l-1.341-1.307a.025.025,0,0,1-.008-.033c.006-.019.013-.02.026-.022l1.854-.269a.781.781,0,0,0,.588-.427l.829-1.68c.006-.012.009-.018.029-.018s.023.006.029.018l.829,1.68a.781.781,0,0,0,.588.427l1.854.269c.013,0,.02,0,.026.022a.025.025,0,0,1-.008.033Z" transform="translate(0)" fill="#3e5d56"/>
    <circle id="Elipse_13694" data-name="Elipse 13694" cx="0.781" cy="0.781" r="0.781" transform="translate(19.218 45.027)" fill="#3e5d56"/>
  </g>
</svg>
