<svg xmlns="http://www.w3.org/2000/svg" width="128" height="128" viewBox="0 0 128 128">
  <g id="Grupo_1177482" data-name="Grupo 1177482" transform="translate(-383.746 -8400)">
    <path id="Trazado_997401" data-name="Trazado 997401" d="M64,0A64,64,0,1,1,0,64,64,64,0,0,1,64,0Z" transform="translate(383.746 8400)" fill="#565097"/>
    <g id="Grupo_1180398" data-name="Grupo 1180398" transform="translate(409.249 8428.04)">
      <path id="Trazado_1004178" data-name="Trazado 1004178" d="M103.481,82.728l4.993,20.814a1.081,1.081,0,0,0,1.066.842.506.506,0,0,0,.281-.056,1.142,1.142,0,0,0,.842-1.346l-4.993-20.87c0-.056,0-.112-.056-.112A12.327,12.327,0,0,0,96.3,74.2a20.793,20.793,0,0,1,1.066,2.581A10.167,10.167,0,0,1,103.481,82.728Z" transform="translate(-39.655 -32.539)" fill="#fff5c1"/>
      <path id="Trazado_1004179" data-name="Trazado 1004179" d="M6.827,104.327c.112,0,.168.056.281.056a1.081,1.081,0,0,0,1.066-.842l4.993-20.814a10.167,10.167,0,0,1,6.115-5.947A20.793,20.793,0,0,1,20.347,74.2,12.327,12.327,0,0,0,11.034,82a.2.2,0,0,1-.056.112L5.985,102.98a1.159,1.159,0,0,0,.842,1.346Z" transform="translate(0 -32.539)" fill="#fff5c1"/>
      <path id="Trazado_1004180" data-name="Trazado 1004180" d="M28.329,47.271A3.448,3.448,0,0,0,25.972,49.4c-.168.393-.449,1.01-.729,1.683-1.29,2.693-2.973,6.34-1.907,8.752a3.4,3.4,0,0,0,2.356,1.907c.112,0,.168.056.281.056a1.081,1.081,0,0,0,1.066-.842,1.043,1.043,0,0,0-.785-1.346c-.617-.168-.842-.449-.9-.673-.673-1.459.9-4.825,1.851-6.844q.5-1.094.842-1.851a1.116,1.116,0,0,1,2.132,0,12.244,12.244,0,0,0,.842,1.851c.954,2.02,2.525,5.386,1.851,6.844a1.206,1.206,0,0,1-.9.673,1.1,1.1,0,0,0,.561,2.132,3.4,3.4,0,0,0,2.356-1.907c1.122-2.412-.617-6.059-1.907-8.752a11.536,11.536,0,0,1-.729-1.627,3.26,3.26,0,0,0-1.739-1.907A16.032,16.032,0,0,1,38.932,36.5,9.545,9.545,0,0,0,41.4,37.846a12.289,12.289,0,0,0-3.815,2.188c-.056.056-.168.112-.224.168A12.921,12.921,0,0,0,34.5,43.624c.224,0,.393-.056.617-.056l9.93,27.546a1.144,1.144,0,0,0,2.132,0l9.93-27.546a2.3,2.3,0,0,0,.617.056A15.219,15.219,0,0,0,54.865,40.2c-.056-.056-.168-.112-.224-.168a15.017,15.017,0,0,0-3.815-2.188A14.74,14.74,0,0,0,53.294,36.5a15.669,15.669,0,0,1,8.471,11.95,4.492,4.492,0,1,0,2.244-.056,17.817,17.817,0,0,0-8.976-13.465c3.086-3.254,4.544-7.854,5.274-11.277.842-4.039,1.907-12.006-1.739-17.616C56.268,2.726,52.845.762,48.245.2A20.512,20.512,0,0,0,43.7.2c-4.6.561-8.023,2.525-10.154,5.891-3.2,4.993-2.749,11.838-1.964,16.157.561,3.422,1.964,8.976,5.554,12.735a17.864,17.864,0,0,0-8.808,12.286Zm36.747,5.5a2.244,2.244,0,1,1-2.244-2.244A2.251,2.251,0,0,1,65.076,52.769Zm-23,3.7L39.549,49.4l2.356-1.122.168,1.739a1.114,1.114,0,0,0,.673.9Zm-3.31-9.145-1.571-4.376c.449-.224.9-.5,1.346-.785l5.049,2.917ZM46,67.412l-2.244-6.227,1.234-10.1h2.076l1.234,10.1ZM44.037,47.327,46,46.373l1.964.954L47.8,48.842H44.206Zm5.891,9.145-.673-5.5a1.236,1.236,0,0,0,.673-.9l.168-1.739,2.356,1.122Zm4.881-13.521-1.571,4.376-4.825-2.244,5.049-2.917C53.911,42.446,54.36,42.727,54.809,42.951Zm-3.03-2.412L46,43.849l-5.779-3.31a7.576,7.576,0,0,0,1.346-2.581,12.776,12.776,0,0,0,3.7.842c.281,0,.5.056.785.056a3.7,3.7,0,0,0,.785-.056,12.776,12.776,0,0,0,3.7-.842A7.813,7.813,0,0,0,51.779,40.539ZM33.434,18.883c-.337-3.7-.168-8.247,2.02-11.613,1.739-2.749,4.6-4.376,8.528-4.825a15.773,15.773,0,0,1,3.983,0c3.927.5,6.788,2.132,8.528,4.881,2.244,3.534,2.412,8.3,2.02,12.118-.112-.281-.281-.561-.393-.785A16.374,16.374,0,0,1,56.1,13.5a2.272,2.272,0,0,0-1.178-1.571,2.424,2.424,0,0,0-2.02-.112,18.369,18.369,0,0,1-6.171,1.346H45.272A19.478,19.478,0,0,1,39.1,11.814a2.208,2.208,0,0,0-1.964.112A2.477,2.477,0,0,0,35.9,13.5a16.227,16.227,0,0,1-1.964,4.544A2.112,2.112,0,0,0,33.434,18.883Zm1.29,6.9c-.112-1.234-.056-4.656,1.122-6.676a17.49,17.49,0,0,0,2.244-5.161.055.055,0,0,1,.056-.056h.112a20.063,20.063,0,0,0,7.63,1.515H46a22.244,22.244,0,0,0,7.8-1.515h.112a.055.055,0,0,1,.056.056,18.582,18.582,0,0,0,2.3,5.779,11.744,11.744,0,0,1,1.122,5.947c-1.4,4.769-4.376,10.435-10.716,10.94a4.145,4.145,0,0,1-1.178,0c-6.34-.561-9.369-6.115-10.772-10.828Z" transform="translate(-7.477)" fill="#fff5c1"/>
      <path id="Trazado_1004181" data-name="Trazado 1004181" d="M28.122,118A1.125,1.125,0,0,0,27,119.122v3.366a1.122,1.122,0,0,0,2.244,0v-3.366A1.125,1.125,0,0,0,28.122,118Z" transform="translate(-9.234 -51.767)" fill="#fff5c1"/>
      <path id="Trazado_1004182" data-name="Trazado 1004182" d="M97,119.122v3.366a1.122,1.122,0,0,0,2.244,0v-3.366a1.122,1.122,0,0,0-2.244,0Z" transform="translate(-39.962 -51.767)" fill="#fff5c1"/>
      <path id="Trazado_1004183" data-name="Trazado 1004183" d="M80.927,108.854a1.125,1.125,0,0,0,1.122-1.122v-1.683h1.683a1.122,1.122,0,1,0,0-2.244H82.049v-1.683a1.122,1.122,0,0,0-2.244,0v1.683H78.122a1.122,1.122,0,0,0,0,2.244h1.683v1.683A1.125,1.125,0,0,0,80.927,108.854Z" transform="translate(-31.183 -44.304)" fill="#fff5c1"/>
    </g>
  </g>
</svg>
