<svg xmlns="http://www.w3.org/2000/svg" width="128" height="128" viewBox="0 0 128 128">
  <g id="Grupo_1177483" data-name="Grupo 1177483" transform="translate(-383.746 -8400)">
    <circle id="Elipse_13609" data-name="Elipse 13609" cx="64" cy="64" r="64" transform="translate(383.746 8400)" fill="#565097"/>
    <g id="Grupo_1179052" data-name="Grupo 1179052" transform="translate(389.632 8425.806)">
      <path id="Trazado_999907" data-name="Trazado 999907" d="M78.117,76.389A1.119,1.119,0,0,1,77,75.27V65.628a24.032,24.032,0,0,1,3.319-11.864,14.855,14.855,0,0,1-11.118-5.3,1.119,1.119,0,1,1,1.712-1.442,12.623,12.623,0,0,0,9.674,4.5c.35,0,.7-.014,1.05-.043.6-.981,1.217-1.958,1.845-2.945,2.982-4.685,6.051-9.507,6.88-16.067a15.739,15.739,0,0,1-13.394.647,15.72,15.72,0,0,1-28.811,5.588,1.119,1.119,0,1,1,1.9-1.187,13.481,13.481,0,0,0,24.811-5.466A15.724,15.724,0,0,1,67.256,18.6q0-.2,0-.4A13.514,13.514,0,0,0,62.4,16.936,15.715,15.715,0,0,1,57.72,30.7H67.812a3.751,3.751,0,0,1,3.746,3.746A3.361,3.361,0,0,1,68.2,37.8H54.774a3.361,3.361,0,0,1-3.357-3.357c0-.019,0-.039,0-.058A15.727,15.727,0,0,1,34.064,28.46a1.117,1.117,0,0,1-.181-.894,10.848,10.848,0,0,0,.183-2.157c0-8.7,3.022-15.345,8.982-19.763C48.031,1.953,54.972,0,63.121,0,72.456,0,80.193,3.053,85.5,8.828c4.719,5.139,7.319,12.291,7.319,20.139,0,9.074-3.786,15.023-7.447,20.775-3.153,4.954-6.132,9.633-6.132,15.886V75.27a1.119,1.119,0,0,1-1.119,1.119ZM67.083,35.564H68.2a1.12,1.12,0,0,0,1.119-1.119,1.51,1.51,0,0,0-1.509-1.509h-.729Zm-4.476,0h2.238V32.937H62.607Zm-4.476,0h2.238V32.937H58.131Zm-2.967-2.628a1.51,1.51,0,0,0-1.508,1.509,1.12,1.12,0,0,0,1.119,1.119h1.119V32.937Zm-19-5.4A13.479,13.479,0,1,0,46.867,5.864h-.013A21.675,21.675,0,0,0,44.38,7.445C39.02,11.418,36.3,17.462,36.3,25.41A14.177,14.177,0,0,1,36.161,27.533ZM74.015,5.95a1.119,1.119,0,0,1,.688,2A13.48,13.48,0,0,0,90.567,29.733q.01-.379.01-.766c0-7.286-2.39-13.9-6.729-18.626-4.868-5.3-12.036-8.1-20.728-8.1A37.691,37.691,0,0,0,50.8,4.125,15.781,15.781,0,0,1,61.874,14.672a15.786,15.786,0,0,1,5.618,1.184,15.617,15.617,0,0,1,5.837-9.67,1.114,1.114,0,0,1,.686-.236ZM52.1,76.389a1.119,1.119,0,0,1-1.119-1.119V67.325c-3.169.554-11.089,1.734-14.988.476-3.351-1.081-5.439-5.526-7.172-15.308a3.661,3.661,0,0,1-2.227-4.383l1.147-4.188c-.475-.409-1.183-1.046-1.884-1.781-1.8-1.892-2.593-3.422-2.418-4.677.279-1.992,1.8-2.908,4.57-4.572,1.062-.639,2.384-1.434,3.962-2.473A1.119,1.119,0,0,1,33.2,32.286c-1.616,1.065-2.96,1.873-4.04,2.522-2.565,1.542-3.382,2.073-3.507,2.965-.041.293.293,1.214,1.806,2.806A25,25,0,0,0,29.7,42.646a1.119,1.119,0,0,1,.383,1.172L28.749,48.7a1.417,1.417,0,0,0,.992,1.741l4.882,1.338a1.119,1.119,0,0,1-.592,2.158l-2.816-.772c1.467,7.793,3.212,11.779,5.461,12.5,3.557,1.148,12.177-.18,15.2-.788a1.119,1.119,0,0,1,1.34,1.1v9.29A1.119,1.119,0,0,1,52.1,76.389Zm28.267-27.7a1.194,1.194,0,1,1,1.194-1.194A1.195,1.195,0,0,1,80.363,48.687Zm0-3.954a1.119,1.119,0,0,1-1.119-1.119V42.17a1.119,1.119,0,0,1,1.119-1.119,1.12,1.12,0,0,0,1.117-1.18,1.135,1.135,0,0,0-1.094-1.058,1.113,1.113,0,0,0-1.132.961,1.151,1.151,0,0,0-.011.158,1.119,1.119,0,1,1-2.238,0,3.408,3.408,0,0,1,.032-.466,3.358,3.358,0,0,1,3.325-2.891h.069a3.367,3.367,0,0,1,3.284,3.179,3.329,3.329,0,0,1-.918,2.488,3.365,3.365,0,0,1-1.315.853v.519a1.119,1.119,0,0,1-1.119,1.119ZM66.411,28.461H65.068a1.119,1.119,0,0,1-1.119-1.119V23.58a1.119,1.119,0,1,1,2.238,0v2.643h.224a1.119,1.119,0,0,1,0,2.238Zm20.873-.7a1.116,1.116,0,0,1-.791-.328,6.868,6.868,0,0,0-9.7,0,1.119,1.119,0,0,1-1.583-1.583,9.1,9.1,0,0,1,12.868,0,1.119,1.119,0,0,1-.791,1.91ZM46.866,27.6a7.867,7.867,0,0,1-7.661-6.008,1.119,1.119,0,1,1,2.174-.532,5.65,5.65,0,0,0,10.974,0,1.119,1.119,0,1,1,2.174.532,7.866,7.866,0,0,1-7.66,6.008ZM83.6,21.107h0a3.674,3.674,0,0,1-2.672-1.151,1.119,1.119,0,0,1,1.616-1.548,1.44,1.44,0,0,0,2.112,0,1.119,1.119,0,1,1,1.616,1.548A3.674,3.674,0,0,1,83.6,21.107Zm-8,0h0a3.674,3.674,0,0,1-2.672-1.151,1.119,1.119,0,0,1,1.616-1.548,1.44,1.44,0,0,0,2.112,0,1.119,1.119,0,0,1,1.616,1.548A3.674,3.674,0,0,1,75.592,21.107ZM49.1,20.139a1.119,1.119,0,0,1-1.119-1.119V15.259a1.119,1.119,0,1,1,2.238,0V19.02A1.119,1.119,0,0,1,49.1,20.139Zm-4.476,0a1.119,1.119,0,0,1-1.119-1.119V15.259a1.119,1.119,0,1,1,2.238,0V19.02A1.119,1.119,0,0,1,44.628,20.139Zm21.985-9.866a1.116,1.116,0,0,1-.791-.328L64.694,8.817,63.566,9.945a1.119,1.119,0,0,1-1.583-1.583l1.128-1.128L61.983,6.107a1.119,1.119,0,0,1,1.583-1.583l1.128,1.128,1.128-1.128A1.119,1.119,0,0,1,67.4,6.107L66.276,7.235,67.4,8.363a1.119,1.119,0,0,1-.791,1.91Z" transform="translate(0)" fill="#fff5c1"/>
    </g>
  </g>
</svg>
