<svg xmlns="http://www.w3.org/2000/svg" width="38.42" height="40.3" viewBox="0 0 38.42 40.3">
  <g id="Grupo_1178339" data-name="Grupo 1178339" transform="translate(-11.987 0.15)">
    <path id="Trazado_998750" data-name="Trazado 998750" d="M85.607,12.823a3.063,3.063,0,0,0,2.341-1.088,3.067,3.067,0,0,0,5.164.131,3.062,3.062,0,0,0,4.323.533v1.887c0,.261-.006.52-.017.768a.586.586,0,0,0,.559.611H98a.586.586,0,0,0,.585-.56c.012-.265.018-.541.018-.82v-4.3s0,0,0,0V5.493a3.066,3.066,0,0,0-5.1-2.3,3.066,3.066,0,0,0-5.071-1.309A3.068,3.068,0,0,0,82.8,1.829a3.095,3.095,0,0,0-5.267,2.178V5.842l-.412.1A3.064,3.064,0,0,0,74.71,8.887l0,1.291a.586.586,0,0,0,.586.585h0a.586.586,0,0,0,.585-.587l0-1.248a1.894,1.894,0,0,1,1.5-1.842l5.313-1.3A1.9,1.9,0,1,1,83.463,9.5l-2.877.753a.586.586,0,0,0-.422.7l.626,2.662a.59.59,0,0,0,.574.452,5.774,5.774,0,0,1,3.439.974,6.042,6.042,0,0,1,2.185,3.163.586.586,0,1,0,1.113-.367,7.181,7.181,0,0,0-2.623-3.754,6.766,6.766,0,0,0-3.65-1.178l-.391-1.663,1.322-.346a3.082,3.082,0,0,0,2.849,1.926ZM95.538,3.6a1.9,1.9,0,0,1,1.9,1.9v4.5a1.9,1.9,0,0,1-3.794,0v-4.5A1.9,1.9,0,0,1,95.538,3.6ZM90.572,2.188a1.9,1.9,0,0,1,1.9,1.9v6.06a1.9,1.9,0,1,1-3.794,0V4.085a1.9,1.9,0,0,1,1.9-1.9ZM78.705,5.556V4.007a1.917,1.917,0,0,1,3.833,0v.617Zm7.38,1.436A3.09,3.09,0,0,0,83.71,4.638V3.069a1.9,1.9,0,1,1,3.794,0V9.755a1.9,1.9,0,0,1-3.6.843A3.073,3.073,0,0,0,86.085,6.991Z" transform="translate(-57.683)" fill="#3e5d56" stroke="#707070" stroke-width="0.3"/>
    <path id="Trazado_998751" data-name="Trazado 998751" d="M29.935,172.469a.586.586,0,0,0-.528-.332H25.032V170.08a4.45,4.45,0,0,0-2.554-4.015l-.017-.008a6.937,6.937,0,0,1-3.966-6.246v-.926a.586.586,0,0,0-.586-.585h0a.586.586,0,0,0-.585.586v.926a8.113,8.113,0,0,0,4.657,7.314l.016.007a3.274,3.274,0,0,1,1.863,2.946v2.057H22.624a6.836,6.836,0,0,0-2.776.583.586.586,0,0,0,.473,1.072,5.67,5.67,0,0,1,2.3-.484h5.564l-.556.7a.586.586,0,0,0,0,.732l.556.7H22.624A3.621,3.621,0,0,0,19.8,176.8H17.352a5.674,5.674,0,0,1,.95-1.518.586.586,0,1,0-.884-.769A6.827,6.827,0,0,0,16.1,176.8H14.688a2.241,2.241,0,0,0-2.227,2.068,2.188,2.188,0,0,0,.59,1.665,2.305,2.305,0,0,0,1.683.734H16.1a6.97,6.97,0,0,0,2.369,3.268,6.83,6.83,0,0,0,4.157,1.4h5.1a.586.586,0,0,0,.456-.219l1.363-1.694a.586.586,0,0,0,0-.732l-1.271-1.6a.586.586,0,0,0-.459-.222H25.032V176.6h4.374a.586.586,0,0,0,.458-.952L28.84,174.37l1.025-1.281A.586.586,0,0,0,29.935,172.469Zm-16.025,7.268a1.028,1.028,0,0,1-.28-.781,1.065,1.065,0,0,1,1.059-.982H20.4a1.129,1.129,0,0,1,.825.359,1.028,1.028,0,0,1,.28.781,1.065,1.065,0,0,1-1.059.982H14.734A1.13,1.13,0,0,1,13.909,179.737Zm14.427,3.914-.894,1.11H22.624a5.767,5.767,0,0,1-5.27-3.493H19.8a3.621,3.621,0,0,0,2.824,1.37h4.908Zm-4.476-2.184H22.624a2.41,2.41,0,0,1-1.3-.378,2.241,2.241,0,0,0,1.354-1.888,2.188,2.188,0,0,0-.59-1.665,2.3,2.3,0,0,0-.776-.546,2.41,2.41,0,0,1,1.315-.386H23.86Z" transform="translate(-0.291 -145.933)" fill="#3e5d56" stroke="#707070" stroke-width="0.3"/>
    <path id="Trazado_998752" data-name="Trazado 998752" d="M288.495,235.385h-1.364a6.967,6.967,0,0,0-2.369-3.268,6.831,6.831,0,0,0-4.157-1.4h-1.236v-1.581a7.213,7.213,0,0,1,.579-2.836l.01-.024a19.182,19.182,0,0,0,1.152-3.73.586.586,0,1,0-1.149-.23,18.019,18.019,0,0,1-1.084,3.506l-.01.024a8.373,8.373,0,0,0-.67,3.29v1.581h-2.845a.586.586,0,0,0-.457.22l-1.318,1.647a.586.586,0,0,0,0,.732l1.317,1.648a.586.586,0,0,0,.458.22H278.2v4.863H273.76a.586.586,0,0,0-.459.95l.98,1.234-1.07,1.329a.586.586,0,0,0,.456.953h6.938a6.831,6.831,0,0,0,4.157-1.4,6.97,6.97,0,0,0,2.369-3.268h1.41a2.241,2.241,0,0,0,2.227-2.068,2.188,2.188,0,0,0-.59-1.665A2.306,2.306,0,0,0,288.495,235.385Zm-13.71-2.432.849-1.061h4.972a5.766,5.766,0,0,1,5.27,3.493h-2.447a3.621,3.621,0,0,0-2.824-1.37h-4.972Zm4.585,2.233h1.236a2.41,2.41,0,0,1,1.3.378,2.241,2.241,0,0,0-1.354,1.888,2.188,2.188,0,0,0,.59,1.665,2.3,2.3,0,0,0,.776.546,2.41,2.41,0,0,1-1.315.386h-1.236Zm1.236,8.158h-5.714l.6-.74a.586.586,0,0,0,0-.732l-.516-.65h5.632a3.621,3.621,0,0,0,2.824-1.37h2.447A5.767,5.767,0,0,1,280.605,243.345ZM289.6,237.7a1.065,1.065,0,0,1-1.059.982h-5.714a1.129,1.129,0,0,1-.825-.359,1.028,1.028,0,0,1-.28-.781,1.065,1.065,0,0,1,1.059-.982h5.714a1.129,1.129,0,0,1,.825.359A1.028,1.028,0,0,1,289.6,237.7Z" transform="translate(-240.557 -204.517)" fill="#3e5d56" stroke="#707070" stroke-width="0.3"/>
    <path id="Trazado_998753" data-name="Trazado 998753" d="M433.732,292.82a.584.584,0,0,0,.414-.172l2.164-2.164a.586.586,0,0,0-.829-.829l-2.164,2.164a.586.586,0,0,0,.414,1Z" transform="translate(-388.116 -266.868)" fill="#3e5d56" stroke="#707070" stroke-width="0.3"/>
    <path id="Trazado_998754" data-name="Trazado 998754" d="M407.224,268.6a.585.585,0,0,0,.718-.414l.531-1.981a.586.586,0,1,0-1.132-.3l-.531,1.981A.586.586,0,0,0,407.224,268.6Z" transform="translate(-363.819 -244.729)" fill="#3e5d56" stroke="#707070" stroke-width="0.3"/>
    <path id="Trazado_998755" data-name="Trazado 998755" d="M459.521,338.012a.585.585,0,0,0,.718.414l1.981-.531a.586.586,0,1,0-.3-1.132l-1.981.531A.586.586,0,0,0,459.521,338.012Z" transform="translate(-412.412 -310.435)" fill="#3e5d56" stroke="#707070" stroke-width="0.3"/>
    <path id="Trazado_998756" data-name="Trazado 998756" d="M38.49,292.648a.586.586,0,1,0,.829-.829l-2.164-2.164a.586.586,0,0,0-.829.829Z" transform="translate(-22.139 -266.868)" fill="#3e5d56" stroke="#707070" stroke-width="0.3"/>
    <path id="Trazado_998757" data-name="Trazado 998757" d="M84.531,268.621a.586.586,0,0,0,.566-.738l-.531-1.981a.586.586,0,1,0-1.132.3l.531,1.981A.586.586,0,0,0,84.531,268.621Z" transform="translate(-65.708 -244.728)" fill="#3e5d56" stroke="#707070" stroke-width="0.3"/>
    <path id="Trazado_998758" data-name="Trazado 998758" d="M12.573,337.9l1.981.531a.586.586,0,0,0,.3-1.132l-1.981-.531a.586.586,0,1,0-.3,1.132Z" transform="translate(0 -310.436)" fill="#3e5d56" stroke="#707070" stroke-width="0.3"/>
  </g>
</svg>
