<svg xmlns="http://www.w3.org/2000/svg" width="128" height="128" viewBox="0 0 128 128">
  <g id="Grupo_1177483" data-name="Grupo 1177483" transform="translate(-383.746 -8400)">
    <circle id="Elipse_13609" data-name="Elipse 13609" cx="64" cy="64" r="64" transform="translate(383.746 8400)" fill="#565097"/>
    <g id="Grupo_1180400" data-name="Grupo 1180400" transform="translate(413.62 8428.4)">
      <g id="Grupo_1180399" data-name="Grupo 1180399" transform="translate(0 1.7)">
        <path id="Trazado_1004184" data-name="Trazado 1004184" d="M282.739,430.072a1,1,0,0,0,1-1v-2.7a1,1,0,1,0-2,0v2.7A1,1,0,0,0,282.739,430.072Z" transform="translate(-244.182 -368.899)" fill="#fff5c1"/>
        <path id="Trazado_1004185" data-name="Trazado 1004185" d="M216.231,430.212a1,1,0,0,0,1-1v-2.692a1,1,0,0,0-2,0v2.692A1,1,0,0,0,216.231,430.212Z" transform="translate(-186.54 -369.023)" fill="#fff5c1"/>
        <path id="Trazado_1004186" data-name="Trazado 1004186" d="M423.276,325.6h5.758a1,1,0,1,0,0-2h-5.758a1,1,0,1,0,0,2Z" transform="translate(-365.984 -280.691)" fill="#fff5c1"/>
        <path id="Trazado_1004187" data-name="Trazado 1004187" d="M423.276,374.927h5.758a1,1,0,1,0,0-2h-5.758a1,1,0,1,0,0,2Z" transform="translate(-365.984 -323.44)" fill="#fff5c1"/>
        <path id="Trazado_1004188" data-name="Trazado 1004188" d="M423.276,424.252h5.758a1,1,0,1,0,0-2h-5.758a1,1,0,1,0,0,2Z" transform="translate(-365.984 -366.19)" fill="#fff5c1"/>
        <path id="Trazado_1004189" data-name="Trazado 1004189" d="M423.276,276.276h5.758a1,1,0,1,0,0-2h-5.758a1,1,0,1,0,0,2Z" transform="translate(-365.984 -237.94)" fill="#fff5c1"/>
        <path id="Trazado_1004190" data-name="Trazado 1004190" d="M38.29,323.6H32.533a1,1,0,0,0,0,2H38.29a1,1,0,0,0,0-2Z" transform="translate(-27.329 -280.691)" fill="#fff5c1"/>
        <path id="Trazado_1004191" data-name="Trazado 1004191" d="M38.29,372.927H32.533a1,1,0,1,0,0,2H38.29a1,1,0,1,0,0-2Z" transform="translate(-27.329 -323.44)" fill="#fff5c1"/>
        <path id="Trazado_1004192" data-name="Trazado 1004192" d="M38.29,422.252H32.533a1,1,0,1,0,0,2H38.29a1,1,0,1,0,0-2Z" transform="translate(-27.329 -366.19)" fill="#fff5c1"/>
        <path id="Trazado_1004193" data-name="Trazado 1004193" d="M38.29,274.276H32.533a1,1,0,0,0,0,2H38.29a1,1,0,0,0,0-2Z" transform="translate(-27.329 -237.94)" fill="#fff5c1"/>
        <path id="Trazado_1004194" data-name="Trazado 1004194" d="M164.145,192.058h-4.628a1.424,1.424,0,0,0-1.42,1.424v4.2a1.424,1.424,0,0,0,1.42,1.424h4.628a1.426,1.426,0,0,0,1.424-1.424v-4.2A1.426,1.426,0,0,0,164.145,192.058Zm-.576,5.052H160.1v-3.052h3.473Z" transform="translate(-137.022 -166.682)" fill="#fff5c1"/>
        <path id="Trazado_1004195" data-name="Trazado 1004195" d="M229.385,192.058a1.426,1.426,0,0,0-1.424,1.424v4.2a1.426,1.426,0,0,0,1.424,1.424h4.628a1.424,1.424,0,0,0,1.42-1.424v-4.2a1.424,1.424,0,0,0-1.42-1.424Zm4.048,5.052h-3.473v-3.052h3.473Z" transform="translate(-197.573 -166.682)" fill="#fff5c1"/>
        <path id="Trazado_1004196" data-name="Trazado 1004196" d="M299.277,199.11H303.9a1.426,1.426,0,0,0,1.424-1.424v-4.2a1.426,1.426,0,0,0-1.424-1.424h-4.624a1.426,1.426,0,0,0-1.424,1.424v4.2A1.426,1.426,0,0,0,299.277,199.11Zm.576-5.052h3.473v3.052h-3.473Z" transform="translate(-258.148 -166.682)" fill="#fff5c1"/>
        <path id="Trazado_1004197" data-name="Trazado 1004197" d="M164.145,260.795h-4.628a1.424,1.424,0,0,0-1.42,1.424v4.2a1.422,1.422,0,0,0,1.42,1.42h4.628a1.424,1.424,0,0,0,1.424-1.42v-4.2A1.426,1.426,0,0,0,164.145,260.795Zm-.576,5.048H160.1v-3.049h3.473Z" transform="translate(-137.022 -226.256)" fill="#fff5c1"/>
        <path id="Trazado_1004198" data-name="Trazado 1004198" d="M234.012,260.795h-4.628a1.426,1.426,0,0,0-1.424,1.424v4.2a1.424,1.424,0,0,0,1.424,1.42h4.628a1.422,1.422,0,0,0,1.42-1.42v-4.2A1.424,1.424,0,0,0,234.012,260.795Zm-.579,5.048H229.96v-3.049h3.473Z" transform="translate(-197.572 -226.256)" fill="#fff5c1"/>
        <path id="Trazado_1004199" data-name="Trazado 1004199" d="M299.277,267.843H303.9a1.424,1.424,0,0,0,1.424-1.42v-4.2a1.426,1.426,0,0,0-1.424-1.424h-4.624a1.426,1.426,0,0,0-1.424,1.424v4.2A1.424,1.424,0,0,0,299.277,267.843Zm.576-5.048h3.473v3.049h-3.473Z" transform="translate(-258.148 -226.256)" fill="#fff5c1"/>
        <path id="Trazado_1004200" data-name="Trazado 1004200" d="M66.5,25.591H54.088V22.743h.365a1.877,1.877,0,0,0,1.875-1.875v-4.5A1.877,1.877,0,0,0,54.453,14.5H46.391V3.367A1.671,1.671,0,0,0,44.72,1.7H23.529a1.669,1.669,0,0,0-1.667,1.667V14.5H13.8a1.879,1.879,0,0,0-1.879,1.875v4.5A1.879,1.879,0,0,0,13.8,22.743h.365v2.848H1.752A1.756,1.756,0,0,0,0,27.347V68.5a1,1,0,0,0,1,1H67.253a1,1,0,0,0,1-1V27.347A1.756,1.756,0,0,0,66.5,25.591ZM46.39,16.5h7.938v4.248H46.39ZM13.92,20.743V16.5h7.942v4.248ZM2,27.591H14.165v3.87H2Zm31.127,25V67.5H24.617V52.2H33.2A1,1,0,0,0,33.126,52.587ZM43.631,67.5H35.126V52.587a1,1,0,0,0-.078-.388h8.583V67.5Zm8.457,0H45.631V52.132A1.959,1.959,0,0,0,43.652,50.2H24.6a1.961,1.961,0,0,0-1.983,1.933V67.5H16.164V52.1a1,1,0,0,0-2,0V67.5H2V33.46H14.165V47.385a1,1,0,0,0,2,0V22.743H32.372a1,1,0,1,0,0-2h-8.51V3.7H44.391V20.743H37.08a1,1,0,1,0,0,2H52.088Zm14.164,0H54.088V33.46H66.253Zm0-36.039H54.088v-3.87H66.253Z" transform="translate(0 -1.7)" fill="#fff5c1"/>
        <path id="Trazado_1004201" data-name="Trazado 1004201" d="M216.91,42.582V41.538h1.044a2.271,2.271,0,0,0,2.269-2.269V37.423a2.271,2.271,0,0,0-2.269-2.269H216.91v-1.04a2.269,2.269,0,0,0-2.265-2.269h-1.851a2.271,2.271,0,0,0-2.269,2.269v1.04h-1.04a2.271,2.271,0,0,0-2.269,2.269V39.27a2.271,2.271,0,0,0,2.269,2.269h1.04v1.044a2.271,2.271,0,0,0,2.269,2.269h1.851A2.269,2.269,0,0,0,216.91,42.582Zm-4.385,0V40.539a1,1,0,0,0-1-1h-2.04a.273.273,0,0,1-.269-.269V37.423a.273.273,0,0,1,.269-.269h2.04a1,1,0,0,0,1-1v-2.04a.273.273,0,0,1,.269-.269h1.851a.271.271,0,0,1,.265.269v2.04a1,1,0,0,0,1,1h2.044a.273.273,0,0,1,.269.269V39.27a.273.273,0,0,1-.269.269h-2.044a1,1,0,0,0-1,1v2.044a.271.271,0,0,1-.265.269h-1.851A.273.273,0,0,1,212.526,42.582Z" transform="translate(-179.594 -27.827)" fill="#fff5c1"/>
      </g>
    </g>
  </g>
</svg>
