<svg xmlns="http://www.w3.org/2000/svg" width="128" height="128" viewBox="0 0 128 128">
  <g id="Grupo_1177484" data-name="Grupo 1177484" transform="translate(-381.746 -8402)">
    <path id="Trazado_997402" data-name="Trazado 997402" d="M64,0A64,64,0,1,1,0,64,64,64,0,0,1,64,0Z" transform="translate(381.746 8402)" fill="#565097"/>
    <g id="Grupo_1179053" data-name="Grupo 1179053" transform="translate(405.746 8425.806)">
      <path id="Trazado_999908" data-name="Trazado 999908" d="M25.161,45.463A5.166,5.166,0,0,0,30.323,40.3H27.742a2.581,2.581,0,1,1-5.161,0H20A5.166,5.166,0,0,0,25.161,45.463Z" transform="translate(5.806 11.701)" fill="#fff5c1"/>
      <path id="Trazado_999909" data-name="Trazado 999909" d="M39.161,45.463A5.166,5.166,0,0,0,44.323,40.3H41.742a2.581,2.581,0,1,1-5.161,0H34A5.166,5.166,0,0,0,39.161,45.463Z" transform="translate(9.871 11.701)" fill="#fff5c1"/>
      <path id="Trazado_999910" data-name="Trazado 999910" d="M26,57.044h7.742A7.75,7.75,0,0,0,41.484,49.3H38.9a5.166,5.166,0,0,1-5.161,5.161H26Z" transform="translate(7.548 14.313)" fill="#fff5c1"/>
      <path id="Trazado_999911" data-name="Trazado 999911" d="M60.9,49.422h-1.29V46.841a2.583,2.583,0,0,0-2.581-2.581h-.39A8.978,8.978,0,0,0,49.28,32.75c0-.035.01-.067.01-.1A6.459,6.459,0,0,0,42.839,26.2a6.385,6.385,0,0,0-3.871,1.324v-3.9h5.161A10.335,10.335,0,0,0,54.452,13.293V5.551H46.71a10.262,10.262,0,0,0-2.36.306A10.9,10.9,0,0,0,42.828,4.29L37.677,0l-5.15,4.29a10.764,10.764,0,0,0-1.521,1.566,10.282,10.282,0,0,0-2.361-.306H20.9v7.742A10.335,10.335,0,0,0,31.226,23.615h5.161v3.9A6.385,6.385,0,0,0,32.516,26.2a6.459,6.459,0,0,0-6.452,6.452c0,.035.01.067.01.1a8.978,8.978,0,0,0-7.363,11.511h-.39a2.583,2.583,0,0,0-2.581,2.581v2.581h-1.29a6.452,6.452,0,1,0,0,12.9h1.29v1.29A16.794,16.794,0,0,0,32.516,80.39H42.839A16.794,16.794,0,0,0,59.613,63.615v-1.29H60.9a6.452,6.452,0,1,0,0-12.9ZM42.839,28.777A3.871,3.871,0,1,1,41.87,36.4l-.643,2.5A6.441,6.441,0,0,0,48.7,35.3a6.41,6.41,0,0,1,5.2,8.961H51.871A5.166,5.166,0,0,0,46.71,39.1V41.68a2.583,2.583,0,0,1,2.581,2.581H38.968V32.648A3.875,3.875,0,0,1,42.839,28.777ZM46.71,8.132h5.161v5.161a7.75,7.75,0,0,1-7.742,7.742H42.592A10.678,10.678,0,0,0,46.3,15.523l3.9-3.9L48.378,9.8l-1.726,1.726a10.748,10.748,0,0,0-.876-3.32,7.77,7.77,0,0,1,.934-.075ZM34.181,6.274l3.5-2.914,3.5,2.915a8.209,8.209,0,0,1-1.585,13.65l-.622.312v-5.12l3.493-3.493L40.636,9.8l-1.668,1.668V8.132H36.387v5.917l-1.668-1.668-1.825,1.825L36.387,17.7v2.539l-.622-.311A8.211,8.211,0,0,1,34.181,6.274Zm-10.7,7.019V8.132h5.161a7.77,7.77,0,0,1,.934.075,10.785,10.785,0,0,0-.876,3.32L26.977,9.8l-1.825,1.825,3.9,3.9a10.683,10.683,0,0,0,3.712,5.512H31.226A7.751,7.751,0,0,1,23.484,13.293ZM20.9,41.68A6.439,6.439,0,0,1,26.65,35.3a6.441,6.441,0,0,0,7.477,3.6l-.643-2.5a3.871,3.871,0,1,1,2.9-3.748V44.261H26.065a2.583,2.583,0,0,1,2.581-2.581V39.1a5.166,5.166,0,0,0-5.161,5.161H21.448A6.461,6.461,0,0,1,20.9,41.68ZM14.452,59.745a3.871,3.871,0,1,1,0-7.742h1.29v2.751L13.877,53.51l-1.431,2.147,3.3,2.2v1.89Zm42.581,3.871A14.21,14.21,0,0,1,42.839,77.809H32.516A14.21,14.21,0,0,1,18.323,63.615V46.841l38.71,0ZM60.9,59.745h-1.29v-1.89l3.3-2.2L61.479,53.51l-1.866,1.243V52H60.9a3.872,3.872,0,0,1,0,7.743Z" transform="translate(2.323)" fill="#fff5c1"/>
      <path id="Trazado_999912" data-name="Trazado 999912" d="M0,28.3H5.161v2.581H0Z" transform="translate(0 8.217)" fill="#fff5c1"/>
      <path id="Trazado_999913" data-name="Trazado 999913" d="M6,28.3h7.742v2.581H6Z" transform="translate(1.742 8.217)" fill="#fff5c1"/>
      <path id="Trazado_999914" data-name="Trazado 999914" d="M0,0H2.579V15.484H0Z" transform="matrix(0.195, -0.981, 0.981, 0.195, 0.521, 31.267)" fill="#fff5c1"/>
      <path id="Trazado_999915" data-name="Trazado 999915" d="M0,0H2.581V5.163H0Z" transform="translate(2.555 23.698) rotate(-67.486)" fill="#fff5c1"/>
      <path id="Trazado_999916" data-name="Trazado 999916" d="M0,0H2.581V7.742H0Z" transform="translate(9.71 26.657) rotate(-67.486)" fill="#fff5c1"/>
      <path id="Trazado_999917" data-name="Trazado 999917" d="M0,0H2.581V5.161H0Z" transform="translate(10.801 10.438) rotate(-45)" fill="#fff5c1"/>
      <path id="Trazado_999918" data-name="Trazado 999918" d="M0,0H2.581V7.743H0Z" transform="translate(16.274 15.911) rotate(-45)" fill="#fff5c1"/>
      <path id="Trazado_999919" data-name="Trazado 999919" d="M0,0H15.484V2.579H0Z" transform="matrix(0.981, -0.195, 0.195, 0.981, 0.513, 44.356)" fill="#fff5c1"/>
      <path id="Trazado_999920" data-name="Trazado 999920" d="M0,0H2.579V15.484H0Z" transform="matrix(0.556, -0.832, 0.832, 0.556, 6.037, 16.658)" fill="#fff5c1"/>
      <path id="Trazado_999921" data-name="Trazado 999921" d="M58,28.3h5.161v2.581H58Z" transform="translate(16.839 8.217)" fill="#fff5c1"/>
      <path id="Trazado_999922" data-name="Trazado 999922" d="M50,28.3h7.742v2.581H50Z" transform="translate(14.516 8.217)" fill="#fff5c1"/>
      <path id="Trazado_999923" data-name="Trazado 999923" d="M0,0H15.484V2.579H0Z" transform="matrix(0.981, -0.195, 0.195, 0.981, 63.805, 31.771)" fill="#fff5c1"/>
      <path id="Trazado_999924" data-name="Trazado 999924" d="M0,0H5.163V2.581H0Z" transform="translate(71.708 23.269) rotate(-22.514)" fill="#fff5c1"/>
      <path id="Trazado_999925" data-name="Trazado 999925" d="M0,0H7.742V2.581H0Z" transform="translate(62.171 27.229) rotate(-22.514)" fill="#fff5c1"/>
      <path id="Trazado_999926" data-name="Trazado 999926" d="M0,0H5.161V2.581H0Z" transform="translate(63.714 12.267) rotate(-45)" fill="#fff5c1"/>
      <path id="Trazado_999927" data-name="Trazado 999927" d="M0,0H7.743V2.581H0Z" transform="translate(56.415 19.566) rotate(-45)" fill="#fff5c1"/>
      <path id="Trazado_999928" data-name="Trazado 999928" d="M0,0H2.579V15.484H0Z" transform="matrix(0.195, -0.981, 0.981, 0.195, 63.796, 43.84)" fill="#fff5c1"/>
      <path id="Trazado_999929" data-name="Trazado 999929" d="M0,0H15.484V2.579H0Z" transform="matrix(0.832, -0.556, 0.556, 0.832, 59.708, 23.101)" fill="#fff5c1"/>
    </g>
  </g>
</svg>
