<svg xmlns="http://www.w3.org/2000/svg" width="40.242" height="38.633" viewBox="0 0 40.242 38.633">
  <g id="Grupo_1178437" data-name="Grupo 1178437" transform="translate(0.1 -19.927)">
    <g id="Grupo_1178436" data-name="Grupo 1178436" transform="translate(0 20.027)">
      <path id="Trazado_998995" data-name="Trazado 998995" d="M264.137,69.334A1.175,1.175,0,0,1,263,68.465l-.968-3.612a1.172,1.172,0,0,1,2.264-.607l.968,3.612a1.172,1.172,0,0,1-1.132,1.475Zm-.969-5.174a.391.391,0,0,0-.391.392.377.377,0,0,0,.013.1l.968,3.612a.391.391,0,0,0,.755-.2h0l-.968-3.612A.391.391,0,0,0,263.168,64.16Zm0,0" transform="translate(-241.528 -59.991)" fill="#3e5d56" stroke="#3e5d56" stroke-width="0.2"/>
      <path id="Trazado_998996" data-name="Trazado 998996" d="M284.1,143.87a1.173,1.173,0,1,1,.305-.04A1.173,1.173,0,0,1,284.1,143.87Zm0-1.562a.391.391,0,1,0,.378.289.391.391,0,0,0-.378-.289Zm0,0" transform="translate(-260.819 -132.032)" fill="#3e5d56" stroke="#3e5d56" stroke-width="0.2"/>
      <path id="Trazado_998997" data-name="Trazado 998997" d="M35.99,214.569H34.434a.391.391,0,0,1-.391-.391v-9.464a.391.391,0,0,1,.391-.391H35.99a.728.728,0,0,1,.728.728v8.789a.729.729,0,0,1-.728.728Zm-1.166-.781h1.112v-8.683H34.824Zm1.166-8.683" transform="translate(-31.383 -189.926)" fill="#3e5d56" stroke="#3e5d56" stroke-width="0.2"/>
      <path id="Trazado_998998" data-name="Trazado 998998" d="M162.164,215.965h-1.137a.391.391,0,0,1,0-.781h1.137a.391.391,0,0,1,0,.781Zm0,0" transform="translate(-148.087 -199.938)" fill="#3e5d56" stroke="#3e5d56" stroke-width="0.2"/>
      <path id="Trazado_998999" data-name="Trazado 998999" d="M192.617,242.777H191.36a.391.391,0,0,1,0-.781h1.257a.391.391,0,0,1,0,.781Zm0,0" transform="translate(-176.05 -224.655)" fill="#3e5d56" stroke="#3e5d56" stroke-width="0.2"/>
      <path id="Trazado_999000" data-name="Trazado 999000" d="M192.617,269.594H191.36a.391.391,0,1,1,0-.781h1.257a.391.391,0,1,1,0,.781Zm0,0" transform="translate(-176.05 -249.377)" fill="#3e5d56" stroke="#3e5d56" stroke-width="0.2"/>
      <path id="Trazado_999001" data-name="Trazado 999001" d="M192.617,296.41H191.36a.391.391,0,0,1,0-.781h1.257a.391.391,0,0,1,0,.781Zm0,0" transform="translate(-176.05 -274.098)" fill="#3e5d56" stroke="#3e5d56" stroke-width="0.2"/>
      <path id="Trazado_999002" data-name="Trazado 999002" d="M2.43,207.624H1.011A1.012,1.012,0,0,1,0,206.613l0-9.7A1.013,1.013,0,0,1,1.013,195.9H2.43a1.012,1.012,0,0,1,1.011,1.011v9.7a1.012,1.012,0,0,1-1.011,1.011ZM1.013,196.679a.23.23,0,0,0-.23.23l0,9.7a.23.23,0,0,0,.23.23H2.43a.23.23,0,0,0,.23-.23v-9.7a.23.23,0,0,0-.23-.23Zm0,0" transform="translate(0 -182.159)" fill="#3e5d56" stroke="#3e5d56" stroke-width="0.2"/>
      <path id="Trazado_999003" data-name="Trazado 999003" d="M70.3,196.807h-5.35a4.864,4.864,0,0,1-1.492-.234c-.147-.041-.293-.091-.447-.143a5.026,5.026,0,0,0-1.753-.338h-2.58a.391.391,0,0,1-.391-.391v-7.628a.391.391,0,0,1,.385-.391L60,187.664a3.958,3.958,0,0,0,2.491-.943,6.409,6.409,0,0,1,.573-.392,5.724,5.724,0,0,1,3.264-1.017H67.78a1.557,1.557,0,0,1,1.349,2.335l5.477,0a1.435,1.435,0,0,1,0,2.87H71.578a1.436,1.436,0,0,1-.295,1.7,1.436,1.436,0,0,1,.065,2.03q-.032.033-.065.065a1.437,1.437,0,0,1-.984,2.485Zm-11.232-1.5h2.19a5.751,5.751,0,0,1,2,.379c.146.049.284.1.412.132l.016,0a4.084,4.084,0,0,0,1.259.2H70.3a.657.657,0,1,0,0-1.313.391.391,0,0,1,0-.781.657.657,0,0,0,0-1.314.391.391,0,0,1,0-.781.657.657,0,0,0,0-1.313.391.391,0,0,1,0-.781h4.308a.654.654,0,0,0,0-1.308l-6.826-.006a.391.391,0,1,1,0-.781.776.776,0,0,0,0-1.552H66.325a4.946,4.946,0,0,0-2.832.887l-.027.017a5.728,5.728,0,0,0-.514.352,4.744,4.744,0,0,1-2.933,1.1l-.953.013Zm0,0" transform="translate(-53.732 -172.4)" fill="#3e5d56" stroke="#3e5d56" stroke-width="0.2"/>
      <path id="Trazado_999004" data-name="Trazado 999004" d="M248.6,173.415a.387.387,0,0,1-.258-.1l-1.458-1.28a.391.391,0,1,1,.515-.587l1.458,1.28a.39.39,0,0,1-.258.684Zm0,0" transform="translate(-227.473 -159.531)" fill="#3e5d56" stroke="#3e5d56" stroke-width="0.2"/>
      <path id="Trazado_999005" data-name="Trazado 999005" d="M252.855,274.688a.391.391,0,0,1-.276-.667l1.012-1.007a.391.391,0,0,1,.551.554l-1.012,1.007A.388.388,0,0,1,252.855,274.688Zm0,0" transform="translate(-232.742 -253.149)" fill="#3e5d56" stroke="#3e5d56" stroke-width="0.2"/>
      <path id="Trazado_999006" data-name="Trazado 999006" d="M438.925,83.308a1.766,1.766,0,0,1-.283-.024.391.391,0,0,1-.328-.412c0-.065.008-.131.008-.2V80.383c0-.067,0-.132-.008-.2a.391.391,0,0,1,.328-.412,1.779,1.779,0,1,1,.283,3.535Zm.177-2.761v1.964a1,1,0,0,0,0-1.964Zm0,0" transform="translate(-404.07 -75.084)" fill="#3e5d56" stroke="#3e5d56" stroke-width="0.2"/>
      <path id="Trazado_999007" data-name="Trazado 999007" d="M334.586,83.312a1.779,1.779,0,1,1,.284-3.535.39.39,0,0,1,.328.412c0,.066-.007.131-.007.2v2.291c0,.066,0,.132.007.2a.391.391,0,0,1-.328.413A1.806,1.806,0,0,1,334.586,83.312Zm-.177-2.761a1,1,0,0,0,0,1.964Zm0,0" transform="translate(-306.808 -75.088)" fill="#3e5d56" stroke="#3e5d56" stroke-width="0.2"/>
      <path id="Trazado_999008" data-name="Trazado 999008" d="M357.013,67.883a3.72,3.72,0,0,1-3.716-3.716V61.492a.564.564,0,0,1,.209-.44.57.57,0,0,1,.476-.116,3.193,3.193,0,0,0,3.223-1.047.572.572,0,0,1,.411-.215.583.583,0,0,1,.434.162,3.094,3.094,0,0,0,2.127.751.568.568,0,0,1,.551.558v3.022A3.72,3.72,0,0,1,357.013,67.883Zm-2.935-6.137v2.421a2.935,2.935,0,0,0,5.869.043V61.359a3.893,3.893,0,0,1-2.275-.812,3.974,3.974,0,0,1-3.595,1.2Zm3.433-1.613" transform="translate(-325.696 -56.577)" fill="#3e5d56" stroke="#3e5d56" stroke-width="0.2"/>
      <path id="Trazado_999009" data-name="Trazado 999009" d="M348.773,25.864a.392.392,0,0,1-.271-.11.988.988,0,0,0-.845-.268.391.391,0,0,1-.446-.326.4.4,0,0,1,0-.06V24.81A3.893,3.893,0,0,1,344.932,24a3.981,3.981,0,0,1-3.606,1.2.39.39,0,0,1-.439.292.966.966,0,0,0-.775.207.391.391,0,0,1-.635-.305V23.85a3.828,3.828,0,0,1,3.823-3.823h.975a2.3,2.3,0,0,1,1.753.824,2.264,2.264,0,0,1,.846-.165,2.292,2.292,0,0,1,2.29,2.29v2.5a.391.391,0,0,1-.39.391Zm-.786-1.162a1.765,1.765,0,0,1,.395.086V22.976a1.5,1.5,0,0,0-2.278-1.294.39.39,0,0,1-.536-.134h0a1.519,1.519,0,0,0-1.294-.74H343.3a3.046,3.046,0,0,0-3.042,3.042v.908a1.781,1.781,0,0,1,.353-.061.569.569,0,0,1,.63-.31,3.193,3.193,0,0,0,3.223-1.047.571.571,0,0,1,.411-.215.582.582,0,0,1,.434.162,3.092,3.092,0,0,0,2.127.751.568.568,0,0,1,.551.558Zm-2.912-.875" transform="translate(-312.955 -20.027)" fill="#3e5d56" stroke="#3e5d56" stroke-width="0.2"/>
      <path id="Trazado_999010" data-name="Trazado 999010" d="M372.972,152.082h-1.708a1.188,1.188,0,0,1-1.037-.61l-.49-.882a.39.39,0,0,1,.1-.5.494.494,0,0,0,.19-.389v-.63a.391.391,0,0,1,.592-.335,2.912,2.912,0,0,0,3,.006.391.391,0,0,1,.591.335v.594a.491.491,0,0,0,.2.394.391.391,0,0,1,.1.5l-.5.9A1.188,1.188,0,0,1,372.972,152.082Zm-2.412-1.62.35.63a.4.4,0,0,0,.354.209h1.708a.406.406,0,0,0,.354-.208l.359-.647a1.265,1.265,0,0,1-.258-.744,3.73,3.73,0,0,1-2.619,0v.007A1.269,1.269,0,0,1,370.56,150.462Zm0,0" transform="translate(-340.807 -138.633)" fill="#3e5d56" stroke="#3e5d56" stroke-width="0.2"/>
      <path id="Trazado_999011" data-name="Trazado 999011" d="M426.075,265.79a.931.931,0,0,1-.79-.438l-1.05-1.677a.929.929,0,0,1,.175-1.2l.029-.023,2.637-1.9a.391.391,0,0,1,.457.634l-2.616,1.885a.152.152,0,0,0-.019.185l1.051,1.677a.151.151,0,0,0,.208.048l.01-.007.711-.54a.391.391,0,1,1,.481.615l-.009.007-.71.539A.934.934,0,0,1,426.075,265.79Zm0,0" transform="translate(-390.96 -241.698)" fill="#3e5d56" stroke="#3e5d56" stroke-width="0.2"/>
      <path id="Trazado_999012" data-name="Trazado 999012" d="M303.975,180.664H295.21a.8.8,0,0,1-.8-.8v-2.528l-2.615-1.7-.025-.018a2.084,2.084,0,0,1-.655-2.451l1.675-5.894a.359.359,0,0,1,.017-.047,2.181,2.181,0,0,1,1.445-1.252l.039-.009,3.241-.525a.39.39,0,0,1,.4.2l.5.9a.4.4,0,0,0,.354.208h1.6a.4.4,0,0,0,.354-.208l.5-.9a.389.389,0,0,1,.4-.2l3.242.525.039.009a2.181,2.181,0,0,1,1.445,1.252.41.41,0,0,1,.017.047l1.675,5.895a2.084,2.084,0,0,1-.655,2.451l-.025.017-2.615,1.7v2.529a.8.8,0,0,1-.8.8Zm-11.738-5.675,2.779,1.809a.39.39,0,0,1,.178.327v2.741a.017.017,0,0,0,.016.017h8.765a.017.017,0,0,0,.016-.017v-2.741a.391.391,0,0,1,.178-.327l2.779-1.809a1.3,1.3,0,0,0,.392-1.539.358.358,0,0,1-.017-.047l-1.674-5.892a1.4,1.4,0,0,0-.9-.779l-2.95-.479-.367.659a1.186,1.186,0,0,1-1.037.61h-1.6a1.186,1.186,0,0,1-1.037-.61l-.366-.659-2.95.479a1.4,1.4,0,0,0-.9.779l-1.674,5.892a.409.409,0,0,1-.017.047,1.3,1.3,0,0,0,.392,1.539Zm14.937.319" transform="translate(-268.228 -154.074)" fill="#3e5d56" stroke="#3e5d56" stroke-width="0.2"/>
      <path id="Trazado_999013" data-name="Trazado 999013" d="M407.159,301.763h-1.314a1.683,1.683,0,0,1-1.681-1.681v-.188a.391.391,0,0,1,.391-.391h1.925a.391.391,0,0,1,.331.183l.766,1.223a.148.148,0,0,0,.068.057.39.39,0,0,1-.053.736A1.659,1.659,0,0,1,407.159,301.763Zm-2.191-1.477a.9.9,0,0,0,.876.7h.855l-.436-.7Zm0,0" transform="translate(-372.59 -277.671)" fill="#3e5d56" stroke="#3e5d56" stroke-width="0.2"/>
      <path id="Trazado_999014" data-name="Trazado 999014" d="M353.887,210.414h-5.051a.391.391,0,0,1-.331-.6l.285-.455a.15.15,0,0,0-.019-.185l-1.494-1.077a.391.391,0,0,1-.162-.317v-4.877a.891.891,0,0,1,.89-.89h6.618a.891.891,0,0,1,.89.89v4.947a.391.391,0,0,1-.162.317l-1.4,1.007a.151.151,0,0,0-.019.185l.285.455a.39.39,0,0,1-.331.6Zm-4.362-.781H353.2a.929.929,0,0,1,.248-1.052l.03-.023,1.255-.9v-4.747a.109.109,0,0,0-.109-.108H348a.109.109,0,0,0-.109.108v4.677l1.352.974.029.023a.928.928,0,0,1,.248,1.052Zm0,0" transform="translate(-319.996 -187.798)" fill="#3e5d56" stroke="#3e5d56" stroke-width="0.2"/>
      <path id="Trazado_999015" data-name="Trazado 999015" d="M334.368,265.786a.933.933,0,0,1-.564-.19l-.712-.54a.391.391,0,0,1,.472-.622l.711.54a.153.153,0,0,0,.118.029.15.15,0,0,0,.1-.069l1.051-1.678a.15.15,0,0,0-.019-.185l-2.617-1.885a.391.391,0,0,1,.457-.634l2.636,1.9.029.023a.929.929,0,0,1,.175,1.2l-1.051,1.678a.931.931,0,0,1-.79.438Zm0,0" transform="translate(-306.754 -241.694)" fill="#3e5d56" stroke="#3e5d56" stroke-width="0.2"/>
      <path id="Trazado_999016" data-name="Trazado 999016" d="M353.246,301.77h-1.315a1.662,1.662,0,0,1-.433-.059.391.391,0,0,1-.053-.736.146.146,0,0,0,.068-.057l.766-1.223a.391.391,0,0,1,.331-.183h1.926a.391.391,0,0,1,.391.391v.188A1.683,1.683,0,0,1,353.246,301.77Zm-.855-.781h.855a.9.9,0,0,0,.876-.7h-1.3Zm0,0" transform="translate(-323.772 -277.678)" fill="#3e5d56" stroke="#3e5d56" stroke-width="0.2"/>
      <path id="Trazado_999017" data-name="Trazado 999017" d="M348.716,363.01h-3.1a.391.391,0,0,1-.391-.391v-6.974a.98.98,0,0,0-1.96,0v6.974a.391.391,0,0,1-.391.391h-3.1a.391.391,0,0,1-.391-.391V350.777a.391.391,0,0,1,.391-.391h8.937a.391.391,0,0,1,.391.391V362.62a.391.391,0,0,1-.39.391Zm-2.707-.781h2.317V351.167h-8.156v11.062h2.317v-6.584a1.761,1.761,0,0,1,3.523,0Zm0,0" transform="translate(-312.873 -324.577)" fill="#3e5d56" stroke="#3e5d56" stroke-width="0.2"/>
    </g>
  </g>
</svg>
