<svg xmlns="http://www.w3.org/2000/svg" width="36.884" height="40" viewBox="0 0 36.884 40">
  <g id="Grupo_1178438" data-name="Grupo 1178438" transform="translate(-6.189 -4)">
    <path id="Trazado_999018" data-name="Trazado 999018" d="M42.963,27.754c-.887-2.689-4.914-2.774-6.548-.691L31.54,33.5a4.1,4.1,0,0,0-3.786-2.744H16.6A8.621,8.621,0,0,0,9.28,34.986L6.3,39.828a.715.715,0,1,0,1.218.75L10.5,35.736A7.2,7.2,0,0,1,16.6,32.189h11.15A2.8,2.8,0,0,1,30.4,35.111a1.394,1.394,0,0,1-1.3,1.467H19.468a.715.715,0,1,0,0,1.431H29.1a2.786,2.786,0,0,0,2.691-2.468l5.738-7.581a2.642,2.642,0,0,1,2.813-.8,1.517,1.517,0,0,1,1.249,1,1.3,1.3,0,0,1-.267,1.221L32.087,41.365A6.009,6.009,0,0,1,28.7,43.4L18.83,44.621A7.307,7.307,0,0,0,16.2,45.7l-5.455,3.134a.715.715,0,1,0,.713,1.241l5.5-3.159a5.961,5.961,0,0,1,2.1-.884l9.871-1.218A7.482,7.482,0,0,0,33.2,42.26l9.236-11.988A2.728,2.728,0,0,0,42.963,27.754Z" transform="translate(0 -6.17)" fill="#3e5d56"/>
    <path id="Trazado_999019" data-name="Trazado 999019" d="M26.88,18.675a.715.715,0,1,0,0,1.43H29.62v1.013a.715.715,0,1,0,1.431,0V20.106a3.042,3.042,0,1,0,0-6.039V10.889h2.741a.715.715,0,1,0,0-1.43H31.051V8.445a.715.715,0,0,0-.715-.715c-.937.036-.685,1.108-.715,1.729h-.437a3.019,3.019,0,1,0,0,6.039h.436v3.178ZM31.051,15.5a1.634,1.634,0,1,1,0,3.178Zm-1.867-1.43a1.614,1.614,0,1,1,.437-3.178v3.178Z" transform="translate(-5.704 -1.065)" fill="#3e5d56"/>
    <path id="Trazado_999020" data-name="Trazado 999020" d="M28.1,23.484a9.779,9.779,0,0,0,9.767-9.767c-.537-12.957-19-12.954-19.534,0A9.778,9.778,0,0,0,28.1,23.484Zm0-18.1a8.347,8.347,0,0,1,8.337,8.337c-.458,11.06-16.217,11.057-16.673,0A8.346,8.346,0,0,1,28.1,5.38Z" transform="translate(-3.468)" fill="#3e5d56"/>
    <path id="Trazado_999021" data-name="Trazado 999021" d="M51.4,14.954a.715.715,0,0,0,1.011,0l2.331-2.331a.715.715,0,1,0-1.011-1.011l-1.11,1.111V5.1a.715.715,0,0,0-1.43,0v7.617l-1.11-1.111a.715.715,0,1,0-1.011,1.011Z" transform="translate(-12.184 -0.111)" fill="#3e5d56"/>
    <path id="Trazado_999022" data-name="Trazado 999022" d="M9.163,27.625a.715.715,0,0,0,1.011,0l2.331-2.331a.715.715,0,1,0-1.011-1.011l-1.11,1.111V17.775a.715.715,0,0,0-1.43,0v7.617l-1.11-1.11a.715.715,0,1,0-1.011,1.011Z" transform="translate(-0.123 -3.73)" fill="#3e5d56"/>
  </g>
</svg>
