<svg xmlns="http://www.w3.org/2000/svg" width="128" height="128" viewBox="0 0 128 128">
  <g id="Grupo_1179059" data-name="Grupo 1179059" transform="translate(-383.746 -8400)">
    <circle id="Elipse_13609" data-name="Elipse 13609" cx="64" cy="64" r="64" transform="translate(383.746 8400)" fill="#565097"/>
    <g id="Grupo_1179055" data-name="Grupo 1179055" transform="translate(405.746 8378.935)">
      <g id="Grupo_1179054" data-name="Grupo 1179054" transform="translate(0 51.518)">
        <path id="Trazado_999930" data-name="Trazado 999930" d="M19.461,62.125H18.6a6.534,6.534,0,1,0-10.207,0H7.528A7.537,7.537,0,0,0,0,69.653V87.386a3.716,3.716,0,0,0,4.971,3.5v6.173a1.23,1.23,0,1,0,2.461,0V87.788H19.556v23.061H14.725V93.518a1.23,1.23,0,0,0-2.461,0v17.331H7.432V102.8a1.23,1.23,0,1,0-2.461,0v8.05H4.877a2.559,2.559,0,0,0-2.556,2.556v2.652a2.559,2.559,0,0,0,2.556,2.556H22.112a2.559,2.559,0,0,0,2.556-2.556v-2.652a2.559,2.559,0,0,0-2.556-2.556h-.1V90.884a3.716,3.716,0,0,0,4.972-3.5V69.653A7.536,7.536,0,0,0,19.461,62.125ZM4.781,116.057v-2.652a.1.1,0,0,1,.1-.1h7.387v2.842H4.877a.1.1,0,0,1-.1-.1Zm17.426-2.652v2.652a.1.1,0,0,1-.1.1H14.725V113.31h7.387A.1.1,0,0,1,22.208,113.406ZM9.422,58.052a4.073,4.073,0,1,1,4.073,4.073,4.078,4.078,0,0,1-4.073-4.073Zm-6.961,11.6a5.073,5.073,0,0,1,5.067-5.067H19.461a5.073,5.073,0,0,1,5.067,5.067v3.079H20.787a1.23,1.23,0,0,0-1.23,1.23V85.327H7.433V73.962a1.23,1.23,0,0,0-1.23-1.23H2.461ZM3.716,88.642a1.257,1.257,0,0,1-1.255-1.256V75.192H4.972V87.4A1.256,1.256,0,0,1,3.716,88.642Zm20.812-1.256a1.255,1.255,0,0,1-2.511,0v-12.2h2.511V87.386Z" transform="translate(0 -51.518)" fill="#fff5c1"/>
        <path id="Trazado_999931" data-name="Trazado 999931" d="M234.309,69.653a7.537,7.537,0,0,0-7.528-7.528h-.858a6.536,6.536,0,1,0-10.211,0h-5.372a6.534,6.534,0,1,0-10.207,0H184.856l-.768-1.92a2.219,2.219,0,0,0-4.279.824V66.5a3.721,3.721,0,0,0,3.716,3.716h13.189v4.736a1.23,1.23,0,0,0,2.461,0V68.989a1.23,1.23,0,0,0-1.23-1.23h-2.914V64.586H211.2a5.072,5.072,0,0,1,5.066,5.066v3.079h-3.741a1.23,1.23,0,0,0-1.23,1.23V85.327H199.175V80.7a1.23,1.23,0,0,0-2.461,0v30.151h-.1a2.559,2.559,0,0,0-2.556,2.556v2.652a2.559,2.559,0,0,0,2.556,2.556h32.814a2.559,2.559,0,0,0,2.556-2.556v-2.652a2.559,2.559,0,0,0-2.556-2.556h-.1V90.883a3.717,3.717,0,0,0,4.972-3.5V83.57a1.23,1.23,0,1,0-2.461,0v3.816a1.255,1.255,0,1,1-2.51,0V75.193h2.51v2.635a1.23,1.23,0,0,0,2.461,0ZM220.815,53.979a4.073,4.073,0,1,1-4.073,4.073A4.078,4.078,0,0,1,220.815,53.979Zm11.034,15.674v3.079h-3.741a1.23,1.23,0,0,0-1.23,1.23V85.327H218.73V69.652a7.5,7.5,0,0,0-1.965-5.066h10.017A5.073,5.073,0,0,1,231.848,69.653Zm-18.09,5.54h2.511V87.386a1.255,1.255,0,1,1-2.511,0V75.192Zm-8.523-21.214a4.073,4.073,0,1,1-4.073,4.073A4.078,4.078,0,0,1,205.236,53.979ZM182.27,66.5V62.287l.61,1.526a1.231,1.231,0,0,0,1.143.773h8.547v3.174h-9.045A1.256,1.256,0,0,1,182.27,66.5Zm16.9,21.284H211.3v23.061h-4.831V93.518a1.23,1.23,0,1,0-2.461,0v17.331h-4.831V87.788Zm-2.652,28.269v-2.652a.1.1,0,0,1,.1-.1h7.387v2.842h-7.387a.1.1,0,0,1-.1-.1Zm9.944-2.747h7.387a.1.1,0,0,1,.1.1v2.652a.1.1,0,0,1-.1.1h-7.387Zm13.118,2.842h-3.179c0-.032,0-.063,0-.1v-2.652c0-.032,0-.063,0-.1h3.179v2.843Zm9.944-2.747v2.652a.1.1,0,0,1-.1.1h-7.387V113.31h7.387A.1.1,0,0,1,229.528,113.406Zm-7.483-2.556V93.518a1.23,1.23,0,0,0-2.461,0v17.331h-5.826V90.884a3.716,3.716,0,0,0,4.95-3.1h8.168v23.061h-4.831Z" transform="translate(-150.309 -51.518)" fill="#fff5c1"/>
      </g>
    </g>
  </g>
</svg>
