<svg xmlns="http://www.w3.org/2000/svg" width="128" height="128" viewBox="0 0 128 128">
  <g id="Grupo_1177484" data-name="Grupo 1177484" transform="translate(-381.457 -8402.41)">
    <path id="Trazado_997402" data-name="Trazado 997402" d="M64,0A64,64,0,1,1,0,64,64,64,0,0,1,64,0Z" transform="translate(381.457 8402.41)" fill="#565097"/>
    <g id="Grupo_1180401" data-name="Grupo 1180401" transform="translate(408.457 8413.968)">
      <path id="Trazado_1004202" data-name="Trazado 1004202" d="M72.314,125.356H70.133l-1.082-3.514a2.97,2.97,0,0,0-2.853-2.107H57.08a2.97,2.97,0,0,0-2.853,2.107l-1.082,3.514H50.489v-11.6a2.912,2.912,0,0,0-2.909-2.909H39.965a6.608,6.608,0,0,0-6.193-4.359h-8v-1.929a6.478,6.478,0,0,0,5.33-5.9h.894a3.38,3.38,0,0,0,1.263-6.515l.565-3.289a1.1,1.1,0,0,0,.016-.186,8.919,8.919,0,0,0-7.963-8.856l-.406-2.491a2.451,2.451,0,0,0-2.428-2.065H20.425A2.451,2.451,0,0,0,18,77.328l-.406,2.491a8.919,8.919,0,0,0-7.963,8.856,1.1,1.1,0,0,0,.016.186l.564,3.289a3.381,3.381,0,0,0-.618.327,5.855,5.855,0,1,0,4.42,10.046,6.445,6.445,0,0,0,3.686,2.039v1.93h-8a6.586,6.586,0,0,0-6.578,6.578v3.519a1.1,1.1,0,1,0,2.2,0V113.07A4.383,4.383,0,0,1,9.7,108.692h3.725l1.2,2.238a3.9,3.9,0,0,0,6.012,1.036v11.946l-1.054.157-7.159-.889v-4.94a1.1,1.1,0,0,0-2.2,0v2.428h-6a1.1,1.1,0,0,0-1.1,1.1v3.587H2.782A2.785,2.785,0,0,0,0,128.136v5.99a2.786,2.786,0,0,0,2.782,2.782H72.314a2.786,2.786,0,0,0,2.782-2.782v-5.99A2.785,2.785,0,0,0,72.314,125.356ZM56.33,122.489a.781.781,0,0,1,.75-.554H66.2a.781.781,0,0,1,.75.554l.883,2.866H55.447Zm-8.041-8.728v11.595H33.838V113.76a.71.71,0,0,1,.709-.709H47.58A.71.71,0,0,1,48.289,113.76ZM24.93,108.692h2.619l-.642,1.2a1.679,1.679,0,0,1-2.735.3l-.679-.783Zm7.065-12.227h-.877V94.1h.877a1.18,1.18,0,0,1,0,2.361ZM20.168,77.682a.259.259,0,0,1,.257-.218h2.617a.259.259,0,0,1,.257.218l.34,2.087h-3.81Zm-1.633,4.287h6.4a6.714,6.714,0,0,1,6.706,6.616l-.57,3.32h-.82L18.172,86.647a1.107,1.107,0,0,0-1.5.729A7.231,7.231,0,0,1,13.151,91.9H12.4l-.57-3.32A6.714,6.714,0,0,1,18.535,81.968ZM11.469,94.1h.879v2.361h-.877a1.18,1.18,0,0,1,0-2.361ZM9.94,101.976a3.654,3.654,0,0,1-1.846-6.808,3.564,3.564,0,0,0,4.272,3.5,6.4,6.4,0,0,0,.438,1.921A3.667,3.667,0,0,1,9.94,101.976Zm4.608-3.768V93.63A9.461,9.461,0,0,0,18.4,89.143l10.523,4.581v4.483a4.268,4.268,0,0,1-4.248,4.248,1.1,1.1,0,0,0-1.1,1.1v3.357l-1.8.9-.038.019-1.837-.919v-3.357a1.1,1.1,0,0,0-1.1-1.1,4.252,4.252,0,0,1-4.248-4.247Zm4.746,11.987a1.68,1.68,0,0,1-2.735-.3l-.642-1.2h2.619l1.438.719Zm3.538,1.771a3.9,3.9,0,0,0,6.012-1.036l1.2-2.238h3.726a4.4,4.4,0,0,1,3.773,2.159h-3a2.912,2.912,0,0,0-2.909,2.909v11.6H27.095a2.567,2.567,0,0,0-2.871-1.978l-1.39.207ZM11.185,125.245l8.272,1.027a1.111,1.111,0,0,0,.3,0l4.795-.714c.265,0,.365.085.4.35v2.625a.355.355,0,0,1-.289.347l-4.753.527H7.935a2.661,2.661,0,0,1-2.618-2.947v-3.587h4.9v1.284A1.1,1.1,0,0,0,11.185,125.245ZM72.9,134.127a.583.583,0,0,1-.582.582H2.782a.583.583,0,0,1-.582-.582v-5.99a.582.582,0,0,1,.582-.581h.4A4.826,4.826,0,0,0,7.935,131.6H19.972c.18,0,4.819-.534,5-.548a2.567,2.567,0,0,0,2.183-2.526v-.972H72.314a.582.582,0,0,1,.582.581Z" transform="translate(0 -50.194)" fill="#fff5c1"/>
      <path id="Trazado_1004203" data-name="Trazado 1004203" d="M291.946,44.759h2.51a1.1,1.1,0,1,0,0-2.2h-2.51a1.8,1.8,0,0,1-1.794-1.794V20.436a1.8,1.8,0,0,1,1.794-1.794h22.831a1.8,1.8,0,0,1,1.794,1.794V40.765a1.8,1.8,0,0,1-1.794,1.794H299.629a1.1,1.1,0,0,0,0,2.2h15.147a4,4,0,0,0,3.994-3.994V20.436a4,4,0,0,0-3.994-3.994H291.946a4,4,0,0,0-3.994,3.994V40.765A4,4,0,0,0,291.946,44.759Z" transform="translate(-245.717)" fill="#fff5c1"/>
      <path id="Trazado_1004204" data-name="Trazado 1004204" d="M375.037,99.289a1.1,1.1,0,0,0,0,2.2h3.4a1.1,1.1,0,0,0,0-2.2h-.6V91.627h.6a1.1,1.1,0,0,0,0-2.2h-3.4a1.1,1.1,0,0,0,0,2.2h.6v7.661Z" transform="translate(-319.09 -62.28)" fill="#fff5c1"/>
      <path id="Trazado_1004205" data-name="Trazado 1004205" d="M140.919,200.066a1.1,1.1,0,0,0,1.1-1.1v-.938a1.1,1.1,0,1,0-2.2,0v.938A1.1,1.1,0,0,0,140.919,200.066Z" transform="translate(-119.311 -154.014)" fill="#fff5c1"/>
      <path id="Trazado_1004206" data-name="Trazado 1004206" d="M133.83,229.411a5.57,5.57,0,0,0,1.3.155,4.029,4.029,0,0,0,1.209-.171,1.1,1.1,0,0,0-.665-2.1,2.91,2.91,0,0,1-1.3-.018,1.1,1.1,0,0,0-.546,2.131Z" transform="translate(-113.496 -179.884)" fill="#fff5c1"/>
      <path id="Trazado_1004207" data-name="Trazado 1004207" d="M257.931,353.1h-1.4a1.1,1.1,0,0,0,0,2.2h1.4v1.4a1.1,1.1,0,0,0,2.2,0v-1.4h1.4a1.1,1.1,0,1,0,0-2.2h-1.4v-1.4a1.1,1.1,0,0,0-2.2,0Z" transform="translate(-217.967 -285.143)" fill="#fff5c1"/>
      <circle id="Elipse_13797" data-name="Elipse 13797" cx="1.089" cy="1.089" r="1.089" transform="translate(56.555 21.669)" fill="#fff5c1"/>
    </g>
  </g>
</svg>
