<svg xmlns="http://www.w3.org/2000/svg" width="96" height="96" viewBox="0 0 96 96">
  <g id="Grupo_1177479" data-name="Grupo 1177479" transform="translate(-383.746 -8400.001)">
    <path id="Trazado_997400" data-name="Trazado 997400" d="M48,0A48,48,0,1,1,0,48,48,48,0,0,1,48,0Z" transform="translate(383.746 8400.001)" fill="#ffbdb6"/>
    <path id="Trazado_1001450" data-name="Trazado 1001450" d="M106.2,43.1v-4.4a2.407,2.407,0,0,0-2.407-2.407H93.8c-.039-.386-.082-.773-.133-1.16l-1.155-8.732c-.172-1.3-.29-2.622-.352-3.933l-.6-12.725A4.2,4.2,0,0,0,87.36,5.737h-.146a4.185,4.185,0,0,0-2.317.7A4.208,4.208,0,0,0,78.64,3.916a4.209,4.209,0,0,0-8.4-.023,4.216,4.216,0,0,0-2.205-.616h-.08a4.12,4.12,0,0,0-4.116,4.116V17.81a1.017,1.017,0,1,0,2.034,0V7.393A2.084,2.084,0,0,1,67.96,5.311h.08a2.187,2.187,0,0,1,1.554.639,2.156,2.156,0,0,1,.638,1.527s0,12.316,0,13.538a1.017,1.017,0,0,0,2.034,0c0-.872,0-16.743,0-16.743a2.218,2.218,0,0,1,2.067-2.236A2.179,2.179,0,0,1,76.618,4.21V22.1a1.045,1.045,0,0,0,.986,1.059,1.017,1.017,0,0,0,1.048-1.017V7.575a2.218,2.218,0,0,1,2.067-2.236A2.179,2.179,0,0,1,83,7.512V22.1a1.045,1.045,0,0,0,.986,1.059,1.017,1.017,0,0,0,1.048-1.017V9.947a2.176,2.176,0,0,1,2.176-2.176h.146a2.173,2.173,0,0,1,2.174,2.074l.6,12.725c.047,1,.126,2,.235,3L65.879,26.646V22.186a1.045,1.045,0,0,0-.986-1.059,1.017,1.017,0,0,0-1.048,1.017V33.992L57.9,27.981a4.325,4.325,0,0,0-6.844,5.164l6.6,11.711a5.475,5.475,0,0,0,.961,1.245l10.1,9.79a1.256,1.256,0,0,1,.382.9V68.336a1.045,1.045,0,0,0,.986,1.059,1.017,1.017,0,0,0,1.048-1.017V60.165l18.419,2.873v5.3a1.045,1.045,0,0,0,.986,1.059,1.017,1.017,0,0,0,1.048-1.017V60.785h4.15a1.045,1.045,0,0,0,1.059-.986,1.017,1.017,0,0,0-1.017-1.048H91.585v-4.6a2.332,2.332,0,0,1,.087-.629l.926-3.3a37.363,37.363,0,0,0,1.356-11.89h9.84a.374.374,0,0,1,.374.374v4.178l-1.054.887a1.621,1.621,0,0,0-.59,1.114,1.562,1.562,0,0,0,.634,1.377l1.01.744V58.378a.374.374,0,0,1-.374.374h-3.64a1.045,1.045,0,0,0-1.059.986,1.017,1.017,0,0,0,1.017,1.048h3.683a2.407,2.407,0,0,0,2.407-2.407V46.772a1.568,1.568,0,0,0-.638-1.262l-.723-.533.8-.676a1.568,1.568,0,0,0,.558-1.2ZM90.621,27.6l.514,3.887L84.94,34.407a1.017,1.017,0,1,0,.868,1.839L91.415,33.6l.239,1.8a35.612,35.612,0,0,1,.284,5.975L69.588,53.9l-6.945-6.728L81.875,38.1a1.017,1.017,0,1,0-.868-1.839l-5.1,2.406L65.879,34.184v-5.5Zm-37.793,4.55a2.292,2.292,0,0,1,3.626-2.736L63,36.028a1.686,1.686,0,0,0,2.273.112l8.213,3.672-12.4,5.851-1.055-1.023a3.439,3.439,0,0,1-.6-.783Zm18.3,25.959V56.794a3.292,3.292,0,0,0-.26-1.278l7.538-4.224,11.5.962-.2.716a4.367,4.367,0,0,0-.162,1.178V60.98Zm19.506-8.434-.165.588-8.895-.744,10.185-5.707a35.617,35.617,0,0,1-1.126,5.864Z" transform="translate(353.396 8413.303)" fill="#773b3d"/>
  </g>
</svg>
