<svg xmlns="http://www.w3.org/2000/svg" width="40" height="37.266" viewBox="0 0 40 37.266">
  <g id="Grupo_1178340" data-name="Grupo 1178340" transform="translate(0 -17.502)">
    <path id="Trazado_998759" data-name="Trazado 998759" d="M381.914,270.352a5.968,5.968,0,0,0-1.344,2.229l-.9,2.614a.126.126,0,0,1-.137.084,1,1,0,0,1-.847-1.163l.316-1.692a1.6,1.6,0,0,0-1.568-1.888h-3.467a.523.523,0,0,1,0-1.047h2.306a.586.586,0,0,0,0-1.172h-2.6a.523.523,0,0,1,0-1.047h2.6a.586.586,0,1,0,0-1.172h-2.306a.523.523,0,0,1,0-1.047h2.306a.586.586,0,0,0,0-1.172H374.62a.4.4,0,0,1,0-.8h1.438a.586.586,0,0,0,0-1.172h-1.437a1.576,1.576,0,0,0-1.455,2.176,10.783,10.783,0,0,1-1.187,3.714,1.692,1.692,0,0,1,.29,2.219,1.7,1.7,0,0,0,1.7,1.7h3.467a.424.424,0,0,1,.416.5l-.314,1.679,0,.014a2.172,2.172,0,0,0,1.836,2.537,1.3,1.3,0,0,0,1.408-.862l.9-2.618a4.849,4.849,0,0,1,1.073-1.788.586.586,0,0,0-.838-.819Z" transform="translate(-342.919 -225.308)" fill="#3e5d56"/>
    <path id="Trazado_998760" data-name="Trazado 998760" d="M456.06,262.243a5.125,5.125,0,0,0-2.016-.341h-1.756a.586.586,0,0,0,0,1.172h1.756a4,4,0,0,1,1.55.245.586.586,0,0,0,.466-1.075Z" transform="translate(-416.413 -225.306)" fill="#3e5d56"/>
    <path id="Trazado_998761" data-name="Trazado 998761" d="M10.361,269.064a1.692,1.692,0,0,0,0-2.547,1.694,1.694,0,0,0-.61-2.441A1.573,1.573,0,0,0,8.3,261.9H2.369a5.123,5.123,0,0,0-2.016.342.586.586,0,0,0,.467,1.075,4.057,4.057,0,0,1,1.55-.245H8.3a.4.4,0,0,1,0,.8H6.648a.586.586,0,0,0,0,1.172H8.954a.523.523,0,0,1,0,1.047H6.648a.586.586,0,0,0,0,1.172h2.6a.523.523,0,1,1,0,1.047h-2.6a.586.586,0,0,0,0,1.172H8.954a.523.523,0,0,1,0,1.047H5.487a1.6,1.6,0,0,0-1.568,1.888l.313,1.673,0,.014a1,1,0,0,1-.846,1.168.126.126,0,0,1-.137-.084l-.9-2.609a5.974,5.974,0,0,0-1.346-2.234.586.586,0,1,0-.838.819,4.853,4.853,0,0,1,1.074,1.792l.9,2.614a1.3,1.3,0,0,0,1.408.862A2.172,2.172,0,0,0,5.387,273.9l0-.014-.314-1.679a.424.424,0,0,1,.416-.5H8.954a1.695,1.695,0,0,0,1.407-2.64Z" transform="translate(0 -225.305)" fill="#3e5d56"/>
    <path id="Trazado_998762" data-name="Trazado 998762" d="M26.83,44.524l-3.608-1.492a.2.2,0,0,1-.123-.184V40.582l.023-.018,1.988,1.859a.977.977,0,0,0,.67.267.963.963,0,0,0,.68-.28,6.74,6.74,0,0,0,2-4.77,5.343,5.343,0,0,0-.1-.951,25.424,25.424,0,0,1-.41-4.725.586.586,0,0,0-.583-.589h0a.586.586,0,0,0-.586.583A26.6,26.6,0,0,0,27.2,36.9a4.279,4.279,0,0,1,.083.74,5.563,5.563,0,0,1-1.512,3.8L24,39.777a7.278,7.278,0,0,0,1.984-4.994v-1.6h0v0a.586.586,0,0,0-.586-.586,5.041,5.041,0,0,1-4.806-3.538V27.488a.586.586,0,1,0-1.172,0v1.563a5.041,5.041,0,0,1-4.806,3.538.586.586,0,0,0-.586.586s0,0,0,.006,0,0,0,0v1.6a7.3,7.3,0,0,0,.054.885.586.586,0,1,0,1.163-.142,6.138,6.138,0,0,1-.045-.743V33.733A6.206,6.206,0,0,0,20,30.624a6.205,6.205,0,0,0,4.806,3.109v1.049a6.109,6.109,0,0,1-3.665,5.6,2.852,2.852,0,0,1-2.284,0,6.1,6.1,0,0,1-2.667-2.253c-.056-.085-.1-.162-.146-.235a.586.586,0,0,0-1.014.587c.053.092.112.187.179.29a7.313,7.313,0,0,0,.8,1.008l-1.776,1.661a5.53,5.53,0,0,1-1.512-3.8A4.278,4.278,0,0,1,12.8,36.9a26.849,26.849,0,0,0,.412-5.811,5,5,0,0,1,2.078-4.133A7.653,7.653,0,0,1,20,25.414a7.653,7.653,0,0,1,4.709,1.543,5.437,5.437,0,0,1,1.829,2.471.586.586,0,1,0,1.107-.385,6.2,6.2,0,0,0-.946-1.737h2.51a.424.424,0,0,1,.416.5l-.314,1.679a2.172,2.172,0,0,0,1.833,2.551,1.3,1.3,0,0,0,1.408-.862l.9-2.618a4.708,4.708,0,0,1,1.185-1.9,1.36,1.36,0,0,0,1.155.645h.995a1.361,1.361,0,0,0,1.227-.775h1.4a.586.586,0,1,0,0-1.172H38.153V19.449h1.262a.586.586,0,0,0,0-1.172h-1.4a1.361,1.361,0,0,0-1.227-.775H35.8a1.358,1.358,0,0,0-1.082.538,4.447,4.447,0,0,0-2.387-.538H26.4a1.573,1.573,0,0,0-1.454,2.176,1.693,1.693,0,0,0-.61,2.441,1.692,1.692,0,0,0,0,2.547,1.687,1.687,0,0,0-.236.527,9.3,9.3,0,0,0-8.2,0,1.687,1.687,0,0,0-.236-.527,1.692,1.692,0,0,0,0-2.547,1.693,1.693,0,0,0-.609-2.44A1.576,1.576,0,0,0,13.6,17.5H11.237a.586.586,0,0,0,0,1.172H13.6a.4.4,0,0,1,0,.8H11.955a.586.586,0,1,0,0,1.172h2.306a.523.523,0,1,1,0,1.047H11.955a.586.586,0,0,0,0,1.172h2.6a.523.523,0,1,1,0,1.047h-2.6a.586.586,0,0,0,0,1.172h2.306a.523.523,0,1,1,0,1.047H10.793a1.6,1.6,0,0,0-1.568,1.888L9.537,29.7a1,1,0,0,1-.844,1.181.126.126,0,0,1-.137-.084l-.9-2.609a5.522,5.522,0,0,0-2.09-2.848c.01-.124-.019-5.64.011-5.758,0-.566.784-.9,2.1-.9H8.5a.586.586,0,0,0,0-1.172H7.675a4.373,4.373,0,0,0-2.386.541A1.358,1.358,0,0,0,4.206,17.5H3.211a1.361,1.361,0,0,0-1.227.775H.588a.586.586,0,1,0,0,1.172H1.85v5.911H.588a.586.586,0,1,0,0,1.172h1.4a1.361,1.361,0,0,0,1.227.775h.995a1.36,1.36,0,0,0,1.155-.645,4.708,4.708,0,0,1,1.186,1.9l.9,2.613a1.3,1.3,0,0,0,1.408.862,2.172,2.172,0,0,0,1.833-2.551l-.314-1.679a.424.424,0,0,1,.416-.5h2.512a5.922,5.922,0,0,0-1.262,3.819,25.684,25.684,0,0,1-.393,5.563,5.343,5.343,0,0,0-.1.951,6.7,6.7,0,0,0,1.927,4.7,1.051,1.051,0,0,0,1.473.031l1.933-1.807.023.018v2.266a.2.2,0,0,1-.123.184l-3.608,1.492a4.268,4.268,0,0,0-2.645,3.956v5.7a.586.586,0,0,0,1.172,0V51.173h2.241v3.008a.586.586,0,1,0,1.172,0V48.776A5.528,5.528,0,0,0,14,45.449c.069-.032,3.234-1.332,3.3-1.366a4.19,4.19,0,0,0,5.4,0c.062.034,3.226,1.334,3.3,1.366a5.528,5.528,0,0,0-1.11,3.327v5.405a.586.586,0,0,0,1.172,0V51.173H28.3v3.008a.586.586,0,0,0,1.172,0v-5.7a4.267,4.267,0,0,0-2.645-3.956Zm8.779-25.661a.189.189,0,0,1,.189-.189h.995a.189.189,0,0,1,.189.189v7.082a.189.189,0,0,1-.189.189H35.8a.189.189,0,0,1-.189-.189ZM26.4,18.674h5.928c1.314,0,2.1.338,2.1.9.029.12,0,5.634.01,5.757a5.527,5.527,0,0,0-2.089,2.844l-.9,2.613a.127.127,0,0,1-.137.084,1,1,0,0,1-.847-1.163l.316-1.692a1.6,1.6,0,0,0-1.568-1.888H25.743a.523.523,0,1,1,0-1.047h2.306a.586.586,0,1,0,0-1.172h-2.6a.523.523,0,1,1,0-1.047h2.6a.586.586,0,0,0,0-1.172H25.743a.523.523,0,1,1,0-1.047h2.306a.586.586,0,0,0,0-1.172H26.4a.4.4,0,0,1,0-.8ZM4.4,25.945a.189.189,0,0,1-.189.189H3.211a.189.189,0,0,1-.189-.189V18.863a.189.189,0,0,1,.189-.189h.995a.189.189,0,0,1,.189.189ZM11.7,50V48.48A3.1,3.1,0,0,1,12.943,46a4.36,4.36,0,0,1,1,2.781V50Zm6.337-6.829a1.378,1.378,0,0,0,.039-.323V41.307c.1.051.208.1.314.147a4.025,4.025,0,0,0,3.223,0c.106-.046.211-.1.314-.147v1.542a1.379,1.379,0,0,0,.039.323A3.013,3.013,0,0,1,18.038,43.172ZM28.3,50H26.062V48.776a4.36,4.36,0,0,1,1-2.781A3.1,3.1,0,0,1,28.3,48.48Z" transform="translate(-0.002)" fill="#3e5d56"/>
    <path id="Trazado_998763" data-name="Trazado 998763" d="M235.447,269.986a1.617,1.617,0,0,1,1.6,0,.586.586,0,0,0,.581-1.018,2.794,2.794,0,0,0-2.757,0,.586.586,0,1,0,.581,1.018Z" transform="translate(-216.245 -231.485)" fill="#3e5d56"/>
  </g>
</svg>
