<svg xmlns="http://www.w3.org/2000/svg" width="128" height="128" viewBox="0 0 128 128">
  <g id="Grupo_1180403" data-name="Grupo 1180403" transform="translate(-383.746 -8400)">
    <circle id="Elipse_13609" data-name="Elipse 13609" cx="64" cy="64" r="64" transform="translate(383.746 8400)" fill="#565097"/>
    <g id="Grupo_1180402" data-name="Grupo 1180402" transform="translate(384.233 8427.535)">
      <path id="Trazado_1004208" data-name="Trazado 1004208" d="M92.277,35.435H90.983V2.419A2.421,2.421,0,0,0,88.564,0H47.554a2.421,2.421,0,0,0-2.419,2.419v2.6H43.007A2.421,2.421,0,0,0,40.59,7.433V24.2a1.068,1.068,0,0,0,2.137,0V7.433a.282.282,0,0,1,.281-.282H84.019a.282.282,0,0,1,.281.282v28H57.11a1.067,1.067,0,0,1-.9-.5L52.87,29.707a3.194,3.194,0,0,0-2.705-1.484H34.749a3.212,3.212,0,0,0-3.208,3.208v38.29a3.212,3.212,0,0,0,3.208,3.208H92.277a3.212,3.212,0,0,0,3.208-3.208V38.644A3.212,3.212,0,0,0,92.277,35.435ZM84.019,5.014H47.272v-2.6a.282.282,0,0,1,.282-.282h41.01a.282.282,0,0,1,.282.282V35.435h-2.41v-28a2.42,2.42,0,0,0-2.417-2.419Zm9.33,64.708a1.073,1.073,0,0,1-1.072,1.072H84.969L83.3,66.037a3.258,3.258,0,0,0-3.07-2.176H74.97a1.068,1.068,0,1,0,0,2.137H80.23a1.118,1.118,0,0,1,1.054.747L82.7,70.793H44.322l1.421-4.048A1.118,1.118,0,0,1,46.8,66H69.969a1.068,1.068,0,0,0,0-2.137H46.8a3.258,3.258,0,0,0-3.07,2.176l-1.67,4.756H34.749a1.073,1.073,0,0,1-1.072-1.072V31.432a1.073,1.073,0,0,1,1.072-1.072H50.165a1.067,1.067,0,0,1,.9.5L54.4,36.089a3.194,3.194,0,0,0,2.705,1.484H92.277a1.073,1.073,0,0,1,1.072,1.072Z" fill="#fff5c1"/>
      <path id="Trazado_1004209" data-name="Trazado 1004209" d="M77.767,229.937a1.746,1.746,0,0,0-1.516-.883H65.734a1.745,1.745,0,0,0-1.743,1.743v2.919a1.745,1.745,0,0,0,1.743,1.743H78.343a1.489,1.489,0,0,0,1.3-2.224Zm-11.639,3.386v-2.132h9.894l1.21,2.132Z" transform="translate(-27.828 -196.427)" fill="#fff5c1"/>
      <path id="Trazado_1004210" data-name="Trazado 1004210" d="M134.585,76.514h-2.624a1.8,1.8,0,0,0-1.8,1.8v1.373h-1.373a1.8,1.8,0,0,0-1.8,1.8v2.624a1.8,1.8,0,0,0,1.8,1.8h1.373v1.373a1.8,1.8,0,0,0,1.8,1.8h2.624a1.8,1.8,0,0,0,1.8-1.8V85.918h1.373a1.8,1.8,0,0,0,1.8-1.8V81.491a1.8,1.8,0,0,0-1.8-1.8h-1.373V78.316A1.8,1.8,0,0,0,134.585,76.514Zm2.841,5.312v1.956h-2.107a1.068,1.068,0,0,0-1.068,1.068v2.107H132.3V84.849a1.068,1.068,0,0,0-1.068-1.068H129.12V81.826h2.107a1.068,1.068,0,0,0,1.068-1.068V78.651h1.956v2.107a1.068,1.068,0,0,0,1.068,1.068h2.107Z" transform="translate(-81.848 -65.615)" fill="#fff5c1"/>
      <path id="Trazado_1004211" data-name="Trazado 1004211" d="M249.786,91.386h4.333a1.068,1.068,0,1,0,0-2.137h-4.333a1.068,1.068,0,0,0,0,2.137Z" transform="translate(-186.242 -76.536)" fill="#fff5c1"/>
      <path id="Trazado_1004212" data-name="Trazado 1004212" d="M249.786,121.357h16.335a1.068,1.068,0,1,0,0-2.137H249.786a1.068,1.068,0,0,0,0,2.137Z" transform="translate(-186.242 -102.238)" fill="#fff5c1"/>
      <path id="Trazado_1004213" data-name="Trazado 1004213" d="M249.786,151.328h16.335a1.068,1.068,0,1,0,0-2.137H249.786a1.068,1.068,0,0,0,0,2.137Z" transform="translate(-186.242 -127.94)" fill="#fff5c1"/>
      <path id="Trazado_1004214" data-name="Trazado 1004214" d="M249.786,181.976h16.335a1.068,1.068,0,1,0,0-2.137H249.786a1.068,1.068,0,0,0,0,2.137Z" transform="translate(-186.242 -154.223)" fill="#fff5c1"/>
      <path id="Trazado_1004215" data-name="Trazado 1004215" d="M249.786,211.948h16.335a1.068,1.068,0,1,0,0-2.137H249.786a1.068,1.068,0,0,0,0,2.137Z" transform="translate(-186.242 -179.925)" fill="#fff5c1"/>
      <path id="Trazado_1004216" data-name="Trazado 1004216" d="M407.779,278.413H403a1.068,1.068,0,1,0,0,2.137h3.71v3.71a1.068,1.068,0,1,0,2.137,0v-4.778A1.068,1.068,0,0,0,407.779,278.413Z" transform="translate(-317.632 -238.756)" fill="#fff5c1"/>
    </g>
  </g>
</svg>
