<svg xmlns="http://www.w3.org/2000/svg" width="27.734" height="40.2" viewBox="0 0 27.734 40.2">
  <g id="Grupo_1178341" data-name="Grupo 1178341" transform="translate(-79.68 0.1)">
    <path id="Trazado_998764" data-name="Trazado 998764" d="M97.452,31.715a10.674,10.674,0,0,0,6.613-8.168,4.875,4.875,0,0,0,3.249-4.595,3.349,3.349,0,0,0-.139-.96.586.586,0,0,0-1.123.336,2.177,2.177,0,0,1,.09.624,3.7,3.7,0,0,1-2.753,3.577.586.586,0,0,0-.432.491,9.5,9.5,0,0,1-6.285,7.734.586.586,0,0,0-.393.553v.88A2.734,2.734,0,0,1,93.5,34.92a2.672,2.672,0,0,1-.468-.049.586.586,0,0,0-.224,1.15,3.85,3.85,0,0,0,.673.07h.066a3.912,3.912,0,0,0,3.684-2.6,12.618,12.618,0,0,1,6.979,5.34H82.883a12.614,12.614,0,0,1,7-5.345,3.985,3.985,0,0,0,.316.674.586.586,0,0,0,1.01-.595,2.819,2.819,0,0,1-.39-1.43v-.827a.586.586,0,0,0-.393-.553,9.5,9.5,0,0,1-6.285-7.733.586.586,0,0,0-.432-.491,3.722,3.722,0,0,1-1.971-1.3,3.66,3.66,0,0,1-.782-2.275,2.2,2.2,0,0,1,2.2-2.2h.323a.586.586,0,0,0,.586-.586V13.681h18.981V16.17a.586.586,0,0,0,.586.586h.323a2.177,2.177,0,0,1,.624.09.586.586,0,0,0,.336-1.123,3.326,3.326,0,0,0-.7-.129V13.1a.586.586,0,0,0-.586-.586h-3.085A3.359,3.359,0,0,0,96.1,10.528,3.318,3.318,0,0,0,94.132,9.4V7.252a2.9,2.9,0,0,1,4.372-2.5A2.69,2.69,0,0,0,99.559,9.92h4.483a.586.586,0,0,0,.586-.586V4.851A2.691,2.691,0,0,0,99.4,3.945a4.064,4.064,0,0,0-5.308.491,4.069,4.069,0,0,0-6.533-2.675,2.69,2.69,0,0,0-5.215.929V7.174a.586.586,0,0,0,.586.586H86.05a.586.586,0,0,0,0-1.172h-2.53v-3.9a1.519,1.519,0,0,1,3.038,0v.032L85.476,3.8a.586.586,0,0,0,.829.829l1.081-1.081h.031a1.519,1.519,0,0,1,1.074,2.593,1.444,1.444,0,0,1-.139.123.586.586,0,0,0,.717.927A2.683,2.683,0,0,0,90.107,5.07a2.7,2.7,0,0,0-1.677-2.492,2.9,2.9,0,0,1,4.53,2.4V9.4a3.322,3.322,0,0,0-1.968,1.126,3.358,3.358,0,0,0-4.437,1.981H83.471a.586.586,0,0,0-.586.586v2.5a3.372,3.372,0,0,0-3.1,3.357,4.822,4.822,0,0,0,1.031,3,4.911,4.911,0,0,0,2.219,1.6,10.671,10.671,0,0,0,6.613,8.168v.419c0,.066,0,.132.005.2a13.79,13.79,0,0,0-8.3,6.812A.586.586,0,0,0,81.87,40h23.353a.586.586,0,0,0,.519-.858,13.793,13.793,0,0,0-8.293-6.811c0-.048,0-.1,0-.143v-.473Zm4.486-28.382a1.52,1.52,0,0,1,1.519,1.519v3.9h-3.9a1.519,1.519,0,1,1,0-3.037h.031l1.2,1.2a.586.586,0,1,0,.829-.829l-1.2-1.2V4.851A1.521,1.521,0,0,1,101.938,3.332ZM89.719,11.449a2.181,2.181,0,0,1,1.147.325.586.586,0,0,0,.809-.2,2.186,2.186,0,0,1,3.744,0,.586.586,0,0,0,.809.2,2.187,2.187,0,0,1,3.022.735h-11.4a2.192,2.192,0,0,1,1.874-1.06Z" fill="#3e5d56" stroke="#3e5d56" stroke-width="0.2"/>
    <path id="Trazado_998765" data-name="Trazado 998765" d="M285.431,261.623a.586.586,0,1,0,.829-.829,3.443,3.443,0,0,0-4.863,0,.586.586,0,1,0,.829.829A2.269,2.269,0,0,1,285.431,261.623Z" transform="translate(-185.707 -239.493)" fill="#3e5d56" stroke="#3e5d56" stroke-width="0.2"/>
    <path id="Trazado_998766" data-name="Trazado 998766" d="M169.169,260.794a3.443,3.443,0,0,0-4.863,0,.586.586,0,1,0,.829.829,2.27,2.27,0,0,1,3.206,0,.586.586,0,0,0,.829-.829Z" transform="translate(-77.764 -239.492)" fill="#3e5d56" stroke="#3e5d56" stroke-width="0.2"/>
    <path id="Trazado_998767" data-name="Trazado 998767" d="M381.434,227.947A2.978,2.978,0,0,0,380.6,230a.588.588,0,0,0,.585.567h.021a.584.584,0,0,0,.565-.6,1.806,1.806,0,0,1,.49-1.189.586.586,0,0,0-.829-.829Z" transform="translate(-277.319 -209.98)" fill="#3e5d56" stroke="#3e5d56" stroke-width="0.2"/>
    <path id="Trazado_998768" data-name="Trazado 998768" d="M108.1,227.947a.586.586,0,0,0,0,.829,1.8,1.8,0,0,1,.49,1.188.586.586,0,0,0,.565.6h.021a.586.586,0,0,0,.585-.565,2.978,2.978,0,0,0-.833-2.054A.586.586,0,0,0,108.1,227.947Z" transform="translate(-25.949 -209.98)" fill="#3e5d56" stroke="#3e5d56" stroke-width="0.2"/>
    <path id="Trazado_998769" data-name="Trazado 998769" d="M228.138,334.626a3.253,3.253,0,0,0,2.315-.959.586.586,0,1,0-.829-.829,2.1,2.1,0,0,1-2.973,0,.586.586,0,1,0-.829.829A3.252,3.252,0,0,0,228.138,334.626Z" transform="translate(-134.475 -306.677)" fill="#3e5d56" stroke="#3e5d56" stroke-width="0.2"/>
  </g>
</svg>
