<svg xmlns="http://www.w3.org/2000/svg" width="40.202" height="29.512" viewBox="0 0 40.202 29.512">
  <g id="Grupo_1178439" data-name="Grupo 1178439" transform="translate(-24.898 -85.019)">
    <path id="Trazado_999023" data-name="Trazado 999023" d="M140.259,233.993a.656.656,0,0,1-.265-1.256,2.323,2.323,0,0,0,1.2-2.615.659.659,0,0,1,.411-.758l4.727-1.759a.656.656,0,0,1,.458,1.23l-4.236,1.577a3.472,3.472,0,0,1-2.027,3.526A.656.656,0,0,1,140.259,233.993Z" transform="translate(-104.415 -129.782)" fill="#3e5d56" stroke="#3e5d56" stroke-width="0.2"/>
    <path id="Trazado_999024" data-name="Trazado 999024" d="M65.792,209.528a.655.655,0,0,1-.615-.427l-3.238-8.7a.656.656,0,0,1,.386-.844l3.338-1.242,1.381-2.755a4.615,4.615,0,0,1,2.524-2.264l4.716-1.755a2.388,2.388,0,0,1,2.993,1.149,2.327,2.327,0,0,1-1.289,3.182.656.656,0,0,1-.458-1.23,1.015,1.015,0,0,0,.561-1.39,1.07,1.07,0,0,0-1.35-.482l-4.716,1.755a3.309,3.309,0,0,0-1.809,1.623l-1.5,2.986a.657.657,0,0,1-.357.321l-2.965,1.1,2.78,7.47,1.121-.418a13.624,13.624,0,0,1,4-.835l1.689-.093,3.32-1.236a.656.656,0,0,1,.458,1.23l-3.413,1.27a.668.668,0,0,1-.193.04l-1.788.1a12.3,12.3,0,0,0-3.614.755l-1.736.646A.662.662,0,0,1,65.792,209.528Z" transform="translate(-33.618 -96.821)" fill="#3e5d56" stroke="#3e5d56" stroke-width="0.2"/>
    <path id="Trazado_999025" data-name="Trazado 999025" d="M29.329,288.616a.656.656,0,0,1-.615-.427l-3.672-9.867a.656.656,0,0,1,.386-.844l3.062-1.14a.658.658,0,0,1,.844.387l3.672,9.867a.656.656,0,0,1-.386.844l-3.062,1.14A.662.662,0,0,1,29.329,288.616ZM26.5,278.479l3.215,8.637,1.833-.682L28.333,277.8Z" transform="translate(0 -174.185)" fill="#3e5d56" stroke="#3e5d56" stroke-width="0.2"/>
    <path id="Trazado_999026" data-name="Trazado 999026" d="M190.328,227.434a1.956,1.956,0,0,1-.681-3.789l2.043-.76a1.956,1.956,0,0,1,1.364,3.665l-2.044.76A1.959,1.959,0,0,1,190.328,227.434Zm2.045-3.361a.646.646,0,0,0-.225.041l-2.043.76a.644.644,0,0,0,.448,1.206l2.044-.76a.644.644,0,0,0-.225-1.247Z" transform="translate(-148.85 -125.407)" fill="#3e5d56" stroke="#3e5d56" stroke-width="0.2"/>
    <path id="Trazado_999027" data-name="Trazado 999027" d="M200.537,254.837a1.956,1.956,0,0,1-.681-3.789l2.043-.76a1.955,1.955,0,1,1,1.364,3.665l-2.043.76A1.959,1.959,0,0,1,200.537,254.837Zm2.045-3.361a.639.639,0,0,0-.225.041l-2.044.76a.644.644,0,0,0,.449,1.206l2.043-.761a.643.643,0,0,0-.224-1.246Z" transform="translate(-158.153 -150.374)" fill="#3e5d56" stroke="#3e5d56" stroke-width="0.2"/>
    <path id="Trazado_999028" data-name="Trazado 999028" d="M210.741,282.25a1.955,1.955,0,0,1-.685-3.788l2.043-.761a1.956,1.956,0,1,1,1.364,3.666l-2.043.761A1.957,1.957,0,0,1,210.741,282.25Zm1.816-3.319-2.043.76a.643.643,0,1,0,.449,1.206l2.043-.76a.643.643,0,1,0-.449-1.206Z" transform="translate(-167.446 -175.353)" fill="#3e5d56" stroke="#3e5d56" stroke-width="0.2"/>
    <path id="Trazado_999029" data-name="Trazado 999029" d="M202.78,316.41a1.955,1.955,0,0,1-.685-3.788l2.043-.761a1.956,1.956,0,1,1,1.364,3.666l-2.043.761A1.955,1.955,0,0,1,202.78,316.41Zm1.816-3.319-2.043.761a.643.643,0,1,0,.449,1.206l2.043-.76a.643.643,0,1,0-.449-1.206Z" transform="translate(-160.193 -206.476)" fill="#3e5d56" stroke="#3e5d56" stroke-width="0.2"/>
    <path id="Trazado_999030" data-name="Trazado 999030" d="M345.656,325.176a.653.653,0,0,1-.435-.166,9.525,9.525,0,0,1-2.551-4.829.656.656,0,0,1,1.27-.328,8.3,8.3,0,0,0,2.153,4.176.656.656,0,0,1-.436,1.146Z" transform="translate(-289.413 -213.421)" fill="#3e5d56" stroke="#3e5d56" stroke-width="0.2"/>
    <path id="Trazado_999031" data-name="Trazado 999031" d="M410.669,118.3a3.387,3.387,0,0,1-1.642-.434.657.657,0,0,1-.341-.575v-7.269a.656.656,0,0,1,.34-.575,3.385,3.385,0,0,1,1.642-.434c2.157,0,3.912,2.083,3.912,4.644S412.826,118.3,410.669,118.3Zm-.671-1.43a1.991,1.991,0,0,0,.671.118c1.434,0,2.6-1.494,2.6-3.331s-1.166-3.332-2.6-3.332a1.991,1.991,0,0,0-.671.118Z" transform="translate(-349.58 -21.772)" fill="#3e5d56" stroke="#3e5d56" stroke-width="0.2"/>
    <path id="Trazado_999032" data-name="Trazado 999032" d="M119.9,116.946a.655.655,0,0,1-.534-.274,5.2,5.2,0,0,1-.933-3.014c0-2.56,1.755-4.644,3.912-4.644a3.386,3.386,0,0,1,1.643.434.656.656,0,0,1,.34.575v4.6a.656.656,0,1,1-1.312,0v-4.182a1.992,1.992,0,0,0-.671-.118c-1.434,0-2.6,1.494-2.6,3.332a3.877,3.877,0,0,0,.686,2.249.656.656,0,0,1-.532,1.038Z" transform="translate(-85.129 -21.772)" fill="#3e5d56" stroke="#3e5d56" stroke-width="0.2"/>
    <path id="Trazado_999033" data-name="Trazado 999033" d="M170.648,93.911a.656.656,0,0,1-.656-.656v-7.48a.656.656,0,1,1,1.312,0v7.48A.656.656,0,0,1,170.648,93.911Z" transform="translate(-132.103)" fill="#3e5d56" stroke="#3e5d56" stroke-width="0.2"/>
    <path id="Trazado_999034" data-name="Trazado 999034" d="M288.536,108.38h-.149a.656.656,0,0,1-.649-.663.644.644,0,0,1,.663-.649h.135a9.964,9.964,0,0,0,9.953-9.953V85.775a.656.656,0,1,1,1.312,0v11.34A11.277,11.277,0,0,1,288.536,108.38Z" transform="translate(-239.383 0)" fill="#3e5d56" stroke="#3e5d56" stroke-width="0.2"/>
    <path id="Trazado_999035" data-name="Trazado 999035" d="M279.828,255.167a.656.656,0,0,1-.656-.656c0-.173-.523-.6-1.493-.6a2.666,2.666,0,0,0-.961.168.656.656,0,0,1-.48-1.221,3.985,3.985,0,0,1,1.441-.259c1.6,0,2.8.821,2.8,1.909A.656.656,0,0,1,279.828,255.167Z" transform="translate(-228.526 -152.596)" fill="#3e5d56" stroke="#3e5d56" stroke-width="0.2"/>
    <path id="Trazado_999036" data-name="Trazado 999036" d="M219.639,134.15a.657.657,0,0,1-.6-.931l.311-.674H218.9a.656.656,0,0,1-.619-.873l.772-2.209a.656.656,0,0,1,1.239.433l-.467,1.336h.556a.656.656,0,0,1,.6.931l-.74,1.6A.657.657,0,0,1,219.639,134.15Z" transform="translate(-176.066 -40.002)" fill="#3e5d56" stroke="#3e5d56" stroke-width="0.2"/>
    <path id="Trazado_999037" data-name="Trazado 999037" d="M274.162,167.161a.656.656,0,0,1-.2-1.281l.707-.225-.307-.336a.656.656,0,0,1,.226-1.046l2.152-.922a.656.656,0,1,1,.517,1.206l-1.3.558.375.41a.656.656,0,0,1-.285,1.068l-1.683.537A.659.659,0,0,1,274.162,167.161Z" transform="translate(-226.416 -71.23)" fill="#3e5d56" stroke="#3e5d56" stroke-width="0.2"/>
  </g>
</svg>
