<svg xmlns="http://www.w3.org/2000/svg" width="96" height="96" viewBox="0 0 96 96">
  <g id="Grupo_1177936" data-name="Grupo 1177936" transform="translate(-383.746 -8400.001)">
    <path id="Trazado_997400" data-name="Trazado 997400" d="M48,0A48,48,0,1,1,0,48,48,48,0,0,1,48,0Z" transform="translate(383.746 8400.001)" fill="#ffbdb6"/>
    <g id="Grupo_1179619" data-name="Grupo 1179619" transform="translate(382.51 8418.798)">
      <path id="Trazado_1001451" data-name="Trazado 1001451" d="M67.883,159.631a.856.856,0,1,0-1.632.514c.232.737.5,1.52.8,2.327a1.445,1.445,0,0,1-.991,1.9L49.056,168.76a1.446,1.446,0,0,1-1.7-.853c-1.015-2.5-3.39-8.353-9.433-7.533-.424.057-.846.117-1.263.175a24.632,24.632,0,0,1-5.149.432c-2.03-.332-3.145-1.173-3.508-2.646a2.749,2.749,0,0,1,.453-2.262,1.692,1.692,0,0,0-.528-2.16,4.688,4.688,0,0,0-1.179-.568c-.009-.185.079-.466.521-.785a.856.856,0,0,0,.178-1.215,14.315,14.315,0,0,0-1.638-1.584c.709-.5,2.062-1.644,1.886-2.905-.074-.528-.436-1.241-1.745-1.644-1.433-.441-1.631-.995-1.633-1.528s.322-.88,1.094-1.475a13.317,13.317,0,0,0,3.708-4.1,2.409,2.409,0,0,0,.116-2.118,8.441,8.441,0,0,0-.644-1.148c-.356-.564-.725-1.148-.639-1.515a4.567,4.567,0,0,1,.319-.776,8.51,8.51,0,0,0,.94-3.33c.037-.568.1-1.132.191-1.676a.856.856,0,0,0-1.688-.278c-.1.6-.169,1.219-.21,1.843a6.829,6.829,0,0,1-.78,2.71,5.693,5.693,0,0,0-.439,1.119,3.746,3.746,0,0,0,.858,2.817,7.133,7.133,0,0,1,.519.91.687.687,0,0,1-.036.6,11.387,11.387,0,0,1-3.26,3.587,3.574,3.574,0,0,0-1.762,2.835c0,1.518.959,2.581,2.841,3.16a1.4,1.4,0,0,1,.549.264,3.746,3.746,0,0,1-1.373,1.387.857.857,0,0,0-.237.23,1.824,1.824,0,0,0,.479,2.5c.285.227.518.435.7.609a2.3,2.3,0,0,0-.164,2.7c.316.43.834.337,1.522.765a4.358,4.358,0,0,0-.585,3.443c.532,2.161,2.178,3.482,4.893,3.926a23.654,23.654,0,0,0,5.663-.426c.414-.058.834-.117,1.255-.174,4.154-.562,6.116,2.783,7.618,6.481a3.165,3.165,0,0,0,2.927,1.966,3.131,3.131,0,0,0,.782-.1l17.005-4.384a3.156,3.156,0,0,0,2.169-4.156C68.367,161.1,68.107,160.342,67.883,159.631Z" transform="translate(0 -112.11)" fill="#773b3d"/>
      <path id="Trazado_1001452" data-name="Trazado 1001452" d="M115.133,4.758A33.932,33.932,0,0,0,97.3,0,26.127,26.127,0,0,0,85.224,2.771a17.292,17.292,0,0,0-8.031,8.35.856.856,0,1,0,1.568.685C81.48,5.579,88.582,1.711,97.3,1.711A32.186,32.186,0,0,1,114.211,6.2a16.935,16.935,0,0,1,8.228,14.843c0,7.769-1.021,10.951-7.782,17.07-1.213,1.1-1.573,3.042-1.1,5.944a.856.856,0,0,0,1.689-.275c-.361-2.221-.168-3.742.56-4.4,7.139-6.46,8.345-10.245,8.345-18.338a18.575,18.575,0,0,0-9.018-16.285Z" transform="translate(-48.292)" fill="#773b3d"/>
      <path id="Trazado_1001453" data-name="Trazado 1001453" d="M110.427,69.475a5.937,5.937,0,0,0,.93.073,6.047,6.047,0,0,0,3.177-.907,5.028,5.028,0,0,0,5.247,2.937,4.112,4.112,0,0,0,.7.563l2.681,6.577a2.7,2.7,0,0,0,2.069,1.641l2.79.442a1.693,1.693,0,0,0,.266.021,1.673,1.673,0,0,0,1.6-2.165l-1-3.239a4.52,4.52,0,0,0,1.041.052,5.251,5.251,0,0,0,2.9,1.482,5.315,5.315,0,0,0,.834.066,5.262,5.262,0,0,0,5.184-4.438c.025-.158.042-.318.052-.478a7.538,7.538,0,0,0,1.253-.738,7.463,7.463,0,0,0,2.168-9.6,6.417,6.417,0,0,0-3.2-10.617,6.418,6.418,0,0,0-9.547-3.27,7.385,7.385,0,0,0-3.761-2.506.856.856,0,0,0-.469,1.646,5.692,5.692,0,0,1,3.308,2.523.856.856,0,0,0,1.3.2,4.706,4.706,0,0,1,7.674,2.365.856.856,0,0,0,.7.634l.035,0a4.7,4.7,0,0,1,2.313,8.23.856.856,0,0,0-.154,1.132,5.751,5.751,0,0,1-8.176,7.854,5.507,5.507,0,0,0,.494-1.053.856.856,0,0,0-1.617-.559,3.772,3.772,0,0,1-5.662,1.9.856.856,0,0,0-1.09.115,2.426,2.426,0,0,1-3.681-.223.855.855,0,0,0-.884-.315,3.3,3.3,0,0,1-1.3.051,3.338,3.338,0,0,1-2.793-3.545.855.855,0,0,0-.658-.9,1.794,1.794,0,0,1-.583-3.241.856.856,0,0,0-.949-1.424,3.506,3.506,0,0,0,.473,6.1,4.25,4.25,0,0,1-3.4.926,4.3,4.3,0,0,1-3.571-4.914,4.25,4.25,0,0,1,.751-1.83.855.855,0,0,0,.057-.908,4.994,4.994,0,0,1-.549-3.192,5.046,5.046,0,0,1,4.088-4.174.856.856,0,0,0,.69-.688,4.146,4.146,0,0,1,6.052-2.9.855.855,0,0,0,1.078-.221,5.726,5.726,0,0,1,2.608-1.852.856.856,0,1,0-.562-1.616,7.435,7.435,0,0,0-2.938,1.89,5.857,5.857,0,0,0-7.789,3.826,6.759,6.759,0,0,0-4.917,5.465,6.683,6.683,0,0,0,.5,3.81,5.939,5.939,0,0,0-.763,2.12,6.014,6.014,0,0,0,4.993,6.872Zm25.35,3.317a7.4,7.4,0,0,0,1.3-.116,3.548,3.548,0,0,1-6.162,1.342.855.855,0,0,0-.828-.294,2.467,2.467,0,0,1-1.833-.354l-.243-.791a5.476,5.476,0,0,0,3.228-1.316,7.42,7.42,0,0,0,3.357,1.435A7.57,7.57,0,0,0,135.777,72.792ZM125.18,72a5.411,5.411,0,0,0,.978.382l2.065,6.721-2.729-.432a.983.983,0,0,1-.752-.6L122.593,72.8A4.323,4.323,0,0,0,125.18,72Z" transform="translate(-73.308 -40.164)" fill="#773b3d"/>
      <path id="Trazado_1001454" data-name="Trazado 1001454" d="M216.187,117.747a.856.856,0,0,0,1.209,1.211c1.169-1.2,2.156-1.9,2.347-4.294a5.234,5.234,0,0,0-5.179-5.27,5.134,5.134,0,0,0-3.657,1.518,5.133,5.133,0,0,0-3.656-1.518,5.186,5.186,0,0,0-5.18,5.18,4.7,4.7,0,0,0,1.381,3.42l5.982,5.973a2.088,2.088,0,0,0,2.946,0l2.181-2.178a.856.856,0,0,0-1.209-1.211l-2.181,2.178a.374.374,0,0,1-.528,0l-5.984-5.975a3.029,3.029,0,0,1-.877-2.207,3.462,3.462,0,0,1,6.4-1.839.855.855,0,0,0,1.45,0,3.445,3.445,0,0,1,2.932-1.63,3.564,3.564,0,0,1,3.468,3.56c-.09,1.579-1.006,2.218-1.844,3.082Z" transform="translate(-158.987 -96.914)" fill="#773b3d"/>
    </g>
  </g>
</svg>
