<svg xmlns="http://www.w3.org/2000/svg" width="84" height="84" viewBox="0 0 84 84">
  <g id="Grupo_1179068" data-name="Grupo 1179068" transform="translate(-185.711 -1831)">
    <rect id="Rectángulo_455104" data-name="Rectángulo 455104" width="84" height="84" transform="translate(185.711 1831)" fill="#bbded6"/>
    <g id="Grupo_1179067" data-name="Grupo 1179067" transform="translate(160.642 1840.195)">
      <g id="Grupo_1179066" data-name="Grupo 1179066" transform="translate(40.337 1.069)">
        <g id="Grupo_1179060" data-name="Grupo 1179060" transform="translate(0 0)">
          <path id="Trazado_999932" data-name="Trazado 999932" d="M96.8,68.472h-51c-4.874-17.708,6.078-31.628,8.809-47.525.161-.933.293-1.872.391-2.82A34.777,34.777,0,0,0,53.956,5h34.7A34.776,34.776,0,0,0,87.6,18.132q.149,1.424.393,2.826h0C90.732,36.851,101.676,50.768,96.8,68.472Z" transform="translate(-44.572 -5)" fill="#f7c5b8" fill-rule="evenodd"/>
        </g>
        <g id="Grupo_1179061" data-name="Grupo 1179061" transform="translate(0.895 37.962)">
          <path id="Trazado_999933" data-name="Trazado 999933" d="M51.649,313.346l25.838,12.2,25.838-12.2a70.5,70.5,0,0,0-2.244-8.1H53.893A70.5,70.5,0,0,0,51.649,313.346Z" transform="translate(-51.649 -305.243)" fill="#df646e" fill-rule="evenodd"/>
        </g>
        <g id="Grupo_1179062" data-name="Grupo 1179062" transform="translate(7.152 41.568)">
          <path id="Trazado_999934" data-name="Trazado 999934" d="M111.831,333.759l4.054,4.057-9.856,9.856a2.878,2.878,0,0,1-4.054,0h0a2.883,2.883,0,0,1,0-4.057Z" transform="translate(-101.137 -333.759)" fill="#8399fe" fill-rule="evenodd"/>
        </g>
        <g id="Grupo_1179063" data-name="Grupo 1179063" transform="translate(24.602 37.962)">
          <path id="Trazado_999935" data-name="Trazado 999935" d="M239.145,324.542l2.132,1.008,25.838-12.2a70.5,70.5,0,0,0-2.244-8.1h-2.117a70.036,70.036,0,0,1,1.936,7.236Z" transform="translate(-239.145 -305.243)" fill="#d82f3c" fill-rule="evenodd"/>
        </g>
        <g id="Grupo_1179064" data-name="Grupo 1179064" transform="translate(8.055 43.7)">
          <path id="Trazado_999936" data-name="Trazado 999936" d="M120.2,350.617l1.926,1.926-9.856,9.856a2.881,2.881,0,0,1-3.989.065,3.657,3.657,0,0,0,.477-.408Z" transform="translate(-108.28 -350.617)" fill="#6a85f2" fill-rule="evenodd"/>
        </g>
        <g id="Grupo_1179065" data-name="Grupo 1179065" transform="translate(14.366 22.694)">
          <path id="Trazado_999937" data-name="Trazado 999937" d="M180.73,188.353a13.2,13.2,0,1,1-18.674,0A13.207,13.207,0,0,1,180.73,188.353Z" transform="translate(-158.189 -184.486)" fill="#8bf0ff" fill-rule="evenodd"/>
        </g>
      </g>
      <path id="Trazado_999938" data-name="Trazado 999938" d="M93.529,46.9a.877.877,0,0,0-.032-.158,102.287,102.287,0,0,0-4.4-14.184c-2.536-6.964-4.974-13.662-5.209-20.863V9.775a.9.9,0,0,0-.007-.1A33.154,33.154,0,0,1,85.1,1.62.884.884,0,0,0,84.246.5H49.893a.884.884,0,0,0-.851,1.12,33.152,33.152,0,0,1,1.215,8.111c0,.015,0,.029,0,.044v1.7c-.193,7.283-2.654,14.045-5.216,21.078-.739,2.03-1.483,4.073-2.171,6.142l0,.012a71.327,71.327,0,0,0-2.22,8.022.887.887,0,0,0-.035.17,36.857,36.857,0,0,0,.363,17.558.883.883,0,0,0,.852.649H92.315a.883.883,0,0,0,.852-.649A36.861,36.861,0,0,0,93.529,46.9ZM67.069,58.1,56.826,53.262l4.191-4.193a13.948,13.948,0,0,0,20.522-9.216H89.8c.723,2.2,1.365,4.407,1.858,6.633ZM44.343,39.854h9.913a13.894,13.894,0,0,0,1.5,3.953l-6.08,6.077-7.189-3.4C42.977,44.261,43.62,42.058,44.343,39.854Zm32.175,5.692a12.183,12.183,0,1,1,0-17.24A12.207,12.207,0,0,1,76.518,45.546ZM49.133,52.923l1.341-1.34c.017-.016.034-.031.049-.049l6.22-6.218a13.955,13.955,0,0,0,2.764,2.764l-4.781,4.783a.906.906,0,0,0-.073.073L51.9,55.689a1.957,1.957,0,1,1-2.769-2.766ZM46.7,33.162c1.935-5.313,3.9-10.724,4.808-16.428a7.678,7.678,0,0,0,14.11-4.2.883.883,0,1,0-1.767,0,5.915,5.915,0,1,1-11.829,0V9.775a.884.884,0,0,0-.016-.164,34.563,34.563,0,0,0-.97-7.344H83.1a34.571,34.571,0,0,0-.97,7.39.881.881,0,0,0-.009.118v.488q0,.235,0,.469v1.8a5.915,5.915,0,1,1-11.829,0,.883.883,0,1,0-1.767,0,7.678,7.678,0,0,0,14.106,4.2c.9,5.7,2.872,11.108,4.806,16.419.6,1.654,1.2,3.293,1.762,4.927H81.8a13.939,13.939,0,0,0-4.031-11.03h0A13.95,13.95,0,0,0,54,38.087H44.938C45.5,36.453,46.1,34.815,46.7,33.162ZM42.124,48.271l6.222,2.94-.463.463a3.724,3.724,0,0,0,5.267,5.265L55.5,54.59l10.687,5.046v3.707H42.5a34.561,34.561,0,0,1-.379-15.072ZM91.636,63.343H67.953V59.636L92.015,48.271a34.567,34.567,0,0,1-.38,15.073ZM73.9,32.989a6.009,6.009,0,1,0-6.893,5.944V41.17H63.961a.883.883,0,0,0,0,1.767h3.051v3.051a.883.883,0,1,0,1.767,0V42.937h3.055a.883.883,0,0,0,0-1.767H68.779V38.933A6.018,6.018,0,0,0,73.9,32.989Zm-10.251,0A4.242,4.242,0,1,1,67.9,37.232,4.247,4.247,0,0,1,63.653,32.989Z"/>
    </g>
  </g>
</svg>
