<svg xmlns="http://www.w3.org/2000/svg" width="100" height="100" viewBox="0 0 100 100">
  <g id="Grupo_1178108" data-name="Grupo 1178108" transform="translate(-489.711 -1825)">
    <circle id="Elipse_13668" data-name="Elipse 13668" cx="50" cy="50" r="50" transform="translate(489.711 1825)" fill="#bbded6"/>
    <g id="Grupo_1178103" data-name="Grupo 1178103" transform="translate(495.939 1832.028)">
      <g id="Grupo_1178102" data-name="Grupo 1178102" transform="translate(10.058 9.128)">
        <g id="Grupo_1178099" data-name="Grupo 1178099" transform="translate(0 0)">
          <path id="Trazado_998288" data-name="Trazado 998288" d="M64.5,55.172a2.906,2.906,0,0,1,2.9,2.9v53.365a2.906,2.906,0,0,1-2.9,2.9H19.837a2.906,2.906,0,0,1-2.9-2.9V58.072a2.906,2.906,0,0,1,2.9-2.9Z" transform="translate(-16.937 -49.649)" fill="#837683" fill-rule="evenodd"/>
          <path id="Trazado_998289" data-name="Trazado 998289" d="M327.68,114.337h3.743a2.906,2.906,0,0,0,2.9-2.9V58.072a2.906,2.906,0,0,0-2.9-2.9H327.68Z" transform="translate(-283.859 -49.649)" fill="#685e68" fill-rule="evenodd"/>
          <path id="Trazado_998290" data-name="Trazado 998290" d="M86.638,83.782H46.851a1.307,1.307,0,0,0-1.3,1.3v48.488a1.307,1.307,0,0,0,1.3,1.3H86.638a1.307,1.307,0,0,0,1.3-1.3V85.086A1.307,1.307,0,0,0,86.638,83.782Z" transform="translate(-41.512 -74.224)" fill="#eceff1" fill-rule="evenodd"/>
          <path id="Trazado_998291" data-name="Trazado 998291" d="M327.68,134.878h1.3c.041,0,.082,0,.122-.006a1.307,1.307,0,0,0,1.182-1.3V85.086a1.307,1.307,0,0,0-1.182-1.3c-.04,0-.081-.006-.122-.006h-1.3Z" transform="translate(-283.859 -74.224)" fill="#d1d1d6" fill-rule="evenodd"/>
          <path id="Trazado_998292" data-name="Trazado 998292" d="M117.986,19.776h4.134a1.281,1.281,0,0,0,1.2-.788,4.932,4.932,0,0,1,9.06,0,1.281,1.281,0,0,0,1.2.788h4.134a1.307,1.307,0,0,1,1.3,1.3v4.932a1.307,1.307,0,0,1-1.3,1.3H117.986a1.307,1.307,0,0,1-1.3-1.3V21.08A1.307,1.307,0,0,1,117.986,19.776Z" transform="translate(-102.616 -16.006)" fill="#e3a76f" fill-rule="evenodd"/>
          <path id="Trazado_998293" data-name="Trazado 998293" d="M136.406,48.976H116.683a1.307,1.307,0,0,0,1.3,1.3h19.724a1.307,1.307,0,0,0,1.3-1.3V44.044a1.307,1.307,0,0,0-1.3-1.3v4.932a1.306,1.306,0,0,1-1.3,1.3Z" transform="translate(-102.617 -38.97)" fill="#c48958" fill-rule="evenodd"/>
          <path id="Trazado_998294" data-name="Trazado 998294" d="M91.217,139.892h11.511a1.414,1.414,0,0,0,1.41-1.41V126.97a1.414,1.414,0,0,0-1.41-1.41H91.217a1.414,1.414,0,0,0-1.41,1.41v11.511A1.414,1.414,0,0,0,91.217,139.892Z" transform="translate(-79.531 -110.111)" fill="#8ac9fe" fill-rule="evenodd"/>
          <path id="Trazado_998295" data-name="Trazado 998295" d="M91.217,139.892h11.511a1.414,1.414,0,0,0,1.41-1.41V126.97a1.414,1.414,0,0,0-1.41-1.41v11.511a1.414,1.414,0,0,1-1.41,1.41H89.807A1.414,1.414,0,0,0,91.217,139.892Z" transform="translate(-79.531 -110.111)" fill="#60b7ff" fill-rule="evenodd"/>
        </g>
        <g id="Grupo_1178100" data-name="Grupo 1178100" transform="translate(17.891 19.56)">
          <path id="Trazado_998296" data-name="Trazado 998296" d="M361,361.061a15.258,15.258,0,0,1-2.576,2.836l7,6.865,2.666-2.748Z" transform="translate(-328.162 -331.961)" fill="#a79ba7" fill-rule="evenodd"/>
          <path id="Trazado_998297" data-name="Trazado 998297" d="M372.383,360.726a1.76,1.76,0,0,1-.762,1.022l6.957,6.911.852-.934Z" transform="translate(-339.495 -331.673)" fill="#837683" fill-rule="evenodd"/>
          <path id="Trazado_998298" data-name="Trazado 998298" d="M405.786,410.641l3.009-3.1a1.384,1.384,0,0,0-.029-1.951l-8.334-8.087a1.384,1.384,0,0,0-1.951.029l-3.009,3.1a1.384,1.384,0,0,0,.029,1.951l8.334,8.087A1.384,1.384,0,0,0,405.786,410.641Z" transform="translate(-359.648 -362.93)" fill="#f1ba84" fill-rule="evenodd"/>
          <path id="Trazado_998299" data-name="Trazado 998299" d="M422.165,397.5l8.334,8.087a1.384,1.384,0,0,1,.029,1.951l-3.009,3.1a1.37,1.37,0,0,1-.374.273,1.385,1.385,0,0,0,1.607-.273l3.009-3.1a1.384,1.384,0,0,0-.029-1.951L423.4,397.5a1.385,1.385,0,0,0-1.577-.244A1.353,1.353,0,0,1,422.165,397.5Z" transform="translate(-382.614 -362.932)" fill="#e3a76f" fill-rule="evenodd"/>
          <circle id="Elipse_13681" data-name="Elipse 13681" cx="15.177" cy="15.177" r="15.177" transform="translate(0 21.46) rotate(-45)" fill="#8ac9fe"/>
          <path id="Trazado_998300" data-name="Trazado 998300" d="M291.558,199.265a15.177,15.177,0,0,1,0,30.353q-.371,0-.737-.018a15.176,15.176,0,0,0,0-30.317Q291.187,199.265,291.558,199.265Z" transform="translate(-270.089 -192.982)" fill="#60b7ff" fill-rule="evenodd"/>
          <circle id="Elipse_13682" data-name="Elipse 13682" cx="11.634" cy="11.634" r="11.634" transform="matrix(0.34, -0.94, 0.94, 0.34, 6.547, 28.433)" fill="#eceff1"/>
          <path id="Trazado_998301" data-name="Trazado 998301" d="M225.179,224.384c.264,0,.527.01.787.027a11.634,11.634,0,0,0,0,23.214c-.26.017-.522.027-.787.027a11.634,11.634,0,1,1,0-23.268Z" transform="translate(-203.711 -214.558)" fill="#d1d1d6" fill-rule="evenodd"/>
        </g>
        <g id="Grupo_1178101" data-name="Grupo 1178101" transform="translate(32.609 32.696)">
          <path id="Trazado_998302" data-name="Trazado 998302" d="M254.921,247.855l-6.751,2.893v5.73a8.183,8.183,0,0,0,6.751,8.025,8.183,8.183,0,0,0,6.751-8.025v-5.73Z" transform="translate(-248.17 -247.855)" fill="#6cf5c2" fill-rule="evenodd"/>
          <path id="Trazado_998303" data-name="Trazado 998303" d="M290.923,247.855l-.841.36,5.91,2.533v5.73a8.187,8.187,0,0,1-5.91,7.831,8.087,8.087,0,0,0,.841.194,8.183,8.183,0,0,0,6.751-8.025v-5.73Z" transform="translate(-284.172 -247.855)" fill="#00e499" fill-rule="evenodd"/>
        </g>
      </g>
      <path id="Trazado_998304" data-name="Trazado 998304" d="M48.29,46.97v2.05H46.239a1.128,1.128,0,1,0,0,2.256H48.29v2.049a1.128,1.128,0,0,0,2.257,0V51.276H52.6a1.128,1.128,0,1,0,0-2.256H50.547V46.97a1.128,1.128,0,0,0-2.257,0Zm6.751-1.509v4.986a7.1,7.1,0,0,1-5.622,6.877A7.1,7.1,0,0,1,43.8,50.447V45.461l5.622-2.41Zm1.573-1.781a1.133,1.133,0,0,1,.684,1.037v5.73a9.308,9.308,0,0,1-7.686,9.137,1.11,1.11,0,0,1-.192.017,1.056,1.056,0,0,1-.192-.017,9.308,9.308,0,0,1-7.686-9.137v-5.73a1.123,1.123,0,0,1,.684-1.037l6.751-2.893a1.125,1.125,0,0,1,.889,0Zm3.312,6.468A10.507,10.507,0,1,1,49.419,39.642,10.518,10.518,0,0,1,59.926,50.148Zm2.25,0A12.761,12.761,0,1,1,49.419,37.385,12.774,12.774,0,0,1,62.176,50.148ZM76.281,72.157l-8.337-8.087A.237.237,0,0,0,67.772,64h-.007a.243.243,0,0,0-.173.075l-3.007,3.1a.253.253,0,0,0-.073.179.242.242,0,0,0,.073.177l8.337,8.087a.258.258,0,0,0,.358-.005l3.007-3.1A.255.255,0,0,0,76.281,72.157Zm-14.629-9.74,2.27,2.2,1.1-1.128-3.047-2.952c-.1.127-.212.253-.319.377ZM59.4,63.37v7.546a1.774,1.774,0,0,1-1.772,1.771H12.958a1.774,1.774,0,0,1-1.772-1.771V17.551a1.775,1.775,0,0,1,1.772-1.772H22.994v1.779h-8.9a1.127,1.127,0,0,0-1.128,1.128v51.1a1.127,1.127,0,0,0,1.128,1.128H56.488a1.127,1.127,0,0,0,1.128-1.128V64.237A16.048,16.048,0,0,0,59.2,63.183Zm-35.273-41.8H46.458a1.128,1.128,0,0,0,1.128-1.128v-.625H55.36v15.15a16.283,16.283,0,0,0-15.081,1.689h-2.31a1.129,1.129,0,0,0-.312,2.212A16.554,16.554,0,0,0,34.816,42.9H21.64a1.128,1.128,0,1,0,0,2.256H33.9a16.19,16.19,0,0,0-.757,3.989H21.554a1.128,1.128,0,1,0,0,2.256H33.163a16.215,16.215,0,0,0,.817,3.989H21.461a1.128,1.128,0,1,0,0,2.257H34.942a16.463,16.463,0,0,0,2.914,3.988H21.64a1.128,1.128,0,1,0,0,2.256H40.65A16.284,16.284,0,0,0,55.36,65.332v3.321H15.221V19.813h7.773v.625a1.128,1.128,0,0,0,1.128,1.128Zm1.128-2.256H45.33V14.025H40.086a1.135,1.135,0,0,1-1.1-.864,3.8,3.8,0,0,0-7.388,0,1.135,1.135,0,0,1-1.1.864H25.251V19.31Zm22.336-3.531v1.779h8.9a1.127,1.127,0,0,1,1.128,1.128V36.059a16.556,16.556,0,0,1,1.779,1.2V17.551a1.775,1.775,0,0,0-1.772-1.772Zm15.877,34.37A14.049,14.049,0,1,1,49.419,36.1,14.061,14.061,0,0,1,63.464,50.148ZM77.908,74.085l-3.013,3.1a2.509,2.509,0,0,1-3.545.052l-8.33-8.087a2.482,2.482,0,0,1-.763-1.762,2.4,2.4,0,0,1,.212-1.037l-.817-.791v5.356a4.035,4.035,0,0,1-4.029,4.027H12.958a4.031,4.031,0,0,1-4.029-4.027V17.551a4.032,4.032,0,0,1,4.029-4.028H22.994V12.9a1.128,1.128,0,0,1,1.128-1.128h5.556a6.062,6.062,0,0,1,11.224,0h5.556A1.128,1.128,0,0,1,47.587,12.9v.625H57.623a4.036,4.036,0,0,1,4.029,4.028V39.38a16.287,16.287,0,0,1,1.653,19.306l3.4,3.3a2.506,2.506,0,0,1,2.814.467l8.337,8.087a2.516,2.516,0,0,1,.053,3.547ZM22.589,36.653h9.824V26.833H22.589ZM21.461,24.577a1.128,1.128,0,0,0-1.128,1.128V37.781a1.128,1.128,0,0,0,1.128,1.128H33.541a1.126,1.126,0,0,0,1.122-1.128V25.705a1.126,1.126,0,0,0-1.122-1.128Zm16.508,2.256H48.941a1.128,1.128,0,1,0,0-2.256H37.969a1.128,1.128,0,0,0,0,2.256Zm0,5.831H49.12a1.128,1.128,0,1,0,0-2.257H37.969a1.128,1.128,0,0,0,0,2.257ZM36.595,13.169a1.3,1.3,0,1,1-1.308-1.3A1.3,1.3,0,0,1,36.595,13.169Z" fill="#242222" fill-rule="evenodd"/>
    </g>
  </g>
</svg>
