<svg xmlns="http://www.w3.org/2000/svg" width="100" height="100" viewBox="0 0 100 100">
  <g id="Grupo_1178107" data-name="Grupo 1178107" transform="translate(-1009.711 -1825)">
    <circle id="Elipse_13669" data-name="Elipse 13669" cx="50" cy="50" r="50" transform="translate(1009.711 1825)" fill="#bbded6"/>
    <g id="Grupo_1178106" data-name="Grupo 1178106" transform="translate(1026.931 1837.457)">
      <g id="Grupo_1178104" data-name="Grupo 1178104" transform="translate(0.962 6.427)">
        <path id="Trazado_998305" data-name="Trazado 998305" d="M52.976,63.709a5.575,5.575,0,0,1,5.575,5.575v44.57a5.575,5.575,0,0,1-5.575,5.575h-39.9A5.575,5.575,0,0,1,7.5,113.854V69.284a5.575,5.575,0,0,1,5.575-5.575h39.9Z" transform="translate(-7.499 -57.197)" fill="#a6e7f0"/>
        <path id="Trazado_998306" data-name="Trazado 998306" d="M104.3,63.71v2.08a5.27,5.27,0,0,0,5.264,5.264H125.24A5.27,5.27,0,0,0,130.5,65.79V63.71Z" transform="translate(-91.874 -57.198)" fill="#6bd9e7"/>
        <path id="Trazado_998307" data-name="Trazado 998307" d="M275.625,158.874c-.119.051-.238.1-.356.158l-1.615.754-1.615-.754a10.9,10.9,0,0,0-11.269,18.5l10.549,8.147a3.809,3.809,0,0,0,4.306.245V158.874Z" transform="translate(-224.573 -139.394)" fill="#6bd9e7"/>
        <path id="Trazado_998308" data-name="Trazado 998308" d="M79.127,93.71a1.726,1.726,0,0,1,1.725,1.725V140a1.727,1.727,0,0,1-1.725,1.725h-39.9A1.727,1.727,0,0,1,37.5,140V95.435a1.726,1.726,0,0,1,1.725-1.725Z" transform="translate(-33.65 -83.347)" fill="#f9f7f8"/>
        <path id="Trazado_998309" data-name="Trazado 998309" d="M271.775,185.976V158.912a10.9,10.9,0,0,0-11,18.618l10.549,8.147A3.781,3.781,0,0,0,271.775,185.976Z" transform="translate(-224.573 -139.394)" fill="#efedef"/>
        <path id="Trazado_998310" data-name="Trazado 998310" d="M106.69,93.71a5.272,5.272,0,0,0,4.957,3.494h15.679a5.272,5.272,0,0,0,4.957-3.494Z" transform="translate(-93.96 -83.347)" fill="#efedef"/>
        <path id="Trazado_998311" data-name="Trazado 998311" d="M142.673,15.827h-1.54a.322.322,0,0,1-.322-.323v-.95a1.59,1.59,0,0,0-1.59-1.59h-8.774a1.59,1.59,0,0,0-1.59,1.59v.95a.322.322,0,0,1-.323.323h-1.54a2.7,2.7,0,0,0-2.7,2.7v3.033a2.7,2.7,0,0,0,2.7,2.7h15.679a2.7,2.7,0,0,0,2.7-2.7V18.525A2.7,2.7,0,0,0,142.673,15.827Z" transform="translate(-109.308 -12.965)" fill="#f9f7f8"/>
        <path id="Trazado_998312" data-name="Trazado 998312" d="M304.329,181.838A8.33,8.33,0,0,0,293.8,178.79l-2.192,1.023a1.2,1.2,0,0,1-1.017,0L288.4,178.79a8.33,8.33,0,0,0-11.356,10.383l.785.347.536,1.277-.325.3a8.315,8.315,0,0,0,1.745,1.834l10.548,8.147a1.253,1.253,0,0,0,1.532,0l10.549-8.147a8.309,8.309,0,0,0,2.045-2.3l-.143-.359.443-1.131.546-.435a8.317,8.317,0,0,0-.973-6.873Z" transform="translate(-242.015 -156.826)" fill="#f37c7c"/>
      </g>
      <g id="Grupo_1178105" data-name="Grupo 1178105" transform="translate(0 5.464)">
        <path id="Trazado_998313" data-name="Trazado 998313" d="M52.015,97.663a.963.963,0,0,0-.963.963v8.692a4.617,4.617,0,0,1-4.612,4.612H6.537a4.617,4.617,0,0,1-4.612-4.612V62.747a4.617,4.617,0,0,1,4.612-4.612H12.1a.963.963,0,0,0,0-1.925H6.537A6.545,6.545,0,0,0,0,62.747v44.57a6.545,6.545,0,0,0,6.537,6.537h39.9a6.545,6.545,0,0,0,6.537-6.537V98.625A.962.962,0,0,0,52.015,97.663Z" transform="translate(0 -49.697)"/>
        <path id="Trazado_998314" data-name="Trazado 998314" d="M311.963,58.135h5.565a4.617,4.617,0,0,1,4.612,4.612v6.01a.963.963,0,0,0,1.925,0v-6.01a6.545,6.545,0,0,0-6.537-6.537h-5.565a.963.963,0,1,0,0,1.925Z" transform="translate(-271.087 -49.697)"/>
        <path id="Trazado_998315" data-name="Trazado 998315" d="M30.963,177.61a.963.963,0,0,0-.963.963v34.565a2.69,2.69,0,0,0,2.687,2.687h39.9a2.69,2.69,0,0,0,2.687-2.687v-8.655a.963.963,0,0,0-1.925,0v8.655a.763.763,0,0,1-.762.762h-39.9a.763.763,0,0,1-.762-.762V178.572A.963.963,0,0,0,30.963,177.61Z" transform="translate(-26.15 -155.517)"/>
        <path id="Trazado_998316" data-name="Trazado 998316" d="M38.5,86.21h-5.81A2.69,2.69,0,0,0,30,88.9v5.9a.963.963,0,1,0,1.925,0V88.9a.763.763,0,0,1,.762-.762H38.5a.963.963,0,0,0,0-1.925Z" transform="translate(-26.15 -75.847)"/>
        <path id="Trazado_998317" data-name="Trazado 998317" d="M310.053,88.135h5.81a.763.763,0,0,1,.762.762v6.046a.963.963,0,0,0,1.925,0V88.9a2.69,2.69,0,0,0-2.687-2.687h-5.81a.963.963,0,1,0,0,1.925Z" transform="translate(-269.423 -75.847)"/>
        <path id="Trazado_998318" data-name="Trazado 998318" d="M120.457,18.679h4.475a.963.963,0,1,0,0-1.925h-4.475a1.737,1.737,0,0,1-1.735-1.735V11.986a1.737,1.737,0,0,1,1.735-1.735H122a1.287,1.287,0,0,0,1.285-1.285v-.95a.628.628,0,0,1,.628-.628h8.774a.628.628,0,0,1,.628.628v.95a1.287,1.287,0,0,0,1.285,1.285h1.54a1.737,1.737,0,0,1,1.735,1.735v3.033a1.737,1.737,0,0,1-1.735,1.735h-7.1a.963.963,0,1,0,0,1.925h7.1a3.664,3.664,0,0,0,3.66-3.66V11.986a3.664,3.664,0,0,0-3.66-3.66h-.9v-.31a2.556,2.556,0,0,0-2.553-2.553h-8.774a2.556,2.556,0,0,0-2.553,2.553v.31h-.9a3.664,3.664,0,0,0-3.66,3.66v3.033A3.664,3.664,0,0,0,120.457,18.679Z" transform="translate(-101.808 -5.464)"/>
        <path id="Trazado_998319" data-name="Trazado 998319" d="M183.146,54.571a.963.963,0,0,0-.963-.963h-6.1a.963.963,0,1,0,0,1.925h6.1A.963.963,0,0,0,183.146,54.571Z" transform="translate(-152.642 -47.429)"/>
        <path id="Trazado_998320" data-name="Trazado 998320" d="M298.593,174.83a9.325,9.325,0,0,0-11.75-3.4l-2.192,1.023a.24.24,0,0,1-.2,0l-2.192-1.023a9.293,9.293,0,0,0-9.61,15.776l10.549,8.147a2.217,2.217,0,0,0,2.709,0l4.023-3.107a.963.963,0,0,0-1.177-1.524l-4.023,3.107a.291.291,0,0,1-.356,0l-10.548-8.147a7.388,7.388,0,0,1-1.12-1.072h4.037a.963.963,0,0,0,.928-.706l1.084-3.919,3.013,8.356a.963.963,0,0,0,.9.636h0a.963.963,0,0,0,.9-.628l2.86-7.708.864,2.827a.963.963,0,0,0,.92.681h8.539a7.376,7.376,0,0,1-1.481,1.534l-3.252,2.512a.963.963,0,0,0,1.177,1.524l3.252-2.512a9.293,9.293,0,0,0,2.14-12.375Zm-9.663,7.393-1.489-4.868a.963.963,0,0,0-1.823-.053l-2.935,7.911-3.147-8.727a.962.962,0,0,0-1.833.07l-1.7,6.13h-4.482a7.367,7.367,0,0,1,9.916-9.51l2.191,1.023a2.16,2.16,0,0,0,1.831,0l2.192-1.023a7.364,7.364,0,0,1,10.09,9.049h-8.817Z" transform="translate(-234.507 -149.375)"/>
        <path id="Trazado_998321" data-name="Trazado 998321" d="M77.17,152.024h4.523a1.994,1.994,0,0,0,1.991-1.991v-4.987a1.994,1.994,0,0,0-1.991-1.991H77.17a1.994,1.994,0,0,0-1.991,1.991v4.987A1.994,1.994,0,0,0,77.17,152.024Zm-.066-6.979a.066.066,0,0,1,.066-.066h4.523a.066.066,0,0,1,.066.066v4.987a.066.066,0,0,1-.066.066H77.17a.066.066,0,0,1-.066-.066Z" transform="translate(-65.531 -125.396)"/>
        <path id="Trazado_998322" data-name="Trazado 998322" d="M75.179,248.758a1.994,1.994,0,0,0,1.991,1.991h4.523a1.994,1.994,0,0,0,1.991-1.991V243.77a1.994,1.994,0,0,0-1.991-1.991H77.17a1.993,1.993,0,0,0-1.991,1.991ZM77.1,243.77a.066.066,0,0,1,.066-.066h4.523a.066.066,0,0,1,.066.066v4.987a.066.066,0,0,1-.066.066H77.17a.066.066,0,0,1-.066-.066Z" transform="translate(-65.531 -211.451)"/>
        <path id="Trazado_998323" data-name="Trazado 998323" d="M75.179,347.482a1.994,1.994,0,0,0,1.991,1.991h4.523a1.994,1.994,0,0,0,1.991-1.991v-4.987a1.994,1.994,0,0,0-1.991-1.991H77.17a1.993,1.993,0,0,0-1.991,1.991Zm1.925-4.987a.066.066,0,0,1,.066-.066h4.523a.066.066,0,0,1,.066.066v4.987a.066.066,0,0,1-.066.066H77.17a.066.066,0,0,1-.066-.066Z" transform="translate(-65.531 -297.505)"/>
        <path id="Trazado_998324" data-name="Trazado 998324" d="M157.179,148.684h11.2a.963.963,0,0,0,0-1.925h-11.2a.963.963,0,1,0,0,1.925Z" transform="translate(-136.168 -128.626)"/>
        <path id="Trazado_998325" data-name="Trazado 998325" d="M157.179,196.694h11.2a.963.963,0,1,0,0-1.925h-11.2a.963.963,0,1,0,0,1.925Z" transform="translate(-136.168 -170.474)"/>
        <path id="Trazado_998326" data-name="Trazado 998326" d="M157.179,247.145h11.2a.963.963,0,0,0,0-1.925h-11.2a.963.963,0,0,0,0,1.925Z" transform="translate(-136.168 -214.451)"/>
        <path id="Trazado_998327" data-name="Trazado 998327" d="M169.916,293.23H157.179a.963.963,0,1,0,0,1.925h12.737a.963.963,0,0,0,0-1.925Z" transform="translate(-136.168 -256.299)"/>
        <path id="Trazado_998328" data-name="Trazado 998328" d="M174.9,343.682h-17.72a.963.963,0,1,0,0,1.925H174.9a.963.963,0,0,0,0-1.925Z" transform="translate(-136.168 -300.276)"/>
        <path id="Trazado_998329" data-name="Trazado 998329" d="M178.957,391.692H157.179a.963.963,0,1,0,0,1.925h21.779a.963.963,0,1,0,0-1.925Z" transform="translate(-136.168 -342.125)"/>
      </g>
    </g>
  </g>
</svg>
