<svg xmlns="http://www.w3.org/2000/svg" width="96" height="96" viewBox="0 0 96 96">
  <g id="Grupo_1177938" data-name="Grupo 1177938" transform="translate(-383.746 -8400.001)">
    <path id="Trazado_997400" data-name="Trazado 997400" d="M48,0A48,48,0,1,1,0,48,48,48,0,0,1,48,0Z" transform="translate(383.746 8400.001)" fill="#ffbdb6"/>
    <g id="Grupo_1179623" data-name="Grupo 1179623" transform="translate(346.115 8420.051)">
      <path id="Trazado_1001465" data-name="Trazado 1001465" d="M372.25,30h1.638v1.638H372.25Z" transform="translate(-273.927 -26.725)" fill="#773b3d"/>
      <path id="Trazado_1001466" data-name="Trazado 1001466" d="M402.25,30h1.638v1.638H402.25Z" transform="translate(-300.652 -26.725)" fill="#773b3d"/>
      <path id="Trazado_1001467" data-name="Trazado 1001467" d="M151.37,383.836l-1.158-1.158-1.158,1.158,2.316,2.316,2.9-2.9-1.158-1.158Z" transform="translate(-75.1 -340.382)" fill="#773b3d"/>
      <path id="Trazado_1001468" data-name="Trazado 1001468" d="M116.669,354.042h12.283V341.759H116.669Zm1.638-10.645h9.007V352.4h-9.007Z" transform="translate(-46.25 -304.446)" fill="#773b3d"/>
      <path id="Trazado_1001469" data-name="Trazado 1001469" d="M113.226,57.742a7.316,7.316,0,1,0,7.316,7.316,7.324,7.324,0,0,0-7.316-7.316Zm0,12.994a5.678,5.678,0,1,1,5.678-5.678A5.685,5.685,0,0,1,113.226,70.736Z" transform="translate(-36.666 -51.438)" fill="#773b3d"/>
      <path id="Trazado_1001470" data-name="Trazado 1001470" d="M145.676,135.174a1.924,1.924,0,0,1-1.8-1.258l-1.538.563a3.556,3.556,0,0,0,6.678,0l-1.538-.563A1.924,1.924,0,0,1,145.676,135.174Z" transform="translate(-69.116 -119.295)" fill="#773b3d"/>
      <path id="Trazado_1001471" data-name="Trazado 1001471" d="M187.919,103.685h1.638v1.638h-1.638Z" transform="translate(-109.721 -92.365)" fill="#773b3d"/>
      <path id="Trazado_1001472" data-name="Trazado 1001472" d="M142.919,103.685h1.638v1.638h-1.638Z" transform="translate(-69.635 -92.365)" fill="#773b3d"/>
      <path id="Trazado_1001473" data-name="Trazado 1001473" d="M272.072,65.058a7.316,7.316,0,1,0,7.316-7.316A7.324,7.324,0,0,0,272.072,65.058Zm12.994,0a5.678,5.678,0,1,1-5.678-5.678A5.685,5.685,0,0,1,285.066,65.058Z" transform="translate(-184.687 -51.438)" fill="#773b3d"/>
      <path id="Trazado_1001474" data-name="Trazado 1001474" d="M311.839,128.993a3.567,3.567,0,0,0-3.339,2.333l1.538.563a1.918,1.918,0,0,1,3.6,0l1.538-.563A3.567,3.567,0,0,0,311.839,128.993Z" transform="translate(-217.137 -114.91)" fill="#773b3d"/>
      <path id="Trazado_1001475" data-name="Trazado 1001475" d="M309.081,103.685h1.638v1.638h-1.638Z" transform="translate(-217.655 -92.365)" fill="#773b3d"/>
      <path id="Trazado_1001476" data-name="Trazado 1001476" d="M354.081,103.685h1.638v1.638h-1.638Z" transform="translate(-257.742 -92.365)" fill="#773b3d"/>
      <path id="Trazado_1001477" data-name="Trazado 1001477" d="M282.831,354.042h12.283V341.759H282.831Zm1.638-10.645h9.007V352.4h-9.007Z" transform="translate(-194.271 -304.446)" fill="#773b3d"/>
      <path id="Trazado_1001478" data-name="Trazado 1001478" d="M282.831,214.26h12.283V215.9H282.831Z" transform="translate(-194.271 -190.867)" fill="#773b3d"/>
      <path id="Trazado_1001479" data-name="Trazado 1001479" d="M282.831,274.259h12.283V275.9H282.831Z" transform="translate(-194.271 -244.315)" fill="#773b3d"/>
      <path id="Trazado_1001480" data-name="Trazado 1001480" d="M282.831,244.26h12.283V245.9H282.831Z" transform="translate(-194.271 -217.592)" fill="#773b3d"/>
      <path id="Trazado_1001481" data-name="Trazado 1001481" d="M282.831,304.259h12.283V305.9H282.831Z" transform="translate(-194.271 -271.04)" fill="#773b3d"/>
      <path id="Trazado_1001482" data-name="Trazado 1001482" d="M116.669,304.259h12.283V305.9H116.669Z" transform="translate(-46.25 -271.04)" fill="#773b3d"/>
      <path id="Trazado_1001483" data-name="Trazado 1001483" d="M116.669,274.259h12.283V275.9H116.669Z" transform="translate(-46.25 -244.315)" fill="#773b3d"/>
      <path id="Trazado_1001484" data-name="Trazado 1001484" d="M116.669,244.26h12.283V245.9H116.669Z" transform="translate(-46.25 -217.592)" fill="#773b3d"/>
      <path id="Trazado_1001485" data-name="Trazado 1001485" d="M116.669,214.26h12.283V215.9H116.669Z" transform="translate(-46.25 -190.867)" fill="#773b3d"/>
      <path id="Trazado_1001486" data-name="Trazado 1001486" d="M66.388,60H64.75V109.35H99.96v-1.638H66.388Z" transform="translate(0 -53.45)" fill="#773b3d"/>
      <path id="Trazado_1001487" data-name="Trazado 1001487" d="M64.75,0V4.913h1.638V1.638h38.486V54.262H101.6V55.9h4.913V0Z" fill="#773b3d"/>
    </g>
  </g>
</svg>
