<svg xmlns="http://www.w3.org/2000/svg" xmlns:xlink="http://www.w3.org/1999/xlink" width="130" height="119.974" viewBox="0 0 130 119.974">
  <defs>
    <clipPath id="clip-path">
      <path id="Trazado_991612" data-name="Trazado 991612" d="M0-12.8H130V107.171H0Z" transform="translate(0 12.803)" fill="none"/>
    </clipPath>
    <clipPath id="clip-path-2">
      <rect id="Rectángulo_454521" data-name="Rectángulo 454521" width="130" height="119.303" fill="none"/>
    </clipPath>
    <clipPath id="clip-path-3">
      <rect id="Rectángulo_454519" data-name="Rectángulo 454519" width="116.699" height="98.739" fill="#bbded6"/>
    </clipPath>
    <clipPath id="clip-path-4">
      <rect id="Rectángulo_454520" data-name="Rectángulo 454520" width="109.614" height="92.744" fill="#bbded6"/>
    </clipPath>
    <clipPath id="clip-path-5">
      <rect id="Rectángulo_454522" data-name="Rectángulo 454522" width="78.184" height="78.2" fill="#3e5d56"/>
    </clipPath>
  </defs>
  <g id="Grupo_1177860" data-name="Grupo 1177860" transform="translate(-1120.136 -272.925)">
    <g id="Grupo_1177858" data-name="Grupo 1177858" transform="translate(1120.136 272.925)">
      <g id="Enmascarar_grupo_1119118" data-name="Enmascarar grupo 1119118" transform="translate(0 0)" clip-path="url(#clip-path)">
        <g id="Grupo_1176801" data-name="Grupo 1176801" transform="translate(0 0.67)">
          <g id="Grupo_1176800" data-name="Grupo 1176800" clip-path="url(#clip-path-2)">
            <g id="Grupo_1176796" data-name="Grupo 1176796" transform="translate(13.301 2.505)" style="isolation: isolate">
              <g id="Grupo_1176795" data-name="Grupo 1176795" transform="translate(0)">
                <g id="Grupo_1176794" data-name="Grupo 1176794" clip-path="url(#clip-path-3)">
                  <path id="Trazado_991607" data-name="Trazado 991607" d="M152.821,49.369c0,27.266-26.124,49.369-58.349,49.369s-58.349-22.1-58.349-49.369S62.246,0,94.471,0s58.349,22.1,58.349,49.369" transform="translate(-36.122)" fill="#bbded6"/>
                </g>
              </g>
            </g>
            <g id="Grupo_1176799" data-name="Grupo 1176799" transform="translate(0 14.481)" opacity="0.59" style="isolation: isolate">
              <g id="Grupo_1176798" data-name="Grupo 1176798">
                <g id="Grupo_1176797" data-name="Grupo 1176797" clip-path="url(#clip-path-4)">
                  <path id="Trazado_991608" data-name="Trazado 991608" d="M109.614,54.274c0,25.611-24.538,46.372-54.807,46.372S0,79.885,0,54.274,24.538,7.9,54.807,7.9s54.807,20.762,54.807,46.372" transform="translate(0 -7.902)" fill="#bbded6"/>
                </g>
              </g>
            </g>
            <path id="Trazado_991609" data-name="Trazado 991609" d="M100.133,2.859C81.389-3.059,59.651.247,44.081,12.451,29.209,24.109,24.48,43.145,32.422,60.374c8.793,19.075,30.95,28.366,51.122,25.6a185.7,185.7,0,0,0-3.739,22.478c-.1.792.975,1.058,1.466.607,7.251-6.665,13.178-15.551,18.946-23.492a.675.675,0,0,0,.109-.235c18.3-1.955,31.473-22.993,32.327-40.033C133.7,24.486,119.18,8.873,100.133,2.859m24.743,61.984c-5.337,9.033-14.408,18.049-25.394,18.86a.91.91,0,0,0-.795,1.165c-5.621,6.989-10.52,14.878-16.858,21.263.922-6.761,2.141-13.483,2.965-20.251a.517.517,0,0,0-.023-.234c.284-.384.066-1.142-.518-1.09C66.845,86.12,48,80.856,37.565,65.91,27.46,51.431,27.64,31.728,39.888,18.6,52.4,5.2,72.218-.223,90.069,2.327c18.344,2.62,36.2,13.825,40.112,32.965a41.841,41.841,0,0,1-5.3,29.551" transform="translate(-12.462 10.021)" fill="#3e5d56"/>
          </g>
        </g>
      </g>
    </g>
    <g id="Grupo_1177859" data-name="Grupo 1177859" transform="translate(1147.936 289.906)">
      <g id="Grupo_1176804" data-name="Grupo 1176804" clip-path="url(#clip-path-5)">
        <path id="Trazado_991613" data-name="Trazado 991613" d="M10.637,78.2c-2.906-.988-4.646-3.982-3.05-6.86A4.782,4.782,0,0,1,2.4,66.378c.039-.7.7-1.94.628-2.262-.014-.066-.92-.52-1.152-.71a4.58,4.58,0,0,1-.483-6.8c.339-.347,1.616-.97,1.635-1.066.072-.346-.565-1.469-.619-2.115a5.008,5.008,0,0,1,1.218-3.657c.2-.211.993-.651,1.033-.719a49.189,49.189,0,0,0,.032-4.922C4.3,37.99.456,33.6.109,27.2c-.3-5.489.1-11.289.169-16.77A4.624,4.624,0,0,1,6.976,7.6a4.783,4.783,0,0,1,4.962-5.19c.7.039,1.94.7,2.262.628.066-.014.52-.919.71-1.152a4.565,4.565,0,0,1,7.87,1.152c1.55-.543,2.748-.945,4.369-.285a7,7,0,0,1,2.314,1.962A26.932,26.932,0,0,0,40.41,3.3C45.659,1.3,48.738-.43,54.786.124A1.168,1.168,0,0,1,55.2,2.387a31.291,31.291,0,0,1-4.084.033c-5.459.343-9.011,3.314-14.077,4.22A36.4,36.4,0,0,1,30,6.993V22.851c1.716-1.071,3.505-3.52,5.4-4.126A4.624,4.624,0,0,1,40.523,25.9c3.312,1.57,5.511,5,8,7.628,1.332,1.4,3.055,3.274,4.5,4.5,1.113.945,2.165,1.687,3.586.685,3.1-2.186-2.463-5.825-3.308-7.823a2.2,2.2,0,0,1,1.929-3.162c5.012-.472,10.865.506,15.862,0,2.784-.28,3.51-3.237,1-4.5l-12.13-.068c-1.819-.217-1.706-2.267.017-2.43l14.284-.048c2.578-1.014,1.979-4.191-.744-4.523-4.273-.519-9.492.347-13.866-.009a1.138,1.138,0,0,1,.043-2.26l12.153-.045a2.313,2.313,0,0,0-.461-4.551L57.363,9.288a1.152,1.152,0,0,1-.229-2.227l9.985-.078a2.3,2.3,0,0,0-.441-4.571c-1.315-.117-6.458.28-7.157-.162A1.2,1.2,0,0,1,60.109.125a47.123,47.123,0,0,1,7.156.024,4.665,4.665,0,0,1,3.448,6.843,4.762,4.762,0,0,1,5.144,5.375c-.08.551-.66,1.485-.582,1.849.014.066.92.52,1.152.71a5.161,5.161,0,0,1,1.757,2.741V19.5a5.063,5.063,0,0,1-2.878,3.22c-.036.736.484,1.273.574,2.056a4.806,4.806,0,0,1-1.3,3.855c-.271.28-.951.554-.986.85a35.512,35.512,0,0,0,.515,8.041c.685,3.029,2.366,5.58,3.2,8.544.378,1.348.569,2.721.874,4.081V67.679c-.988,2.907-3.982,4.646-6.86,3.05a4.782,4.782,0,0,1-4.963,5.189c-.7-.039-1.94-.7-2.262-.627-.066.014-.52.92-.71,1.152A5.278,5.278,0,0,1,60.5,78.2h-1.83A5.358,5.358,0,0,1,55.6,75.321c-.736-.036-1.273.484-2.056.574a4.807,4.807,0,0,1-3.855-1.3c-.281-.271-.554-.951-.851-.987a35.511,35.511,0,0,0-8.041.515c-3.451.781-6.336,2.763-9.878,3.539-.962.21-1.95.286-2.9.532h-.3c-.647-.516-1.242-.964-.679-1.823.526-.8,1.9-.644,2.817-.841,3.814-.824,6.8-2.844,10.516-3.664a32.619,32.619,0,0,1,7.93-.532V55.481c-1.692,1.078-3.52,3.525-5.4,4.126a4.621,4.621,0,0,1-5.117-7.173c-3.317-1.609-5.565-5.071-8.077-7.706-1.29-1.354-2.881-3.061-4.271-4.268-1.208-1.048-2.8-2.137-4.118-.454-2.411,3.076,4.788,5.98,3.77,9.107a2.135,2.135,0,0,1-2.012,1.495c-5.037.474-11.044-.566-16.017-.006-2.647.3-3.28,3.384-.843,4.5l12.269.081c1.622.249,1.635,2.237-.295,2.431-4.462.449-9.611-.366-14.146.034C1.217,59.023,2.181,61.957,5.218,62.2c4.363.342,9.162-.27,13.572,0,1.351.617,1.011,2.158-.45,2.287l-12.014.031c-2.511,1.017-2.012,4.232.727,4.54l14.254.079a1.17,1.17,0,0,1-.141,2.139l-10.113.1a2.3,2.3,0,0,0,.284,4.526l11.7.045a1.208,1.208,0,0,1-.045,2.255ZM6.977,48.314H22.835c-1.046-1.686-3.448-3.444-4.083-5.295a4.619,4.619,0,0,1,7.131-5.227,5.288,5.288,0,0,1,.943-1.727,24.383,24.383,0,0,1,3.791-3.679,1.157,1.157,0,0,1,1.555,1.556c-.216.522-2.681,2.461-3.3,3.253a5.406,5.406,0,0,0-1.122,2.232c0,.413,1.949,1.721,2.257,2.25,1.782,1.823,3.347,3.884,5.1,5.724.7.738,3.438,3.578,4.5,3.13.14-.059,1.7-1.878,2.058-2.222a24.884,24.884,0,0,1,2.287-1.993,1.216,1.216,0,0,1,1.582,1.274c-.113.615-4.254,4.352-5.012,5.217-.981,1.119-2.038,2.306-.912,3.817,2.126,2.855,5.567-1.965,7.33-3.04,1.651-1.007,3.469-.314,3.655,1.661.468,4.976-.441,10.712-.011,15.716.251,2.913,3.117,3.7,4.508,1.143l.085-12.113c.227-1.81,2.231-1.819,2.428.138.449,4.462-.366,9.611.034,14.146,1.372,2.822,4.306,1.858,4.545-1.179.342-4.363-.27-9.163,0-13.573.612-1.391,2.11-1.036,2.288.45.443,3.706-.394,8.192.064,11.982a2.294,2.294,0,0,0,4.493-.556l.093-14.392a1.171,1.171,0,0,1,2.175.258L71.319,67a2.3,2.3,0,0,0,4.578-.155c-.48-6.709,1.062-14.63-1.062-21.048-.56-1.693-1.491-3.242-2.1-4.912a26.974,26.974,0,0,1-1.411-10.864H55.465c1.053,1.663,3.453,3.458,4.083,5.295a4.619,4.619,0,0,1-7.131,5.227,5.279,5.279,0,0,1-.943,1.727,15.5,15.5,0,0,1-2.6,2.578,1.161,1.161,0,0,1-1.607-1.454c.108-.355,1.776-1.754,2.166-2.255a5.724,5.724,0,0,0,1.126-2.33c-.031-.158-1.994-1.877-2.335-2.23-1.993-2.065-5.94-7.327-8.2-8.416-1.679-.808-1.4-.133-2.387.871a23.018,23.018,0,0,1-1.989,1.822A1.158,1.158,0,0,1,34.2,29.109c.96-1.526,3.62-3.127,4.621-4.833a2.284,2.284,0,0,0-2.834-3.291c-1.2.4-3.348,2.978-4.626,3.761-1.63,1-3.47.309-3.655-1.661-.471-5.013.506-10.864,0-15.862-.28-2.787-3.24-3.508-4.5-1l-.085,12.113C22.9,20.149,20.9,20.158,20.7,18.2c-.449-4.461.366-9.611-.034-14.146-1.387-2.814-4.3-1.892-4.545,1.179-.342,4.363.27,9.163,0,13.573-.612,1.39-2.11,1.036-2.287-.451-.443-3.706.394-8.192-.064-11.981a2.294,2.294,0,0,0-4.493.555L9.185,21.322a1.171,1.171,0,0,1-2.175-.258l-.029-9.729a2.3,2.3,0,0,0-4.578.155c.48,6.709-1.062,14.63,1.062,21.048.56,1.693,1.491,3.242,2.1,4.912A26.973,26.973,0,0,1,6.977,48.314" transform="translate(0 0)" fill="#3e5d56"/>
        <path id="Trazado_991614" data-name="Trazado 991614" d="M32.211,231.178a1.208,1.208,0,0,0,.045-2.256l-11.7-.045a2.3,2.3,0,0,1-.284-4.526l10.113-.1a1.17,1.17,0,0,0,.141-2.139l-14.254-.079c-2.739-.308-3.238-3.523-.727-4.54l12.014-.031c1.461-.129,1.8-1.67.45-2.287-4.41-.269-9.209.344-13.572,0-3.038-.239-4-3.173-1.179-4.545,4.535-.4,9.684.415,14.146-.034,1.929-.194,1.917-2.182.295-2.431l-12.269-.081c-2.437-1.119-1.8-4.205.843-4.5,4.973-.559,10.979.481,16.017.006a2.134,2.134,0,0,0,2.012-1.495c1.018-3.127-6.181-6.031-3.77-9.107,1.319-1.683,2.91-.594,4.118.454,1.39,1.206,2.981,2.914,4.271,4.268,2.512,2.635,4.76,6.1,8.077,7.706a4.622,4.622,0,0,0,5.117,7.173c1.884-.6,3.713-3.047,5.4-4.126v15.858a32.63,32.63,0,0,0-7.93.532c-3.715.821-6.7,2.84-10.516,3.664-.915.2-2.292.04-2.817.841-.563.859.032,1.308.679,1.824Z" transform="translate(-9.224 -152.978)" fill="#fdfdfd"/>
        <path id="Trazado_991615" data-name="Trazado 991615" d="M39.632,41.645a1.225,1.225,0,0,1,1.3.178l2.211-2.153a1.232,1.232,0,0,1,.073-1.3c.96-1.526,3.619-3.127,4.621-4.833A2.284,2.284,0,0,0,45,30.243c-1.2.4-3.348,2.978-4.626,3.761-1.63,1-3.47.309-3.655-1.661-.471-5.013.506-10.864,0-15.862-.28-2.787-3.24-3.508-4.5-1L32.142,27.6c-.227,1.81-2.231,1.819-2.428-.138-.449-4.461.366-9.611-.034-14.146-1.386-2.814-4.3-1.892-4.545,1.179-.342,4.363.27,9.163,0,13.573-.612,1.391-2.11,1.036-2.287-.451-.443-3.706.394-8.192-.064-11.982a2.294,2.294,0,0,0-4.493.555L18.2,30.58a1.171,1.171,0,0,1-2.175-.258L16,20.593a2.3,2.3,0,0,0-4.578.155c.48,6.709-1.062,14.63,1.062,21.048.56,1.693,1.491,3.242,2.1,4.912a26.969,26.969,0,0,1,1.411,10.864H31.85c-1.046-1.686-3.448-3.444-4.083-5.295A4.619,4.619,0,0,1,34.9,47.051a5.29,5.29,0,0,1,.943-1.727,24.381,24.381,0,0,1,3.791-3.679" transform="translate(-9.015 -9.258)" fill="#fdfdfd"/>
        <path id="Trazado_991616" data-name="Trazado 991616" d="M227.769,163.135c-.56-1.693-1.491-3.242-2.1-4.912a26.974,26.974,0,0,1-1.411-10.864H208.4c1.053,1.662,3.453,3.458,4.083,5.295a4.619,4.619,0,0,1-7.131,5.227,5.279,5.279,0,0,1-.943,1.727,15.508,15.508,0,0,1-2.6,2.578,1.184,1.184,0,0,1-1.423-.3l-2.231,2.112a1.081,1.081,0,0,1,.314.941c-.113.615-4.254,4.352-5.013,5.217-.981,1.119-2.038,2.306-.912,3.817,2.127,2.855,5.567-1.965,7.331-3.04,1.65-1.007,3.469-.314,3.655,1.661.468,4.976-.441,10.712-.011,15.716.25,2.913,3.117,3.7,4.508,1.143l.085-12.113c.227-1.81,2.231-1.819,2.428.138.449,4.462-.366,9.611.034,14.146,1.372,2.822,4.306,1.858,4.545-1.179.342-4.363-.27-9.163,0-13.573.612-1.391,2.11-1.036,2.287.45.443,3.706-.394,8.192.064,11.982a2.294,2.294,0,0,0,4.493-.555l.093-14.392a1.171,1.171,0,0,1,2.175.258l.029,9.729a2.3,2.3,0,0,0,4.578-.155c-.48-6.709,1.062-14.63-1.062-21.048" transform="translate(-152.934 -117.342)" fill="#fdfdfd"/>
        <path id="Trazado_991617" data-name="Trazado 991617" d="M190.8,16.3c-4.273-.519-9.492.347-13.866-.009a1.138,1.138,0,0,1,.043-2.26l12.153-.045a2.313,2.313,0,0,0-.461-4.551l-14.023-.005a1.152,1.152,0,0,1-.229-2.227l9.985-.078a2.3,2.3,0,0,0-.441-4.571c-1.315-.117-6.458.28-7.157-.162a1.2,1.2,0,0,1,.588-2.126c.3-.038.727-.067,1.218-.087v0h-7.926c.445.016.905.044,1.385.088a1.168,1.168,0,0,1,.419,2.263,31.289,31.289,0,0,1-4.084.033c-5.459.343-9.011,3.314-14.077,4.22a36.437,36.437,0,0,1-7.042.353V22.992c1.716-1.071,3.505-3.52,5.4-4.126a4.624,4.624,0,0,1,5.117,7.173c3.312,1.57,5.511,5,8,7.628,1.332,1.4,3.055,3.274,4.5,4.5,1.113.945,2.165,1.687,3.586.685,3.1-2.186-2.463-5.825-3.309-7.823a2.2,2.2,0,0,1,1.929-3.162c5.012-.472,10.865.506,15.862,0,2.784-.28,3.51-3.237,1-4.5l-12.13-.068c-1.819-.217-1.706-2.267.017-2.43l14.284-.048c2.578-1.014,1.979-4.192-.744-4.523" transform="translate(-117.281 -0.141)" fill="#fdfdfd"/>
      </g>
    </g>
  </g>
</svg>
