<svg xmlns="http://www.w3.org/2000/svg" xmlns:xlink="http://www.w3.org/1999/xlink" width="130" height="119.974" viewBox="0 0 130 119.974">
  <defs>
    <clipPath id="clip-path">
      <path id="Trazado_991612" data-name="Trazado 991612" d="M0-12.8H130V107.171H0Z" transform="translate(0 12.803)" fill="none"/>
    </clipPath>
    <clipPath id="clip-path-2">
      <rect id="Rectángulo_454521" data-name="Rectángulo 454521" width="130" height="119.303" fill="none"/>
    </clipPath>
    <clipPath id="clip-path-3">
      <rect id="Rectángulo_454519" data-name="Rectángulo 454519" width="116.699" height="98.739" fill="#bbded6"/>
    </clipPath>
    <clipPath id="clip-path-4">
      <rect id="Rectángulo_454520" data-name="Rectángulo 454520" width="109.614" height="92.744" fill="#bbded6"/>
    </clipPath>
  </defs>
  <g id="Grupo_1177862" data-name="Grupo 1177862" transform="translate(-1120.136 -272.925)">
    <g id="Grupo_1177858" data-name="Grupo 1177858" transform="translate(1120.136 272.925)">
      <g id="Enmascarar_grupo_1119118" data-name="Enmascarar grupo 1119118" transform="translate(0 0)" clip-path="url(#clip-path)">
        <g id="Grupo_1176801" data-name="Grupo 1176801" transform="translate(0 0.67)">
          <g id="Grupo_1176800" data-name="Grupo 1176800" clip-path="url(#clip-path-2)">
            <g id="Grupo_1176796" data-name="Grupo 1176796" transform="translate(13.301 2.505)" style="isolation: isolate">
              <g id="Grupo_1176795" data-name="Grupo 1176795" transform="translate(0)">
                <g id="Grupo_1176794" data-name="Grupo 1176794" clip-path="url(#clip-path-3)">
                  <path id="Trazado_991607" data-name="Trazado 991607" d="M152.821,49.369c0,27.266-26.124,49.369-58.349,49.369s-58.349-22.1-58.349-49.369S62.246,0,94.471,0s58.349,22.1,58.349,49.369" transform="translate(-36.122)" fill="#bbded6"/>
                </g>
              </g>
            </g>
            <g id="Grupo_1176799" data-name="Grupo 1176799" transform="translate(0 14.481)" opacity="0.59" style="isolation: isolate">
              <g id="Grupo_1176798" data-name="Grupo 1176798">
                <g id="Grupo_1176797" data-name="Grupo 1176797" clip-path="url(#clip-path-4)">
                  <path id="Trazado_991608" data-name="Trazado 991608" d="M109.614,54.274c0,25.611-24.538,46.372-54.807,46.372S0,79.885,0,54.274,24.538,7.9,54.807,7.9s54.807,20.762,54.807,46.372" transform="translate(0 -7.902)" fill="#bbded6"/>
                </g>
              </g>
            </g>
            <path id="Trazado_991609" data-name="Trazado 991609" d="M100.133,2.859C81.389-3.059,59.651.247,44.081,12.451,29.209,24.109,24.48,43.145,32.422,60.374c8.793,19.075,30.95,28.366,51.122,25.6a185.7,185.7,0,0,0-3.739,22.478c-.1.792.975,1.058,1.466.607,7.251-6.665,13.178-15.551,18.946-23.492a.675.675,0,0,0,.109-.235c18.3-1.955,31.473-22.993,32.327-40.033C133.7,24.486,119.18,8.873,100.133,2.859m24.743,61.984c-5.337,9.033-14.408,18.049-25.394,18.86a.91.91,0,0,0-.795,1.165c-5.621,6.989-10.52,14.878-16.858,21.263.922-6.761,2.141-13.483,2.965-20.251a.517.517,0,0,0-.023-.234c.284-.384.066-1.142-.518-1.09C66.845,86.12,48,80.856,37.565,65.91,27.46,51.431,27.64,31.728,39.888,18.6,52.4,5.2,72.218-.223,90.069,2.327c18.344,2.62,36.2,13.825,40.112,32.965a41.841,41.841,0,0,1-5.3,29.551" transform="translate(-12.462 10.021)" fill="#3e5d56"/>
          </g>
        </g>
      </g>
    </g>
    <g id="Filled_outline" transform="translate(1146.872 284.277)">
      <path id="Trazado_998037" data-name="Trazado 998037" d="M71.387,12.568C63.9,6.545,52.95,7.541,46.155,14.337l-4.212,4.211-4.212-4.212C30.936,7.541,19.986,6.543,12.5,12.566a18.684,18.684,0,0,0-1.556,27.811L39.829,69.264a2.991,2.991,0,0,0,4.229,0L72.944,40.377A18.68,18.68,0,0,0,71.387,12.568Z" transform="translate(0.361 0.382)" fill="#fff"/>
      <path id="Trazado_998038" data-name="Trazado 998038" d="M67.169,50.3c-10.952,5.952-29.281,3.289-37.514-5.528l.544-2.384a16.529,16.529,0,0,0,.183-6.448l-.425-2.508a2.81,2.81,0,0,0-5.561.142L23.888,37.9c-.869-1.145-2.674-3.936-4.089-6.161a6.74,6.74,0,0,0-8-2.879c-2.136.843-3.631,2.664-4.435,5.535a6.971,6.971,0,0,0,.41,4.887c3.312,6.925,12.61,18.875,26.652,23.842C49.664,68.513,69.916,65.05,67.169,50.3Z" transform="translate(0.97 7.823)" fill="#fff"/>
      <path id="Trazado_998039" data-name="Trazado 998039" d="M13.277,50.3c10.952,5.952,29.281,3.289,37.514-5.528l-.544-2.384a16.529,16.529,0,0,1-.183-6.448l.425-2.508a2.81,2.81,0,0,1,5.561.142l.509,4.321c.869-1.145,2.674-3.936,4.089-6.161a6.74,6.74,0,0,1,8-2.879c2.136.843,3.631,2.664,4.435,5.535a6.971,6.971,0,0,1-.41,4.887C69.365,46.2,60.067,58.154,46.025,63.121,30.782,68.513,10.53,65.05,13.277,50.3Z" transform="translate(3.192 7.823)" fill="#fff"/>
      <path id="Trazado_998040" data-name="Trazado 998040" d="M76.469,39.088a20.155,20.155,0,0,0-3.856-27.206,20.313,20.313,0,0,0-27.076,1.861L42.3,16.987l-3.236-3.246a20.317,20.317,0,0,0-27.076-1.857,20.157,20.157,0,0,0-3.855,27.2,12.2,12.2,0,0,0-1.13,2.755A8.385,8.385,0,0,0,7.5,47.7a48.557,48.557,0,0,0,7.522,10.876,11.982,11.982,0,0,0,4.054,11.361c3.69,3.155,9.64,4.794,16.238,4.794a42.71,42.71,0,0,0,7.047-.6,43.8,43.8,0,0,0,7.084.6c7.2,0,13.363-1.965,16.921-5.578a12.031,12.031,0,0,0,3.213-10.574A48.31,48.31,0,0,0,77.109,47.7a8.334,8.334,0,0,0,.494-5.851,12.285,12.285,0,0,0-1.133-2.758ZM13.718,14.025a17.565,17.565,0,0,1,23.406,1.659l4.207,4.221a1.417,1.417,0,0,0,1.948,0l4.2-4.218A17.563,17.563,0,0,1,70.89,14.025a17.421,17.421,0,0,1,3.8,22.823,7.811,7.811,0,0,0-2.34-1.446,8.066,8.066,0,0,0-9.669,3.421c-.744,1.17-1.412,2.208-1.992,3.093l-.08-.678a4.206,4.206,0,0,0-4.157-3.7q-.085,0-.173,0a4.206,4.206,0,0,0-3.953,3.482L51.9,43.536a17.8,17.8,0,0,0,.2,6.983l.377,1.655a26.158,26.158,0,0,1-10.222,5.861,25.938,25.938,0,0,1-10.119-5.866l.373-1.653a17.736,17.736,0,0,0,.2-6.976l-.417-2.52a4.2,4.2,0,0,0-4.02-3.47H28.13A4.163,4.163,0,0,0,24,41.238l-.08.679c-.676-1.034-1.387-2.145-1.988-3.1A8.088,8.088,0,0,0,12.256,35.4,7.807,7.807,0,0,0,9.92,36.847a17.419,17.419,0,0,1,3.8-22.822ZM9.656,42.58c.674-2.417,1.853-3.926,3.608-4.617A5.4,5.4,0,0,1,19.61,40.29c1.342,2.131,3.234,5.047,4.152,6.258a1.374,1.374,0,0,0,2.46-.671l.509-4.32a1.415,1.415,0,0,1,1.4-1.258h.081a1.444,1.444,0,0,1,1.367,1.188L29.99,44a14.979,14.979,0,0,1-.165,5.91l-.536,2.378a1.381,1.381,0,0,0,.334,1.239A25.761,25.761,0,0,0,37.744,59.2c-7.122,1.373-14.829.773-20.438-2.2A46.02,46.02,0,0,1,9.984,46.512,5.638,5.638,0,0,1,9.656,42.58ZM64.411,67.222c-2.854,2.9-7.974,4.553-13.989,4.725A48.363,48.363,0,0,0,66.989,61.256,8.843,8.843,0,0,1,64.411,67.222ZM74.629,46.511c-2.99,6.253-11.8,18.163-25.87,23.139-10.4,3.679-22.387,2.9-27.892-1.8A9.033,9.033,0,0,1,17.6,60.208c11.608,5.081,29.191,2.1,37.382-6.672a1.373,1.373,0,0,0,.335-1.244l-.544-2.384A15.072,15.072,0,0,1,54.61,44l.425-2.508a1.441,1.441,0,0,1,1.356-1.195,1.471,1.471,0,0,1,1.485,1.266l.509,4.322a1.375,1.375,0,0,0,2.461.671c.909-1.2,2.761-4.064,4.153-6.254a5.4,5.4,0,0,1,6.339-2.337c1.756.692,2.939,2.205,3.617,4.626a5.576,5.576,0,0,1-.326,3.922Z" transform="translate(0 0)" fill="#3e5d56"/>
    </g>
  </g>
</svg>
